<?xml version="1.0" encoding="utf-8"?>
<!-- Generator: Adobe Illustrator 24.2.1, SVG Export Plug-In . SVG Version: 6.00 Build 0)  -->
<svg version="1.1" id="freepik_stories-business-deal" xmlns:svgjs="http://svgjs.com/svgjs"
	 xmlns="http://www.w3.org/2000/svg" xmlns:xlink="http://www.w3.org/1999/xlink" x="0px" y="0px" viewBox="0 0 500 500"
	 style="enable-background:new 0 0 500 500;" xml:space="preserve">
<style type="text/css">
	.st0{fill:#F5F5F5;}
	.st1{fill:#E0E0E0;}
	.st2{fill:#0E9AFF;}
	.st3{opacity:0.2;enable-background:new    ;}
	.st4{opacity:0.3;enable-background:new    ;}
	.st5{opacity:0.6;fill:#0E9AFF;enable-background:new    ;}
	.st6{fill:#37474F;}
	.st7{fill:#263238;}
	.st8{fill:#455A64;}
	.st9{fill:#EBEBEB;}
	.st10{fill:#FAFAFA;}
	.st11{opacity:0.1;enable-background:new    ;}
	.st12{fill:#F0F0F0;}
	.st13{opacity:0.4;fill:#FFFFFF;enable-background:new    ;}
	.st14{opacity:0.35;enable-background:new    ;}
	.st15{opacity:0.5;}
	.st16{fill:#FFFFFF;}
	.st17{opacity:0.5;enable-background:new    ;}
	.st18{opacity:0.8;fill:#FFFFFF;enable-background:new    ;}
	.st19{opacity:0.6;fill:#FFFFFF;enable-background:new    ;}
	.st20{opacity:0.7;fill:#FFFFFF;enable-background:new    ;}
	.st21{opacity:0.2;}
	.st22{opacity:0.15;enable-background:new    ;}
	.st23{opacity:5.000000e-02;enable-background:new    ;}
	.st24{opacity:0.45;}
	.st25{opacity:0.65;}
	.st26{fill:#FFA8A7;}
	.st27{fill:#F28F8F;}
	.st28{fill:#B16668;}
	.st29{opacity:0.6;}
	.st30{opacity:0.1;fill:#263238;enable-background:new    ;}
	.st31{fill:#9A4A4D;}
</style>
<g id="freepik--Floor--inject-32">
	<ellipse id="freepik--floor--inject-32" class="st0" cx="250" cy="344.1" rx="242.1" ry="139.8"/>
</g>
<g id="freepik--Shadows--inject-32">
	<ellipse id="freepik--Shadow--inject-32" class="st1" cx="368.7" cy="393.3" rx="62.5" ry="36.1"/>
	<ellipse id="freepik--shadow--inject-32" class="st1" cx="217.6" cy="396.3" rx="63.1" ry="36.5"/>
	<path id="freepik--shadow--inject-32_1_" class="st1" d="M447.5,398l17-9.8c1.5-0.9,1.5-2.3,0-3.1l-55.9-32.3
		c-1.7-0.9-3.7-0.9-5.5,0l-17,9.8c-1.5,0.9-1.5,2.3,0,3.1L442,398C443.7,398.9,445.8,398.9,447.5,398z"/>
	<polygon id="freepik--shadow--inject-32_2_" class="st1" points="125.4,402.3 28.5,346.4 229.5,230.3 326.3,286.2 	"/>
</g>
<g id="freepik--Briefcase--inject-32">
	<g id="freepik--briefcase--inject-32">
		<path id="elgg9bigg9swk" class="st2" d="M458.5,333.3v46.2c-0.2,2.6-1.5,4.9-3.6,6.3l-4.4,2.5c-1.6,0.8-3.4,1.1-5.1,0.8
			c-0.7-0.1-1.5-0.3-2.1-0.7c0,0-0.1,0-0.1-0.1l-0.3-0.1l-51.3-29.6c-3.8-2.2-6.1-6.2-6.1-10.5v-43.4c0.1-1.1,0.6-2.1,1.6-2.7
			l8.6-4.9c1-0.5,2.1-0.5,3.1,0l58.2,33.6c0.5,0.3,0.8,0.7,1.1,1.2C458.3,332.2,458.5,332.8,458.5,333.3z"/>
		<g id="eltx9ldoah9hj">
			<path class="st3" d="M458.5,333.3v46.2c-0.2,2.6-1.5,4.9-3.6,6.3l-4.4,2.5c-1.6,0.8-3.4,1.1-5.1,0.8c-0.7-0.1-1.5-0.3-2.1-0.7
				l0,0c2,0.9,3.6-0.1,3.6-2.5v-45c0-0.8-0.3-1.6-0.7-2.3l11.9-6.9C458.3,332.2,458.5,332.8,458.5,333.3z"/>
		</g>
		<g id="el1erpce5zot6">
			<path class="st4" d="M446.8,341c-0.1-1.7-1-3.2-2.4-4.1l-55-31.8c-2.2-1.3-4-0.2-4,2.3v40.7c0,4.3,2.3,8.3,6.1,10.5l51.3,29.6
				c2.2,1.3,4,0.2,4-2.3L446.8,341z"/>
		</g>
		<g id="el411wzah9d93">
			<path class="st5" d="M385.5,319.7c0.2,3.2,1.9,6.1,4.5,7.8l52.3,30.2c2.5,1.4,4.5,0.3,4.5-2.6v-15.4c0-0.9,0.5-1.7,1.2-2.1l8-4.6
				L395.6,297l-8.9,5.1c-0.8,0.4-1.2,1.3-1.2,2.1V319.7z"/>
		</g>
		<path id="el5w1teqv1x77" class="st2" d="M395.6,297l-8.9,5.1c-0.4,0.2-0.7,0.6-0.9,1l61.4,35.3c0.2-0.4,0.5-0.7,0.9-0.9l8-4.6
			L395.6,297z"/>
		<path id="elavubv01kzmk" class="st6" d="M412.1,336.8l8.1,4.7c1.3,0.9,2.2,2.3,2.3,3.9v1.9c0,1.4-1,2-2.2,1.3l-8.2-4.7
			c-1.3-0.9-2.2-2.3-2.3-3.9v-1.8C409.8,336.7,410.8,336.1,412.1,336.8z"/>
		<path id="elqizqwqd9gz8" class="st7" d="M415.6,305.1v6.4l-3.7,2.1v-9.8c0-0.5,0.4-0.7,0.8-0.5L415.6,305.1z"/>
		<path id="el8jbf6amwrys" class="st8" d="M435,311.9v12l-2.8,1.6l-1.9-1.1v-9.8c0-0.6-0.3-1.1-0.8-1.4l-14.1-8.1l-2.9-1.7
			c-0.4-0.3-0.8,0-0.8,0.5v9.8l-1.8-1.1v-12c0,0,0-0.1,0-0.2c0.1-0.5,0.4-0.9,0.8-1.2l1.2-0.7c0.5-0.2,1.1-0.2,1.6,0l20.7,12
			C434.7,310.9,435,311.4,435,311.9z"/>
		<path id="elvdmoab6oj2" class="st6" d="M432.3,313.5v12l-1.9-1.1v-9.8c0-0.6-0.3-1.1-0.8-1.4l-14.1-8.1l-2.9-1.7
			c-0.4-0.3-0.8,0-0.8,0.5v9.8l-1.8-1.1v-12c0,0,0-0.1,0-0.2c0.1-0.4,0.4-0.5,0.8-0.3l20.7,12C431.9,312.5,432.2,313,432.3,313.5z"
			/>
	</g>
</g>
<g id="freepik--Chair--inject-32">
	<g id="freepik--chair--inject-32">
		<path id="elztxc577l5r" class="st8" d="M66.6,302.7c0,0.4,0,0.7,0.1,1.1c0.1,0.6,0.5,1.1,1,1.5l0,0c1,0.5,2.1,0.4,3-0.2
			c2.4-1.6,3.9-4.2,4-7c0.1-1-0.3-2-1.2-2.6l0,0l-0.2-0.1l0,0c-0.6-0.2-1.2-0.3-1.7-0.1c-0.3,0.1-0.7,0.3-1,0.4
			C68.3,297.2,66.8,299.8,66.6,302.7z"/>
		<path id="el1p9xek5svpu" class="st7" d="M67.7,293.9c0.5-0.3,1.2-0.5,1.8-0.5c0.4,0,0.8,0.1,1.2,0.3l0.1,0.1l2.6,1.5
			c-0.6-0.2-1.2-0.3-1.7-0.1c-0.3,0.1-0.7,0.3-1,0.4c-2.4,1.6-3.9,4.2-4.1,7.1c0,0.4,0,0.7,0.1,1.1c0.1,0.6,0.5,1.1,1,1.5l-2.7-1.6
			l0,0l-0.2-0.1c0,0-0.1,0-0.1,0c-0.7-0.6-1.1-1.6-1-2.5C63.8,298.1,65.3,295.5,67.7,293.9z"/>
		<path id="el973jbdmz1sf" class="st8" d="M110.7,278.9c0,0.4,0,0.7,0.1,1.1c0.1,0.6,0.5,1.1,1,1.5l0,0c1,0.5,2.1,0.4,3-0.2
			c2.4-1.6,3.9-4.2,4.1-7.1c0.1-1-0.3-2-1.1-2.6l0,0l-0.2-0.1l0,0c-0.6-0.2-1.2-0.2-1.7-0.1c-0.3,0.1-0.7,0.3-1,0.4
			C112.4,273.4,110.9,276.1,110.7,278.9z"/>
		<path id="elxu29fbao73r" class="st7" d="M111.8,270.2c0.5-0.3,1.2-0.5,1.8-0.5c0.4,0,0.8,0.1,1.1,0.3l0.1,0.1l2.6,1.5
			c-0.6-0.2-1.2-0.2-1.7-0.1c-0.3,0.1-0.7,0.3-1,0.4c-2.4,1.6-3.9,4.2-4.1,7.1c0,0.4,0,0.7,0.1,1.1c0.1,0.6,0.5,1.1,1,1.5l-2.7-1.6
			l0,0l-0.2-0.1h-0.1c-0.7-0.6-1.1-1.6-1-2.5C107.9,274.4,109.4,271.8,111.8,270.2z"/>
		<path id="eldeqwtylwdrs" class="st8" d="M102.8,311.9c0,0.4,0,0.7-0.1,1.1c-0.1,0.6-0.5,1.1-1,1.5l0,0c-1,0.5-2.1,0.4-3-0.2
			c-2.4-1.6-3.9-4.2-4.1-7.1c-0.1-1,0.3-2,1.2-2.6l0,0l0.2-0.1l0,0c0.6-0.2,1.2-0.3,1.7-0.1c0.4,0.1,0.7,0.2,1,0.4
			C101.2,306.4,102.7,309.1,102.8,311.9z"/>
		<path id="elplnmmqbn8bk" class="st7" d="M101.7,303.2c-0.5-0.3-1.2-0.5-1.8-0.5c-0.4,0-0.8,0.1-1.2,0.3l-0.1,0l-2.7,1.5
			c0.6-0.2,1.2-0.3,1.7-0.1c0.4,0.1,0.7,0.2,1,0.4c2.4,1.6,3.9,4.2,4.1,7.1c0,0.4,0,0.7-0.1,1.1c-0.1,0.6-0.5,1.1-1,1.5l2.7-1.6l0,0
			l0.2-0.1h0.1c0.7-0.6,1.1-1.6,1-2.5C105.6,307.4,104.1,304.8,101.7,303.2z"/>
		<path id="elyz5e5d574el" class="st8" d="M131.5,297.9c0,0.4,0,0.7-0.1,1.1c-0.1,0.6-0.5,1.1-1,1.5l0,0c-1,0.5-2.1,0.4-3-0.2
			c-2.4-1.6-3.9-4.2-4.1-7.1c-0.1-1,0.3-2,1.2-2.6l0,0l0.2-0.1l0,0c0.6-0.2,1.2-0.3,1.7-0.1c0.4,0.1,0.7,0.3,1,0.4
			C129.8,292.4,131.3,295,131.5,297.9z"/>
		<path id="ela22h94kx28l" class="st7" d="M130.4,289.1c-0.6-0.3-1.2-0.5-1.8-0.5c-0.4,0-0.8,0.1-1.2,0.3l-0.1,0.1l-2.6,1.5
			c0.6-0.2,1.2-0.3,1.7-0.1c0.4,0.1,0.7,0.3,1,0.4c2.4,1.6,3.9,4.2,4.1,7c0,0.4,0,0.7-0.1,1.1c-0.1,0.6-0.5,1.1-1,1.5l2.7-1.6l0,0
			l0.2-0.1h0.1c0.7-0.6,1.1-1.6,1-2.5C134.3,293.4,132.8,290.7,130.4,289.1z"/>
		<path id="elmqma0svinqg" class="st8" d="M76.1,280.7c0,0.4,0,0.7-0.1,1.1c-0.1,0.6-0.5,1.1-1,1.5l0,0c-1,0.5-2.1,0.4-3-0.2
			c-2.4-1.6-3.9-4.2-4-7c-0.1-1,0.3-2,1.2-2.6l0,0l0.2-0.1l0,0c0.6-0.2,1.2-0.3,1.7-0.1c0.3,0.1,0.7,0.3,1,0.4
			C74.5,275.2,76,277.8,76.1,280.7z"/>
		<path id="elxri8cvh7m6" class="st7" d="M75,271.9c-0.5-0.3-1.2-0.5-1.8-0.5c-0.4,0-0.8,0.1-1.2,0.3l-0.1,0.1l-2.6,1.5
			c0.6-0.2,1.2-0.3,1.7-0.1c0.3,0.1,0.7,0.3,1,0.4c2.4,1.6,3.9,4.2,4.1,7c0,0.4,0,0.7-0.1,1.1c-0.1,0.6-0.5,1.1-1,1.5l2.7-1.6l0,0
			l0.2-0.1H78c0.7-0.6,1.1-1.6,1-2.5C78.9,276.2,77.4,273.5,75,271.9z"/>
		<polygon id="elpw5046xup1m" class="st9" points="100.5,272.1 115,267.9 115,271 100.5,279.4 		"/>
		<polygon id="elwt76pw0hv0l" class="st0" points="100.5,272.1 99,271.2 113.7,267.2 115,267.9 		"/>
		<polygon id="el9ulyd0nt1hh" class="st9" points="94.2,281.3 73.5,273.6 73.5,270.5 94.2,272.3 		"/>
		<polygon id="elqymjekr6sba" class="st0" points="73.5,270.5 75.1,270.1 95.4,271.4 94.2,272.3 		"/>
		<path id="eljkgcerbk60e" class="st10" d="M93.6,280.4c0,2.3,7.2,2.3,7.2,0v-20.4h-7.2V280.4z"/>
		<path id="el84nakwv8f5" class="st0" d="M99,275l4,25.7h-2.7L96.6,275C97.4,275.2,98.2,275.2,99,275z"/>
		<polygon id="elce2lf41qjx4" class="st9" points="96.6,275 96.6,282.1 100.3,305 100.3,300.7 		"/>
		<rect id="elclmpj1lgd4v" x="100.3" y="300.7" class="st1" width="2.7" height="4.3"/>
		<polygon id="elnto8tfnte5" class="st9" points="95.3,281.9 68.7,295.8 68.7,291.5 95.3,275.1 		"/>
		<path id="elfsposzobtr" class="st0" d="M95.3,275.1c-0.6-0.1-1.2-0.3-1.7-0.8L67,290.4l1.7,1.1L95.3,275.1z"/>
		<polygon id="elqtt3mpfhfj" class="st1" points="68.7,295.8 68.7,291.5 67,290.4 67,294.6 		"/>
		<polygon id="elvt9zx44nbzr" class="st9" points="128.9,290.9 100.5,281.2 100.5,274.8 128.9,286.6 		"/>
		<path id="elwx8xgbumi6e" class="st0" d="M100.5,274.8c0.2-0.1,0.3-0.5,0.3-1.1l28.9,12.6l-0.8,0.4L100.5,274.8z"/>
		<polygon id="elnn7oyuuy4dm" class="st1" points="129.7,286.3 129.7,290.4 128.9,290.9 128.9,286.6 		"/>
		<g id="el1c03tql4fkth">
			<rect x="100.3" y="300.7" class="st11" width="2.7" height="4.3"/>
		</g>
		<g id="el2xahg5z1wfy">
			<polygon class="st11" points="68.7,295.8 68.7,291.5 67,290.4 67,294.6 			"/>
		</g>
		<g id="ell1mjy7terfk">
			<polygon class="st11" points="129.7,286.3 129.7,290.4 128.9,290.9 128.9,286.6 			"/>
		</g>
		<path id="elr68brba8q8j" class="st12" d="M103.3,224.4H91.1v42.1c0,3.5,12.2,3.5,12.2,0L103.3,224.4z"/>
		<path id="elyciqs6tmugq" class="st2" d="M54.1,218.5l46.6-24.3c0,0,3.3-15.9-7.8-33.3c0,0,3.3-31-2.2-41.3c-4-7.9-8.9-6.8-8.9-6.8
			l-52.9,23.9L54.1,218.5z"/>
		<g id="elu6p7u7acr2">
			<path class="st3" d="M54.1,218.5l46.6-24.3c0,0,3.3-15.9-7.8-33.3c0,0,3.3-31-2.2-41.3c-4-7.9-8.9-6.8-8.9-6.8l-52.9,23.9
				L54.1,218.5z"/>
		</g>
		<path id="elq0ian2rh4qs" class="st2" d="M81.8,112.8l-52.9,23.9l1.7,5.6l57.9-26.1C85.1,112.1,81.8,112.8,81.8,112.8z"/>
		<g id="eldh0h72k9sh7">
			<path class="st13" d="M82,162.4c0.1,0.5,0.6,0.9,1.1,0.9c0.2,0,0.3-0.1,0.5-0.2c0.8-0.5,1.2-1.4,1.2-2.3
				c-0.1-0.8-0.8-1.1-1.6-0.7C82.4,160.5,81.9,161.4,82,162.4z"/>
		</g>
		<g id="elowlqnpo2pp">
			<path class="st13" d="M74,167c0.1,0.5,0.6,0.9,1.1,0.9c0.2,0,0.3-0.1,0.5-0.2c0.8-0.5,1.2-1.4,1.2-2.3c-0.1-0.8-0.8-1.1-1.6-0.7
				C74.4,165.2,73.9,166.1,74,167z"/>
		</g>
		<g id="elw4uh7bvoah8">
			<path class="st13" d="M65.9,171.7c0.1,0.5,0.6,0.9,1.1,0.9c0.2,0,0.3-0.1,0.5-0.2c0.8-0.5,1.2-1.4,1.2-2.3
				c-0.1-0.8-0.8-1.1-1.6-0.7C66.3,169.9,65.8,170.7,65.9,171.7z"/>
		</g>
		<g id="elv7l5aaws8we">
			<path class="st13" d="M57.8,176.3c0.1,0.5,0.6,0.9,1.1,0.9c0.2,0,0.3-0.1,0.5-0.2c0.8-0.5,1.2-1.4,1.2-2.3
				c-0.1-0.8-0.8-1.1-1.6-0.7C58.2,174.5,57.8,175.4,57.8,176.3z"/>
		</g>
		<path id="elk5f7pob4x1b" class="st2" d="M154,214v2.6c-0.2,3.1-1.9,5.9-4.5,7.5l-52,27.3c-2.9,1.3-6.2,1.2-9-0.2l-30-17.3
			c-2.6-1.7-4.3-4.6-4.4-7.7v-2.6c0.2-3.1,1.9-5.9,4.5-7.5l49.2-25.7c2.9-1.3,6.2-1.3,9.1-0.1l32.5,16.2
			C152,208.1,153.8,210.9,154,214z"/>
		<g id="elto2ex9q6f8a">
			<path class="st3" d="M154,214v2.6c-0.2,3.1-1.9,5.9-4.5,7.5l-52,27.3c-2.9,1.3-6.2,1.2-9-0.2l-30-17.3c-2.6-1.7-4.3-4.6-4.4-7.7
				v-2.6c0.2-3.1,1.9-5.9,4.5-7.5l49.2-25.7c2.9-1.3,6.2-1.3,9.1-0.1l32.5,16.2C152,208.1,153.8,210.9,154,214z"/>
		</g>
		<g id="eluxgjohv5cjs">
			<path class="st3" d="M94.1,252.3c-1.9,0.2-3.9-0.2-5.6-1.1l-30-17.3c-2.6-1.7-4.3-4.6-4.4-7.7v-2.6c0.2-2.8,1.6-5.5,3.9-7.1
				c-1.8,1.3-1.7,3.3,0.5,4.5l30,17.3c1.4,0.7,3,1.1,4.6,1.1L94.1,252.3z"/>
		</g>
		<path id="elc093b37gl7i" class="st2" d="M97.5,238.6l52-27.3c2.5-1.3,2.5-3.4,0-4.7L117,190.4c-2.9-1.3-6.2-1.2-9.1,0.1
			l-49.3,25.7c-2.5,1.3-2.6,3.5-0.1,4.9l30,17.3C91.3,239.8,94.6,239.9,97.5,238.6z"/>
		<path id="eliq2dpl50rfi" class="st2" d="M97.5,238.6l52-27.3c2.5-1.3,2.5-3.4,0-4.7L117,190.4c-2.9-1.3-6.2-1.2-9.1,0.1
			l-49.3,25.7c-2.5,1.3-2.6,3.5-0.1,4.9l30,17.3C91.3,239.8,94.6,239.9,97.5,238.6z"/>
		<path id="eln0m83qw73bh" class="st2" d="M81.8,112.8c0,0,7.7-5.2,15.7-0.5s5.4,20.3,4.6,30.5s-1.1,27.7,5.9,34.1
			s30.3-2.1,40.4-2.1l-8.9,32.9c-9.8-5.4-25.6-10.9-38.8-13.5c0,0,0.4-20.5-9-32.2c0,0,3.5-8.2,1.2-24.6
			C90.8,122.1,88,116.4,81.8,112.8z"/>
		<g id="el09pvu55rua4w">
			<path class="st14" d="M81.8,112.8c0,0,7.7-5.2,15.7-0.5s5.4,20.3,4.6,30.5s-1.1,27.7,5.9,34.1s30.3-2.1,40.4-2.1l-8.9,32.9
				c-9.8-5.4-25.6-10.9-38.8-13.5c0,0,0.4-20.5-9-32.2c0,0,3.5-8.2,1.2-24.6C90.8,122.1,88,116.4,81.8,112.8z"/>
		</g>
		<path id="el4pvq7b179s" class="st2" d="M139.5,207.6c-0.5-2.9-2.3-19.9,0.8-27.2c2.8-6.4,10-6.8,12.2-4s0.3,6.1-3.4,10.8
			c-3,4-4.1,7.7-4.1,17.3L139.5,207.6z"/>
		<g id="elyk0gz9vl2b">
			<path class="st3" d="M139.5,207.6c-0.5-2.9-2.3-19.9,0.8-27.2c2.8-6.4,10-6.8,12.2-4s0.3,6.1-3.4,10.8c-3,4-4.1,7.7-4.1,17.3
				L139.5,207.6z"/>
		</g>
		<g id="elg5tn74vudx6">
			<g class="st15">
				<path id="elltrelav0qc" class="st16" d="M148.4,177.5c0.7-0.1,1.4,0.2,2,0.6c0.8,1-0.3,3.2-3.4,7.4c-3.4,4.4-4.5,8.6-4.7,16.9
					c0,0.3-0.1,0.5-0.4,0.6l-0.2,0.1c-0.7-7.6-0.8-17.3,1.1-21.7C143.7,179.2,145.9,177.6,148.4,177.5 M148.4,176.8
					c-2.8,0.1-5.2,1.8-6.2,4.4c-2.1,4.9-1.8,15.5-1.2,22c0,0.4,0.4,0.7,0.7,0.6c0.1,0,0.2,0,0.3-0.1l0.2-0.1
					c0.4-0.3,0.7-0.7,0.7-1.2c0.1-8.3,1.3-12.3,4.6-16.5c3.5-4.6,4.5-6.9,3.4-8.2C150.2,177,149.3,176.7,148.4,176.8L148.4,176.8z"
					/>
			</g>
		</g>
		<path id="eliu21f39xbxe" class="st2" d="M52.2,232.9l36,18.1l-0.8-13.3l5.6-3.2c-0.4-10.3-3.2-20.8-10.5-23.2
			c-9.1-2.9-20.9-3.8-28-10.2s-6.8-24-5.9-34.1s3.5-25.8-4.5-30.4s-15.7,0.5-15.7,0.5c-3.5,2.2-7.5,3.9-7.1,6.6
			c0.1,1.4,1.1,2.5,2.5,2.8l20.1,76C44.9,227,48,230.8,52.2,232.9z"/>
		<g id="el1xtrvsih6p2">
			<path class="st17" d="M52.2,232.9l36,18.1l-0.8-13.3l5.6-3.2c-0.4-10.3-3.2-20.8-10.5-23.2c-9.1-2.9-20.9-3.8-28-10.2
				s-6.8-24-5.9-34.1s3.5-25.8-4.5-30.4s-15.7,0.5-15.7,0.5c-3.5,2.2-7.5,3.9-7.1,6.6c0.1,1.4,1.1,2.5,2.5,2.8l20.1,76
				C44.9,227,48,230.8,52.2,232.9z"/>
		</g>
		<path id="el9x7ji64d65" class="st2" d="M38.7,146c3.2,3.9,4.9,10,4.3,25.1s-0.4,27.3,5.5,34.7c7,8.8,31,15.8,31,15.8l9.4-4.3
			c-1.3-2.7-3.7-4.8-6.5-5.8c-9.1-2.9-20.9-3.8-28-10.2s-6.8-24-5.9-34.1s3.5-25.8-4.5-30.4s-15.7,0.5-15.7,0.5
			c-3.5,2.2-7.5,3.9-7.1,6.6c0.1,1.4,1.1,2.5,2.5,2.8C28.1,145,35.5,142.1,38.7,146z"/>
		<g id="elgsfod88fq74">
			<path class="st14" d="M38.7,146c3.2,3.9,4.9,10,4.3,25.1s-0.4,27.3,5.5,34.7c7,8.8,31,15.8,31,15.8l9.4-4.3
				c-1.3-2.7-3.7-4.8-6.5-5.8c-9.1-2.9-20.9-3.8-28-10.2s-6.8-24-5.9-34.1s3.5-25.8-4.5-30.4s-15.7,0.5-15.7,0.5
				c-3.5,2.2-7.5,3.9-7.1,6.6c0.1,1.4,1.1,2.5,2.5,2.8C28.1,145,35.5,142.1,38.7,146z"/>
		</g>
		<path id="el1oz4dm13i2m" class="st2" d="M87.4,237.7l5.6-3.2c0-6.1-1.6-19.5-9.4-22.8c-6.2-2.6-9.2,1.2-9.1,3.5
			c0.1,2.6,2,4.3,5.1,6.1C83.7,223.9,87.4,228.1,87.4,237.7z"/>
		<g id="elbi8bbr7dp5d">
			<path class="st3" d="M87.4,237.7l5.6-3.2c0-6.1-1.6-19.5-9.4-22.8c-6.2-2.6-9.2,1.2-9.1,3.5c0.1,2.6,2,4.3,5.1,6.1
				C83.7,223.9,87.4,228.1,87.4,237.7z"/>
		</g>
		<g id="el3hdfijxnjdu">
			<g class="st15">
				<path id="el610maqg896o" class="st16" d="M79.7,213.7c1,0,1.9,0.3,2.8,0.6c5.1,2.1,7.3,11,7.6,18.5c0,0.1,0,0.1-0.1,0.2
					l-0.3,0.1c-0.9-6.5-3.8-11.1-8.9-14.1c-3.4-1.9-3.7-3-3.7-3.9c0-0.3,0.2-0.6,0.4-0.8C78.2,213.9,78.9,213.6,79.7,213.7
					 M79.7,213c-0.9-0.1-1.9,0.3-2.6,0.9c-0.4,0.4-0.6,0.8-0.7,1.3c0,1.3,0.8,2.5,4.1,4.4c5,2.9,7.9,7.5,8.6,14.1
					c0,0.2,0.1,0.3,0.3,0.3c0,0,0.1,0,0.2,0l0.7-0.4c0.3-0.2,0.5-0.5,0.4-0.8c-0.3-7.8-2.6-16.9-8.1-19.1
					C81.8,213.3,80.8,213.1,79.7,213L79.7,213z"/>
			</g>
		</g>
	</g>
</g>
<g id="freepik--Desk--inject-32">
	<g id="freepik--desk--inject-32_1_">
		<g id="freepik--desk--inject-32">
			<polygon id="eldpopp8cfior" class="st2" points="125.6,297.6 42.4,249.6 230.8,140.8 314,188.9 			"/>
			<g id="elnhaj6993r8f">
				<polygon class="st18" points="125.6,297.6 42.4,249.6 230.8,140.8 314,188.9 				"/>
			</g>
			<polygon id="eli8gy8jp6mgn" class="st2" points="42.4,249.6 42.4,345.7 46.8,348.2 46.8,338.1 121.2,381.1 121.2,391.2 
				125.6,393.8 125.6,297.6 			"/>
			<g id="elagvq6lofen9">
				<polygon class="st19" points="42.4,249.6 42.4,345.7 46.8,348.2 46.8,338.1 121.2,381.1 121.2,391.2 125.6,393.8 125.6,297.6 
									"/>
			</g>
			<polygon id="elxnx6j1nx4pm" class="st2" points="46.8,348.2 51.1,345.7 51.1,340.6 46.8,338.1 			"/>
			<polygon id="eldeyykggf0z" class="st2" points="46.8,348.2 51.1,345.7 51.1,340.6 46.8,338.1 			"/>
			<polygon id="el9p1p04dcf8" class="st2" points="125.6,393.8 130,391.2 130,381.1 309.6,277.4 309.6,287.5 314,285 314,188.9 
				125.6,297.6 			"/>
			<g id="elt8k9xe3p4e">
				<polygon class="st20" points="125.6,393.8 130,391.2 130,381.1 309.6,277.4 309.6,287.5 314,285 314,188.9 125.6,297.6 				"/>
			</g>
			<polygon id="el3d77hfs19e3" class="st2" points="309.6,287.5 305.3,285 305.3,279.9 309.6,277.4 			"/>
		</g>
		<g id="freepik--shadow--inject-32_3_">
			<g class="st21">
				<path id="elqix0b2yt0p8" d="M190.3,195.9l13.9,8c0.6,0.3,1.3,0.3,1.9,0l55.1-31.8c0.5-0.3,0.5-0.8,0-1.1l-13.9-8
					c-0.6-0.3-1.3-0.3-1.9,0l-55.1,31.8C189.8,195.1,189.8,195.6,190.3,195.9z"/>
			</g>
		</g>
		<g id="freepik--Sheets--inject-32">
			<g id="elf7uyktif6ph">
				<g class="st21">
					<path id="elj15erst5v3" d="M136.2,213.1l34.8,20.1c0.6,0.3,1.4,0.3,2,0l25.6-14.8c0.3-0.1,0.5-0.5,0.4-0.8
						c-0.1-0.2-0.2-0.3-0.4-0.4l-34.7-20.1c-0.6-0.3-1.4-0.3-2,0L136.2,212c-0.3,0.1-0.5,0.5-0.3,0.8
						C136,212.9,136.1,213,136.2,213.1z"/>
				</g>
			</g>
			<path id="elngh1nge5nf" class="st9" d="M136.2,211.3l34.8,20.1c0.6,0.3,1.4,0.3,2,0l25.5-14.8c0.3-0.1,0.5-0.5,0.4-0.8
				c-0.1-0.2-0.2-0.3-0.4-0.4l-34.7-20.1c-0.6-0.3-1.4-0.3-2,0l-25.6,14.8c-0.3,0.1-0.5,0.5-0.3,0.8
				C135.9,211.1,136.1,211.2,136.2,211.3z"/>
			<path id="elpxci0qaptbj" class="st1" d="M161.8,195.4l-24.3,14l33.5,19.3c0.6,0.3,1.4,0.3,2,0l24.3-14l-33.4-19.3
				C163.2,195.1,162.4,195.1,161.8,195.4z"/>
			<path id="elyfnzu74n9z" class="st10" d="M136.2,207.8l34.8,20.1c0.6,0.3,1.4,0.3,2,0l25.6-14.8c0.3-0.1,0.5-0.5,0.4-0.8
				c-0.1-0.2-0.2-0.3-0.4-0.4l-34.7-20.1c-0.6-0.3-1.4-0.3-2,0l-25.6,14.8c-0.3,0.1-0.5,0.4-0.4,0.8
				C135.9,207.6,136.1,207.7,136.2,207.8z"/>
		</g>
		<g id="freepik--shadow--inject-32_4_">
			<g class="st21">
				<path id="el9thaarv4sh5" d="M76.8,249.2c3.8,2.2,3.8,5.7,0,7.9c-4.3,2.2-9.3,2.2-13.6,0c-3.8-2.2-3.8-5.7,0-7.9
					C67.4,247,72.5,247,76.8,249.2z"/>
			</g>
		</g>
		<g id="freepik--Pot--inject-32">
			<path id="elw5t99vzz1qq" class="st9" d="M75.7,253.6c3-3.1,4.8-10.8,1.9-13.3H62.5c-3,2.5-1.2,10.2,1.9,13.3l0.1,0.1l0.1,0.1
				l0.3,0.2l0.1,0.1l0.2,0.2c0.1,0.1,0.3,0.2,0.4,0.3c2.8,1.4,6.2,1.4,9.1,0l0,0c0.1-0.1,0.3-0.2,0.4-0.3c0.1-0.1,0.1-0.1,0.2-0.2
				l0.1-0.1l0.3-0.2L75.7,253.6L75.7,253.6z"/>
			<path id="elzytok05kjej" class="st10" d="M63.8,239.3c-3.4,2-3.4,5.2,0,7.2c3.9,2,8.5,2,12.5,0c3.4-2,3.4-5.2,0-7.2
				C72.3,237.3,67.7,237.3,63.8,239.3z"/>
			<path id="elorijoqc3wgc" class="st9" d="M66.2,240.7c-2.1,1.2-2.1,3.2,0,4.4c2.4,1.2,5.2,1.2,7.6,0c2.1-1.2,2.1-3.2,0-4.4
				C71.4,239.5,68.6,239.5,66.2,240.7z"/>
			<path id="elp4r4whchoc" class="st1" d="M73.8,242.8c-2.4-1.2-5.2-1.2-7.6,0c-0.5,0.3-0.9,0.7-1.3,1.1c0.3,0.5,0.8,0.9,1.3,1.1
				c2.4,1.2,5.2,1.2,7.6,0c0.5-0.3,0.9-0.7,1.2-1.1C74.7,243.4,74.3,243,73.8,242.8z"/>
			<path id="eldcsn9jbg2wt" class="st2" d="M71.4,244.4c2.2-1.4,3.8-3.4,4.6-5.9c1.4-4.1,0.6-9-0.7-11c-1.7-2.8-5.8-2.4-4.6,2.1
				s2,9.6,0,12.9L71.4,244.4z"/>
			<g id="el0s06intxomb">
				<g class="st21">
					<path id="elxgewvafnggq" d="M71.4,244.4c2.2-1.4,3.8-3.4,4.6-5.9c1.4-4.1,0.6-9-0.7-11c-1.7-2.8-5.8-2.4-4.6,2.1s2,9.6,0,12.9
						L71.4,244.4z"/>
				</g>
			</g>
			<path id="elqnx208xm0b" class="st16" d="M71.5,243.6c0,0-0.1,0-0.1-0.1c-0.1-0.1-0.1-0.2,0-0.3c2.5-2.7,3.7-6.3,3.4-10
				c0-2.2-0.7-4.3-1.9-6.1c-0.1-0.1-0.1-0.2,0-0.3c0.1-0.1,0.2-0.1,0.3,0c0,0,0,0,0,0c0.6,0.5,1.8,3.1,2,6.4c0.3,3.8-1,7.5-3.5,10.3
				C71.6,243.5,71.5,243.6,71.5,243.6z"/>
			<path id="elt4piuofco0e" class="st2" d="M67.8,244.4c-0.1-0.4-0.4-0.8-0.8-1c-0.4-0.2-0.9-0.4-1.3-0.6c-0.8-0.3-1.8-0.7-2-1.7
				c0-0.3,0-0.7,0.1-1c0.2-0.4,0.2-0.9,0.1-1.4c-0.2-0.4-0.6-0.7-1-0.9c-0.4-0.3-0.8-0.6-1.1-1c-0.2-0.4-0.3-0.8-0.3-1.3
				c0.1-0.9,1-1.5,1-2.4c0-1.3-3-3.1-1.4-4.3c2.1-1.6,5.4,0.3,6.3,1.6s0.9,2,2.7,3.1c1.4,1,3.1,1.1,3.1,3s-2.4,2-0.5,4.1
				c1.1,1.3-0.7,2.4-1.4,3.9C70.3,245.1,68.9,245.1,67.8,244.4z"/>
			<path id="el7fk2cn5g69h" class="st16" d="M69.7,244.9L69.7,244.9c-0.1,0-0.2-0.1-0.2-0.2c0,0,0,0,0,0c0.4-10.9-5.1-14.7-6.2-15
				c-0.1,0-0.1-0.2-0.1-0.3c0-0.1,0.1-0.1,0.2-0.1c1.9,0.5,6.9,5.1,6.5,15.4C69.9,244.9,69.8,244.9,69.7,244.9z"/>
			<path id="elm7wpxga83nj" class="st16" d="M68.7,236.8c0,0-0.1,0-0.1-0.1c-1.6-1.4-4.8-1.4-4.8-1.4c-0.1,0-0.2-0.1-0.1-0.2
				c0-0.1,0.1-0.1,0.1-0.1c0.1,0,3.3,0,5,1.5C68.8,236.6,68.8,236.7,68.7,236.8C68.7,236.8,68.7,236.8,68.7,236.8z"/>
		</g>
		<g id="freepik--Document--inject-32">
			<g id="elnysysbe2dvg">
				<g class="st21">
					<path id="elw75pc5qx3dm" d="M166.5,261.6c0.1,0.1,0,0.3-0.1,0.3l-32.8,18.9c-0.1,0.1-0.3,0.1-0.4,0.1c-0.1,0-0.3,0-0.4-0.1
						L87,254.4c-0.1,0-0.1-0.1-0.2-0.2c0-0.1,0-0.2,0-0.2l0,0h0.1l32.9-19.1c0.3-0.1,0.6-0.1,0.8,0l45.8,26.4l0,0l0,0
						C166.4,261.4,166.4,261.5,166.5,261.6L166.5,261.6z"/>
				</g>
			</g>
			<g id="freepik--List--inject-32">
				<path id="el1uksrru42r8" class="st2" d="M88.5,252.1v0.8c0,0.3,0.2,0.5,0.4,0.7l43.9,25.4c0.2,0.1,0.5,0.1,0.8,0l31.5-18.2
					c0.2-0.2,0.4-0.4,0.4-0.7v-0.8c0-0.3-0.2-0.5-0.4-0.7l-43.9-25.4c-0.2-0.1-0.5-0.1-0.8,0l-31.5,18.2
					C88.7,251.6,88.5,251.8,88.5,252.1z"/>
				<g id="elz8u4wrz3d0h">
					<path class="st13" d="M165.1,258.7c0.2,0.1,0.1,0.3,0,0.4l-31.5,18.2c-0.1,0.1-0.3,0.1-0.4,0.1v1.7c0.1,0,0.3,0,0.4-0.1
						l31.5-18.2c0.2-0.2,0.4-0.4,0.4-0.7v-0.8C165.5,259,165.3,258.8,165.1,258.7z"/>
				</g>
				<g id="elson2aci8f3f">
					<path class="st22" d="M88.8,251.5L88.8,251.5L88.8,251.5L88.8,251.5L88.8,251.5L88.8,251.5c-0.2,0.2-0.2,0.3-0.3,0.5
						c0,0,0,0.1,0,0.1v0.8c0,0.3,0.2,0.5,0.4,0.7l43.9,25.4c0.1,0.1,0.3,0.1,0.4,0.1v-1.7c-0.1,0-0.3,0-0.4-0.1l-44-25.3
						c-0.1,0-0.1-0.1-0.2-0.1C88.7,251.7,88.7,251.6,88.8,251.5L88.8,251.5z"/>
				</g>
				<path id="eloek6507ai8c" class="st7" d="M100.4,240.9c0,0.7,1,1.4,1.3,2.1c0,0,0,0.1,0.1,0.2c-0.1,0.4-0.6,0.8-0.6,1.1
					c0,0.1,0,0.1,0,0.2v0.6c0,0.1,0,0.3,0.1,0.4c0,0.1-0.1,0.3-0.1,0.4c-0.1,0.2-0.1,0.5-0.2,0.7c0,0.1,0,0.5,0,0.6
					c0,0.2,0.1,0.4,0.3,0.5l1.8,1l13.2-7.6v-0.6l-1.8-1c-0.3-0.1-0.6-0.2-0.9-0.2h-0.1c-0.3,0-0.7,0-1.2,0.1c-0.7,0.1-1.3,0.1-2,0
					h-0.5c-0.1,0-0.2,0-0.4,0c-1,0.3-2,0.4-3.1,0.3l0,0c-1.2-0.3-2.4-0.6-3.6-0.7h-0.1c-0.5,0-1,0.1-1.4,0.4
					c-0.5,0.3-0.7,0.6-0.7,0.9C100.4,240.4,100.4,240.8,100.4,240.9z M102.4,241.3c0.1-0.1,0.2-0.2,0.3-0.3c0.1-0.1,0.2-0.1,0.3-0.1
					c0.8-0.2,1.7-0.1,2.4,0.4c0.3,0.2,0.5,0.4,0.7,0.7c-0.1,0.1-0.2,0.2-0.3,0.3c-0.6,0.3-1.2,0.3-1.8,0.1c-0.3-0.1-0.7-0.2-1-0.4
					C102.8,241.8,102.6,241.6,102.4,241.3L102.4,241.3z"/>
				<path id="eld9s8u2atn8l" class="st6" d="M113.5,239.3h-0.1c-0.3,0-0.7,0-1.2,0.1c-0.7,0.1-1.3,0.1-2,0h-0.5c-0.1,0-0.2,0-0.4,0
					c-1,0.3-2,0.4-3.1,0.3l0,0c-1.2-0.3-2.4-0.6-3.6-0.7h-0.1c-0.5,0-1,0.1-1.4,0.4c-1.6,0.9,0.2,2,0.6,2.9s-0.4,1.4-0.6,1.8
					s0.2,0.7-0.1,1.6s-0.1,1.1,0.2,1.3l1.8,1l13.2-7.6l-1.8-1C114.1,239.3,113.8,239.3,113.5,239.3z M103.6,246.7
					c-0.2,0.1-0.5,0.1-0.7-0.1c-0.2-0.1-0.3-0.3-0.1-0.4c0.2-0.1,0.5-0.1,0.7,0.1C103.7,246.4,103.8,246.6,103.6,246.7L103.6,246.7z
					 M105.9,242.2c-0.6,0.3-1.2,0.3-1.8,0.1c-0.3-0.1-0.7-0.2-1-0.4c-0.9-0.5-1-1.2-0.4-1.6c0.1-0.1,0.2-0.1,0.3-0.1
					c0.8-0.2,1.7,0,2.4,0.4C106.3,241.1,106.5,241.8,105.9,242.2L105.9,242.2z M113.8,240.9c-0.2,0.1-0.5,0.1-0.7-0.1
					c-0.2-0.1-0.3-0.3-0.1-0.4c0.2-0.1,0.5-0.1,0.7,0.1C113.9,240.6,113.9,240.8,113.8,240.9L113.8,240.9z"/>
				<path id="el6lpd15oq7l" class="st0" d="M132,274.5l27.4-15.8c0.1-0.1,0.2-0.2,0.2-0.4V258c0-0.2-0.1-0.3-0.2-0.4l-36.2-20.9
					c-0.1-0.1-0.3-0.1-0.5,0l-27.4,15.8c-0.1,0.1-0.2,0.2-0.2,0.4v0.3c0,0.2,0.1,0.3,0.2,0.4l36.2,20.9
					C131.7,274.6,131.9,274.6,132,274.5z"/>
				<polygon id="el6020hhb3cu4" class="st1" points="141.7,262.7 151.1,257.2 151.5,257.4 142,262.9 				"/>
				<polygon id="ele3rdola8xca" class="st1" points="130.3,269.2 139.8,263.8 140.1,264 130.7,269.4 				"/>
				<path id="el8l7gv8t54n4" class="st10" d="M159.4,257.6c0.1,0.1,0.1,0.2-0.1,0.2L132,273.6c-0.1,0-0.2,0.1-0.2,0.1v0.8
					c0.1,0,0.2,0,0.2,0l27.4-15.8c0.1-0.1,0.2-0.2,0.2-0.4V258C159.6,257.9,159.6,257.7,159.4,257.6z"/>
				<path id="elgtrcw5lmzjm" class="st1" d="M95.3,252.5C95.3,252.5,95.3,252.6,95.3,252.5L95.3,252.5c-0.1,0.1-0.1,0.2-0.1,0.2v0.1
					v0.4c0,0.2,0.1,0.3,0.2,0.4l36.2,20.9c0.1,0,0.1,0.1,0.2,0v-0.8c-0.1,0-0.2,0-0.2-0.1l-36.2-20.9
					C95.3,252.7,95.2,252.6,95.3,252.5z"/>
				<path id="el9j3rqeey7pq" class="st6" d="M133.9,265c-0.1,0.1,0,0.2,0.1,0.3c0,0.2,0,0.3-0.1,0.5c0,0.1-0.1,0.2-0.2,0.3
					c-0.1,0.1-0.3,0-0.4-0.1s-0.1,0-0.1,0s0,0.1,0,0.2c-0.1,0-0.1-0.1-0.1-0.1c-0.1,0-0.1-0.1-0.2-0.1c0,0-0.1,0-0.1,0s0,0.2,0,0.2
					s0.1,0.2,0,0.3s-0.2,0-0.2-0.1c-0.1-0.1-0.1-0.2-0.2-0.2c0,0-0.1,0-0.1,0c0,0.1,0,0.2,0,0.4c0,0.2-0.1,0.3-0.1,0.5
					c0,0.1-0.1,0.3-0.3,0.3c-0.1,0-0.1,0-0.2-0.1v-0.1c0.1-0.2,0.1-0.5,0-0.8c0-0.1-0.1-0.1-0.1-0.1c0,0-0.1,0-0.1,0
					c-0.1,0.1-0.2,0.2-0.1,0.3c0,0.1,0,0.2,0.1,0.3c0,0.1,0,0.2,0.1,0.3l0.1,0.1c0,0.2-0.1,0.3-0.2,0.5c-0.1,0.1-0.5,0.4-0.7,0.2
					c-0.2-0.1-0.3-0.3-0.3-0.5c0,0,0-0.1,0-0.2c0.1-0.1,0.3-0.3,0.4-0.5c0.1-0.1,0.1-0.3,0.1-0.4c0-0.2,0-0.4,0-0.5
					c0-0.1-0.1-0.1-0.1-0.1c-0.1,0-0.2,0-0.3,0c-0.1,0.1-0.2,0.2-0.2,0.4c0,0.2-0.1,0.3-0.1,0.5c0,0.2,0,0.5,0.1,0.7
					c-0.2,0.2-0.3,0.3-0.5,0.4l0,0c0.2-0.1,0.3-0.2,0.5-0.4l0,0c0,0.2,0.2,0.4,0.3,0.6c0.1,0.1,0.2,0.1,0.3,0.1c0.2,0,0.3,0,0.4-0.1
					c0.2-0.1,0.4-0.3,0.4-0.6h0.1c0.2,0.1,0.4,0,0.5-0.1c0.1-0.2,0.2-0.3,0.2-0.5v-0.3l0.1,0.1c0.1,0.1,0.3,0.1,0.4,0.1
					c0.1-0.1,0.1-0.2,0.1-0.3s0-0.1,0-0.2s0,0,0-0.1s0.2,0.2,0.4,0.2h0.1c0,0,0-0.1,0-0.1c0.1,0.1,0.2,0.1,0.4,0.1
					c0.2,0,0.3-0.1,0.3-0.3c0.1-0.1,0.1-0.2,0.1-0.4l0.2,0.3c0.2,0.4,0.4,0.7,0.5,1.1l0.2,0.6c0,0,0.1,0,0.1,0
					c-0.1-0.5-0.3-0.9-0.5-1.4c-0.1-0.2-0.2-0.5-0.4-0.7l-0.1-0.2c0-0.1,0-0.2-0.1-0.3C134,264.9,133.9,264.9,133.9,265z
					 M130.1,266.9c0-0.2,0-0.3,0-0.5c0-0.1,0-0.3,0.1-0.4c0-0.1,0.1-0.2,0.3-0.3c0.1,0,0.1,0,0.1,0.1c0,0,0,0,0,0
					c0.1,0.2,0.1,0.3,0,0.5c0,0.2-0.1,0.3-0.1,0.5c-0.1,0.2-0.2,0.3-0.3,0.4C130.1,267.1,130.1,267,130.1,266.9L130.1,266.9z
					 M131.5,266.9l-0.1-0.3c0-0.1,0-0.2,0-0.3c0.1,0.1,0.1,0.2,0.1,0.3C131.6,266.7,131.6,266.8,131.5,266.9l0,0.1L131.5,266.9z"/>
				<path id="elw42m864rscg" class="st6" d="M137,263.1h-0.1c0,0,0,0.1,0.1,0.1l0,0c0,0.1,0,0.1,0,0.2c0,0.1,0,0.2,0,0.3v0.1v0.1
					l0,0c0,0-0.1,0-0.1,0l-0.2-0.1h-0.1c0,0.1,0,0.2,0,0.3c0,0,0,0-0.1,0s-0.1,0-0.1-0.1c0,0-0.1-0.1-0.2-0.1h-0.1
					c0,0.1,0,0.1,0,0.2c0,0,0.1,0.2,0,0.2s-0.1-0.1-0.2-0.1c0-0.1,0-0.2-0.1-0.2h-0.1c0,0.1,0,0.2,0.1,0.2l0,0c0,0.1,0,0.2,0,0.3
					c0,0.2-0.1,0.3-0.3,0.4c-0.1,0.2-0.3,0.2-0.4,0.2c0,0,0,0-0.1,0c0.1-0.2,0.1-0.4,0-0.6c-0.1-0.4-0.4-0.7-0.7-0.8
					c0,0-0.1,0-0.1,0c-0.1,0.1-0.1,0.1-0.1,0.2c0,0.1,0.1,0.2,0.1,0.3c0.1,0.2,0.2,0.4,0.4,0.6c0.1,0.1,0.2,0.2,0.3,0.3
					c0,0.1-0.1,0.2-0.1,0.2c0,0,0,0,0.1,0c0.1-0.1,0.1-0.2,0.1-0.3c0.1,0.1,0.3,0.1,0.4,0c0.2-0.1,0.3-0.2,0.4-0.4
					c0-0.1,0.1-0.2,0.1-0.2c0.1,0,0.1,0.1,0.2,0.1c0.2,0,0.1-0.2,0.1-0.4c0,0,0.1,0.1,0.1,0.1c0.1,0,0.2,0,0.2,0
					c0.1,0,0.1-0.1,0.1-0.2c0-0.1,0-0.1,0-0.2c0.1,0,0.1,0,0.2,0c0,0,0,0.1,0,0.1c0.2,0,0.2-0.1,0.2-0.2c0-0.1,0.1-0.2,0.1-0.4v-0.1
					l0,0c0.1,0.1,0.2,0.2,0.3,0.3c0.1,0.1,0.2,0.3,0.3,0.5c-0.2,0-0.3,0.1-0.4,0.2c-0.1,0.1-0.3,0.5,0.1,0.5
					c0.3,0.1,0.5-0.1,0.6-0.4c0,0,0,0,0,0c0-0.1,0-0.2-0.1-0.3c0.1,0,0.2,0,0.4,0c0.1,0,0.1-0.1,0-0.1c-0.1,0-0.3,0-0.4,0
					c0-0.1-0.1-0.2-0.2-0.3c-0.1-0.1-0.2-0.2-0.3-0.4l-0.2-0.2L137,263.1C137,263.1,137,263.1,137,263.1z M134.8,264.7
					c-0.1-0.2-0.2-0.4-0.3-0.5c0-0.1-0.1-0.2-0.1-0.3c0-0.1-0.1-0.1,0-0.2c0.3,0.2,0.5,0.4,0.6,0.7c0,0.2,0,0.3,0,0.5
					C134.9,264.8,134.8,264.8,134.8,264.7L134.8,264.7z M137.7,264.8c-0.1,0.1-0.2,0.1-0.4,0c-0.1-0.1-0.1-0.2,0-0.3
					c0.1-0.1,0.3-0.2,0.4-0.3C137.9,264.4,137.9,264.6,137.7,264.8L137.7,264.8z"/>
				<path id="elz0nilu41xwd" class="st6" d="M142.4,260.4c-0.1,0-0.1,0.1-0.1,0.1c0,0.1-0.1,0.2-0.1,0.4c-0.1,0-0.1-0.1-0.2-0.1
					c0,0-0.1,0-0.1,0c0,0-0.1,0.1-0.1,0.1c-0.1-0.1-0.2-0.2-0.4-0.1c-0.2,0-0.3,0.1-0.3,0.3c0,0.1,0,0.1,0,0.2
					c-0.1-0.1-0.1-0.3-0.2-0.4c-0.1-0.3-0.2-0.5-0.3-0.7c-0.1-0.2-0.4-0.3-0.6-0.2c-0.1,0.1-0.2,0.1-0.2,0.2
					c-0.1,0.1-0.1,0.2-0.1,0.3c0,0.1,0,0.1,0,0.2l-0.3-0.2c0,0-0.1,0-0.1,0l0.4,0.2c0,0.1,0,0.3,0,0.5c0,0.2,0.1,0.3,0.1,0.5
					c0,0.1,0.1,0.1,0.1,0.1c0.1,0,0.1,0,0.2,0c0.2-0.2,0.2-0.4,0.1-0.6c-0.1-0.2-0.3-0.3-0.4-0.4c0-0.2,0.1-0.5,0.3-0.6
					c0.1-0.1,0.2-0.1,0.3,0c0,0,0,0,0,0c0.1,0.1,0.1,0.1,0.2,0.2c0.1,0.2,0.2,0.4,0.3,0.6c0.1,0.2,0.1,0.4,0.2,0.6v0.1
					c0,0.2,0,0.4,0.1,0.5c0,0,0.1,0,0.1,0c0-0.2,0-0.4-0.1-0.5l0,0c0-0.1,0-0.3,0.1-0.4c0-0.1,0.1-0.2,0.2-0.2c0.1,0,0.1,0,0.2,0
					c0.1,0.1,0.1,0.2,0.2,0.3v0.1c0,0,0.1,0,0.1,0s0,0,0-0.1c0,0,0-0.1,0-0.1c0-0.1,0-0.1,0.1-0.2c0.1,0.1,0.2,0.2,0.3,0.3
					s0.2,0,0.1,0c-0.1-0.2-0.1-0.4,0-0.5c0,0,0-0.1,0-0.1c0,0,0.1,0.1,0.1,0.1c0,0.1,0.1,0.2,0.1,0.3l0.1,0.3
					c0.1,0.2,0.2,0.4,0.3,0.6c0.1,0.2,0.3,0.4,0.5,0.6c0,0,0.1,0,0.1,0c-0.2-0.2-0.4-0.4-0.5-0.7c-0.1-0.2-0.3-0.5-0.4-0.7
					c0-0.1-0.1-0.2-0.1-0.4c0-0.1-0.1-0.2-0.1-0.3C142.6,260.5,142.5,260.4,142.4,260.4z M140,261c0.2,0.1,0.2,0.4,0.2,0.6
					c0,0-0.1,0.1-0.1,0.1l0,0l0,0c-0.1,0-0.1-0.1-0.1-0.1c-0.1-0.1-0.1-0.3-0.1-0.4c0-0.1,0-0.3,0-0.4
					C139.9,260.9,140,260.9,140,261z"/>
				<path id="elr2l65mowv8" class="st6" d="M146,259.3c-0.1,0-0.3,0-0.4,0c-0.1-0.1-0.1-0.1-0.2-0.2c-0.1-0.1-0.3-0.2-0.4-0.3
					c0,0-0.2,0-0.1,0c0.1,0.1,0.1,0.3,0.1,0.4c0,0.1,0,0.1,0,0.2c0,0.1-0.1,0-0.2,0s-0.1,0-0.1,0s0,0.1,0,0.1s-0.2-0.1-0.2-0.1
					s-0.1,0-0.1,0s0.1,0.1,0,0.2l-0.2-0.1c0,0-0.1,0-0.1,0c0,0,0,0.1,0.1,0.1c0,0,0.1,0.1,0,0.2s0,0-0.1,0l-0.1-0.1
					c0,0-0.1-0.1-0.2-0.1h-0.1c0,0.1,0,0.2,0,0.2c0,0,0,0.1,0,0.1c0,0,0,0.1-0.1,0.1c-0.2,0.1-0.4-0.4-0.4-0.4s-0.1,0-0.1,0
					c0.1,0.1,0.1,0.2,0.1,0.4c0,0.1,0,0.3-0.2,0.3l0,0c0.2,0,0.3-0.2,0.3-0.3c0,0,0,0,0,0c0.1,0.1,0.2,0.2,0.3,0.1
					c0.1,0,0.2-0.1,0.2-0.2c0,0,0,0,0,0c0-0.1,0-0.2,0-0.2c0.1,0.1,0.2,0.2,0.4,0.1s0.1-0.1,0.1-0.2c0,0,0-0.1,0-0.1h0.1
					c0,0,0.1,0,0.1,0c0.1,0,0.1-0.1,0.1-0.2c0.1,0,0.2,0,0.2,0c0.1,0,0.1-0.1,0.1-0.1c0,0,0,0,0,0c0.1,0,0.2,0,0.2,0
					c0.1,0,0.1-0.1,0.1-0.2c0-0.1,0-0.1-0.1-0.2l0.2,0.1c0.1,0.1,0.2,0.1,0.3,0.2c0,0-0.1,0-0.1,0.1c-0.1,0.1-0.1,0.2,0.1,0.3
					s0.3-0.1,0.2-0.2c0,0,0-0.1-0.1-0.1C145.7,259.3,145.8,259.3,146,259.3C146,259.4,146.1,259.3,146,259.3z M145.5,259.6
					C145.5,259.6,145.5,259.7,145.5,259.6c-0.1,0.1-0.1,0-0.1,0c0-0.1,0-0.1,0.1-0.1l0,0C145.5,259.5,145.5,259.5,145.5,259.6z"/>
				<path id="elxmt08iyam1g" class="st6" d="M146.1,256.5c0.1,0.2,0.1,0.4,0.2,0.6s0.1,0.4,0.1,0.6s0,0.4,0.1,0.6l0,0
					c-0.1-0.1-0.2-0.3-0.3-0.4c-0.1-0.1-0.3-0.3-0.5-0.4c-0.2-0.1-0.3-0.1-0.5,0c-0.1,0-0.1,0.1-0.2,0.1h-0.2c-0.1,0-0.2,0-0.2,0
					c0,0-0.1,0-0.1,0s0.3,0,0.5,0.1l0,0c0,0.1-0.1,0.1-0.1,0.2c0,0.1,0,0.3,0.1,0.4c0.1,0.1,0.2,0.2,0.4,0.2c0.2,0,0.3-0.1,0.3-0.3
					c0-0.2-0.1-0.3-0.3-0.5c-0.1,0-0.1-0.1-0.2-0.1c0,0,0.1-0.1,0.1-0.1c0.1-0.1,0.3-0.1,0.4,0c0.2,0.1,0.3,0.2,0.4,0.3
					c0.1,0.1,0.2,0.3,0.4,0.4l0.1,0.1l0,0c0,0.1,0,0.2,0.1,0.2s0.1,0,0.1,0c0-0.1,0-0.2-0.1-0.2l0,0c0-0.1,0-0.2-0.1-0.3
					s0-0.4-0.1-0.6C146.5,257.3,146.4,256.9,146.1,256.5C146.2,256.5,146.1,256.5,146.1,256.5z M145.4,258.1c0.1,0.1,0.1,0.3,0,0.4
					c0,0,0,0,0,0c-0.1,0.1-0.3,0-0.4-0.1c-0.1-0.1-0.1-0.2-0.1-0.3c0-0.1,0-0.1,0.1-0.2C145.2,257.8,145.3,257.9,145.4,258.1
					L145.4,258.1z"/>
				<path id="elnw2pi1p7r0c" class="st6" d="M150.4,256.9c-0.2-0.4-0.5-0.7-0.8-1c0,0-0.1,0-0.1,0s0.2,0.3,0.1,0.5
					c0,0.1,0,0.1-0.1,0.1c0,0-0.1,0.1-0.1,0.1c0,0-0.1,0.1-0.1,0.1l-0.2-0.1H149c0,0.1,0,0.1,0,0.2c0,0,0,0.1,0,0.2
					c-0.1-0.1-0.2-0.2-0.3-0.3c0,0-0.1,0-0.1,0c0,0.1,0,0.2,0,0.3c0,0.1,0,0.1,0,0.2c0,0,0,0.1,0,0.1s0,0,0,0l-0.1,0
					c0,0-0.1-0.1-0.1-0.2c0-0.1-0.1-0.2-0.1-0.3h-0.1c0,0.3,0,0.5,0,0.8c0,0.1-0.1,0.3-0.2,0.4c0,0.1-0.1,0.1-0.2,0.2
					c-0.1,0.1-0.2,0.1-0.3,0.1c-0.1,0-0.1-0.1-0.1-0.1l-0.1-0.2c0,0,0-0.1,0-0.1c0.3-0.2,0.4-0.5,0.3-0.8c0-0.1-0.1-0.2-0.3-0.2
					c-0.1,0-0.1,0.1-0.1,0.1c0,0.1,0,0.1,0,0.2c0,0.2-0.1,0.3-0.1,0.5v0.1l-0.1,0.1c0,0,0,0,0.1,0l0,0c0,0,0,0.1,0,0.1
					c0,0.1,0,0.2,0.1,0.3c0.1,0.2,0.4,0.1,0.5,0c0.2-0.1,0.3-0.2,0.4-0.4c0.1-0.2,0.1-0.4,0.1-0.6l0.1,0.1c0.1,0.1,0.2,0.1,0.3,0
					c0.1-0.1,0.1-0.2,0.1-0.3s0-0.1,0-0.1c0.1,0.1,0.1,0.1,0.2,0.2h0.1c0.1,0,0.1-0.1,0.1-0.2c0-0.1,0-0.1,0-0.2
					c0.1,0,0.1,0.1,0.2,0.1h0.1c0,0,0-0.1,0-0.1s0.1,0,0.1-0.1c0.1,0,0.1-0.1,0.1-0.2c0-0.1,0-0.2-0.1-0.3c0.2,0.2,0.3,0.4,0.5,0.6
					L150.4,256.9c-0.2,0-0.4,0.2-0.5,0.3c-0.1,0.1-0.1,0.2-0.1,0.3c0,0.1,0,0.3,0.1,0.4c0.2,0.1,0.4,0.1,0.5,0.1
					c0.2,0,0.3-0.2,0.3-0.3c0-0.3-0.1-0.5-0.2-0.7h0.2c0.1,0,0.1,0,0,0C150.6,256.9,150.5,256.9,150.4,256.9z M147.4,257.4
					c0-0.1,0-0.2,0-0.3s0,0,0-0.1v-0.1l0,0c0,0,0,0,0,0.1C147.4,257.1,147.4,257.2,147.4,257.4c0,0.1-0.1,0.2-0.2,0.3
					C147.2,257.6,147.3,257.5,147.4,257.4L147.4,257.4z M150.5,257.4c0,0.1,0,0.2,0,0.3c-0.1,0.1-0.2,0.2-0.4,0.2
					c-0.2,0-0.3-0.1-0.3-0.3c0,0,0,0,0,0c0-0.1,0-0.2,0-0.2c0.1-0.2,0.2-0.3,0.4-0.4C150.4,257.1,150.5,257.2,150.5,257.4
					L150.5,257.4z"/>
				<path id="eldb9c5za5wjs" class="st1" d="M125.5,241.5l0.3,0.2c0.1,0,0.2,0.1,0.1,0.2c0,0.1-0.1,0.1-0.1,0.1l-22,12.7
					c-0.2,0.1-0.4,0.1-0.6,0l-0.3-0.2c-0.2-0.1-0.2-0.3,0-0.4l22-12.7C125.1,241.4,125.3,241.4,125.5,241.5z"/>
				<path id="elxnnsc5q946i" class="st1" d="M127.4,242.6l0.3,0.2c0.1,0,0.2,0.1,0.1,0.2c0,0.1-0.1,0.1-0.1,0.1l-22,12.7
					c-0.2,0.1-0.4,0.1-0.6,0l-0.3-0.2c-0.2-0.1-0.2-0.3,0-0.4l22-12.7C127,242.5,127.3,242.5,127.4,242.6z"/>
				<path id="eli0fwhg5lbgb" class="st1" d="M129.4,243.7l0.3,0.2c0.1,0,0.2,0.1,0.1,0.2c0,0.1-0.1,0.1-0.1,0.1l-22,12.7
					c-0.2,0.1-0.4,0.1-0.6,0l-0.3-0.2c-0.2-0.1-0.2-0.3,0-0.4l22-12.7C128.9,243.6,129.2,243.6,129.4,243.7z"/>
				<path id="eliu6qb3u771" class="st1" d="M133.6,246.1l0.3,0.2c0.1,0,0.2,0.1,0.1,0.2c0,0.1-0.1,0.1-0.1,0.1l-22,12.7
					c-0.2,0.1-0.4,0.1-0.6,0l-0.3-0.2c-0.2-0.1-0.2-0.3,0-0.4l22-12.7C133.2,246.1,133.4,246.1,133.6,246.1z"/>
				<path id="elr6k7ceb5e8c" class="st1" d="M135.5,247.3l0.3,0.2c0.1,0,0.2,0.1,0.1,0.2c0,0.1-0.1,0.1-0.1,0.1l-22,12.7
					c-0.2,0.1-0.4,0.1-0.6,0l-0.3-0.2c-0.2-0.1-0.2-0.3,0-0.4l22-12.7C135.1,247.2,135.3,247.2,135.5,247.3z"/>
				<path id="elw836gkj87pb" class="st1" d="M137.4,248.4l0.3,0.2c0.1,0,0.2,0.1,0.1,0.2c0,0.1-0.1,0.1-0.1,0.1l-22,12.7
					c-0.2,0.1-0.4,0.1-0.6,0l-0.3-0.2c-0.1,0-0.2-0.1-0.1-0.2c0-0.1,0.1-0.1,0.1-0.1l22-12.7C137,248.3,137.2,248.3,137.4,248.4z"/>
				<path id="ell3xljzwv7a" class="st1" d="M141.6,250.8l0.3,0.2c0.1,0,0.2,0.1,0.1,0.2c0,0.1-0.1,0.1-0.1,0.1L120,264
					c-0.2,0.1-0.4,0.1-0.6,0l-0.3-0.2c-0.1,0-0.2-0.1-0.1-0.2c0-0.1,0.1-0.1,0.1-0.1l22-12.7C141.3,250.7,141.5,250.7,141.6,250.8z"
					/>
				<path id="eln5k74utpif" class="st1" d="M143.6,251.9l0.3,0.2c0.1,0,0.2,0.1,0.1,0.2c0,0.1-0.1,0.1-0.1,0.1l-22,12.7
					c-0.2,0.1-0.4,0.1-0.6,0L121,265c-0.1,0-0.2-0.1-0.1-0.2c0-0.1,0.1-0.1,0.1-0.1l22-12.7C143.2,251.9,143.4,251.8,143.6,251.9z"
					/>
				<path id="elh4ch4t2u0x6" class="st1" d="M145.5,253l0.3,0.2c0.1,0,0.2,0.1,0.1,0.2c0,0.1-0.1,0.1-0.1,0.1l-22,12.7
					c-0.2,0.1-0.4,0.1-0.6,0l-0.3-0.2c-0.1,0-0.2-0.1-0.1-0.2c0-0.1,0.1-0.1,0.1-0.1l22-12.7C145.1,252.9,145.3,252.9,145.5,253z"/>
				<path id="elaabmfdq0tfa" class="st6" d="M104.6,248.7c0,0.1,0,0.5,0,0.6c0,0.3,0.1,0.6,0.3,0.8l16.1-9.3v-0.6
					c-0.5-0.3-1-0.4-1.6-0.4l0,0c-0.4,0-0.7,0.1-1.1,0.2c-1.2,0.5-1.5,0.7-2.2,1c-0.4,0.1-0.8,0.1-1.1-0.2l0,0l-0.5-0.4l-1.3-1.2
					c-0.2-0.2-0.4-0.2-0.6-0.2l0,0h-0.3c-0.4,0.1-0.9,0.1-1.3,0c-0.5,0-1-0.2-1.4-0.6c-0.6-0.5-1.4-0.8-2.3-0.8h-0.1
					c-0.5,0-1,0.1-1.5,0.4c-1,0.6-1.3,2-0.6,3c0.1,0.1,0.1,0.2,0.2,0.3c0.2,0.2,0.3,0.4,0.4,0.7c0,0.3-0.1,0.5-0.3,0.8
					c-0.1,0.1-0.2,0.2-0.2,0.4v0.6c0,0.1,0.1,0.2,0.2,0.3l1.5,1.4l0.5,0.4l0.1,0.1c0,0.1-0.1,0.1-0.1,0.1l-2,1.5
					C104.9,247.8,104.7,248.2,104.6,248.7z M108.9,239.9c-0.1,0.3-0.3,0.5-0.6,0.6c-0.5,0.3-1.1,0.3-1.7,0.1
					c-0.2-0.1-0.5-0.2-0.6-0.4c-0.1-0.1-0.2-0.3-0.3-0.4c0.1-0.3,0.3-0.5,0.6-0.6l0.2-0.1c0.7-0.3,1.5-0.1,2.1,0.4
					C108.8,239.5,108.9,239.7,108.9,239.9L108.9,239.9z"/>
				<path id="el5wjaoty7zl6" class="st8" d="M119.5,239.8L119.5,239.8c-0.4,0-0.7,0.1-1.1,0.2c-1.2,0.5-1.5,0.7-2.2,1
					c-0.4,0.1-0.8,0.1-1.1-0.2l0,0l-0.5-0.4l-1.3-1.2c-0.2-0.2-0.4-0.2-0.6-0.2l0,0h-0.3c-0.4,0.1-0.9,0.1-1.3,0
					c-0.5,0-1-0.2-1.4-0.6c-0.6-0.5-1.4-0.8-2.3-0.8h-0.1c-0.5,0-1,0.1-1.5,0.4c-0.8,0.3-1.2,1.2-0.9,2c0.1,0.3,0.3,0.5,0.5,0.7
					c0.5,0.6,0.5,1.4,0,2c-0.4,0.4,0,0.7,0,0.7l1.5,1.4l0.5,0.4c0.4,0.3-0.1,0.8-0.1,0.8l-2,1.5c-0.8,0.8-0.8,1.4-0.4,2l16.1-9.3
					C120.6,240,120.1,239.8,119.5,239.8z M108.6,238.8c0.4,0.4,0.4,1,0,1.4c-0.1,0.1-0.2,0.2-0.3,0.2c-0.5,0.3-1.1,0.3-1.7,0.1
					c-0.2-0.1-0.5-0.2-0.6-0.4c-0.4-0.3-0.5-0.9-0.2-1.3c0.1-0.1,0.3-0.3,0.4-0.3c0.1,0,0.1-0.1,0.2-0.1
					C107.3,238.2,108.1,238.3,108.6,238.8L108.6,238.8z"/>
			</g>
		</g>
		<g id="freepik--Pen--inject-32">
			<g id="el4b5gvzukrzh">
				<path class="st3" d="M143.5,241.1l23.9,13.8l4.1,0.8c0.1,0,0.1,0,0.2-0.1c0,0,0-0.1,0-0.1l-1.3-2.3l-23.9-13.8
					C145.6,239,142.8,240.8,143.5,241.1z"/>
			</g>
			<g id="freepik--pen--inject-32">
				<path id="elhazzbd2nfe4" class="st2" d="M146.1,237.1h0.1L146,237h-0.1l0,0l0,0h-0.2c-0.2,0-0.3,0.1-0.5,0.1
					c-0.6,0.4-1,1.1-1.1,1.9c0,0.1,0,0.2,0,0.3v0.1l0,0c0,0.1,0,0.1,0.1,0.2l0,0l0,0l0,0l0,0l0,0l0,0l0.3,0.1c0,0-0.1-0.1-0.1-0.1
					c0.2,0,0.4,0,0.6-0.1c0.6-0.4,1.1-1.1,1.1-1.9C146.2,237.4,146.2,237.3,146.1,237.1z M144.5,239.7L144.5,239.7z"/>
				<path id="elkr4bvnknesh" class="st12" d="M169,250.3l-1.5,2.7l-0.3-0.1l-22.5-13c0,0-0.1-0.1-0.1-0.1c-0.1-0.2-0.2-0.4-0.2-0.6
					c0-0.8,0.5-1.5,1.1-1.9c0.1-0.1,0.3-0.1,0.5-0.1h0.1h0.1l0,0L169,250.3z"/>
				<path id="eldcfaska7ad" class="st2" d="M168.3,250.4c0.6-0.4,1.1-0.1,1.1,0.6c0,0.8-0.5,1.5-1.1,1.9c-0.6,0.4-1.1,0.1-1.1-0.6
					C167.2,251.5,167.6,250.8,168.3,250.4z"/>
				<path id="eltj46t5cpotl" class="st1" d="M170.6,252L170.6,252l-1.4-1.5l0,0l0,0l0,0c-0.3-0.2-0.6-0.2-0.9,0
					c-0.6,0.4-1,1.1-1.1,1.9c0,0.3,0.1,0.6,0.4,0.8l0,0h0.1l0,0l2,0.4c0.1,0,0.2,0,0.4-0.1c0.4-0.2,0.6-0.6,0.6-1.1
					C170.7,252.3,170.7,252.1,170.6,252z"/>
				<path id="eleh8upapswr8" class="st8" d="M152.7,242.1L152.7,242.1L152.7,242.1c-0.1,0-0.2,0-0.3,0c-0.2,0.1-0.4,0.4-0.4,0.7
					c0,0.1,0,0.2,0.1,0.2l0,0l0,0l16.6,9.6l1.1-0.6L152.7,242.1z"/>
				<path id="el2kwjbuquu3w" class="st6" d="M167.3,251.7l1.5,0.9l1.1-0.6l-2.1-1.2C167.6,251.1,167.4,251.4,167.3,251.7z"/>
				<path id="eldpx2si4nzn6" class="st2" d="M171.2,252.8L171.2,252.8l-1.3-1.4l0,0c-0.2-0.1-0.4-0.1-0.6,0
					c-0.5,0.3-0.7,0.8-0.8,1.3c0,0.2,0.1,0.4,0.3,0.5l0,0h0.1l1.9,0.4l0,0c0.1,0,0.1,0,0.2,0c0.2-0.1,0.3-0.4,0.4-0.6
					C171.3,252.9,171.2,252.8,171.2,252.8z"/>
				<g id="eld3rnfltelq">
					<path class="st11" d="M171.2,252.8L171.2,252.8l-1.3-1.4l0,0c-0.2-0.1-0.4-0.1-0.6,0c-0.5,0.3-0.7,0.8-0.8,1.3
						c0,0.2,0.1,0.4,0.3,0.5l0,0h0.1l1.9,0.4l0,0c0.1,0,0.1,0,0.2,0c0.2-0.1,0.3-0.4,0.4-0.6C171.3,252.9,171.2,252.8,171.2,252.8z"
						/>
				</g>
				<path id="el1fp80jc9pge" class="st2" d="M171.2,253c0,0.2-0.1,0.5-0.4,0.6c-0.1,0-0.1,0-0.2,0l0,0l-0.9-0.2
					c-0.2-0.1-0.3-0.2-0.3-0.4c0-0.4,0.2-0.8,0.6-1c0.1-0.1,0.3-0.1,0.5,0l0,0l0.6,0.7l0,0C171.2,252.8,171.3,252.9,171.2,253z"/>
				<g id="eloat5qbrhpoo">
					<ellipse class="st11" cx="170.9" cy="253.2" rx="0.5" ry="0.3"/>
				</g>
				<path id="elkvslcwk258f" class="st10" d="M148.6,239.7c-0.1,0-0.2,0-0.3,0c-0.2,0.1-0.4,0.4-0.4,0.7c0,0.1,0,0.2,0.1,0.3l0,0
					l4.1,2.4c-0.1-0.1-0.1-0.2-0.1-0.2c0-0.3,0.2-0.5,0.4-0.7c0.1,0,0.2,0,0.3,0L148.6,239.7z"/>
				<path id="el37vuff0i0n" class="st0" d="M148.7,239.9c0,0.3-0.2,0.5-0.4,0.7c-0.1,0.1-0.2,0.1-0.3,0c-0.1-0.1-0.1-0.2-0.1-0.3
					c0-0.3,0.2-0.5,0.4-0.7c0.1,0,0.2,0,0.3,0C148.7,239.7,148.7,239.8,148.7,239.9z"/>
				<path id="elvfnn1qaw2q" class="st2" d="M147.8,238.3L147.8,238.3l-1.6-0.9l0,0l0,0c-0.2-0.1-0.5-0.1-0.7,0.1c-0.6,0.4-1,1-1,1.7
					c0,0.3,0.1,0.5,0.3,0.6l0,0l1.6,0.9l0,0c0.2,0.1,0.5,0.1,0.7-0.1c0.6-0.4,1-1,1-1.7C148.2,238.7,148.1,238.4,147.8,238.3z"/>
				<g id="el8tlempdcgi6">
					<path class="st23" d="M147.8,238.3L147.8,238.3l-1.6-0.9l0,0l0,0c-0.2-0.1-0.5-0.1-0.7,0.1c-0.6,0.4-1,1-1,1.7
						c0,0.3,0.1,0.5,0.3,0.6l0,0l1.6,0.9l0,0c0.2,0.1,0.5,0.1,0.7-0.1c0.6-0.4,1-1,1-1.7C148.2,238.7,148.1,238.4,147.8,238.3z"/>
				</g>
				<g id="el9q0qrh9at05">
					<path class="st11" d="M147.1,238.3c0.5-0.3,1-0.1,1,0.6c0,0.7-0.4,1.3-1,1.7c-0.5,0.3-1,0.1-1-0.6
						C146.2,239.3,146.5,238.7,147.1,238.3z"/>
				</g>
				<path id="ell1i3ndr9vje" class="st8" d="M171.7,253.4L171.7,253.4L171,253l0,0c0,0-0.1,0-0.1,0c-0.1,0.1-0.2,0.2-0.2,0.3
					c0,0,0,0.1,0,0.1l0,0l0.7,0.4l0,0c0,0,0.1,0,0.1,0c0.1,0,0.3-0.1,0.3-0.3C171.8,253.5,171.7,253.4,171.7,253.4z"/>
				<path id="eljkfyz61ruvq" class="st7" d="M171.7,253.4L171.7,253.4L171.7,253.4L171.7,253.4c0,0-0.1,0-0.1,0
					c-0.1,0.1-0.2,0.2-0.2,0.3c0,0,0,0.1,0.1,0.1l0,0h0.1c0.1,0,0.3-0.1,0.3-0.3C171.8,253.5,171.8,253.4,171.7,253.4L171.7,253.4z"
					/>
			</g>
		</g>
		<g id="freepik--shadow--inject-32_5_">
			<path class="st3" d="M228.8,223.9l55.5-32.1c0.7-0.3,1.5-0.3,2.2,0l1.9,1.1c0.4,0.1,0.5,0.5,0.4,0.8c-0.1,0.2-0.2,0.4-0.4,0.4
				l-55.5,32.1c-0.7,0.3-1.5,0.3-2.2,0l-1.9-1.1c-0.4,0-0.7-0.2-0.7-0.6C228,224.1,228.3,223.8,228.8,223.9z"/>
		</g>
		<g id="freepik--Device--inject-32">
			<path id="elwoai7msnx2h" class="st2" d="M192,193.2v-0.4c0-0.7,0.4-1.3,0.9-1.6l55.1-31.8c0.6-0.3,1.3-0.3,1.9,0l11.3,6.5
				c0.6,0.4,0.9,1,0.9,1.6v0.4c0,0.7-0.4,1.3-0.9,1.6L206,201.3c-0.6,0.3-1.3,0.3-1.9,0l-11.3-6.5C192.4,194.5,192,193.9,192,193.2z
				"/>
			<g id="elpsvbirlygyf">
				<g class="st15">
					<path id="elwiznm3u22g" d="M192,193.2v-0.4c0-0.7,0.4-1.3,0.9-1.6l55.1-31.8c0.6-0.3,1.3-0.3,1.9,0l11.3,6.5
						c0.6,0.4,0.9,1,0.9,1.6v0.4c0,0.7-0.4,1.3-0.9,1.6L206,201.3c-0.6,0.3-1.3,0.3-1.9,0l-11.3-6.5
						C192.4,194.5,192,193.9,192,193.2z"/>
				</g>
			</g>
			<path id="elvd30ix81j9" class="st2" d="M192.9,192.3l11.3,6.5c0.6,0.3,1.3,0.3,1.9,0l55.1-31.8c0.3-0.1,0.5-0.4,0.4-0.7
				c-0.1-0.2-0.2-0.3-0.4-0.4l-11.3-6.5c-0.6-0.3-1.3-0.3-1.9,0l-55.1,31.8C192.4,191.5,192.4,192,192.9,192.3z"/>
			<g id="elbeppmuydk1q">
				<g class="st21">
					<path id="eldp4mt24nrbn" d="M192.9,192.3l11.3,6.5c0.6,0.3,1.3,0.3,1.9,0l55.1-31.8c0.3-0.1,0.5-0.4,0.4-0.7
						c-0.1-0.2-0.2-0.3-0.4-0.4l-11.3-6.5c-0.6-0.3-1.3-0.3-1.9,0l-55.1,31.8C192.4,191.5,192.4,192,192.9,192.3z"/>
				</g>
			</g>
			<path id="elrhki2l3ahr" class="st2" d="M284.1,179l3.9-47.8c0.1-1.6-0.7-3.1-2-4c-1.4-0.7-3.1-0.7-4.5,0.1l-52.4,30.2
				c-1.4,0.9-2.3,2.4-2.6,4l-3.9,47.8c-0.1,1.6,0.7,3.1,2,4c1.4,0.7,3.1,0.7,4.5-0.1l52.4-30.2C282.9,182.1,283.8,180.7,284.1,179z"
				/>
			<g id="elzglipntqsnf">
				<path class="st17" d="M284.1,179l3.9-47.8c0.1-1.6-0.7-3.1-2-4c-1.4-0.7-3.1-0.7-4.5,0.1l-52.4,30.2c-1.4,0.9-2.3,2.4-2.6,4
					l-3.9,47.8c-0.1,1.6,0.7,3.1,2,4c1.4,0.7,3.1,0.7,4.5-0.1l52.4-30.2C282.9,182.1,283.8,180.7,284.1,179z"/>
			</g>
			<path id="elk6a9rp8tnv" class="st2" d="M284.1,179l3.9-47.8c0.1-1.6-0.7-3.1-2-4c-1.4-0.7-3.1-0.7-4.5,0.1l-52.4,30.2
				c-0.7,0.4-1.3,1-1.7,1.7l8.1,4.7v45.6l45.9-26.5C282.9,182.1,283.8,180.7,284.1,179z"/>
			<g id="elzi4arwsrtk">
				<path class="st3" d="M284.1,179l3.9-47.8c0.1-1.6-0.7-3.1-2-4c-1.4-0.7-3.1-0.7-4.5,0.1l-52.4,30.2c-0.7,0.4-1.3,1-1.7,1.7
					l8.1,4.7v45.6l45.9-26.5C282.9,182.1,283.8,180.7,284.1,179z"/>
			</g>
			<path id="elry1gwewzr2p" class="st2" d="M227.1,212l3.9-47.9c0.2-1.6,1.2-3.1,2.6-4l52.4-30.2c1.3-0.8,2.2-0.1,2.1,1.3l-3.9,47.7
				c-0.2,1.6-1.2,3.1-2.6,4l-52.4,30.2C227.9,214,226.9,213.4,227.1,212z"/>
			<g id="elu92o4703bnn">
				<path class="st14" d="M227.1,212l3.9-47.9c0.2-1.6,1.2-3.1,2.6-4l52.4-30.2c1.3-0.8,2.2-0.1,2.1,1.3l-3.9,47.7
					c-0.2,1.6-1.2,3.1-2.6,4l-52.4,30.2C227.9,214,226.9,213.4,227.1,212z"/>
			</g>
			<path id="el8cms2rujn8t" class="st2" d="M254.1,173.6c0.3-2.6,1.7-4.9,3.8-6.4c1.9-1.1,3.3,0,3.1,2.4c-0.3,2.6-1.7,4.9-3.8,6.4
				C255.3,177.1,253.9,176,254.1,173.6z"/>
			<polygon id="elktm30wq94s" class="st2" points="255.3,188.1 268.2,180.6 266,179.3 253.1,186.8 			"/>
			<g id="ell44o5bu96l">
				<g class="st21">
					<polygon id="elra4r5rzuwdd" points="255.3,188.1 268.2,180.6 266,179.3 253.1,186.8 					"/>
				</g>
			</g>
			<path id="elkkcyykqmz8" class="st2" d="M274.1,202.5l-15.7,9.1c-0.3,0.2-0.7,0.2-1,0.2c-0.3,0-0.6-0.1-0.9-0.2l0,0l-6.9-4l0,0
				c-0.5-0.4-0.9-1-0.9-1.6v-0.4c0-0.6,0.4-0.8,0.9-0.5l4.2,2.4l0.9,0.5l-0.2-1.1l-1.5-20.1l2.2,1.3l12.9-7.5l6.7,20.4
				C275,201.6,274.7,202.2,274.1,202.5z"/>
			<g id="elz508mn08h2">
				<g class="st24">
					<path id="el2tfek5nednl" d="M274.1,202.5l-15.7,9.1c-0.3,0.2-0.7,0.2-1,0.2c-0.3,0-0.6-0.1-0.9-0.2l0,0l-6.9-4l0,0
						c-0.5-0.4-0.9-1-0.9-1.6v-0.4c0-0.6,0.4-0.8,0.9-0.5l4.2,2.4l0.9,0.5l-0.2-1.1l-1.5-20.1l2.2,1.3l12.9-7.5l6.7,20.4
						C275,201.6,274.7,202.2,274.1,202.5z"/>
				</g>
			</g>
			<polygon id="ela1lcvu5gupw" class="st2" points="249.1,205 254.4,201.9 255.5,209.1 			"/>
			<g id="elo9gjcyz95y">
				<polygon class="st17" points="249.1,205 254.4,201.9 255.5,209.1 				"/>
			</g>
			<path id="elsmt06lle9lo" class="st2" d="M255.3,188.1l-2.2-1.3l1.5,20.1c0.1,0.6-0.2,0.8-0.7,0.5l-4.2-2.4
				c-0.5-0.3-0.9-0.1-0.9,0.5v0.4c0,0.6,0.4,1.2,0.9,1.6l0,0l6.9,4l0,0c0.3,0.1,0.6,0.2,0.9,0.2L255.3,188.1z"/>
			<g id="el2jfmxz1h37m">
				<g class="st25">
					<path id="eln9i7pc7jwy" d="M255.3,188.1l-2.2-1.3l1.5,20.1c0.1,0.6-0.2,0.8-0.7,0.5l-4.2-2.4c-0.5-0.3-0.9-0.1-0.9,0.5v0.4
						c0,0.6,0.4,1.2,0.9,1.6l0,0l6.9,4l0,0c0.3,0.1,0.6,0.2,0.9,0.2L255.3,188.1z"/>
				</g>
			</g>
		</g>
	</g>
</g>
<g id="freepik--Characters--inject-32">
	<g id="freepik--characters--inject-32">
		<g id="freepik--Character--inject-32">
			<path id="elnkwyaontgje" class="st26" d="M233.3,223.7L233.3,223.7c-4.5-10.7-12.1-29.7-12.6-33.3c-0.7-5.5,0-33.8,0.9-43.3
				s3.7-14,9.8-16.1c3.8,1.4,6.8,4.4,8.2,8.2c2.2,6.4,0.9,15.2,0.9,15.2l-2.8,36l7.1,26.7c0.7,2.6,2.2,5,4.3,6.7
				c1.6,1.1,3,2.4,4.4,3.7c2.1,2.3,3.2,4.5,5.4,6.4s1.5,2.3,0,2.9s-4-0.9-6-2.8c-0.7-0.6-1.3-1.1-1.8-1.5c1.5,4.7,3.8,9.2,6.8,13.1
				c2.5,3.1,3.3,5.7-0.4,6.9c-4.6,1.4-9.3,1.4-13.3-1.4s-6-8.4-7.4-13.1S235.3,228.2,233.3,223.7z"/>
			<path id="elkaz503yk3qf" class="st6" d="M238.6,190.3l0.5-10.2c0,0,3-31.8,3-38c0-6.9-1.9-10-4.4-11.2s-5.1-1.7-10.8-2.7
				c-7.9,4.9-7.4,27.6-7.7,41.2s-0.8,20.4,1.2,24.7s12.8,29.6,12.8,29.6c4.5-0.5,8.7-2.6,11.8-5.8L238.6,190.3z"/>
			<polygon id="eltqykmqf06a" class="st26" points="182,392.1 194.2,392.1 196.7,370.4 182,370.4 			"/>
			<polygon id="eloizggwqp8t" class="st26" points="222.5,369.8 235.6,370.2 235.4,347.7 220.6,347.4 			"/>
			<path id="elkhu2p6pni" class="st6" d="M182.1,214.5c-0.2,11.9-2.8,93.8-2.8,93.8c-0.9,6.4-1.4,12.9-1.6,19.4
				c-0.3,15.7,3,53.1,3,53.1c0.7,3.4,13.4,4.8,15.1,1.7c0,0,6.9-54.2,8.9-69.8c1.7-13.6,7-56.5,7-56.5l4.7,42.1
				c-0.2,5.1-0.1,10.2,0.3,15.3c0.5,7.2,4.1,49.8,4.1,49.8c0.1,2.6,13.3,4.8,15.5,0.9c0,0,4.2-62.1,4.3-68.7
				c0.1-7.5-0.9-81.9-0.9-81.9L182.1,214.5z"/>
			<path id="el1m6yi53e85m" class="st7" d="M194.9,385.9l0.2-1.9c0.7,0,1,0.8,1.3,2.4c0.6,3.5,1.7,6.8,3.3,10
				c2.1,4.3,3.3,6.1,7.4,11.2c1,1.2,3.2,3.2,3.9,4.5s1,5.2-0.3,6c-4.8,3.2-12.1,3.3-17.2,1.8c-4-1-7-4.3-7.5-8.4
				c-0.8-4.7-1.3-7.6-3.7-11.1c-0.9-1.3-2.3-2.4-2.9-3.8c-1.1-2.6-0.2-5.5,0.5-8.1c0.6-2.2,1.2-4.7,2-4.5v1.4c0.9,1,4.1,2,7,2.1
				C190.9,387.6,195,387.3,194.9,385.9z"/>
			<path id="elnx0ilv19se" class="st7" d="M235.6,366.7c0.3,0.2,1.1,1.1,2.4,2.3c1.3,1.2,2.8,2.3,4.2,3.3c3,2.2,6.1,4.2,9.4,5.9
				c3.9,2.1,7.4,3.4,12,5.5c0.5,0.2,0.9,0.5,1.3,0.9c0.3,0.3,0.5,0.7,0.6,1.2c0.3,1.8-0.5,3.6-1.9,4.6c-1.5,1-3.1,1.7-4.9,2.1
				c-3.9,1.1-8.1,1.2-12.1,0.4c-3.5-1-6.7-2.5-9.7-4.5c-2.5-1.8-5.3-3-8.3-3.6c-2.6-0.4-5.8-0.3-8.1-1.8c-2.5-1.7-1.5-5.4-0.8-8.6
				c0.8-3.5,0.9-8.8,2.5-8.7l0.1,1.4c0.1,1.5,3.8,2.2,6.6,2.2c2.3,0,6.7-0.6,6.7-1.7L235.6,366.7z"/>
			<g id="elzo0n5ombtjn">
				<path class="st4" d="M213.5,237.9c5-1.9,9.6-4.9,13.4-8.6c0,0-2.1,6.2-10.9,11.4l0.6,54.4l-4.4-38.9L213.5,237.9z"/>
			</g>
			<path id="el4cp1ax8hasx" class="st7" d="M201.9,127.5c-2.2,0.5-9.3,2.4-15,4.5c-2.9,1.1-5.4,3-7.2,5.5c-4.2,6.1-0.4,19.6,2.6,45
				c-0.2,16.4-0.7,33.8-0.7,33.8c7.6,5.5,42.8,9.2,58.7-2.4c0,0,0.5-58.7-0.5-66.7c-2-15.3-8-19.4-20.4-20.2L201.9,127.5z"/>
			<path id="el9z32tc79bmr" class="st2" d="M223.5,145.5c1.1,3.8,7.4,29.2,6.9,38.7c-0.4,7.5-3.1,11.1-4.6,12.7s-4.1,2.4-5.8-0.2
				c-1.9-2.8-3-6-3.4-9.4c-0.5-5.1,2.3-22.7,1.5-40.9C219.3,144.7,221.8,144.3,223.5,145.5C223.5,145.5,223.5,145.5,223.5,145.5z"/>
			<path id="elx2jbs4wdmv" class="st2" d="M223.8,136.9c2.6,2.2-0.3,8.7-0.3,8.7c-1.9-0.4-3.8-0.1-5.4,0.9c0,0-5.2-2.2-5.2-6.1
				c0-3.5,3.7-2.4,6.4-2.8C222.1,137.1,223.5,135,223.8,136.9z"/>
			<g id="ele59ykxmqevj">
				<path class="st3" d="M223.5,145.5c-0.4-1.5-2.5-1.4-4.1-1.9c-0.9-0.4-1.7-1-2.2-1.9c-0.8-1.4,0-3.9,1.2-4.1l0,0
					c-2.5,0.2-5.5-0.4-5.5,2.8c0,3.9,5.2,6.1,5.2,6.1C219.7,145.5,221.7,145.1,223.5,145.5z"/>
			</g>
			<path id="elnze9a2e0pn" class="st7" d="M205.6,91.8c0.2,8.9,7.6,15.9,16.4,15.7c8.9-0.2,15.9-7.6,15.7-16.4
				c-0.2-8.9-7.6-15.9-16.4-15.7C212.4,75.6,205.4,83,205.6,91.8C205.6,91.8,205.6,91.8,205.6,91.8z"/>
			<path id="elmsrf7r02p3" class="st7" d="M194.2,103.5c0,0,2.9,12.2,4,14.2c0.7,1.2,1.9,2.1,3.3,2.5l-0.4-8.6L194.2,103.5z"/>
			<path id="elfkvvcb6mnh" class="st7" d="M197,86c-1.9-0.2-3.7,0.5-5,1.9c-2.1,2.3-0.7,9.1,2.1,15.7l4.9,0.4L197,86z"/>
			<path id="el347klb54dsc" class="st26" d="M200.6,104c-1,0.6-2.4-1.3-3.7-2.5s-5.2-2.9-7.1,1.3s2,9.8,5.1,10.7
				c5.4,1.6,6.1-1.9,6.1-1.9l0.9,21.9l0,0c3.8,4.7,12,3.4,16.4,2.5c3.6-0.7,4.5-1.7,1-5.6l-0.2-6.3c2.4,0.3,4.8,0.4,7.3,0.2
				c3.9-0.7,6.4-3.9,7.4-8.2c1.6-6.6,2.1-13.9,0.4-25.9c-2-14.8-19.4-14.5-28.5-8.4S200.6,104,200.6,104z"/>
			<path id="el9w3xdtd5i3c" class="st7" d="M200.6,105.6c-0.5,0-2.4-3-3.7-4.1C195.2,100,197,86,197,86c-1.3-2.5-0.9-5.5,1-7.6
				c2.3-2.6,5.4-5.8,16-4.8c7.5,0.7,15.8,2.8,22.3-0.6c1.3,4.4-0.1,9.1-3.6,12c0,0-2.4,1.6-8.6,2.5s-16.1,0.2-17.4,0.1
				c-1.8-0.2-2.2,1.6-3.1,6.4C202.8,98.3,202.3,105.5,200.6,105.6z"/>
			<path id="el20t1wbayf9u" class="st7" d="M197.1,87l-6.1-3c0.7-1.7,2.7-2.4,4.3-1.7c0,0,0.1,0,0.1,0.1
				C197.1,83.3,197.8,85.3,197.1,87z"/>
			<path id="elxrf0ckduxtm" class="st27" d="M219.2,124.1c0,0-8.9-1.6-12-3.1c-1.8-0.9-3.3-2.3-4.4-4.1c0.5,1.8,1.4,3.5,2.5,4.9
				c2.3,2.8,13.9,4.8,13.9,4.8L219.2,124.1z"/>
			<path id="elip736voor6" class="st7" d="M218.5,102.5c-0.1,1-1,1.7-1.9,1.6c-1-0.1-1.7-1-1.6-1.9c0.1-0.9,0.9-1.7,1.9-1.6
				C217.8,100.7,218.5,101.5,218.5,102.5z"/>
			<path id="eli6ubskon0bh" class="st7" d="M217.2,97.3l-3.9,1.9c-0.5-1.1-0.1-2.4,1-3c1-0.5,2.3-0.1,2.8,1
				C217.2,97.2,217.2,97.2,217.2,97.3z"/>
			<path id="eljdiha90yj28" class="st27" d="M217.3,113.7l5.5,1.5c-0.3,1.5-1.8,2.5-3.4,2.1c0,0-0.1,0-0.1,0
				C217.8,116.8,216.9,115.3,217.3,113.7z"/>
			<path id="eld4xr68w401h" class="st7" d="M233.1,97.9l-4.1-1.4c0.3-1.1,1.5-1.8,2.6-1.4c0,0,0.1,0,0.1,0
				C232.8,95.5,233.4,96.7,233.1,97.9z"/>
			<path id="eltk4hv7b0ucl" class="st7" d="M232.6,101.8c0.1,1-0.7,1.8-1.7,1.9c-1,0.1-1.8-0.7-1.9-1.7c0-0.9,0.7-1.8,1.6-1.9
				C231.7,100.1,232.5,100.8,232.6,101.8C232.6,101.8,232.6,101.8,232.6,101.8z"/>
			<polygon id="el551171y8ack" class="st27" points="224.2,100.9 224.8,111.6 230.3,109.6 			"/>
			<path id="elmbmnywfuru" class="st6" d="M218.4,136c-4.9-1-15.6-4-16.8-9.7l-0.1-3.1c-1.9,0-2.8,2.1-3.7,5.2
				c-0.4,8,8.1,15.3,16.6,17.3c0,0-0.2-4.2,1.2-6.3C216.3,138.1,217.3,137,218.4,136z"/>
			<path id="eldqvaqih44ca" class="st6" d="M219.2,125c1.3,0.4,2.5,1.1,3.4,2c6.4,6.6,2.7,15.2,2.7,15.2s-0.3-3.8-2.1-5
				c-1.5-0.8-3.1-1.2-4.8-1.2c1.6-1.7,1.8-3,1-5.6L219.2,125z"/>
		</g>
		<g id="freepik--character--inject-32_1_">
			<path id="elay2gk6ckdpn" class="st28" d="M335.9,148c-3.8,11-8.5,30.3-8.5,30.3l-35.3,14.2l1,4.6l-8.4-3.4l-4.1,4.3
				c0,0,4.6,10.7,10.7,9.4c1.4-0.3,2.9-0.6,4.3-1.1c1.9-0.7,3.4-1.5,4.9-2.1c2.2-0.9,4.5-1.6,7.4-2.4c11.5-3.4,23.8-6.7,27.4-7.8
				c5.5-1.7,5.6-2.9,7.9-9.2c3.3-9.2,9.7-30.8,9.7-30.8v-20.3C345.7,133.8,340,136.1,335.9,148z"/>
			<g id="freepik--character--inject-32">
				<path id="el17qhrbaqd5l" class="st6" d="M400.3,369.9c0.8,3.3,1.4,6.7,1.8,10.1c0.5,3.8,0.8,6.6,1.9,13.1
					c1,5.9,1.8,10.5-2.4,14.9c-3.7,3.9-10.2,5.4-12.3,1c-2.5-5.1-2.1-13.4-1.8-18.5s0.3-6.7,0.3-10.8c0-3.6,0.2-5.1,0.4-8.2
					C392.1,371.3,396.3,370.2,400.3,369.9z"/>
				<path id="eloyy5lywvbc9" class="st7" d="M356.4,389.1l-1.4-0.2c-0.1-4.3,0.2-8.2-0.9-10.2l1.9-5.2L356.4,389.1z"/>
				<path id="elsfuyam2zxla" class="st7" d="M359.7,369.7c-0.3,2.9-2,5.9-2.1,11.7c-0.1,2.5-0.1,4.9,0.1,7.4l-1.4,0.4l-0.3-15.6
					L359.7,369.7z"/>
				<path id="elld8j002h3op" class="st7" d="M327.5,393c0,0,0.1,1.7,0.8,2.3s2.3,2.3,9.8,1.8s10.2-2.3,12.7-4.6s3.2-8.5,3.6-11.4
					c0.7-5.6,3.1-8.6,5.3-11.4c0.4-0.9,0.4-1.9,0.2-2.9c0,0-6.2-0.4-8.9,6.5s-4.8,14.9-10.9,16.8C336,391.3,331.8,392.3,327.5,393z"
					/>
				<path id="elhb40um9n10c" class="st28" d="M400.3,369.9c0-4.9,0-11.3,0.5-19.9c0.5-10,0.6-17.7,0.5-28.3c0-8-0.5-15.1-3.3-30.4
					c3-30.8,4.1-62.5,0.5-74.2c-3.1-10-6.3-13.4-9.1-18.3c-1.5-2.5-4.1-6.3-4.1-9.7c-7.1,2.8-14.6,4.2-22.2,4.3
					c-14.3,0.1-19.2-3.7-19.2-3.7s-6.4,74.5-5.1,98.8c0.8,14.4,2,35.7,2.4,46.2c0.3,8.1,1.3,18.6,1.2,23c-0.1,3.9-0.9,7.7-2.2,11.4
					c-1.3,3.9-2.8,7.8-4.7,11.5c-0.4,1-1,1.9-1.7,2.7c-1,1.1-2.1,2.1-3.2,3.1c-2.3,2-3.5,3-3.3,4.8s1.6,2.6,3.1,3
					c3.7,1.1,7.9,0.6,11.6,0s7.8-2.4,9.4-5.9c0.4-1,0.7-2.1,0.9-3.2c0.7-3.6,1.3-7.4,2.8-10.7c0.5-1.4,1.2-2.8,2-4.1
					c1-1.4,2.2-2.9,2.3-4.7c0.1-1.5-1-3.5-2.5-5.7l0,0c-1.3-1.9-0.9-3.3-0.5-9.3c1-13.1,3.6-22.5,5.9-38.4c1.1-7.9,0.9-14.2-0.5-23
					c1.5-10.4,4.1-21.3,5.7-28.5c2.5,15,4.1,20.5,5.5,31.9c1.9,15.8,10.8,48.8,12.2,57.3s2.3,14.2,3,21.1c0.6,6,1,18,1.8,23.5
					c1.2,8.8,10.2,6.1,11.7-1.6C402.5,387.5,400.4,376.6,400.3,369.9z"/>
				<path id="el3coflg2bfq2" class="st6" d="M343.3,195.7c-0.8,10.3-4.6,52-5.3,65.1c-0.6,10.5-0.3,22.9,0,31.5
					c6.9,4.5,35.2,12.6,49.9-8.7c3,7.2,6.6,11.2,10.8,8.7c0,0,3.1-30.4,3.2-50s-2.2-28.9-7-36s-8.2-12-8.2-12L343.3,195.7z"/>
				<path id="elty3h10gyvl" class="st6" d="M359.3,362.5c-1.1-1.9-2-2.4-3.1-4c-1.2,1.1-2,2.5-2.4,4c-0.5,1.5-1.7,8.9-3.5,14.8
					c-1.4,4.4-3.6,6.8-6.8,8c-2,0.7-4.1,1-6.2,0.7l0,0c-3.9-0.5-3-3.4-3-3.4c-0.9,1.3-4.6,4.3-6.8,6.5c-1.3,1.3-0.7,3.2,0.3,4.4
					c1.1,0.9,3.6,2.8,13,1.5c8.3-1.2,10.2-5,11-6.8c0.8-2.5,1.4-5.1,1.7-7.8c0.5-2.9,1.5-5.7,2.9-8.3c0.2-0.3,0.4-0.6,0.5-0.9l0,0
					c0.6-0.9,1.3-1.8,2-2.6c0.6-0.7,1-1,1.2-1.7C360.4,365.4,360.1,363.8,359.3,362.5z"/>
				<path id="ele0ly4lihyqk" class="st2" d="M341.7,170.7c0.2,4.1,2.1,19.1,2.1,19.1c16.9,11.4,41.5-0.6,41.5-0.6l4.6-31.1
					c0,0-10.1-10.3-1.8-23.3l-13.4-0.9l-14.3-0.1l-7.3-0.1c-5.1,3.8-14,13.4-15.7,17.7S334.2,161.9,341.7,170.7z"/>
				<g id="elftvcjvx5yu">
					<g class="st29">
						<path id="elolv2u8d15wf" class="st16" d="M341.7,170.7c0.2,4.1,2.1,19.1,2.1,19.1c16.9,11.4,41.5-0.6,41.5-0.6l4.6-31.1
							c0,0-10.1-10.3-1.8-23.3l-13.4-0.9l-14.3-0.1l-7.3-0.1c-5.1,3.8-14,13.4-15.7,17.7S334.2,161.9,341.7,170.7z"/>
					</g>
				</g>
				<g id="elvrb421ay6r">
					<path class="st30" d="M358.3,170c1.5,1.9,8.2,4.2,13.8,1.8c4.2-1.7,7.2-5.6,7.8-10.2c0,0,1.6,8.6-7,12.1S358.7,171.9,358.3,170
						z"/>
				</g>
				<path id="elgpj1imc3jl" class="st7" d="M350.4,121.1c0,0,25.2,9.8,25.2,5.4c4.7-8.8,14.3-11.6,14.3-26.9
					c0-16-13.3-23.8-26.6-23.8l0,0c-8.5,0-16.3,4.4-20.7,11.6c-7.6,2-5.6,12.5,2,14.4L350.4,121.1z"/>
				<path id="elgma7wk5fw1d" class="st7" d="M376.3,130c-3.6-3.2-3.6-9,0-13s9.3-4.7,12.9-1.5s3.6,9,0.1,13
					C385.7,132.5,379.9,133.1,376.3,130z"/>
				<path id="eljf21qmu739l" class="st28" d="M375.7,134v-19.4c0,0,2.5,2.5,6.2-0.2c3.3-2.4,4.7-7.6,2.4-10.3
					c-1.6-1.9-6.7-2.9-8.7,1.1c0,0-5.9-0.3-13.5-5.7s-9.5-10.2-14.1-10.8c-2.2,1.7-4.3,6.6-4.1,19.7c0.2,9.7,4.5,14.3,6.7,15.9
					c1.8,1.3,4.1,1.5,8,0.9v9.2c0,0-11.5,12.8-2.2,12.2C370.2,145.8,375.7,134,375.7,134z"/>
				<path id="ellcnjnbi9cjj" class="st7" d="M375.5,104.3v5.4l0,0c-2.1,0-3.8-1.7-3.8-3.8v-5.2L375.5,104.3z"/>
				<path id="elm9xrbg63p1" class="st7" d="M359.7,104.4c0,1,0.7,1.8,1.7,1.8c1,0,1.8-0.7,1.8-1.7c0-1-0.7-1.8-1.7-1.8
					C360.6,102.7,359.7,103.4,359.7,104.4C359.7,104.4,359.7,104.4,359.7,104.4z"/>
				<path id="el9zm54cv87y9" class="st7" d="M345,99.8l3.9-2.2c-0.6-1.1-1.9-1.5-2.9-0.9c0,0-0.1,0-0.1,0
					C344.8,97.4,344.4,98.7,345,99.8z"/>
				<path id="el9u03s0u1i3k" class="st31" d="M361,114.7l-4.9,1.8c0.4,1.3,1.9,2.1,3.2,1.6c0,0,0,0,0.1,0
					C360.8,117.5,361.5,116,361,114.7z"/>
				<path id="elpjbtcnj6mi" class="st7" d="M346.2,104c-0.1,1,0.7,1.8,1.7,1.9c1,0,1.8-0.7,1.9-1.7c0.1-1-0.7-1.8-1.7-1.9
					c0,0,0,0,0,0C347.1,102.3,346.3,103,346.2,104z"/>
				<polygon id="elxw94ohy2rrg" class="st31" points="354.7,103.1 354.5,112.6 349.4,111.1 				"/>
				<path id="eljgskxjzq2d" class="st31" d="M358.5,125.3c4.1-0.5,12.5-2.9,13.9-6.2c-0.5,1.7-1.6,3.1-3,4.2
					c-2.5,2.1-10.9,4.5-10.9,4.5L358.5,125.3z"/>
				<path id="el7n3ulb5f9xn" class="st7" d="M369.6,76.3c-8.5-1.9-11.9,0.5-20.4-0.4c-3.5-0.4-6.7-0.5-9.1,0.7
					c-2.7,1.3-4.3,4.3-3.9,8.1c0.6,6.4,7.5,8.1,7.5,8.1s5.9-13.3,13.7-13.2S369.6,76.3,369.6,76.3z"/>
			</g>
			<path id="elkfzxv57c64g" class="st7" d="M343.4,187.4l-0.1,8.3c0,0,5.5,4.2,15.5,4.9s24.1-3.3,28-6.2c-1.1-2.5-1.5-5.3-1.1-8
				c-7.7,4-16.2,5.9-24.8,5.6C346.8,191.2,343.4,187.4,343.4,187.4z"/>
			<path id="el9bt51ho1le8" class="st28" d="M410.7,219.9L410.7,219.9c1.1-10.4,2.8-29.9,2.3-33.1c-0.8-4.9-9.3-33-12.2-41.6
				c-2.8-8.1-7-10.6-14.2-10.6c0,0-5,2.2-5,10.2c0,6.1,3,12.3,3,12.3l12.6,35.7l0.7,24.8c0.1,2.4-0.6,4.8-2,6.8
				c-1,1.4-2,2.8-2.9,4.3c-1.2,2.5-1.6,4.7-3,6.9s-0.7,2.4,0.7,2.5s3.2-1.8,4.5-4c0.4-0.7,0.8-1.3,1.2-1.8c0,4.5-0.9,8.9-2.5,13.1
				c-1.4,3.3-1.4,5.8,2.1,5.8c4.3,0.1,9.5-1.7,12.2-5.1s3-8.8,3-13.1S410.1,224.2,410.7,219.9z"/>
		</g>
		<path id="elnn62h1kk4wl" class="st26" d="M265.5,207.5c-1.4-0.2-3.9-0.5-5.5-0.7c-4.7-0.4-10.9-0.8-10.9-0.8l1.5-14.9l8.9,1.3
			c2.8,0.4,5.6,0.3,8.3-0.2c3.6-0.6,6.7-3.1,10.4-3.1c1.9,0,3,1.2,4.1,2.7c0.8,0.9,1.5,1.8,2.1,2.8c2.7,4.5,6.7,10.4,8.3,11.2
			c1.8,1,2.9,0.5,2.9,0.5c2,3.5-5.3,4.5-8.5,5.3c-3.4,0.8-6.9,0.7-10.3-0.2C274.2,210.5,266.9,207.7,265.5,207.5z"/>
		<path id="elnybk4nlle3" class="st6" d="M186.9,132c-3.6,1.1-6.9,3.1-9.6,5.7c-4,4-4.2,10.7-2.2,17.5s19.4,36.9,22,41.6
			c3.4,6,5.3,6,11,6.6c7.1,0.9,49.8,3.6,49.8,3.6c2.5-0.5,3.8-12.9,1.3-15.2l-44.9-7l-15.1-32.9C199.1,151.9,195,133.1,186.9,132z"
			/>
		<path id="el0v2at68mtd5" class="st28" d="M296.8,190.6c-2.9,0.8-5.1-0.1-8.2-1.1c-3.3-1.1-4.1-1.2-6.7-0.4c-2.4,0.8-5.1,1.3-6,2.7
			c-0.3,0.4-1.3,3.4-2,5.6c0.1,1.1,2.6,1.5,3.8-0.1c1-1.3,1.2-2.1,1.6-2.6c1.7-0.2,3.4-0.2,5.1,0l11.8,5.3L296.8,190.6z"/>
		<path id="el6985pxdp8r8" class="st28" d="M264.9,207.4c0.8-1.1,2.1-1.8,3.5-1.7c1.5-0.1,3,0,4.5,0.2c1.3,0.2,2.7,0.3,4,0.4
			c0.7,0.1,1.4,0.2,2,0.3c0.4,0.1,1,0.4,1,0.9c0.6-0.2,1.1-0.4,1.7-0.4c0.6-0.1,1.2,0.1,1.7,0.5c1,0.9,0.3,2.3-0.3,3.2
			c-0.7,1.1-1.8,1.9-3,2.2c-2.3,0.3-4.7,0.2-6.9-0.3C270.8,212.1,262.8,209.6,264.9,207.4z"/>
	</g>
</g>
<g id="freepik--speech-bubble--inject-32_1_">
	<g id="freepik--speech-bubble--inject-32">
		<ellipse id="el19x7r57npts" class="st2" cx="288.2" cy="59.6" rx="35.3" ry="30.9"/>
		<path id="el8hakvjs46th" class="st2" d="M260.4,76.8c-0.5,4.1-4.6,11.2-11.1,13.4c-0.2,0.1-0.4,0.3-0.3,0.6c0,0.1,0.2,0.2,0.3,0.3
			c7.2,2.2,15.1-0.1,20-5.9L260.4,76.8z"/>
		<path id="el2sjksq07vc8" class="st2" d="M316,76.8c0.5,4.1,4.5,11.2,11.1,13.4c0.2,0.1,0.4,0.3,0.3,0.6c0,0.1-0.2,0.2-0.3,0.3
			c-7.2,2.2-15.1-0.1-20-5.9L316,76.8z"/>
		<path id="eloa0voss1hw9" class="st10" d="M268.1,53.6c0.9,0,1.8,0.1,2.6,0.4c0.7,0.3,1.4,0.7,2,1.2c0.6,0.5,1.1,1.1,1.4,1.8
			c0.3,0.7,0.5,1.5,0.5,2.3c0,0.3,0,0.5,0,0.8v1.4c0,0.2,0,0.5,0,0.8c0,0.8-0.2,1.6-0.5,2.3c-0.3,0.7-0.8,1.3-1.3,1.8
			c-0.6,0.5-1.3,0.9-2,1.2c-0.8,0.3-1.7,0.4-2.6,0.4h-5.6c-0.2,0-0.3-0.1-0.4-0.2c-0.1-0.1-0.2-0.2-0.2-0.4V54.1
			c0-0.1,0.1-0.3,0.2-0.4c0.1-0.1,0.3-0.2,0.4-0.2H268.1z M270.8,59.2c-0.1-1.6-1-2.4-2.8-2.4h-2.1v7.9h2.2c1.7,0,2.6-0.8,2.7-2.4
			c0-0.3,0-0.6,0-0.8V60C270.8,59.8,270.8,59.5,270.8,59.2z"/>
		<path id="el120rx6i9hnno" class="st10" d="M287.3,64.7c0.1,0,0.3,0.1,0.4,0.2c0.1,0.1,0.2,0.2,0.2,0.4v2.2c0,0.3-0.3,0.5-0.6,0.6
			h-9.8c-0.1,0-0.3-0.1-0.4-0.2c-0.1-0.1-0.2-0.2-0.2-0.4V54.1c0-0.3,0.2-0.5,0.5-0.5h9.6c0.3,0,0.5,0.2,0.5,0.5v2.2
			c0,0.1-0.1,0.3-0.2,0.4c-0.1,0.1-0.2,0.2-0.4,0.2h-6.4v2.2h5.9c0.3,0,0.6,0.2,0.6,0.5c0,0,0,0,0,0v2.2c0,0.1-0.1,0.3-0.2,0.4
			c-0.1,0.1-0.3,0.2-0.4,0.2h-5.9v2.3H287.3z"/>
		<path id="eluvj8ndqd24" class="st10" d="M297.9,53.6c0.2,0,0.5,0.1,0.6,0.2c0.1,0.1,0.2,0.3,0.3,0.5l4.5,13c0,0.1,0.1,0.2,0.1,0.3
			c0,0.1-0.1,0.2-0.1,0.3c-0.1,0.1-0.2,0.1-0.3,0.1h-2.6c-0.2,0-0.4,0-0.6-0.2c-0.1-0.1-0.2-0.2-0.2-0.3l-0.6-1.7h-5.5l-0.6,1.7
			c0,0.1-0.1,0.2-0.2,0.3c-0.2,0.1-0.4,0.2-0.6,0.2h-2.6c-0.2,0-0.4-0.2-0.5-0.4c0,0,0,0,0,0c0-0.1,0-0.2,0.1-0.3l4.5-13
			c0.1-0.2,0.2-0.3,0.3-0.5c0.2-0.2,0.4-0.2,0.6-0.2L297.9,53.6z M294.6,62.6h3.3l-1.7-5L294.6,62.6z"/>
		<path id="el6clyjy4vwf" class="st10" d="M315.2,64.7c0.3,0,0.5,0.2,0.5,0.6v2.2c0,0.1-0.1,0.3-0.2,0.4c-0.1,0.1-0.2,0.2-0.4,0.2
			h-9.6c-0.2,0-0.3-0.1-0.4-0.2c-0.1-0.1-0.2-0.2-0.2-0.4V54.1c0-0.1,0.1-0.3,0.2-0.4c0.1-0.1,0.3-0.2,0.4-0.2h2.7
			c0.1,0,0.3,0.1,0.4,0.2c0.1,0.1,0.2,0.2,0.2,0.4v10.6H315.2z"/>
	</g>
</g>
</svg>
