<?xml version="1.0" encoding="utf-8"?>
<!-- Generator: Adobe Illustrator 24.2.1, SVG Export Plug-In . SVG Version: 6.00 Build 0)  -->
<svg version="1.1" id="freepik_stories-cloud-hosting" xmlns:svgjs="http://svgjs.com/svgjs"
	 xmlns="http://www.w3.org/2000/svg" xmlns:xlink="http://www.w3.org/1999/xlink" x="0px" y="0px" viewBox="0 0 500 500"
	 style="enable-background:new 0 0 500 500;" xml:space="preserve">
<style type="text/css">
	.st0{fill:#EBEBEB;}
	.st1{fill:#E0E0E0;}
	.st2{fill:#F5F5F5;}
	.st3{fill:#3EAFF3;}
	.st4{fill:#FFFFFF;}
	.st5{opacity:0.3;fill:#3EAFF3;enable-background:new    ;}
	.st6{opacity:0.6;}
	.st7{opacity:0.9;fill:#FFFFFF;enable-background:new    ;}
	.st8{opacity:0.1;fill:#3EAFF3;enable-background:new    ;}
	.st9{opacity:0.7;fill:#FFFFFF;enable-background:new    ;}
	.st10{clip-path:url(#SVGID_2_);}
	.st11{opacity:0.1;enable-background:new    ;}
	.st12{opacity:0.6;fill:#3EAFF3;enable-background:new    ;}
</style>
<g id="freepik--background-complete--inject-2">
	<rect id="elq40ei4hcg4a" y="382.4" class="st0" width="500" height="0.3"/>
	<rect id="elz3x5d6ui28o" x="394.7" y="398.5" class="st0" width="55.2" height="0.3"/>
	<rect id="el4zbc6qx9by5" x="321.8" y="393.3" class="st0" width="8.7" height="0.3"/>
	<rect id="el6ree61lbygj" x="372.5" y="389.2" class="st0" width="19.2" height="0.3"/>
	<rect id="el5c820ry1906" x="52.5" y="390.9" class="st0" width="43.2" height="0.3"/>
	<rect id="elzuzkuvqibup" x="215.3" y="397.4" class="st0" width="45.7" height="0.3"/>
	<rect id="elv51q9uo0j7" x="140.5" y="393.1" class="st0" width="93.7" height="0.3"/>
	<path id="el6w9dpdcmmra" class="st0" d="M242.7,332.1c0,3.2-2.6,5.7-5.7,5.7c0,0,0,0,0,0H43.9c-3.1,0-5.7-2.6-5.7-5.7V60.7
		c0-3.1,2.6-5.7,5.7-5.7H237c3.2,0,5.7,2.6,5.7,5.7c0,0,0,0,0,0 M242.5,60.7c0-3-2.4-5.5-5.4-5.5c0,0,0,0,0,0H43.9
		c-3,0-5.5,2.4-5.5,5.5v271.4c0,3,2.4,5.5,5.5,5.5H237c3,0,5.5-2.4,5.5-5.5"/>
	<path id="elmwghe7shu5e" class="st0" d="M453.3,337.8H260.2c-3.2,0-5.7-2.6-5.7-5.7V60.7c0-3.1,2.6-5.7,5.7-5.7h193.1
		c3.1,0,5.7,2.5,5.7,5.7v271.4C459,335.2,456.5,337.8,453.3,337.8z M260.2,55.2c-3,0-5.5,2.4-5.5,5.5v271.4c0,3,2.4,5.5,5.5,5.5
		h193.1c3,0,5.5-2.4,5.5-5.5V60.7c0-3-2.4-5.5-5.5-5.5H260.2z"/>
	<path id="elseiyiyk71ej" class="st1" d="M193.1,147.6c-0.1-15.7-12.9-28.3-28.6-28.2c-3.6,0-7.1,0.7-10.4,2.1
		c-8.3-17-28.9-24.1-45.9-15.8c-9.4,4.6-16.2,13.2-18.5,23.4c-16.3,1.4-28.3,15.8-26.9,32c1.3,15,13.7,26.6,28.8,27h94.1
		c11.6-0.1,20.9-9.6,20.8-21.2C206.4,158.3,201.1,150.6,193.1,147.6L193.1,147.6z"/>
	<path id="el25bo3sj8b85" class="st2" d="M434,284c-0.1-15.7-13-28.3-28.7-28.2c-3.5,0-7.1,0.7-10.3,2c-8.3-17-28.9-24.1-45.9-15.8
		c-9.4,4.6-16.2,13.2-18.5,23.4c-16.3,1-28.7,15.1-27.6,31.4c1,15.6,13.9,27.7,29.5,27.7h94.1c11.6-0.1,20.9-9.7,20.7-21.3
		C447.2,294.7,442,287.1,434,284z"/>
	<path id="elrcfhz21z0f9" class="st1" d="M344,191.9c-0.1-8.1-6.7-14.7-14.9-14.6c-1.8,0-3.7,0.4-5.4,1.1c-4.3-8.8-15-12.5-23.8-8.2
		c-4.9,2.4-8.4,6.9-9.6,12.2c-8.4,0.5-14.9,7.8-14.3,16.3c0.5,8.1,7.2,14.4,15.3,14.4h48.8c6,0,10.8-4.9,10.8-10.9
		C350.9,197.5,348.2,193.5,344,191.9L344,191.9z"/>
	<path id="elq9395pys89" class="st0" d="M412.8,103.8c-0.1-10.8-8.9-19.4-19.7-19.3c-2.4,0-4.8,0.5-7.1,1.4
		c-5.7-11.7-19.8-16.5-31.5-10.8c-6.4,3.1-11.1,9-12.6,16c-11.2,0.8-19.6,10.5-18.8,21.6c0.7,10.6,9.5,18.8,20.1,18.8h64.5
		c7.9,0,14.4-6.4,14.4-14.4C422,111.3,418.3,106,412.8,103.8z"/>
	<path id="eljfclg6gcnen" class="st2" d="M206.1,275.2c-0.1-10.8-8.9-19.4-19.6-19.3c-2.4,0-4.9,0.5-7.1,1.4
		c-5.7-11.7-19.8-16.5-31.5-10.8c-6.4,3.1-11.1,9-12.7,16c-11.2,0.8-19.6,10.5-18.8,21.6c0.7,10.6,9.5,18.8,20.1,18.8H201
		c7.9,0,14.4-6.4,14.4-14.4C215.4,282.7,211.7,277.3,206.1,275.2L206.1,275.2z"/>
	<path id="elnymw267wcy" class="st1" d="M131,175.1c-0.1,0-0.3-0.1-0.4-0.1c0,0-0.1-0.1-0.1-0.2c0-0.1,0-0.1,0-0.2
		c0-0.1,0-0.1,0-0.2c0-0.1,0.1-0.1,0.1-0.2c0.1-0.1,0.4-0.2,0.5-0.1c0.1,0,0.1,0.1,0.2,0.1c0.1,0.1,0.2,0.2,0.1,0.4
		c0,0.1,0,0.1,0,0.2c0,0.1-0.1,0.1-0.1,0.2C131.3,175,131.1,175.1,131,175.1z"/>
	<path id="elgff8d6e1lpp" class="st1" d="M130.5,196.6c0-0.3,0.2-0.5,0.5-0.5l0,0c0.3,0,0.5,0.2,0.5,0.5l0,0c0,0.3-0.2,0.5-0.5,0.5
		l0,0C130.7,197.1,130.5,196.9,130.5,196.6z M130.5,191.1c0-0.3,0.2-0.5,0.5-0.5l0,0c0.3,0,0.5,0.2,0.5,0.5l0,0
		c0,0.3-0.2,0.5-0.5,0.5l0,0C130.7,191.6,130.5,191.4,130.5,191.1L130.5,191.1z M130.5,185.6c0-0.3,0.2-0.5,0.5-0.5l0,0
		c0.3,0,0.5,0.2,0.5,0.5l0,0c0,0.3-0.2,0.5-0.5,0.5l0,0C130.7,186.1,130.5,185.9,130.5,185.6L130.5,185.6z M130.5,180.1
		c0-0.3,0.2-0.5,0.5-0.5l0,0c0.3,0,0.5,0.2,0.5,0.5l0,0c0,0.3-0.2,0.5-0.5,0.5l0,0C130.7,180.6,130.5,180.3,130.5,180.1L130.5,180.1
		z"/>
	<path id="elljf4wrf68c" class="st1" d="M131,202.6c-0.1,0-0.1,0-0.2,0c-0.1-0.1-0.2-0.1-0.3-0.3c0-0.1,0-0.1,0-0.2
		c0-0.1,0-0.1,0-0.2c0-0.1,0.1-0.1,0.1-0.2c0,0,0.1-0.1,0.2-0.1c0.1-0.1,0.3-0.1,0.4,0c0.1,0,0.1,0.1,0.2,0.1c0.1,0,0.1,0.1,0.1,0.2
		c0,0.1,0,0.1,0,0.2c0,0.1-0.1,0.3-0.1,0.4c0,0.1-0.1,0.1-0.2,0.1C131.1,202.6,131,202.6,131,202.6z"/>
	<path id="el526huxmq1f" class="st1" d="M222.2,202.1c0-0.3,0.2-0.5,0.5-0.5l0,0c0.3,0,0.5,0.2,0.5,0.5l0,0c0,0.3-0.2,0.5-0.5,0.5
		c0,0,0,0,0,0l0,0C222.4,202.6,222.2,202.4,222.2,202.1C222.2,202.1,222.2,202.1,222.2,202.1z M216.1,202.1c0-0.3,0.2-0.5,0.5-0.5
		l0,0c0.3,0,0.5,0.2,0.5,0.5l0,0c0,0.3-0.2,0.5-0.5,0.5c0,0,0,0,0,0l0,0C216.3,202.6,216.1,202.4,216.1,202.1z M209.9,202.1
		c0-0.3,0.2-0.5,0.5-0.5l0,0c0.3,0,0.5,0.2,0.5,0.5l0,0c0,0.3-0.2,0.5-0.5,0.5l0,0C210.2,202.6,210,202.4,209.9,202.1L209.9,202.1z
		 M203.8,202.1c0-0.3,0.2-0.5,0.5-0.5l0,0c0.3,0,0.5,0.2,0.5,0.5l0,0c0,0.3-0.2,0.5-0.5,0.5l0,0
		C204.1,202.6,203.8,202.4,203.8,202.1z M197.7,202.1c0-0.3,0.2-0.5,0.5-0.5l0,0c0.3,0,0.5,0.2,0.5,0.5l0,0c0,0.3-0.2,0.5-0.5,0.5
		l0,0C197.9,202.6,197.7,202.4,197.7,202.1z M191.6,202.1c0-0.3,0.2-0.5,0.5-0.5l0,0c0.3,0,0.5,0.2,0.5,0.5l0,0
		c0,0.3-0.2,0.5-0.5,0.5l0,0C191.8,202.6,191.6,202.4,191.6,202.1z M185.5,202.1c0-0.3,0.2-0.5,0.5-0.5l0,0c0.3,0,0.5,0.2,0.5,0.5
		l0,0c0,0.3-0.2,0.5-0.5,0.5l0,0C185.7,202.6,185.5,202.4,185.5,202.1z M179.4,202.1c0-0.3,0.2-0.5,0.5-0.5l0,0
		c0.3,0,0.5,0.2,0.5,0.5l0,0c0,0.3-0.2,0.5-0.5,0.5l0,0C179.6,202.6,179.4,202.4,179.4,202.1z M173.3,202.1c0-0.3,0.2-0.5,0.5-0.5
		l0,0c0.3,0,0.5,0.2,0.5,0.5l0,0c0,0.3-0.2,0.5-0.5,0.5l0,0C173.5,202.6,173.3,202.4,173.3,202.1z M167.2,202.1
		c0-0.3,0.2-0.5,0.5-0.5l0,0c0.3,0,0.5,0.2,0.5,0.5l0,0c0,0.3-0.2,0.5-0.5,0.5l0,0C167.4,202.6,167.2,202.4,167.2,202.1z
		 M161.1,202.1c0-0.3,0.2-0.5,0.5-0.5l0,0c0.3,0,0.5,0.2,0.5,0.5l0,0c0,0.3-0.2,0.5-0.5,0.5c0,0,0,0,0,0l0,0
		C161.3,202.6,161.1,202.4,161.1,202.1z M154.9,202.1c0-0.3,0.2-0.5,0.5-0.5l0,0c0.3,0,0.5,0.2,0.5,0.5l0,0c0,0.3-0.2,0.5-0.5,0.5
		c0,0,0,0,0,0l0,0C155.2,202.6,155,202.4,154.9,202.1L154.9,202.1z M148.8,202.1c0-0.3,0.2-0.5,0.5-0.5l0,0c0.3,0,0.5,0.2,0.5,0.5
		l0,0c0,0.3-0.2,0.5-0.5,0.5l0,0C149.1,202.6,148.8,202.4,148.8,202.1z M142.7,202.1c0-0.3,0.2-0.5,0.5-0.5l0,0
		c0.3,0,0.5,0.2,0.5,0.5l0,0c0,0.3-0.2,0.5-0.5,0.5l0,0C142.9,202.6,142.7,202.4,142.7,202.1z M136.6,202.1c0-0.3,0.2-0.5,0.5-0.5
		l0,0c0.3,0,0.5,0.2,0.5,0.5l0,0c0,0.3-0.2,0.5-0.5,0.5l0,0C136.8,202.6,136.6,202.4,136.6,202.1z"/>
	<path id="elo77mhqo2pue" class="st1" d="M228.8,202.6c-0.1,0-0.1,0-0.2,0c-0.1,0-0.1-0.1-0.2-0.1c0,0-0.1-0.1-0.1-0.2
		c0-0.1,0-0.1,0-0.2c0-0.1,0.1-0.3,0.1-0.4c0,0,0.1-0.1,0.2-0.1c0.1-0.1,0.3-0.1,0.4,0c0.1,0,0.1,0.1,0.2,0.1
		c0.1,0.1,0.1,0.2,0.1,0.4c0,0.1-0.1,0.3-0.1,0.4c0,0.1-0.1,0.1-0.2,0.1C228.9,202.6,228.9,202.6,228.8,202.6z"/>
	<path id="ele0ooaprffx" class="st1" d="M228.3,196.2c0-0.3,0.2-0.5,0.5-0.5l0,0c0.3,0,0.5,0.2,0.5,0.5l0,0c0,0.3-0.2,0.5-0.5,0.5
		l0,0C228.5,196.7,228.3,196.4,228.3,196.2z M228.3,190.2c0-0.3,0.2-0.5,0.5-0.5l0,0c0.3,0,0.5,0.2,0.5,0.5l0,0
		c0,0.3-0.2,0.5-0.5,0.5l0,0C228.5,190.7,228.3,190.5,228.3,190.2L228.3,190.2z M228.3,184.2c0-0.3,0.2-0.5,0.5-0.5l0,0
		c0.3,0,0.5,0.2,0.5,0.5l0,0c0,0.3-0.2,0.5-0.5,0.5l0,0C228.5,184.7,228.3,184.5,228.3,184.2L228.3,184.2z M228.3,178.2
		c0-0.3,0.2-0.5,0.5-0.5l0,0c0.3,0,0.5,0.2,0.5,0.5l0,0c0,0.3-0.2,0.5-0.5,0.5l0,0c-0.2,0-0.4-0.1-0.5-0.4V178.2z M228.3,172.2
		c0-0.3,0.2-0.5,0.5-0.5l0,0c0.3,0,0.5,0.2,0.5,0.5l0,0c0,0.3-0.2,0.5-0.5,0.5l0,0c-0.2,0-0.4-0.1-0.5-0.3V172.2z M228.3,166.2
		c0-0.3,0.2-0.5,0.5-0.5l0,0c0.3,0,0.5,0.2,0.5,0.5l0,0c0,0.3-0.2,0.5-0.5,0.5l0,0c-0.2,0-0.4-0.1-0.5-0.3V166.2z M228.3,160.2
		c0-0.3,0.2-0.5,0.5-0.5l0,0c0.3,0,0.5,0.2,0.5,0.5l0,0c0,0.3-0.2,0.5-0.5,0.5l0,0c-0.2,0-0.4-0.1-0.5-0.2V160.2z M228.3,154.2
		c0-0.3,0.2-0.5,0.5-0.5l0,0c0.3,0,0.5,0.2,0.5,0.5l0,0c0,0.3-0.2,0.5-0.5,0.5l0,0c-0.2,0-0.4-0.1-0.5-0.2V154.2z M228.3,148.2
		c0-0.3,0.2-0.5,0.5-0.5l0,0c0.3,0,0.5,0.2,0.5,0.5l0,0c0,0.3-0.2,0.5-0.5,0.5l0,0c-0.2,0-0.4,0-0.5-0.2V148.2z"/>
	<path id="elzt6mobak0e" class="st1" d="M228.8,143.1c-0.1,0-0.1,0-0.2,0l-0.2-0.1c0,0-0.1-0.1-0.1-0.2c0-0.1,0-0.1,0-0.2
		c0-0.1,0-0.1,0-0.2c0-0.1,0.1-0.1,0.1-0.2l0.2-0.1c0.1-0.1,0.3-0.1,0.4,0c0.1,0,0.1,0.1,0.2,0.1c0.1,0.1,0.1,0.2,0.1,0.4
		C229.3,142.9,229.1,143.1,228.8,143.1L228.8,143.1z"/>
	<path id="elc33fqxwa6rr" class="st1" d="M366,142.6c0-0.3,0.2-0.5,0.5-0.5c0,0,0,0,0,0l0,0c0.3,0,0.5,0.2,0.5,0.5l0,0
		c0,0.3-0.2,0.5-0.5,0.5l0,0C366.2,143.1,366,142.8,366,142.6z M360,142.6c0-0.3,0.2-0.5,0.5-0.5c0,0,0,0,0,0l0,0
		c0.3,0,0.5,0.2,0.5,0.5c0,0,0,0,0,0l0,0c0,0.3-0.2,0.5-0.5,0.5l0,0C360.2,143.1,360,142.8,360,142.6z M354,142.6
		c0-0.3,0.2-0.5,0.5-0.5l0,0c0.3,0,0.5,0.2,0.5,0.5c0,0,0,0,0,0l0,0c0,0.3-0.2,0.5-0.5,0.5l0,0C354.2,143.1,354,142.8,354,142.6z
		 M348,142.6c0-0.3,0.2-0.5,0.5-0.5c0,0,0,0,0,0l0,0c0.3,0,0.5,0.2,0.5,0.5c0,0,0,0,0,0l0,0c0,0.3-0.2,0.5-0.5,0.5l0,0
		C348.2,143.1,348,142.8,348,142.6z M342,142.6c0-0.3,0.2-0.5,0.5-0.5c0,0,0,0,0,0l0,0c0.3,0,0.5,0.2,0.5,0.5l0,0
		c0,0.3-0.2,0.5-0.5,0.5l0,0C342.2,143.1,342,142.8,342,142.6z M336,142.6c0-0.3,0.2-0.5,0.5-0.5c0,0,0,0,0,0l0,0
		c0.3,0,0.5,0.2,0.5,0.5c0,0,0,0,0,0l0,0c0,0.3-0.2,0.5-0.5,0.5l0,0C336.2,143,336,142.8,336,142.6L336,142.6z M330,142.6
		c0-0.3,0.2-0.5,0.5-0.5l0,0c0.3,0,0.5,0.2,0.5,0.5c0,0,0,0,0,0l0,0c0,0.3-0.2,0.5-0.5,0.5l0,0C330.2,143,330.1,142.8,330,142.6
		L330,142.6z M324,142.6c0-0.3,0.2-0.5,0.5-0.5c0,0,0,0,0,0l0,0c0.3,0,0.5,0.2,0.5,0.5l0,0c0,0.3-0.2,0.5-0.5,0.5l0,0
		C324.3,143,324.1,142.8,324,142.6L324,142.6z M318,142.6c0-0.3,0.2-0.5,0.5-0.5c0,0,0,0,0,0l0,0c0.3,0,0.5,0.2,0.5,0.5l0,0
		c0,0.3-0.2,0.5-0.5,0.5l0,0C318.3,143,318.1,142.8,318,142.6L318,142.6z M312,142.6c0-0.3,0.2-0.5,0.5-0.5l0,0
		c0.3,0,0.5,0.2,0.5,0.5c0,0,0,0,0,0l0,0c0,0.3-0.2,0.5-0.5,0.5l0,0c-0.2-0.1-0.4-0.3-0.4-0.5H312z M306,142.6
		c0-0.3,0.2-0.5,0.5-0.5l0,0l0,0c0.3,0,0.5,0.2,0.5,0.5c0,0,0,0,0,0l0,0c0,0.3-0.2,0.5-0.5,0.5l0,0c-0.2-0.1-0.4-0.3-0.4-0.5H306z
		 M300,142.6c0-0.3,0.2-0.5,0.5-0.5c0,0,0,0,0,0l0,0c0.3,0,0.5,0.2,0.5,0.5l0,0c0,0.3-0.2,0.5-0.5,0.5l0,0c-0.2-0.1-0.4-0.3-0.4-0.5
		H300z M294,142.6c0-0.3,0.2-0.5,0.5-0.5c0,0,0,0,0,0l0,0c0.3,0,0.5,0.2,0.5,0.5c0,0,0,0,0,0l0,0c0,0.3-0.2,0.5-0.5,0.5l0,0
		c-0.2-0.1-0.4-0.3-0.4-0.5H294z M288,142.6c0-0.3,0.2-0.5,0.5-0.5l0,0c0.3,0,0.5,0.2,0.5,0.5c0,0,0,0,0,0l0,0
		c0,0.3-0.2,0.5-0.5,0.5l0,0c-0.2-0.1-0.4-0.3-0.4-0.5H288z M282,142.6c0-0.3,0.2-0.5,0.5-0.5l0,0c0.3,0,0.5,0.2,0.5,0.5l0,0l0,0
		c0,0.3-0.2,0.5-0.5,0.5l0,0c-0.2-0.1-0.3-0.3-0.3-0.5H282z M276,142.6c0-0.3,0.2-0.5,0.5-0.5c0,0,0,0,0,0l0,0
		c0.3,0,0.5,0.2,0.5,0.5l0,0c0,0.3-0.2,0.5-0.5,0.5l0,0c-0.2-0.1-0.3-0.3-0.3-0.5H276z M270,142.6c0-0.3,0.2-0.5,0.5-0.5
		c0,0,0,0,0,0l0,0c0.3,0,0.5,0.2,0.5,0.5l0,0c0,0.3-0.2,0.5-0.5,0.5l0,0c-0.2-0.1-0.3-0.3-0.3-0.5H270z M264,142.6
		c0-0.3,0.2-0.5,0.5-0.5l0,0c0.3,0,0.5,0.2,0.5,0.5c0,0,0,0,0,0l0,0c0,0.3-0.2,0.5-0.5,0.5l0,0c-0.2-0.1-0.3-0.3-0.3-0.5H264z
		 M258,142.6c0-0.3,0.2-0.5,0.5-0.5c0,0,0,0,0,0l0,0c0.3,0,0.5,0.2,0.5,0.5c0,0,0,0,0,0l0,0c0,0.3-0.2,0.5-0.5,0.5l0,0
		c-0.2-0.1-0.3-0.3-0.3-0.5H258z M252,142.6c0-0.3,0.2-0.5,0.5-0.5c0,0,0,0,0,0l0,0c0.3,0,0.5,0.2,0.5,0.5l0,0
		c0,0.3-0.2,0.5-0.5,0.5l0,0c-0.2-0.1-0.3-0.3-0.3-0.5H252z M246,142.6c0-0.3,0.2-0.5,0.5-0.5c0,0,0,0,0,0l0,0
		c0.3,0,0.5,0.2,0.5,0.5c0,0,0,0,0,0l0,0c0,0.3-0.2,0.5-0.5,0.5l0,0c-0.2-0.1-0.3-0.3-0.3-0.5H246z M240,142.6
		c0-0.3,0.2-0.5,0.5-0.5l0,0c0.3,0,0.5,0.2,0.5,0.5c0,0,0,0,0,0l0,0c0,0.3-0.2,0.5-0.5,0.5l0,0c-0.2-0.1-0.3-0.3-0.3-0.5H240z
		 M234,142.6c0-0.3,0.2-0.5,0.5-0.5c0,0,0,0,0,0l0,0c0.3,0,0.5,0.2,0.5,0.5l0,0c0,0.3-0.2,0.5-0.5,0.5l0,0c-0.2-0.1-0.3-0.3-0.2-0.5
		H234z"/>
	<path id="elk3hfytqlex" class="st1" d="M372.5,143.1c-0.3,0-0.5-0.2-0.5-0.5c0-0.1,0.1-0.3,0.1-0.4c0,0,0.1-0.1,0.2-0.1
		c0.2-0.1,0.4,0,0.5,0.1c0,0.1,0.1,0.1,0.1,0.2c0,0.1,0,0.1,0,0.2c0,0.1,0,0.3-0.1,0.4C372.7,143,372.6,143,372.5,143.1z"/>
	<path id="elicdmkastand" class="st1" d="M372,136.8c0-0.3,0.2-0.5,0.5-0.5l0,0c0.3,0,0.5,0.2,0.5,0.5c0,0,0,0,0,0l0,0
		c0,0.3-0.2,0.5-0.5,0.5c0,0,0,0,0,0l0,0C372.2,137.3,372,137.1,372,136.8z M372,131c0-0.3,0.2-0.5,0.5-0.5l0,0
		c0.3,0,0.5,0.2,0.5,0.5l0,0c0,0.3-0.2,0.5-0.5,0.5l0,0l0,0C372.2,131.5,372,131.3,372,131C372,131,372,131,372,131L372,131z
		 M372,125.2c0-0.3,0.2-0.5,0.5-0.5l0,0c0.3,0,0.5,0.2,0.5,0.5l0,0c0,0.3-0.2,0.5-0.5,0.5c0,0,0,0,0,0l0,0
		C372.2,125.7,372,125.5,372,125.2z M372,119.5c0-0.3,0.2-0.5,0.5-0.5l0,0c0.3,0,0.5,0.2,0.5,0.5l0,0c0,0.3-0.2,0.5-0.5,0.5
		c0,0,0,0,0,0l0,0C372.2,120,372,119.7,372,119.5z M372,113.7c0-0.3,0.2-0.5,0.5-0.5l0,0c0.3,0,0.5,0.2,0.5,0.5l0,0
		c0,0.3-0.2,0.5-0.5,0.5c0,0,0,0,0,0l0,0C372.2,114.2,372,114,372,113.7C372,113.7,372,113.7,372,113.7z M372,107.9
		c0-0.3,0.2-0.5,0.5-0.5l0,0c0.3,0,0.5,0.2,0.5,0.5l0,0c0,0.3-0.2,0.5-0.5,0.5c0,0,0,0,0,0l0,0C372.2,108.4,372,108.2,372,107.9
		C372,107.9,372,107.9,372,107.9z"/>
	<path id="elrpbwl0zjg59" class="st1" d="M372.5,102.7c-0.1,0-0.3-0.1-0.4-0.2c-0.1-0.1-0.1-0.2-0.1-0.3c0-0.1,0-0.1,0-0.2
		c0-0.1,0.1-0.1,0.1-0.2c0.2-0.2,0.5-0.2,0.7,0c0.1,0.1,0.1,0.2,0.1,0.3c0,0.1,0,0.1,0,0.2c0,0.1-0.1,0.1-0.1,0.2
		c0,0-0.1,0.1-0.2,0.1C372.6,102.6,372.5,102.7,372.5,102.7z"/>
	<path id="elauzhq1axj0c" class="st1" d="M165.8,290.8c-0.1,0-0.3,0-0.4-0.1c0,0-0.1-0.1-0.1-0.2c0-0.1,0-0.1,0-0.2
		c0-0.1,0.1-0.3,0.1-0.4c0.1-0.1,0.4-0.2,0.6-0.1c0.1,0,0.1,0.1,0.2,0.1c0.1,0.1,0.1,0.2,0.1,0.4c0,0.1,0,0.1,0,0.2
		c0,0.1-0.1,0.1-0.1,0.2c0,0-0.1,0.1-0.2,0.1C166,290.8,165.9,290.8,165.8,290.8z"/>
	<path id="eltkotcv16ro8" class="st1" d="M165.3,314.9c0-0.3,0.2-0.5,0.5-0.5l0,0c0.3,0,0.5,0.2,0.5,0.5c0,0,0,0,0,0l0,0
		c0,0.3-0.2,0.5-0.5,0.5l0,0C165.5,315.4,165.3,315.1,165.3,314.9z M165.3,308.7c0-0.3,0.2-0.5,0.5-0.5l0,0c0.3,0,0.5,0.2,0.5,0.5
		l0,0c0,0.3-0.2,0.5-0.5,0.5c0,0,0,0,0,0l0,0C165.5,309.2,165.3,309,165.3,308.7L165.3,308.7z M165.3,302.6c0-0.3,0.2-0.5,0.5-0.5
		l0,0c0.3,0,0.5,0.2,0.5,0.5l0,0c0,0.3-0.2,0.5-0.5,0.5l0,0C165.5,303.1,165.3,302.9,165.3,302.6L165.3,302.6z M165.3,296.5
		c0-0.3,0.2-0.5,0.5-0.5l0,0c0.3,0,0.5,0.2,0.5,0.5c0,0,0,0,0,0l0,0c0,0.3-0.2,0.5-0.5,0.5l0,0C165.5,297,165.3,296.7,165.3,296.5
		L165.3,296.5z"/>
	<path id="elqq63gfhfg4" class="st1" d="M165.8,321.5c-0.1,0-0.3-0.1-0.4-0.1c0,0-0.1-0.1-0.1-0.2c0-0.1,0-0.1,0-0.2
		c0-0.1,0-0.1,0-0.2c0-0.1,0.1-0.1,0.1-0.2c0.1-0.1,0.4-0.2,0.6-0.1c0.1,0,0.1,0.1,0.2,0.1c0,0,0.1,0.1,0.1,0.2c0,0.1,0,0.1,0,0.2
		c0,0.1,0,0.1,0,0.2c0,0.1-0.1,0.1-0.1,0.2c0,0-0.1,0.1-0.2,0.1C165.9,321.5,165.9,321.5,165.8,321.5z"/>
	<path id="el77aqwclyuq" class="st1" d="M222.6,321c0-0.3,0.2-0.5,0.5-0.5l0,0c0.3,0,0.5,0.2,0.5,0.5l0,0c0,0.3-0.2,0.5-0.5,0.5l0,0
		C222.8,321.5,222.6,321.3,222.6,321z M216.8,321c0-0.3,0.2-0.5,0.5-0.5l0,0c0.3,0,0.5,0.2,0.5,0.5l0,0c0,0.3-0.2,0.5-0.5,0.5l0,0
		C217.1,321.5,216.8,321.3,216.8,321z M211.1,321c0-0.3,0.2-0.5,0.5-0.5l0,0c0.3,0,0.5,0.2,0.5,0.5l0,0c0,0.3-0.2,0.5-0.5,0.5l0,0
		C211.3,321.5,211.1,321.3,211.1,321z M205.4,321c0-0.3,0.2-0.5,0.5-0.5l0,0c0.3,0,0.5,0.2,0.5,0.5l0,0c0,0.3-0.2,0.5-0.5,0.5l0,0
		C205.6,321.5,205.4,321.3,205.4,321z M199.7,321c0-0.3,0.2-0.5,0.5-0.5l0,0c0.3,0,0.5,0.2,0.5,0.5l0,0c0,0.3-0.2,0.5-0.5,0.5l0,0
		C199.9,321.5,199.7,321.3,199.7,321C199.6,321,199.6,321,199.7,321L199.7,321z M193.9,321c0-0.3,0.2-0.5,0.5-0.5c0,0,0,0,0,0l0,0
		c0.3,0,0.5,0.2,0.5,0.5c0,0,0,0,0,0l0,0c0,0.3-0.2,0.5-0.5,0.5c0,0,0,0,0,0l0,0C194.2,321.5,193.9,321.3,193.9,321
		C193.9,321,193.9,321,193.9,321L193.9,321z M188.2,321c0-0.3,0.2-0.5,0.5-0.5l0,0c0.3,0,0.5,0.2,0.5,0.5l0,0c0,0.3-0.2,0.5-0.5,0.5
		l0,0C188.4,321.5,188.2,321.3,188.2,321C188.2,321,188.2,321,188.2,321L188.2,321z M182.5,321c0-0.3,0.2-0.5,0.5-0.5l0,0
		c0.3,0,0.5,0.2,0.5,0.5l0,0c0,0.3-0.2,0.5-0.5,0.5l0,0C182.7,321.5,182.5,321.3,182.5,321C182.5,321,182.5,321,182.5,321L182.5,321
		z M176.8,321c0-0.3,0.2-0.5,0.5-0.5l0,0c0.3,0,0.5,0.2,0.5,0.5l0,0c0,0.3-0.2,0.5-0.5,0.5l0,0C177,321.5,176.8,321.3,176.8,321
		C176.8,321,176.8,321,176.8,321L176.8,321z M171,321c0-0.3,0.2-0.5,0.5-0.5l0,0c0.3,0,0.5,0.2,0.5,0.5l0,0c0,0.3-0.2,0.5-0.5,0.5
		l0,0C171.2,321.5,171,321.3,171,321z"/>
	<path id="elpsnpw4riiz" class="st1" d="M228.8,321.5c-0.1,0-0.1,0-0.2,0c-0.1,0-0.1-0.1-0.2-0.1c0,0-0.1-0.1-0.1-0.2
		c0-0.1,0-0.1,0-0.2c0-0.1,0-0.3,0.1-0.4c0,0,0.1-0.1,0.2-0.1c0.1-0.1,0.3-0.1,0.4,0c0.1,0,0.1,0.1,0.2,0.1c0.1,0.1,0.1,0.2,0.1,0.4
		c0,0.1,0,0.1,0,0.2c0,0.1-0.1,0.1-0.1,0.2c0,0.1-0.1,0.1-0.2,0.1C229,321.5,228.9,321.5,228.8,321.5z"/>
	<path id="elz2d7c28y1" class="st1" d="M228.3,315.2c0-0.3,0.2-0.5,0.5-0.5l0,0c0.3,0,0.5,0.2,0.5,0.5l0,0c0,0.3-0.2,0.5-0.5,0.5
		l0,0C228.5,315.7,228.3,315.5,228.3,315.2z M228.3,309.4c0-0.3,0.2-0.5,0.5-0.5c0,0,0,0,0,0l0,0c0.3,0,0.5,0.2,0.5,0.5l0,0
		c0,0.3-0.2,0.5-0.5,0.5l0,0C228.5,309.9,228.3,309.6,228.3,309.4z M228.3,303.5c0-0.3,0.2-0.5,0.5-0.5l0,0c0.3,0,0.5,0.2,0.5,0.5
		l0,0c0,0.3-0.2,0.5-0.5,0.5l0,0C228.5,304,228.3,303.8,228.3,303.5z M228.3,297.7c0-0.3,0.2-0.5,0.5-0.5l0,0c0.3,0,0.5,0.2,0.5,0.5
		l0,0c0,0.3-0.2,0.5-0.5,0.5l0,0C228.5,298.2,228.3,298,228.3,297.7z M228.3,291.9c0-0.3,0.2-0.5,0.5-0.5l0,0c0.3,0,0.5,0.2,0.5,0.5
		l0,0c0,0.3-0.2,0.5-0.5,0.5l0,0C228.5,292.4,228.3,292.2,228.3,291.9L228.3,291.9z M228.3,286.1c0-0.3,0.2-0.5,0.5-0.5l0,0
		c0.3,0,0.5,0.2,0.5,0.5l0,0c0,0.3-0.2,0.5-0.5,0.5l0,0C228.5,286.6,228.3,286.3,228.3,286.1L228.3,286.1z M228.3,280.2
		c0-0.3,0.2-0.5,0.5-0.5l0,0c0.3,0,0.5,0.2,0.5,0.5l0,0c0,0.3-0.2,0.5-0.5,0.5l0,0C228.5,280.7,228.3,280.5,228.3,280.2L228.3,280.2
		z M228.3,274.4c0-0.3,0.2-0.5,0.5-0.5l0,0c0.3,0,0.5,0.2,0.5,0.5l0,0c0,0.3-0.2,0.5-0.5,0.5l0,0
		C228.5,274.9,228.3,274.7,228.3,274.4L228.3,274.4z M228.3,268.6c0-0.3,0.2-0.5,0.5-0.5l0,0c0.3,0,0.5,0.2,0.5,0.5l0,0
		c0,0.3-0.2,0.5-0.5,0.5l0,0C228.5,269.1,228.3,268.9,228.3,268.6L228.3,268.6z M228.3,262.8c0-0.3,0.2-0.5,0.5-0.5l0,0
		c0.3,0,0.5,0.2,0.5,0.5l0,0c0,0.3-0.2,0.5-0.5,0.5l0,0C228.5,263.3,228.3,263.1,228.3,262.8L228.3,262.8z M228.3,257
		c0-0.3,0.2-0.5,0.5-0.5l0,0c0.3,0,0.5,0.2,0.5,0.5l0,0c0,0.3-0.2,0.5-0.5,0.5l0,0C228.5,257.5,228.3,257.3,228.3,257L228.3,257z
		 M228.3,251.1c0-0.3,0.2-0.5,0.5-0.5l0,0c0.3,0,0.5,0.2,0.5,0.5l0,0c0,0.3-0.2,0.5-0.5,0.5l0,0
		C228.5,251.6,228.3,251.4,228.3,251.1L228.3,251.1z M228.3,245.3c0-0.3,0.2-0.5,0.5-0.5l0,0c0.3,0,0.5,0.2,0.5,0.5l0,0
		c0,0.3-0.2,0.5-0.5,0.5l0,0C228.5,245.8,228.3,245.6,228.3,245.3L228.3,245.3z M228.3,239.5c0-0.3,0.2-0.5,0.5-0.5l0,0
		c0.3,0,0.5,0.2,0.5,0.5l0,0c0,0.3-0.2,0.5-0.5,0.5l0,0C228.5,240,228.3,239.8,228.3,239.5L228.3,239.5z"/>
	<path id="elx2w93fk1o9i" class="st1" d="M228.8,234.2c-0.1,0-0.1,0-0.2,0c-0.1,0-0.1-0.1-0.2-0.1c0,0-0.1-0.1-0.1-0.2
		c0-0.1,0-0.1,0-0.2c0-0.1,0-0.3,0.1-0.4c0.1,0,0.1-0.1,0.2-0.1c0.1-0.1,0.3-0.1,0.4,0c0.1,0,0.1,0.1,0.2,0.1
		c0.1,0.1,0.1,0.2,0.1,0.4c0,0.1,0,0.1,0,0.2c0,0.1-0.1,0.1-0.1,0.2C229.1,234.2,229,234.2,228.8,234.2L228.8,234.2z"/>
	<path id="elo1yojqdl2t" class="st1" d="M306.9,233.7c0-0.3,0.2-0.5,0.5-0.5l0,0c0.3,0,0.5,0.2,0.5,0.5l0,0c0,0.3-0.2,0.5-0.5,0.5
		l0,0C307.1,234.2,306.9,233.9,306.9,233.7z M300.9,233.7c0-0.3,0.2-0.5,0.5-0.5l0,0c0.3,0,0.5,0.2,0.5,0.5c0,0,0,0,0,0l0,0
		c0,0.3-0.2,0.5-0.5,0.5l0,0C301.1,234.2,300.9,233.9,300.9,233.7L300.9,233.7z M294.8,233.7c0-0.3,0.2-0.5,0.5-0.5l0,0
		c0.3,0,0.5,0.2,0.5,0.5l0,0c0,0.3-0.2,0.5-0.5,0.5l0,0C295,234.2,294.8,233.9,294.8,233.7L294.8,233.7z M288.8,233.7
		c0-0.3,0.2-0.5,0.5-0.5c0,0,0,0,0,0l0,0c0.3,0,0.5,0.2,0.5,0.5l0,0c0,0.3-0.2,0.5-0.5,0.5l0,0C289,234.2,288.8,234,288.8,233.7
		C288.8,233.7,288.8,233.7,288.8,233.7L288.8,233.7z M282.8,233.7c0-0.3,0.2-0.5,0.5-0.5l0,0c0.3,0,0.5,0.2,0.5,0.5l0,0
		c0,0.3-0.2,0.5-0.5,0.5l0,0C283,234.2,282.8,234,282.8,233.7C282.7,233.7,282.7,233.7,282.8,233.7L282.8,233.7z M276.8,233.7
		c0-0.3,0.2-0.5,0.5-0.5l0,0c0.3,0,0.5,0.2,0.5,0.5l0,0c0,0.3-0.2,0.5-0.5,0.5l0,0C277,234.2,276.7,234,276.8,233.7
		C276.7,233.7,276.7,233.7,276.8,233.7L276.8,233.7z M270.7,233.7c0-0.3,0.2-0.5,0.5-0.5l0,0c0.3,0,0.5,0.2,0.5,0.5l0,0
		c0,0.3-0.2,0.5-0.5,0.5l0,0C270.9,234.2,270.7,234,270.7,233.7C270.6,233.7,270.6,233.7,270.7,233.7L270.7,233.7z M264.7,233.7
		c0-0.3,0.2-0.5,0.5-0.5l0,0c0.3,0,0.5,0.2,0.5,0.5l0,0c0,0.3-0.2,0.5-0.5,0.5l0,0C264.9,234.2,264.6,234,264.7,233.7
		C264.6,233.7,264.6,233.7,264.7,233.7L264.7,233.7z M258.6,233.7c0-0.3,0.2-0.5,0.5-0.5l0,0c0.3,0,0.5,0.2,0.5,0.5l0,0
		c0,0.3-0.2,0.5-0.5,0.5l0,0C258.8,234.2,258.6,234,258.6,233.7C258.5,233.7,258.5,233.7,258.6,233.7L258.6,233.7z M252.6,233.7
		c0-0.3,0.2-0.5,0.5-0.5l0,0c0.3,0,0.5,0.2,0.5,0.5l0,0c0,0.3-0.2,0.5-0.5,0.5l0,0c-0.3,0.1-0.6-0.1-0.6-0.4c0,0,0-0.1,0-0.1H252.6z
		 M246.6,233.7c0-0.3,0.2-0.5,0.5-0.5l0,0c0.3,0,0.5,0.2,0.5,0.5l0,0c0,0.3-0.2,0.5-0.5,0.5l0,0c-0.3,0.1-0.6-0.1-0.6-0.4
		c0,0,0-0.1,0-0.1H246.6z M240.6,233.7c0-0.3,0.2-0.5,0.5-0.5l0,0c0.3,0,0.5,0.2,0.5,0.5l0,0c0,0.3-0.2,0.5-0.5,0.5l0,0
		c-0.3,0.1-0.5,0-0.6-0.3c0-0.1,0-0.1,0-0.2H240.6z M234.6,233.7c0-0.3,0.2-0.5,0.5-0.5l0,0c0.3,0,0.5,0.2,0.5,0.5l0,0
		c0,0.3-0.2,0.5-0.5,0.5l0,0c-0.2,0.1-0.5,0-0.7-0.2c0-0.1-0.1-0.2-0.1-0.3H234.6z"/>
	<path id="elo4d7i0x0edm" class="st1" d="M313.5,234.2c-0.1,0-0.3-0.1-0.4-0.1c0,0-0.1-0.1-0.1-0.2c0-0.1,0-0.1,0-0.2
		c0-0.1,0-0.1,0-0.2c0-0.1,0.1-0.1,0.1-0.2c0,0,0.1-0.1,0.2-0.1c0.1-0.1,0.3-0.1,0.4,0c0.1,0,0.1,0.1,0.2,0.1c0,0,0.1,0.1,0.1,0.2
		c0,0.1,0,0.1,0,0.2c0,0.1,0,0.3-0.1,0.4C313.7,234.1,313.6,234.2,313.5,234.2z"/>
	<path id="elxrqi9ikizf" class="st1" d="M313,227.4c0-0.3,0.2-0.5,0.5-0.5l0,0c0.3,0,0.5,0.2,0.5,0.5l0,0c0,0.3-0.2,0.5-0.5,0.5l0,0
		C313.2,227.9,313,227.6,313,227.4z M313,221.1c0-0.3,0.2-0.5,0.5-0.5l0,0c0.3,0,0.5,0.2,0.5,0.5l0,0c0,0.3-0.2,0.5-0.5,0.5
		c0,0,0,0,0,0l0,0C313.2,221.5,313,221.3,313,221.1z M313,214.7c0-0.3,0.2-0.5,0.5-0.5l0,0c0.3,0,0.5,0.2,0.5,0.5l0,0
		c0,0.3-0.2,0.5-0.5,0.5l0,0C313.2,215.2,313,215,313,214.7z M313,208.4c0-0.3,0.2-0.5,0.5-0.5l0,0c0.3,0,0.5,0.2,0.5,0.5l0,0
		c0,0.3-0.2,0.5-0.5,0.5l0,0C313.2,208.9,313,208.7,313,208.4z"/>
	<path id="el2m82sctac9u" class="st1" d="M313.5,202.6c-0.1,0-0.3,0-0.4-0.1c0-0.1-0.1-0.1-0.1-0.2c0-0.1,0-0.1,0-0.2
		c0-0.1,0-0.1,0-0.2c0.1-0.1,0.1-0.2,0.3-0.3c0.2-0.1,0.4,0,0.5,0.1c0.1,0.1,0.1,0.2,0.1,0.4C314,202.4,313.8,202.6,313.5,202.6
		C313.5,202.6,313.5,202.6,313.5,202.6z"/>
	<path id="el02ns2d7mbkjr" class="st1" d="M372.5,313.2c-0.1,0-0.3-0.1-0.4-0.1c-0.1-0.1-0.1-0.2-0.1-0.4c0-0.1,0.1-0.3,0.1-0.4
		c0.1-0.1,0.4-0.2,0.5-0.1c0.1,0,0.1,0.1,0.2,0.1c0,0.1,0.1,0.1,0.1,0.2c0,0.1,0,0.1,0,0.2c0,0.1,0,0.3-0.1,0.4
		C372.7,313.1,372.6,313.2,372.5,313.2z"/>
	<path id="ell8gcbt57php" class="st1" d="M372,347.2c0-0.3,0.2-0.5,0.5-0.5l0,0c0.3,0,0.5,0.2,0.5,0.5c0,0,0,0,0,0l0,0
		c0,0.3-0.2,0.5-0.5,0.5c0,0,0,0,0,0l0,0C372.2,347.7,372,347.5,372,347.2z M372,341.5c0-0.3,0.2-0.5,0.5-0.5l0,0
		c0.3,0,0.5,0.2,0.5,0.5c0,0,0,0,0,0l0,0c0,0.3-0.2,0.5-0.5,0.5l0,0C372.2,342,372,341.8,372,341.5L372,341.5z M372,335.7
		c0-0.3,0.2-0.5,0.5-0.5l0,0c0.3,0,0.5,0.2,0.5,0.5l0,0c0,0.3-0.2,0.5-0.5,0.5c0,0,0,0,0,0l0,0C372.2,336.2,372,336,372,335.7z
		 M372,329.9c0-0.3,0.2-0.5,0.5-0.5l0,0c0.3,0,0.5,0.2,0.5,0.5l0,0c0,0.3-0.2,0.5-0.5,0.5c0,0,0,0,0,0l0,0
		C372.2,330.5,372,330.3,372,329.9L372,329.9z M372,324.2c0-0.3,0.2-0.5,0.5-0.5l0,0c0.3,0,0.5,0.2,0.5,0.5c0,0,0,0,0,0l0,0
		c0,0.3-0.2,0.5-0.5,0.5c0,0,0,0,0,0l0,0C372.2,324.7,372,324.5,372,324.2L372,324.2z M372,318.4c0-0.3,0.2-0.5,0.5-0.5l0,0
		c0.3,0,0.5,0.2,0.5,0.5c0,0,0,0,0,0l0,0c0,0.3-0.2,0.5-0.5,0.5l0,0C372.2,318.9,372,318.7,372,318.4L372,318.4z"/>
	<path id="el3zys5ct8azu" class="st1" d="M372.5,353.5c-0.1,0-0.3-0.1-0.4-0.1c-0.1-0.1-0.1-0.2-0.1-0.4c0-0.1,0-0.1,0-0.2
		c0-0.1,0.1-0.1,0.1-0.2c0.2-0.2,0.5-0.2,0.7,0c0.1,0.1,0.1,0.2,0.1,0.4c0,0.1,0,0.1,0,0.2c0,0.1-0.1,0.1-0.1,0.2
		c0,0-0.1,0.1-0.2,0.1C372.6,353.5,372.6,353.5,372.5,353.5z"/>
	<path id="elob5xvuf9aln" class="st1" d="M366,353c0-0.3,0.2-0.5,0.5-0.5l0,0c0.3,0,0.5,0.2,0.5,0.5l0,0c0,0.3-0.2,0.5-0.5,0.5l0,0
		C366.2,353.5,366,353.3,366,353z M360,353c0-0.3,0.2-0.5,0.5-0.5l0,0c0.3,0,0.5,0.2,0.5,0.5l0,0c0,0.3-0.2,0.5-0.5,0.5l0,0
		C360.2,353.5,360,353.3,360,353z M354,353c0-0.3,0.2-0.5,0.5-0.5l0,0c0.3,0,0.5,0.2,0.5,0.5l0,0c0,0.3-0.2,0.5-0.5,0.5l0,0
		C354.2,353.5,354,353.3,354,353z M348,353c0-0.3,0.2-0.5,0.5-0.5l0,0c0.3,0,0.5,0.2,0.5,0.5l0,0c0,0.3-0.2,0.5-0.5,0.5l0,0
		C348.2,353.5,348,353.3,348,353z M342,353c0-0.3,0.2-0.5,0.5-0.5l0,0c0.3,0,0.5,0.2,0.5,0.5l0,0c0,0.3-0.2,0.5-0.5,0.5l0,0
		C342.2,353.5,342,353.3,342,353z M336,353c0-0.3,0.2-0.5,0.5-0.5l0,0c0.3,0,0.5,0.2,0.5,0.5l0,0c0,0.3-0.2,0.5-0.5,0.5l0,0
		C336.2,353.5,336,353.3,336,353L336,353z M330,353c0-0.3,0.2-0.5,0.5-0.5l0,0c0.3,0,0.5,0.2,0.5,0.5l0,0c0,0.3-0.2,0.5-0.5,0.5l0,0
		C330.2,353.5,330.1,353.3,330,353L330,353z M324,353c0-0.3,0.2-0.5,0.5-0.5c0,0,0,0,0,0l0,0c0.3,0,0.5,0.2,0.5,0.5l0,0
		c0,0.3-0.2,0.5-0.5,0.5l0,0C324.3,353.5,324.1,353.3,324,353L324,353z M318,353c0-0.3,0.2-0.5,0.5-0.5l0,0c0.3,0,0.5,0.2,0.5,0.5
		l0,0c0,0.3-0.2,0.5-0.5,0.5l0,0C318.3,353.5,318.1,353.2,318,353L318,353z M312,353c0-0.3,0.2-0.5,0.5-0.5l0,0
		c0.3,0,0.5,0.2,0.5,0.5l0,0c0,0.3-0.2,0.5-0.5,0.5l0,0c-0.2,0-0.4-0.3-0.4-0.5H312z M306,353c0-0.3,0.2-0.5,0.5-0.5l0,0
		c0.3,0,0.5,0.2,0.5,0.5l0,0c0,0.3-0.2,0.5-0.5,0.5l0,0c-0.2-0.1-0.4-0.3-0.4-0.5H306z M300,353c0-0.3,0.2-0.5,0.5-0.5l0,0
		c0.3,0,0.5,0.2,0.5,0.5c0,0,0,0,0,0l0,0c0,0.3-0.2,0.5-0.5,0.5c0,0,0,0,0,0l0,0c-0.2-0.1-0.4-0.3-0.4-0.5H300z M294,353
		c0-0.3,0.2-0.5,0.5-0.5l0,0c0.3,0,0.5,0.2,0.5,0.5l0,0c0,0.3-0.2,0.5-0.5,0.5l0,0c-0.2-0.1-0.4-0.3-0.4-0.5H294z M288,353
		c0-0.3,0.2-0.5,0.5-0.5l0,0c0.3,0,0.5,0.2,0.5,0.5l0,0c0,0.3-0.2,0.5-0.5,0.5l0,0c-0.2-0.1-0.4-0.3-0.4-0.5H288z M282,353
		c0-0.3,0.2-0.5,0.5-0.5l0,0c0.3,0,0.5,0.2,0.5,0.5l0,0c0,0.3-0.2,0.5-0.5,0.5l0,0c-0.2-0.1-0.4-0.3-0.3-0.5H282z M276,353
		c0-0.3,0.2-0.5,0.5-0.5l0,0c0.3,0,0.5,0.2,0.5,0.5l0,0c0,0.3-0.2,0.5-0.5,0.5l0,0c-0.2-0.1-0.3-0.3-0.3-0.5H276z M270,353
		c0-0.3,0.2-0.5,0.5-0.5l0,0c0.3,0,0.5,0.2,0.5,0.5l0,0c0,0.3-0.2,0.5-0.5,0.5l0,0c-0.2-0.1-0.3-0.3-0.3-0.5H270z M264,353
		c0-0.3,0.2-0.5,0.5-0.5l0,0c0.3,0,0.5,0.2,0.5,0.5l0,0c0,0.3-0.2,0.5-0.5,0.5l0,0c-0.2-0.1-0.3-0.3-0.3-0.5H264z M258,353
		c0-0.3,0.2-0.5,0.5-0.5c0,0,0,0,0,0l0,0c0.3,0,0.5,0.2,0.5,0.5l0,0c0,0.3-0.2,0.5-0.5,0.5l0,0c-0.2-0.1-0.3-0.3-0.3-0.5H258z
		 M252,353c0-0.3,0.2-0.5,0.5-0.5l0,0c0.3,0,0.5,0.2,0.5,0.5l0,0c0,0.3-0.2,0.5-0.5,0.5l0,0c-0.2-0.1-0.3-0.3-0.3-0.5H252z M246,353
		c0-0.3,0.2-0.5,0.5-0.5l0,0c0.3,0,0.5,0.2,0.5,0.5l0,0c0,0.3-0.2,0.5-0.5,0.5l0,0c-0.2-0.1-0.3-0.3-0.3-0.5H246z M240,353
		c0-0.3,0.2-0.5,0.5-0.5l0,0c0.3,0,0.5,0.2,0.5,0.5l0,0c0,0.3-0.2,0.5-0.5,0.5l0,0c-0.2-0.1-0.3-0.3-0.3-0.5H240z M234,353
		c0-0.3,0.2-0.5,0.5-0.5l0,0c0.3,0,0.5,0.2,0.5,0.5c0,0,0,0,0,0l0,0c0,0.3-0.2,0.5-0.5,0.5c0,0,0,0,0,0l0,0
		c-0.2-0.1-0.3-0.3-0.2-0.5H234z"/>
	<path id="elfn1qzyh0ajk" class="st1" d="M228.8,353.5c-0.1,0-0.1,0-0.2,0c-0.1,0-0.1-0.1-0.2-0.1c-0.2-0.2-0.2-0.5,0-0.7
		c0,0,0.1-0.1,0.2-0.1c0.1-0.1,0.3-0.1,0.4,0c0.1,0,0.1,0.1,0.2,0.1c0.2,0.2,0.2,0.5,0,0.7c0,0,0,0,0,0c0,0.1-0.1,0.1-0.2,0.1
		C228.9,353.5,228.8,353.5,228.8,353.5z"/>
	<path id="elj5z5f0pxua" class="st1" d="M228.3,346.6c0-0.3,0.2-0.5,0.5-0.5l0,0c0.3,0,0.5,0.2,0.5,0.5l0,0c0,0.3-0.2,0.5-0.5,0.5
		l0,0C228.5,347.1,228.3,346.9,228.3,346.6z M228.3,340.2c0-0.3,0.2-0.5,0.5-0.5l0,0c0.3,0,0.5,0.2,0.5,0.5l0,0
		c0,0.3-0.2,0.5-0.5,0.5l0,0C228.5,340.7,228.3,340.5,228.3,340.2z M228.3,333.8c0-0.3,0.2-0.5,0.5-0.5l0,0c0.3,0,0.5,0.2,0.5,0.5
		l0,0c0,0.3-0.2,0.5-0.5,0.5l0,0C228.5,334.3,228.3,334.1,228.3,333.8L228.3,333.8L228.3,333.8z M228.3,327.4c0-0.3,0.2-0.5,0.5-0.5
		l0,0c0.3,0,0.5,0.2,0.5,0.5l0,0c0,0.3-0.2,0.5-0.5,0.5l0,0C228.5,327.9,228.3,327.7,228.3,327.4L228.3,327.4L228.3,327.4z"/>
	<path id="eld87tg0pb5kl" class="st1" d="M228.8,321.5c-0.1,0-0.1,0-0.2,0c-0.1,0-0.1-0.1-0.2-0.1c0,0-0.1-0.1-0.1-0.2
		c0-0.1,0-0.1,0-0.2c0-0.1,0-0.3,0.1-0.4c0,0,0.1-0.1,0.2-0.1c0.1-0.1,0.3-0.1,0.4,0c0.1,0,0.1,0.1,0.2,0.1c0.1,0.1,0.1,0.2,0.1,0.4
		c0,0.1,0,0.1,0,0.2c0,0.1-0.1,0.1-0.1,0.2c0,0.1-0.1,0.1-0.2,0.1C229,321.5,228.9,321.5,228.8,321.5z"/>
	<path id="el71uiu2cmql6" class="st1" d="M228.8,202.6c-0.1,0-0.1,0-0.2,0c-0.1,0-0.1-0.1-0.2-0.1c0,0-0.1-0.1-0.1-0.2
		c0-0.1,0-0.1,0-0.2c0-0.1,0.1-0.3,0.1-0.4c0,0,0.1-0.1,0.2-0.1c0.1-0.1,0.3-0.1,0.4,0c0.1,0,0.1,0.1,0.2,0.1
		c0.1,0.1,0.1,0.2,0.1,0.4c0,0.1-0.1,0.3-0.1,0.4c0,0.1-0.1,0.1-0.2,0.1C228.9,202.6,228.9,202.6,228.8,202.6z"/>
	<path id="el0mtvnic6i95" class="st1" d="M228.3,227.4c0-0.3,0.2-0.5,0.5-0.5c0,0,0,0,0,0l0,0c0.3,0,0.5,0.2,0.5,0.5l0,0
		c0,0.3-0.2,0.5-0.5,0.5l0,0C228.5,227.9,228.3,227.6,228.3,227.4z M228.3,221.1c0-0.3,0.2-0.5,0.5-0.5l0,0c0.3,0,0.5,0.2,0.5,0.5
		l0,0c0,0.3-0.2,0.5-0.5,0.5l0,0C228.5,221.6,228.3,221.3,228.3,221.1z M228.3,214.7c0-0.3,0.2-0.5,0.5-0.5l0,0
		c0.3,0,0.5,0.2,0.5,0.5l0,0c0,0.3-0.2,0.5-0.5,0.5l0,0C228.5,215.2,228.3,215,228.3,214.7z M228.3,208.4c0-0.3,0.2-0.5,0.5-0.5l0,0
		c0.3,0,0.5,0.2,0.5,0.5l0,0c0,0.3-0.2,0.5-0.5,0.5l0,0C228.5,208.9,228.3,208.7,228.3,208.4z"/>
	<path id="elp876n8pdgwr" class="st1" d="M228.8,234.2c-0.1,0-0.1,0-0.2,0c-0.1,0-0.1-0.1-0.2-0.1c0,0-0.1-0.1-0.1-0.2
		c0-0.1,0-0.1,0-0.2c0-0.1,0-0.3,0.1-0.4c0.1,0,0.1-0.1,0.2-0.1c0.1-0.1,0.3-0.1,0.4,0c0.1,0,0.1,0.1,0.2,0.1
		c0.1,0.1,0.1,0.2,0.1,0.4c0,0.1,0,0.1,0,0.2c0,0.1-0.1,0.1-0.1,0.2C229.1,234.2,229,234.2,228.8,234.2L228.8,234.2z"/>
</g>
<g id="freepik--Shadow--inject-2">
	<ellipse id="freepik--path--inject-2" class="st2" cx="250" cy="416.2" rx="193.9" ry="11.3"/>
</g>
<g id="freepik--Monitors--inject-2">
	<path id="ele326cls8nt" class="st3" d="M123.3,353.5l2-34.2c0.1-2,1.8-3.6,3.8-3.6h55.6c1.9,0,3.4,1.5,3.4,3.3c0,0.1,0,0.2,0,0.3
		l-2,34.2c-0.1,2-1.8,3.6-3.8,3.6h-55.6c-1.9,0-3.4-1.5-3.4-3.4C123.3,353.7,123.3,353.6,123.3,353.5z"/>
	<path id="elw95n4utg52" class="st4" d="M120.5,353.5l2-34.2c0.1-2,1.8-3.6,3.8-3.6h57.8c1.9,0,3.4,1.5,3.4,3.4c0,0.1,0,0.2,0,0.3
		l-2,34.2c-0.1,2-1.8,3.6-3.8,3.6h-57.8c-1.9,0-3.4-1.5-3.4-3.4C120.5,353.7,120.5,353.6,120.5,353.5z"/>
	<g id="elfnw8ujie7lr">
		<path class="st5" d="M120.5,353.5l2-34.2c0.1-2,1.8-3.6,3.8-3.6h57.8c1.9,0,3.4,1.5,3.4,3.4c0,0.1,0,0.2,0,0.3l-2,34.2
			c-0.1,2-1.8,3.6-3.8,3.6h-57.8c-1.9,0-3.4-1.5-3.4-3.4C120.5,353.7,120.5,353.6,120.5,353.5z"/>
	</g>
	<g id="elc6gl8cjqkgn">
		<path class="st3" d="M158.1,350.2h0.5c2,0,3.6,1.6,3.6,3.6v20.9c0,2-1.6,3.6-3.6,3.6h-0.5c-2,0-3.6-1.6-3.6-3.6v-20.9
			C154.4,351.8,156.1,350.2,158.1,350.2z"/>
	</g>
	<g id="elxs8v9douu6e">
		<g class="st6">
			<g id="ele2wvpz7zo6">
				<path class="st4" d="M158.1,350.2h0.5c2,0,3.6,1.6,3.6,3.6v20.9c0,2-1.6,3.6-3.6,3.6h-0.5c-2,0-3.6-1.6-3.6-3.6v-20.9
					C154.4,351.8,156.1,350.2,158.1,350.2z"/>
			</g>
		</g>
	</g>
	<g id="eljeawr3m5r8o">
		<path class="st4" d="M150.6,349h0.5c2,0,3.6,1.6,3.6,3.6v23.1c0,2-1.6,3.6-3.6,3.6h-0.5c-2,0-3.6-1.6-3.6-3.6v-23.1
			C147,350.7,148.6,349,150.6,349z"/>
	</g>
	<g id="elmegepilhq4o">
		<path class="st5" d="M150.6,349h0.5c2,0,3.6,1.6,3.6,3.6v23.1c0,2-1.6,3.6-3.6,3.6h-0.5c-2,0-3.6-1.6-3.6-3.6v-23.1
			C147,350.7,148.6,349,150.6,349z"/>
	</g>
	<g id="elldaieagsir">
		<path class="st7" d="M182.5,355.4h-59.2c-0.8,0-1.5-0.7-1.5-1.5c0,0,0-0.1,0-0.1l2-34.8c0.1-0.9,0.8-1.6,1.7-1.6h59.2
			c0.8,0,1.5,0.7,1.5,1.5c0,0,0,0.1,0,0.1l-2,34.8C184.1,354.6,183.4,355.3,182.5,355.4z"/>
	</g>
	<g id="el8ihy23m4jk">
		<polygon class="st8" points="140.4,355.4 128.6,355.4 139.4,317.4 151.1,317.4 		"/>
	</g>
	<g id="elxki9rij009a">
		<polygon class="st8" points="150,355.4 141.8,355.4 152.6,317.4 160.8,317.4 		"/>
	</g>
	<g id="el78jntnjwavi">
		<polygon class="st8" points="167.9,355.4 159.7,355.4 170.5,317.4 178.7,317.4 		"/>
	</g>
	<path id="elsl1xtc1x84i" class="st3" d="M219,353.5l2-34.2c0.1-2,1.8-3.6,3.8-3.6h55.6c1.9,0,3.4,1.5,3.4,3.3c0,0.1,0,0.2,0,0.3
		l-2,34.2c-0.1,2-1.8,3.6-3.8,3.6h-55.6c-1.9,0-3.4-1.5-3.4-3.3C219,353.7,219,353.6,219,353.5z"/>
	<path id="elu07ztrewl4" class="st4" d="M216.2,353.5l2-34.2c0.1-2,1.8-3.6,3.8-3.6h57.8c1.9,0,3.4,1.5,3.4,3.3c0,0.1,0,0.2,0,0.3
		l-2,34.2c-0.1,2-1.8,3.6-3.8,3.6h-57.8c-1.9,0-3.4-1.5-3.4-3.4C216.2,353.7,216.2,353.6,216.2,353.5z"/>
	<g id="elqqe5hddknse">
		<path class="st5" d="M216.2,353.5l2-34.2c0.1-2,1.8-3.6,3.8-3.6h57.8c1.9,0,3.4,1.5,3.4,3.3c0,0.1,0,0.2,0,0.3l-2,34.2
			c-0.1,2-1.8,3.6-3.8,3.6h-57.8c-1.9,0-3.4-1.5-3.4-3.4C216.2,353.7,216.2,353.6,216.2,353.5z"/>
	</g>
	<g id="elvc404ttvyuo">
		<path class="st3" d="M253.8,350.2h0.5c2,0,3.6,1.6,3.6,3.6v20.9c0,2-1.6,3.6-3.6,3.6h-0.5c-2,0-3.6-1.6-3.6-3.6v-20.9
			C250.1,351.8,251.8,350.2,253.8,350.2z"/>
	</g>
	<g id="elihyktww8nj">
		<g class="st6">
			<g id="elzeq618v9n6">
				<path class="st4" d="M253.8,350.2h0.5c2,0,3.6,1.6,3.6,3.6v20.9c0,2-1.6,3.6-3.6,3.6h-0.5c-2,0-3.6-1.6-3.6-3.6v-20.9
					C250.1,351.8,251.8,350.2,253.8,350.2z"/>
			</g>
		</g>
	</g>
	<g id="elr68mgr7uqfg">
		<path class="st4" d="M246.3,349h0.5c2,0,3.6,1.6,3.6,3.6v23.1c0,2-1.6,3.6-3.6,3.6h-0.5c-2,0-3.6-1.6-3.6-3.6v-23.1
			C242.7,350.7,244.3,349,246.3,349z"/>
	</g>
	<g id="el45zxhjcvll7">
		<path class="st5" d="M246.3,349h0.5c2,0,3.6,1.6,3.6,3.6v23.1c0,2-1.6,3.6-3.6,3.6h-0.5c-2,0-3.6-1.6-3.6-3.6v-23.1
			C242.7,350.7,244.3,349,246.3,349z"/>
	</g>
	<g id="eln49480om7ed">
		<path class="st7" d="M278.2,355.4H219c-0.8,0-1.5-0.7-1.5-1.5c0,0,0-0.1,0-0.1l2-34.8c0.1-0.9,0.8-1.6,1.7-1.6h59.2
			c0.8,0,1.5,0.7,1.5,1.5c0,0,0,0.1,0,0.1l-2,34.8C279.9,354.6,279.1,355.3,278.2,355.4z"/>
	</g>
	<g id="elluk2cyxi819">
		<polygon class="st8" points="236.1,355.4 224.3,355.4 235.1,317.4 246.9,317.4 		"/>
	</g>
	<g id="elh3nzsiys0se">
		<polygon class="st8" points="245.7,355.4 237.5,355.4 248.3,317.4 256.5,317.4 		"/>
	</g>
	<g id="elf3vnwtmy1lo">
		<polygon class="st8" points="263.7,355.4 255.4,355.4 266.2,317.4 274.4,317.4 		"/>
	</g>
	<path id="elu1tyat4ywye" class="st3" d="M314.7,353.5l2-34.2c0.1-2,1.8-3.6,3.8-3.6h55.6c1.9,0,3.4,1.5,3.4,3.4c0,0.1,0,0.2,0,0.3
		l-2,34.2c-0.1,2-1.8,3.6-3.8,3.6h-55.6c-1.9,0-3.4-1.5-3.4-3.4C314.7,353.7,314.7,353.6,314.7,353.5z"/>
	<path id="elt6qhdmpttyl" class="st4" d="M311.9,353.5l2-34.2c0.1-2,1.8-3.6,3.8-3.6h57.8c1.9,0,3.4,1.5,3.4,3.4c0,0.1,0,0.2,0,0.3
		l-2,34.2c-0.1,2-1.8,3.6-3.8,3.6h-57.8c-1.9,0-3.4-1.5-3.4-3.3C311.9,353.7,311.9,353.6,311.9,353.5z"/>
	<g id="elt4cn65yiu2i">
		<path class="st5" d="M311.9,353.5l2-34.2c0.1-2,1.8-3.6,3.8-3.6h57.8c1.9,0,3.4,1.5,3.4,3.4c0,0.1,0,0.2,0,0.3l-2,34.2
			c-0.1,2-1.8,3.6-3.8,3.6h-57.8c-1.9,0-3.4-1.5-3.4-3.3C311.9,353.7,311.9,353.6,311.9,353.5z"/>
	</g>
	<g id="elq3h6lsdzmq8">
		<path class="st3" d="M349.5,350.2h0.5c2,0,3.6,1.6,3.6,3.6v20.9c0,2-1.6,3.6-3.6,3.6h-0.5c-2,0-3.6-1.6-3.6-3.6v-20.9
			C345.9,351.8,347.5,350.2,349.5,350.2z"/>
	</g>
	<g id="elkovezbavs6">
		<g class="st6">
			<g id="el5fn0dphzu8b">
				<path class="st4" d="M349.5,350.2h0.5c2,0,3.6,1.6,3.6,3.6v20.9c0,2-1.6,3.6-3.6,3.6h-0.5c-2,0-3.6-1.6-3.6-3.6v-20.9
					C345.9,351.8,347.5,350.2,349.5,350.2z"/>
			</g>
		</g>
	</g>
	<g id="elt2rtzsn8zu">
		<path class="st4" d="M342,349h0.5c2,0,3.6,1.6,3.6,3.6v23.1c0,2-1.6,3.6-3.6,3.6H342c-2,0-3.6-1.6-3.6-3.6v-23.1
			C338.4,350.7,340,349,342,349z"/>
	</g>
	<g id="elsta9noikrp">
		<path class="st5" d="M342,349h0.5c2,0,3.6,1.6,3.6,3.6v23.1c0,2-1.6,3.6-3.6,3.6H342c-2,0-3.6-1.6-3.6-3.6v-23.1
			C338.4,350.7,340,349,342,349z"/>
	</g>
	<g id="elmf8rak65ule">
		<path class="st7" d="M374,355.4h-59.3c-0.8,0-1.5-0.7-1.5-1.5c0,0,0-0.1,0-0.1l2-34.8c0.1-0.9,0.8-1.6,1.7-1.6h59.2
			c0.8,0,1.5,0.6,1.5,1.5c0,0,0,0.1,0,0.1l-2,34.8C375.6,354.6,374.9,355.3,374,355.4z"/>
	</g>
	<g id="el4bth83xegjg">
		<polygon class="st8" points="331.8,355.4 320,355.4 330.8,317.4 342.6,317.4 		"/>
	</g>
	<g id="elajjuk5iwnf">
		<polygon class="st8" points="341.4,355.4 333.2,355.4 344,317.4 352.2,317.4 		"/>
	</g>
	<g id="elb7q5cy9gudi">
		<polygon class="st8" points="359.4,355.4 351.1,355.4 361.9,317.4 370.1,317.4 		"/>
	</g>
</g>
<g id="freepik--Connection--inject-2">
	<path id="elrylkizhoxv" class="st3" d="M153.7,308.8c-0.1,0-0.1,0-0.2,0l-0.2-0.1c0,0-0.1-0.1-0.1-0.2c0-0.1,0-0.1,0-0.2
		c0-0.1,0-0.3,0.1-0.4c0.1-0.1,0.4-0.2,0.6-0.1c0.1,0,0.1,0.1,0.2,0.1c0,0,0.1,0.1,0.1,0.2c0,0.1,0,0.1,0,0.2c0,0.1,0,0.1,0,0.2
		c0,0.1-0.1,0.1-0.1,0.2C154,308.8,153.9,308.8,153.7,308.8L153.7,308.8z"/>
	<path id="elxe3ktk1xo" class="st3" d="M153.2,304.6c0-0.3,0.2-0.5,0.5-0.5l0,0c0.3,0,0.5,0.2,0.5,0.5l0,0c0,0.3-0.2,0.5-0.5,0.5
		l0,0C153.4,305.1,153.2,304.9,153.2,304.6z"/>
	<path id="eley5p3c4u0b" class="st3" d="M153.7,301.5c-0.1,0-0.3-0.1-0.4-0.1c0,0-0.1-0.1-0.1-0.2c0-0.1,0-0.1,0-0.2
		c0-0.1,0-0.3,0.1-0.4c0.1-0.1,0.4-0.2,0.6-0.1c0.1,0,0.1,0.1,0.2,0.1c0.1,0,0.1,0.1,0.1,0.2c0,0.1,0,0.1,0,0.2c0,0.1,0,0.1,0,0.2
		c-0.1,0.1-0.1,0.2-0.3,0.3C153.8,301.5,153.8,301.5,153.7,301.5z"/>
	<path id="elspi6d1bzsz" class="st3" d="M245.5,301c0-0.3,0.2-0.5,0.5-0.5l0,0c0.3,0,0.5,0.2,0.5,0.5l0,0c0,0.3-0.2,0.5-0.5,0.5l0,0
		C245.7,301.5,245.5,301.3,245.5,301C245.5,301,245.5,301,245.5,301z M241.5,301c0-0.3,0.2-0.5,0.5-0.5l0,0c0.3,0,0.5,0.2,0.5,0.5
		l0,0c0,0.3-0.2,0.5-0.5,0.5l0,0C241.7,301.5,241.5,301.3,241.5,301C241.5,301,241.5,301,241.5,301L241.5,301z M237.5,301
		c0-0.3,0.2-0.5,0.5-0.5l0,0c0.3,0,0.5,0.2,0.5,0.5l0,0c0,0.3-0.2,0.5-0.5,0.5l0,0C237.7,301.5,237.5,301.3,237.5,301
		C237.5,301,237.5,301,237.5,301L237.5,301z M233.5,301c0-0.3,0.2-0.5,0.5-0.5l0,0c0.3,0,0.5,0.2,0.5,0.5l0,0c0,0.3-0.2,0.5-0.5,0.5
		c0,0,0,0,0,0l0,0C233.7,301.5,233.5,301.3,233.5,301C233.5,301,233.4,301,233.5,301L233.5,301z M229.5,301c0-0.3,0.2-0.5,0.5-0.5
		l0,0c0.3,0,0.5,0.2,0.5,0.5l0,0c0,0.3-0.2,0.5-0.5,0.5l0,0C229.7,301.5,229.5,301.3,229.5,301C229.4,301,229.4,301,229.5,301
		L229.5,301z M225.5,301c0-0.3,0.2-0.5,0.5-0.5l0,0c0.3,0,0.5,0.2,0.5,0.5l0,0c0,0.3-0.2,0.5-0.5,0.5l0,0
		C225.7,301.5,225.5,301.3,225.5,301C225.4,301.1,225.4,301,225.5,301L225.5,301z M221.5,301c0-0.3,0.2-0.5,0.5-0.5l0,0
		c0.3,0,0.5,0.2,0.5,0.5l0,0c0,0.3-0.2,0.5-0.5,0.5l0,0C221.7,301.5,221.5,301.4,221.5,301C221.4,301.1,221.4,301,221.5,301
		L221.5,301z M217.5,301c0-0.3,0.2-0.5,0.5-0.5l0,0c0.3,0,0.5,0.2,0.5,0.5l0,0c0,0.3-0.2,0.5-0.5,0.5l0,0c-0.3,0.1-0.5-0.1-0.6-0.4
		c0,0,0-0.1,0-0.1H217.5z M213.5,301c0-0.3,0.2-0.5,0.5-0.5l0,0c0.3,0,0.5,0.2,0.5,0.5l0,0c0,0.3-0.2,0.5-0.5,0.5l0,0
		c-0.3,0.1-0.5-0.1-0.6-0.4c0,0,0-0.1,0-0.1H213.5z M209.5,301c0-0.3,0.2-0.5,0.5-0.5l0,0c0.3,0,0.5,0.2,0.5,0.5l0,0
		c0,0.3-0.2,0.5-0.5,0.5l0,0c-0.3,0.1-0.5-0.1-0.6-0.4c0,0,0-0.1,0-0.1H209.5z M205.5,301c0-0.3,0.2-0.5,0.5-0.5l0,0
		c0.3,0,0.5,0.2,0.5,0.5l0,0c0,0.3-0.2,0.5-0.5,0.5l0,0c-0.3,0.1-0.5-0.1-0.6-0.3c0-0.1,0-0.1,0-0.2H205.5z M201.5,301
		c0-0.3,0.2-0.5,0.5-0.5l0,0c0.3,0,0.5,0.2,0.5,0.5l0,0c0,0.3-0.2,0.5-0.5,0.5l0,0c-0.3,0.1-0.5-0.1-0.6-0.3c0-0.1,0-0.1,0-0.2
		H201.5z M197.5,301c0-0.3,0.2-0.5,0.5-0.5l0,0c0.3,0,0.5,0.2,0.5,0.5l0,0c0,0.3-0.2,0.5-0.5,0.5l0,0c-0.3,0.1-0.5,0-0.6-0.3
		c0-0.1,0-0.1,0-0.2H197.5z M193.5,301c0-0.3,0.2-0.5,0.5-0.5l0,0c0.3,0,0.5,0.2,0.5,0.5l0,0c0,0.3-0.2,0.5-0.5,0.5l0,0
		c-0.3,0.1-0.5,0-0.6-0.3c0-0.1,0-0.1,0-0.2H193.5z M189.5,301c0-0.3,0.2-0.5,0.5-0.5l0,0c0.3,0,0.5,0.2,0.5,0.5l0,0
		c0,0.3-0.2,0.5-0.5,0.5l0,0c-0.3,0.1-0.5,0-0.7-0.3c0-0.1,0-0.2,0-0.2H189.5z M185.5,301c0-0.3,0.2-0.5,0.5-0.5l0,0
		c0.3,0,0.5,0.2,0.5,0.5l0,0c0,0.3-0.2,0.5-0.5,0.5c0,0,0,0,0,0l0,0c-0.3,0.1-0.5,0-0.7-0.2c0-0.1-0.1-0.2,0-0.3H185.5z M181.5,301
		c0-0.3,0.2-0.5,0.5-0.5l0,0c0.3,0,0.5,0.2,0.5,0.5l0,0c0,0.3-0.2,0.5-0.5,0.5l0,0c-0.2,0.1-0.5,0-0.7-0.2c0-0.1-0.1-0.2,0-0.3
		H181.5z M177.5,301c0-0.3,0.2-0.5,0.5-0.5l0,0c0.3,0,0.5,0.2,0.5,0.5l0,0c0,0.3-0.2,0.5-0.5,0.5l0,0c-0.2,0.1-0.5,0-0.7-0.2
		c0-0.1-0.1-0.2-0.1-0.3H177.5z M173.5,301c0-0.3,0.2-0.5,0.5-0.5l0,0c0.3,0,0.5,0.2,0.5,0.5l0,0c0,0.3-0.2,0.5-0.5,0.5l0,0
		c-0.2,0.1-0.5,0.1-0.7-0.2c-0.1-0.1-0.1-0.2-0.1-0.3H173.5z M169.5,301c0-0.3,0.2-0.5,0.5-0.5l0,0c0.3,0,0.5,0.2,0.5,0.5l0,0
		c0,0.3-0.2,0.5-0.5,0.5l0,0c-0.2,0.1-0.5,0.1-0.7-0.2c-0.1-0.1-0.1-0.2-0.1-0.3H169.5z M165.5,301c0-0.3,0.2-0.5,0.5-0.5l0,0
		c0.3,0,0.5,0.2,0.5,0.5l0,0c0,0.3-0.2,0.5-0.5,0.5l0,0c-0.2,0.2-0.5,0.1-0.7-0.1c-0.1-0.1-0.1-0.2-0.1-0.4H165.5z M161.5,301
		c0-0.3,0.2-0.5,0.5-0.5l0,0c0.3,0,0.5,0.2,0.5,0.5l0,0c0,0.3-0.2,0.5-0.5,0.5l0,0c-0.2,0.2-0.5,0.1-0.7-0.1
		c-0.1-0.1-0.1-0.3-0.1-0.4H161.5z M157.5,301c0-0.3,0.2-0.5,0.5-0.5l0,0c0.3,0,0.5,0.2,0.5,0.5l0,0c0,0.3-0.2,0.5-0.5,0.5l0,0
		c-0.2,0.2-0.5,0.1-0.7-0.1c-0.1-0.1-0.1-0.3-0.1-0.4H157.5z"/>
	<path id="el871n75gg3yt" class="st3" d="M250,301.5c-0.1,0-0.1,0-0.2,0c-0.1,0-0.1-0.1-0.2-0.1c0,0-0.1-0.1-0.1-0.2
		c0-0.1,0-0.1,0-0.2c0-0.1,0-0.1,0-0.2c0-0.1,0.1-0.1,0.1-0.2c0,0,0.1-0.1,0.2-0.1c0.1-0.1,0.3-0.1,0.4,0c0.1,0,0.1,0.1,0.2,0.1
		c0.1,0.1,0.2,0.2,0.1,0.4c0,0.1,0,0.1,0,0.2c0,0.1-0.1,0.1-0.1,0.2c0,0-0.1,0.1-0.2,0.1C250.2,301.5,250.1,301.5,250,301.5z"/>
	<path id="elg7n2ff32hqo" class="st3" d="M250,301.5c-0.1,0-0.1,0-0.2,0c-0.1,0-0.1-0.1-0.2-0.1c0,0-0.1-0.1-0.1-0.2
		c0-0.1,0-0.1,0-0.2c0-0.1,0-0.1,0-0.2c0-0.1,0.1-0.1,0.1-0.2c0,0,0.1-0.1,0.2-0.1c0.1-0.1,0.3-0.1,0.4,0c0.1,0,0.1,0.1,0.2,0.1
		c0.1,0.1,0.2,0.2,0.1,0.4c0,0.1,0,0.1,0,0.2c0,0.1-0.1,0.1-0.1,0.2c0,0-0.1,0.1-0.2,0.1C250.2,301.5,250.1,301.5,250,301.5z"/>
	<path id="el5easp87dfzl" class="st3" d="M249.5,297.5c0-0.3,0.2-0.5,0.5-0.5l0,0c0.3,0,0.5,0.2,0.5,0.5l0,0c0,0.3-0.2,0.5-0.5,0.5
		l0,0C249.7,298,249.5,297.8,249.5,297.5z M249.5,294c0-0.3,0.2-0.5,0.5-0.5l0,0c0.3,0,0.5,0.2,0.5,0.5l0,0c0,0.3-0.2,0.5-0.5,0.5
		l0,0C249.7,294.5,249.5,294.3,249.5,294C249.5,294,249.5,294,249.5,294L249.5,294z M249.5,290.6c0-0.3,0.2-0.5,0.5-0.5l0,0
		c0.3,0,0.5,0.2,0.5,0.5l0,0c0,0.3-0.2,0.5-0.5,0.5l0,0C249.7,291.1,249.5,290.8,249.5,290.6z"/>
	<path id="ela4qmdf6p7d" class="st3" d="M250,287.6c-0.1,0-0.3-0.1-0.4-0.1c-0.1,0-0.1-0.1-0.1-0.2c0-0.1,0-0.1,0-0.2
		c0-0.1,0-0.1,0-0.2c0-0.1,0.1-0.1,0.1-0.2c0,0,0.1-0.1,0.2-0.1c0.1-0.1,0.3-0.1,0.4,0c0.1,0,0.1,0.1,0.2,0.1c0,0,0.1,0.1,0.1,0.2
		c0,0.1,0,0.1,0,0.2c0,0.1,0,0.1,0,0.2c0,0.1-0.1,0.1-0.1,0.2C250.3,287.5,250.1,287.6,250,287.6z"/>
	<path id="elshs2xv4qm4g" class="st3" d="M250,301.5c-0.1,0-0.1,0-0.2,0c-0.1,0-0.1-0.1-0.2-0.1c0,0-0.1-0.1-0.1-0.2
		c0-0.1,0-0.1,0-0.2c0-0.1,0-0.1,0-0.2c0-0.1,0.1-0.1,0.1-0.2c0,0,0.1-0.1,0.2-0.1c0.1-0.1,0.3-0.1,0.4,0c0.1,0,0.1,0.1,0.2,0.1
		c0.1,0.1,0.2,0.2,0.1,0.4c0,0.1,0,0.1,0,0.2c0,0.1-0.1,0.1-0.1,0.2c0,0-0.1,0.1-0.2,0.1C250.2,301.5,250.1,301.5,250,301.5z"/>
	<path id="eltoko88s3vys" class="st3" d="M249.5,304.6c0-0.3,0.2-0.5,0.5-0.5l0,0c0.3,0,0.5,0.2,0.5,0.5l0,0c0,0.3-0.2,0.5-0.5,0.5
		l0,0C249.7,305.1,249.5,304.9,249.5,304.6z"/>
	<path id="elex95erbvwxd" class="st3" d="M250,308.8c-0.1,0-0.3-0.1-0.4-0.1c0,0-0.1-0.1-0.1-0.2c0-0.1,0-0.1,0-0.2
		c0-0.1,0-0.1,0-0.2c0-0.1,0.1-0.1,0.1-0.2c0.2-0.2,0.5-0.2,0.7,0c0,0,0.1,0.1,0.1,0.2c0,0.1,0,0.1,0,0.2c0,0.1,0,0.1,0,0.2
		c0,0.1-0.1,0.1-0.1,0.2C250.3,308.7,250.1,308.8,250,308.8z"/>
	<path id="ele9gcwichycc" class="st3" d="M346.3,308.8c-0.1,0-0.3-0.1-0.4-0.1c-0.1-0.1-0.1-0.2-0.1-0.4c0-0.3,0.2-0.5,0.5-0.5
		c0.1,0,0.3,0.1,0.3,0.1c0,0,0.1,0.1,0.1,0.2c0,0.1,0,0.1,0,0.2C346.8,308.6,346.6,308.8,346.3,308.8L346.3,308.8z"/>
	<path id="el61o0ssiv87a" class="st3" d="M345.8,304.6c0-0.3,0.2-0.5,0.5-0.5l0,0c0.3,0,0.5,0.2,0.5,0.5l0,0c0,0.3-0.2,0.5-0.5,0.5
		l0,0C346,305.1,345.8,304.9,345.8,304.6z"/>
	<path id="el4182jk6azxj" class="st3" d="M346.3,301.5c-0.1,0-0.3,0-0.4-0.1c-0.1-0.1-0.1-0.2-0.1-0.4c0-0.1,0.1-0.3,0.1-0.4
		c0.2-0.2,0.5-0.2,0.7,0c0.1,0.1,0.2,0.2,0.1,0.4c0,0.1-0.1,0.3-0.1,0.4C346.6,301.4,346.5,301.5,346.3,301.5z"/>
	<path id="elg00v8vrmej" class="st3" d="M341.8,301c0-0.3,0.2-0.5,0.5-0.5l0,0c0.3,0,0.5,0.2,0.5,0.5l0,0c0,0.3-0.2,0.5-0.5,0.5l0,0
		C342,301.5,341.8,301.3,341.8,301z M337.8,301c0-0.3,0.2-0.5,0.5-0.5c0,0,0,0,0,0l0,0c0.3,0,0.5,0.2,0.5,0.5l0,0
		c0,0.3-0.2,0.5-0.5,0.5l0,0C338,301.5,337.8,301.3,337.8,301C337.8,301,337.8,301,337.8,301L337.8,301z M333.8,301
		c0-0.3,0.2-0.5,0.5-0.5l0,0c0.3,0,0.5,0.2,0.5,0.5l0,0c0,0.3-0.2,0.5-0.5,0.5l0,0C334,301.5,333.8,301.3,333.8,301
		C333.8,301,333.8,301,333.8,301L333.8,301z M329.8,301c0-0.3,0.2-0.5,0.5-0.5l0,0c0.3,0,0.5,0.2,0.5,0.5l0,0c0,0.3-0.2,0.5-0.5,0.5
		l0,0C330,301.5,329.8,301.3,329.8,301C329.8,301,329.8,301,329.8,301L329.8,301z M325.8,301c0-0.3,0.2-0.5,0.5-0.5l0,0
		c0.3,0,0.5,0.2,0.5,0.5c0,0,0,0,0,0l0,0c0,0.3-0.2,0.5-0.5,0.5c0,0,0,0,0,0l0,0C326,301.5,325.8,301.3,325.8,301
		C325.8,301,325.7,301,325.8,301L325.8,301z M321.8,301c0-0.3,0.2-0.5,0.5-0.5l0,0c0.3,0,0.5,0.2,0.5,0.5l0,0c0,0.3-0.2,0.5-0.5,0.5
		l0,0C322,301.5,321.8,301.3,321.8,301C321.7,301.1,321.7,301,321.8,301L321.8,301z M317.8,301c0-0.3,0.2-0.5,0.5-0.5l0,0
		c0.3,0,0.5,0.2,0.5,0.5l0,0c0,0.3-0.2,0.5-0.5,0.5l0,0C318,301.5,317.8,301.4,317.8,301C317.7,301.1,317.7,301,317.8,301L317.8,301
		z M313.8,301c0-0.3,0.2-0.5,0.5-0.5l0,0c0.3,0,0.5,0.2,0.5,0.5c0,0,0,0,0,0l0,0c0,0.3-0.2,0.5-0.5,0.5c0,0,0,0,0,0l0,0
		c-0.3,0.1-0.5-0.1-0.6-0.4c0,0,0-0.1,0-0.1H313.8z M309.8,301c0-0.3,0.2-0.5,0.5-0.5l0,0c0.3,0,0.5,0.2,0.5,0.5l0,0
		c0,0.3-0.2,0.5-0.5,0.5l0,0c-0.3,0.1-0.5-0.1-0.6-0.4c0,0,0-0.1,0-0.1H309.8z M305.8,301c0-0.3,0.2-0.5,0.5-0.5l0,0
		c0.3,0,0.5,0.2,0.5,0.5l0,0c0,0.3-0.2,0.5-0.5,0.5l0,0c-0.3,0.1-0.5-0.1-0.6-0.4c0,0,0-0.1,0-0.1H305.8z M301.8,301
		c0-0.3,0.2-0.5,0.5-0.5l0,0c0.3,0,0.5,0.2,0.5,0.5l0,0c0,0.3-0.2,0.5-0.5,0.5l0,0c-0.3,0.1-0.5-0.1-0.6-0.3c0-0.1,0-0.1,0-0.2
		H301.8z M297.8,301c0-0.3,0.2-0.5,0.5-0.5l0,0c0.3,0,0.5,0.2,0.5,0.5l0,0c0,0.3-0.2,0.5-0.5,0.5l0,0c-0.3,0.1-0.5-0.1-0.6-0.3
		c0-0.1,0-0.1,0-0.2H297.8z M293.8,301c0-0.3,0.2-0.5,0.5-0.5l0,0c0.3,0,0.5,0.2,0.5,0.5l0,0c0,0.3-0.2,0.5-0.5,0.5l0,0
		c-0.3,0.1-0.5-0.1-0.6-0.3c0-0.1,0-0.1,0-0.2H293.8z M289.8,301c0-0.3,0.2-0.5,0.5-0.5l0,0c0.3,0,0.5,0.2,0.5,0.5l0,0
		c0,0.3-0.2,0.5-0.5,0.5l0,0c-0.3,0.1-0.5,0-0.6-0.3c0-0.1,0-0.1,0-0.2H289.8z M285.8,301c0-0.3,0.2-0.5,0.5-0.5l0,0
		c0.3,0,0.5,0.2,0.5,0.5l0,0c0,0.3-0.2,0.5-0.5,0.5l0,0c-0.3,0.1-0.5,0-0.7-0.3c0-0.1,0-0.2,0-0.2H285.8z M281.8,301
		c0-0.3,0.2-0.5,0.5-0.5l0,0c0.3,0,0.5,0.2,0.5,0.5l0,0c0,0.3-0.2,0.5-0.5,0.5l0,0c-0.3,0.1-0.5,0-0.7-0.3c0-0.1,0-0.2,0-0.2H281.8z
		 M277.8,301c0-0.3,0.2-0.5,0.5-0.5l0,0c0.3,0,0.5,0.2,0.5,0.5c0,0,0,0,0,0l0,0c0,0.3-0.2,0.5-0.5,0.5c0,0,0,0,0,0l0,0
		c-0.2,0.1-0.5,0-0.7-0.2c0-0.1-0.1-0.2,0-0.3H277.8z M273.8,301c0-0.3,0.2-0.5,0.5-0.5l0,0c0.3,0,0.5,0.2,0.5,0.5l0,0
		c0,0.3-0.2,0.5-0.5,0.5l0,0c-0.2,0.1-0.5,0-0.7-0.2c0-0.1-0.1-0.2-0.1-0.3H273.8z M269.8,301c0-0.3,0.2-0.5,0.5-0.5l0,0
		c0.3,0,0.5,0.2,0.5,0.5l0,0c0,0.3-0.2,0.5-0.5,0.5l0,0c-0.2,0.1-0.5,0-0.7-0.2c-0.1-0.1-0.1-0.2-0.1-0.3H269.8z M265.8,301
		c0-0.3,0.2-0.5,0.5-0.5l0,0c0.3,0,0.5,0.2,0.5,0.5c0,0,0,0,0,0l0,0c0,0.3-0.2,0.5-0.5,0.5c0,0,0,0,0,0l0,0
		c-0.2,0.1-0.5,0.1-0.7-0.2c-0.1-0.1-0.1-0.2-0.1-0.3H265.8z M261.8,301c0-0.3,0.2-0.5,0.5-0.5l0,0c0.3,0,0.5,0.2,0.5,0.5l0,0
		c0,0.3-0.2,0.5-0.5,0.5l0,0c-0.2,0.2-0.5,0.1-0.7-0.1c-0.1-0.1-0.1-0.2-0.1-0.4H261.8z M257.8,301c0-0.3,0.2-0.5,0.5-0.5l0,0
		c0.3,0,0.5,0.2,0.5,0.5l0,0c0,0.3-0.2,0.5-0.5,0.5l0,0c-0.2,0.2-0.5,0.1-0.7-0.1c-0.1-0.1-0.1-0.2-0.1-0.4H257.8z M253.8,301
		c0-0.3,0.2-0.5,0.5-0.5l0,0c0.3,0,0.5,0.2,0.5,0.5c0,0,0,0,0,0l0,0c0,0.3-0.2,0.5-0.5,0.5c0,0,0,0,0,0l0,0
		c-0.2,0.2-0.5,0.1-0.7-0.1c-0.1-0.1-0.1-0.3-0.1-0.4H253.8z"/>
	<path id="elbcr34ssz9v5" class="st3" d="M250,301.5c-0.1,0-0.1,0-0.2,0c-0.1,0-0.1-0.1-0.2-0.1c0,0-0.1-0.1-0.1-0.2
		c0-0.1,0-0.1,0-0.2c0-0.1,0-0.1,0-0.2c0-0.1,0.1-0.1,0.1-0.2c0,0,0.1-0.1,0.2-0.1c0.1-0.1,0.3-0.1,0.4,0c0.1,0,0.1,0.1,0.2,0.1
		c0.1,0.1,0.2,0.2,0.1,0.4c0,0.1,0,0.1,0,0.2c0,0.1-0.1,0.1-0.1,0.2c0,0-0.1,0.1-0.2,0.1C250.2,301.5,250.1,301.5,250,301.5z"/>
</g>
<g id="freepik--Cloud--inject-2">
	<path id="elmbyi49rra4" class="st3" d="M402.5,195.5c-0.3-32.9-27-59.4-59.9-59.4h-24.7C305,113.6,281,99.8,255.1,99.8H207v18.4
		c-11.3,10.1-19.2,23.5-22.5,38.3c-34.4,2-60.6,31.5-58.5,65.9c2,33.1,29.4,58.8,62.5,58.6h198.3c24.4,0,44.2-19.8,44.2-44.2
		C431,218.5,419.7,202.1,402.5,195.5L402.5,195.5z"/>
	<g id="elo3ko1bmabk">
		<path class="st9" d="M402.5,195.5c-0.3-32.9-27-59.4-59.9-59.4h-24.7C305,113.6,281,99.8,255.1,99.8H207v18.4
			c-11.3,10.1-19.2,23.5-22.5,38.3c-34.4,2-60.6,31.5-58.5,65.9c2,33.1,29.4,58.8,62.5,58.6h198.3c24.4,0,44.2-19.8,44.2-44.2
			C431,218.5,419.7,202.1,402.5,195.5L402.5,195.5z"/>
	</g>
	<path id="elwj8peh4t6mc" class="st3" d="M354.4,195.5c-0.3-33.1-27.3-59.7-60.4-59.4c-7.5,0.1-15,1.5-21.9,4.4
		c-17.5-35.9-60.9-50.9-96.8-33.3c-19.8,9.7-34.1,27.8-38.9,49.3c-34.4,1.8-60.8,31.1-59,65.5c1.7,33.4,29.6,59.5,63.1,59.1h198.3
		c24.4,0,44.2-19.8,44.2-44.2C382.8,218.5,371.5,202.1,354.4,195.5L354.4,195.5z"/>
	<g>
		<defs>
			<path id="SVGID_1_" d="M354.4,195.5c-0.3-33.1-27.3-59.7-60.4-59.4c-7.5,0.1-15,1.5-21.9,4.4c-17.5-35.9-60.9-50.9-96.8-33.3
				c-19.8,9.7-34.1,27.8-38.9,49.3c-34.4,1.8-60.8,31.1-59,65.5c1.7,33.4,29.6,59.5,63.1,59.1h198.3c24.4,0,44.2-19.8,44.2-44.2
				C382.8,218.5,371.5,202.1,354.4,195.5L354.4,195.5z"/>
		</defs>
		<clipPath id="SVGID_2_">
			<use xlink:href="#SVGID_1_"  style="overflow:visible;"/>
		</clipPath>
		<g id="elnwgo559syig" class="st10">
			<g id="el968pqidtjnv">
				<path class="st11" d="M402.5,195.5c-0.3-33.1-27.4-59.7-60.4-59.4c-7.5,0.1-14.9,1.5-21.9,4.3c-17.5-35.9-60.9-50.9-96.8-33.3
					c-19.8,9.7-34.1,27.8-38.9,49.3c-34.4,1.8-60.8,31.1-59,65.5c1.7,33.4,29.6,59.5,63,59.1h198.3c24.4,0,44.2-19.8,44.2-44.2
					C431,218.5,419.7,202.1,402.5,195.5L402.5,195.5z"/>
			</g>
		</g>
	</g>
	<path id="elr06eowvzsb" class="st3" d="M338.6,282H140.3c-35,0-63.3-28.3-63.4-63.2c0-33.1,25.5-60.7,58.5-63.2
		c7.7-33.3,37.4-56.8,71.5-56.8c27.8-0.1,53.2,15.6,65.5,40.4c31.4-12.1,66.6,3.5,78.8,34.8c2.6,6.6,4,13.7,4.1,20.8
		c23.2,9.2,34.6,35.4,25.4,58.6C374,270.7,357.2,282.1,338.6,282z M207,100.8c-33.4,0.2-62.3,23.3-69.7,55.9
		c-0.1,0.4-0.5,0.7-0.9,0.8c-33.8,2.2-59.4,31.4-57.2,65.2c2.1,32.3,28.9,57.4,61.2,57.4h198.3c23.9,0,43.2-19.4,43.2-43.2
		c0-17.9-11.1-34-27.8-40.3c-0.4-0.1-0.6-0.5-0.6-0.9c-0.3-32.6-27-58.7-59.6-58.4c-7.3,0.1-14.6,1.5-21.4,4.3c-0.5,0.2-1,0-1.2-0.5
		C259.3,116.3,234.3,100.7,207,100.8z"/>
	<g id="elg2wfzijgn">
		<path class="st9" d="M338.6,282H140.3c-35,0-63.3-28.3-63.4-63.2c0-33.1,25.5-60.7,58.5-63.2c7.7-33.3,37.4-56.8,71.5-56.8
			c27.8-0.1,53.2,15.6,65.5,40.4c31.4-12.1,66.6,3.5,78.8,34.8c2.6,6.6,4,13.7,4.1,20.8c23.2,9.2,34.6,35.4,25.4,58.6
			C374,270.7,357.2,282.1,338.6,282z M207,100.8c-33.4,0.2-62.3,23.3-69.7,55.9c-0.1,0.4-0.5,0.7-0.9,0.8
			c-33.8,2.2-59.4,31.4-57.2,65.2c2.1,32.3,28.9,57.4,61.2,57.4h198.3c23.9,0,43.2-19.4,43.2-43.2c0-17.9-11.1-34-27.8-40.3
			c-0.4-0.1-0.6-0.5-0.6-0.9c-0.3-32.6-27-58.7-59.6-58.4c-7.3,0.1-14.6,1.5-21.4,4.3c-0.5,0.2-1,0-1.2-0.5
			C259.3,116.3,234.3,100.7,207,100.8z"/>
	</g>
	<g id="elw8eduv24xxl">
		<path class="st1" d="M186.1,192.6H202l0,0V280l0,0h-15.9c-2.5,0-4.4-2-4.4-4.5l0,0V197C181.7,194.6,183.7,192.6,186.1,192.6z"/>
	</g>
	<path id="el7brpvyji4kh" class="st4" d="M149,192.6h34.3c2.5,0,4.4,2,4.4,4.4v78.5c0,2.5-2,4.5-4.4,4.5H149c-2.5,0-4.4-2-4.4-4.5
		v-78.5C144.5,194.6,146.5,192.6,149,192.6z"/>
	<rect id="ele1y7i20kuz" x="144.5" y="261.9" class="st1" width="43.2" height="0.8"/>
	<rect id="elto9rfca6ub" x="144.5" y="244.6" class="st1" width="43.2" height="0.8"/>
	<rect id="el5djo12ud2uj" x="144.5" y="227.2" class="st1" width="43.2" height="0.8"/>
	<rect id="elpf7vni7s0ip" x="144.5" y="209.9" class="st1" width="43.2" height="0.8"/>
	<g id="el1se4g4ad227">
		<path class="st12" d="M166.1,204.3h-14.4c-0.9,0-1.6,0.8-1.6,1.7c0,0,0,0,0,0l0,0c0,0.9,0.7,1.6,1.6,1.6h14.4
			c0.9,0,1.6-0.7,1.6-1.6l0,0C167.8,205.1,167.1,204.3,166.1,204.3C166.1,204.3,166.1,204.3,166.1,204.3z"/>
	</g>
	<g id="elyek93ocmg3">
		<path class="st12" d="M166.1,200h-14.4c-0.9,0-1.6,0.7-1.6,1.6l0,0c0,0.9,0.7,1.6,1.6,1.6h14.4c0.9,0,1.6-0.7,1.6-1.6l0,0
			C167.7,200.7,167,200,166.1,200z"/>
	</g>
	<g id="el60t1lyq8x7b">
		<path class="st12" d="M166.1,195.7h-14.4c-0.9,0-1.6,0.7-1.6,1.6l0,0c0,0.9,0.7,1.6,1.6,1.6h14.4c0.9,0,1.6-0.7,1.6-1.6l0,0
			C167.7,196.5,167,195.7,166.1,195.7z"/>
	</g>
	<g id="eldo1lvsqnev">
		<rect x="169.2" y="204.3" class="st0" width="6" height="3.3"/>
	</g>
	<g id="elsp6jxrcb0kk">
		<rect x="169.2" y="200" class="st3" width="6" height="3.3"/>
	</g>
	<g id="el0kjay7wq1uf8">
		<rect x="169.2" y="195.7" class="st0" width="6" height="3.3"/>
	</g>
	<g id="el6m2arjs9iuu">
		<rect x="176.2" y="204.3" class="st0" width="6" height="3.3"/>
	</g>
	<g id="elecr0lxcxrx">
		<rect x="176.2" y="200" class="st0" width="6" height="3.3"/>
	</g>
	<g id="elknhhcg289rn">
		<rect x="176.2" y="195.7" class="st3" width="6" height="3.3"/>
	</g>
	<path id="eleen7fk59x3" class="st0" d="M166.1,221.6h-14.4c-0.9,0-1.6,0.7-1.6,1.6l0,0c0,0.9,0.7,1.6,1.6,1.6h14.4
		c0.9,0,1.6-0.7,1.6-1.6l0,0C167.7,222.4,167,221.6,166.1,221.6z"/>
	<g id="elce40882lmo">
		<path class="st12" d="M166.1,217.3h-14.4c-0.9,0-1.6,0.8-1.6,1.7l0,0c0,0.9,0.7,1.6,1.6,1.6h14.4c0.9,0,1.6-0.7,1.6-1.6l0,0
			C167.8,218.1,167,217.3,166.1,217.3C166.1,217.3,166.1,217.3,166.1,217.3z"/>
	</g>
	<g id="eldsfhbg6v2za">
		<path class="st12" d="M166.1,213.1h-14.4c-0.9,0-1.6,0.8-1.6,1.6l0,0c0,0.9,0.7,1.6,1.6,1.6h14.4c0.9,0,1.6-0.7,1.6-1.6l0,0
			C167.7,213.8,167,213,166.1,213.1C166.1,213,166.1,213,166.1,213.1z"/>
	</g>
	<g id="elinateojbez">
		<rect x="169.2" y="221.6" class="st0" width="6" height="3.3"/>
	</g>
	<g id="elckr9cw280u8">
		<rect x="169.2" y="217.3" class="st0" width="6" height="3.3"/>
	</g>
	<g id="elww96p7cf38i">
		<rect x="169.2" y="213.1" class="st3" width="6" height="3.3"/>
	</g>
	<g id="elvv069uo1hmb">
		<rect x="176.2" y="221.6" class="st0" width="6" height="3.3"/>
	</g>
	<g id="elcxk4l0oyllp">
		<rect x="176.2" y="217.3" class="st0" width="6" height="3.3"/>
	</g>
	<g id="elfxztkx53fe">
		<rect x="176.2" y="213.1" class="st0" width="6" height="3.3"/>
	</g>
	<g id="el873byi0ul6b">
		<path class="st12" d="M166.1,238.9h-14.4c-0.9,0-1.6,0.7-1.6,1.6l0,0c0,0.9,0.7,1.6,1.6,1.6h14.4c0.9,0,1.6-0.7,1.6-1.6l0,0
			C167.7,239.7,167,238.9,166.1,238.9z"/>
	</g>
	<g id="elumh0fhkmxr">
		<path class="st12" d="M166.1,234.6h-14.4c-0.9,0-1.6,0.8-1.6,1.7l0,0c0,0.9,0.7,1.6,1.6,1.6h14.4c0.9,0,1.6-0.7,1.6-1.6l0,0
			C167.7,235.4,167,234.6,166.1,234.6C166.1,234.6,166.1,234.6,166.1,234.6z"/>
	</g>
	<g id="el2j91z1uat1c">
		<path class="st12" d="M166.1,230.4h-14.4c-0.9,0-1.6,0.7-1.6,1.6l0,0c0,0.9,0.7,1.6,1.6,1.6h14.4c0.9,0,1.6-0.7,1.6-1.6l0,0
			C167.7,231.1,167,230.4,166.1,230.4C166.1,230.4,166.1,230.4,166.1,230.4z"/>
	</g>
	<g id="elh8ju0k0ynv">
		<rect x="169.2" y="238.9" class="st0" width="6" height="3.3"/>
	</g>
	<g id="ela019idv3ol7">
		<rect x="169.2" y="234.6" class="st3" width="6" height="3.3"/>
	</g>
	<g id="elhfnsiw5fpjp">
		<rect x="169.2" y="230.4" class="st0" width="6" height="3.3"/>
	</g>
	<g id="elj7zy1yy1crj">
		<rect x="176.2" y="238.9" class="st0" width="6" height="3.3"/>
	</g>
	<g id="elhvapu3oy7p4">
		<rect x="176.2" y="234.6" class="st0" width="6" height="3.3"/>
	</g>
	<g id="elvb77aiyw0bd">
		<rect x="176.2" y="230.4" class="st3" width="6" height="3.3"/>
	</g>
	<g id="elhakmsy64qru">
		<path class="st12" d="M166.1,256.3h-14.4c-0.9,0-1.6,0.7-1.6,1.6l0,0c0,0.9,0.7,1.6,1.6,1.6h14.4c0.9,0,1.6-0.7,1.6-1.6l0,0
			C167.7,257,167,256.3,166.1,256.3z"/>
	</g>
	<g id="elo0ubz5a58g">
		<path class="st12" d="M151.6,252h14.4c0.9,0,1.6,0.7,1.6,1.6v0c0,0.9-0.7,1.6-1.6,1.6h-14.4c-0.9,0-1.6-0.7-1.6-1.6v0
			C150,252.7,150.7,252,151.6,252z"/>
	</g>
	<g id="el90mpmur4z9n">
		<path class="st12" d="M166.1,247.7h-14.4c-0.9,0-1.6,0.7-1.6,1.6c0,0,0,0,0,0l0,0c0,0.9,0.7,1.6,1.6,1.6h14.4
			c0.9,0,1.6-0.7,1.6-1.6l0,0C167.7,248.4,167,247.7,166.1,247.7C166.1,247.7,166.1,247.7,166.1,247.7z"/>
	</g>
	<g id="el04gjp9g7xk2x">
		<rect x="169.2" y="256.3" class="st0" width="6" height="3.3"/>
	</g>
	<g id="els8cgq899sdk">
		<rect x="169.2" y="252" class="st3" width="6" height="3.3"/>
	</g>
	<g id="elp6ermdsa8ja">
		<rect x="169.2" y="247.7" class="st0" width="6" height="3.3"/>
	</g>
	<g id="elamkvgreds2">
		<rect x="176.2" y="256.3" class="st3" width="6" height="3.3"/>
	</g>
	<g id="eliego8irpef">
		<rect x="176.2" y="252" class="st0" width="6" height="3.3"/>
	</g>
	<g id="el2b5kpwgi4pa">
		<rect x="176.2" y="247.7" class="st3" width="6" height="3.3"/>
	</g>
	<g id="el2281tei68vk">
		<path class="st12" d="M166.1,273.6h-14.4c-0.9,0-1.6,0.7-1.6,1.6l0,0c0,0.9,0.7,1.6,1.6,1.6c0,0,0,0,0,0h14.4
			c0.9,0,1.6-0.7,1.6-1.6c0,0,0,0,0,0l0,0C167.7,274.3,167,273.6,166.1,273.6z"/>
	</g>
	<g id="elledp6xidvrl">
		<path class="st12" d="M166.1,269.3h-14.4c-0.9,0-1.6,0.7-1.6,1.6l0,0c0,0.9,0.7,1.6,1.6,1.6h14.4c0.9,0,1.6-0.7,1.6-1.6l0,0
			C167.7,270,167,269.3,166.1,269.3z"/>
	</g>
	<g id="elj5ntx7kxo4">
		<path class="st12" d="M166.1,265h-14.4c-0.9,0-1.6,0.7-1.6,1.6l0,0c0,0.9,0.7,1.6,1.6,1.6h14.4c0.9,0,1.6-0.7,1.6-1.6l0,0
			C167.7,265.7,167,265,166.1,265z"/>
	</g>
	<g id="elaj1j4m3pmtf">
		<rect x="169.2" y="273.6" class="st3" width="6" height="3.3"/>
	</g>
	<g id="elf0au3rw3pca">
		<rect x="169.2" y="269.3" class="st0" width="6" height="3.3"/>
	</g>
	<g id="elvkvgjuv23cm">
		<rect x="169.2" y="265" class="st0" width="6" height="3.3"/>
	</g>
	<g id="ell8qs9r0qrd">
		<rect x="176.2" y="273.6" class="st0" width="6" height="3.3"/>
	</g>
	<g id="elqcfdwilndnl">
		<rect x="176.2" y="269.3" class="st0" width="6" height="3.3"/>
	</g>
	<g id="ele8n7ejycnr">
		<rect x="176.2" y="265" class="st3" width="6" height="3.3"/>
	</g>
	<g id="elgemegnpght9">
		<path class="st1" d="M250.4,151.3h23.4l0,0V280l0,0h-23.4c-3.6,0-6.5-2.9-6.5-6.5l0,0V157.9C243.9,154.3,246.8,151.3,250.4,151.3
			C250.4,151.3,250.4,151.3,250.4,151.3z"/>
	</g>
	<path id="el46bl50n8139" class="st4" d="M195.7,151.3h50.5c3.6,0,6.5,2.9,6.5,6.5v115.6c0,3.6-2.9,6.5-6.5,6.5h-50.5
		c-3.6,0-6.5-2.9-6.5-6.5V157.9C189.2,154.2,192.1,151.3,195.7,151.3z"/>
	<rect id="el8thdqpu8527" x="189.2" y="253.3" class="st1" width="63.6" height="1.2"/>
	<rect id="elvuo6h1y1s5" x="189.2" y="227.8" class="st1" width="63.6" height="1.2"/>
	<rect id="el7ytw1od5xik" x="189.2" y="202.3" class="st1" width="63.6" height="1.2"/>
	<rect id="el8sb1xln8s3q" x="189.2" y="176.8" class="st1" width="63.6" height="1.2"/>
	<g id="elt7r0qb1ws1q">
		<path class="st12" d="M220.9,168.6h-21.3c-1.3,0-2.4,1.1-2.4,2.4l0,0c0,1.3,1.1,2.4,2.4,2.4h21.3c1.3,0,2.4-1.1,2.4-2.4l0,0
			C223.3,169.6,222.2,168.6,220.9,168.6z"/>
	</g>
	<g id="el25ri9osf2k2">
		<path class="st12" d="M220.9,162.2h-21.3c-1.3,0-2.4,1.1-2.4,2.4l0,0c0,1.3,1.1,2.4,2.4,2.4h21.3c1.3,0,2.4-1.1,2.4-2.4l0,0
			C223.3,163.3,222.2,162.2,220.9,162.2z"/>
	</g>
	<g id="elljde1x1ztyd">
		<path class="st12" d="M220.9,155.9h-21.3c-1.3,0-2.4,1.1-2.4,2.4l0,0c0,1.3,1.1,2.4,2.4,2.4h21.3c1.3,0,2.4-1.1,2.4-2.4l0,0
			C223.3,157,222.2,155.9,220.9,155.9z"/>
	</g>
	<g id="elwwy8knmvtt">
		<rect x="225.6" y="168.6" class="st0" width="8.9" height="4.9"/>
	</g>
	<g id="elz3zu4jq9afq">
		<rect x="225.6" y="162.2" class="st3" width="8.9" height="4.9"/>
	</g>
	<g id="el0czueqtg0hm">
		<rect x="225.6" y="155.9" class="st0" width="8.9" height="4.9"/>
	</g>
	<g id="elbaxdr1cb0th">
		<rect x="235.9" y="168.6" class="st0" width="8.9" height="4.9"/>
	</g>
	<g id="elzeyssc3srvs">
		<rect x="235.9" y="162.2" class="st0" width="8.9" height="4.9"/>
	</g>
	<g id="elvl1iwlx9aml">
		<rect x="235.9" y="155.9" class="st3" width="8.9" height="4.9"/>
	</g>
	<g id="el8kfs30ydji4">
		<path class="st12" d="M220.9,194.1h-21.3c-1.3,0-2.4,1.1-2.4,2.4l0,0c0,1.3,1.1,2.4,2.4,2.4h21.3c1.3,0,2.4-1.1,2.4-2.4l0,0
			C223.3,195.1,222.2,194.1,220.9,194.1z"/>
	</g>
	<g id="eltfq8g1tdc7">
		<path class="st12" d="M220.9,187.7h-21.3c-1.3,0-2.4,1.1-2.4,2.4l0,0c0,1.3,1.1,2.4,2.4,2.4h21.3c1.3,0,2.4-1.1,2.4-2.4l0,0
			C223.3,188.8,222.2,187.7,220.9,187.7z"/>
	</g>
	<g id="elcvetxairr28">
		<path class="st12" d="M220.9,181.4h-21.3c-1.3,0-2.4,1.1-2.4,2.4l0,0c0,1.3,1.1,2.4,2.4,2.4h21.3c1.3,0,2.4-1.1,2.4-2.4l0,0
			C223.3,182.5,222.2,181.4,220.9,181.4z"/>
	</g>
	<g id="eljryhw7hs4i">
		<rect x="225.6" y="194.1" class="st0" width="8.9" height="4.9"/>
	</g>
	<g id="elcqi8x8jingb">
		<rect x="225.6" y="187.7" class="st0" width="8.9" height="4.9"/>
	</g>
	<g id="ell9l8xos1md">
		<rect x="225.6" y="181.4" class="st3" width="8.9" height="4.9"/>
	</g>
	<g id="elj4f4zt818tg">
		<rect x="235.9" y="194.1" class="st3" width="8.9" height="4.9"/>
	</g>
	<g id="eldz8gjf3z6pn">
		<rect x="235.9" y="187.7" class="st0" width="8.9" height="4.9"/>
	</g>
	<g id="eluwfab8bonca">
		<rect x="235.9" y="181.4" class="st3" width="8.9" height="4.9"/>
	</g>
	<g id="ellx2ifl93dn">
		<path class="st12" d="M220.9,219.6h-21.3c-1.3,0-2.4,1.1-2.4,2.4c0,0,0,0,0,0l0,0c0,1.3,1.1,2.4,2.4,2.4c0,0,0,0,0,0h21.3
			c1.3,0,2.4-1.1,2.4-2.4l0,0C223.3,220.6,222.2,219.5,220.9,219.6C220.9,219.5,220.9,219.5,220.9,219.6z"/>
	</g>
	<g id="ellvxnpvblba">
		<path class="st12" d="M220.9,213.2h-21.3c-1.3,0-2.4,1.1-2.4,2.4c0,0,0,0,0,0l0,0c0,1.3,1.1,2.4,2.4,2.4c0,0,0,0,0,0h21.3
			c1.3,0,2.4-1.1,2.4-2.4l0,0C223.3,214.3,222.2,213.2,220.9,213.2C220.9,213.2,220.9,213.2,220.9,213.2z"/>
	</g>
	<g id="elqvi3dipzt89">
		<path class="st12" d="M220.9,206.9h-21.3c-1.3,0-2.4,1.1-2.4,2.4c0,0,0,0,0,0l0,0c0,1.3,1.1,2.4,2.4,2.4c0,0,0,0,0,0h21.3
			c1.3,0,2.4-1.1,2.4-2.4c0,0,0,0,0,0l0,0C223.3,208,222.2,206.9,220.9,206.9z"/>
	</g>
	<g id="elksfgqsbyaz">
		<rect x="225.6" y="219.6" class="st3" width="8.9" height="4.9"/>
	</g>
	<g id="elojciila516">
		<rect x="225.6" y="213.2" class="st0" width="8.9" height="4.9"/>
	</g>
	<g id="el3vz81g26mwq">
		<rect x="225.6" y="206.9" class="st0" width="8.9" height="4.9"/>
	</g>
	<g id="el9xzqa09e5w">
		<rect x="235.9" y="219.6" class="st0" width="8.9" height="4.9"/>
	</g>
	<g id="el780nk8in95h">
		<rect x="235.9" y="213.2" class="st0" width="8.9" height="4.9"/>
	</g>
	<g id="el3qa9z4tlimh">
		<rect x="235.9" y="206.9" class="st3" width="8.9" height="4.9"/>
	</g>
	<g id="elkznppqvi3s">
		<path class="st12" d="M220.9,245h-21.3c-1.3,0-2.4,1.1-2.4,2.4l0,0c0,1.3,1.1,2.4,2.4,2.4h21.3c1.3,0,2.4-1.1,2.4-2.4l0,0
			C223.3,246.1,222.2,245,220.9,245z"/>
	</g>
	<path id="elpcafrlzb5l" class="st0" d="M220.9,238.7h-21.3c-1.3,0-2.4,1.1-2.4,2.4l0,0c0,1.3,1.1,2.4,2.4,2.4h21.3
		c1.3,0,2.4-1.1,2.4-2.4l0,0C223.3,239.8,222.2,238.7,220.9,238.7z"/>
	<g id="el8ci1gz1ob19">
		<path class="st12" d="M220.9,232.4h-21.3c-1.3,0-2.4,1.1-2.4,2.4l0,0c0,1.3,1.1,2.4,2.4,2.4h21.3c1.3,0,2.4-1.1,2.4-2.4l0,0
			C223.3,233.5,222.2,232.4,220.9,232.4z"/>
	</g>
	<g id="ell9tln5ce8k9">
		<rect x="225.6" y="245" class="st0" width="8.9" height="4.9"/>
	</g>
	<g id="el23m4usywx6c">
		<rect x="225.6" y="238.7" class="st3" width="8.9" height="4.9"/>
	</g>
	<g id="elp7i4yh3ph4f">
		<rect x="225.6" y="232.4" class="st0" width="8.9" height="4.9"/>
	</g>
	<g id="elabni8w0f2g4">
		<rect x="235.9" y="245" class="st3" width="8.9" height="4.9"/>
	</g>
	<g id="elgmbri0wgjs">
		<rect x="235.9" y="238.7" class="st3" width="8.9" height="4.9"/>
	</g>
	<g id="el91uvtc6czf">
		<rect x="235.9" y="232.4" class="st0" width="8.9" height="4.9"/>
	</g>
	<g id="elflsfgbau6pt">
		<path class="st12" d="M220.9,270.5h-21.3c-1.3,0-2.4,1.1-2.4,2.4l0,0c0,1.3,1.1,2.4,2.4,2.4h21.3c1.3,0,2.4-1.1,2.4-2.4l0,0
			C223.3,271.6,222.2,270.5,220.9,270.5z"/>
	</g>
	<g id="elw56k1ky96l">
		<path class="st12" d="M220.9,264.2h-21.3c-1.3,0-2.4,1.1-2.4,2.4l0,0c0,1.3,1.1,2.4,2.4,2.4h21.3c1.3,0,2.4-1.1,2.4-2.4l0,0
			C223.3,265.3,222.2,264.2,220.9,264.2z"/>
	</g>
	<g id="ely253zat4ffo">
		<path class="st12" d="M220.9,257.9h-21.3c-1.3,0-2.4,1.1-2.4,2.4l0,0c0,1.3,1.1,2.4,2.4,2.4h21.3c1.3,0,2.4-1.1,2.4-2.4l0,0
			C223.3,259,222.2,257.9,220.9,257.9z"/>
	</g>
	<g id="eli0uskg1zwo">
		<rect x="225.6" y="270.5" class="st0" width="8.9" height="4.9"/>
	</g>
	<g id="eltn45k3udsgg">
		<rect x="225.6" y="264.2" class="st0" width="8.9" height="4.9"/>
	</g>
	<g id="el71b7jqerwpd">
		<rect x="225.6" y="257.9" class="st0" width="8.9" height="4.9"/>
	</g>
	<g id="ele8q0yrzky4l">
		<rect x="235.9" y="270.5" class="st0" width="8.9" height="4.9"/>
	</g>
	<g id="elaghvyipzaxu">
		<rect x="235.9" y="264.2" class="st0" width="8.9" height="4.9"/>
	</g>
	<g id="el9wpfw2bms4">
		<rect x="235.9" y="257.9" class="st3" width="8.9" height="4.9"/>
	</g>
	<g id="elglp1rip0o8">
		<path class="st1" d="M307.9,168.1h20.4l0,0V280l0,0h-20.4c-3.1,0-5.7-2.5-5.7-5.7l0,0V173.8C302.2,170.6,304.7,168.1,307.9,168.1
			C307.9,168.1,307.9,168.1,307.9,168.1z"/>
	</g>
	<path id="elotpoo0js4l" class="st4" d="M260.3,168.1h43.9c3.1,0,5.7,2.5,5.7,5.7v100.5c0,3.1-2.5,5.7-5.7,5.7h-43.9
		c-3.1,0-5.7-2.5-5.7-5.7V173.8C254.6,170.6,257.2,168.1,260.3,168.1z"/>
	<rect id="eltp14umhhy5r" x="254.6" y="256.8" class="st1" width="55.3" height="1"/>
	<rect id="elsefvnwvntdi" x="254.6" y="234.6" class="st1" width="55.3" height="1"/>
	<rect id="elux4gmw21q8" x="254.6" y="212.4" class="st1" width="55.3" height="1"/>
	<rect id="elwtsvo4nvcm9" x="254.6" y="190.3" class="st1" width="55.3" height="1"/>
	<g id="elqmrereizls">
		<path class="st12" d="M282.2,183.1h-18.5c-1.2,0-2.1,0.9-2.1,2.1l0,0c0,1.2,0.9,2.1,2.1,2.1h18.5c1.2,0,2.1-0.9,2.1-2.1l0,0
			C284.3,184,283.4,183.1,282.2,183.1z"/>
	</g>
	<g id="el2andv4hdhzb">
		<path class="st12" d="M282.2,177.6h-18.5c-1.2,0-2.1,0.9-2.1,2.1l0,0c0,1.2,0.9,2.1,2.1,2.1h18.5c1.2,0,2.1-0.9,2.1-2.1l0,0
			C284.3,178.5,283.4,177.6,282.2,177.6z"/>
	</g>
	<g id="elupiw2ivz3">
		<path class="st12" d="M282.2,172.1h-18.5c-1.2,0-2.1,0.9-2.1,2.1l0,0c0,1.2,0.9,2.1,2.1,2.1h18.5c1.2,0,2.1-1,2.1-2.1l0,0
			C284.3,173,283.4,172.1,282.2,172.1z"/>
	</g>
	<g id="ellddahcrvdo">
		<rect x="286.3" y="260.8" class="st0" width="7.7" height="4.2"/>
	</g>
	<g id="elqygi4w282ll">
		<rect x="286.3" y="266.3" class="st3" width="7.7" height="4.2"/>
	</g>
	<g id="eluv8z4v6c7gg">
		<rect x="286.3" y="271.8" class="st0" width="7.7" height="4.2"/>
	</g>
	<g id="elnehy20c1fu">
		<rect x="295.3" y="260.8" class="st0" width="7.7" height="4.2"/>
	</g>
	<g id="elaynt4ies4dj">
		<rect x="295.3" y="266.3" class="st0" width="7.7" height="4.2"/>
	</g>
	<g id="elgmjhmm05i8">
		<rect x="295.3" y="271.8" class="st3" width="7.7" height="4.2"/>
	</g>
	<path id="el2vsdchmtlo7" class="st0" d="M282.2,205.2h-18.5c-1.2,0-2.1,1-2.1,2.1l0,0c0,1.2,0.9,2.1,2.1,2.1h18.5
		c1.2,0,2.1-0.9,2.1-2.1l0,0C284.3,206.2,283.4,205.2,282.2,205.2z"/>
	<g id="elot4qa35mmz">
		<path class="st12" d="M282.2,199.8h-18.5c-1.2,0-2.1,0.9-2.1,2.1l0,0c0,1.2,0.9,2.1,2.1,2.1h18.5c1.2,0,2.1-0.9,2.1-2.1l0,0
			C284.3,200.7,283.4,199.8,282.2,199.8z"/>
	</g>
	<g id="elw33mhsb4xo">
		<path class="st12" d="M282.2,194.3h-18.5c-1.2,0-2.1,0.9-2.1,2.1l0,0c0,1.2,0.9,2.1,2.1,2.1h18.5c1.2,0,2.1-0.9,2.1-2.1l0,0
			C284.3,195.2,283.4,194.3,282.2,194.3z"/>
	</g>
	<g id="elgg2s2xt2z7d">
		<rect x="286.3" y="238.6" class="st0" width="7.7" height="4.2"/>
	</g>
	<g id="el1wjbpdu4lbv">
		<rect x="286.3" y="244.1" class="st0" width="7.7" height="4.2"/>
	</g>
	<g id="el3inu7ykbk3x">
		<rect x="286.3" y="249.6" class="st3" width="7.7" height="4.2"/>
	</g>
	<g id="elfc1rn2h0rtq">
		<rect x="295.3" y="238.6" class="st3" width="7.7" height="4.2"/>
	</g>
	<g id="eltdrop760ar">
		<rect x="295.3" y="244.1" class="st0" width="7.7" height="4.2"/>
	</g>
	<g id="elyolgkf6536q">
		<rect x="295.3" y="249.6" class="st3" width="7.7" height="4.2"/>
	</g>
	<g id="elag4evg2qyxm">
		<path class="st12" d="M282.2,227.4h-18.5c-1.2,0-2.1,0.9-2.1,2.1l0,0c0,1.2,0.9,2.1,2.1,2.1h18.5c1.2,0,2.1-0.9,2.1-2.1l0,0
			C284.3,228.4,283.4,227.4,282.2,227.4z"/>
	</g>
	<g id="elx7cvjurl1bt">
		<path class="st12" d="M282.2,221.9h-18.5c-1.2,0-2.1,0.9-2.1,2.1l0,0c0,1.2,0.9,2.1,2.1,2.1h18.5c1.2,0,2.1-1,2.1-2.1l0,0
			C284.3,222.9,283.4,221.9,282.2,221.9z"/>
	</g>
	<g id="elzcotzzjccvn">
		<path class="st12" d="M282.2,216.4h-18.5c-1.2,0-2.1,0.9-2.1,2.1l0,0c0,1.2,0.9,2.1,2.1,2.1h18.5c1.2,0,2.1-0.9,2.1-2.1l0,0
			C284.3,217.4,283.4,216.5,282.2,216.4z"/>
	</g>
	<g id="eler194mdowo">
		<rect x="286.3" y="216.4" class="st3" width="7.7" height="4.2"/>
	</g>
	<g id="elvi6ijz1bmcj">
		<rect x="286.3" y="221.9" class="st0" width="7.7" height="4.2"/>
	</g>
	<g id="el0p5tae5jnld">
		<rect x="286.3" y="227.4" class="st0" width="7.7" height="4.2"/>
	</g>
	<g id="el8l3jdyxgv82">
		<rect x="295.3" y="216.4" class="st0" width="7.7" height="4.2"/>
	</g>
	<g id="eldnyte3opv8">
		<rect x="295.3" y="221.9" class="st0" width="7.7" height="4.2"/>
	</g>
	<g id="el4n4h6rwlgzc">
		<rect x="295.3" y="227.4" class="st3" width="7.7" height="4.2"/>
	</g>
	<g id="elgqup90as2fj">
		<path class="st12" d="M282.2,249.6h-18.5c-1.2,0-2.1,0.9-2.1,2.1l0,0c0,1.2,0.9,2.1,2.1,2.1h18.5c1.2,0,2.1-0.9,2.1-2.1l0,0
			C284.3,250.5,283.4,249.6,282.2,249.6z"/>
	</g>
	<g id="elm9ncywo6wu">
		<path class="st12" d="M282.2,244.1h-18.5c-1.2,0-2.1,0.9-2.1,2.1l0,0c0,1.2,0.9,2.1,2.1,2.1h18.5c1.2,0,2.1-0.9,2.1-2.1l0,0
			C284.3,245.1,283.4,244.1,282.2,244.1z"/>
	</g>
	<g id="eltbd0eu8c7nh">
		<path class="st12" d="M282.2,238.6h-18.5c-1.2,0-2.1,0.9-2.1,2.1l0,0c0,1.2,0.9,2.1,2.1,2.1h18.5c1.2,0,2.1-1,2.1-2.1l0,0
			C284.3,239.6,283.4,238.6,282.2,238.6z"/>
	</g>
	<g id="elcql45846rhu">
		<rect x="286.3" y="194.3" class="st0" width="7.7" height="4.2"/>
	</g>
	<g id="el2nn9q7973i2">
		<rect x="286.3" y="199.8" class="st3" width="7.7" height="4.2"/>
	</g>
	<g id="el45u43587j37">
		<rect x="286.3" y="205.2" class="st0" width="7.7" height="4.2"/>
	</g>
	<g id="eltj5wmoo0qt">
		<rect x="295.3" y="194.3" class="st3" width="7.7" height="4.2"/>
	</g>
	<g id="el1ch70kjqa51">
		<rect x="295.3" y="199.8" class="st0" width="7.7" height="4.2"/>
	</g>
	<g id="elhofd7o2csnl">
		<rect x="295.3" y="205.2" class="st0" width="7.7" height="4.2"/>
	</g>
	<g id="el2ojt7lffx69">
		<path class="st12" d="M282.2,271.8h-18.5c-1.2,0-2.1,0.9-2.1,2.1l0,0c0,1.2,0.9,2.1,2.1,2.1h18.5c1.2,0,2.1-1,2.1-2.1l0,0
			C284.3,272.7,283.4,271.8,282.2,271.8z"/>
	</g>
	<g id="ela3je0z2bxf">
		<path class="st12" d="M282.2,266.3h-18.5c-1.2,0-2.1,0.9-2.1,2.1l0,0c0,1.2,0.9,2.1,2.1,2.1h18.5c1.2,0,2.1-0.9,2.1-2.1l0,0
			C284.3,267.2,283.4,266.3,282.2,266.3z"/>
	</g>
	<g id="el88rvotyj2n2">
		<path class="st12" d="M263.7,260.8h18.5c1.2,0,2.1,0.9,2.1,2.1v0c0,1.2-0.9,2.1-2.1,2.1h-18.5c-1.2,0-2.1-0.9-2.1-2.1v0
			C261.6,261.7,262.6,260.8,263.7,260.8z"/>
	</g>
	<g id="el0zm35i6a4mk">
		<rect x="286.3" y="172.1" class="st3" width="7.7" height="4.2"/>
	</g>
	<g id="el38oslma00r4">
		<rect x="286.3" y="177.6" class="st0" width="7.7" height="4.2"/>
	</g>
	<g id="elzutw12ugrjm">
		<rect x="286.3" y="183.1" class="st0" width="7.7" height="4.2"/>
	</g>
	<g id="el4h3ho7bdvzi">
		<rect x="295.3" y="172.1" class="st0" width="7.7" height="4.2"/>
	</g>
	<g id="el923je5hnipb">
		<rect x="295.3" y="177.6" class="st0" width="7.7" height="4.2"/>
	</g>
	<g id="elndueqrorv0o">
		<rect x="295.3" y="183.1" class="st3" width="7.7" height="4.2"/>
	</g>
</g>
</svg>
