<?xml version="1.0" encoding="utf-8"?>
<!-- Generator: Adobe Illustrator 24.2.1, SVG Export Plug-In . SVG Version: 6.00 Build 0)  -->
<svg version="1.1" id="freepik_stories-monitor-computer" xmlns:svgjs="http://svgjs.com/svgjs"
	 xmlns="http://www.w3.org/2000/svg" xmlns:xlink="http://www.w3.org/1999/xlink" x="0px" y="0px" viewBox="0 0 500 500"
	 style="enable-background:new 0 0 500 500;" xml:space="preserve">
<style type="text/css">
	.st0{fill:#EBEBEB;}
	.st1{fill:#E0E0E0;}
	.st2{fill:#F5F5F5;}
	.st3{fill:#263238;}
	.st4{fill:#455A64;}
	.st5{fill:#3EAFF3;}
	.st6{opacity:0.2;}
	.st7{fill:#FFFFFF;}
	.st8{fill:#FAFAFA;}
	.st9{fill:#FFBE9D;}
	.st10{fill:#EB996E;}
	.st11{opacity:0.3;}
</style>
<g id="freepik--background-complete--inject-16">
	<rect id="elo81nnfm1ur9" x="49" y="228.2" class="st0" width="48.7" height="12.9"/>
	<path id="el3wix2aem9vm" class="st1" d="M77.1,254.6c0,0,0-0.1,0-0.2v-0.7c0-0.6,0-1.4,0-2.5c0-2.2,0-5.4-0.1-9.4l0.2,0.1L28.5,242
		l0.3-0.2l0,0v3.2c0,1.1,0,2.2,0,3.3v6.3l-0.2-0.3l34.7,0.1l10.2,0.1h2.8h0.7L77.1,254.6l-0.2-0.1h-0.7h-2.7l-10.2,0.1l-34.8,0.1
		h-0.2v-0.2c0-2.1,0-4.2,0-6.3v-6.5l0,0l0.3-0.3l48.7,0.1h0.2v0.1c0,4.1-0.1,7.3-0.1,9.5c0,1.1,0,1.9,0,2.5c0,0.3,0,0.5,0,0.6
		C77.2,254.4,77.2,254.5,77.1,254.6z"/>
	<rect id="ely1ze3wxhs6r" x="231.8" y="32" class="st0" width="48.6" height="12.9"/>
	<path id="elggmakk03c1f" class="st1" d="M259.9,58.4c0-0.1,0-0.2,0-0.2v-0.7c0-0.6,0-1.5,0-2.5c0-2.2,0-5.4-0.1-9.5l0.1,0.2
		l-48.6,0.1l0.3-0.3l0,0v6.5c0,2.1,0,4.3,0,6.3l-0.2-0.2l34.7,0.1l10.2,0.1h2.8h0.7L259.9,58.4c0.1-0.1,0-0.1-0.1-0.1H259h-2.7
		l-10.2,0.1l-34.8,0.1H211v-0.3c0-2.1,0-4.2,0-6.3v-6.4l0,0l0.3-0.3l48.6,0.1h0.1v0.2c0,4.1-0.1,7.3-0.1,9.5c0,1.1,0,1.9,0,2.5
		c0,0.3,0,0.5,0,0.6S259.9,58.4,259.9,58.4z"/>
	<rect id="els9biwox5wy" x="423.7" y="65.8" class="st2" width="48.6" height="12.9"/>
	<path id="el0obcoqhzft2" class="st1" d="M451.8,65.5c0-0.1,0-0.2,0-0.2v-0.7c0-0.6,0-1.5,0-2.5c0-2.2,0-5.4-0.1-9.5l0.1,0.2
		l-48.6,0.1c0.1-0.1-0.3,0.3,0.2-0.3l0,0v12.9l-0.2-0.2l34.7,0.1l10.2,0.1h2.8h0.7L451.8,65.5c0-0.1-0.1-0.1-0.2-0.1h-0.7h-2.7
		L438,65.7l-34.8,0.1h-0.3V52.7l0,0c0.5-0.5,0.1-0.1,0.3-0.2l48.6,0.1h0.1v0.2c0,4.1-0.1,7.3-0.1,9.5c0,1.1,0,1.9,0,2.5
		c0,0.3,0,0.5,0,0.6C451.8,65.4,451.8,65.5,451.8,65.5z"/>
	<path id="el550mfd77oj" class="st1" d="M90.3,69.2c0-0.1,0-0.2,0-0.2v-0.7c0-0.6,0-1.4,0-2.5c0-2.2,0-5.4-0.1-9.5l0.2,0.2
		l-48.7,0.1c0.1-0.1-0.3,0.3,0.2-0.3l0,0v12.9L41.6,69l34.7,0.1l10.2,0.1h2.8H90L90.3,69.2c-0.1,0-0.2,0-0.2,0h-0.7h-2.7l-10.2,0.1
		l-34.8,0.1h-0.2v-6.5c0-1.1,0-2.2,0-3.2v-3.3l0,0c0.5-0.5,0.1-0.1,0.3-0.2l48.6,0.1h0.2v0.2c0,4.1-0.1,7.3-0.1,9.5
		c0,1.1,0,1.9,0,2.5c0,0.3,0,0.5,0,0.6C90.3,69.1,90.3,69.1,90.3,69.2z"/>
	<path id="elnhhte0w960h" class="st1" d="M477.7,267.9c0-0.1,0-0.2,0-0.2V267c0-0.6,0-1.5,0-2.5c0-2.2,0-5.4-0.1-9.4l0.1,0.1
		l-48.6,0.1l0.2-0.2l0,0v12.9l-0.2-0.3l34.7,0.1l10.2,0.1h2.8h0.7L477.7,267.9l-0.2-0.1h-0.7h-2.7l-10.2,0.1l-34.8,0.1h-0.3v-13l0,0
		l0.3-0.3l48.6,0.1h0.1v0.1c0,4.1-0.1,7.3-0.1,9.5c0,1.1,0,1.9,0,2.5c0,0.3,0,0.5,0,0.6C477.8,267.7,477.8,267.8,477.7,267.9z"/>
	<path id="elwp0x6c7in8" class="st1" d="M382.6,371.4c0-0.1,0-0.2,0-0.2v-0.7c0-0.6,0-1.5,0-2.5c0-2.2,0-5.4-0.1-9.4l0.1,0.1
		l-48.6,0.1c0.1-0.1-0.3,0.3,0.2-0.3l0,0v12.9l-0.2-0.2l34.7,0.1l10.2,0.1h2.8h0.7L382.6,371.4l-0.2-0.1h-0.7H379l-10.2,0.1
		l-34.8,0.1h-0.3v-12.9l0,0l0.3-0.3l48.6,0.1h0.1v0.1c0,4.1-0.1,7.3-0.1,9.5c0,1.1,0,1.9,0,2.5c0,0.3,0,0.5,0,0.6
		C382.7,371.2,382.6,371.3,382.6,371.4z"/>
	<path id="eliscmll4q43" class="st1" d="M122.9,162.5c0-0.1,0-0.2,0-0.2v-0.7c0-0.6,0-1.4,0-2.5c0-2.2,0-5.4-0.1-9.4l0.2,0.1
		l-48.7,0.1l0.3-0.3l0,0v3.3c0,1.1,0,2.2,0,3.3v6.3l-0.2-0.2l34.7,0.1l10.2,0.1h2.8h0.7L122.9,162.5c0.1,0,0,0-0.1,0H122h-2.7
		l-10.2,0.1l-34.8,0.1H74v-0.3c0-2.1,0-4.2,0-6.3v-6.5l0,0l0.3-0.3l48.7,0.1h0.2v0.1c0,4.1-0.1,7.3-0.1,9.5c0,1.1,0,1.9,0,2.5v0.6
		C122.9,162.5,122.9,162.5,122.9,162.5z"/>
	<path id="eli1u3o3xkvzj" class="st1" d="M129.5,149.7c0-0.1,0-0.2,0-0.2c0-0.2,0-0.4,0-0.7c0-0.6,0-1.5,0-2.6
		c0-2.3-0.1-5.4-0.1-9.4l0.2,0.2l-29.2,0.1c-0.2,0.2,0.3-0.3,0.2-0.3l0,0v6.6c0,2.1,0,4.2,0,6.2l-0.2-0.2l20.9,0.1l6.1,0.1h1.6
		L129.5,149.7c-0.1-0.1-0.3-0.1-0.4-0.1h-1.6l-6,0.1l-21.1,0.1H100v-0.2c0-2,0-4.1,0-6.2v-6.5l0,0l0.3-0.3l29.2,0.1h0.2v0.2
		c0,4-0.1,7.2-0.1,9.5c0,1.1,0,1.9,0,2.5S129.5,149.7,129.5,149.7z"/>
	<path id="elm31kggfy7yk" class="st0" d="M326.7,250.9c0,0-7.9-0.6-7.3,17.2s2.4,27.2,2.4,27.2s-0.3,3.9-3.3,3.2s-8.8-4.6-11.6-1.8
		s-1.9,7.5,2,12.9s11.9,17.5,12.6,18.6s1,3.1-1.2,2.9s-16.7-5.2-18.7,1.8s11.3,20.3,12.7,21.8s1.5,2.4,0.9,3.3s-5.3-1.3-9.5-2.5
		s-9.3-2-10.1,2.2s5,16.4,26.9,29.3l10.5,5.3l10-6.3c20.6-14.9,25.3-27.6,24.1-31.6s-6.2-2.9-10.3-1.3s-8.6,4.2-9.3,3.4
		s-0.7-1.8,0.6-3.4s13.3-16,10.7-22.8s-16.6-0.5-18.8-0.1s-2-1.6-1.4-2.8s7.5-14,10.9-19.7s4-10.4,0.8-13s-8.4,1.8-11.4,2.8
		s-3.6-2.8-3.6-2.8s0.9-9.6-0.1-27.3s-9-16.4-9-16.4"/>
	<path id="elw64inr9irv" class="st1" d="M327.2,266.8c0,0,0,0.1,0,0.4s0,0.6,0.1,1.1c0.1,1,0.1,2.4,0.3,4.2
		c0.2,3.6,0.5,8.9,0.8,15.4c0.7,13,1.4,31.1,2.2,51s1.5,37.9,2.1,51c0.3,6.5,0.5,11.8,0.7,15.5c0.1,1.8,0.1,3.2,0.2,4.2
		c0,0.5,0,0.8,0,1.1v0.4c0,0,0-0.1,0-0.4s0-0.6-0.1-1.1c-0.1-1-0.1-2.4-0.3-4.2c-0.2-3.6-0.5-8.9-0.8-15.4c-0.7-13-1.4-31.1-2.2-51
		s-1.5-37.9-2.1-51c-0.3-6.5-0.5-11.8-0.7-15.5c-0.1-1.8-0.1-3.2-0.2-4.2c0-0.5,0-0.8,0-1.1V266.8z"/>
	<path id="el1lc13h3wb6u" class="st1" d="M314.7,302.3c0.2,0.2,0.5,0.3,0.6,0.5c0.4,0.4,1,0.9,1.7,1.6c1.4,1.4,3.3,3.4,5.3,5.6
		l5.1,5.7l1.6,1.7c0.2,0.2,0.4,0.4,0.5,0.6c-0.2-0.2-0.5-0.3-0.7-0.5c-0.4-0.4-1-0.9-1.7-1.6c-1.4-1.4-3.2-3.4-5.2-5.6
		s-3.8-4.1-5.2-5.6l-1.6-1.7C315,302.8,314.8,302.6,314.7,302.3z"/>
	<path id="elxer4p843dm" class="st1" d="M330.6,317.8c-0.1-0.1,3.8-4.1,8.7-9s8.9-8.8,9-8.7s-3.8,4.1-8.7,9S330.7,317.8,330.6,317.8
		z"/>
	<path id="elq09ifr57sik" class="st1" d="M330.4,348.4c0.2-0.2,0.5-0.3,0.7-0.5l2.1-1.1c1.8-1,4.2-2.3,6.8-3.9s4.9-3.1,6.6-4.2
		l2-1.3c0.2-0.2,0.5-0.3,0.8-0.4c-0.2,0.2-0.4,0.4-0.7,0.6c-0.4,0.3-1.1,0.8-1.9,1.4c-1.6,1.2-3.9,2.7-6.5,4.3s-5.1,2.9-6.8,3.8
		c-0.9,0.5-1.6,0.8-2.1,1C331,348.2,330.7,348.3,330.4,348.4z"/>
	<path id="elk37kib86zl" class="st1" d="M313,337.6c0.3,0.1,0.5,0.2,0.7,0.4c0.5,0.2,1.1,0.6,1.9,1.1c1.6,0.9,3.8,2.2,6.2,3.7
		s4.6,2.8,6.2,3.8c0.8,0.5,1.4,0.9,1.8,1.2c0.2,0.1,0.5,0.3,0.6,0.5c-0.3-0.1-0.5-0.2-0.7-0.3c-0.5-0.3-1.1-0.6-1.9-1.1
		c-1.6-0.9-3.8-2.2-6.2-3.7s-4.6-2.8-6.2-3.8c-0.8-0.5-1.4-0.9-1.8-1.2C313.4,337.9,313.2,337.8,313,337.6z"/>
	<path id="elbdc3m9s674b" class="st1" d="M309.4,364.6c0.3,0.1,0.6,0.3,0.9,0.5l2.5,1.4c2.1,1.2,4.9,2.8,8,4.6s5.9,3.5,8,4.7
		l2.4,1.5c0.3,0.2,0.6,0.4,0.9,0.6c-0.3-0.1-0.6-0.3-0.9-0.5l-2.5-1.4c-2.1-1.2-4.9-2.8-8-4.6s-5.9-3.5-8-4.7l-2.4-1.5
		C309.9,365,309.6,364.8,309.4,364.6z"/>
	<path id="elr1tmhkutfy" class="st1" d="M331.5,377.4c0.3-0.2,0.6-0.4,0.9-0.6l2.6-1.5c2.2-1.3,5.2-3.1,8.4-5.2s6.2-4.1,8.3-5.5
		l2.5-1.7c0.3-0.2,0.6-0.4,0.9-0.6c-0.3,0.3-0.5,0.5-0.8,0.7c-0.6,0.4-1.4,1.1-2.4,1.8c-2,1.5-4.9,3.5-8.2,5.6s-6.3,3.9-8.5,5.1
		c-1.1,0.6-2,1.1-2.6,1.5C332.2,377.1,331.9,377.3,331.5,377.4z"/>
	<polygon id="el7ykutyxcf2k" class="st1" points="347.3,395.7 318.1,395.6 327.3,467.9 337.5,467.9 	"/>
	<path id="elwl1haijb77h" class="st2" d="M319.5,404.5c0,0,0,0.1,0.2,0.3c0.2,0.2,0.4,0.4,0.7,0.5c1,0.4,2.2,0.2,3.1-0.4
		c1.2-0.6,2.2-1.9,3.8-2.5c1.8-0.6,3.7-0.5,5.4,0.1c1.8,0.6,3.4,1.4,5,2.5c1.3,0.8,2.7,1.6,4.1,2.2c1,0.4,2,0.7,3,0.9
		c0.3,0,0.6,0.1,0.8,0.1c0.2,0,0.3,0,0.3,0c-1.4-0.2-2.7-0.6-4-1.2c-1.4-0.7-2.7-1.4-4-2.3c-1.6-1.1-3.3-1.9-5.1-2.5
		c-1.8-0.7-3.8-0.7-5.7-0.1c-0.8,0.3-1.5,0.8-2.1,1.3c-0.5,0.5-1.1,0.9-1.7,1.3c-0.8,0.6-1.9,0.7-2.9,0.5
		C320.1,405,319.8,404.7,319.5,404.5z"/>
	<path id="elbkjnzkgvo2v" class="st2" d="M320.6,417.8c0,0,0.2-0.3,0.7-0.8c0.7-0.7,1.5-1.2,2.3-1.5c1.3-0.5,2.7-0.7,4.1-0.6
		c1.7,0.1,3.4,0.4,5.1,0.7c1.7,0.3,3.5,0.4,5.2,0.2c1.4-0.2,2.8-0.6,4.1-1.2c0.9-0.4,1.7-0.9,2.5-1.5c0.3-0.2,0.6-0.4,0.8-0.7
		c-1.1,0.7-2.2,1.3-3.4,1.8c-1.3,0.5-2.6,0.9-4,1c-1.7,0.2-3.4,0.1-5.1-0.3c-1.7-0.3-3.4-0.6-5.1-0.7c-1.4-0.1-2.9,0.2-4.2,0.7
		c-0.9,0.4-1.7,0.9-2.4,1.7c-0.2,0.2-0.3,0.4-0.5,0.6C320.6,417.7,320.5,417.8,320.6,417.8z"/>
	<path id="elv2zcxhd33h" class="st2" d="M343.9,425c-0.2-0.2-0.5-0.3-0.8-0.4c-0.8-0.3-1.6-0.5-2.4-0.5c-1.2-0.1-2.5,0-3.7,0.2
		c-1.4,0.2-2.8,0.6-4.4,0.9c-1.4,0.3-2.9,0.5-4.4,0.5c-1.2,0-2.4-0.3-3.5-0.8c-1-0.5-1.9-1.2-2.6-2c0.1,0.3,0.3,0.5,0.5,0.8
		c0.6,0.6,1.2,1.1,2,1.5c1.1,0.5,2.3,0.8,3.6,0.9c1.5,0,3-0.1,4.5-0.4c1.6-0.3,3-0.7,4.3-0.9c1.2-0.2,2.4-0.3,3.6-0.3
		C341.8,424.4,342.8,424.6,343.9,425z"/>
	<path id="ely4h2slc2zr" class="st2" d="M323.1,435c0.9-0.4,1.9-0.5,2.8-0.3c1,0.3,2,0.6,3,1.1c1.2,0.6,2.5,1,3.9,1.1
		c2.4,0.2,4.9-0.3,7-1.6c0.6-0.4,1.2-0.8,1.8-1.3c0.2-0.2,0.4-0.4,0.5-0.6c-0.8,0.6-1.6,1.2-2.4,1.7c-2.1,1.1-4.4,1.6-6.8,1.4
		c-2.8-0.2-4.9-1.8-6.8-2c-0.7-0.1-1.5-0.1-2.2,0.2C323.3,434.7,323,434.9,323.1,435z"/>
	<path id="el6uorm571yo8" class="st2" d="M324.6,448.8c0.8,0,1.7-0.1,2.4-0.5c1.5-0.5,3.3-1.6,5.4-2.4c1-0.4,2-0.6,3.1-0.6
		c0.9,0,1.7,0.2,2.5,0.6c0.7,0.4,1.3,0.9,1.8,1.6c0-0.2-0.1-0.4-0.3-0.6c-0.4-0.5-0.8-0.9-1.4-1.3c-0.8-0.5-1.7-0.7-2.6-0.7
		c-1.1,0-2.2,0.2-3.3,0.6c-2.2,0.9-4,2-5.4,2.6S324.6,448.8,324.6,448.8z"/>
	<path id="eldymemg1fwz" class="st2" d="M326,455.3c0.6,0.3,1.2,0.5,1.9,0.6c1.5,0.4,3.1,0.6,4.6,0.8c1.6,0.2,3.1,0.2,4.7,0.2
		c0.7,0,1.3-0.1,1.9-0.2c0-0.1-3,0-6.6-0.4S326.1,455.1,326,455.3z"/>
</g>
<g id="freepik--Plant--inject-16">
	<rect id="elyag6crsis8" x="63.5" y="408.6" class="st3" width="70.9" height="9.7"/>
	<path id="el0yeq0i5a02q" class="st3" d="M134.5,418.4H63.4v-10h71.1L134.5,418.4z M63.7,418.2h70.6v-9.5H63.7L63.7,418.2z"/>
	<polygon id="elhgnhfcaisc8" class="st3" points="70.1,415.1 80.3,465.4 118.1,465.4 127.9,418.3 	"/>
	<polygon id="elshr8preybtl" class="st4" points="70.1,460.6 75.6,468.1 121.4,468.1 127.9,460.6 	"/>
	<path id="el6x2is13c4md" class="st3" d="M96.3,416.5c-0.1,0-0.3-23.3-0.4-52.1s0-52.1,0.1-52.1s0.3,23.3,0.4,52.1
		S96.4,416.5,96.3,416.5z"/>
	<path id="elq1l45czh8i" class="st3" d="M112.1,358.2c0,0.2-0.1,0.4-0.2,0.5c-0.2,0.4-0.4,0.9-0.6,1.5c-0.1,0.3-0.3,0.7-0.5,1.1
		s-0.3,0.9-0.5,1.3s-0.4,1-0.6,1.5s-0.3,1.1-0.5,1.7c-0.8,2.8-1.5,5.7-2,8.7c-0.5,3.6-0.9,7.2-1.1,10.9c-0.3,6.6-0.1,13.2,0.6,19.8
		c0.2,2.5,0.4,4.6,0.6,6c0.1,0.7,0.1,1.2,0.2,1.6c0,0.2,0,0.4,0,0.6c-0.1-0.2-0.1-0.4-0.1-0.6l-0.3-1.6c-0.2-1.4-0.5-3.4-0.8-6
		c-0.7-6.6-1-13.3-0.7-19.9c0.2-3.7,0.6-7.3,1.1-10.9c0.5-2.9,1.2-5.9,2.1-8.7c0.2-0.6,0.4-1.2,0.6-1.7l0.6-1.5
		c0.2-0.5,0.4-0.9,0.5-1.3s0.4-0.8,0.5-1.1l0.7-1.5C111.9,358.5,112,358.3,112.1,358.2z"/>
	<path id="eluhdzchjejq" class="st3" d="M110.3,339.3c0,0.3-0.1,0.5-0.2,0.8c-0.2,0.5-0.4,1.3-0.7,2.2c-0.2,0.5-0.4,1-0.5,1.6
		c-0.2,0.6-0.4,1.2-0.6,1.9c-0.4,1.4-0.9,2.9-1.3,4.6c-0.2,0.9-0.5,1.8-0.7,2.7s-0.4,1.9-0.7,3c-0.5,2-0.8,4.2-1.3,6.5
		c-0.8,4.6-1.5,9.8-1.9,15.1s-0.6,10.6-0.7,15.3s0,8.9,0.2,12.5c0.1,1.8,0.2,3.4,0.3,4.8s0.2,2.6,0.3,3.6s0.1,1.7,0.2,2.3
		c0,0.3,0,0.5,0,0.8c-0.1-0.3-0.1-0.5-0.1-0.8c-0.1-0.6-0.2-1.3-0.3-2.3c-0.1-1-0.2-2.2-0.3-3.6s-0.3-3-0.3-4.8
		c-0.2-3.6-0.3-7.8-0.3-12.5s0.2-9.9,0.7-15.3s1.2-10.5,2-15.2c0.5-2.3,0.8-4.5,1.4-6.5l0.7-3l0.8-2.7c0.4-1.7,1-3.3,1.4-4.6
		c0.2-0.7,0.4-1.3,0.6-1.9s0.4-1.1,0.6-1.5c0.3-0.9,0.6-1.6,0.8-2.1C110,339.8,110.2,339.6,110.3,339.3z"/>
	<path id="el4lmyd96zl8v" class="st3" d="M91.8,420.7c0-0.1,0-0.2,0-0.3c0-0.2,0-0.5-0.1-0.8c0-0.8-0.1-1.8-0.2-3.1
		c-0.2-2.7-0.4-6.6-0.7-11.4c-0.6-9.6-1.5-22.8-3.1-37.4c-0.8-7.3-1.8-14.2-2.8-20.5c-0.5-3.1-1-6.1-1.6-8.9s-1-5.4-1.5-7.7
		s-1-4.5-1.4-6.3s-0.8-3.5-1.1-4.8s-0.6-2.3-0.7-3c-0.1-0.3-0.1-0.6-0.2-0.8c0-0.1,0-0.2,0-0.3c0,0.1,0.1,0.2,0.1,0.3
		c0.1,0.2,0.1,0.5,0.2,0.8c0.2,0.7,0.5,1.7,0.8,3s0.8,2.9,1.2,4.7s1,4,1.5,6.3s1.1,4.9,1.6,7.7s1.1,5.8,1.6,8.9
		c1,6.3,2,13.2,2.8,20.5c1.6,14.6,2.4,27.8,3,37.4c0.3,4.8,0.4,8.7,0.6,11.4c0.1,1.3,0.1,2.4,0.1,3.1c0,0.3,0,0.6,0,0.8
		C91.9,420.5,91.9,420.6,91.8,420.7z"/>
	<path id="el7xu3kbwaz4g" class="st5" d="M95.7,323.6c-0.3-3.3-3.7-5.8-7-5.8s-6.4,2-8.4,4.6c-1.9,2.7-3.3,5.8-4.1,9
		c-2.2,7.8-3.4,16-2.5,24s4.2,16,10,21.6c0.9,0.9,2.2,1.9,3.4,1.6c0.7-0.2,1.3-0.6,1.8-1.1c11.4-10.5,17.8-25.3,17.4-40.8
		c-0.1-3.1-0.5-6.2-2.2-8.8S98.6,322.6,95.7,323.6"/>
	<path id="elrr3s6ynl57o" class="st5" d="M71,297.1c-1.6,2.8-3.1,5.6-4.7,8.5c-0.1,0.2-0.3,0.4-0.5,0.4s-0.4-0.2-0.6-0.4l-12.3-19
		l2.8-1.6L71,297.1z"/>
	<g id="els7c5e0uqrhq">
		<g class="st6">
			<path id="ela74joy9aciv" d="M71,297.1c-1.6,2.8-3.1,5.6-4.7,8.5c-0.1,0.2-0.3,0.4-0.5,0.4s-0.4-0.2-0.6-0.4l-12.3-19l2.8-1.6
				L71,297.1z"/>
		</g>
	</g>
	<path id="elfkftsp0s7ib" class="st5" d="M96,312.4l-42.1-24.9c-0.4-0.2-0.8-0.6-1-1c-0.2-0.6,0.3-1.2,0.8-1.7
		c5.9-6.1,14.1-9.3,22.5-8.8c8.5,0.6,16.1,5.3,20.3,12.7C100.5,295.9,100.7,305.5,96,312.4"/>
	<path id="elrd5p7nhjnul" class="st3" d="M60,279.6c0.2,0,0.4-0.1,0.5-0.1c0.4,0,0.9-0.1,1.6-0.1c2,0,3.9,0.1,5.8,0.5
		c13.1,2.2,23.8,11.8,27.3,24.7c0.5,1.9,0.8,3.8,1,5.8c0.1,0.7,0,0.9,0.1,1.2c0,0.3-0.1,0.6-0.3,0.9c0.1-0.7,0.1-1.4,0.1-2.1
		c-0.2-1.9-0.6-3.8-1.2-5.7c-3.6-12.6-14.1-22.1-27-24.4c-1.9-0.4-3.8-0.6-5.8-0.6C60.7,279.6,60,279.6,60,279.6z"/>
	<path id="el3bxet6e3ul9" class="st3" d="M90.3,295.2c-0.7,0.4-1.4,0.8-2.1,1c-1.3,0.5-3.2,1.2-5.3,1.9s-4,1.2-5.4,1.5
		c-0.7,0.2-1.5,0.4-2.3,0.4c0.7-0.3,1.4-0.6,2.2-0.8l5.4-1.7l5.3-1.7C88.8,295.6,89.6,295.4,90.3,295.2z"/>
	<path id="elsq0xi9z99s" class="st3" d="M83.7,277.4c0.4,1.5,0.5,3.1,0.5,4.7c0.1,1.6,0,3.2-0.3,4.7c-0.2-1.6-0.3-3.1-0.2-4.7
		C83.6,280.5,83.6,279,83.7,277.4z"/>
	<path id="elu1gh7iix92r" class="st3" d="M53.5,287c1-0.4,2-0.8,3.1-1c1.9-0.6,4.6-1.3,7.6-2s5.7-1.3,7.7-1.6
		c1.1-0.2,2.1-0.4,3.2-0.4c-1,0.3-2.1,0.6-3.1,0.8c-2,0.4-4.7,1-7.6,1.8s-5.6,1.4-7.6,1.9C55.6,286.7,54.6,286.9,53.5,287z"/>
	<path id="el5itdgp3y7g" class="st5" d="M78.3,316.4c-3.6-2.8-7.5-3.3-12-3.1c-4.6,0.3-9,1.5-13.1,3.4c-7.1,3.1-13.8,7.7-18,14.2
		s-5.8,15.1-2.6,22.2c0.3,0.7,0.8,1.4,1.5,1.8c0.8,0.2,1.6,0.2,2.4-0.2c8.1-2.6,16.2-5.3,23.7-9.4s14.2-9.9,18.2-17.4
		c1-1.8,1.7-3.7,1.9-5.8C80.3,320,79.7,318,78.3,316.4"/>
	<path id="elmmogi5hxl0g" class="st3" d="M78.3,315.6c-0.2,0.1-0.4,0.2-0.6,0.2l-1.7,0.6l-1.2,0.4c-0.4,0.2-0.9,0.4-1.4,0.6
		c-1,0.4-2.2,0.8-3.4,1.4l-2,0.9c-0.7,0.3-1.4,0.7-2.1,1.1c-1.5,0.7-2.9,1.6-4.5,2.6c-3.4,2.1-6.6,4.5-9.6,7.1
		c-3,2.6-5.7,5.5-8.3,8.6c-1.1,1.5-2.2,2.8-3.1,4.2c-0.5,0.7-0.9,1.3-1.3,2l-1.1,1.9c-0.8,1.2-1.3,2.3-1.9,3.2
		c-0.3,0.5-0.5,0.9-0.7,1.4s-0.4,0.8-0.6,1.2c-0.3,0.7-0.6,1.2-0.8,1.6c-0.1,0.2-0.2,0.4-0.3,0.5c0-0.2,0.1-0.4,0.2-0.6
		c0.2-0.4,0.4-1,0.7-1.6c0.2-0.4,0.3-0.8,0.5-1.2s0.5-0.9,0.7-1.4c0.5-1,1.1-2.1,1.8-3.3l1.1-1.9c0.4-0.7,0.9-1.3,1.3-2
		c0.9-1.4,2-2.8,3.1-4.2c5-6.2,11.1-11.6,17.9-15.7c1.6-0.9,3.1-1.8,4.6-2.5c0.7-0.4,1.4-0.8,2.1-1.1l2-0.9c1.3-0.6,2.5-1,3.5-1.4
		c0.5-0.2,1-0.4,1.4-0.5l1.2-0.4l1.7-0.5C77.9,315.7,78.1,315.6,78.3,315.6z"/>
	<path id="el45exxae6p13" class="st3" d="M50,330.9c-2.9,1.1-5.8,2.1-8.8,2.8c-3,0.9-6,1.7-9,2.4c2.9-1.1,5.8-2,8.8-2.8
		C44,332.3,47,331.5,50,330.9z"/>
	<path id="elcuvwzse67za" class="st3" d="M49.6,350.4c-0.2-0.9-0.2-1.8-0.2-2.8c0-1.7-0.1-4,0-6.6s0.2-4.9,0.3-6.6
		c0-0.9,0.1-1.8,0.3-2.7c0.1,0.9,0.1,1.8,0,2.8c-0.1,1.9-0.1,4.1-0.2,6.6s-0.1,4.8-0.2,6.6C49.8,348.5,49.8,349.4,49.6,350.4z"/>
	<path id="elth00m29atgf" class="st3" d="M66.3,341.9c-0.1,0-0.6-4.8-1-10.6s-0.6-10.7-0.5-10.7s0.6,4.8,1,10.6
		S66.4,341.9,66.3,341.9z"/>
	<path id="el1ostz9wmigh" class="st3" d="M45.6,320.1c0.9-0.1,1.9-0.1,2.8-0.1c1.7,0,4.2,0.1,6.8,0.1s5.1,0.2,6.8,0.3
		c0.9,0,1.9,0.1,2.8,0.3c-0.9,0.1-1.9,0.1-2.8,0.1c-1.7,0-4.2-0.1-6.8-0.2s-5.1-0.2-6.8-0.3C47.4,320.3,46.5,320.2,45.6,320.1z"/>
	<path id="elylh6dsttqfj" class="st3" d="M85.6,378.1c0-0.2-0.1-0.4-0.1-0.6c0-0.4,0-1-0.1-1.6c-0.1-1.4-0.1-3.5,0-6
		s0.2-5.5,0.5-8.8s0.8-7,1.5-10.8s1.6-7.3,2.4-10.6s1.8-6.1,2.6-8.5s1.6-4.3,2.1-5.6c0.3-0.6,0.5-1.1,0.7-1.5
		c0.1-0.2,0.1-0.3,0.3-0.5c0,0.2-0.1,0.4-0.2,0.5c-0.1,0.4-0.3,0.9-0.6,1.5c-0.5,1.3-1.2,3.2-2,5.6s-1.7,5.3-2.5,8.5
		s-1.7,6.8-2.3,10.6s-1.2,7.4-1.5,10.7s-0.5,6.3-0.6,8.8s-0.1,4.5-0.1,6c0,0.7,0,1.2,0,1.6C85.6,377.7,85.6,377.9,85.6,378.1z"/>
	<path id="elyo6z4okrtf" class="st3" d="M87.8,350.5c-0.5,0.7-1.1,1.3-1.7,1.8c-1.1,1.1-2.6,2.5-4.4,4.1s-3.4,2.9-4.6,3.8
		c-0.6,0.5-1.3,1-2,1.4c0.6-0.6,1.2-1.2,1.8-1.7l4.5-3.9l4.5-4C86.5,351.5,87.1,351,87.8,350.5z"/>
	<path id="el2jljwnepfl7" class="st3" d="M101.1,361.3c-0.7-0.8-1.3-1.6-1.8-2.5c-1.2-1.7-2.6-3.8-4.2-6.1l-4.3-6
		c-0.6-0.8-1.2-1.7-1.7-2.5c0.7,0.7,1.4,1.5,2,2.3c1.2,1.5,2.7,3.6,4.4,6s3.1,4.6,4,6.2C100.2,359.4,100.7,360.3,101.1,361.3z"/>
	<path id="el6jo7g38383q" class="st3" d="M94.1,327.5c0.1,0.1-4.4,3.1-9.9,6.7s-10.1,6.4-10.2,6.2s4.4-3.1,9.9-6.7
		S94.1,327.4,94.1,327.5z"/>
	<path id="elldmwbsetqfa" class="st3" d="M106.6,341c-2.3-1.9-4.6-4-6.7-6.2c-2.2-2.1-4.4-4.3-6.3-6.5c2.3,1.9,4.6,4,6.7,6.2
		C102.5,336.5,104.6,338.7,106.6,341z"/>
	<path id="el1ssxgy5jo06i" class="st5" d="M109.8,340.7l3.8-0.3c2.7-0.2,5.3-1,7.7-2.4c1.2-0.7,2.3-1.3,3.6-1.8
		c4.7-1.9,9.9-1.5,15-1.8c8.3-0.4,16.4-2.5,23.9-6.1c0.4-0.2,0.8-0.5,1.1-0.9c0.8-1.4-0.7-2.7-1.9-3.5c-6.4-4-12.9-8-20.2-9.9
		s-15.5-1.6-21.7,2.6C113.7,321.6,111,331.9,109.8,340.7"/>
	<path id="el98r2rcxxxgr" class="st3" d="M164.9,326.9c-0.2-0.1-0.4-0.2-0.6-0.3l-1.8-0.9c-1.6-0.8-3.8-2-6.7-3.4
		c-3.3-1.6-6.8-3-10.3-4c-4.3-1.2-8.9-1.6-13.4-1.1c-4.5,0.5-8.7,2.3-12.2,5.2c-2.7,2.5-4.9,5.5-6.3,8.9c-1,2.3-2,4.6-2.8,6.9
		l-0.7,1.9c-0.1,0.2-0.2,0.4-0.3,0.7c0-0.2,0.1-0.5,0.2-0.7c0.2-0.5,0.3-1.1,0.6-2c0.7-2.4,1.6-4.7,2.6-7c1.5-3.4,3.6-6.5,6.3-9.1
		c3.5-3,7.8-4.8,12.4-5.3c4.5-0.5,9.2-0.1,13.6,1.1c3.6,1,7,2.4,10.3,4.1c2.8,1.4,5.1,2.7,6.6,3.5l1.8,1
		C164.5,326.6,164.7,326.7,164.9,326.9z"/>
	<path id="elgbvecr76r4i" class="st3" d="M155.7,331.8c-0.1,0.1-5.1-3.1-11.1-7.2s-10.9-7.5-10.8-7.6s5.1,3.1,11.1,7.2
		S155.8,331.7,155.7,331.8z"/>
	<path id="eluu206ps4knr" class="st3" d="M150.4,316.8c-1.2,0.4-2.4,0.6-3.6,0.6c-1.2,0.2-2.5,0.2-3.7,0c1.2-0.2,2.4-0.3,3.6-0.4
		C148,316.8,149.2,316.7,150.4,316.8z"/>
	<path id="elport6pqbwin" class="st3" d="M128.6,313.9c-0.4,0.9-1,1.8-1.6,2.5c-0.6,0.9-1.3,1.7-2.1,2.4c0.4-0.9,1-1.8,1.6-2.5
		C127.1,315.4,127.8,314.6,128.6,313.9z"/>
	<path id="elxiqqmsfzowf" class="st3" d="M133.1,334.7c-0.8-0.4-1.6-0.8-2.4-1.3c-1.4-0.9-3.4-2.1-5.5-3.7s-3.9-2.9-5.2-4
		c-0.7-0.5-1.4-1.1-2-1.8c0.8,0.4,1.6,0.9,2.3,1.5l5.3,3.9c2.1,1.5,4,2.8,5.4,3.8C131.7,333.6,132.4,334.1,133.1,334.7z"/>
	<path id="elg8rres2q7zq" class="st5" d="M115.4,356.8c-3.6-1-8,2.6-8.7,6.3s0.6,7.4,2.3,10.8c3.5,7.6,8.6,14.3,15,19.6
		c6.5,5.2,14.6,8.5,22.9,8.4c-1.5-7.1,0.4-14.6-0.4-21.8c-1.5-13.1-12-23.5-25.1-24.9C119,355.1,116.3,354.7,115.4,356.8"/>
	<path id="elrq9qvbppa6" class="st3" d="M146.9,402c-0.2-0.1-0.4-0.1-0.5-0.2c-0.5-0.3-0.9-0.6-1.4-0.9c-1.5-1.3-2.7-3-3.6-4.8
		c-0.6-1.1-1.2-2.3-1.9-3.7s-1.3-2.8-2-4.3c-0.7-1.6-1.5-3.1-2.4-4.6c-1-1.6-2.1-3.1-3.3-4.5c-2.5-2.9-5.2-5.4-7.5-7.9
		c-2.1-2.1-4-4.4-5.7-6.8c-1.1-1.6-2-3.4-2.7-5.3c-0.2-0.5-0.3-1-0.5-1.6c-0.1-0.2-0.1-0.4-0.1-0.6c0,0,0.3,0.8,0.8,2
		c0.8,1.8,1.7,3.6,2.9,5.2c1.7,2.4,3.6,4.6,5.7,6.7c2.3,2.4,5,4.9,7.5,7.9c1.2,1.4,2.3,3,3.3,4.6c0.9,1.5,1.7,3.1,2.4,4.7l1.9,4.3
		c0.6,1.3,1.2,2.6,1.8,3.7c0.8,1.8,1.9,3.5,3.4,4.8C146.2,401.6,146.9,401.9,146.9,402z"/>
	<path id="elrqgj5zre0nc" class="st3" d="M128.1,396.1c0-0.8,0.1-1.6,0.3-2.4c0.3-1.5,0.8-3.5,1.4-5.8s1.3-4.2,1.8-5.6
		c0.3-0.8,0.6-1.5,1-2.3c-0.1,0.8-0.4,1.6-0.6,2.4c-0.4,1.5-1.1,3.5-1.7,5.7s-1.1,4.3-1.5,5.7C128.6,394.5,128.4,395.3,128.1,396.1z
		"/>
	<path id="elnx6ky4yqn5" class="st3" d="M146.2,378.6c-0.9-0.1-1.7-0.3-2.6-0.6c-1.6-0.4-3.7-1-6.1-1.5s-4.6-1-6.2-1.3
		c-0.9-0.1-1.7-0.3-2.6-0.6c0.9,0,1.8,0.1,2.6,0.2c1.6,0.2,3.8,0.6,6.2,1.1s4.6,1.2,6.1,1.6C144.6,377.9,145.4,378.2,146.2,378.6z"
		/>
	<path id="elgzpydznt0bv" class="st3" d="M114.6,383.7c0-1,0.2-1.9,0.4-2.8c0.3-1.7,0.8-4.1,1.5-6.7s1.4-4.9,2-6.6
		c0.2-0.9,0.6-1.8,1-2.7c-0.1,0.9-0.4,1.9-0.7,2.8c-0.5,1.7-1.2,4-1.8,6.6s-1.2,5-1.6,6.7C115.2,381.8,115,382.8,114.6,383.7z"/>
	<path id="elbv6jq8wwbmb" class="st3" d="M137.9,363.4c0,0.1-4.5-0.2-10.1-0.8s-10.1-1.2-10.1-1.3c3.4,0.1,6.8,0.4,10.1,0.8
		C133.4,362.6,137.9,363.2,137.9,363.4z"/>
	<path id="elnf9dq4qhls" class="st4" d="M134.5,418.3c0,0.1-15.9,0.3-35.6,0.3s-35.6-0.1-35.6-0.3S79.3,418,99,418
		S134.5,418.1,134.5,418.3z"/>
	<path id="ela93n9ri6gyq" class="st4" d="M123.5,438.8c0,0.1-10.7,0.3-24,0.3s-24-0.1-24-0.3s10.7-0.3,24-0.3
		S123.5,438.6,123.5,438.8z"/>
	<path id="elelvrsz94qar" class="st4" d="M123,441.7c0,0.1-10.5,0.3-23.5,0.3S76,441.8,76,441.7s10.5-0.3,23.5-0.3
		S123,441.5,123,441.7z"/>
	<path id="elslo1h15y5g9" class="st4" d="M123.9,436.3c0,0.1-11.1,0.3-24.8,0.3s-24.8-0.1-24.8-0.3s11.1-0.3,24.8-0.3
		S123.9,436.2,123.9,436.3z"/>
</g>
<g id="freepik--Floor--inject-16">
	<path id="elmdp4jvagim" class="st3" d="M480.6,468.6c0,0.1-103.3,0.3-230.6,0.3s-230.6-0.1-230.6-0.3s103.2-0.3,230.6-0.3
		S480.6,468.4,480.6,468.6z"/>
</g>
<g id="freepik--Monitor--inject-16">
	<rect id="elkxgn3vj58ig" x="199.6" y="421.1" class="st4" width="95.4" height="48"/>
	<path id="el4jy832osacw" class="st3" d="M305.8,267.8H187.5c-6.5,0-11.7,5.2-11.7,11.7v181c2.3,3.9,7.1,5.4,11.5,5
		s8.5-2.4,12.5-4.2s8.3-3.5,12.7-3.4c7.6,0.3,14.2,6.1,21.8,7c12.3,1.4,22.7-10.2,35.1-11.5c8.3-0.8,16.3,3.1,24.1,5.9
		s17.3,4.3,24-0.8V279.4C317.5,273,312.3,267.8,305.8,267.8z"/>
	<path id="eloaddig56fq" class="st4" d="M197.3,462.5c-0.1,0-0.3-36.3-0.3-81s0.1-81,0.3-81s0.3,36.3,0.3,81
		S197.4,462.5,197.3,462.5z"/>
	<path id="eljvbgeh8oiwm" class="st4" d="M224.6,391.1c0.1,0,0.3,15.9,0.3,35.4s-0.1,35.4-0.3,35.4s-0.3-15.9-0.3-35.4
		S224.5,391.1,224.6,391.1z"/>
	<path id="eldu61u7odx5" class="st4" d="M225.6,349.4c0.1,0,0.3,4.6,0.3,10.3s-0.1,10.3-0.3,10.3c-0.3-3.4-0.4-6.9-0.3-10.3
		C225.2,356.3,225.3,352.8,225.6,349.4z"/>
	<path id="eledf2tzigasp" class="st4" d="M254.8,458.7c-0.1,0-0.3-35.7-0.3-79.8s0.1-79.8,0.3-79.8s0.3,35.7,0.3,79.8
		S255,458.7,254.8,458.7z"/>
	<path id="elucmfhegs0w" class="st4" d="M284,456.3c-0.1,0-0.3-33.9-0.3-75.7s0.1-75.7,0.3-75.7s0.3,33.9,0.3,75.7
		S284.2,456.3,284,456.3z"/>
	<path id="elkw1hpjl9xhk" class="st4" d="M355,69.4H130.5c-3.9,0-7,3.1-7,7V235c0,3.9,3.1,7,7,7h86.2c0,0,5.5,17-11.5,25.7h80.6
		c0,0-19.2-6.6-14.3-25.7H355c3.9,0,7-3.1,7-7V76.4C362,72.5,358.9,69.4,355,69.4C355,69.4,355,69.4,355,69.4z"/>
	<path id="el46pzl6kbrxs" class="st3" d="M245.8,225.3c3.1,4.4-1.7,9.1-6.1,6.1c-0.1-0.1-0.3-0.2-0.4-0.4c-3.1-4.4,1.7-9.1,6.1-6.1
		C245.5,225.1,245.6,225.2,245.8,225.3z"/>
	<path id="el9y9quu75qgi" class="st7" d="M132.4,72.3h220.7c2.8,0,5.1,2.3,5.1,5.1V213l0,0H127.3l0,0V77.4
		C127.3,74.6,129.6,72.3,132.4,72.3L132.4,72.3z"/>
	<path id="el33ysxb40xzh" class="st3" d="M314.9,242.1c0,0.1-32,0.1-71.4,0.1s-71.4-0.1-71.4-0.1s32-0.1,71.4-0.1
		S314.9,242,314.9,242.1z"/>
	<path id="elckpmjry3fk9" class="st3" d="M285.8,122.8c0.1,0.1-13.2,11-29.8,24.4s-30,24.1-30.1,24s13.2-11,29.8-24.4
		S285.7,122.7,285.8,122.8z"/>
	<path id="eli0t3qruwsig" class="st3" d="M285.9,107.9c0.1,0.1-17.7,15-39.7,33.3s-39.9,33-40,32.9s17.7-15,39.7-33.3
		S285.8,107.8,285.9,107.9z"/>
	<path id="eld7l52znwax8" class="st8" d="M356.6,240.6c0,0.1-50.3,0.3-112.3,0.3s-112.3-0.1-112.3-0.3s50.3-0.3,112.3-0.3
		S356.6,240.5,356.6,240.6z"/>
</g>
<g id="freepik--Character--inject-16">
	<path id="el27xn08gsaali" class="st3" d="M405.4,103.7c-7,1.1-14.5,6.3-17.3,12.8s-2.4,14.9-2.3,22c2.2-0.4,3.5,0.6,5.7,0.4
		c1.4-0.2,2.7-1.1,3.5-2.3c2-2.7,3.7-5.7,4.9-8.8c3.2-7.3,6.3-14.7,9.4-22"/>
	<path id="eltyts232r6s" class="st3" d="M394.9,114.3c-11,7.1-8.2,20.3-10.3,23.3c-0.9,1.2-1.9,2.5-2,3.9s1,3,1.1,4.6
		c0,2.2-1.9,4-3.2,5.9c-1.7,2.5-2.2,5.7-1.4,8.7c0.1,0.6,0.5,1.2,1.1,1.6c0.5,0.2,1,0.3,1.5,0.3c10.4,0.5,20.8,0.6,31.3,0.3
		c2.4-0.1,4.9-0.2,6.9-1.3c2.7-1.5,3.9-4.4,4.8-7.1l2.9-8.6c0.7-1.8,1.2-3.7,1.6-5.6c0.2-2.7,0.3-5.3,0.1-8c0.2-2.5,0.2-5,0.1-7.4
		c-0.1-2.6-1.2-5-2.9-6.9"/>
	<path id="el15evas3d30t" class="st9" d="M426.6,125c0.1-9.7-7.6-17.6-17.3-17.8c-0.2,0-0.4,0-0.6,0c-9.5,0.2-17.2,7.7-17.6,17.2
		c-0.4,8.2-0.6,16.4-0.3,19.3c1,8.9,6.7,11.8,9,12.6c0.8,0.2,1.6,0.3,2.4,0.3l0,0c0,0,0.1,0,0.1,0.1l-1,10.4
		c-0.2,6.8,4.2,12.4,11.1,12.6s11.7-5.4,12.1-12.2L426.6,125z"/>
	<path id="elhfb1oknmlkk" class="st3" d="M395.4,129.1c0,0.8,0.6,1.4,1.3,1.5c0.8,0.1,1.4-0.4,1.5-1.2c0,0,0,0,0,0
		c0-0.8-0.6-1.4-1.3-1.5C396.2,127.8,395.5,128.3,395.4,129.1C395.4,129.1,395.4,129.1,395.4,129.1z"/>
	<path id="elpce3mi3pjw" class="st3" d="M393.4,126.3c0.1,0.2,1.4,0,2.8,0.4s2.4,1.4,2.6,1.4s0-0.3-0.4-0.8c-0.6-0.6-1.2-1-2-1.3
		c-0.7-0.3-1.5-0.3-2.3-0.2C393.6,126,393.3,126.2,393.4,126.3z"/>
	<path id="elx34fbrjp26" class="st3" d="M410.8,129.4c0,0.8,0.6,1.4,1.3,1.5c0.8,0.1,1.5-0.4,1.5-1.2c0,0,0,0,0,0
		c0-0.8-0.6-1.4-1.3-1.5C411.5,128.1,410.8,128.6,410.8,129.4C410.8,129.4,410.8,129.4,410.8,129.4z"/>
	<path id="eldiis7n1tu1v" class="st3" d="M409,128.6c0.2,0.1,1.2-0.8,2.8-1.2s3-0.2,3.1-0.4s-0.2-0.3-0.8-0.4
		c-0.8-0.1-1.7-0.1-2.5,0.2c-0.8,0.2-1.6,0.6-2.2,1.1C409,128.3,408.9,128.6,409,128.6z"/>
	<path id="el0e6w1uq49jzg" class="st3" d="M402.6,138.6c-0.8-0.3-1.7-0.5-2.5-0.5c-0.4-0.1-0.8-0.1-0.8-0.4c0-0.4,0.1-0.8,0.3-1.1
		l1.3-2.9c1.8-4.2,3.1-7.6,3-7.7s-1.8,3.3-3.6,7.4c-0.4,1-0.9,2-1.3,2.9c-0.3,0.5-0.4,1-0.3,1.5c0.1,0.3,0.3,0.5,0.6,0.6
		c0.2,0.1,0.4,0.1,0.7,0.1C400.9,138.6,401.8,138.6,402.6,138.6z"/>
	<path id="ely69e7yu8bxa" class="st10" d="M402.4,156.7c0,0,6,0.7,13.7-3.4c0,0-2.7,7.7-14,6.2L402.4,156.7z"/>
	<path id="el9aun02gedle" class="st10" d="M403.1,142.3c0.6-0.7,1.6-1.1,2.6-0.9c0.7,0.1,1.3,0.4,1.7,1c0.4,0.5,0.4,1.3,0,1.8
		c-0.5,0.5-1.3,0.7-2.1,0.4c-0.7-0.3-1.4-0.7-1.9-1.2c-0.2-0.1-0.3-0.3-0.4-0.5c-0.1-0.2-0.1-0.4,0-0.6"/>
	<path id="el3tgyvmo1255" class="st3" d="M407.2,139.8c-0.3,0-0.3,1.6-1.8,2.8s-3.3,0.9-3.3,1.1s0.4,0.3,1.1,0.4
		c1,0.1,2-0.2,2.8-0.8c0.8-0.6,1.3-1.4,1.4-2.3C407.5,140.2,407.3,139.8,407.2,139.8z"/>
	<path id="elnvl4vcs3odr" class="st3" d="M408.6,122.6c0.2,0.4,1.7,0.1,3.6,0.1s3.3,0.4,3.6,0c0.1-0.2-0.2-0.6-0.8-0.9
		c-0.8-0.4-1.8-0.7-2.7-0.7c-0.9,0-1.9,0.2-2.7,0.6C408.8,122,408.5,122.4,408.6,122.6z"/>
	<path id="el4mo5ji25pux" class="st3" d="M393.8,121.5c0.3,0.4,1.3,0,2.6,0.1s2.4,0.3,2.6,0c0.1-0.2,0-0.5-0.5-0.9
		c-0.6-0.4-1.4-0.7-2.1-0.7c-0.8,0-1.5,0.2-2.1,0.6C393.9,121,393.7,121.3,393.8,121.5z"/>
	<path id="elkk39fkolwq" class="st3" d="M405.1,102.9c-2,4.6-0.1,9.9,4.4,12.1c1.9,1,4.3,1.6,5.3,3.5c0.7,1.5,0.3,3.4,1.3,4.8
		s2.6,1.6,3.9,2.6c1.7,1.3,2.4,3.5,2.6,5.7c0,2.2,0.2,4.3,0.4,6.5c0.4,2.1,1.7,4.2,3.7,4.9c1.3-6.1,2.5-12.3,2.1-18.5
		s-2.3-12.5-6.7-17S411,100.7,405.1,102.9"/>
	<path id="elkcck4e65iyc" class="st3" d="M411.4,102.1c7.5,0.3,15.8,5.4,18.4,12.4c1.3,3.5,1.6,7.6,4.1,10.5
		c1.6,1.8,3.9,2.9,5.1,4.9c2.7,4.3-0.4,10.2,1.3,15c0.8,2.1,2.4,3.8,3.7,5.7s2.3,4.3,1.4,6.4c-0.7,1.5-2,2.5-3.5,3
		c-1.5,0.4-3.1,0.7-4.7,0.7l-24.1,1c-0.6-1.8-0.5-3.9,0.5-5.6c1.6-2.6,5.5-4.9,4.7-8.6s-2.7-3.2-2.7-7s2.6-7.4,2.1-10.7
		s-1.5-2.5-2.9-7.7s-4.3-6.6-4.3-6.6l2.3-12.5"/>
	<path id="elgfmfvv1zh8s" class="st3" d="M384,140.2c0.9-1.3,1.8-2.8,1.5-4.4c-0.2-1.1-1-2-1.3-3c-0.4-1.3-0.3-2.8,0.4-4.1
		c0.5-1.3,1.2-2.5,1.6-3.8c0.3-1,0.5-2.2,0.9-3.2c0.4-1.1,1.2-1.9,2.3-2.2c0.8,4.9-1.1,9.8-1.4,14.8c0,1.1-0.1,2.2-0.5,3.2
		c-0.4,1-1.5,1.7-2.6,1.5"/>
	<path id="eltkbrlkjsmg" class="st7" d="M394.3,152.3c0,0-0.1,0.4-0.6,0.6c-0.7,0.4-1.5,0.5-2.4,0.4c-1.2-0.1-2.4-0.5-3.3-1.2
		c-1.2-0.9-2.1-2.1-2.5-3.5c-0.5-1.4-0.4-3,0.2-4.4c0.5-1.1,1.2-2.1,2.2-2.8c0.6-0.5,1.4-0.9,2.1-1.1c0.3-0.1,0.6-0.1,0.9-0.1
		c-1,0.3-1.9,0.8-2.8,1.5c-0.9,0.7-1.6,1.7-2,2.7c-0.5,1.3-0.6,2.7-0.1,4c0.4,1.3,1.2,2.5,2.3,3.3c0.9,0.7,2,1.1,3.1,1.3
		c0.8,0.1,1.5,0,2.2-0.3C394.1,152.6,394.2,152.3,394.3,152.3z"/>
	<path id="el4pj1pm1631k" class="st7" d="M393,124.2c0.5-0.1,1.1-0.1,1.6-0.1h4.3h2.2c0.3,0,0.6,0.1,0.9,0.4
		c0.2,0.3,0.3,0.6,0.3,0.9l-0.1,0.8c0,0.6-0.1,1.2-0.2,1.8c-0.3,2.7-1.8,5.1-4,6.7c-1.2,0.7-2.6,1.1-4,0.9c-1.3-0.2-2.5-0.9-3.3-1.9
		c-0.7-1-1.1-2.1-1.3-3.2c-0.2-1-0.2-2-0.2-3c-0.1-0.9,0.2-1.7,0.7-2.4c0.4-0.5,1-0.8,1.7-0.8c0.4,0,0.8,0,1.2,0
		C392.8,124.1,392.9,124.1,393,124.2c0,0-0.5,0-1.5,0.2c-0.6,0.1-1.1,0.4-1.5,0.8c-0.4,0.7-0.6,1.4-0.5,2.2c0,1,0.1,2,0.3,2.9
		c0.2,1.1,0.6,2.1,1.2,3c0.7,1,1.8,1.6,3,1.7c1.3,0.1,2.6-0.2,3.7-0.9c1.1-0.7,2-1.7,2.6-2.8c0.6-1.1,1-2.2,1.2-3.5
		c0.1-0.6,0.2-1.2,0.2-1.7l0.1-0.8c0-0.2,0-0.4-0.1-0.6c-0.1-0.2-0.3-0.3-0.5-0.3h-0.8h-1.4l-4.3-0.2
		C394.1,124.3,393.5,124.3,393,124.2z"/>
	<path id="elasqwlc5is86" class="st7" d="M414.7,124.2c-0.5,0.1-1,0.1-1.6,0.1l-4.3,0.2h-1.4h-0.8c-0.2,0-0.4,0.1-0.5,0.3
		c-0.1,0.2-0.2,0.4-0.1,0.6c0,0.3,0,0.6,0.1,0.8c0,0.6,0.1,1.1,0.2,1.7c0.2,1.2,0.6,2.4,1.2,3.5c0.6,1.2,1.5,2.1,2.6,2.8
		c1.1,0.7,2.4,1,3.7,0.9c1.2-0.2,2.3-0.8,3-1.7c0.6-0.9,1.1-1.9,1.2-3c0.2-1,0.3-1.9,0.3-2.9c0.1-0.8-0.1-1.6-0.5-2.2
		c-0.4-0.4-0.9-0.7-1.5-0.8C415.2,124.1,414.7,124.2,414.7,124.2c0.1-0.1,0.3-0.1,0.4-0.1c0.4,0,0.8,0,1.2,0
		c0.7,0.1,1.3,0.4,1.7,0.8c0.5,0.7,0.7,1.6,0.7,2.4c0,1-0.1,2-0.2,3c-0.2,1.2-0.6,2.3-1.3,3.2c-0.8,1.1-2,1.8-3.3,1.9
		c-1.4,0.2-2.8-0.2-4-0.9c-2.2-1.6-3.7-4-4-6.7c-0.1-0.6-0.2-1.2-0.2-1.8l0-0.8c0-0.3,0.1-0.7,0.3-0.9c0.2-0.2,0.5-0.4,0.9-0.4h2.2
		h4.3C413.7,124,414.2,124.1,414.7,124.2z"/>
	<path id="el88x8qi210tp" class="st7" d="M406.9,124.3c-2,0.3-4,0.3-5.9,0C402.9,123.9,404.9,123.9,406.9,124.3z"/>
	<path id="el4tb4qknloue" class="st7" d="M408.4,131.7c-0.1,0.1-0.9-0.7-1.4-1.9c-0.4-0.7-0.6-1.5-0.4-2.3c0.1,0,0.4,1,0.9,2.1
		S408.5,131.6,408.4,131.7z"/>
	<path id="elhsphf5616rb" class="st7" d="M390.9,131.7c-0.6-0.6-1-1.5-1-2.4c-0.1-0.6-0.1-1.2,0-1.7h0.4c-0.1,0.5-0.3,0.8-0.3,0.8
		s-0.1-0.3,0-0.8h0.4c0,0.5,0.1,1.1,0.1,1.6C390.5,130.6,391,131.6,390.9,131.7z"/>
	<path id="el4ewfitox66" class="st4" d="M428.8,114.3c-0.2-1.4-1.3-2.4-2.7-2.5c-1.5,0-2.9,0.2-4.4,0.6c-1.8,0.3-3.7,0.4-5.5,0.1
		c-1.8-0.2-3.6-0.9-5.2-1.8c-1.3-0.8-2.4-1.9-3.3-3.1c-0.6-0.8-1-1.8-1.3-2.7c-0.1-0.3-0.1-0.5-0.2-0.8c0-0.2,0-0.3,0-0.3
		c0.4,1.3,1,2.5,1.8,3.6c0.9,1.2,2,2.2,3.2,2.9c1.5,0.9,3.2,1.5,5,1.7c1.8,0.2,3.6,0.2,5.4-0.1c1.5-0.4,3-0.5,4.5-0.4
		c1.1,0.1,2,0.8,2.5,1.7c0.1,0.3,0.2,0.5,0.2,0.8C428.8,114.2,428.8,114.3,428.8,114.3z"/>
	<path id="el6eiv81e1h6" class="st4" d="M430.3,116.8c-0.3,0.2-0.7,0.4-1.1,0.6c-1,0.5-2.1,0.8-3.2,1c-7.6,1.6-15.3-2.3-18.6-9.4
		c-0.5-1-0.9-2.1-1.1-3.2c-0.1-0.4-0.2-0.8-0.2-1.2c0.4,1.5,1,2.9,1.6,4.3c3.4,6.8,10.8,10.5,18.2,9.2
		C427.4,117.7,428.9,117.3,430.3,116.8z"/>
	<polygon id="elbcgaiufo75k" class="st9" points="388.5,165.3 402.8,163.1 423.7,163.1 440.6,171.4 404.4,213.3 	"/>
	<path id="elsaydz5tmae" class="st5" d="M437.5,169.9c0,0-30.9,35.8-31.4,37.7s-17.6-42.3-17.6-42.3l-4,0.7
		c-3.8,0.6-9.9,0.6-16.4,17.6s-9.9,28.2-9.9,28.2l19,2.4c0,0,2.3,7.8,4.5,13.1l-4.3,19c0,0,50.1,6.6,55.9,2.5l1.1-42.2
		c0,0,3.3-13.1,6-17.5s4.3-13.5,9.2-13.2L437.5,169.9z"/>
	<path id="elq1gk4y68vz" class="st5" d="M448.5,175.2c-3.3-1.6-10.5,1.8-13,9.7s-9.2,30.2-9.2,30.2l21.3,15.6c0,0,3.6-23,5.3-28.3
		s3-9.5,3-15S451.7,176.8,448.5,175.2z"/>
	<path id="eltlj8uk21f7f" class="st10" d="M406.1,207.4c-0.1-2-0.1-3.9,0.1-5.9c0-2,0.2-3.9,0.6-5.8c0.1,2,0.1,3.9-0.1,5.9
		C406.7,203.5,406.5,205.5,406.1,207.4z"/>
	<path id="elg66i7kc9yyl" class="st3" d="M415.1,173.7c0.1,0-0.2,1.1-0.4,2.9c-0.6,4.8,0.1,9.6,1.9,14c0.7,1.7,1.3,2.7,1.2,2.7
		s-0.2-0.2-0.5-0.6c-0.4-0.6-0.8-1.3-1.1-1.9c-2.1-4.4-2.8-9.4-2-14.2c0.1-0.7,0.3-1.4,0.5-2.1C414.9,174.2,415,174,415.1,173.7z"/>
	<path id="elrfhbb1hfomi" class="st3" d="M415.2,190.5c0,0-0.3-0.1-0.6-0.4c-0.6-0.4-1.1-0.9-1.5-1.4c-1.6-1.7-2.8-3.7-3.5-5.9
		l-0.3-0.7l0.6,0.4l0,0c2,1.3,3.5,3,4.6,5.1c0.3,0.6,0.6,1.3,0.7,2c0.1,0.5,0.2,0.8,0.1,0.8s-0.4-1-1.2-2.5c-1.1-2-2.6-3.6-4.5-4.8
		l0,0l0.4-0.3c0.7,2.1,1.9,4.1,3.3,5.8C414.4,189.8,415.2,190.4,415.2,190.5z"/>
	<path id="elvv80e580pks" class="st3" d="M416,184.8c0.1-0.8,0.3-1.6,0.6-2.4c0.4-1.5,0.9-3.6,1.3-5.9l0.4,0.3L418,177
		c-0.9,0.7-1.6,1.6-1.9,2.7c-0.3,0.9-0.4,1.8-0.4,2.8c0.1,1.6,0.3,2.6,0.2,2.6c-0.1-0.2-0.2-0.4-0.3-0.7c-0.2-0.6-0.3-1.3-0.4-1.9
		c-0.1-1,0-2,0.3-2.9c0.3-1.2,1.1-2.3,2.1-3c0.1-0.1,0.3-0.2,0.4-0.3l0.5-0.3l-0.1,0.6c-0.4,2-0.9,4-1.5,5.9
		C416.8,183.3,416.5,184.1,416,184.8z"/>
	<path id="ely4ap027bdg" class="st3" d="M414.9,173c-0.4-0.1-0.8-0.2-1.2-0.3c-0.4,0-0.8,0-1.2,0.2c-0.4,0.2-0.8,0.6-0.7,1
		s0.6,0.4,1.1,0.3c0.4-0.1,0.9-0.2,1.3-0.4c0.7-0.3,1-0.7,1.1-0.6s-0.2,0.5-0.9,0.9c-0.4,0.3-0.9,0.4-1.3,0.6
		c-0.3,0.1-0.6,0.1-0.9,0.1c-0.4,0-0.7-0.3-0.9-0.7c-0.1-0.4,0-0.7,0.3-1c0.2-0.2,0.5-0.4,0.8-0.5c0.5-0.2,1-0.2,1.5-0.1
		C414.6,172.5,415,173,414.9,173z"/>
	<path id="eldy05omfilmm" class="st3" d="M415.3,172.9c-0.1-0.5-0.2-0.9-0.2-1.4c0-0.4-0.1-0.9-0.2-1.5c0-0.3-0.1-0.5-0.3-0.7
		c-0.2-0.2-0.4-0.2-0.6-0.1c-0.5,0.2-0.6,0.9-0.5,1.4c0.1,0.5,0.3,0.9,0.6,1.3c0.5,0.7,0.9,1,0.9,1.1s-0.5-0.2-1.2-0.9
		c-0.4-0.4-0.7-0.9-0.8-1.4c-0.1-0.3-0.1-0.7,0-1c0.1-0.4,0.4-0.7,0.7-0.9c0.4-0.2,0.9-0.1,1.2,0.3c0.2,0.3,0.3,0.6,0.3,1
		c0.1,0.5,0.1,1,0.1,1.6C415.5,172,415.5,172.4,415.3,172.9z"/>
	<path id="elb14sh4hsa5r" class="st3" d="M415.8,172.5c0.5-0.2,0.9-0.3,1.4-0.4c0.5-0.1,0.9-0.4,1.1-0.8c0.3-0.4,0.3-1.1-0.1-1.4
		c-0.5-0.3-1.1-0.2-1.5,0.1c-0.4,0.3-0.6,0.8-0.7,1.2c-0.2,0.9-0.2,1.4-0.3,1.4c-0.2-0.5-0.2-1-0.1-1.5c0.1-0.6,0.3-1.1,0.8-1.5
		c0.3-0.2,0.6-0.4,1-0.5c0.4-0.1,0.8,0,1.2,0.3c0.3,0.3,0.5,0.7,0.5,1.1c0,0.4-0.1,0.7-0.3,1c-0.3,0.5-0.9,0.8-1.4,0.9
		C416.9,172.6,416.3,172.7,415.8,172.5z"/>
	<path id="el5vjw8hz0rwv" class="st3" d="M415.6,173.3c0-0.1,0.4-0.2,1.2-0.1c0.5,0.1,0.9,0.3,1.2,0.7c0.2,0.2,0.3,0.5,0.2,0.9
		c0,0.3-0.2,0.6-0.5,0.8c-0.5,0.4-1.2,0.4-1.7-0.1c-0.4-0.3-0.6-0.7-0.6-1.2c0-0.8,0.3-1.2,0.3-1.1s-0.1,0.4,0,1.1
		c0.1,0.4,0.3,0.7,0.6,0.9c0.3,0.2,0.8,0.2,1.1,0c0.3-0.2,0.4-0.7,0.2-1c0,0,0,0,0,0c-0.2-0.3-0.5-0.5-0.9-0.6
		C416,173.4,415.6,173.4,415.6,173.3z"/>
	<path id="elyygz9nh4rki" class="st3" d="M409.9,180c0,0.1-0.3-0.1-0.9-0.1c-0.3,0-0.6,0.1-0.8,0.2c-0.3,0.1-0.5,0.4-0.4,0.6
		s0.4,0.2,0.7,0.1c0.3-0.1,0.6-0.2,0.9-0.3c0.5-0.2,0.7-0.5,0.8-0.4s-0.1,0.4-0.6,0.7c-0.3,0.2-0.6,0.4-0.9,0.5
		c-0.2,0.1-0.4,0.1-0.6,0.1c-0.3,0-0.6-0.2-0.7-0.5c-0.1-0.3,0-0.6,0.2-0.8c0.2-0.2,0.3-0.3,0.5-0.4c0.3-0.1,0.7-0.2,1.1-0.1
		C409.7,179.7,410,180,409.9,180z"/>
	<path id="elv1r9gusjpcm" class="st3" d="M410.2,180c-0.1,0-0.2-0.4-0.3-1c-0.1-0.3-0.1-0.6-0.2-1c0-0.2-0.1-0.3-0.2-0.4
		c-0.1-0.1-0.2-0.1-0.3,0c-0.3,0.1-0.3,0.6-0.2,0.9c0.1,0.3,0.2,0.6,0.5,0.9c0.4,0.5,0.7,0.7,0.6,0.8s-0.4-0.1-0.9-0.5
		c-0.3-0.3-0.5-0.6-0.6-1c-0.1-0.2-0.1-0.5,0-0.8c0-0.3,0.2-0.6,0.5-0.8c0.3-0.2,0.7-0.1,0.9,0.1c0.2,0.2,0.3,0.5,0.3,0.7
		c0,0.4,0,0.8,0,1.1C410.3,179.6,410.3,180,410.2,180z"/>
	<path id="el1yeqyac1w6s" class="st3" d="M410.5,179.7c0-0.1,0.4-0.2,1-0.4c0.3-0.1,0.6-0.3,0.7-0.6c0.2-0.3,0.2-0.7-0.1-0.9
		c-0.3-0.2-0.7-0.1-0.9,0.1c-0.2,0.2-0.4,0.5-0.5,0.8C410.6,179.4,410.6,179.8,410.5,179.7c-0.1,0.1-0.2-0.3-0.2-1
		c0-0.4,0.2-0.8,0.5-1.1c0.4-0.4,1.1-0.5,1.6-0.2c0.3,0.2,0.4,0.5,0.4,0.8c0,0.3-0.1,0.5-0.2,0.8c-0.2,0.4-0.6,0.6-1,0.7
		C410.9,179.8,410.5,179.8,410.5,179.7z"/>
	<path id="el3ypwrzwp2f3" class="st3" d="M410.4,180.3c0,0,0.3-0.2,0.8-0.2c0.3,0,0.7,0.2,0.9,0.5c0.1,0.2,0.2,0.4,0.2,0.6
		c0,0.3-0.1,0.5-0.3,0.6c-0.4,0.3-0.9,0.3-1.3,0c-0.3-0.2-0.5-0.5-0.5-0.9c0-0.6,0.2-0.8,0.2-0.8s0,0.3,0.1,0.8s0.7,0.9,1.1,0.5
		c0.2-0.1,0.2-0.4,0.1-0.6c-0.1-0.2-0.3-0.3-0.6-0.4C410.7,180.3,410.4,180.4,410.4,180.3z"/>
	<path id="elbft0758v5xc" class="st3" d="M419,185.7c0,0.1-0.4-0.1-0.9-0.1c-0.3,0-0.6,0.1-0.8,0.2c-0.3,0.1-0.5,0.4-0.4,0.6
		s0.4,0.2,0.7,0.1c0.3-0.1,0.6-0.2,0.9-0.3c0.5-0.2,0.7-0.5,0.8-0.4s-0.1,0.4-0.6,0.7c-0.3,0.2-0.6,0.4-0.9,0.5
		c-0.2,0.1-0.4,0.1-0.6,0.1c-0.3,0-0.6-0.2-0.7-0.5c-0.1-0.3,0-0.6,0.2-0.8c0.1-0.2,0.3-0.3,0.5-0.4c0.3-0.1,0.7-0.2,1.1-0.1
		C418.8,185.4,419,185.7,419,185.7z"/>
	<path id="elyu64lofil87" class="st3" d="M419.2,185.6c-0.1,0-0.2-0.4-0.3-1c0-0.3-0.1-0.7-0.2-1.1c0-0.2-0.1-0.3-0.2-0.4
		c-0.1-0.1-0.2-0.1-0.3,0c-0.3,0.1-0.3,0.6-0.2,0.9c0.1,0.3,0.2,0.6,0.5,0.9c0.4,0.4,0.7,0.7,0.6,0.8s-0.4-0.1-0.9-0.5
		c-0.3-0.3-0.5-0.6-0.7-1c-0.1-0.2-0.1-0.5,0-0.8c0.1-0.3,0.2-0.6,0.5-0.7c0.3-0.2,0.7-0.1,0.9,0.1c0.2,0.2,0.3,0.5,0.3,0.7
		c0,0.4,0,0.8,0.1,1.1C419.3,185.3,419.3,185.6,419.2,185.6z"/>
	<path id="el82mcj75i4ck" class="st3" d="M419.6,185.4c0-0.1,0.4-0.2,0.9-0.4c0.3-0.1,0.6-0.3,0.7-0.6c0.2-0.3,0.1-0.7-0.1-0.9
		c-0.3-0.2-0.7-0.1-1,0.1c-0.2,0.2-0.4,0.5-0.4,0.8C419.6,185.1,419.6,185.5,419.6,185.4c-0.2,0.1-0.2-0.3-0.2-1
		c0-0.4,0.2-0.8,0.5-1.1c0.4-0.4,1.1-0.5,1.6-0.2c0.3,0.2,0.4,0.5,0.4,0.8c0,0.3-0.1,0.5-0.2,0.8c-0.2,0.4-0.6,0.6-1,0.7
		C420,185.5,419.6,185.4,419.6,185.4z"/>
	<path id="elh2ymg7y3tm8" class="st3" d="M419.4,186c0-0.1,0.3-0.2,0.8-0.2c0.3,0,0.7,0.2,0.9,0.5c0.1,0.2,0.2,0.4,0.2,0.6
		c0,0.3-0.1,0.5-0.4,0.6c-0.4,0.3-0.9,0.3-1.3,0c-0.3-0.2-0.5-0.5-0.5-0.9c0-0.6,0.2-0.8,0.2-0.8s0,0.3,0.1,0.7s0.7,0.9,1.1,0.5
		c0.2-0.1,0.2-0.4,0.1-0.6c-0.1-0.2-0.3-0.3-0.6-0.4C419.8,186,419.4,186,419.4,186z"/>
	<path id="eldvt67pfh73h" class="st3" d="M444.9,175.2c0.1,0.1-4.4,8.2-10.2,18.2s-10.5,18-10.6,17.9s4.4-8.2,10.2-18.2
		S444.8,175.2,444.9,175.2z"/>
	<path id="ely7lrgb0pyy" class="st3" d="M447.6,230.7c-0.4-0.2-0.7-0.4-1-0.6l-2.6-1.8l-8.4-6c-3.3-2.4-6.2-4.6-8.4-6.2
		c-1-0.8-1.9-1.5-2.5-2c-0.3-0.2-0.6-0.5-0.8-0.8c0.4,0.2,0.7,0.4,1,0.6l2.6,1.8l8.4,6.1c3.3,2.4,6.2,4.6,8.4,6.2
		c1,0.8,1.9,1.5,2.5,2C447.1,230.2,447.4,230.4,447.6,230.7z"/>
	<path id="el1xm5hb3frgq" class="st3" d="M423.4,223.1c-0.7,0.2-1.4,0.3-2.1,0.3c-1.7,0-3.5-0.3-5.1-0.9c-1.6-0.6-3.2-1.5-4.5-2.6
		c-0.6-0.4-1.1-1-1.5-1.6C413.8,221.5,418.6,223.2,423.4,223.1L423.4,223.1z"/>
	<path id="elgq019nzois" class="st8" d="M395.6,204.6c-0.6-0.6-1.7-0.3-2.5,0.2c-5.8,3.3-10.8,7.9-14.6,13.4l0.1,0.4
		c5.8-3.3,11.4-6.6,16.2-11.2C395.6,206.6,396.3,205.4,395.6,204.6z"/>
	<path id="el62fb52o35a6" class="st8" d="M377.8,216.1c2.1-6.1,3.3-12.6,3.3-19.1c0-0.7-0.2-1.6-0.9-1.7c-0.4,0-0.8,0.2-1,0.6
		c-0.2,0.4-0.3,0.8-0.3,1.3C378.7,203.4,378,209.8,377.8,216.1"/>
	<path id="elaswqw65n5p7" class="st8" d="M395.5,222.7c-1.8-1.1-4.1-1-6.2-0.9c-3.3,0.2-6.6,0-9.8-0.6l0.1,0.6
		c4.7,2.9,10.5,3.8,15.9,2.4c0.2,0,0.3-0.1,0.5-0.2C396.3,223.5,395.9,222.9,395.5,222.7z"/>
	<path id="el8v87ozwtzj" class="st3" d="M380.5,224.3c-0.2-0.3-0.3-0.6-0.4-0.9c-0.3-0.6-0.6-1.4-1-2.5c-1-2.7-1.9-5.6-2.6-8.4
		c-0.7-2.9-1.1-5.8-1.4-8.7c-0.1-1.1-0.2-2-0.2-2.7c-0.1-0.3-0.1-0.7,0-1c0.2,1.2,0.4,2.4,0.5,3.6c0.3,2.2,0.8,5.3,1.6,8.6
		s1.7,6.3,2.4,8.4C379.9,221.9,380.2,223.1,380.5,224.3z"/>
	<path id="elzzdneh31vq" class="st8" d="M449.1,220c-3.2-6.5-6.5-13.4-6.6-20.6c0-1.1,0.2-2.3,1.2-2.7c0.8-0.2,1.6,0.2,2,0.9
		c0.4,0.7,0.6,1.4,0.6,2.2C447.4,206.6,448.3,213.1,449.1,220"/>
	<path id="elg98dlak0a0s" class="st8" d="M431,199.2c-1.1-1.8-1.7-3.8-1.7-5.9c-0.1-0.5,0.1-0.9,0.4-1.3c0.4-0.3,0.9-0.3,1.3,0.1
		c0.4,0.3,0.6,0.7,0.8,1.1c0.2,0.4,0.4,0.8,0.7,1.2c0.3,0.3,0.7,0.6,0.7,1c0,0.3-0.1,0.5-0.3,0.7C432.3,197.2,431.6,198.2,431,199.2
		"/>
	<path id="elvfh0rrxeyo" class="st8" d="M427.6,205.1c-2.2-0.6-4.7-0.3-6.6,1c-0.3,0.2-0.6,0.5-0.7,0.8c0,0.4,0.2,0.7,0.5,0.9
		c0.3,0.2,0.7,0.2,1.1,0.3l3.2,0.3c0.2,0,0.3,0,0.5,0c0.2-0.1,0.3-0.2,0.4-0.4c0.5-1,1.1-1.6,1.6-2.6"/>
	<path id="elduksqvfvagk" class="st8" d="M372.1,190.5c-1.7-1.8-3.3-3.8-4.6-5.9l-0.6,1.8c1,1.7,2,3.4,3.1,5.1
		c0.3,0.6,0.7,1,1.3,1.3c0.6,0.3,1.3,0.1,1.6-0.4C373.2,191.8,372.6,191.1,372.1,190.5z"/>
	<path id="elu8tin4rkpz" class="st8" d="M368.8,182c1.6,1.3,3.9,0.8,5.7,1.8l0.2-2.4c-1.6-0.6-3.3-1.1-5.1-1.3
		c-0.3,0.7-0.6,1.4-0.8,2.1"/>
	<path id="elvjjb41gqux" class="st5" d="M390.5,437.7l1.5,19.8c0,0-19.7,6.8-19.7,10.5l38.6-0.1l-1.1-31L390.5,437.7z"/>
	<g id="elw270326e8pc">
		<g class="st11">
			<path id="elk49fl15zkxc" d="M390.5,437.7l1.5,19.8c0,0-19.7,6.8-19.7,10.5l38.6-0.1l-1.1-31L390.5,437.7z"/>
		</g>
	</g>
	<path id="elzjkkp5h4bwf" class="st3" d="M403.9,455.4c0.8,0.2,1.3,1,1.2,1.8c-0.2,0.8-0.9,1.3-1.7,1.2c-0.8-0.2-1.4-1-1.2-1.9
		c0.3-0.8,1.1-1.2,1.9-1"/>
	<path id="elq8zqha30pw" class="st3" d="M410.9,467.8l-0.1-3.1l-37.2,1.4c-0.8,0.4-1.3,1.2-1.4,2.1L410.9,467.8z"/>
	<path id="elre0kla1jrvq" class="st3" d="M391.4,457.3c0,0.2,1,0.2,1.9,0.8s1.5,1.3,1.6,1.3s-0.1-1.2-1.3-1.8
		S391.4,457.2,391.4,457.3z"/>
	<path id="elr4uxui97bqf" class="st3" d="M387.4,459.2c0,0.2,0.8,0.5,1.5,1.2s0.9,1.6,1.1,1.6s0.3-1.1-0.6-2S387.4,459,387.4,459.2z
		"/>
	<path id="elnfqj8qyy3os" class="st3" d="M385.3,464.1c0.2,0,0.4-0.9-0.1-1.9s-1.4-1.4-1.5-1.2s0.5,0.7,0.9,1.5
		S385.1,464.1,385.3,464.1z"/>
	<path id="elz77y1yjl5x" class="st3" d="M391.5,452.8c0.1,0.2,0.9-0.1,2-0.1s1.9,0.3,2,0.2s-0.7-0.8-2-0.8S391.5,452.6,391.5,452.8z
		"/>
	<path id="el12179knuk2b" class="st3" d="M391.3,448.8c0.6,0.1,1.3,0.1,1.9-0.1c0.7-0.2,1.4-0.4,2-0.7c0.4-0.2,0.7-0.4,1.1-0.6
		c0.2-0.1,0.4-0.3,0.6-0.5c0.2-0.3,0.2-0.7,0-1c-0.2-0.3-0.5-0.4-0.8-0.4c-0.2,0-0.5,0.1-0.7,0.1c-0.4,0.1-0.8,0.3-1.2,0.5
		c-0.6,0.3-1.2,0.7-1.7,1.2c-0.9,0.9-1.1,1.6-1.1,1.6s0.5-0.5,1.4-1.3c0.5-0.4,1.1-0.7,1.7-1c0.4-0.2,0.7-0.3,1.1-0.4
		c0.4-0.1,0.8-0.1,0.9,0s0,0.1,0,0.2c-0.1,0.1-0.3,0.2-0.4,0.3c-0.3,0.2-0.7,0.4-1,0.6c-0.6,0.3-1.2,0.6-1.8,0.8
		C392.5,448.4,391.9,448.6,391.3,448.8z"/>
	<path id="elm7n7c6e85o" class="st3" d="M391.6,449c0.3-0.6,0.5-1.2,0.4-1.9c0-1.1-0.3-2.3-0.9-3.3c-0.2-0.5-0.7-0.9-1.3-0.9
		c-0.4,0-0.7,0.2-0.8,0.6c-0.1,0.2-0.1,0.5-0.2,0.7c-0.1,0.4,0,0.9,0,1.3c0.1,0.7,0.4,1.4,0.9,2c0.8,1,1.6,1.2,1.6,1.1
		s-0.6-0.4-1.2-1.4c-0.4-0.5-0.6-1.2-0.7-1.8c-0.1-0.4-0.1-0.7,0-1.1c0-0.4,0.2-0.8,0.3-0.7s0.5,0.3,0.7,0.6c0.2,0.3,0.4,0.7,0.5,1
		c0.2,0.6,0.4,1.3,0.5,1.9C391.6,448.3,391.5,449,391.6,449z"/>
	<path id="elhvxwuia9ki" class="st5" d="M403,437.7l1.5,19.8c0,0-19.7,6.8-19.7,10.4l38.5-0.1l-1.1-31L403,437.7z"/>
	<path id="el5sw9b3kzngd" class="st3" d="M416.4,455.3c0.8,0.2,1.3,1,1.2,1.8c-0.2,0.8-0.9,1.3-1.7,1.2c-0.8-0.2-1.3-1-1.2-1.9
		c0.3-0.8,1.1-1.2,1.9-1"/>
	<path id="elcr00cdioudc" class="st3" d="M423.4,467.8l-0.1-3.1l-37.2,1.4c-0.8,0.4-1.3,1.2-1.4,2.1L423.4,467.8z"/>
	<path id="elg43jci2bhxa" class="st3" d="M403.9,457.3c0,0.2,1,0.2,1.9,0.8s1.5,1.3,1.6,1.3s-0.2-1.1-1.3-1.8
		S403.9,457.1,403.9,457.3z"/>
	<path id="el8b347503109" class="st3" d="M399.9,459.1c0,0.2,0.8,0.5,1.5,1.2s0.9,1.6,1.1,1.6s0.3-1.1-0.6-2S399.9,459,399.9,459.1z
		"/>
	<path id="elmc9wst76wm" class="st3" d="M397.8,464.1c0.2,0,0.4-0.9-0.1-1.9s-1.4-1.4-1.5-1.2s0.5,0.7,0.9,1.5
		S397.6,464.1,397.8,464.1z"/>
	<path id="elrg2vl206j0a" class="st3" d="M404,452.8c0.1,0.2,0.9-0.1,2-0.1s1.9,0.3,2,0.2s-0.7-0.8-2-0.8S404,452.6,404,452.8z"/>
	<path id="elnyp4818aeco" class="st3" d="M403.8,448.8c0.6,0.1,1.3,0.1,1.9-0.1c0.7-0.2,1.4-0.4,2-0.7c0.4-0.2,0.7-0.4,1.1-0.6
		c0.2-0.1,0.4-0.3,0.6-0.5c0.2-0.3,0.3-0.7,0-1c-0.2-0.3-0.5-0.4-0.9-0.4c-0.2,0-0.5,0.1-0.7,0.1c-0.4,0.1-0.8,0.3-1.2,0.5
		c-0.6,0.3-1.2,0.7-1.7,1.2c-0.9,0.9-1.1,1.6-1.1,1.6s0.5-0.5,1.4-1.3c0.5-0.4,1.1-0.7,1.7-1c0.4-0.2,0.7-0.3,1.1-0.4
		c0.4-0.1,0.8-0.1,0.9,0s0,0.1,0,0.2c-0.1,0.1-0.3,0.3-0.4,0.4c-0.3,0.2-0.7,0.4-1,0.6c-0.6,0.3-1.2,0.6-1.8,0.8
		C405,448.4,404.4,448.5,403.8,448.8z"/>
	<path id="ely3k7okuzsv9" class="st3" d="M404.1,449c0.3-0.6,0.5-1.2,0.4-1.9c0-0.7-0.1-1.4-0.4-2.1c-0.1-0.4-0.3-0.8-0.5-1.1
		c-0.2-0.5-0.7-0.9-1.3-0.9c-0.3,0-0.7,0.2-0.8,0.6c-0.1,0.2-0.2,0.5-0.2,0.7c-0.1,0.4,0,0.9,0,1.3c0.1,0.7,0.4,1.4,0.9,2
		c0.8,1,1.6,1.2,1.6,1.1s-0.6-0.4-1.2-1.4c-0.4-0.5-0.6-1.2-0.7-1.8c-0.1-0.4-0.1-0.7,0-1.1c0-0.4,0.2-0.8,0.3-0.7s0.5,0.3,0.7,0.6
		c0.2,0.3,0.4,0.6,0.5,1c0.2,0.6,0.4,1.3,0.5,1.9C404.1,448.3,404,449,404.1,449z"/>
	<path id="ell5fnde5u3fr" class="st3" d="M377.3,246.2c0,0-11.5,26-11.5,44.3s13.1,78.2,13.1,78.2s1.7,16.6,3.5,38.7
		c1.1,13.8,3.4,27.5,6.7,41h13.1l21.2,0.6c0,0,9-36.9,8.4-50.9s-2.9-29.9-2.9-29.9s11.3-46.2,13.4-54.7s1.2-39.8,0-40.7l-9.1-24.1
		L377.3,246.2z"/>
	<path id="elgyces3n4zlm" class="st4" d="M402,304.3c0.1,0,0.3,32.2,0.3,71.9S402.1,448,402,448s-0.3-32.2-0.3-71.9
		S401.8,304.3,402,304.3z"/>
	<path id="elsnnifboxzj" class="st4" d="M397,291.1c-0.1-0.5-0.2-1.1-0.3-1.6c-0.2-1-0.3-2.6-0.5-4.5c-0.8-9.9-0.1-19.8,2-29.4
		c0.4-1.9,0.8-3.3,1.1-4.4c0.1-0.5,0.3-1.1,0.5-1.6c-0.1,0.5-0.2,1.1-0.3,1.6c-0.2,1-0.6,2.5-0.9,4.4c-1.9,9.7-2.6,19.5-2,29.3
		c0.1,1.9,0.2,3.4,0.3,4.5C397,290,397,290.5,397,291.1z"/>
	<path id="ellnszamu360n" class="st4" d="M440.4,272.4c-0.3,0.2-0.6,0.4-0.9,0.5c-0.9,0.4-1.9,0.5-2.9,0.5c-3.2-0.3-6.2-1.6-8.8-3.6
		c-2.6-1.9-4.6-4.4-6.1-7.3c-0.4-0.9-0.8-1.8-1.1-2.7c-0.1-0.3-0.2-0.7-0.2-1c0.1,0,0.5,1.4,1.6,3.5c1.5,2.7,3.5,5.1,6,7
		c2.4,2,5.4,3.2,8.5,3.6C437.9,273.1,439.2,272.9,440.4,272.4z"/>
	<path id="eltghg8onscil" class="st4" d="M384,254.3c0,0.3-0.1,0.6-0.2,0.9c-0.2,0.8-0.6,1.6-0.9,2.4c-2.4,5.3-6.5,9.6-11.6,12.4
		c-0.8,0.4-1.6,0.8-2.4,1.1c-0.3,0.1-0.6,0.2-0.9,0.3c0-0.1,1.2-0.6,3.1-1.7c4.9-2.9,8.9-7.1,11.4-12.2
		C383.5,255.6,383.9,254.3,384,254.3z"/>
	<path id="el06s4rqo3q6bc" class="st4" d="M407.3,256.6c0,0-0.1-0.2-0.2-0.5c-0.2-0.5-0.5-0.9-0.9-1.1c-0.6-0.4-1.3-0.5-2-0.3
		c-1,0.4-1.5,1.6-1.1,2.7s1.6,1.5,2.7,1.1c0.1-0.1,0.3-0.1,0.4-0.2c0.4-0.3,0.7-0.7,0.9-1.1C407.3,256.8,407.3,256.6,407.3,256.6
		s0.1,0.2,0,0.6c-0.1,0.5-0.4,1-0.8,1.4c-0.7,0.5-1.5,0.7-2.4,0.4c-1.3-0.4-2-1.9-1.6-3.2c0.3-0.7,0.8-1.3,1.6-1.6
		c0.8-0.3,1.7-0.1,2.4,0.4c0.4,0.3,0.7,0.8,0.8,1.4C407.4,256.2,407.4,256.4,407.3,256.6z"/>
	<path id="elftsom38mnj" class="st4" d="M422.4,367.3c-2.2,1.5-4.6,2.9-7,4.2c-2.4,1.4-4.8,2.7-7.3,3.8
		C412.7,372.3,417.5,369.6,422.4,367.3L422.4,367.3z"/>
	<path id="elxd7wkujool" class="st9" d="M377.1,214.1l-14.4-1.8l-4.5,15.3l-42.7-12.1c-4-1.7-8.3-2.4-12.7-2.1l-5.8-0.8
		c0,0-2.8-2-4-1.7s-2.3,0.7-1,2.1s4.2,2.4,7.4,3.9l-1.1,1h-4.1c0,0-2.7-5.9-4-6.6c-0.5-0.3-1.1-0.4-1.7-0.3l1.2,4c0,0-3.7-7-6.4-6.3
		c0,0-1.2-2.8-3.6-1.4l1,2.3c0,0-1.6-0.1-1.6,0.8c0,0.4,5.7,11,5.7,11l11.1,3.7c0,0,15.3-1.3,15.4-1s37.3,15.4,43.4,17.2
		s11,3,12,2.1s12.4-22.9,12.4-22.9L377.1,214.1z"/>
	<path id="elfdyypn7krea" class="st9" d="M332.2,224.8l10.7,6.1l10.9,2h14.9c0,0,31.9,12.3,40.1,14.2s18.4,5.3,21.4,3.4
		s15.1-21.5,15.1-21.5l-15.5-11.4l-7,11.9l-48.6-6c0,0-4.4-4.3-9.6-4.7s-17-1.4-17.1,0s-0.3,2.1,2.1,2.6s9.3,2,9.3,2l-8.4,1.1
		c0,0-8.4-4-9.1-4s-1.6,1-1.6,1s-2.6-1.3-3.9-1.1c-0.8,0.1-1.4,0.6-1.7,1.3c-1.1,0.2-2.1,0.9-2.6,1.9l1.7,0.7L332.2,224.8z"/>
	<path id="elr4cgqeop3k" class="st10" d="M386,225h-0.2h-0.6l-2.3-0.3l-8.7-1h0l0,0c-2-1.8-4.3-3.2-6.8-4.1c-1.5-0.4-3-0.7-4.6-0.7
		c-1.6-0.1-3.3-0.3-5.1-0.4s-3.6-0.2-5.5-0.2c-0.9,0-1.9,0-2.8,0.1c-0.5,0-0.9,0.1-1.4,0.3c-0.1,0-0.2,0.1-0.2,0.1l0,0v0.2
		c0,0.2,0,0.5,0,0.7c-0.1,1,1,1.2,2,1.4l3,0.6l6.3,1.4l1.4,0.3l-1.4,0.2l-8.4,1.1h-0.1h-0.1c-2.5-1.2-5.1-2.4-7.9-3.6
		c-0.3-0.1-0.5-0.2-0.8-0.3s-0.4-0.2-0.6-0.1c-0.5,0.2-0.9,0.5-1.2,0.9l-0.1,0.1l-0.2-0.1c-0.9-0.5-1.9-0.8-2.9-1.1
		c-0.5-0.1-0.9-0.1-1.4,0.1c-0.4,0.2-0.7,0.6-0.9,1l-0.1,0.1h-0.1c-1,0.1-1.9,0.8-2.4,1.7l-0.1-0.3l1.7,0.7l0.5,0.2l-0.5,0.3
		l-1.1,0.6v-0.4l10.7,6.2h-0.1l10.9,2l0,0l14.9,0.1h0.1l11.1,4.2l3,1.2l0.8,0.3l0.3,0.1c-0.1,0-0.2,0-0.3-0.1l-0.8-0.3l-3-1.1
		l-11.3-4.2h0h-14.9l0,0l-10.9-2l0,0l0,0l-10.9-6.1l-0.4-0.2l0.4-0.2l1.1-0.6v0.5l-1.7-0.7l-0.2-0.1l0.1-0.2
		c0.2-0.6,0.6-1.1,1.1-1.4c0.5-0.3,1.1-0.5,1.6-0.6l-0.2,0.2c0.2-0.5,0.7-1,1.2-1.3c0.5-0.2,1.1-0.3,1.7-0.1c1.1,0.2,2.1,0.6,3,1.1
		l-0.3,0.1c0.4-0.4,0.9-0.8,1.4-1c0.3-0.1,0.7,0,1,0.1l0.8,0.3c2.7,1.1,5.4,2.4,7.9,3.6h-0.1l8.4-1.1v0.5l-6.3-1.4l-3-0.6
		c-0.5-0.1-1-0.2-1.5-0.5c-0.3-0.1-0.5-0.3-0.7-0.6c-0.1-0.3-0.2-0.5-0.2-0.8c0-0.3,0-0.5,0-0.8v-0.2c0-0.1,0.1-0.2,0.1-0.3
		c0.1-0.1,0.2-0.2,0.4-0.3c0.5-0.2,1-0.3,1.5-0.3c1-0.1,1.9-0.1,2.9-0.1c1.9,0,3.7,0.1,5.5,0.2s3.5,0.2,5.1,0.4
		c1.6,0.1,3.1,0.3,4.7,0.8c2.5,0.9,4.9,2.3,6.9,4.2h-0.1l8.7,1.1l2.3,0.3l0.6,0.1C385.9,224.9,386,225,386,225z"/>
	<path id="elj1xia063hjq" class="st10" d="M350.5,225.1c-0.2,0.1-0.5,0.1-0.7,0.1c-0.7,0.1-1.3,0.3-1.9,0.5c-1,0.3-1.9,0.6-2.9,0.8
		c-1.3,0-2.5-0.2-3.7-0.7c-1.1-0.5-2.2-0.9-3.4-1.2c-0.9-0.3-1.9-0.4-2.9-0.4c-0.9,0-1.8,0.2-2.6,0.5c0,0,0.2-0.2,0.6-0.4
		c0.6-0.3,1.3-0.4,2-0.4c2.2,0,4.5,0.6,6.5,1.5c1.1,0.5,2.2,0.7,3.4,0.7c1-0.1,2-0.5,2.9-0.6c0.7-0.2,1.3-0.3,2-0.4
		C350.3,225,350.5,225.1,350.5,225.1z"/>
	<path id="elxfw8au7133" class="st10" d="M343.1,225.7c-0.1,0.1-2.2-1.4-5-2.9c-1.2-0.6-2.5-0.9-3.9-0.8c-1,0.1-1.6,0.4-1.6,0.3
		c0.4-0.4,1-0.6,1.6-0.7c1.4-0.2,2.9,0.1,4.1,0.7c1.2,0.6,2.4,1.4,3.5,2.2C342.6,225.2,343.1,225.6,343.1,225.7z"/>
	<path id="elmzzyo07leh" class="st10" d="M347.1,225.3c-0.7-0.1-1.3-0.3-1.9-0.6c-1.5-0.6-2.9-1.3-4.2-2.1c-0.8-0.4-1.6-0.9-2.3-1.2
		c-0.6-0.3-1.3-0.5-2-0.6c-0.6,0-1.3,0-1.9,0.2c0.5-0.4,1.2-0.6,1.9-0.6c0.7,0,1.5,0.2,2.1,0.5c0.8,0.4,1.6,0.8,2.3,1.2
		c1.6,0.9,3,1.7,4.1,2.2C345.9,224.7,346.5,225,347.1,225.3z"/>
	<path id="elpzvu794u54f" class="st10" d="M312.2,215.7c0,0-0.4,0-1.1,0c-1,0.1-2,0.4-2.9,0.9c-1.1,0.5-2.4,1.4-4,2
		c-1.8,0.6-3.7,0.7-5.6,0.3c-0.8-0.1-1.6-0.3-2.3-0.4s-1.5-0.2-2.2-0.3H294l-0.1-0.1c-0.2-0.6-0.5-1.2-0.8-1.8l-0.9-1.6l-0.8-1.4
		l-0.8-1.2c-0.3-0.6-0.9-1-1.5-1c-0.5-0.1-0.7,0-0.7-0.1c0.2-0.1,0.5-0.1,0.7-0.1c0.3,0,0.6,0.1,0.9,0.2c0.2,0.1,0.4,0.2,0.5,0.3
		c0.1,0.2,0.2,0.3,0.4,0.5l0.8,1.1l0.9,1.4l1,1.6c0.3,0.6,0.6,1.2,0.8,1.9l-0.2-0.2c0.7,0.1,1.5,0.1,2.2,0.2s1.5,0.3,2.3,0.4
		c1.8,0.3,3.6,0.2,5.3-0.3c1.6-0.5,2.9-1.4,4.1-1.9c0.9-0.4,2-0.7,3-0.7C311.5,215.5,311.9,215.6,312.2,215.7z"/>
	<path id="ela1qg12ikr6" class="st10" d="M296.7,223.7c-1.6-0.3-3.2-0.8-4.6-1.6c-1.5-0.6-2.9-1.4-4.3-2.3c1.6,0.4,3.1,1,4.5,1.8
		C293.8,222.2,295.3,222.9,296.7,223.7z"/>
	<path id="eliyc12yciqt" class="st10" d="M301.5,223.7c-1.6,0-3.1-0.3-4.6-0.9c-1.5-0.4-2.9-1.1-4.2-2c0.1-0.1,2,0.8,4.4,1.6
		S301.5,223.5,301.5,223.7z"/>
	<path id="elw8eqtyj5y" class="st10" d="M288.4,211c0.7,1.4,1.3,2.9,1.6,4.5c0.6,1.5,0.9,3.1,1.2,4.6c-0.7-1.4-1.3-2.9-1.7-4.5
		C289,214.1,288.6,212.6,288.4,211z"/>
	<path id="elkkgabum0kkb" class="st10" d="M287.8,219.8c-1-1.7-1.8-3.6-2.5-5.4c-0.9-1.8-1.5-3.7-2.1-5.6c1,1.7,1.9,3.5,2.5,5.4
		C286.6,216,287.3,217.9,287.8,219.8z"/>
	<path id="el7wegdo72o4" class="st10" d="M285.4,220.2c-1.2-2-2.2-4.2-3.1-6.3c-1-2.1-1.9-4.3-2.6-6.5c1.2,2,2.2,4.1,3.1,6.3
		C283.8,215.7,284.7,217.9,285.4,220.2z"/>
	<path id="elfh62drn8t6" class="st10" d="M303.9,213.3c-1,0.5-2,1.2-2.8,1.9c-1.4,1.3-2.3,2.6-2.4,2.5c0.5-1.1,1.2-2.1,2.1-2.9
		c0.6-0.6,1.3-1.1,2.1-1.4C303.5,213.2,303.9,213.2,303.9,213.3z"/>
	<path id="el3tk7xro5k59" class="st10" d="M350.7,230.2c-1.3,0.4-2.6,0.6-3.9,0.7c-1.3,0.2-2.7,0.3-4,0.2c1.3-0.4,2.6-0.6,3.9-0.7
		C348,230.1,349.4,230.1,350.7,230.2z"/>
	<path id="elybg26r4x0p" class="st8" d="M372,175c2.6-0.9,4.4-3.2,4.6-5.9C374.8,170.8,373.2,172.8,372,175"/>
</g>
</svg>
