<?xml version="1.0" encoding="utf-8"?>
<!-- Generator: Adobe Illustrator 24.2.1, SVG Export Plug-In . SVG Version: 6.00 Build 0)  -->
<svg version="1.1" id="freepik_stories-memory-storage" xmlns:svgjs="http://svgjs.com/svgjs"
	 xmlns="http://www.w3.org/2000/svg" xmlns:xlink="http://www.w3.org/1999/xlink" x="0px" y="0px" viewBox="0 0 500 500"
	 style="enable-background:new 0 0 500 500;" xml:space="preserve">
<style type="text/css">
	.st0{fill:#EBEBEB;}
	.st1{fill:#E0E0E0;}
	.st2{fill:#F0F0F0;}
	.st3{fill:#E6E6E6;}
	.st4{fill:#FFFFFF;}
	.st5{fill:#F5F5F5;}
	.st6{fill:#3EAFF3;}
	.st7{opacity:0.2;enable-background:new    ;}
	.st8{opacity:0.5;fill:#3EAFF3;enable-background:new    ;}
	.st9{opacity:0.5;fill:#FFFFFF;enable-background:new    ;}
	.st10{opacity:0.3;fill:#3EAFF3;enable-background:new    ;}
	.st11{opacity:0.6;fill:#3EAFF3;enable-background:new    ;}
	.st12{fill:#CE7A63;}
	.st13{fill:#263238;}
	.st14{opacity:0.1;enable-background:new    ;}
	.st15{opacity:0.4;enable-background:new    ;}
	.st16{opacity:0.3;enable-background:new    ;}
	.st17{fill:#BA4D3C;}
</style>
<g id="freepik--background-complete--inject-1">
	<rect id="elg4ahd95exl5" y="382.4" class="st0" width="500" height="0.3"/>
	<rect id="elpqc2iwyve3p" x="416.8" y="398.5" class="st0" width="33.1" height="0.3"/>
	<rect id="el1vpdiu1zxew" x="322.5" y="401.2" class="st0" width="8.7" height="0.3"/>
	<rect id="eliv3gpa5kbdk" x="396.6" y="389.2" class="st0" width="19.2" height="0.3"/>
	<rect id="elyzg7nxjhyjp" x="52.5" y="390.9" class="st0" width="43.2" height="0.3"/>
	<rect id="elreikd55tblo" x="104.6" y="390.9" class="st0" width="6.3" height="0.3"/>
	<rect id="elf62sa3rrpiq" x="131.5" y="395.1" class="st0" width="93.7" height="0.3"/>
	<path id="eljs9gyq5wyxt" class="st0" d="M237,337.8H43.9c-3.1,0-5.7-2.6-5.7-5.7V60.7c0-3.1,2.6-5.7,5.7-5.7H237
		c3.2,0,5.7,2.6,5.7,5.7c0,0,0,0,0,0v271.4C242.7,335.2,240.2,337.8,237,337.8z M43.9,55.2c-3,0-5.5,2.4-5.5,5.5v271.4
		c0,3,2.4,5.5,5.5,5.5H237c3,0,5.5-2.4,5.5-5.5V60.7c0-3-2.4-5.5-5.5-5.5H43.9z"/>
	<path id="el0ahmifuh0z0p" class="st0" d="M453.3,337.8H260.2c-3.2,0-5.7-2.6-5.7-5.7V60.7c0-3.1,2.6-5.7,5.7-5.7h193.1
		c3.1,0,5.7,2.5,5.7,5.7v271.4C459,335.2,456.5,337.8,453.3,337.8z M260.2,55.2c-3,0-5.5,2.4-5.5,5.5v271.4c0,3,2.4,5.5,5.5,5.5
		h193.1c3,0,5.5-2.4,5.5-5.5V60.7c0-3-2.4-5.5-5.5-5.5H260.2z"/>
	<path id="elve9ymdi8hw" class="st1" d="M85.6,102.8c0.1-13.2,10.9-23.8,24.1-23.7c3,0,6,0.6,8.8,1.7c7-14.3,24.3-20.3,38.6-13.3
		c7.9,3.9,13.6,11.1,15.5,19.7c13.7,1,24,12.8,23.1,26.5c-0.9,13-11.7,23.1-24.7,23.1H91.9c-9.7,0-17.6-7.9-17.6-17.6
		C74.3,112,78.8,105.5,85.6,102.8z"/>
	<path id="el16rpa7ylied" class="st1" d="M366.1,297.8c0.1-8.1,6.7-14.7,14.9-14.6c1.8,0,3.7,0.4,5.4,1.1c4.3-8.8,15-12.5,23.8-8.2
		c4.9,2.4,8.4,6.9,9.6,12.2c8.4,0.5,14.9,7.8,14.3,16.3c-0.5,8.1-7.2,14.4-15.3,14.4H370c-6,0-10.8-4.9-10.8-10.9
		C359.2,303.4,362,299.4,366.1,297.8L366.1,297.8z"/>
	<path id="eltimm2uhp2pg" class="st2" d="M102.2,254.2c0.1-13.8,11.3-24.9,25.2-24.8c3.2,0,6.3,0.6,9.3,1.8
		c7.3-15,25.4-21.3,40.5-13.9c8.3,4,14.3,11.6,16.3,20.6c14.4,0.5,25.6,12.5,25.2,26.8s-12.5,25.6-26.8,25.2h-82.9
		c-10.2,0-18.5-8.3-18.4-18.5C90.3,263.8,95,256.9,102.2,254.2L102.2,254.2z"/>
	<path id="el4sggvrp0clv" class="st3" d="M119.4,278c0,2.1-1.7,3.8-3.8,3.8s-3.8-1.7-3.8-3.8s1.7-3.8,3.8-3.8l0,0
		C117.7,274.2,119.4,275.9,119.4,278z"/>
	<path id="el6x7008t6va" class="st4" d="M133.6,278c0,2.1-1.7,3.8-3.8,3.8c-2.1,0-3.8-1.7-3.8-3.8s1.7-3.8,3.8-3.8l0,0
		C131.9,274.2,133.6,275.9,133.6,278z"/>
	<path id="elx6nh91v1nw" class="st5" d="M360.7,133.3c0.1-9.6,7.9-17.3,17.5-17.2c2.2,0,4.3,0.4,6.3,1.3
		c5.1-10.4,17.7-14.7,28.1-9.5c5.7,2.8,9.8,8,11.2,14.2c9.9,0.3,17.7,8.6,17.4,18.6s-8.6,17.7-18.6,17.4h-57.4
		c-7.1,0-12.8-5.7-12.8-12.8C352.5,139.9,355.7,135.1,360.7,133.3L360.7,133.3z"/>
	<path id="eln69myysg51t" class="st4" d="M413.1,149c0,1.4-1.1,2.5-2.4,2.5s-2.5-1.1-2.5-2.4c0-1.4,1.1-2.5,2.4-2.5c0,0,0,0,0,0
		C412,146.6,413.1,147.7,413.1,149z"/>
	<path id="elsftygv5459e" class="st4" d="M422.3,149c0,1.4-1.1,2.5-2.4,2.5s-2.5-1.1-2.5-2.4c0-1.4,1.1-2.5,2.4-2.5c0,0,0,0,0,0
		C421.2,146.6,422.3,147.7,422.3,149z"/>
	<path id="el9dw1jde95r4" class="st3" d="M403.9,149c0,1.4-1.1,2.5-2.4,2.5s-2.5-1.1-2.5-2.4c0-1.4,1.1-2.5,2.4-2.5c0,0,0,0,0,0
		C402.8,146.6,403.9,147.7,403.9,149z"/>
</g>
<g id="freepik--Shadow--inject-1">
	<ellipse id="freepik--path--inject-1" class="st5" cx="250" cy="416.2" rx="193.9" ry="11.3"/>
</g>
<g id="freepik--Cloud--inject-1">
	<path id="elkjf31th8k1o" class="st6" d="M201.4,97.4h-18.4c-23.7,0-45.1,14.2-54.3,36h-14.6C86.3,133,63.4,155.3,63,183.2
		s21.9,50.8,49.7,51.2c0.5,0,0.9,0,1.4,0h87.3V97.4z"/>
	<path id="elzynm9swlhpc" class="st6" d="M158,100.3l-0.4-0.9c2.3-1,4.7-1.9,7.1-2.7l0.3,1C162.6,98.4,160.3,99.3,158,100.3z"/>
	<path id="eli9y7xgrta3" class="st6" d="M135.2,117.9l-0.8-0.6c4.6-5.7,10.2-10.6,16.5-14.4l0.5,0.9
		C145.2,107.4,139.7,112.2,135.2,117.9z"/>
	<g id="el0g5nwypq63s8">
		<path class="st7" d="M201.4,97.4h-18.4c-23.7,0-45.1,14.2-54.3,36h-14.6C86.3,133,63.4,155.3,63,183.2s21.9,50.8,49.7,51.2
			c0.5,0,0.9,0,1.4,0h87.3V97.4z"/>
	</g>
	<g id="elo6h8mw4bgn">
		<path class="st8" d="M132.3,126.5h26.4l19.5-17.3h-30.4C141.5,113.9,136.3,119.8,132.3,126.5z"/>
	</g>
	<g id="el7dppivkmge3">
		<path class="st8" d="M72.3,155.7c-3.6,5.3-6.1,11.1-7.4,17.3H95v-17.3H72.3z"/>
	</g>
	<g id="elovh36efvdcf">
		<path class="st8" d="M195.8,101.5h-34.2c-3.7,1.4-7.2,3.2-10.5,5.4h25.2L195.8,101.5z"/>
	</g>
	<path id="elf51lozc7t1s" class="st6" d="M301.9,172.2c-5.1-21.7-23.9-37.4-46.1-38.7c-12.6-30-47.1-44.1-77.1-31.5
		c-14.8,6.2-26.5,18.3-32.2,33.3c-26.8-7.6-54.7,7.9-62.3,34.7s7.9,54.7,34.7,62.3c4.5,1.3,9.1,1.9,13.8,1.9h160.7
		c17.5,0,31.6-14.2,31.6-31.7C324.8,188.5,315.5,176.1,301.9,172.2L301.9,172.2z"/>
	<g id="el8ueym72adq">
		<path class="st7" d="M300.8,176.1l-2.3-0.6l-0.5-2.3c-4.8-19.9-22-34.4-42.4-35.6l-2.5-0.1l-1-2.3c-8.5-20.4-28.5-33.7-50.6-33.6
			c-0.7,0-1.4,0-2.1,0c21.3,0.8,40.3,13.9,48.5,33.6l1,2.3l2.5,0.1c20.4,1.3,37.6,15.7,42.4,35.6l0.5,2.3l2.3,0.6
			c14.7,4.1,23.3,19.4,19.2,34.1c-3.3,12-14.3,20.2-26.7,20.2h4.3c15.3,0,27.6-12.4,27.6-27.7C320.9,190.3,312.7,179.5,300.8,176.1
			L300.8,176.1z"/>
	</g>
	<path id="elppzdwvt29r" class="st4" d="M296.5,176.1l-2.3-0.6l-0.5-2.3c-4.8-19.9-22-34.4-42.4-35.6l-2.5-0.1l-1-2.3
		c-8.2-19.7-27.2-32.8-48.5-33.6h-0.1c-21.9,1-41.2,14.8-49.1,35.3l-1.3,3.4l-3.5-1l-0.3-0.1c-4.1-1.1-8.2-1.7-12.4-1.7
		c-0.7,0-1.4,0-2.2,0c-25.6,1.3-45.3,23.1-44,48.7c1.3,24.6,21.5,44,46.2,44.1H289c15.3,0,27.6-12.4,27.6-27.7
		C316.6,190.3,308.4,179.4,296.5,176.1L296.5,176.1z"/>
	<polygon id="el3f6nz4xoai8" class="st6" points="181.4,170.7 181.4,210.4 221.4,210.4 221.4,170.7 234,170.7 201.4,134 
		168.7,170.7 	"/>
	<path id="elrxqhldoi0ln" class="st6" d="M168.1,261.3h12.4l0,0v20.6c0,2.9-2.3,5.2-5.2,5.2c0,0,0,0,0,0h-2c-2.9,0-5.2-2.3-5.2-5.2
		l0,0L168.1,261.3L168.1,261.3z"/>
	<g id="elgg32ef4sbef">
		<path class="st7" d="M168.1,261.3h12.4l0,0v20.6c0,2.9-2.3,5.2-5.2,5.2c0,0,0,0,0,0h-2c-2.9,0-5.2-2.3-5.2-5.2l0,0L168.1,261.3
			L168.1,261.3z"/>
	</g>
	<path id="elatlda1iuanq" class="st6" d="M162.6,234.3h23.6l0,0v23.6c0,5.4-4.4,9.8-9.8,9.8h-3.9c-5.4,0-9.8-4.4-9.8-9.8V234.3
		L162.6,234.3z"/>
	<g id="elmx2scytafj">
		<polygon class="st7" points="186.1,240.2 162.6,243.8 162.6,234.3 186.1,234.3 		"/>
	</g>
	<circle id="eldiogaxx0eb" class="st4" cx="181.2" cy="252.1" r="3.1"/>
	<g id="elyn263rdkg1r">
		<circle class="st9" cx="172.8" cy="252.1" r="3.1"/>
	</g>
	<path id="elnh35xdc52s" class="st6" d="M252.8,321.7h-52.4c-15.7,0-28.5-12.8-28.5-28.5v-6.1h5v6.1c0,13,10.5,23.5,23.5,23.5h52.4
		V321.7z"/>
</g>
<g id="freepik--Server--inject-1">
	<path id="eld5q2v7aef7" class="st6" d="M289.2,196.3h85.9c7.2,0,13,5.8,13,13v193.8c0,7.2-5.8,13-13,13h-85.9c-7.2,0-13-5.8-13-13
		V209.4C276.2,202.2,282,196.3,289.2,196.3z"/>
	<g id="elhyfltavs2t">
		<path class="st7" d="M289.2,196.3h85.9c7.2,0,13,5.8,13,13v193.8c0,7.2-5.8,13-13,13h-85.9c-7.2,0-13-5.8-13-13V209.4
			C276.2,202.2,282,196.3,289.2,196.3z"/>
	</g>
	<path id="eldfkj5a1xfeu" class="st6" d="M265.8,196.3h85.9c7.2,0,13,5.8,13,13v193.8c0,7.2-5.8,13-13,13h-85.9c-7.2,0-13-5.8-13-13
		V209.4C252.8,202.2,258.6,196.3,265.8,196.3z"/>
	<g id="el3d9g3gsrofe">
		<path class="st7" d="M211.9,254.6h193.8c4.8,0,8.7,3.9,8.7,8.7v86c0,4.8-3.9,8.7-8.7,8.7H211.9c-4.8,0-8.7-3.9-8.7-8.7v-86
			C203.2,258.5,207.1,254.6,211.9,254.6z"/>
	</g>
	<g id="el5qdl55pa36w">
		<path class="st4" d="M213.9,256.6h193.8c4.8,0,8.7,3.9,8.7,8.7v81.9c0,4.8-3.9,8.7-8.7,8.7H213.9c-4.8,0-8.7-3.9-8.7-8.7v-81.9
			C205.2,260.5,209.1,256.6,213.9,256.6z"/>
	</g>
	<g id="elkyhj6rst6l">
		<path class="st10" d="M346.9,226.1h-72.2c-3.7,0-6.7-3-6.8-6.8l0,0c0-3.7,3-6.8,6.8-6.8h72.2c3.7,0,6.8,3,6.8,6.8l0,0
			C353.7,223.1,350.7,226.1,346.9,226.1z"/>
	</g>
	<path id="elvpiyh2mz38d" class="st4" d="M323.1,220.8h-49.5c-0.8,0-1.5-0.6-1.5-1.5c0,0,0,0,0,0l0,0c0-0.8,0.7-1.5,1.5-1.5l0,0
		h49.5c0.8,0,1.5,0.7,1.5,1.5c0,0,0,0,0,0l0,0C324.6,220.2,323.9,220.8,323.1,220.8L323.1,220.8z"/>
	<circle id="el0r3bafd0stz" class="st6" cx="341" cy="219.4" r="1.5"/>
	<circle id="ele0o6srqz40h" class="st6" cx="347.5" cy="219.4" r="1.5"/>
	<circle id="el4gp5lc6urfp" class="st6" cx="334.5" cy="219.4" r="1.5"/>
	<g id="elljetf4iufx">
		<path class="st10" d="M346.9,247.8h-72.2c-3.7,0-6.7-3-6.8-6.8l0,0c0-3.7,3-6.7,6.8-6.8h72.2c3.7,0,6.8,3,6.8,6.8l0,0
			C353.7,244.8,350.7,247.8,346.9,247.8z"/>
	</g>
	<path id="elxidmogzwczk" class="st4" d="M323.1,242.6h-49.5c-0.8,0-1.5-0.7-1.5-1.5l0,0l0,0c0-0.8,0.7-1.5,1.5-1.5l0,0h49.5
		c0.8,0,1.5,0.7,1.5,1.5l0,0C324.6,241.9,323.9,242.6,323.1,242.6z"/>
	<circle id="eljgurnncelbb" class="st6" cx="341" cy="241.1" r="1.5"/>
	<circle id="elwaemtucmlb" class="st6" cx="347.5" cy="241.1" r="1.5"/>
	<g id="elp0xllfnenv">
		<circle class="st10" cx="334.5" cy="241.1" r="1.5"/>
	</g>
	<g id="ellxwgz8goo5">
		<path class="st10" d="M346.9,269.6h-72.2c-3.7,0-6.7-3-6.8-6.8l0,0c0-3.7,3-6.8,6.8-6.8h72.2c3.7,0,6.8,3,6.8,6.8l0,0
			C353.7,266.6,350.7,269.6,346.9,269.6z"/>
	</g>
	<path id="eldmr60d5jm9" class="st4" d="M323.1,264.3h-49.5c-0.8,0-1.5-0.6-1.5-1.5c0,0,0,0,0,0l0,0c0-0.8,0.7-1.5,1.5-1.5
		c0,0,0,0,0,0h49.5c0.8,0,1.5,0.7,1.5,1.5c0,0,0,0,0,0l0,0C324.6,263.6,323.9,264.3,323.1,264.3L323.1,264.3z"/>
	<circle id="el4mblhms9x65" class="st6" cx="341" cy="262.8" r="1.5"/>
	<circle id="el5j7fv7hrzns" class="st6" cx="347.5" cy="262.8" r="1.5"/>
	<g id="elgom8ttxlcmg">
		<circle class="st11" cx="334.5" cy="262.8" r="1.5"/>
	</g>
	<g id="eln5rgbqmh7wk">
		<path class="st10" d="M274.7,277.8h72.2c3.7,0,6.8,3,6.8,6.8v0c0,3.7-3,6.8-6.8,6.8h-72.2c-3.7,0-6.8-3-6.8-6.8v0
			C267.9,280.8,271,277.8,274.7,277.8z"/>
	</g>
	<path id="elloh4wev6nyl" class="st4" d="M323.1,286h-49.5c-0.8,0-1.5-0.7-1.5-1.5c0,0,0,0,0,0l0,0c0-0.8,0.7-1.5,1.5-1.5
		c0,0,0,0,0,0h49.5c0.8,0,1.5,0.7,1.5,1.5l0,0C324.6,285.3,323.9,286,323.1,286z"/>
	<circle id="elc0rxoo33t0v" class="st6" cx="341" cy="284.5" r="1.5"/>
	<g id="el0c9evsr6fnp">
		<circle class="st10" cx="347.5" cy="284.5" r="1.5"/>
	</g>
	<g id="elbiegqxo96z8">
		<circle class="st11" cx="334.5" cy="284.5" r="1.5"/>
	</g>
	<g id="elsrax98u4qli">
		<path class="st10" d="M346.9,313h-72.2c-3.7,0-6.7-3-6.8-6.8l0,0c0-3.7,3-6.8,6.8-6.8h72.2c3.7,0,6.8,3,6.8,6.8l0,0
			C353.7,310,350.7,313,346.9,313z"/>
	</g>
	<path id="elubeveor56hi" class="st4" d="M323.1,307.8h-49.5c-0.8,0-1.5-0.6-1.5-1.5c0,0,0,0,0,0l0,0c0-0.8,0.7-1.5,1.5-1.5
		c0,0,0,0,0,0h49.5c0.8,0,1.5,0.7,1.5,1.5c0,0,0,0,0,0l0,0C324.6,307.1,323.9,307.8,323.1,307.8L323.1,307.8z"/>
	<circle id="el0feqccfglnq6" class="st6" cx="341" cy="306.3" r="1.5"/>
	<g id="el7443jqznviw">
		<circle class="st11" cx="347.5" cy="306.3" r="1.5"/>
	</g>
	<circle id="elregeiqaqo2" class="st6" cx="334.5" cy="306.3" r="1.5"/>
	<g id="elb9o13myz3mu">
		<path class="st10" d="M346.9,334.8h-72.2c-3.7,0-6.7-3-6.8-6.8l0,0c0-3.7,3-6.7,6.8-6.8h72.2c3.7,0,6.7,3,6.8,6.7l0,0
			C353.7,331.7,350.7,334.8,346.9,334.8z"/>
	</g>
	<path id="elb8e836st1o5" class="st4" d="M323.1,329.5h-49.5c-0.8,0-1.5-0.7-1.5-1.5c0,0,0,0,0,0l0,0c0-0.8,0.7-1.5,1.5-1.5
		c0,0,0,0,0,0h49.5c0.8,0,1.5,0.7,1.5,1.5l0,0C324.6,328.8,323.9,329.5,323.1,329.5z"/>
	<g id="elob5pzg1u3q">
		<circle class="st10" cx="341" cy="328" r="1.5"/>
	</g>
	<circle id="elghjobk1y3b9" class="st6" cx="347.5" cy="328" r="1.5"/>
	<circle id="el1ti8bhhkbmk" class="st6" cx="334.5" cy="328" r="1.5"/>
	<g id="elyz5a14uu2pm">
		<path class="st10" d="M346.9,356.5h-72.2c-3.7,0-6.7-3-6.8-6.8l0,0c0-3.7,3-6.8,6.8-6.8h72.2c3.7,0,6.8,3,6.8,6.8l0,0
			C353.7,353.5,350.7,356.5,346.9,356.5z"/>
	</g>
	<path id="elqq724l52jno" class="st4" d="M323.1,351.2h-49.5c-0.8,0-1.5-0.7-1.5-1.5c0,0,0,0,0,0l0,0c0-0.8,0.7-1.5,1.5-1.5
		c0,0,0,0,0,0h49.5c0.8,0,1.5,0.7,1.5,1.5c0,0,0,0,0,0l0,0C324.6,350.6,323.9,351.2,323.1,351.2z"/>
	<g id="elwgnp6pkmx5">
		<circle class="st10" cx="341" cy="349.8" r="1.5"/>
	</g>
	<circle id="elz4thcijfoos" class="st6" cx="347.5" cy="349.8" r="1.5"/>
	<g id="elsesj0ei6hlo">
		<circle class="st10" cx="334.5" cy="349.8" r="1.5"/>
	</g>
	<g id="el47jdjksh7i2">
		<path class="st10" d="M274.7,364.7h72.2c3.7,0,6.8,3,6.8,6.8v0c0,3.7-3,6.8-6.8,6.8h-72.2c-3.7,0-6.8-3-6.8-6.8v0
			C267.9,367.8,271,364.7,274.7,364.7z"/>
	</g>
	<path id="eln0x5qxxxj5a" class="st4" d="M323.1,373h-49.5c-0.8,0-1.5-0.7-1.5-1.5c0,0,0,0,0,0l0,0c0-0.8,0.7-1.5,1.5-1.5
		c0,0,0,0,0,0h49.5c0.8,0,1.5,0.7,1.5,1.5l0,0C324.6,372.3,323.9,373,323.1,373z"/>
	<circle id="elsfpdo3sasqj" class="st6" cx="341" cy="371.5" r="1.5"/>
	<circle id="elzvlavgpq3x" class="st6" cx="347.5" cy="371.5" r="1.5"/>
	<circle id="eloodywhv00eo" class="st6" cx="334.5" cy="371.5" r="1.5"/>
	<g id="elrkv67s3nzbi">
		<path class="st10" d="M346.9,400h-72.2c-3.7,0-6.7-3-6.8-6.8l0,0c0-3.7,3-6.8,6.8-6.8h72.2c3.7,0,6.8,3,6.8,6.8l0,0
			C353.7,397,350.7,400,346.9,400z"/>
	</g>
	<path id="elnxao4rkz8y" class="st4" d="M323.1,394.7h-49.5c-0.8,0-1.5-0.7-1.5-1.5c0,0,0,0,0,0l0,0c0-0.8,0.7-1.5,1.5-1.5
		c0,0,0,0,0,0h49.5c0.8,0,1.5,0.7,1.5,1.5c0,0,0,0,0,0l0,0C324.6,394,323.9,394.7,323.1,394.7z"/>
	<circle id="elya7t7ol87i" class="st6" cx="341" cy="393.2" r="1.5"/>
	<circle id="el44f57cxjcyy" class="st6" cx="347.5" cy="393.2" r="1.5"/>
	<g id="elijcvdpl29mh">
		<circle class="st11" cx="334.5" cy="393.2" r="1.5"/>
	</g>
	<g id="eluml7xwukyof">
		<path class="st7" d="M371.5,241.7h10.1c1.6,0,3,1.3,3,3v12.5c0,1.6-1.3,3-3,3h-10.1c-1.6,0-3-1.3-3-3v-12.5
			C368.5,243.1,369.8,241.7,371.5,241.7z"/>
	</g>
</g>
<g id="freepik--Character--inject-1">
	<polygon id="eltil7ixt43fm" class="st12" points="261.9,195.2 273.2,200.1 266.7,207.7 257.3,203.6 	"/>
	<g id="el2dgtckdfo7">
		<polygon class="st7" points="261.9,195.2 273.2,200.1 269.6,204.4 259.3,199.9 		"/>
	</g>
	<path id="elpohwno7dpwo" class="st13" d="M268.2,211.7l-1.3-0.3c-0.8-0.2-1.4-0.8-1.6-1.5l0,0l-0.8,0.4c-0.5,0.2-1,0.2-1.5,0.1
		l-17.3-4.6c0.2-1.2,0.8-2.3,1.6-3.3c0,0,7.7,1.6,10-0.1c0.2-0.1,0.4-0.2,0.6-0.1c1.4,0.7,6.8,3.3,10.4,3.1c0.4,0,0.7,0.3,0.7,0.7
		c0,0.1,0,0.1,0,0.2C268.6,208,268.3,209.8,268.2,211.7z"/>
	<path id="els5pygydmj2n" class="st13" d="M363.5,159.6l-4.8,10.1c-7.1,15-24.8,22.5-38.8,16.6c-8.2-3.4-17.2-10.7-23.3-14.1
		c-5.2,11.4-15,24.1-22.5,32.8l-15.1-7.6c5.6-13,14.4-33.2,20-46.3c2-4.8,6.6-7.9,11.8-8.2C315.9,142.3,363.5,159.6,363.5,159.6z"/>
	<polygon id="el59kpkuswa4p" class="st12" points="290.7,228.4 301.6,227.9 299.6,239.8 290.5,240.2 	"/>
	<g id="eljeo9r3du5ob">
		<polygon class="st7" points="290.7,228.4 301.6,227.9 300.8,232.8 290.6,233.4 		"/>
	</g>
	<path id="el39rd2s0k7wr" class="st13" d="M303.8,240.4l-1.3,0.4c-0.7,0.2-1.6,0.1-2.2-0.4l0,0l-0.5,0.7c-0.3,0.4-0.7,0.7-1.2,0.9
		l-17.1,5.4c-0.5-1.1-0.6-2.4-0.4-3.6c0,0,7.4-2.8,8.4-5.5c0.1-0.2,0.3-0.4,0.5-0.4c1.5-0.1,7.6-0.9,10.5-2.9c0.3-0.2,0.8-0.1,1,0.2
		c0,0.1,0.1,0.1,0.1,0.2C302.1,237,302.9,238.7,303.8,240.4z"/>
	<path id="el4zlkvgza7gb" class="st13" d="M370.6,155.6l-0.1,10.7c-0.1,15.8-13.5,29.9-29.5,31.1c-9.3,0.7-22,0.9-29.3,0.8
		c-1.1,11.1-4.5,24.1-8,33.6l-15.7-1.1c-0.4-13.4-1-32.4-1.5-45.1c0-5.1,2.9-9.8,7.5-12.1C317.6,161.9,370.6,155.6,370.6,155.6z"/>
	<g id="el41xd4xydo4e">
		<path class="st14" d="M300.4,231.9h-0.1c-0.2-0.1-0.3-0.3-0.3-0.5c2.4-7.8,6.7-32.2,6.9-43.4c0-0.1,0-0.2,0.1-0.3
			c0.1-0.1,0.2-0.1,0.3-0.1c23,3.1,38.5,2,45-3c11.4-8.8,11.2-23.1,8.3-30.6c-0.1-0.2,0-0.4,0.2-0.5c0,0,0,0,0,0
			c0.2-0.1,0.4,0,0.5,0.2c0,0,0,0,0,0c3,7.7,3.1,22.3-8.5,31.4c-6.7,5.2-21.9,6.3-45.2,3.2c-0.3,11.4-4.5,35.5-6.9,43.2
			C300.7,231.8,300.5,231.9,300.4,231.9z"/>
	</g>
	<g id="elsxa9gqpbn3">
		<path class="st7" d="M296,173.6c-2.7,5.4-5.8,10.6-9.4,15.5c0.1,2.2,0.2,4.6,0.3,7C292.5,187.3,296,173.6,296,173.6L296,173.6z"/>
	</g>
	<path id="eldljgbawi9ph" class="st12" d="M336.7,105.1c-0.4,1.6-0.8,2.9-1.3,4.3s-0.9,2.8-1.4,4.2c-1,2.8-2.1,5.5-3.3,8.2
		s-2.5,5.4-4,8.1c-1.5,2.8-3.3,5.5-5.2,8.1l-0.6,0.9c-0.4,0.5-0.9,0.9-1.5,1.2c-1.1,0.5-2.2,1-3.4,1.4c-1.1,0.4-2.3,0.7-3.5,0.9
		c-1.2,0.2-2.4,0.3-3.6,0.4c-0.6,0-1.2,0-1.8,0l-0.9-0.1c-0.3,0-0.6-0.1-1-0.1c-1.9-0.1-3.4-1.8-3.3-3.7c0-0.3,0.1-0.7,0.2-1
		l1.3-3.7c0.1-0.2,0.2-0.3,0.4-0.5l0.5-0.5l1-0.9c0.7-0.6,1.3-1.2,2-1.8s1.3-1.2,1.9-1.7s1.2-1.1,1.7-1.7l-2.2,2.1
		c1.2-2.1,2.3-4.3,3.2-6.5l0.8-1.8l0.7-1.8c0.5-1.2,1-2.4,1.4-3.7c0.9-2.5,1.8-5,2.7-7.6l2.6-7.6l0.1-0.2c1.6-4.5,6.5-6.8,11-5.3
		C335.4,96.3,337.8,100.8,336.7,105.1L336.7,105.1z"/>
	<path id="ela5dg20ewndi" class="st6" d="M328.4,91.1c-4.6,1.3-10.7,6.3-12.8,17.8c3.1,4.8,17.4,1.1,17.4,1.1L328.4,91.1z"/>
	<path id="elmyugxmkfds" class="st12" d="M307,134.4l0.5,4.9c-1.4,5-7.5,2.1-7.5,2.1l-3.5-0.2c-1.3-0.1-2.3-1.2-2.3-2.5l-0.4-3.4
		c-0.2-1.5,0.7-2.9,2.2-3.1l3.1-0.3c0.9-0.1,1.8,0,2.6,0.4L307,134.4z"/>
	<path id="el8ldu7bpf23r" class="st6" d="M330.6,90.4c7.5-1.6,15.1-2.6,22.8-3.1c7.9-0.4,14.7,5.6,15.2,13.6c0,0.4,0,0.8,0,1.2
		c-0.6,25.2,2.9,51.7,2.4,56.5c0,0-53.1,7.6-61.3-8.1c-3.4-22.4,7.6-19.5,8.5-45.3C318.5,98.5,324,91.8,330.6,90.4z"/>
	<path id="el3hc2pm2i3bc" class="st4" d="M326.5,113.2l0.2-0.1v-0.2c0.2-1.6,1.6-2.9,3.2-3h0.2l0.1-0.2c0.5-1.6,2-2.7,3.7-2.8l0,0
		c1.8,0.1,3.4,1.3,4.1,3l0.1,0.3l0.3-0.1l0,0c0.3-0.1,0.7-0.1,1-0.1h0.2c2.1,0.2,3.7,1.9,3.8,4c0.2,1.9-1.2,3.6-3.1,3.8
		c-0.1,0-0.3,0-0.4,0l-12.6-0.2c-1.3-0.1-2.3-1.1-2.4-2.4C324.9,114.3,325.5,113.4,326.5,113.2z"/>
	<path id="el4ini5q43v52" class="st12" d="M368.1,95.8l0.5,1.1l0.4,1c0.3,0.7,0.5,1.3,0.8,2c0.5,1.3,0.9,2.6,1.4,3.9
		c0.9,2.7,1.6,5.4,2.1,8.1c0.3,1.4,0.5,2.8,0.7,4.2s0.3,2.9,0.4,4.3c0.2,3.1,0.1,6.1-0.3,9.1l-0.1,0.7c-0.1,0.9-0.5,1.9-1,2.6
		c-0.9,1.4-2.1,2.7-3.4,3.8c-1.1,0.9-2.2,1.8-3.3,2.6c-2.1,1.4-4.3,2.7-6.6,3.8c-2.2,1.1-4.5,2-6.7,2.8c-2.3,0.8-4.6,1.5-6.9,2.1
		c-2.3,0.5-4.7-0.9-5.2-3.3c-0.4-1.6,0.2-3.3,1.5-4.4l0.2-0.1c1.7-1.3,3.5-2.7,5.2-4s3.4-2.7,5-4s3.1-2.7,4.4-4
		c0.6-0.6,1.2-1.3,1.7-1.9c0.4-0.4,0.7-0.9,0.9-1.5l-1.1,3.4c0-2-0.2-4.1-0.6-6.1c-0.4-2.1-0.9-4.3-1.5-6.5s-1.3-4.4-2-6.6
		c-0.4-1.1-0.8-2.2-1.1-3.3l-1.1-3.1l-0.2-0.5c-1.7-4.4,0.5-9.4,4.9-11.1c4.3-1.6,9.1,0.4,11,4.6L368.1,95.8z"/>
	<path id="elh65bezm4hx" class="st6" d="M356.2,87.4c3.7,0.4,11.4,3.2,16.5,13.7c-5,9.9-18.1,13.7-18.1,13.7S345.6,92.7,356.2,87.4z
		"/>
	<path id="el1twq7jd0abz" class="st6" d="M326.2,158.5h-43.2c-1.9,0-2.3-0.4-0.9-1l19.7-7.5c1.9-0.6,3.9-1,6-1H351
		c1.9,0,2.3,0.4,0.9,1l-19.7,7.5C330.3,158.1,328.3,158.5,326.2,158.5z"/>
	<g id="el2a4obyhzyyf">
		<path class="st15" d="M326.2,158.5h-43.2c-1.9,0-2.3-0.4-0.9-1l19.7-7.5c1.9-0.6,3.9-1,6-1H351c1.9,0,2.3,0.4,0.9,1l-19.7,7.5
			C330.3,158.1,328.3,158.5,326.2,158.5z"/>
	</g>
	<path id="el75gos1vj3yw" class="st6" d="M326.2,156.7h-43.2c-2-0.1-3.6-1.5-4-3.4l-4.9-26.6c-0.4-1.5,0.6-3,2.1-3.3
		c0.2-0.1,0.5-0.1,0.7-0.1h43.2c2,0.1,3.6,1.5,4,3.4l4.9,26.6c0.4,1.5-0.6,3-2,3.3C326.7,156.7,326.5,156.7,326.2,156.7z"/>
	<g id="elyee6youw22">
		<path class="st16" d="M326.2,156.7h-43.2c-2-0.1-3.6-1.5-4-3.4l-4.9-26.6c-0.4-1.5,0.6-3,2.1-3.3c0.2-0.1,0.5-0.1,0.7-0.1h43.2
			c2,0.1,3.6,1.5,4,3.4l4.9,26.6c0.4,1.5-0.6,3-2,3.3C326.7,156.7,326.5,156.7,326.2,156.7z"/>
	</g>
	<g id="elncbg70a9xaj">
		<path class="st10" d="M325.2,156.7h-42.2c-2-0.1-3.6-1.5-4-3.4l-4.9-26.6c-0.4-1.5,0.6-3,2.1-3.3c0.2-0.1,0.5-0.1,0.7-0.1h42.2
			c2,0.1,3.6,1.5,4,3.4l4.9,26.6c0.4,1.5-0.6,3-2,3.3C325.7,156.7,325.5,156.7,325.2,156.7z"/>
	</g>
	<path id="el2pjxuka1a5c" class="st12" d="M344.9,142.2l2.2,2.3c2,4.8-4.6,6.4-4.6,6.4l-2.9,2c-1.1,0.7-2.5,0.4-3.4-0.5l-2.4-2.5
		c-1.1-1-1.2-2.7-0.2-3.8l2.2-2.1c0.6-0.6,1.4-1.1,2.3-1.3l3.8-1.1C342.9,141.1,344.1,141.4,344.9,142.2z"/>
	<path id="ele7i21i4ied" class="st12" d="M333.5,93c0.4-1.5,1.4-2.8,2.6-3.7c0.3-1.5,0-3-0.7-4.3l11.9-10c0.7,5,2.5,11.6,4.9,13.8
		c-2.7,2.5-7.8,7.1-14,8.1S333,95.4,333.5,93z"/>
	<g id="elvkyi1inuglp">
		<path class="st7" d="M335.6,85.5l10.2-4.2c-1.3,5.2-7,9.4-9.6,7.4C336.3,87.6,336.1,86.5,335.6,85.5z"/>
	</g>
	<path id="elgdfxldt6ad4" class="st13" d="M335.1,69.5c0,3.7-3,6.6-6.6,6.6c-3.7,0-6.6-3-6.6-6.6c0-3.7,3-6.6,6.6-6.6c0,0,0,0,0,0
		C332.1,62.8,335.1,65.8,335.1,69.5C335.1,69.5,335.1,69.5,335.1,69.5z"/>
	<path id="el9qhkong9s5" class="st12" d="M346.5,65.8c1.6,7.6,2.5,12.8-1,17.1c-6.9,8.6-13.2,5.9-17-1.1c-3.4-6.3-5.4-17.6,1.1-22.5
		c4.7-3.5,11.4-2.6,14.9,2.1C345.5,62.7,346.2,64.2,346.5,65.8z"/>
	<path id="eleoumpls0iz7" class="st13" d="M331.6,63.8c-1.5,1.8-5.6,5.4-11.5,2.1s-3.5-11.2,0.1-13.8c3-2.2,6.8-2.7,10.3-1.4
		c0,0-0.5-4.2,5.4-4.4s5.6,4,5.6,4s7.7-3.2,11.3,2.7c3.4,5.5-1.7,9.8-1.7,9.8s5.3,2.3,3.6,7.8c-0.7,2.7-3.1,4.6-5.8,4.7
		c0,0-5.7,0.4-6.6-3.7c-0.6-2.4-0.3-5,0.8-7.2C343.1,64.4,334,68,331.6,63.8z"/>
	<path id="elcr5j1uuxbbb" class="st13" d="M340.3,72.7L340.3,72.7l-1.4-0.2c-0.1,0-0.2-0.1-0.2-0.2c0,0,0,0,0,0
		c0-0.1,0.1-0.2,0.3-0.2c0,0,0,0,0,0l1.4,0.1l7.1-1.7c0.1,0,0.3,0,0.3,0.2c0,0,0,0,0,0c0,0.1,0,0.3-0.2,0.3L340.3,72.7L340.3,72.7z"
		/>
	<path id="elxkvcm24sf8" class="st13" d="M350.5,63.7c-0.2,0-0.5,0-0.7,0c-0.3,0-0.5-0.3-0.4-0.6s0.3-0.5,0.6-0.4
		c1.3,0.3,2.7-0.2,3.5-1.3c0.5-0.7,0.6-1.7,0.2-2.5c-0.1-0.2,0-0.5,0.2-0.7c0,0,0,0,0,0c0.2-0.1,0.5,0,0.7,0.2
		c0.6,1.1,0.5,2.5-0.2,3.5C353.3,63.1,351.9,63.7,350.5,63.7z"/>
	<path id="el0do6xe506im5" class="st13" d="M323,68.5c-1,0-2-0.2-3-0.4c-2.7-0.6-4.7-2.9-5-5.6c-0.3-2.9,1.1-6,3.4-7.2
		c0.2-0.1,0.5-0.1,0.7,0.2s0.1,0.5-0.2,0.7c0,0,0,0-0.1,0c-1.9,1-3.1,3.7-2.8,6.2c0.2,2.3,1.9,4.3,4.2,4.8c5.9,1.6,8.8-2.2,10-4.6
		c0.1-0.2,0.4-0.3,0.7-0.2c0.2,0.1,0.3,0.4,0.2,0.7C330,65.3,327.6,68.5,323,68.5z"/>
	<path id="el5o60e1bzjsh" class="st13" d="M334.1,80c-0.4,0.2-0.7,0.3-1.1,0.4c-0.1,0-0.2-0.1-0.2-0.2c0-0.1,0-0.2,0.2-0.3
		c1.7-0.4,3.2-1.6,4-3.2c0-0.1,0.2-0.2,0.3-0.1c0,0,0,0,0,0c0.1,0,0.2,0.2,0.1,0.3c0,0,0,0,0,0C336.6,78.3,335.5,79.4,334.1,80z"/>
	<g id="elh23ci394el4">
		<path class="st7" d="M337.1,69.8c0.7-0.6,1.6-0.9,2.6-0.8C338.9,69.5,338,69.7,337.1,69.8z"/>
	</g>
	<g id="elbotkbt7j57g">
		<path class="st7" d="M337.3,70.4c0.8-0.4,1.7-0.5,2.5-0.2C339,70.5,338.1,70.6,337.3,70.4z"/>
	</g>
	<g id="el997cqkuudm">
		<path class="st7" d="M326.8,72.7c0,0-0.9-0.5-1.1,0.1C326.1,72.9,326.5,72.9,326.8,72.7z"/>
	</g>
	<g id="elsuwq6ech4n">
		<path class="st7" d="M326.9,73.3c0,0-0.7-0.4-0.8,0.3C326.4,73.7,326.7,73.6,326.9,73.3z"/>
	</g>
	<path id="elliqf2flyl" class="st12" d="M351.2,74c-0.6,1.9-1.9,3.4-3.6,4.3c-2.3,1.2-4-0.8-3.8-3.2c0.2-2.2,1.6-5.4,4.1-5.6
		c1.8-0.1,3.4,1.3,3.5,3.2C351.4,73.1,351.3,73.6,351.2,74z"/>
	<path id="el4bgzps17yfa" class="st13" d="M335.2,70.8c0.2,0.6,0,1.2-0.4,1.3s-0.9-0.3-1-0.9s0-1.2,0.4-1.3S335,70.2,335.2,70.8z"/>
	<path id="elm0emaxoocma" class="st13" d="M328.8,72.6c0.2,0.6,0,1.2-0.4,1.3s-0.9-0.3-1-0.9s0-1.2,0.4-1.3S328.6,72,328.8,72.6z"/>
	<path id="elsouflm9hibb" class="st13" d="M325.1,77.2c-0.4,0-0.8-0.2-1-0.6l-1-1.8c-0.1-0.2-0.1-0.5,0-0.7c0.1-0.2,0.3-0.3,0.5-0.4
		l5.2-1.2c0.5-0.1,1,0.1,1.2,0.6l1,1.8c0.1,0.2,0.1,0.5,0,0.7c-0.1,0.2-0.3,0.3-0.5,0.4l-5.2,1.2L325.1,77.2z M328.9,73L328.9,73
		l-5.3,1.2c-0.1,0-0.1,0.1-0.1,0.1c0,0.1,0,0.2,0,0.2l1,1.8c0.1,0.2,0.4,0.3,0.6,0.3l5.2-1.2c0.1,0,0.1-0.1,0.2-0.1
		c0-0.1,0-0.2,0-0.2l-1-1.8C329.4,73.1,329.2,73,328.9,73z"/>
	<path id="el7fhio5urglv" class="st17" d="M330.9,72.7l2.2,4.8c-0.9,0.7-2,1-3.1,0.9C329.8,76.5,330.1,74.5,330.9,72.7z"/>
	<path id="elpanxlpylvch" class="st13" d="M333.7,75.2c-0.4,0-0.8-0.2-1-0.6l-1-1.8c-0.1-0.2-0.1-0.5,0-0.7c0.1-0.2,0.3-0.3,0.5-0.4
		l5.2-1.2c0.5-0.1,1,0.1,1.2,0.6l1,1.8c0.1,0.2,0.1,0.5,0,0.7c-0.1,0.2-0.3,0.3-0.5,0.4l0,0l-5.2,1.2L333.7,75.2z M337.5,71.1
		L337.5,71.1l-5.3,1.2c-0.1,0-0.1,0.1-0.2,0.1c0,0.1,0,0.2,0,0.2l1,1.8c0.1,0.2,0.4,0.4,0.7,0.3l5.2-1.2c0.1,0,0.1-0.1,0.2-0.1
		c0-0.1,0-0.2,0-0.2l-1-1.8C338,71.2,337.8,71.1,337.5,71.1z M339.1,73.8L339.1,73.8z"/>
	<path id="elnd54ci5i2a" class="st13" d="M330.1,74.2L330.1,74.2c-0.2,0-0.3-0.2-0.2-0.3c0,0,0,0,0,0c0,0,0.4-1.1,2.5-0.7
		c0.1,0,0.2,0.1,0.2,0.3c0,0,0,0,0,0c0,0.1-0.1,0.2-0.3,0.2c0,0,0,0,0,0c-1.6-0.3-1.9,0.3-1.9,0.3C330.3,74.1,330.2,74.2,330.1,74.2
		z"/>
	<path id="elo24mzsicku" class="st13" d="M336.7,68.6c0.1,0,0.1-0.1,0.1-0.1c0.1-0.2,0.1-0.4-0.1-0.5c-0.9-0.8-2.2-1-3.3-0.7
		c-0.2,0.1-0.3,0.3-0.2,0.5c0,0,0,0,0,0c0.1,0.2,0.3,0.3,0.5,0.2l0,0c0.9-0.2,1.9,0,2.6,0.6C336.4,68.6,336.5,68.6,336.7,68.6z"/>
	<path id="el3l1atxt86t2" class="st13" d="M324.8,71.7c0.1,0,0.2-0.1,0.3-0.2c0.2-0.9,0.9-1.7,1.8-2c0.2-0.1,0.3-0.3,0.3-0.4
		c0,0,0,0,0,0c-0.1-0.2-0.3-0.3-0.5-0.3c-1.1,0.4-2,1.3-2.3,2.4c-0.1,0.2,0.1,0.4,0.2,0.5c0,0,0,0,0,0
		C324.6,71.7,324.7,71.7,324.8,71.7z"/>
</g>
<g id="freepik--Folder--inject-1">
	<g id="eld5owe99knp4">
		<path class="st7" d="M252.8,337.4v65.8c0,7.2,5.8,13,13,13h16l-5.7-72.6L252.8,337.4z"/>
	</g>
	<path id="el7qq7ijp07ca" class="st6" d="M228.9,338l-6.4,8c-1.1,1.4-2.9,2.3-4.7,2.3h-57.7c-3.1,0.1-5.7,2.4-6,5.5l-5.1,61.4
		c-0.3,2.7,1.7,5.2,4.4,5.5c0.2,0,0.4,0,0.7,0h113c3.1-0.1,5.7-2.4,6-5.5l6.1-74c0.3-2.7-1.7-5.2-4.4-5.5c-0.2,0-0.4,0-0.7,0h-40.6
		C231.8,335.8,230.1,336.6,228.9,338z"/>
	<g id="elg5pnxbardsn">
		<path class="st16" d="M228.9,338l-6.4,8c-1.1,1.4-2.9,2.3-4.7,2.3h-57.7c-3.1,0.1-5.7,2.4-6,5.5l-5.1,61.4
			c-0.3,2.7,1.7,5.2,4.4,5.5c0.2,0,0.4,0,0.7,0h113c3.1-0.1,5.7-2.4,6-5.5l6.1-74c0.3-2.7-1.7-5.2-4.4-5.5c-0.2,0-0.4,0-0.7,0h-40.6
			C231.8,335.8,230.1,336.6,228.9,338z"/>
	</g>
	<path id="eluyfab0vz259" class="st6" d="M206.1,342.4l-5.2,7.6c-1,1.4-2.6,2.2-4.3,2.2h-47.5c-2.8-0.1-5.1,2.1-5.2,4.8
		c0,0.1,0,0.3,0,0.4l4.2,58.2c0.3,3,2.9,5.3,5.9,5.3h113c2.8,0.1,5.1-2.1,5.2-4.8c0-0.1,0-0.3,0-0.4l-5.1-70.1
		c-0.3-3-2.9-5.3-5.9-5.3h-50.8C208.7,340.2,207.1,341,206.1,342.4z"/>
</g>
</svg>
