<?xml version="1.0" encoding="utf-8"?>
<!-- Generator: Adobe Illustrator 24.2.1, SVG Export Plug-In . SVG Version: 6.00 Build 0)  -->
<svg version="1.1" id="freepik_stories-partnership" xmlns:svgjs="http://svgjs.com/svgjs"
	 xmlns="http://www.w3.org/2000/svg" xmlns:xlink="http://www.w3.org/1999/xlink" x="0px" y="0px" viewBox="0 0 500 500"
	 style="enable-background:new 0 0 500 500;" xml:space="preserve">
<style type="text/css">
	.st0{fill:#F5F5F5;}
	.st1{fill:#E0E0E0;}
	.st2{fill:#EBEBEB;}
	.st3{fill:#FAFAFA;}
	.st4{fill:#F0F0F0;}
	.st5{fill:#FFFFFF;}
	.st6{fill:#0E9AFF;}
	.st7{opacity:0.2;enable-background:new    ;}
	.st8{opacity:0.25;fill:#FFFFFF;enable-background:new    ;}
	.st9{opacity:0.3;fill:#FFFFFF;enable-background:new    ;}
	.st10{opacity:0.1;fill:#FFFFFF;enable-background:new    ;}
	.st11{opacity:0.55;fill:#FFFFFF;enable-background:new    ;}
	.st12{opacity:0.45;enable-background:new    ;}
	.st13{opacity:0.3;enable-background:new    ;}
	.st14{opacity:0.15;enable-background:new    ;}
	.st15{opacity:0.5;fill:#FFFFFF;enable-background:new    ;}
	.st16{opacity:0.8;fill:#FFFFFF;enable-background:new    ;}
	.st17{opacity:0.7;fill:#FFFFFF;enable-background:new    ;}
	.st18{opacity:0.1;enable-background:new    ;}
	.st19{opacity:0.4;fill:#FFFFFF;enable-background:new    ;}
	.st20{opacity:0.2;}
	.st21{fill:#37474F;}
	.st22{fill:#455A64;}
	.st23{opacity:0.6;}
	.st24{fill:#263238;}
	.st25{opacity:0.4;enable-background:new    ;}
	.st26{fill:#B16668;}
	.st27{fill:#9A4A4D;}
	.st28{fill:#F28F8F;}
	.st29{fill:#FFBDA7;}
	.st30{fill:#F0997A;}
</style>
<g id="freepik--Floor--inject-136">
	<path id="freepik--floor--inject-136" class="st0" d="M83.2,444.6C-9,396-9,317.1,83.2,268.5s241.5-48.6,333.6,0
		s92.2,127.5,0,176.1S175.3,493.2,83.2,444.6z"/>
</g>
<g id="freepik--Shadows--inject-136">
	<path id="freepik--Shadow--inject-136" class="st1" d="M404.9,329.3c-13.5-6.8-22.3-11.6-28.4-15.5c-8.1-5.2-9.6-7.6-9.9-8.3
		c0.7-0.8,4.1-2.5,9.9-2.9c3.8-0.2,7.6-1.2,11-2.9c3.4-2,5.3-5,5.3-8.4c0-4.4-3.1-8.7-8.5-11.8c-5-2.8-10.7-4.3-16.4-4.3
		c-3.7-0.1-7.3,0.7-10.5,2.4c-3,1.7-5.2,4.5-6.1,7.9c-0.5,2.2-2.9,4.7-7.8,4.8h-0.2c-8.7,0-21.4-8.5-37.6-19.2l-6.1-4.1l-2.1,1.2
		c-4.9,2.8-9.6,5.5-13.5,7.6c-19,10.5-29.5,16.4-29.2,23.7c0.2,5.8,6.7,9.7,17.3,10.5c4.4,0.4,6.7,1.3,7.6,1.9
		c0.6,0.3,1.3,0.9,1.3,1.5c0,0.8-1,2.8-4.5,4.9c-3.8,2.1-8.1,3.2-12.4,3.2c-2.3,0.1-4.5-0.4-6.5-1.4c-1.1-0.6-2-1.6-2.3-2.9
		c-1.2-5-6-10.8-15.5-10.9h-0.3c-7.3,0-15,3.6-25.1,9.4c-3,1.7-6.1,3.6-9.5,5.6c-1.5,0.9-3,1.8-4.6,2.8c-2.2,1.4-4.4,2.8-6.8,4.2
		l-1.9,1.1c-4.2,2.4-8.3,4.7-12.4,7c-20.5,11.4-29.5,16.7-29.2,23.3c0.2,5.2,5.9,8.6,15.6,9.4c5,0.4,7.6,1.6,8.8,2.2
		c0.8,0.5,1.9,1.3,1.9,2.3c0,1.4-1.6,3.6-5.1,5.7c-4.2,2.3-9,3.5-13.9,3.5c-2.7,0.1-5.5-0.5-7.9-1.7c-1.4-0.7-2.4-2-2.9-3.5
		c-1.2-4.9-5.8-9.8-13.5-9.9h-0.3c-8.6,0-18.1,5.7-32.4,14.3c-3.4,2-8,4.8-13,7.7l-6.4,3.7l6.6,3.3c3.9,2,7.7,3.9,11.3,5.6
		c11.9,5.8,25.3,12.4,26.5,15.5c-0.7,0.8-4.1,2.5-9.9,2.9c-3.8,0.2-7.6,1.2-11,3c-3.4,2-5.3,4.9-5.3,8.4c0,4.4,3.1,8.7,8.6,11.8
		c5,2.8,10.7,4.3,16.4,4.3c3.7,0.1,7.3-0.7,10.5-2.4c3-1.7,5.2-4.5,6.1-7.9c0.5-2.2,2.9-4.7,7.8-4.8h0.2c7.1,0,17.6,6.5,31,14.7
		c4.5,2.8,9,5.6,13.9,8.5l2,1.2l5.1-3c25-14.4,36.1-21.1,35.8-28.6c-0.2-5.2-5.9-8.6-15.6-9.4c-5-0.4-7.6-1.6-8.8-2.2
		c-0.8-0.5-1.9-1.3-1.9-2.3c0-1.4,1.6-3.6,5.1-5.7c4.2-2.3,9-3.6,13.9-3.6c2.7-0.1,5.5,0.5,7.9,1.7c1.4,0.7,2.4,2,2.9,3.5
		c1.2,4.9,5.8,9.8,13.5,9.9h0.3c10.1,0,22.1-6.9,42-18.5l4.2-2.5h0l1.3-0.7h0.1h0.1l0.4-0.2c6.3-3.6,12.3-6.7,17.1-9.3
		c14.9-7.8,23.1-12.1,22.8-18.4c-0.2-5.2-5.9-8.6-15.6-9.4c-5-0.4-7.6-1.6-8.8-2.2c-0.8-0.5-1.9-1.3-1.9-2.3c0-1.4,1.6-3.6,5.1-5.7
		c4.2-2.3,9-3.6,13.9-3.6c2.7-0.1,5.5,0.5,7.9,1.7c1.4,0.7,2.5,2,2.9,3.5c1.2,4.9,5.8,9.8,13.5,9.9h0.2c7.7,0,16.4-5.5,28.4-13.2
		c5.2-3.3,11.1-7.1,17.8-11l6.4-3.7L404.9,329.3z"/>
	<path id="freepik--shadow--inject-136" class="st1" d="M299.5,267.9l5.7,3.8c16.3,10.8,29.1,19.3,38,19.3h0.2c5.4-0.1,8-3,8.5-5.4
		c0.8-3.2,2.9-5.8,5.7-7.4c3.1-1.6,6.6-2.4,10.1-2.3c5.6,0,11.1,1.5,16,4.2c5.2,3,8.1,7,8.1,11.1c0,3.1-1.7,5.9-4.9,7.7
		c-3.3,1.7-6.9,2.7-10.6,2.8c-5.4,0.4-9.4,2-10.4,3.2l-0.3,0.4l0.2,0.4c0.5,1.1,2.4,3.6,10.2,8.6c6.2,3.9,15,8.7,28.5,15.6l5.3,2.7
		l-5.1,3c-6.7,3.9-12.6,7.7-17.8,11c-11.9,7.6-20.5,13.1-28,13.1h-0.2c-7.3-0.1-11.7-4.8-12.8-9.3c-0.5-1.7-1.6-3.2-3.2-4
		c-2.6-1.3-5.5-1.9-8.4-1.8c-5,0-9.9,1.3-14.3,3.7c-3.4,1.9-5.5,4.4-5.5,6.4c0,1.1,0.8,2.1,2.3,3c1.2,0.7,4,1.9,9.1,2.3
		c9.2,0.7,14.6,3.9,14.8,8.6c0.2,5.9-7.8,10.1-22.4,17.7c-4.8,2.5-10.8,5.6-17.1,9.3l-0.4,0.2l0,0h-0.1l-0.9,0.5h0l-0.4,0.2
		l-4.3,2.5c-19.8,11.5-31.8,18.4-41.6,18.4h-0.3c-7.3-0.1-11.7-4.8-12.8-9.3c-0.5-1.7-1.6-3.2-3.2-4c-2.6-1.3-5.5-1.9-8.4-1.8
		c-5,0-9.9,1.3-14.2,3.7c-3.4,1.9-5.5,4.4-5.5,6.4c0,1.1,0.8,2.1,2.3,3c1.2,0.7,4,1.9,9.1,2.3c9.2,0.7,14.6,3.9,14.8,8.6
		c0.3,7-10.7,13.6-35.4,27.8l-4.7,2.7l-1.6-1c-4.9-2.9-9.4-5.7-13.9-8.5c-13.4-8.3-24-14.9-31.4-14.9h-0.2c-5.4,0.1-8,3-8.6,5.4
		c-0.8,3.2-2.9,5.8-5.7,7.4c-3.1,1.6-6.6,2.4-10.1,2.3c-5.6,0-11.1-1.5-16-4.2c-5.2-3-8.1-7-8.1-11.1c0-3.1,1.7-5.9,4.9-7.7
		c3.3-1.7,6.9-2.7,10.7-2.8c5.4-0.4,9.4-2,10.4-3.2l0.3-0.4l-0.2-0.4c-1.3-3.2-11.9-8.6-26.9-16c-3.3-1.6-7.3-3.6-11.3-5.6l-5.3-2.7
		l5.1-3c4.9-2.9,9.6-5.7,13-7.7c14.3-8.6,23.7-14.2,32-14.2h0.3c7.3,0.1,11.7,4.8,12.8,9.3c0.5,1.7,1.7,3.2,3.3,4
		c2.6,1.3,5.5,1.9,8.3,1.8c5,0,9.9-1.3,14.3-3.7c3.3-1.9,5.5-4.4,5.5-6.4c0-1.1-0.8-2.1-2.3-3c-1.2-0.7-4-1.9-9.1-2.3
		c-9.2-0.7-14.6-3.9-14.8-8.7c-0.2-6.1,8.7-11.4,28.8-22.6c4.1-2.3,8.2-4.6,12.4-7l1.9-1.1c2.3-1.4,4.5-2.7,6.9-4.2h0.1
		c1.6-1,3.1-1.9,4.5-2.8c3.4-2,6.5-3.9,9.5-5.6c10-5.8,17.6-9.3,24.7-9.3h0.3c9,0.1,13.6,5.6,14.7,10.3c0.4,1.4,1.4,2.7,2.7,3.4
		c2.2,1.1,4.5,1.6,6.9,1.5c4.5,0,8.9-1.1,12.8-3.3c3.6-2.1,4.9-4.3,4.9-5.6c0-0.8-0.6-1.5-1.7-2.2s-3.4-1.6-8-2
		c-10.1-0.8-16.3-4.5-16.5-9.8c-0.3-6.8,10-12.6,28.8-23c3.8-2.1,8.6-4.8,13.5-7.6L299.5,267.9 M299.4,267l-2.1,1.2
		c-4.9,2.8-9.6,5.5-13.5,7.6c-19,10.5-29.5,16.4-29.2,23.7c0.2,5.8,6.7,9.7,17.3,10.5c4.4,0.4,6.7,1.3,7.6,1.9
		c0.6,0.3,1.3,0.9,1.3,1.5c0,0.8-1,2.8-4.5,4.9c-3.8,2.1-8.1,3.2-12.4,3.2c-2.3,0.1-4.5-0.4-6.5-1.4c-1.1-0.6-2-1.6-2.3-2.9
		c-1.2-5-6-10.8-15.5-10.9h-0.3c-7.3,0-15,3.6-25.1,9.4c-3,1.7-6.1,3.6-9.5,5.6c-1.5,0.9-3,1.8-4.6,2.8c-2.2,1.4-4.4,2.8-6.8,4.2
		l-1.9,1.1c-4.2,2.4-8.3,4.7-12.4,7c-20.5,11.4-29.5,16.7-29.2,23.3c0.2,5.2,5.9,8.6,15.6,9.4c5,0.4,7.6,1.6,8.8,2.2
		c0.8,0.5,1.9,1.3,1.9,2.3c0,1.4-1.6,3.6-5.1,5.7c-4.2,2.3-9,3.6-13.8,3.6c-2.7,0.1-5.5-0.5-7.9-1.7c-1.4-0.7-2.4-2-2.9-3.5
		c-1.2-4.9-5.8-9.8-13.5-9.9h-0.3c-8.6,0-18.1,5.7-32.4,14.3c-3.4,2-8,4.8-13,7.7l-6.4,3.7l6.6,3.3c3.9,2,7.7,3.9,11.3,5.6
		c11.9,5.8,25.3,12.4,26.5,15.5c-0.7,0.8-4.1,2.5-9.9,2.9c-3.8,0.2-7.6,1.2-11,3c-3.4,2-5.3,4.9-5.3,8.4c0,4.4,3.1,8.7,8.6,11.8
		c5,2.8,10.7,4.3,16.4,4.3c3.7,0.1,7.3-0.7,10.5-2.4c3-1.7,5.2-4.5,6.1-7.9c0.5-2.2,2.9-4.7,7.8-4.8h0.2c7.1,0,17.6,6.5,31,14.7
		c4.5,2.8,9,5.6,13.9,8.5l2,1.2l5.1-3c25-14.4,36.1-21.1,35.8-28.6c-0.2-5.2-5.9-8.6-15.6-9.4c-5-0.4-7.6-1.6-8.8-2.2
		c-0.8-0.5-1.9-1.3-1.9-2.3c0-1.4,1.6-3.6,5.1-5.7c4.2-2.3,9-3.6,13.9-3.6c2.7-0.1,5.5,0.5,7.9,1.7c1.4,0.7,2.4,2,2.9,3.5
		c1.2,4.9,5.8,9.8,13.5,9.9h0.3c10.1,0,22.1-6.9,42-18.5l4.2-2.5h0l1.3-0.7h0.1h0.1l0.4-0.2c6.3-3.6,12.3-6.7,17.1-9.3
		c14.9-7.8,23.1-12.1,22.8-18.4c-0.2-5.2-5.9-8.6-15.6-9.4c-5-0.4-7.6-1.6-8.8-2.2c-0.8-0.5-1.9-1.3-1.9-2.3c0-1.4,1.6-3.6,5.1-5.7
		c4.2-2.3,9-3.6,13.9-3.6c2.7-0.1,5.5,0.5,7.9,1.7c1.4,0.7,2.5,2,2.9,3.5c1.2,4.9,5.8,9.8,13.5,9.9h0.2c7.7,0,16.4-5.5,28.4-13.2
		c5.2-3.3,11.1-7.1,17.8-11l6.4-3.7l-6.6-3.3c-13.5-6.8-22.3-11.6-28.4-15.5c-8.1-5.2-9.6-7.6-9.9-8.3c0.7-0.8,4.1-2.5,9.9-2.9
		c3.8-0.2,7.6-1.2,11-2.9c3.4-2,5.3-5,5.3-8.4c0-4.4-3.1-8.7-8.5-11.8c-5-2.8-10.7-4.3-16.4-4.3c-3.7-0.1-7.3,0.7-10.5,2.4
		c-3,1.7-5.2,4.5-6.1,7.9c-0.5,2.2-2.9,4.7-7.8,4.8h-0.2c-8.7,0-21.4-8.5-37.6-19.2L299.4,267L299.4,267z"/>
	<polygon id="freepik--shadow--inject-136_1_" class="st1" points="405.7,384 385.4,372.3 454.4,332.4 474.7,344.1 	"/>
	<polygon id="freepik--shadow--inject-136_2_" class="st1" points="47.7,387.9 27.4,376.2 96.5,336.3 116.8,348 	"/>
	<path id="freepik--shadow--inject-136_3_" class="st1" d="M390.9,413.7l-1.1-3.5c-0.3-0.8-1-1.3-1.8-1.3l-7.2,0.2
		c-0.9,0-1.7-0.4-2.3-1c-0.5-0.6-1.1-1.1-1.7-1.6c-0.6-0.4-0.7-1.2-0.3-1.7c0,0,0.1-0.1,0.1-0.1l2.8-3c0.4-0.3,0.4-0.9,0.1-1.3
		c-0.1-0.1-0.2-0.2-0.4-0.3l-6.3-2.6c-0.8-0.3-1.7-0.2-2.5,0.2l-4.2,2.8c-0.8,0.4-1.7,0.6-2.5,0.5c-1.4-0.3-2.7-0.4-4.1-0.6
		c-0.9-0.1-1.6-0.6-2.1-1.4l-1.6-3.1c-0.4-0.7-1.2-1.2-2-1.1l-7.9,0.7c-0.7,0.1-1.3,0.7-1.2,1.5c0,0,0,0,0,0.1l0.4,3
		c0.1,0.8-0.4,1.5-1.2,1.8c-1.1,0.3-2.2,0.7-3.3,1.2c-0.8,0.3-1.7,0.4-2.6,0.1l-6.1-2c-0.8-0.2-1.7-0.1-2.4,0.5l-4,3.3
		c-0.4,0.3-0.5,0.8-0.2,1.2c0.1,0.2,0.3,0.3,0.4,0.3l5.1,2.6c0.7,0.4,0.9,1.2,0.6,1.9c-0.2,0.4-0.4,0.9-0.5,1.4
		c-0.2,0.8-0.9,1.4-1.6,1.6l-6.8,1.1c-0.6,0.1-1.1,0.7-1,1.3c0,0.1,0,0.2,0.1,0.2l1.1,3.5c0.3,0.8,1,1.3,1.8,1.3l7.2-0.2
		c0.9,0,1.7,0.4,2.3,1c0.5,0.6,1.1,1.1,1.7,1.6c0.6,0.4,0.7,1.2,0.3,1.7c0,0-0.1,0.1-0.1,0.1l-2.9,3c-0.4,0.3-0.4,0.9-0.1,1.3
		c0.1,0.1,0.3,0.2,0.4,0.3l6.3,2.6c0.8,0.3,1.7,0.2,2.5-0.2l4.2-2.8c0.8-0.4,1.7-0.6,2.5-0.5c1.3,0.3,2.7,0.4,4.1,0.6
		c0.9,0.1,1.6,0.6,2,1.4l1.6,3.1c0.4,0.7,1.2,1.2,2,1.1l7.9-0.7c0.7-0.1,1.3-0.7,1.2-1.5c0,0,0,0,0-0.1l-0.4-3
		c-0.1-0.8,0.4-1.5,1.1-1.8c1.1-0.3,2.2-0.7,3.3-1.2c0.8-0.3,1.7-0.4,2.6-0.1l6.1,2c0.8,0.2,1.7,0.1,2.4-0.5l4-3.3
		c0.4-0.3,0.5-0.8,0.3-1.2c-0.1-0.2-0.3-0.3-0.4-0.3l-5.1-2.6c-0.7-0.4-0.9-1.2-0.6-1.9c0.2-0.4,0.4-0.9,0.5-1.4
		c0.2-0.8,0.8-1.4,1.6-1.6l6.8-1.1c0.6-0.1,1.1-0.7,1-1.3C391,413.8,390.9,413.8,390.9,413.7z M368.6,420.3c-4.7,3.9-14,4.8-20.9,2
		s-8.6-8.4-3.9-12.3s14-4.8,20.9-2S373.3,416.4,368.6,420.3z"/>
	<path id="freepik--shadow--inject-136_4_" class="st1" d="M353.8,395.5L353.8,395.5c0.5,0,0.9,0.3,1.2,0.7l1.6,3.1
		c0.6,1,1.6,1.7,2.7,1.8c1.3,0.1,2.7,0.3,4,0.5c0.2,0,0.5,0.1,0.7,0.1c0.9,0,1.7-0.2,2.4-0.7l4.2-2.8c0.3-0.2,0.7-0.3,1.1-0.3
		c0.2,0,0.4,0,0.6,0.1l6.3,2.6c0.1,0,0.2,0.1,0.2,0.1c0,0.1,0,0.1-0.1,0.1l-2.8,3c-0.4,0.4-0.6,1-0.5,1.5c0.1,0.6,0.4,1.1,0.8,1.5
		c0.6,0.5,1.1,1,1.7,1.5c0.8,0.8,1.8,1.2,2.9,1.3h0.1l7.2-0.2c0.4,0,0.8,0.3,1,0.8l1.1,3.5c0.1,0.1,0.1,0.3,0,0.4
		c-0.1,0.1-0.2,0.2-0.3,0.2l-6.8,1.1c-1.1,0.2-2,1.1-2.3,2.2c-0.1,0.4-0.3,0.9-0.5,1.3c-0.5,1.1-0.1,2.4,1,2.9l5.1,2.6
		c0.1,0,0.1,0.1,0.1,0.1l0,0c0,0-0.1,0.1-0.1,0.1l-4,3.3c-0.3,0.2-0.8,0.4-1.2,0.4c-0.2,0-0.3,0-0.5-0.1l-6.1-2
		c-0.4-0.1-0.8-0.2-1.3-0.2c-0.6,0-1.3,0.1-1.9,0.4c-1,0.4-2.1,0.8-3.2,1.1c-1.1,0.4-1.8,1.5-1.7,2.7l0.4,3c0,0.2,0,0.3-0.1,0.4
		c-0.1,0.1-0.2,0.2-0.4,0.2l-7.9,0.7h-0.1c-0.5,0-0.9-0.3-1.2-0.7l-1.6-3.1c-0.6-1-1.6-1.7-2.7-1.8c-1.4-0.1-2.7-0.3-4-0.5
		c-0.2,0-0.5-0.1-0.7-0.1c-0.9,0-1.7,0.2-2.5,0.7l-4.2,2.8c-0.3,0.2-0.7,0.3-1,0.3c-0.2,0-0.4,0-0.6-0.1l-6.3-2.6
		c-0.1,0-0.1-0.1-0.2-0.1c0-0.1,0.1-0.1,0.1-0.2l2.8-3c0.4-0.4,0.6-1,0.5-1.5c-0.1-0.6-0.4-1.1-0.8-1.5c-0.6-0.5-1.1-1-1.7-1.5
		c-0.8-0.8-1.8-1.2-2.9-1.3h-0.1l-7.2,0.2c-0.4,0-0.8-0.3-1-0.8l-1.1-3.5c-0.1-0.1-0.1-0.3,0-0.4c0.1-0.1,0.2-0.2,0.3-0.2l6.8-1.1
		c1.1-0.2,2-1.1,2.3-2.2c0.1-0.4,0.3-0.9,0.5-1.3c0.5-1.1,0.1-2.4-1-2.9l-5.1-2.6c-0.1,0-0.1-0.1-0.1-0.1l0,0c0,0,0.1-0.1,0.1-0.1
		l4-3.3c0.3-0.2,0.8-0.4,1.2-0.4c0.2,0,0.3,0,0.5,0.1l6.1,2c0.4,0.1,0.8,0.2,1.3,0.2c0.6,0,1.3-0.1,1.9-0.4c1-0.4,2.1-0.8,3.2-1.1
		c1.1-0.4,1.9-1.5,1.7-2.7l-0.4-3c0-0.2,0-0.3,0.1-0.4c0.1-0.1,0.2-0.2,0.4-0.2L353.8,395.5L353.8,395.5 M356.5,424.8
		c5.1,0,9.6-1.4,12.5-3.8c2.2-1.8,3.2-4.1,2.8-6.4c-0.5-2.9-3-5.5-7-7.2c-2.9-1.2-6-1.8-9.2-1.7c-5.1,0-9.6,1.4-12.5,3.8
		c-2.2,1.8-3.2,4.1-2.8,6.4c0.5,2.9,3,5.5,7,7.2C350.3,424.2,353.4,424.8,356.5,424.8 M353.8,394.7h-0.1l-7.9,0.7
		c-0.7,0.1-1.3,0.7-1.2,1.5c0,0,0,0,0,0.1l0.4,3c0.1,0.8-0.4,1.5-1.2,1.8c-1.1,0.3-2.2,0.7-3.3,1.2c-0.5,0.2-1,0.3-1.6,0.3
		c-0.3,0-0.7,0-1-0.1l-6.1-2c-0.2-0.1-0.5-0.1-0.7-0.1c-0.6,0-1.2,0.2-1.7,0.6l-4,3.3c-0.4,0.3-0.5,0.8-0.2,1.2
		c0.1,0.2,0.3,0.3,0.4,0.3l5.1,2.6c0.7,0.4,0.9,1.2,0.6,1.9c-0.2,0.4-0.4,0.9-0.5,1.4c-0.2,0.8-0.9,1.4-1.6,1.6l-6.8,1.1
		c-0.6,0.1-1.1,0.7-1,1.3c0,0.1,0,0.2,0.1,0.2l1.1,3.5c0.3,0.8,1,1.3,1.8,1.3h0l7.2-0.2h0c0.9,0.1,1.7,0.4,2.3,1
		c0.5,0.6,1.1,1.1,1.7,1.6c0.6,0.4,0.7,1.2,0.3,1.7c0,0-0.1,0.1-0.1,0.1l-2.8,3.1c-0.4,0.3-0.4,0.9-0.1,1.3c0.1,0.1,0.3,0.2,0.4,0.3
		l6.3,2.6c0.3,0.1,0.7,0.2,1,0.2c0.5,0,1-0.1,1.5-0.4l4.2-2.8c0.6-0.4,1.3-0.5,2-0.5c0.2,0,0.4,0,0.5,0c1.3,0.3,2.7,0.4,4.1,0.6
		c0.9,0.1,1.6,0.6,2,1.4l1.6,3.1c0.4,0.7,1.1,1.1,1.9,1.1h0.1l7.9-0.7c0.7-0.1,1.3-0.7,1.2-1.5c0,0,0,0,0-0.1l-0.4-3
		c-0.1-0.8,0.4-1.5,1.1-1.8c1.1-0.3,2.2-0.7,3.3-1.2c0.5-0.2,1-0.3,1.6-0.3c0.3,0,0.7,0,1,0.1l6.1,2c0.2,0.1,0.5,0.1,0.7,0.1
		c0.6,0,1.2-0.2,1.7-0.5l4-3.3c0.4-0.3,0.5-0.8,0.3-1.2c-0.1-0.2-0.3-0.3-0.4-0.3l-5.1-2.6c-0.7-0.4-0.9-1.2-0.6-1.9
		c0.2-0.4,0.4-0.9,0.5-1.4c0.2-0.8,0.8-1.4,1.6-1.6l6.8-1.1c0.6-0.1,1.1-0.7,1-1.3c0-0.1,0-0.2-0.1-0.2l-1.1-3.5
		c-0.3-0.8-1-1.3-1.8-1.3l0,0l-7.2,0.2h0c-0.9-0.1-1.7-0.4-2.3-1c-0.5-0.6-1.1-1.1-1.7-1.6c-0.6-0.4-0.7-1.2-0.3-1.7
		c0,0,0.1-0.1,0.1-0.1l2.8-3c0.4-0.3,0.4-0.9,0.1-1.3c-0.1-0.1-0.3-0.2-0.5-0.3l-6.3-2.6c-0.3-0.1-0.7-0.2-1-0.2
		c-0.5,0-1,0.1-1.5,0.4l-4.2,2.8c-0.6,0.4-1.3,0.5-2,0.5c-0.2,0-0.4,0-0.5,0c-1.4-0.3-2.7-0.4-4.1-0.6c-0.9-0.1-1.6-0.6-2.1-1.4
		l-1.6-3.1C355.3,395.2,354.6,394.7,353.8,394.7L353.8,394.7z M356.5,423.9c-3,0-6.1-0.5-8.9-1.7c-6.9-2.9-8.6-8.4-3.9-12.3
		c2.8-2.4,7.4-3.6,12-3.6c3,0,6.1,0.5,8.9,1.7c6.9,2.9,8.6,8.4,3.9,12.3C365.7,422.7,361.2,423.9,356.5,423.9L356.5,423.9z"/>
	<path id="freepik--shadow--inject-136_5_" class="st1" d="M323.5,446l-0.9-2.8c-0.5-1.5-1.9-2.4-3.4-2.4l-5.7,0.2
		c-0.2,0-0.3-0.1-0.4-0.2c-0.3-0.3-0.5-0.5-0.8-0.8l1.5-1.6c1-1.1,1-2.8,0-3.8c-0.3-0.3-0.6-0.5-1-0.6l-5-2.1
		c-0.5-0.2-1-0.3-1.5-0.3c-0.8,0-1.6,0.2-2.3,0.7l-3.3,2.2c-0.2,0.1-0.4,0.1-0.5,0.1l0,0c-1.1-0.2-2.2-0.4-3.4-0.5h-0.1l0,0
		l-1.3-2.5c-0.7-1.2-1.9-2-3.3-2h-0.3l-6.3,0.6c-0.8,0.1-1.6,0.5-2.1,1.1c-0.5,0.7-0.8,1.5-0.6,2.3l0.3,1.8
		c-0.8,0.2-1.5,0.5-2.3,0.9c-0.1,0-0.3,0.1-0.5,0.1H280l-4.9-1.6c-0.4-0.1-0.8-0.2-1.2-0.2c-1,0-1.9,0.3-2.6,0.9l-3.2,2.6
		c-1.2,0.9-1.4,2.6-0.4,3.8c0.3,0.3,0.6,0.6,1,0.8l3.3,1.7c-0.1,0.2-0.1,0.4-0.2,0.5l-5.2,0.8c-1.6,0.2-2.7,1.7-2.5,3.4
		c0,0.2,0.1,0.3,0.1,0.5l0.9,2.8c0.5,1.5,1.9,2.4,3.4,2.4l5.7-0.2c0.2,0,0.3,0.1,0.4,0.2c0.3,0.3,0.5,0.5,0.8,0.8l-1.5,1.7
		c-1,1.1-1,2.8,0,3.8c0.3,0.3,0.6,0.5,1,0.6l5,2.1c0.5,0.2,1,0.3,1.5,0.3c0.8,0,1.6-0.2,2.3-0.7l3.3-2.2c0.2-0.1,0.4-0.1,0.5-0.1
		l0,0c1.1,0.2,2.2,0.4,3.4,0.5h0.1l0,0l1.3,2.5c0.7,1.2,1.9,2,3.3,2h0.3l6.3-0.6c0.8-0.1,1.6-0.5,2.1-1.1c0.5-0.7,0.8-1.5,0.6-2.3
		l-0.2-1.8c0.8-0.3,1.5-0.5,2.3-0.9c0.2,0,0.3-0.1,0.5-0.1h0.2l4.9,1.6c0.4,0.1,0.8,0.2,1.2,0.2c1,0,1.9-0.3,2.6-0.9l3.2-2.7
		c0.7-0.6,1.1-1.5,1-2.4c-0.1-0.9-0.7-1.7-1.5-2.1l-3.3-1.7c0.1-0.2,0.1-0.4,0.2-0.5l5.2-0.8c0.9-0.1,1.6-0.6,2.1-1.4
		C323.6,447.7,323.8,446.8,323.5,446z M302.5,450.4c-1.8,1.5-4.9,2.4-8.3,2.4c-2.2,0-4.3-0.4-6.3-1.2c-2.3-1-3.8-2.3-4-3.7
		c0-1.1,0.5-2.1,1.4-2.7c1.8-1.5,4.9-2.4,8.3-2.4c2.2,0,4.3,0.4,6.3,1.2c2.3,0.9,3.8,2.3,4,3.7C303.9,448.7,303.4,449.7,302.5,450.4
		z"/>
	<path id="freepik--shadow--inject-136_6_" class="st1" d="M292,430.2c1.1,0,2.1,0.6,2.6,1.6l1.3,2.5l0.7-0.3v0.1l-0.3,0.6h0.1h0
		h0.1h0.1c1.1,0.1,2.2,0.3,3.3,0.5h0.1h0.1c0.3,0,0.6-0.1,0.9-0.2l0,0l0,0l3.3-2.2c0.6-0.3,1.2-0.5,1.9-0.5c0.4,0,0.8,0.1,1.2,0.2
		l5,2.1c0.6,0.2,1.1,0.8,1.2,1.4c0.1,0.6-0.1,1.3-0.5,1.8l-1.5,1.7l-0.5,0.6l0.6,0.5c0.3,0.2,0.5,0.5,0.8,0.8
		c0.2,0.2,0.6,0.4,0.9,0.4h0.1l5.6-0.2c1.2,0,2.3,0.8,2.7,1.9l0.9,2.8c0.2,0.6,0.1,1.3-0.2,1.8c-0.3,0.5-0.9,0.9-1.5,1l-5.2,0.8
		l-0.5,0.1l-0.1,0.5c0,0.1-0.1,0.3-0.2,0.5l-0.2,0.7l0.6,0.3l3.3,1.7c0.9,0.4,1.4,1.5,0.9,2.5c-0.1,0.3-0.3,0.5-0.6,0.7l-3,2.7
		c-0.6,0.5-1.4,0.7-2.1,0.7c-0.3,0-0.6,0-0.9-0.1l-4.9-1.6H308h-0.1c-0.1,0-0.2,0-0.3,0c-0.3,0-0.5,0-0.8,0.1
		c-0.7,0.3-1.4,0.6-2.2,0.8l-0.6,0.2l0.1,0.7l0.2,1.9c0.1,0.6-0.1,1.2-0.5,1.7c-0.4,0.5-0.9,0.8-1.5,0.8l-6.3,0.6h-0.2
		c-1.1,0-2.1-0.6-2.6-1.6l-1.3-2.5l-0.7,0.3v-0.8c0.1,0,0.2,0,0.3,0l-0.1-0.1h-0.1h-0.1c-1.1-0.1-2.2-0.3-3.3-0.5h-0.1h-0.1
		c-0.3,0-0.6,0.1-0.9,0.2l0,0l0,0l-3.3,2.2c-0.6,0.4-1.2,0.5-1.9,0.5c-0.4,0-0.8-0.1-1.2-0.2l-5-2.1c-0.6-0.2-1.1-0.8-1.2-1.4
		c-0.1-0.6,0.1-1.3,0.5-1.8l1.5-1.7l0.5-0.6L276,455c-0.3-0.2-0.5-0.5-0.8-0.8c-0.2-0.2-0.5-0.4-0.9-0.4h-0.1l-5.6,0.2
		c-1.2,0-2.2-0.8-2.6-1.9l-0.9-2.8c-0.2-0.6-0.1-1.3,0.2-1.8c0.3-0.5,0.9-0.9,1.5-1l5.2-0.8l0.5-0.1l0.1-0.5c0-0.1,0.1-0.3,0.1-0.5
		l0.2-0.7l-0.6-0.3l-3.4-1.7c-0.6-0.3-1-0.9-1.1-1.5c-0.1-0.7,0.2-1.3,0.7-1.7l3.2-2.7c0.6-0.5,1.4-0.7,2.1-0.7c0.3,0,0.6,0,0.9,0.1
		l4.9,1.6h0.1h0.1c0.1,0,0.2,0,0.3,0c0.3,0,0.5,0,0.8-0.1c0.7-0.3,1.4-0.6,2.2-0.8l0.6-0.2l-0.1-0.7l-0.2-1.9
		c-0.1-0.6,0.1-1.2,0.5-1.7c0.4-0.5,0.9-0.8,1.6-0.8l6.3-0.6L292,430.2 M294.2,453.5c3.6,0,6.9-1,8.8-2.6c1.1-0.8,1.8-2.1,1.6-3.5
		c-0.3-1.7-1.9-3.3-4.5-4.3c-2.1-0.8-4.3-1.3-6.6-1.2c-3.6,0-6.9,1-8.8,2.6c-1.1,0.8-1.8,2.1-1.6,3.5c0.3,1.7,1.9,3.3,4.5,4.3
		C289.7,453.1,291.9,453.6,294.2,453.5 M292,429.4h-0.3l-6.3,0.6c-0.8,0.1-1.6,0.5-2.1,1.1c-0.5,0.7-0.8,1.5-0.6,2.3l0.3,1.8
		c-0.8,0.2-1.5,0.5-2.3,0.9c-0.1,0-0.3,0.1-0.5,0.1H280l-4.9-1.6c-0.4-0.1-0.8-0.2-1.2-0.2c-1,0-1.9,0.3-2.6,0.9l-3.2,2.6
		c-1.2,0.9-1.4,2.6-0.4,3.8c0.3,0.3,0.6,0.6,1,0.8l3.3,1.7c-0.1,0.2-0.1,0.4-0.2,0.5l-5.2,0.8c-1.6,0.2-2.7,1.7-2.5,3.4
		c0,0.2,0.1,0.3,0.1,0.5l0.9,2.8c0.5,1.5,1.9,2.4,3.4,2.4l5.7-0.2c0.2,0,0.3,0.1,0.4,0.2c0.3,0.3,0.5,0.5,0.8,0.8l-1.5,1.7
		c-1,1.1-1,2.8,0,3.8c0.3,0.3,0.6,0.5,1,0.6l5,2.1c0.5,0.2,1,0.3,1.5,0.3c0.8,0,1.6-0.2,2.3-0.7l3.3-2.2c0.2-0.1,0.4-0.1,0.5-0.1
		l0,0c1.1,0.2,2.2,0.4,3.4,0.5h0.1l0,0l1.3,2.5c0.7,1.2,1.9,2,3.3,2h0.3l6.3-0.6c0.8-0.1,1.6-0.5,2.1-1.1c0.5-0.7,0.8-1.5,0.6-2.3
		l-0.2-1.8c0.8-0.3,1.5-0.5,2.3-0.9c0.2,0,0.3-0.1,0.5-0.1h0.2l4.9,1.6c0.4,0.1,0.8,0.2,1.2,0.2c1,0,1.9-0.3,2.6-0.9l3.2-2.7
		c0.7-0.6,1.1-1.5,1-2.4c-0.1-0.9-0.7-1.7-1.5-2.1l-3.3-1.7c0.1-0.2,0.1-0.4,0.2-0.5l5.2-0.8c0.9-0.1,1.6-0.6,2.1-1.4
		c0.4-0.7,0.6-1.7,0.3-2.5l-0.9-2.8c-0.5-1.5-1.9-2.4-3.4-2.4l-5.7,0.2c-0.2,0-0.3-0.1-0.4-0.2c-0.3-0.3-0.5-0.5-0.8-0.8l1.5-1.6
		c1-1.1,1-2.8,0-3.8c-0.3-0.3-0.6-0.5-1-0.6l-5-2.1c-0.5-0.2-1-0.3-1.5-0.3c-0.8,0-1.6,0.2-2.3,0.7l-3.3,2.2
		c-0.2,0.1-0.4,0.1-0.5,0.1l0,0c-1.1-0.2-2.2-0.4-3.4-0.5h-0.1l0,0l-1.3-2.5C294.7,430.2,293.4,429.5,292,429.4L292,429.4z
		 M294.2,452.8c-2.2,0-4.3-0.4-6.3-1.2c-2.3-1-3.8-2.3-4-3.7c0-1.1,0.5-2.1,1.4-2.7c1.8-1.5,4.9-2.4,8.3-2.4c2.2,0,4.3,0.4,6.3,1.2
		c2.3,0.9,3.8,2.3,4,3.7c0,1.1-0.5,2.1-1.4,2.7C300.7,451.9,297.6,452.8,294.2,452.8L294.2,452.8z"/>
</g>
<g id="freepik--Gears--inject-136">
	<g id="freepik--gears--inject-136">
		<g id="freepik--Gear--inject-136">
			<path id="elovxtcf8q5n" class="st0" d="M324.6,404L324.6,404c0,0.4,0.3,0.7,0.6,0.8l2.2,1.1l1.3-0.2c0.8-0.2,1.4-0.8,1.6-1.6
				c0.1-0.5,0.3-0.9,0.5-1.4c0.3-0.7,0.1-1.5-0.6-1.9l-5.1-2.6c-0.3-0.1-0.6-0.4-0.6-0.8L324.6,404z M343.2,401.8
				c-3,2.5-3.4,5.6-1.5,8.3c0.5-0.6,1-1.2,1.6-1.7c4.7-3.9,14-4.8,20.9-2c2.1,0.8,4,2.2,5.4,4c2.5-3.7,0.4-8.1-5.5-10.6
				C357.2,397,347.9,397.8,343.2,401.8L343.2,401.8z M320.8,414.6L320.8,414.6c0,0.1,0,0.3,0.1,0.4l1.1,3.5c0.3,0.8,1,1.3,1.8,1.3
				l7.2-0.2c0.4,0,0.8,0.1,1.1,0.2l0,0c0.2,0.1,0.4,0.2,0.6,0.3l2.5-2.6c0.5-0.5,0.4-1.3-0.1-1.8c0,0-0.1-0.1-0.1-0.1
				c-0.6-0.5-1.2-1-1.7-1.6c-0.4-0.3-0.8-0.6-1.2-0.8c-0.3-0.2-0.7-0.3-1.1-0.3l-7.2,0.2c-0.8,0-1.6-0.5-1.8-1.3l-1.1-3.5
				c0-0.1-0.1-0.3-0.1-0.4L320.8,414.6z M379,392.8c0,0.2-0.1,0.4-0.3,0.6l-2.8,3c-0.5,0.5-0.5,1.3,0,1.7c0.1,0,0.1,0.1,0.2,0.1
				c0.6,0.5,1.2,1,1.7,1.6c0.2,0.2,0.4,0.3,0.6,0.5l0.4-0.4c0.2-0.2,0.3-0.4,0.3-0.7l0,0L379,392.8z M332.2,427.8
				c0,0.1,0,0.3,0.1,0.4c0.1,0.2,0.3,0.4,0.5,0.5l6.3,2.6c0.1,0,0.2,0.1,0.3,0.1h0.2c0.3,0,0.7,0,1,0l0.2,0l0,0
				c0.3,0,0.6-0.1,0.8-0.3l4.2-2.8c0.8-0.4,1.7-0.6,2.5-0.5c1.4,0.3,2.7,0.4,4.1,0.6c0.5,0.1,1,0.3,1.4,0.6c0.1,0.1,0.2,0.2,0.4,0.3
				c0.1,0.1,0.1,0.1,0.1,0.2c0.1,0.1,0.1,0.2,0.2,0.3l1.6,3.1v0.1c0,0.1,0.1,0.2,0.2,0.2c0.1,0.1,0.1,0.1,0.2,0.2l0,0l0.2,0.2
				c0.2,0.1,0.3,0.2,0.5,0.3c0.3,0.1,0.6,0.2,0.9,0.1l7.9-0.8c0.7-0.1,1.2-0.6,1.2-1.3l-0.1-4.5c0.2-0.3,0.5-0.5,0.8-0.6
				c1.1-0.3,2.2-0.7,3.3-1.2c0.8-0.3,1.7-0.4,2.6-0.1h0.1l6.1,2c0.1,0,0.2,0.1,0.3,0.1h0c0.1,0,0.2,0,0.4,0c0.6,0,1.2-0.2,1.7-0.5
				l4-3.4c0.2-0.2,0.4-0.4,0.4-0.7l-0.1-6.5c0,0.3-0.2,0.5-0.4,0.7l-4,3.3c-0.3,0.2-0.6,0.4-0.9,0.4c-0.5,0.1-1,0.1-1.5,0l-6.1-2
				h-0.1c-0.9-0.2-1.8-0.2-2.6,0.1c-1.1,0.5-2.2,0.8-3.3,1.2c-0.8,0.2-1.2,1-1.2,1.8l0.4,3c0.1,0.7-0.4,1.4-1.1,1.5c0,0-0.1,0-0.1,0
				l-7.9,0.7c-0.3,0-0.6,0-0.9-0.1c-0.5-0.2-0.9-0.5-1.2-1l-1.6-3.1c-0.2-0.3-0.4-0.6-0.7-0.8c-0.4-0.3-0.9-0.5-1.4-0.6
				c-1.4-0.1-2.7-0.3-4.1-0.6c-0.9-0.1-1.8,0-2.5,0.5l-4.2,2.8c-0.2,0.2-0.5,0.3-0.8,0.3c-0.5,0.1-1.1,0.1-1.6-0.1l-6.3-2.6
				c-0.4-0.1-0.6-0.5-0.7-0.9L332.2,427.8z M382.6,408.2c-0.8,0.2-1.4,0.8-1.6,1.6c-0.1,0.5-0.3,0.9-0.5,1.4
				c-0.3,0.7-0.1,1.5,0.6,1.9l2.9,1.5l5.6-0.9c0.6-0.1,1-0.6,1-1.1l0,0l-0.1-6.6c0,0.6-0.4,1.1-1,1.1L382.6,408.2z"/>
			<path id="ely6scqqylc9g" class="st2" d="M373.8,419l6.1,2c0.5,0.1,1,0.1,1.5,0l0.1,6.5c-0.3,0.1-0.5,0.1-0.8,0.1
				c-0.1,0-0.2,0-0.4,0h0c-0.1,0-0.2,0-0.3-0.1l-6.1-2L373.8,419z"/>
			<path id="el15p80ih2d3wj" class="st2" d="M353.8,422.4c0.3,0.2,0.5,0.5,0.7,0.8l1.6,3.1c0.3,0.5,0.7,0.8,1.2,1l0.1,6.6
				c-0.2-0.1-0.4-0.2-0.5-0.3l-0.2-0.2l0,0c-0.1-0.1-0.1-0.1-0.2-0.2c-0.1-0.1-0.1-0.2-0.2-0.2v-0.1l-1.6-3.1c0-0.1-0.1-0.2-0.2-0.3
				c0-0.1-0.1-0.1-0.1-0.2c-0.1-0.1-0.2-0.2-0.4-0.3l0,0L353.8,422.4z"/>
			<path id="elu7jkxgxffce" class="st2" d="M324.5,397.4c0,0.3,0.3,0.6,0.6,0.8l5.1,2.6c0.7,0.4,0.9,1.2,0.6,1.9
				c-0.2,0.4-0.4,0.9-0.5,1.4c-0.2,0.8-0.9,1.4-1.7,1.6l-1.3,0.2l-2.2-1.1c-0.3-0.1-0.5-0.5-0.6-0.8l0,0L324.5,397.4z"/>
			<path id="eldxmxel9iqao" class="st2" d="M320.8,408c0,0.1,0,0.3,0.1,0.4l1.1,3.5c0.3,0.8,1,1.3,1.8,1.3l7.2-0.3
				c0.4,0,0.8,0.1,1.1,0.2l0.1,6.6c-0.4-0.2-0.7-0.2-1.1-0.2l-7.2,0.2c-0.8,0-1.6-0.5-1.8-1.3l-1.2-3.5c0-0.1-0.1-0.3-0.1-0.4l0,0
				L320.8,408z"/>
			<path id="el3d1d1uats74" class="st2" d="M332.1,421.3c0,0.4,0.3,0.7,0.7,0.9l6.3,2.6c0.5,0.2,1.1,0.2,1.6,0.1l0.1,6.5l-0.2,0
				c-0.3,0-0.7,0-1,0h-0.2c-0.1,0-0.2-0.1-0.3-0.1l-6.3-2.6c-0.2-0.1-0.4-0.3-0.5-0.5c-0.1-0.1-0.1-0.3-0.1-0.4L332.1,421.3z"/>
			<path id="elvggnvxiew9r" class="st3" d="M328.8,393.3l-4,3.4c-0.4,0.3-0.5,0.8-0.3,1.2c0.1,0.2,0.3,0.3,0.5,0.4l5.1,2.6
				c0.7,0.4,0.9,1.2,0.6,1.9c-0.2,0.4-0.4,0.9-0.5,1.4c-0.2,0.8-0.9,1.4-1.6,1.6l-6.8,1.1c-0.6,0.1-1.1,0.7-1,1.3
				c0,0.1,0,0.2,0.1,0.2l1.1,3.5c0.3,0.8,1,1.3,1.8,1.3l7.3-0.2c0.9,0,1.7,0.4,2.3,1c0.5,0.6,1.1,1.1,1.7,1.6
				c0.6,0.4,0.7,1.2,0.3,1.7c0,0-0.1,0.1-0.1,0.1l-2.8,3c-0.4,0.3-0.4,0.9-0.1,1.3c0.1,0.1,0.3,0.2,0.4,0.3l6.3,2.6
				c0.8,0.3,1.7,0.2,2.5-0.2l4.2-2.8c0.8-0.4,1.7-0.6,2.5-0.5c1.3,0.3,2.7,0.4,4.1,0.6c0.9,0.1,1.6,0.6,2.1,1.4l1.6,3.1
				c0.4,0.7,1.2,1.2,2,1.1l7.9-0.7c0.7-0.1,1.3-0.7,1.2-1.5c0,0,0,0,0-0.1l-0.4-3c-0.1-0.8,0.4-1.5,1.2-1.8c1.1-0.3,2.2-0.7,3.3-1.2
				c0.8-0.3,1.7-0.4,2.6-0.1l6.1,2c0.8,0.2,1.7,0.1,2.4-0.5l4-3.3c0.4-0.3,0.5-0.8,0.2-1.2c-0.1-0.2-0.3-0.3-0.4-0.3L381,413
				c-0.7-0.4-0.9-1.2-0.6-1.9c0.2-0.4,0.4-0.9,0.5-1.4c0.2-0.8,0.9-1.4,1.6-1.6l6.8-1.1c0.6-0.1,1.1-0.7,1-1.3c0-0.1,0-0.2-0.1-0.2
				l-1.1-3.5c-0.3-0.8-1-1.3-1.8-1.3l-7.2,0.2c-0.9,0-1.7-0.4-2.3-1c-0.5-0.6-1.1-1.1-1.7-1.6c-0.6-0.4-0.7-1.2-0.3-1.7
				c0,0,0.1-0.1,0.1-0.1l2.8-3c0.4-0.3,0.4-0.9,0.1-1.3c-0.1-0.1-0.3-0.2-0.4-0.3l-6.4-2.7c-0.8-0.3-1.7-0.2-2.5,0.2l-4.2,2.8
				c-0.8,0.4-1.7,0.6-2.5,0.5c-1.3-0.3-2.7-0.4-4.1-0.6c-0.8-0.1-1.6-0.6-2-1.4l-1.6-3.1c-0.4-0.7-1.2-1.2-2-1.1l-7.9,0.7
				c-0.7,0.1-1.3,0.7-1.2,1.5c0,0,0,0,0,0.1l0.4,3c0.1,0.8-0.4,1.5-1.1,1.8c-1.1,0.3-2.2,0.7-3.3,1.2c-0.8,0.3-1.7,0.4-2.6,0.1
				l-6.1-2C330.4,392.6,329.5,392.8,328.8,393.3z M364,399.8c6.9,2.9,8.6,8.4,3.9,12.3s-14,4.8-20.9,2s-8.6-8.4-3.9-12.3
				S357.2,397,364,399.8z"/>
			<path id="elbjegq3tvgs9" class="st2" d="M353.2,387.3L353.2,387.3c0.5,0,0.9,0.3,1.2,0.7l1.6,3.1c0.6,1,1.6,1.7,2.7,1.8
				c1.4,0.1,2.7,0.3,4,0.5c0.2,0,0.5,0.1,0.7,0.1c0.9,0,1.7-0.2,2.4-0.7l4.2-2.8c0.3-0.2,0.7-0.3,1-0.3c0.2,0,0.4,0,0.6,0.1l6.3,2.6
				c0.1,0,0.2,0.1,0.2,0.1s0,0.1-0.1,0.2l-2.8,3c-0.4,0.4-0.6,1-0.5,1.5c0,0.6,0.4,1.1,0.8,1.5c0.6,0.5,1.1,1,1.7,1.5
				c0.8,0.8,1.8,1.2,2.9,1.3h0.1l7.2-0.2c0.4,0,0.8,0.3,1,0.8l1.1,3.5c0.1,0.1,0.1,0.3,0,0.4c-0.1,0.1-0.2,0.2-0.3,0.2l-6.8,1.1
				c-1.1,0.2-2,1.1-2.3,2.2c-0.1,0.4-0.3,0.9-0.5,1.3c-0.5,1.1-0.1,2.4,1,2.9l5.1,2.6l0.1,0.1l0,0c0,0,0,0-0.1,0.1l-4,3.3
				c-0.3,0.3-0.8,0.4-1.2,0.4c-0.2,0-0.3,0-0.5-0.1l-6.1-2c-0.4-0.1-0.9-0.2-1.3-0.2c-0.6,0-1.3,0.1-1.9,0.4c-1,0.4-2.1,0.8-3.2,1.2
				c-1.1,0.4-1.9,1.5-1.7,2.7l0.4,3c0,0.2,0,0.3-0.1,0.4c-0.1,0.1-0.2,0.2-0.4,0.2l-7.9,0.7h-0.1c-0.5,0-0.9-0.3-1.2-0.7l-1.6-3.1
				c-0.6-1-1.6-1.7-2.7-1.8c-1.3-0.1-2.7-0.3-4-0.5c-0.2,0-0.5-0.1-0.7-0.1c-0.9,0-1.7,0.2-2.4,0.7l-4.2,2.8
				c-0.3,0.2-0.7,0.3-1.1,0.3c-0.2,0-0.4,0-0.6-0.1l-6.3-2.6c-0.1,0-0.2-0.1-0.2-0.1c0-0.1,0-0.1,0.1-0.1l2.8-3
				c0.4-0.4,0.6-1,0.5-1.5c0-0.6-0.4-1.2-0.8-1.5c-0.6-0.5-1.1-1-1.7-1.5c-0.8-0.8-1.8-1.2-2.9-1.3h-0.1l-7.2,0.2
				c-0.5,0-0.8-0.3-1-0.8l-1.1-3.5c-0.1-0.1-0.1-0.3,0-0.4c0.1-0.1,0.2-0.2,0.3-0.2l6.8-1.1c1.1-0.2,2-1.1,2.3-2.2
				c0.1-0.4,0.3-0.9,0.5-1.3c0.5-1.1,0.1-2.4-1-2.9l-5.1-2.6l-0.1-0.1l0,0c0,0,0-0.1,0.1-0.1l4-3.3c0.3-0.2,0.8-0.4,1.2-0.4
				c0.2,0,0.3,0,0.5,0.1l6.1,2c0.4,0.1,0.8,0.2,1.3,0.2c0.6,0,1.3-0.1,1.9-0.4c1-0.4,2.1-0.8,3.2-1.1c1.1-0.4,1.8-1.5,1.7-2.7
				l-0.4-3c0-0.2,0-0.3,0.1-0.4c0.1-0.1,0.2-0.2,0.4-0.2l7.9-0.7L353.2,387.3 M356,416.5c5.1,0,9.6-1.4,12.5-3.8
				c2.2-1.8,3.2-4.1,2.8-6.4c-0.5-2.9-3-5.5-7-7.2c-2.9-1.2-6-1.8-9.2-1.7c-5.1,0-9.6,1.4-12.5,3.8c-2.2,1.8-3.2,4.1-2.8,6.5
				c0.5,2.9,3,5.5,7,7.2C349.7,416,352.9,416.6,356,416.5 M353.3,386.5h-0.1l-7.9,0.7c-0.7,0.1-1.3,0.7-1.2,1.5c0,0,0,0,0,0.1l0.4,3
				c0.1,0.8-0.4,1.5-1.1,1.8c-1.1,0.3-2.2,0.7-3.3,1.2c-0.5,0.2-1,0.3-1.6,0.3c-0.3,0-0.7,0-1-0.1l-6.1-2c-0.2-0.1-0.5-0.1-0.7-0.1
				c-0.6,0-1.2,0.2-1.7,0.5l-4,3.4c-0.4,0.3-0.5,0.8-0.3,1.2c0.1,0.2,0.3,0.3,0.5,0.4l5.1,2.6c0.7,0.4,0.9,1.2,0.6,1.9
				c-0.2,0.4-0.4,0.9-0.5,1.4c-0.2,0.8-0.9,1.4-1.6,1.6l-6.8,1.1c-0.6,0.1-1.1,0.7-1,1.3c0,0.1,0,0.2,0.1,0.2l1.1,3.5
				c0.3,0.8,1,1.3,1.8,1.3l0,0l7.2-0.2l0,0c0.9,0.1,1.7,0.4,2.3,1c0.5,0.6,1.1,1.1,1.7,1.6c0.6,0.4,0.7,1.2,0.3,1.7
				c0,0-0.1,0.1-0.1,0.1l-2.8,3c-0.4,0.3-0.4,0.9-0.1,1.3c0.1,0.1,0.3,0.2,0.4,0.3l6.3,2.6c0.3,0.1,0.7,0.2,1,0.2
				c0.5,0,1-0.1,1.5-0.4l4.2-2.8c0.6-0.4,1.3-0.5,2-0.5c0.2,0,0.4,0,0.5,0c1.3,0.3,2.7,0.4,4.1,0.6c0.9,0.1,1.6,0.6,2.1,1.4l1.6,3.1
				c0.4,0.7,1.1,1.1,1.9,1.1h0.1l7.9-0.7c0.7-0.1,1.3-0.7,1.2-1.5c0,0,0,0,0-0.1l-0.4-3c-0.1-0.8,0.4-1.5,1.2-1.8
				c1.1-0.3,2.2-0.7,3.3-1.2c0.5-0.2,1-0.3,1.6-0.3c0.3,0,0.7,0,1,0.1l6.1,2c0.2,0.1,0.5,0.1,0.7,0.1c0.6,0,1.2-0.2,1.7-0.6l4-3.3
				c0.4-0.3,0.5-0.8,0.2-1.2c-0.1-0.2-0.3-0.3-0.4-0.3L381,413c-0.7-0.4-0.9-1.2-0.6-1.9c0.2-0.4,0.4-0.9,0.5-1.4
				c0.2-0.8,0.9-1.4,1.6-1.6l6.8-1.1c0.6-0.1,1.1-0.7,1-1.3c0-0.1,0-0.2-0.1-0.2l-1.1-3.5c-0.3-0.8-1-1.3-1.8-1.3h0l-7.2,0.2h0
				c-0.9,0-1.7-0.4-2.3-1c-0.5-0.6-1.1-1.1-1.7-1.6c-0.6-0.4-0.7-1.2-0.3-1.7c0,0,0.1-0.1,0.1-0.1l2.8-3c0.4-0.3,0.4-0.9,0.1-1.3
				c-0.1-0.1-0.3-0.2-0.4-0.3l-6.4-2.7c-0.3-0.1-0.7-0.2-1-0.2c-0.5,0-1,0.1-1.5,0.4l-4.2,2.8c-0.6,0.4-1.3,0.5-2,0.5
				c-0.2,0-0.4,0-0.5,0c-1.3-0.3-2.7-0.4-4.1-0.6c-0.8-0.1-1.6-0.6-2-1.4l-1.6-3.1C354.7,386.9,354,386.5,353.3,386.5L353.3,386.5z
				 M356,415.7c-3,0-6.1-0.5-8.9-1.7c-6.9-2.9-8.6-8.4-3.9-12.3c2.8-2.4,7.4-3.6,12-3.6c3,0,6.1,0.5,8.9,1.7
				c6.9,2.9,8.6,8.4,3.9,12.3C365.2,414.5,360.6,415.7,356,415.7L356,415.7z"/>
		</g>
		<g id="freepik--gear--inject-136">
			<path id="el2x1n9n59i7d" class="st0" d="M269.2,440.5L269.2,440.5c0,0.3,0.2,0.5,0.5,0.7l1.7,0.9l1-0.2c0.6-0.2,1.1-0.6,1.3-1.3
				c0.1-0.4,0.2-0.7,0.4-1.1c0.3-0.5,0.1-1.2-0.5-1.5l-4-2.1c-0.3-0.1-0.4-0.4-0.5-0.6L269.2,440.5z M284,438.8
				c-2.4,2-2.7,4.5-1.2,6.6c0.4-0.5,0.8-0.9,1.3-1.3c3.7-3.1,11.2-3.8,16.7-1.6c1.7,0.6,3.2,1.7,4.3,3.2c2-2.9,0.3-6.5-4.4-8.4
				C295.2,435,287.7,435.7,284,438.8z M266.2,449L266.2,449c0,0.1,0,0.2,0,0.3l0.9,2.8c0.2,0.6,0.8,1,1.5,1l5.7-0.2
				c0.3,0,0.6,0.1,0.9,0.2l0,0c0.2,0.1,0.3,0.2,0.5,0.3l2-2.1c0.4-0.4,0.3-1-0.1-1.4c0,0-0.1-0.1-0.1-0.1c-0.5-0.4-1-0.8-1.4-1.3
				c-0.3-0.3-0.6-0.5-1-0.6c-0.3-0.1-0.6-0.2-0.9-0.2l-5.7,0.2c-0.7,0-1.2-0.4-1.5-1l-0.9-2.8c0-0.1-0.1-0.2-0.1-0.3L266.2,449z
				 M312.6,431.6c0,0.2-0.1,0.3-0.2,0.5l-2.3,2.4c-0.4,0.4-0.3,1,0.1,1.4c0,0,0.1,0,0.1,0.1c0.5,0.4,1,0.8,1.4,1.3
				c0.1,0.1,0.3,0.3,0.5,0.4l0.3-0.3c0.2-0.2,0.2-0.4,0.2-0.6l0,0L312.6,431.6z M275.3,459.6c0,0.1,0,0.2,0.1,0.3
				c0.1,0.2,0.3,0.3,0.4,0.4l5,2.1l0.2,0.1h0.2c0.3,0,0.5,0,0.8,0h0.2l0,0c0.2,0,0.4-0.1,0.6-0.2l3.4-2.2c0.6-0.3,1.3-0.5,2-0.4
				c1.1,0.2,2.2,0.4,3.3,0.5c0.4,0,0.8,0.2,1.1,0.5c0.1,0.1,0.2,0.2,0.3,0.3c0,0,0.1,0.1,0.1,0.1c0.1,0.1,0.1,0.1,0.1,0.2l1.3,2.5
				v0.1c0,0.1,0.1,0.1,0.1,0.2l0.1,0.1l0,0l0.2,0.1c0.1,0.1,0.3,0.2,0.4,0.2c0.2,0.1,0.5,0.1,0.7,0.1l6.3-0.6c0.6,0,1-0.5,1-1.1
				l0-3.5c0.2-0.2,0.4-0.4,0.6-0.5c0.9-0.3,1.8-0.6,2.6-0.9c0.7-0.3,1.4-0.3,2.1-0.1h0l4.9,1.6c0.1,0,0.2,0.1,0.3,0.1l0,0
				c0.1,0,0.2,0,0.3,0c0.5,0,0.9-0.1,1.3-0.4l3.2-2.7c0.2-0.1,0.3-0.3,0.3-0.6l-0.1-5.2c0,0.2-0.1,0.4-0.3,0.5l-3.2,2.7
				c-0.2,0.2-0.4,0.3-0.7,0.4c-0.4,0.1-0.8,0.1-1.2,0l-4.8-1.6h0c-0.7-0.2-1.4-0.1-2.1,0.1c-0.8,0.4-1.7,0.7-2.6,0.9
				c-0.6,0.2-1,0.8-0.9,1.4l0.3,2.4c0.1,0.6-0.3,1.1-0.9,1.2c0,0,0,0-0.1,0l-6.3,0.6c-0.2,0-0.5,0-0.7-0.1c-0.4-0.2-0.7-0.4-0.9-0.8
				l-1.1-2.5c-0.1-0.2-0.3-0.5-0.5-0.6c-0.3-0.3-0.7-0.4-1.1-0.5c-1.1-0.1-2.2-0.3-3.3-0.5c-0.7-0.1-1.4,0-2,0.4l-3.3,2.2
				c-0.2,0.1-0.4,0.2-0.7,0.3c-0.4,0.1-0.9,0.1-1.3-0.1l-5-2.1c-0.3-0.1-0.5-0.4-0.5-0.7L275.3,459.6z M315.4,444
				c-0.6,0.2-1.1,0.7-1.3,1.3c-0.1,0.4-0.2,0.7-0.4,1.1c-0.3,0.5-0.1,1.2,0.5,1.5l2.3,1.2l4.4-0.7c0.5-0.1,0.8-0.4,0.8-0.9l0,0
				l-0.1-5.3c0,0.5-0.3,0.9-0.8,0.9L315.4,444z"/>
			<path id="elz57pcjy555k" class="st2" d="M308.4,452.5l4.8,1.6c0.4,0.1,0.8,0.1,1.2,0l0.1,5.2c-0.2,0.1-0.4,0.1-0.6,0.1
				c-0.1,0-0.2,0-0.3,0l0,0c-0.1,0-0.2,0-0.3-0.1l-4.9-1.6L308.4,452.5z"/>
			<path id="el8caqx72mhsg" class="st2" d="M292.4,455.2c0.2,0.2,0.4,0.4,0.5,0.6l1.3,2.5c0.2,0.4,0.5,0.6,0.9,0.8l0.1,5.2
				c-0.1-0.1-0.3-0.1-0.4-0.2l-0.2-0.1l0,0l-0.1-0.1c0-0.1-0.1-0.1-0.1-0.2v-0.1l-1.4-2.5c0-0.1-0.1-0.1-0.1-0.2l-0.1-0.1
				c-0.1-0.1-0.2-0.2-0.3-0.3l0,0L292.4,455.2z"/>
			<path id="elzw73hm5a8pq" class="st2" d="M269.1,435.3c0,0.3,0.2,0.5,0.5,0.6l4,2.1c0.5,0.3,0.7,1,0.5,1.5
				c-0.2,0.4-0.3,0.7-0.4,1.1c-0.2,0.6-0.7,1.1-1.3,1.3l-1,0.2l-1.7-0.9c-0.3-0.1-0.4-0.4-0.5-0.6l0,0L269.1,435.3z"/>
			<path id="elq0bhqpcksw" class="st2" d="M266.1,443.8c0,0.1,0,0.2,0.1,0.3l0.9,2.8c0.2,0.6,0.8,1,1.5,1l5.7-0.2
				c0.3,0,0.6,0.1,0.9,0.2l0.1,5.2c-0.3-0.1-0.6-0.2-0.9-0.2l-5.7,0.2c-0.7,0-1.2-0.4-1.5-1l-0.9-2.8c0-0.1-0.1-0.2,0-0.3l0,0
				L266.1,443.8z"/>
			<path id="elvli6urlphzj" class="st2" d="M275.2,454.3c0,0.3,0.2,0.6,0.5,0.7l5,2.1c0.4,0.1,0.9,0.2,1.3,0.1l0.1,5.2h-0.2
				c-0.3,0-0.5,0-0.8,0H281l-0.2-0.1l-5-2.1c-0.2-0.1-0.3-0.2-0.4-0.4c-0.1-0.1-0.1-0.2-0.1-0.3L275.2,454.3z"/>
			<path id="eluqtrs6dmyb" class="st3" d="M272.6,432.1l-3.2,2.7c-0.3,0.2-0.4,0.6-0.2,1c0.1,0.1,0.2,0.2,0.4,0.3l4,2.1
				c0.5,0.3,0.8,1,0.5,1.5c-0.2,0.4-0.3,0.7-0.4,1.1c-0.2,0.6-0.7,1.1-1.3,1.3l-5.4,0.9c-0.5,0.1-0.9,0.5-0.8,1.1
				c0,0.1,0,0.1,0.1,0.2l0.9,2.8c0.2,0.6,0.8,1,1.5,1l5.7-0.2c0.7,0,1.4,0.3,1.9,0.8c0.4,0.4,0.9,0.9,1.4,1.3
				c0.5,0.3,0.6,0.9,0.2,1.4c0,0,0,0.1-0.1,0.1l-2.3,2.4c-0.3,0.3-0.3,0.7,0,1c0.1,0.1,0.2,0.2,0.3,0.2l5,2.1c0.7,0.2,1.4,0.2,2-0.2
				l3.4-2.2c0.6-0.4,1.3-0.5,2-0.4c1.1,0.2,2.2,0.3,3.3,0.4c0.7,0.1,1.3,0.5,1.6,1.1l1.3,2.5c0.3,0.6,1,0.9,1.6,0.9l6.3-0.6
				c0.6,0,1-0.6,1-1.1c0,0,0-0.1,0-0.1l-0.3-2.4c-0.1-0.6,0.3-1.2,0.9-1.4c0.9-0.3,1.8-0.6,2.6-1c0.7-0.3,1.4-0.3,2.1-0.1l4.9,1.6
				c0.7,0.2,1.4,0,1.9-0.4l3.2-2.7c0.3-0.2,0.4-0.6,0.2-1c-0.1-0.1-0.2-0.2-0.4-0.3l-4-2.1c-0.5-0.3-0.8-1-0.5-1.5
				c0.2-0.4,0.3-0.7,0.4-1.1c0.2-0.6,0.7-1.1,1.3-1.3l5.4-0.9c0.5-0.1,0.9-0.6,0.8-1.2c0,0,0,0,0-0.1l-0.9-2.8c-0.2-0.6-0.8-1-1.5-1
				l-5.7,0.2c-0.7,0-1.4-0.3-1.9-0.8c-0.4-0.4-0.9-0.9-1.4-1.3c-0.5-0.3-0.6-0.9-0.2-1.4c0,0,0-0.1,0.1-0.1l2.3-2.4
				c0.3-0.3,0.3-0.7,0.1-1c-0.1-0.1-0.2-0.2-0.4-0.2l-5-2.1c-0.7-0.2-1.4-0.2-2,0.2l-3.4,2.2c-0.6,0.3-1.3,0.5-2,0.4
				c-1.1-0.2-2.2-0.3-3.3-0.4c-0.7-0.1-1.3-0.5-1.6-1.1l-1.3-2.5c-0.3-0.6-1-0.9-1.6-0.9l-6.3,0.6c-0.6,0-1,0.5-1,1.1
				c0,0,0,0.1,0,0.1l0.3,2.4c0.1,0.6-0.3,1.2-0.9,1.4c-0.9,0.3-1.8,0.6-2.6,0.9c-0.7,0.3-1.4,0.3-2.1,0.1l-4.9-1.6
				C273.8,431.5,273.1,431.6,272.6,432.1z M300.6,437.2c5.5,2.3,6.9,6.7,3.1,9.8s-11.2,3.8-16.6,1.6s-6.9-6.6-3.1-9.8
				S295.2,435,300.6,437.2z"/>
			<path id="elvav05632ug" class="st2" d="M292,427.4L292,427.4c0.3,0,0.6,0.2,0.8,0.5l1.3,2.5c0.5,0.8,1.3,1.4,2.3,1.5
				c1.1,0.1,2.1,0.2,3.2,0.4c0.2,0,0.4,0.1,0.6,0c0.7,0,1.4-0.2,2-0.5l3.4-2.2c0.2-0.1,0.5-0.2,0.8-0.2c0.2,0,0.3,0,0.5,0.1l5,2.1
				l-2.2,2.4c-0.3,0.4-0.5,0.8-0.5,1.3c0,0.5,0.3,1,0.7,1.3c0.5,0.4,0.9,0.8,1.3,1.2c0.6,0.6,1.5,1,2.4,1.1h0.1l5.7-0.2
				c0.3,0,0.5,0.2,0.7,0.5l0.9,2.8c0,0.1,0,0.1,0,0.2c0,0-0.1,0.1-0.1,0.1l-5.4,0.9c-1,0.2-1.7,0.9-2,1.9c-0.1,0.3-0.2,0.7-0.4,1
				c-0.5,0.9-0.1,2.1,0.8,2.5l4,2.1l-3.1,2.6c-0.2,0.2-0.5,0.3-0.8,0.3c-0.1,0-0.2,0-0.3,0l-4.9-1.6c-0.4-0.1-0.7-0.2-1.1-0.1
				c-0.5,0-1.1,0.1-1.6,0.3c-0.8,0.4-1.7,0.7-2.5,0.9c-1,0.3-1.6,1.3-1.5,2.3l0.3,2.4c0,0.1,0,0.2-0.1,0.2c0,0.1-0.1,0.1-0.2,0.1
				l-6.3,0.6c-0.3,0-0.6-0.2-0.8-0.5l-1.3-2.5c-0.5-0.8-1.3-1.4-2.3-1.5c-1.1-0.1-2.1-0.2-3.2-0.4c-0.2,0-0.4,0-0.6,0
				c-0.7,0-1.4,0.2-2,0.6l-3.3,2.2c-0.2,0.1-0.5,0.2-0.8,0.2c-0.2,0-0.3,0-0.5-0.1l-5-2.1l2.2-2.4c0.3-0.4,0.5-0.8,0.5-1.3
				c0-0.5-0.3-1-0.7-1.3c-0.5-0.4-0.9-0.8-1.3-1.2c-0.6-0.6-1.5-1-2.4-1.1h-0.1l-5.7,0.2c-0.3,0-0.5-0.2-0.7-0.5l-0.9-2.8
				c0-0.1,0-0.1,0-0.2c0,0,0.1-0.1,0.1-0.1l5.4-0.9c1-0.2,1.7-0.9,2-1.9c0.1-0.3,0.2-0.7,0.4-1c0.5-0.9,0.1-2.1-0.8-2.5l-4-2.1
				l3.1-2.6c0.2-0.2,0.5-0.3,0.8-0.3c0.1,0,0.2,0,0.3,0l4.9,1.6c0.4,0.1,0.7,0.2,1.1,0.1c0.5,0,1.1-0.1,1.6-0.3
				c0.8-0.4,1.7-0.7,2.5-0.9c1-0.3,1.6-1.3,1.5-2.3l-0.3-2.4c0-0.1,0-0.2,0.1-0.2c0-0.1,0.1-0.1,0.2-0.1L292,427.4L292,427.4
				 M294.1,450.8c4.1,0,7.8-1.1,10.1-3.1c1.7-1.2,2.6-3.2,2.3-5.3c-0.4-2.4-2.4-4.5-5.7-5.9c-2.3-0.9-4.9-1.4-7.4-1.4
				c-4.1,0-7.8,1.1-10.1,3.1c-1.7,1.2-2.6,3.2-2.3,5.3c0.4,2.4,2.4,4.5,5.7,5.9C289.1,450.3,291.6,450.8,294.1,450.8 M292,426.6
				h-0.1l-6.3,0.6c-0.6,0-1,0.5-1,1.1c0,0,0,0.1,0,0.1l0.3,2.4c0.1,0.6-0.3,1.2-0.9,1.4c-0.9,0.3-1.8,0.6-2.6,0.9
				c-0.4,0.2-0.8,0.2-1.3,0.2c-0.3,0-0.6,0-0.8-0.1l-4.9-1.6c-0.2-0.1-0.4-0.1-0.6-0.1c-0.5,0-1,0.2-1.4,0.5l-3.2,2.7
				c-0.3,0.2-0.4,0.6-0.2,1c0.1,0.1,0.2,0.2,0.4,0.3l4,2.1c0.5,0.3,0.8,1,0.5,1.5c-0.2,0.4-0.3,0.7-0.4,1.1
				c-0.2,0.6-0.7,1.1-1.3,1.3l-5.4,0.9c-0.5,0.1-0.9,0.5-0.8,1.1c0,0.1,0,0.1,0.1,0.2l0.9,2.8c0.2,0.6,0.8,1,1.4,1l0,0l5.7-0.2h0
				c0.7,0,1.3,0.3,1.8,0.8c0.4,0.4,0.9,0.9,1.4,1.3c0.5,0.3,0.6,0.9,0.2,1.4c0,0,0,0.1-0.1,0.1l-2.3,2.4c-0.3,0.3-0.3,0.7,0,1
				c0.1,0.1,0.2,0.2,0.3,0.2l5,2.1c0.2,0.1,0.5,0.1,0.8,0.1c0.4,0,0.8-0.1,1.2-0.3l3.4-2.2c0.5-0.3,1-0.4,1.6-0.4c0.1,0,0.3,0,0.4,0
				c1.1,0.2,2.2,0.3,3.3,0.4c0.7,0.1,1.3,0.5,1.6,1.1l1.3,2.5c0.3,0.5,0.9,0.9,1.5,0.9h0.1l6.3-0.6c0.6,0,1-0.6,1-1.1
				c0,0,0-0.1,0-0.1l-0.3-2.4c-0.1-0.6,0.3-1.2,0.9-1.4c0.9-0.3,1.8-0.6,2.6-1c0.4-0.2,0.8-0.2,1.3-0.2c0.3,0,0.6,0,0.8,0.1l4.9,1.6
				c0.2,0.1,0.4,0.1,0.6,0.1c0.5,0,1-0.2,1.4-0.5l3.2-2.7c0.3-0.2,0.4-0.6,0.2-1c-0.1-0.1-0.2-0.2-0.4-0.3l-4-2.1
				c-0.5-0.3-0.8-1-0.5-1.5c0.2-0.4,0.3-0.7,0.4-1.1c0.2-0.6,0.7-1.1,1.3-1.3l5.4-0.9c0.5-0.1,0.9-0.6,0.8-1.2c0,0,0,0,0-0.1
				l-0.9-2.8c-0.2-0.6-0.8-1-1.4-1l0,0l-5.7,0.2l0,0c-0.7,0-1.3-0.3-1.8-0.8c-0.4-0.4-0.9-0.9-1.4-1.3c-0.5-0.3-0.6-0.9-0.2-1.4
				c0,0,0-0.1,0.1-0.1l2.3-2.4c0.3-0.3,0.3-0.7,0.1-1c-0.1-0.1-0.2-0.2-0.4-0.2l-5-2.1c-0.2-0.1-0.5-0.1-0.8-0.1
				c-0.4,0-0.8,0.1-1.2,0.3l-3.4,2.2c-0.5,0.3-1,0.4-1.6,0.4c-0.1,0-0.3,0-0.4,0c-1.1-0.2-2.2-0.3-3.3-0.4c-0.7-0.1-1.3-0.5-1.6-1.1
				l-1.3-2.5C293.2,426.9,292.6,426.6,292,426.6L292,426.6z M294.2,449.9c-2.4,0-4.8-0.4-7.1-1.3c-5.5-2.3-6.9-6.6-3.1-9.8
				c2.3-1.9,5.9-2.9,9.6-2.9c2.4,0,4.8,0.4,7.1,1.3c5.5,2.3,6.9,6.7,3.1,9.8C301.5,448.9,297.9,449.9,294.2,449.9z"/>
		</g>
	</g>
</g>
<g id="freepik--Chart--inject-136">
	<g id="freepik--bar-graph--inject-136_1_">
		<path id="eldki0qelxobc" class="st4" d="M21.6,270.6l1.3,0.7c0.7,0.4,1.5,0.4,2.3,0l77.4-44.7c0.7-0.4,1.1-1.2,1.1-2v-88.3
			c0-0.8-0.5-1.6-1.1-2l-1.3-0.7c-0.7-0.4-1.6-0.4-2.3,0l-77.4,44.8c-0.7,0.4-1.1,1.2-1.1,2v88.3C20.5,269.5,21,270.2,21.6,270.6z"
			/>
		<path id="elapq4eyww5b6" class="st5" d="M25.2,271.4l77.4-44.7c0.7-0.4,1.1-1.2,1.1-2v-88.3c0-0.7-0.5-1-1.1-0.6l-77.4,44.7
			c-0.7,0.4-1.1,1.2-1.1,2v88.3C24,271.4,24.5,271.7,25.2,271.4z"/>
		<path id="el3fx0z2tfgzb" class="st1" d="M24.7,271.7c-0.1,0-0.3,0-0.4-0.1c-0.3-0.2-0.5-0.6-0.4-0.9v-88.3c0-0.9,0.5-1.7,1.2-2.1
			l77.4-44.7c0.4-0.3,1-0.3,1.3,0.1c0.2,0.2,0.2,0.5,0.2,0.7v88.3c0,0.9-0.5,1.7-1.2,2.1l-77.4,44.7
			C25.1,271.6,24.9,271.7,24.7,271.7z M103.1,135.7c-0.1,0-0.3,0.1-0.4,0.1l-77.4,44.7c-0.6,0.4-1,1.1-1,1.8v88.3
			c0,0.2,0.1,0.4,0.2,0.5c0.2,0.1,0.4,0,0.6-0.1l77.4-44.7c0.6-0.4,1-1.1,1-1.8v-88.3c0-0.2-0.1-0.4-0.2-0.5
			C103.2,135.8,103.2,135.8,103.1,135.7L103.1,135.7z"/>
		<path id="elu2iynt3r54a" class="st1" d="M25,271.4c-0.7,0.3-1.4,0.2-2.1-0.1l-1.3-0.7c-0.7-0.4-1.1-1.2-1.1-2v-88.3
			c0-0.4,0.1-0.8,0.3-1.1l3.5,2c-0.2,0.3-0.3,0.7-0.3,1.1v88.3C24,271.4,24.5,271.6,25,271.4z"/>
		<g id="freepik--bar-graph--inject-136">
			<polygon id="elej8lkee69uo" class="st6" points="82.8,229.4 82.8,182.9 78.7,180.5 78.7,227 			"/>
			<g id="elhrkw1wawf7k">
				<polygon class="st7" points="82.8,229.4 82.8,182.9 78.7,180.5 78.7,227 				"/>
			</g>
			<polygon id="el11vvegu2ey1l" class="st6" points="82.8,229.4 94.9,222.5 94.9,175.9 82.8,182.9 			"/>
			<polygon id="elbpn8riueu1" class="st6" points="94.9,175.9 90.7,173.6 78.7,180.5 82.8,182.9 			"/>
			<g id="elmdai9ym71mr">
				<polygon class="st8" points="94.9,175.9 90.7,173.6 78.7,180.5 82.8,182.9 				"/>
			</g>
			<g id="elxy8w8ohdms">
				<path class="st9" d="M94.9,176l-12,6.8l-4.2-2.2l4,2.6c-0.1,1.4,0,44.9,0.2,46.3c0.2-1.4,0.3-45,0.2-46.3L94.9,176z"/>
			</g>
			<polygon id="elaf54s9cuqm" class="st6" points="60.2,242.5 60.2,205.1 56.1,202.7 56.1,240.1 			"/>
			<g id="elhi5m9t7irx">
				<polygon class="st10" points="60.2,242.5 60.2,205.1 56.1,202.7 56.1,240.1 				"/>
			</g>
			<polygon id="elmxu1numhuy" class="st6" points="60.2,242.5 72.3,235.5 72.3,198.1 60.2,205.1 			"/>
			<g id="el65531fl1t7j">
				<polygon class="st9" points="60.2,242.5 72.3,235.5 72.3,198.1 60.2,205.1 				"/>
			</g>
			<polygon id="elr6epmihbe7c" class="st6" points="72.3,198.1 68.1,195.8 56.1,202.7 60.2,205.1 			"/>
			<g id="eldd85kbodwel">
				<polygon class="st11" points="72.3,198.1 68.1,195.8 56.1,202.7 60.2,205.1 				"/>
			</g>
			<g id="elu6p8x36uwz">
				<path class="st9" d="M60.4,205.2l11.9-7.1l-12,6.8c-1.3-0.7-4.2-2.2-4.2-2.2s2.7,1.7,4,2.5c0,1.4,0.1,35.9,0.2,37.3
					C60.3,241,60.4,206.6,60.4,205.2z"/>
			</g>
			<polygon id="elbp7sh3a81gh" class="st6" points="37.7,255.5 37.7,224.1 33.5,221.7 33.5,253.1 			"/>
			<g id="elq664g2k2sfl">
				<polygon class="st12" points="37.7,255.5 37.7,224.1 33.5,221.7 33.5,253.1 				"/>
			</g>
			<polygon id="elb12kjizbs5o" class="st6" points="37.7,255.5 49.7,248.6 49.7,217.2 37.7,224.1 			"/>
			<g id="elx5js0c0iff">
				<polygon class="st13" points="37.7,255.5 49.7,248.6 49.7,217.2 37.7,224.1 				"/>
			</g>
			<polygon id="elnu5ytbxthq" class="st6" points="49.7,217.2 45.5,214.8 33.5,221.7 37.7,224.1 			"/>
			<g id="elxp43dmodnh">
				<polygon class="st14" points="49.7,217.2 45.5,214.8 33.5,221.7 37.7,224.1 				"/>
			</g>
			<g id="elfizfwxtz72">
				<path class="st9" d="M49.7,217.2l-12,6.8l-4.2-2.2l4,2.6c0,0,0,30.3,0.2,31.1c0.2-0.9,0.2-31.1,0.2-31.1L49.7,217.2z"/>
			</g>
		</g>
		<g id="freepik--Arrow--inject-136">
			<polygon id="elwy2gsl1oej" class="st6" points="93.9,152.6 92.8,152 83.6,155.3 85.6,157.2 59.4,185.1 54,180 52.9,179.4 
				32.5,201.2 34.9,203.5 36,204.1 53.8,185.1 58.9,189.8 60.5,190.7 88.9,160.3 90.1,161.4 91.2,162 			"/>
			<g id="el76ozheq1yj3">
				<polygon class="st8" points="93.9,152.6 92.8,152 83.6,155.3 85.6,157.2 59.4,185.1 54,180 52.9,179.4 32.5,201.2 34.9,203.5 
					36,204.1 53.8,185.1 58.9,189.8 60.5,190.7 88.9,160.3 90.1,161.4 91.2,162 				"/>
			</g>
			<polygon id="elc8ve59m4n6g" class="st6" points="93.9,152.6 91.2,162 89.1,160.1 60.5,190.7 54.1,184.7 36,204.1 33.5,201.8 
				54,180 60.3,186 86.7,157.8 84.6,155.9 			"/>
			<polygon id="el0y2nom7p9yji" class="st6" points="54.1,184.7 53.8,185.1 58.9,189.8 60.5,190.7 			"/>
			<g id="elsoy67puq6l">
				<polygon class="st7" points="54.1,184.7 53.8,185.1 58.9,189.8 60.5,190.7 				"/>
			</g>
			<polygon id="ela88ld7312f5" class="st6" points="85.6,157.2 86.7,157.8 84.6,155.9 83.6,155.3 			"/>
			<g id="ela0vm24dq1lu">
				<polygon class="st7" points="85.6,157.2 86.7,157.8 84.6,155.9 83.6,155.3 				"/>
			</g>
			<polygon id="el154cihlgl2e" class="st6" points="88.9,160.3 89.1,160.1 91.2,162 90.1,161.4 			"/>
			<g id="eleobj3aa83e">
				<polygon class="st7" points="88.9,160.3 89.1,160.1 91.2,162 90.1,161.4 				"/>
			</g>
			<polygon id="elbn7flsr08a6" class="st6" points="32.5,201.2 33.5,201.8 36,204.1 34.9,203.5 			"/>
			<g id="el6nb37xnylhb">
				<polygon class="st7" points="32.5,201.2 33.5,201.8 36,204.1 34.9,203.5 				"/>
			</g>
			<g id="eldzqu5uol718">
				<polygon class="st15" points="40.3,194.6 54,180.4 60.3,186 54,180 				"/>
			</g>
			<g id="eli69txhwbc">
				<polygon class="st15" points="72.4,173.1 87,157.8 85,156 93.9,152.6 84.6,155.9 86.7,157.8 				"/>
			</g>
		</g>
	</g>
</g>
<g id="freepik--Arrows--inject-136">
	<g id="freepik--arrow--inject-136">
		<polygon id="elecfnla816vu" class="st6" points="401.8,239.3 410.9,244.6 425.9,235.9 425.9,157.6 435.9,151.8 418.8,138.6 
			409.7,133.4 391.8,166.8 400.9,172 401.8,171.5 		"/>
		<g id="eljkfs6jzjwlp">
			<polygon class="st16" points="401.8,239.3 410.9,244.6 425.9,235.9 425.9,157.6 435.9,151.8 418.8,138.6 409.7,133.4 
				391.8,166.8 400.9,172 401.8,171.5 			"/>
		</g>
		<polygon id="freepik--down-arrow--inject-136" class="st6" points="410.9,244.6 425.9,235.9 425.9,157.6 435.9,151.8 418.8,138.6 
			400.9,172 410.9,166.2 		"/>
		<g id="freepik--down-arrow--inject-136_1_">
			<polygon class="st17" points="410.9,244.6 425.9,235.9 425.9,157.6 435.9,151.8 418.8,138.6 400.9,172 410.9,166.2 			"/>
		</g>
		<polygon id="elrvh1u82kqwo" class="st6" points="401.8,239.3 410.9,244.6 410.9,166.2 401.8,171.5 		"/>
		<g id="el3ew23kkobgg">
			<polygon class="st15" points="401.8,239.3 410.9,244.6 410.9,166.2 401.8,171.5 			"/>
		</g>
	</g>
	<g id="freepik--arrow--inject-136_1_">
		<polygon id="elnr55oh3q4w8" class="st6" points="440,258.3 446.8,262.3 458.1,255.8 458.1,188.1 465.6,183.8 452.7,173.9 
			445.9,169.9 432.5,195 439.3,198.9 440,198.5 		"/>
		<g id="elrekgdtpy14g">
			<polygon class="st10" points="439.3,198.9 452.7,173.9 445.9,169.9 432.5,195 			"/>
		</g>
		<polygon id="freepik--down-arrow--inject-136_2_" class="st6" points="446.8,262.3 458.1,255.8 458.1,188.1 465.6,183.8 
			452.7,173.9 439.3,198.9 446.8,194.6 		"/>
		<g id="freepik--down-arrow--inject-136_3_">
			<polygon class="st18" points="446.8,262.3 458.1,255.8 458.1,188.1 465.6,183.8 452.7,173.9 439.3,198.9 446.8,194.6 			"/>
		</g>
		<g id="elecajoxjt43a">
			<polygon class="st13" points="440,258.3 446.8,262.3 446.8,194.6 440,198.5 			"/>
		</g>
	</g>
</g>
<g id="freepik--Symbol--inject-136">
	<g id="freepik--money-symbol--inject-136">
		<polygon id="elqolo5rcvn" class="st6" points="74.7,69.1 67.6,65 81.3,53.3 88.4,57.4 		"/>
		<path id="el1x6q3kw1ta1" class="st6" d="M79.1,71.8c-3.6-2.6-9.9-0.6-15.2,1c-1.3,0.4-2.4,0.8-3.5,1.1c-0.3,0.8-0.5,1.6-0.5,2.5
			c0,4.1,3.5,3,11.1,0.5c2.6-0.9,5.2-1.6,7.8-2.1c0.2,2.1,1.7,4,7.4,1L79.1,71.8z"/>
		<polygon id="elvisd7pxrjn" class="st6" points="61.5,125.3 54.5,121.3 54.5,112.9 61.5,117 		"/>
		<path id="eledx7dctf4oo" class="st6" d="M73.5,93.7c0,3.3-2.5,6.3-6.2,8.4c-5.9,3.4-8.2,0.6-8.7-2.1l-1.2-0.7c1-0.3,2-0.7,2.9-1.3
			c2.8-1.6,4.9-3.7,5.8-6.1C70.4,90.5,73.5,89.9,73.5,93.7z"/>
		<path id="elioi7f811go" class="st6" d="M47.2,114.1c-0.8-0.5-1.7-0.7-2.6-0.6c-0.1-0.4-0.3-0.8-0.4-1.3l-7.1-4.1
			c0.7,3.1,2.1,5,4,6l0,0l7,4.1C48.2,118.2,49.4,115.6,47.2,114.1z"/>
		<path id="elaxfg81mfxf9" class="st6" d="M70.9,76.9c-7.6,2.5-11.1,3.6-11.1-0.5c0-0.8,0.2-1.7,0.5-2.5c-5.2,1.6-7.6,1.8-7.6-1.6
			c0-2.5,1.7-5.6,6.4-8.3c5-2.9,7.8-2.2,8.5,1l13.7-11.7c-0.1-0.2-0.1-0.3-0.2-0.5c0.9-0.2,1.7-0.5,2.4-0.9l-5.6-3.3
			c-0.2-0.1-0.3-0.2-0.5-0.3l-0.1,0l0,0c-1.7-0.8-3.5-1.1-5.4-0.9c-2.4,0.3-4.8,0.9-7.1,1.9v-0.2l7.1-4.1l-7.1-4.1l0,0l-4.8,2.8
			l-6.5,3.8l0,0v8.3C44,62.7,38,71.9,38,81.7c0,4.5,1.2,7,3.2,8.3l0,0h0.1c0.2,0.1,0.3,0.2,0.5,0.3l5.9,3.3c0.2-0.9,0-1.8-0.4-2.7
			c1.9-0.2,3.7-0.7,5.5-1.2c7.2-2.2,13.6-5.6,13.6-0.3c0,0.8-0.2,1.6-0.4,2.4c4.4-1.4,7.5-2,7.5,1.8c0,3.3-2.5,6.3-6.2,8.4
			c-5.9,3.4-8.2,0.6-8.7-2.1l0,0l-1.2-0.7l-5.8-3.4l-14.3,12.2l7.1,4.1c0.2,1,0.6,2.1,1.1,3c3.2-0.1,6.3-0.9,9.1-2.3v3.4l11.2-1.5
			v-8.3C75.3,99.3,82,89.7,82,79.6c0.1-1.7-0.2-3.4-0.8-5C78,74.7,74.3,75.8,70.9,76.9z"/>
		<g id="elsw9le1u12z">
			<path class="st19" d="M70.9,76.9c-7.6,2.5-11.1,3.6-11.1-0.5c0-0.8,0.2-1.7,0.5-2.5c-5.2,1.6-7.6,1.8-7.6-1.6
				c0-2.5,1.7-5.6,6.4-8.3c5-2.9,7.8-2.2,8.5,1l13.7-11.7c-0.1-0.2-0.1-0.3-0.2-0.5c0.9-0.2,1.7-0.5,2.4-0.9l-5.6-3.3
				c-0.2-0.1-0.3-0.2-0.5-0.3l-0.1,0l0,0c-1.7-0.8-3.5-1.1-5.4-0.9c-2.4,0.3-4.8,0.9-7.1,1.9v-0.2l7.1-4.1l-7.1-4.1l0,0l-4.8,2.8
				l-6.5,3.8l0,0v8.3C44,62.7,38,71.9,38,81.7c0,4.5,1.2,7,3.2,8.3l0,0h0.1c0.2,0.1,0.3,0.2,0.5,0.3l5.9,3.3c0.2-0.9,0-1.8-0.4-2.7
				c1.9-0.2,3.7-0.7,5.5-1.2c7.2-2.2,13.6-5.6,13.6-0.3c0,0.8-0.2,1.6-0.4,2.4c4.4-1.4,7.5-2,7.5,1.8c0,3.3-2.5,6.3-6.2,8.4
				c-5.9,3.4-8.2,0.6-8.7-2.1l0,0l-1.2-0.7l-5.8-3.4l-14.3,12.2l7.1,4.1c0.2,1,0.6,2.1,1.1,3c3.2-0.1,6.3-0.9,9.1-2.3v3.4l11.2-1.5
				v-8.3C75.3,99.3,82,89.7,82,79.6c0.1-1.7-0.2-3.4-0.8-5C78,74.7,74.3,75.8,70.9,76.9z"/>
		</g>
		<path id="elw4a6g76kd7b" class="st6" d="M81.2,74.6c-3.2,0.1-6.9,1.2-10.3,2.3c-7.6,2.5-11.1,3.6-11.1-0.5c0-0.8,0.2-1.7,0.5-2.5
			c0.8-1.9,2.6-4,5.9-5.9c5-2.9,7.8-2.2,8.5,1l13.7-11.7c-1.3-3.9-4-6-7.9-6.1c-3,0.1-5.9,0.7-8.5,2V45l-7.1,4.1l-4.2,2.5v8.3
			c-9.6,7-15.6,16.1-15.6,25.9c-0.1,1.8,0.2,3.7,0.8,5.4c2.1,5.3,7.9,4.6,14,2.8c2.1-0.7,4.2-1.4,6.1-2c4.4-1.4,7.5-2,7.5,1.8
			c0,3.3-2.5,6.3-6.2,8.4c-5.9,3.4-8.2,0.6-8.7-2.1l-14.3,12.1c0.2,1,0.6,2.1,1.1,3c1.9,3.5,5.2,4.5,9.1,4c2.4-0.4,4.8-1.1,7.1-2.2
			v8.3l11.2-6.4v-8.4c9.7-7.1,16.4-16.7,16.4-26.8C89.1,76.5,85.7,74.5,81.2,74.6z"/>
		<g id="el04pbphk4w67g">
			<g class="st20">
				<path id="el4a888ic92gx" class="st5" d="M81.2,74.6c-3.2,0.1-6.9,1.2-10.3,2.3c-7.6,2.5-11.1,3.6-11.1-0.5
					c0-0.8,0.2-1.7,0.5-2.5c0.8-1.9,2.6-4,5.9-5.9c5-2.9,7.8-2.2,8.5,1l13.7-11.7c-1.3-3.9-4-6-7.9-6.1c-3,0.1-5.9,0.7-8.5,2V45
					l-7.1,4.1l-4.2,2.5v8.3c-9.6,7-15.6,16.1-15.6,25.9c-0.1,1.8,0.2,3.7,0.8,5.4c2.1,5.3,7.9,4.6,14,2.8c2.1-0.7,4.2-1.4,6.1-2
					c4.4-1.4,7.5-2,7.5,1.8c0,3.3-2.5,6.3-6.2,8.4c-5.9,3.4-8.2,0.6-8.7-2.1l-14.3,12.1c0.2,1,0.6,2.1,1.1,3c1.9,3.5,5.2,4.5,9.1,4
					c2.4-0.4,4.8-1.1,7.1-2.2v8.3l11.2-6.4v-8.4c9.7-7.1,16.4-16.7,16.4-26.8C89.1,76.5,85.7,74.5,81.2,74.6z"/>
			</g>
		</g>
		<polygon id="elawg94enhxop" class="st6" points="60.6,59.9 53.6,55.8 53.6,47.4 60.6,51.5 		"/>
		<path id="eln2es10rarhp" class="st5" d="M72.7,110.5l1.1-0.9c0.3-0.3,0.8-0.6,1.2-1s1-0.8,1.6-1.4s1.2-1.1,1.8-1.7l0.9-1l0.9-1
			c0.3-0.3,0.6-0.7,0.9-1.1s0.6-0.8,0.9-1.2c0.6-0.8,1.2-1.6,1.8-2.4s1.1-1.7,1.6-2.6s0.9-1.7,1.3-2.6s0.7-1.7,1-2.6l0.3-1.2
			c0.1-0.2,0.1-0.4,0.2-0.6l0.1-0.6c0.2-0.7,0.3-1.4,0.4-2s0.2-1.1,0.2-1.6c0-0.9,0.1-1.4,0.1-1.4v1.4c0,0.4-0.1,1-0.1,1.6
			c-0.1,0.7-0.2,1.4-0.3,2.1l-0.1,0.6c0,0.2-0.1,0.4-0.2,0.6c-0.1,0.4-0.2,0.8-0.3,1.2c-0.3,0.8-0.6,1.7-1,2.6
			c-0.4,0.9-0.8,1.8-1.3,2.7c-0.5,0.9-1,1.8-1.6,2.6s-1.2,1.7-1.8,2.5c-0.3,0.4-0.6,0.8-1,1.2s-0.6,0.7-1,1.1l-1,1l-1,0.9
			c-0.6,0.6-1.3,1.2-1.8,1.7s-1.1,0.9-1.6,1.3s-0.9,0.7-1.3,1L72.7,110.5z"/>
	</g>
</g>
<g id="freepik--light-bulb--inject-136_1_">
	<g id="freepik--light-bulb--inject-136">
		<g id="freepik--Light--inject-136">
			<path id="elmup3m9n3uq" class="st21" d="M445.5,118c0,2.7-2.2,4.8-4.8,4.8c-2.7,0-4.8-2.2-4.8-4.8c0-2.7,2.2-4.8,4.8-4.8
				c0,0,0,0,0,0C443.4,113.2,445.5,115.3,445.5,118C445.5,118,445.5,118,445.5,118z"/>
			<path id="elmerz7j89bv" class="st22" d="M434.9,118.2c-3.2-1.9-3.1-4.8,0.1-6.7c3.6-1.8,7.9-1.8,11.5,0.1c3.2,1.9,3.1,4.8,0,6.7
				C442.8,120.1,438.5,120.1,434.9,118.2z"/>
			<path id="elb6x7nhu4rft" class="st21" d="M434.7,116.4c-3.3-1.9-3.3-5,0-6.9c3.7-1.9,8.2-1.8,11.9,0.1c3.3,1.9,3.3,5,0,6.9
				C442.8,118.4,438.4,118.4,434.7,116.4z"/>
			<path id="elcvk83yzuvoc" class="st22" d="M434.6,114.7c-3.4-2-3.3-5.2,0.1-7.1c3.9-1.9,8.4-1.9,12.3,0.1c3.4,2,3.4,5.1,0,7.1
				C443,116.7,438.4,116.6,434.6,114.7z"/>
			<path id="el1ny11qwh3zai" class="st21" d="M434.4,112.8c-3.5-2-3.5-5.3,0-7.3c4-2,8.7-2,12.6,0.1c3.5,2,3.4,5.3-0.1,7.3
				C443,114.9,438.3,114.8,434.4,112.8z"/>
			<path id="elmfovsclgtx" class="st22" d="M434.3,110.9c-3.5-2.1-3.5-5.4,0.1-7.4c4.1-2,8.9-2,12.9,0.1c3.5,2.1,3.5,5.4-0.1,7.4
				C443.1,113,438.3,113,434.3,110.9z"/>
			<path id="el5df4gtawerp" class="st6" d="M441.1,54.9c-12.7-0.1-23,10.1-23.1,22.8c-0.1,18.2,14.9,21.3,14.8,28.7
				c0.1,1.4,1,2.7,2.3,3.2c3.5,1.8,7.7,1.8,11.2,0.1c1.3-0.6,2.2-1.8,2.3-3.2l0,0c0.1-7.3,15.1-10.2,15.2-28.4
				C464,65.3,453.8,55,441.1,54.9z"/>
			<g id="elprlybp531oe">
				<g class="st23">
					<path id="elyzzb15ydvn" class="st5" d="M441.1,54.9c-12.7-0.1-23,10.1-23.1,22.8c-0.1,18.2,14.9,21.3,14.8,28.7
						c0.1,1.4,1,2.7,2.3,3.2c3.5,1.8,7.7,1.8,11.2,0.1c1.3-0.6,2.2-1.8,2.3-3.2l0,0c0.1-7.3,15.1-10.2,15.2-28.4
						C464,65.3,453.8,55,441.1,54.9z"/>
				</g>
			</g>
			<path id="ell4kmbk3ar3" class="st6" d="M436.5,108.6c-2.3-1.4-2.3-3.5,0-4.9c2.7-1.3,5.8-1.3,8.4,0.1c2.3,1.4,2.3,3.5,0,4.8
				C442.3,109.9,439.2,109.9,436.5,108.6z"/>
			<path id="elwkaha0wghy" class="st5" d="M443.8,105.6c-0.4,0-0.8-0.3-0.8-0.8c0-4.4,0.6-8.8,1.7-13.1c0.3-1.2,0.7-2.4,1.2-3.6
				c-0.7-0.3-1.4-0.6-2-1c-1.1-0.7-2.1-1.6-3-2.6c-0.9,1-1.9,1.8-3.1,2.5c-0.6,0.4-1.3,0.7-2,1c0.5,1.2,0.8,2.4,1.1,3.6
				c1,4.3,1.5,8.7,1.5,13.1c0,0.4-0.4,0.8-0.8,0.8c-0.4,0-0.8-0.3-0.8-0.8c0-4.3-0.5-8.5-1.5-12.7c-0.3-1.2-0.7-2.5-1.1-3.6
				c-1.6,0.3-3.2-0.2-4.3-1.3c-0.9-0.8-1-2.2-0.3-3.2c0.5-0.7,1.3-1,2.1-0.9c1.2,0.3,2.4,1.5,3.4,3.6c0.6-0.2,1.2-0.5,1.8-0.9
				c1.1-0.7,2.1-1.5,2.9-2.5c-0.9-1.2-1.3-2.8-1.1-4.4c0.4-1.2,1.6-1.8,2.7-1.4c0.7,0.2,1.2,0.8,1.4,1.4c0.2,1.6-0.2,3.1-1.2,4.4
				c0.8,1,1.8,1.8,2.9,2.5c0.6,0.4,1.2,0.7,1.8,0.9c1-2,2.2-3.3,3.5-3.5c0.8-0.1,1.6,0.2,2.1,0.9c0.7,1,0.5,2.4-0.4,3.2
				c-1.2,1.1-2.8,1.6-4.4,1.2c-0.5,1.2-0.9,2.4-1.2,3.6c-1,4.1-1.6,8.4-1.7,12.7C444.6,105.2,444.3,105.6,443.8,105.6
				C443.9,105.6,443.9,105.6,443.8,105.6L443.8,105.6z M431.4,84.6c-0.1,0-0.3,0-0.5,0.3c-0.2,0.4-0.1,0.9,0.2,1.2
				c0.7,0.6,1.6,0.9,2.5,0.8c-0.8-1.5-1.6-2.3-2.1-2.4L431.4,84.6z M448.2,87c0.9,0.1,1.8-0.2,2.5-0.8c0.1-0.2,0.6-0.7,0.2-1.2
				c-0.2-0.3-0.4-0.3-0.5-0.3C449.8,84.8,449,85.5,448.2,87z M441,79c-0.3,0-0.5,0.1-0.6,0.4c-0.1,0.9,0.1,1.8,0.6,2.6
				c0.5-0.7,0.7-1.6,0.6-2.5C441.5,79.1,441.3,79,441,79C441,79,441,79,441,79z"/>
		</g>
		<path id="elktd7r0qz29" class="st1" d="M441.4,46.2c-0.1,0-0.3,0.1-0.4,0.1c-0.8,0-1.5-0.7-1.5-1.5c0,0,0,0,0,0v-7.8
			c0-0.8,0.7-1.5,1.5-1.5c0,0,0,0,0.1,0c0.8,0,1.5,0.7,1.5,1.5v7.8C442.5,45.4,442,46,441.4,46.2z"/>
		<path id="elsj5frdwqmqi" class="st1" d="M424.7,50.6c-0.7,0.2-1.3-0.1-1.7-0.7l-3.9-6.8c-0.4-0.7-0.2-1.6,0.5-2.1
			c0.7-0.4,1.6-0.2,2.1,0.6l3.9,6.8c0.4,0.7,0.2,1.6-0.5,2c0,0,0,0,0,0C424.9,50.5,424.8,50.6,424.7,50.6z"/>
		<path id="elrliirp1itv" class="st1" d="M412.5,62.8c-0.4,0.1-0.8,0.1-1.1-0.2l-6.8-3.9c-0.7-0.4-1.1-1.3-0.7-2
			c0.4-0.7,1.3-1.1,2-0.7c0.1,0,0.1,0.1,0.2,0.1l6.8,3.9c0.7,0.4,1,1.3,0.6,2c0,0,0,0,0,0C413.2,62.4,412.9,62.7,412.5,62.8z"/>
		<path id="eloekwkntdbx" class="st1" d="M408,79.4c-0.1,0-0.3,0-0.4,0h-7.8c-0.8,0-1.5-0.7-1.5-1.5s0.7-1.5,1.5-1.5h7.8
			c0.8,0,1.5,0.7,1.5,1.5C409.1,78.6,408.6,79.2,408,79.4L408,79.4z"/>
		<path id="ellkygosk7geo" class="st1" d="M482.4,79.5c-0.1,0-0.3,0-0.4,0h-7.8c-0.8,0-1.5-0.7-1.5-1.5s0.7-1.5,1.5-1.5h7.8
			c0.8-0.1,1.6,0.5,1.7,1.3C483.8,78.6,483.2,79.4,482.4,79.5L482.4,79.5L482.4,79.5z"/>
		<path id="elahiuc2p5628" class="st1" d="M470.2,62.8c-0.8,0.2-1.6-0.2-1.9-1c-0.2-0.7,0.1-1.4,0.7-1.7l6.8-3.9
			c0.7-0.4,1.6-0.2,2,0.5s0.2,1.6-0.5,2l0,0l-6.8,3.9C470.4,62.8,470.3,62.8,470.2,62.8z"/>
		<path id="elbql2t05bia" class="st1" d="M458,50.6c-0.4,0.1-0.8,0.1-1.1-0.1c-0.7-0.4-0.9-1.3-0.5-2l3.9-6.8c0.4-0.7,1.3-1,2.1-0.6
			c0.7,0.4,1,1.3,0.5,2.1l0,0l-3.9,6.8C458.7,50.3,458.4,50.5,458,50.6z"/>
	</g>
</g>
<g id="freepik--Puzzle--inject-136">
	<g id="freepik--puzzle--inject-136">
		<path id="elremmjy0zkz" class="st2" d="M398.6,310.5c-1.3-0.6-2.5-1.3-3.6-1.9l-0.6-0.3c-8.3-4.3-15.2-8.1-20.4-11.5l0,0
			c0.7-0.1,1.5-0.2,2.2-0.3c4.9-0.4,7.8-1.5,9.3-2.4c2.3-1.3,3.3-3.1,3.3-5.1l0,0v-18c0-0.4-0.1-0.8-0.1-1.2
			c-0.1-0.3-0.2-0.6-0.3-0.9c-0.9-2.1-2.9-4.3-6.1-6.1c-0.9-0.5-1.9-1-2.9-1.4c-3.9-1.7-8.1-2.5-12.4-2.4c-2.7,0-5.4,0.6-7.8,1.9
			c-0.2,0.1-0.4,0.3-0.6,0.4c-0.7,0.4-1.3,0.9-1.8,1.5c-0.9,1-1.5,2.2-1.8,3.4c-0.1,0.5-0.3,0.9-0.5,1.4c-0.4,1-1,1.9-1.7,2.7
			c-1.9,2.1-5,3.8-9.5,3.8c-4.3,0.1-9.2-1.5-14.7-4.3c-7.1-3.5-15.4-9-25.3-15.6l-4.1-2.7l-2.3,1.3c-3.9,2.2-7.6,4.3-11.2,6.3
			c-15.9,8.8-27.3,15.2-27.1,20v18c0.2,4.2,7.4,6.2,13.6,6.7l0.5,0.1l0,0c-0.5,0.1-0.9,0.3-1.4,0.4s-0.9,0.2-1.4,0.3s-1,0.2-1.4,0.3
			s-1,0.1-1.5,0.2s-0.9,0.1-1.3,0.1c-0.9,0.1-1.7,0.1-2.6,0.1l-0.7,0c-0.7,0-1.3-0.1-1.9-0.2c-0.3,0-0.6-0.1-0.9-0.1
			c-0.6-0.1-1.1-0.2-1.6-0.4c-0.2-0.1-0.5-0.1-0.7-0.2c-0.7-0.2-1.4-0.5-2-0.9c-0.4-0.2-0.8-0.5-1.2-0.8c-0.4-0.3-0.8-0.7-1.2-1.1
			c-0.9-1-1.5-2.2-1.8-3.4c-0.2-1-0.6-1.9-1.2-2.7c-1.7-2.7-5.1-5.1-10.5-5.1c-0.8,0-1.7,0-2.5,0.1c-2.8,0.4-5.4,1.1-8,2.2
			c-1.9,0.8-3.9,1.7-6.1,2.8s-4.4,2.4-6.8,3.7l-2.3,1.3l-4.7,2.8l-2.5,1.5c-3.6,2.2-7.6,4.8-12,7.3v18c4.9,3.3,9.5,6.5,13.8,9.5
			c12.4,8.8,22.2,15.7,29.3,15.6c6-0.1,8.9-3.8,9.7-6.9c0.7-2.6,2.4-4.7,4.8-6c5.7-3.3,15.7-2.8,23.5,0.8l0,0
			c-0.6,0.1-1.3,0.3-2,0.4l-0.4,0.1c-0.8,0.1-1.6,0.2-2.5,0.3s-2.1,0.2-3.1,0.4c-0.7,0.1-1.4,0.3-2,0.4c-3.6,0.9-6.7,2.4-6.8,4.8
			l0,0v18c-0.2,4.2,10.4,9.2,25,16.2c4.6,2.2,9.8,4.7,15.1,7.4l0,0l0.4-0.3l0,0c6.2-3.5,12-6.6,17.2-9.3
			c12.1-6.3,20.8-10.9,20.7-14.7l0,0v-18c-0.1-1.5-1.3-2.7-3.1-3.6c-1.8-0.8-3.7-1.4-5.6-1.6c-1-0.2-2.1-0.3-3.1-0.4l0,0
			c-0.9-0.1-1.7-0.2-2.5-0.3l-0.4-0.1c-0.7-0.1-1.4-0.2-2-0.4c7.8-3.6,17.9-4,23.5-0.8c2.3,1.3,4.1,3.4,4.8,6
			c0.8,3.1,3.7,6.8,9.7,6.9c6.6,0.1,14.9-5.2,26.4-12.6c5.2-3.4,11.1-7.1,17.9-11.1v-18C401.6,312,400.1,311.3,398.6,310.5z"/>
		<g id="elzow4ujvu18">
			<path class="st18" d="M297.1,253c-3.9,2.2-7.6,4.3-11.2,6.3c-15.9,8.8-27.3,15.2-27.1,20v18c0.2,4.2,7.4,6.2,13.6,6.7l0.5,0.1
				l0,0c-0.5,0.1-0.9,0.3-1.4,0.4s-0.9,0.2-1.4,0.3s-1,0.2-1.4,0.3s-1,0.1-1.5,0.2s-0.9,0.1-1.3,0.1c-0.9,0.1-1.7,0.1-2.6,0.1
				l-0.7,0c-0.7,0-1.3-0.1-1.9-0.2c-0.3,0-0.6-0.1-0.9-0.1c-0.6-0.1-1.1-0.2-1.6-0.4c-0.2-0.1-0.5-0.1-0.7-0.2
				c-0.7-0.2-1.4-0.5-2-0.9c-0.4-0.2-0.8-0.5-1.2-0.8c-0.4-0.3-0.8-0.7-1.2-1.1c-0.9-1-1.5-2.2-1.8-3.4c-0.2-1-0.6-1.9-1.2-2.7
				c-1.7-2.7-5.1-5.1-10.5-5.1c-0.8,0-1.7,0-2.5,0.1c-2.8,0.4-5.4,1.1-8,2.2c-1.9,0.8-3.9,1.7-6.1,2.8s-4.4,2.4-6.8,3.7l-2.3,1.3
				l-4.7,2.8l-2.5,1.5c-3.6,2.2-7.6,4.8-12,7.3v18c4.9,3.3,9.5,6.5,13.8,9.5c12.4,8.8,22.2,15.7,29.3,15.6c6-0.1,8.9-3.8,9.7-6.9
				c0.7-2.6,2.4-4.7,4.8-6c5.7-3.3,15.7-2.8,23.5,0.8l0,0c-0.6,0.1-1.3,0.3-2,0.4l-0.4,0.1c-0.8,0.1-1.6,0.2-2.5,0.3
				s-2.1,0.2-3.1,0.4c-0.7,0.1-1.4,0.3-2,0.4c-3.6,0.9-6.7,2.4-6.8,4.8l0,0v18c-0.2,4.2,10.4,9.2,25,16.2c4.6,2.2,9.8,4.7,15.1,7.4
				l0,0V251.8L297.1,253z"/>
		</g>
		<path id="eljlit81ex3cj" class="st0" d="M282.8,366.6c-4.5-2.1-8.5-4-12-5.8c4.8-0.4,7.6-1.5,9.1-2.4c2.3-1.3,3.4-3.2,3.3-5.2l0,0
			v-17.3c0.3-2.9-1.9-6.2-6.5-8.9c-7.2-4.2-17.5-5-23-1.9c-2.1,1.1-3.6,3.1-4.2,5.4c-0.9,3.6-4.4,7.8-11.6,7.9
			c-8.1,0.1-17.7-6.6-30.9-16c-4.3-3-8.8-6.2-13.7-9.5c-4.3,2.5-8.4,4.8-12.5,7c-15.3,8.5-27.4,15.3-27.2,19.7v18
			c0.1,3.4,6.5,5.2,11.9,5.6c1.7,0.1,3.3,0.4,4.9,0.7c-7.8,3.6-17.9,4-23.5,0.8c-2.3-1.3-4.1-3.4-4.8-6c-0.8-3.1-3.7-6.8-9.7-6.9
			c-7.5-0.1-16.7,5.4-30.6,13.8c-3.9,2.3-8.3,5-13.1,7.7v18c3.9,2,7.7,3.8,11.3,5.6c6.1,3,11.4,5.6,15.8,8l-0.6,0
			c-4.9,0.4-7.8,1.5-9.3,2.4c-2.2,1.3-3.2,3-3.3,4.9l0,0v18.1l0,0c0,2.8,2.3,5.8,6.5,8.3c7.2,4.2,17.5,5,23,1.9
			c2.1-1.1,3.6-3.1,4.2-5.4c0.9-3.6,4.4-7.8,11.6-7.9c8.3-0.1,18.8,6.4,33.3,15.3c4.2,2.6,8.9,5.5,13.9,8.4l3.1-1.8
			c19-11,34-19.6,33.8-24.9v-18c-0.1-3.4-6.5-5.2-11.9-5.6c-1.7-0.1-3.3-0.4-4.9-0.7c7.8-3.6,17.9-4,23.5-0.8c2.3,1.3,4.1,3.4,4.8,6
			c0.8,3.1,3.7,6.8,9.7,6.9c9.1,0.1,20.8-6.7,40.3-18l4.2-2.4v-18C292.5,371.2,287.4,368.7,282.8,366.6z"/>
		<path id="elahib9fmivf9" class="st2" d="M172.8,362.9c-7,4.1-16.8,5.2-23.3,3l0,0c5.8,2,14.3,1.2,21-1.9c-1.6-0.4-3.3-0.6-4.9-0.7
			c-5.4-0.4-11.8-2.1-11.9-5.6v-18c0.1,3.4,6.5,5.2,11.9,5.6s8.7,1.7,10.5,2.7C182.2,351.6,180.8,358.3,172.8,362.9z"/>
		<path id="el1xjs0sky8th" class="st2" d="M149.5,409.4v18c-0.5,0-1-0.1-1.4,0c-7.2,0.1-10.8,4.3-11.6,7.9c-0.6,2.3-2.1,4.2-4.2,5.4
			c-0.8,0.4-1.7,0.8-2.5,1.1v-18c0.9-0.3,1.8-0.6,2.6-1.1c2.1-1.1,3.6-3.1,4.2-5.4c0.9-3.6,4.4-7.8,11.6-7.9
			C148.5,409.3,149,409.4,149.5,409.4z"/>
		<path id="elsjfaxdr4h8e" class="st2" d="M232.1,406.6v17.9c0.2,5.3-14.8,14-33.8,24.9l-3.1,1.8v-18l3.1-1.8
			C217.2,420.5,232.1,411.9,232.1,406.6z"/>
		<path id="elnxmo5juog3j" class="st2" d="M257.1,349.5c0.2-4.2,7.4-6.2,13.6-6.7c4.9-0.4,7.8-1.5,9.3-2.4c1.7-0.8,2.9-2.4,3.3-4.3
			v17.2l0,0c0.1,2-1,3.8-3.3,5.2c-1.5,0.9-4.3,2-9.1,2.4C262.2,356.3,257,352.9,257.1,349.5z"/>
		<path id="ele6nbfj6ucjh" class="st2" d="M297.8,373.8v18l-4.2,2.4c-19.5,11.3-31.2,18.1-40.3,18c-5.9-0.1-8.9-3.8-9.7-6.9
			c-0.7-2.6-2.4-4.7-4.8-6c-5.7-3.3-15.7-2.8-23.5,0.8c-1.9-0.4-3.8-1.1-5.5-2c-6.2-3.6-4.8-10.3,3.3-14.9s19.6-5.5,25.8-1.9
			c2.3,1.3,4.1,3.4,4.8,6c0.8,3.1,3.7,6.8,9.7,6.9c9.1,0.1,20.8-6.7,40.3-18L297.8,373.8z"/>
		<path id="elnat16vos97" class="st3" d="M293.6,376.3c-19.5,11.3-31.2,18.1-40.3,18c-6-0.1-8.9-3.8-9.7-6.9c-0.7-2.6-2.4-4.7-4.8-6
			c-6.2-3.6-17.8-2.7-25.8,1.9s-9.5,11.3-3.3,14.9c1.8,1,5,2.3,10.4,2.8s11.8,2.1,11.9,5.5c0.2,5.3-14.8,14-33.8,24.9l-3.1,1.8
			c-5-3-9.7-5.9-13.9-8.4c-14.5-9-25-15.5-33.3-15.3c-7.2,0.1-10.8,4.3-11.6,7.9c-0.6,2.3-2.1,4.2-4.2,5.4c-5.4,3.1-15.7,2.3-23-1.9
			s-8.7-10.1-3.3-13.3c1.5-0.9,4.4-2,9.3-2.4c6.2-0.5,13.4-2.5,13.6-6.7c0.2-5.1-11.3-10.8-28.8-19.3c-3.6-1.8-7.3-3.6-11.3-5.6
			c4.8-2.8,9.2-5.4,13.1-7.7c13.9-8.4,23.1-13.9,30.6-13.8c6,0.1,8.9,3.7,9.7,6.9c0.7,2.6,2.4,4.7,4.8,6c6.2,3.6,17.8,2.7,25.8-1.9
			s9.5-11.3,3.3-14.9c-1.8-1-5-2.3-10.4-2.8s-11.8-2.2-11.9-5.6c-0.2-4.4,11.9-11.1,27.2-19.7c4-2.2,8.2-4.6,12.5-7
			c4.9,3.2,9.4,6.4,13.7,9.5c13.2,9.4,22.8,16.1,30.9,16c7.2-0.1,10.8-4.3,11.6-7.9c0.6-2.3,2.1-4.2,4.2-5.4
			c5.4-3.1,15.7-2.3,23,1.9s8.7,10.1,3.3,13.3c-1.5,0.9-4.4,2-9.3,2.4c-6.2,0.5-13.4,2.5-13.6,6.7c-0.2,4.8,10.1,9.7,25.7,17.1
			c4.5,2.2,9.7,4.6,15,7.3L293.6,376.3z"/>
		<path id="elj6z9e5oqrnb" class="st2" d="M193.3,313.9c4.6,3.1,8.9,6.1,13.3,9.2c13.3,9.4,22.9,16.1,31.2,16.1h0.2
			c7.7-0.1,11.5-4.6,12.4-8.5c0.5-2.1,1.9-3.8,3.8-4.9c2.5-1.3,5.3-1.9,8.1-1.8c4.9,0,9.7,1.3,14,3.7c3.9,2.2,6.1,5.1,6.1,7.6
			c0,1.7-1,3.1-2.9,4.2c-1.5,0.8-4.2,1.9-9,2.3c-6.8,0.5-14.1,2.8-14.4,7.5c-0.2,5.3,9.7,10,26.2,17.9c3.7,1.8,8.6,4.1,13.6,6.6
			l-2.9,1.7H293c-19.2,11.1-30.8,17.8-39.6,17.8h-0.2c-5.5-0.1-8.2-3.4-8.9-6.3c-0.7-2.8-2.6-5.2-5.1-6.5c-3.2-1.7-6.8-2.5-10.3-2.3
			c-5.7,0-11.3,1.4-16.3,4.2c-4.8,2.8-7.5,6.4-7.5,9.9c0,2.6,1.5,4.9,4.3,6.4c1.8,1,5.2,2.4,10.8,2.9c5.3,0.4,11,2.1,11.1,4.8
			c0.2,4.9-15.4,13.8-33.4,24.2l-2.7,1.5c-4.7-2.8-9-5.5-13.4-8.2c-14.5-9-25-15.5-33.5-15.5H148c-7.7,0.1-11.5,4.6-12.4,8.5
			c-0.5,2.1-1.9,3.8-3.8,4.9c-2.5,1.3-5.3,1.9-8.1,1.8c-4.9,0-9.7-1.3-14-3.7c-3.8-2.2-6.1-5.1-6.1-7.6c0-1.7,1-3.1,2.9-4.2
			c1.5-0.9,4.2-1.9,9-2.3c6.8-0.5,14.2-2.8,14.3-7.5c0.2-5.6-10.9-11.1-29.2-20.1c-3-1.5-6.4-3.1-9.9-4.9c4.4-2.6,8.5-5,11.8-7
			c13.7-8.2,22.7-13.6,29.9-13.6h0.2c5.5,0.1,8.2,3.4,8.9,6.3c0.7,2.8,2.6,5.2,5.1,6.5c3.2,1.7,6.7,2.5,10.3,2.3
			c5.7,0,11.3-1.4,16.3-4.2c4.8-2.8,7.5-6.3,7.5-9.9c0-2.6-1.5-4.9-4.3-6.4c-1.8-1-5.2-2.4-10.8-2.9c-5.3-0.4-11.1-2.1-11.2-4.8
			c-0.1-3.9,12.9-11.2,26.8-18.9C185.3,318.4,189.3,316.2,193.3,313.9 M193.4,313c-4.3,2.5-8.4,4.8-12.5,7
			c-15.3,8.5-27.4,15.3-27.2,19.7c0.1,3.4,6.5,5.2,11.9,5.6s8.7,1.8,10.4,2.8c6.2,3.6,4.8,10.3-3.3,14.9c-4.9,2.7-10.3,4.1-15.9,4.1
			c-3.4,0.1-6.9-0.6-9.9-2.2c-2.3-1.3-4.1-3.4-4.8-6c-0.8-3.1-3.7-6.8-9.7-6.9h-0.2c-7.5,0-16.6,5.5-30.4,13.8
			c-3.9,2.3-8.3,5-13.1,7.7c3.9,2,7.7,3.8,11.3,5.6c17.5,8.6,29,14.2,28.8,19.3c-0.2,4.2-7.4,6.2-13.6,6.7c-4.9,0.4-7.8,1.5-9.3,2.4
			c-5.4,3.1-4,9.1,3.3,13.3c4.4,2.5,9.4,3.8,14.4,3.8c3,0.1,5.9-0.5,8.5-1.9c2.1-1.1,3.6-3.1,4.2-5.4c0.9-3.6,4.4-7.8,11.6-7.9h0.2
			c8.3,0,18.7,6.4,33.1,15.3c4.2,2.6,8.9,5.5,13.9,8.4l3.1-1.8c19-11,34-19.6,33.8-24.9c-0.1-3.4-6.5-5.2-11.9-5.6
			s-8.7-1.7-10.4-2.8c-6.2-3.6-4.8-10.3,3.3-14.9c4.9-2.7,10.3-4.1,15.9-4.1c3.4-0.1,6.9,0.6,9.9,2.2c2.3,1.3,4.1,3.4,4.8,6
			c0.7,3.1,3.7,6.8,9.7,6.9h0.2c9,0,20.8-6.8,40-18l4.2-2.4c-5.3-2.6-10.4-5.1-15-7.3c-15.6-7.4-25.9-12.4-25.7-17.1
			c0.2-4.2,7.4-6.2,13.6-6.7c4.9-0.4,7.8-1.5,9.3-2.4c5.4-3.1,4-9.1-3.3-13.3c-4.4-2.5-9.4-3.8-14.4-3.8c-3-0.1-5.9,0.5-8.5,1.9
			c-2.1,1.1-3.6,3.1-4.2,5.4c-0.9,3.6-4.4,7.8-11.6,7.9h-0.2c-8.1,0-17.6-6.7-30.7-16C202.7,319.3,198.2,316.2,193.4,313L193.4,313z
			"/>
		<path id="elynofas0kajm" class="st3" d="M194.8,312.2c4.4-2.5,8.3-5.1,12-7.3c3.4-2,6.6-3.9,9.5-5.6c9.6-5.6,16.9-9,23.4-8.9
			c7.2,0.1,10.8,4.3,11.6,7.9c0.6,2.3,2.1,4.2,4.2,5.4c5.4,3.1,15.7,2.3,23-1.9s8.7-10.1,3.3-13.3c-1.5-0.9-4.4-2-9.3-2.4
			c-6.2-0.5-13.4-2.5-13.6-6.7c-0.2-4.9,11.3-11.2,27.1-20c4.3-2.4,8.8-4.9,13.5-7.6l0,0l4.1,2.7c17.5,11.6,30.1,20,40,19.8
			c7.2-0.1,10.8-4.3,11.6-7.9c0.6-2.3,2.1-4.2,4.2-5.4c5.4-3.1,15.7-2.3,23,1.9s8.7,10.1,3.3,13.3c-1.5,0.9-4.4,2-9.3,2.4
			c-6.2,0.5-13.4,2.5-13.6,6.7c-0.2,5.7,15.3,14.8,40.5,27.6c-6.8,4-12.7,7.7-17.9,11.1c-11.5,7.4-19.8,12.7-26.4,12.6
			c-6-0.1-8.9-3.8-9.7-6.9c-0.7-2.6-2.4-4.7-4.8-6c-6.2-3.6-17.8-2.7-25.8,1.9s-9.5,11.3-3.3,14.9c1.8,1,5,2.3,10.4,2.8
			s11.8,2.2,11.9,5.6c0.2,3.9-8.6,8.4-20.7,14.7c-5.2,2.7-11.1,5.8-17.2,9.3l0,0l-0.4,0.3l0,0c-5.4-2.7-10.6-5.2-15.1-7.4
			c-14.6-7-25.1-12-25-16.2c0.1-3.4,6.5-5.2,11.9-5.6s8.7-1.7,10.4-2.7c6.2-3.6,4.8-10.3-3.3-14.9s-19.6-5.5-25.8-1.9
			c-2.3,1.3-4.1,3.4-4.8,6c-0.8,3.1-3.7,6.8-9.7,6.9c-7.1,0.1-16.9-6.8-29.3-15.6C204.3,318.6,199.7,315.4,194.8,312.2z"/>
		<path id="el1rigq7lcz5h" class="st2" d="M299.3,252.6l3.7,2.4c17.5,11.6,30.1,20,40.2,20h0.2c7.7-0.1,11.5-4.6,12.4-8.5
			c0.5-2.1,1.9-3.8,3.8-4.9c2.5-1.3,5.3-1.9,8.1-1.8c4.9,0,9.7,1.3,14,3.7c3.9,2.2,6.1,5.1,6.1,7.6c0,1.7-1,3.1-2.9,4.2
			c-1.5,0.8-4.2,1.9-9,2.3c-6.8,0.5-14.1,2.8-14.3,7.5c-0.3,6.1,14.3,14.8,39.7,27.7c-6.3,3.7-11.8,7.2-16.7,10.4
			c-11.3,7.3-19.5,12.5-25.8,12.5h-0.1c-5.5-0.1-8.2-3.4-8.9-6.3c-0.7-2.8-2.6-5.2-5.1-6.5c-3.2-1.7-6.8-2.5-10.4-2.3
			c-5.7,0-11.3,1.4-16.3,4.2c-4.8,2.8-7.5,6.4-7.5,9.9c0,2.6,1.5,4.9,4.3,6.4c1.8,1,5.2,2.4,10.8,2.9c5.3,0.4,11,2.1,11.1,4.8
			c0.1,3.3-9.3,8.3-20.2,14c-4.5,2.4-10.6,5.6-16.9,9.1h-0.1l-0.4,0.3l0,0c-5.4-2.7-10.8-5.3-14.8-7.2
			c-13.2-6.3-24.6-11.8-24.5-15.4c0.1-2.7,5.9-4.4,11.1-4.8c5.6-0.5,9-1.8,10.8-2.9c2.7-1.6,4.3-3.9,4.3-6.4c0-3.5-2.7-7.1-7.5-9.9
			c-5-2.8-10.6-4.2-16.3-4.2c-3.6-0.1-7.1,0.7-10.3,2.3c-2.5,1.4-4.4,3.7-5.1,6.5c-0.7,2.8-3.4,6.2-8.9,6.2h-0.1
			c-6.9,0-16.5-6.8-28.7-15.4c-3.8-2.7-8.1-5.7-12.8-8.8c2.2-1.3,4.3-2.6,6.3-3.9c1.6-1,3.1-1.9,4.5-2.8c3.4-2,6.5-3.9,9.4-5.6
			c9.4-5.4,16.4-8.8,22.7-8.8h0.2c6.7,0.1,10.1,4,10.9,7.2c0.6,2.5,2.3,4.6,4.6,5.9c2.8,1.4,5.8,2.1,8.9,2c5.2,0,10.3-1.4,14.8-3.9
			c4.4-2.5,6.9-5.8,6.9-9c0-2.3-1.3-4.3-3.7-5.6c-1.6-0.9-4.6-2.1-9.6-2.5c-6.3-0.5-12.7-2.5-12.9-5.9c-0.2-4.4,11.7-11,26.7-19.3
			C290.2,257.8,294.7,255.3,299.3,252.6 M299.4,251.7c-4.7,2.7-9.2,5.2-13.5,7.6c-15.9,8.8-27.3,15.2-27.1,20
			c0.2,4.2,7.4,6.2,13.6,6.7c4.9,0.4,7.8,1.5,9.3,2.4c5.4,3.1,4,9.1-3.3,13.3c-4.4,2.5-9.4,3.8-14.4,3.8c-3,0.1-5.9-0.5-8.5-1.9
			c-2.1-1.1-3.6-3.1-4.2-5.4c-0.9-3.6-4.4-7.8-11.6-7.9h-0.3c-6.4,0-13.6,3.4-23.1,8.9c-2.9,1.7-6,3.6-9.5,5.6
			c-3.6,2.2-7.6,4.8-12,7.3c4.9,3.3,9.5,6.5,13.8,9.5c12.3,8.7,22.1,15.6,29.2,15.6h0.1c6-0.1,8.9-3.8,9.7-6.9
			c0.7-2.6,2.4-4.7,4.8-6c3.1-1.6,6.5-2.3,9.9-2.2c5.5,0,11,1.4,15.9,4.1c8,4.6,9.5,11.3,3.3,14.9c-1.8,1-5,2.3-10.4,2.7
			s-11.8,2.2-11.9,5.6c-0.2,4.2,10.4,9.2,25,16.2c4.6,2.2,9.8,4.7,15.1,7.4l0,0l0.4-0.3l0,0c6.2-3.5,12-6.6,17.2-9.3
			c12.1-6.3,20.8-10.9,20.7-14.7c-0.1-3.4-6.5-5.2-11.9-5.6s-8.7-1.7-10.4-2.8c-6.2-3.6-4.8-10.3,3.3-14.9
			c4.9-2.7,10.3-4.1,15.9-4.1c3.4-0.1,6.9,0.6,9.9,2.2c2.3,1.3,4.1,3.4,4.8,6c0.8,3.1,3.7,6.8,9.7,6.9h0.2c6.6,0,14.9-5.3,26.3-12.6
			c5.2-3.4,11.1-7.1,17.9-11.1c-25.2-12.8-40.8-21.8-40.5-27.6c0.2-4.2,7.4-6.2,13.6-6.7c4.9-0.4,7.8-1.5,9.3-2.4
			c5.4-3.1,4-9.1-3.3-13.3c-4.4-2.5-9.4-3.8-14.4-3.8c-3-0.1-5.9,0.5-8.5,1.9c-2.1,1.1-3.6,3.1-4.2,5.4c-0.9,3.6-4.4,7.8-11.6,7.9
			h-0.2c-9.9,0-22.4-8.3-39.8-19.8L299.4,251.7L299.4,251.7z"/>
	</g>
</g>
<g id="freepik--briefcase-2--inject-136">
	<g id="freepik--Briefcase--inject-136">
		<path id="el6e4gchf7g3g" class="st21" d="M393.8,324.3V370c0,2.2,1.6,3.5,3.5,4.6l4.8,2.8c1.1,0.8,2.5,1.1,3.8,0.7
			c0.9-0.2,1.8-0.6,2.6-1c0,0,0.1,0,0.1,0l0.3-0.1l49.1-28.4c3.6-2.1,5.8-5.9,5.8-10v-41.7c-0.1-1.1-0.6-2-1.5-2.6l-8.2-4.7
			c-0.9-0.5-2.1-0.5-3,0l-55.7,32.2c-0.4,0.3-0.8,0.7-1,1.1C394,323.2,393.8,323.7,393.8,324.3z"/>
		<path id="elyqhhmzmwrhl" class="st24" d="M393.8,324.3V370c0,2.2,1.6,3.5,3.5,4.6l4.8,2.8c1.1,0.8,2.5,1.1,3.8,0.7
			c0.9-0.2,1.8-0.6,2.6-1l0,0c-1.9,0.9-3.4-0.1-3.4-2.4v-43.1c0-0.8,0.3-1.6,0.7-2.2l-11.4-6.6C394,323.2,393.8,323.7,393.8,324.3z"
			/>
		<path id="elfu8inx895vo" class="st22" d="M405,331.6c0.1-1.6,0.9-3,2.3-3.9l52.7-30.4c2.1-1.2,3.8-0.2,3.8,2.2v39
			c0,4.1-2.2,8-5.8,10l-49.1,28.4c-2.1,1.2-3.8,0.2-3.8-2.2L405,331.6z"/>
		<path id="el4e7ula9gqbf" class="st6" d="M456.6,291l-55.8,32.5c-1.6,0.9-2.6,2.7-2.6,4.5v47l0.9,0.5v-47.4c0-1.6,0.8-3,2.2-3.8
			l56.2-32.8L456.6,291z"/>
		<g id="elv50od4e9fee">
			<path class="st7" d="M398.9,325.5c-0.5,0.8-0.7,1.7-0.7,2.6v47l0.9,0.5v-47.5c0-0.8,0.2-1.5,0.6-2.2L398.9,325.5z"/>
		</g>
		<g id="elkuj4jgdkkcl">
			<path class="st7" d="M399.6,325.9c0.4-0.7,0.9-1.2,1.6-1.6l56.2-32.8l-0.9-0.5l-55.8,32.5c-0.8,0.5-1.4,1.1-1.9,1.9"/>
		</g>
		<path id="eln524w472ju" class="st6" d="M436.8,296.9v7.1l2.8,1.6v-9.4c0-0.5-0.3-0.7-0.8-0.4L436.8,296.9z"/>
		<g id="elucz7f12u3kn">
			<path class="st25" d="M436.8,296.9v7.1l2.8,1.6v-9.4c0-0.5-0.3-0.7-0.8-0.4L436.8,296.9z"/>
		</g>
		<path id="elnuolbz0jqfe" class="st6" d="M417.4,303.9v11.5l2.6,1.5l1.8-1v-9.4c0-0.5,0.3-1,0.8-1.3l13.5-7.8l2.8-1.6
			c0.4-0.2,0.8,0,0.8,0.4v9.4l1.8-1v-11.5c0,0,0-0.1,0-0.1c-0.1-0.5-0.3-0.9-0.8-1.2l-1.1-0.7c-0.5-0.2-1-0.2-1.5,0l-19.8,11.5
			C417.7,302.8,417.4,303.3,417.4,303.9z"/>
		<g id="elrrfwux6h2zc">
			<path class="st7" d="M420,305.4v11.5l1.8-1v-9.4c0-0.5,0.3-1,0.8-1.3l13.5-7.8l2.8-1.6c0.4-0.2,0.8,0,0.8,0.4v9.4l1.8-1v-11.5
				c0,0,0-0.1,0-0.1c-0.1-0.4-0.4-0.5-0.8-0.3l-19.8,11.5C420.3,304.4,420,304.9,420,305.4z"/>
		</g>
	</g>
</g>
<g id="freepik--briefcase-1--inject-136">
	<g id="freepik--briefcase--inject-136">
		<path id="elyjz22ktz3yd" class="st21" d="M59.6,318.1H57v-12.2c0.1-3.2,1.8-6.1,4.5-7.8l14.3-8.2c1.6-1.2,3.8-0.9,5,0.6
			c0.6,0.8,0.9,1.8,0.7,2.8l-0.3,12.4l-2.7,0l0.3-12.4c0.1-0.5-0.1-1-0.4-1.3c-0.3-0.2-0.8,0-1.3,0.3l-14.3,8.2
			c-1.9,1.2-3,3.3-3.2,5.5L59.6,318.1z"/>
		<path id="elnmkv8hnga6" class="st21" d="M104.3,348l-2.8-52.5c-0.2-1.4-0.9-2.6-2.1-3.4l-1.6-1c-0.4-0.3-1-0.3-1.4-0.1l0,0
			l-54.9,31.7l7.6,58.2l54.8-31.7l0,0C104.2,348.9,104.4,348.5,104.3,348z"/>
		<path id="elxlbk8m1cfzl" class="st24" d="M39.4,376l8.3,4.8c1.1,0.6,1.9,0.1,1.8-1.1l-2.8-52.5c-0.2-1.4-0.9-2.6-2.1-3.4l-1.6-1
			c-0.5-0.4-1.3-0.4-1.8,0.2c-0.2,0.3-0.3,0.6-0.3,1l-3.3,48.7C37.6,374,38.2,375.3,39.4,376z"/>
		<path id="el441h9mv61i3" class="st6" d="M68.3,365c-0.4,0-0.7-0.3-0.8-0.7l-1.4-24.6c0-0.4,0.3-0.8,0.7-0.8c0.4,0,0.8,0.3,0.8,0.7
			l1.4,24.6C69,364.6,68.7,364.9,68.3,365L68.3,365z"/>
		<path id="eluhy1j5ku3s" class="st6" d="M89.3,352.9c-0.4,0-0.7-0.3-0.8-0.7l-1.4-24.6c0-0.4,0.3-0.8,0.7-0.8c0,0,0,0,0,0
			c0.4,0,0.8,0.3,0.8,0.7l1.4,24.6C90,352.5,89.7,352.9,89.3,352.9C89.3,352.9,89.3,352.9,89.3,352.9L89.3,352.9z"/>
		<path id="els9vb24fiaic" class="st22" d="M53.7,351.4c-1.9,1.1-4.4,0.5-5.5-1.5c-0.3-0.5-0.5-1.1-0.5-1.8l-1.1-21
			c-0.2-1.4-0.9-2.6-2.1-3.4l-1.6-0.9c-0.4-0.3-0.9-0.3-1.3-0.2l54.7-31.6l0,0c0.5-0.3,1-0.2,1.4,0.1l1.7,1c1.2,0.8,1.9,2,2.1,3.4
			l1.1,20.7c0.2,4.1-1.9,8-5.5,10.1L53.7,351.4z"/>
		<polygon id="elpgtu308lck" class="st6" points="72.9,337.9 80.9,333.3 81.2,337.7 73.3,342.3 		"/>
	</g>
</g>
<g id="freepik--Characters--inject-136">
	<g id="freepik--characters--inject-136">
		<g id="freepik--Chartacter--inject-136">
			<g id="freepik--Bottom--inject-136">
				<path id="elh106nflkueq" class="st26" d="M315.1,285.2l1.6-15.1l-17.2,1.1c0,0,0.3,8.2,0.5,12.8c0.1,2.7-3.5,7.8-3.5,7.8
					s8.1,4.3,12.4,2.8s6.6-6.9,6.6-8.1S315.1,285.2,315.1,285.2z"/>
				<path id="elezmsq6qo8xi" class="st24" d="M273.5,308.7c-0.3,0-0.7,2.8,0.7,4c1.7,1.4,6.6,3.8,13.3,3.1s10.2-2.5,12.9-4.6
					s6.4-4.9,9.4-5.5c2.8-0.5,5.8-1.6,6.7-2.4s0.8-4.4,0.8-4.4L273.5,308.7z"/>
				<path id="eladtr3pxxvcn" class="st22" d="M315.1,285.2c0.5,0,0.9,0.4,1,0.9c0.2,1,0.4,3.9,0.8,5.5c0.6,2.9,0.8,5.8,0.5,8.7
					c-0.4,1.8-5,3-7.9,4c-3.4,1.3-6.6,3.1-9.5,5.4c-3.1,2.3-9.7,4.7-14,4.6c-5.1-0.1-10.8-1.8-12.1-4c-1.6-2.8-2.7-6,4.9-9.1
					c1.5-0.6,6.5-3.3,8.3-4.3c4.7-2.7,8-5.1,10.2-9.9c0.2-0.6,0.6-1.1,1.1-1.5c0.5-0.2,1-0.2,1.5-0.1c1.3,0.2,6.3,0.9,7.4,1.5
					s2.4,1,2.4,2.2c0,0.4-0.1,0.8-0.3,1.2c-0.1,0.3-0.2,0.6,0.1,0.7s0.5,0,0.7-0.2c0.8-0.7,1.5-1.4,2.1-2.3c0.4-0.4,0.8-0.8,1.2-1.1
					c0.5-0.2,0.9-0.5,1.3-0.8C315.1,286.3,315,285.7,315.1,285.2z"/>
				<path id="elgo9vaz3gc6i" class="st21" d="M300,309.6c1.3-1,2.7-1.9,4.2-2.8l0,0c0,0-9,4.9-12.5,2.5c-2.3-1.5-1.2-3.3-1.1-3.9
					s-8-4.8-10.3-5.1l0,0c-0.6,0.3-1.2,0.6-1.5,0.7c-7.6,3.1-6.5,6.4-4.9,9.1c1.3,2.2,5.4,4,12,4.1
					C290.2,314.4,296.9,311.9,300,309.6z"/>
				<path id="el58dozc6oemo" class="st21" d="M291.2,303.8c-4.7,1.7-2.7,2.5-1.4,2.7s9.3-4,14.2-7.5c5.1-3.6,8.3-7.7,10.2-9
					c0.7-0.5,1.5-1.1,2.1-1.7c-0.1-1-0.2-1.9-0.3-2.3c-0.1-0.5-0.5-0.8-1-0.9c0,0.6,0.1,1.1-0.4,1.5c-0.4,0.3-0.8,0.5-1.3,0.8
					c-0.5,0.3-0.9,0.7-1.2,1.1c-0.6,0.8-1.3,1.6-2.1,2.3C305.9,295.6,295.9,302.1,291.2,303.8z"/>
				<path id="elrc3h71sv86p" class="st24" d="M290.1,305.9c0.1,0,0.2,0,0.3-0.1c0.2-0.1,0.2-0.4,0.1-0.6c0,0,0,0,0,0
					c-1.3-1.5-7.5-5.3-11-5c-0.2,0-0.4,0.2-0.4,0.5c0,0.2,0.2,0.4,0.5,0.4l0,0c3.2-0.3,9.2,3.4,10.2,4.6
					C289.8,305.8,290,305.9,290.1,305.9z"/>
				<path id="els6uegp4wa" class="st24" d="M294.3,303.6c0.1,0,0.2,0,0.3-0.1c0.2-0.1,0.2-0.4,0.1-0.6c0,0,0,0,0,0
					c-1.3-1.5-7.5-5.3-11-5c-0.2,0-0.4,0.2-0.4,0.4c0,0,0,0,0,0c0,0.2,0.3,0.4,0.5,0.4c3.2-0.3,9.2,3.4,10.2,4.6
					C294,303.5,294.1,303.6,294.3,303.6z"/>
				<path id="el8r3yugtnmqy" class="st24" d="M298.4,301.4c0.1,0,0.2,0,0.3-0.1c0.2-0.1,0.2-0.4,0.1-0.6c0,0,0,0,0,0
					c-1.3-1.5-7.5-5.3-11-5c-0.2,0-0.4,0.2-0.4,0.4c0,0,0,0,0,0c0,0.2,0.2,0.4,0.5,0.4c0,0,0,0,0,0c3.2-0.3,9.2,3.4,10.2,4.6
					C298.1,301.3,298.2,301.4,298.4,301.4z"/>
				<path id="eluri8pimx8ib" class="st24" d="M302.2,298.9c0.1,0,0.2,0,0.3-0.1c0.2-0.1,0.2-0.4,0.1-0.6c0,0,0,0,0,0
					c-1.3-1.5-7.5-5.3-11-5c-0.2,0-0.4,0.2-0.4,0.5c0,0.2,0.2,0.4,0.5,0.4c3.2-0.3,9.1,3.4,10.2,4.6
					C302,298.8,302.1,298.9,302.2,298.9z"/>
				<path id="elksadoqxdah8" class="st24" d="M306,296.4c0.1,0,0.2,0,0.3-0.1c0.2-0.1,0.2-0.4,0.1-0.6c0,0,0,0,0,0
					c-1.8-2.2-8.3-5.3-11.8-5c-0.2,0-0.4,0.2-0.4,0.5c0,0,0,0,0,0c0,0.3,0.3,0.4,0.5,0.4c3.1-0.3,9.4,2.7,11,4.7
					C305.8,296.4,305.9,296.4,306,296.4z"/>
				<path id="elj3o4cjjf4y8" class="st26" d="M340.4,295l-2.2-14.6l17.8-0.6l-0.8,13.8c0,0,1.3,5.1,0,6.8s-13.1,2.4-14,1
					S340.4,295,340.4,295z"/>
				<path id="elm0aef1lpori" class="st24" d="M338.6,326.1c0,4.5,0.7,7.4,2.3,10s5,3.4,8.5,2.5s8-3,9.2-6.8s1.1-6.5,0.6-10.6
					L338.6,326.1z"/>
				<path id="elcvovn2qz75s" class="st22" d="M355.1,293.6c1.4,0.1,0.4,6.1,0.9,12.1c0.5,6.4,2.6,9,3.1,14.3c0.6,6,0,8.7-2.5,12.4
					s-11.3,7.4-15.2,2.3c-3.2-4.2-3.1-8.9-2.4-14.9c0.7-5.1,1.1-10.2,1.1-15.3c0-4.5-0.9-8.6,0.4-9.1c0.1,0.7,0.1,1.5,0.2,2.1
					c0,0.5,0.1,2.9,0.9,2.9c0.1-0.6,0.1-1.1,0.1-1.7c-0.1-0.5,0.1-1.1,0.5-1.5c0.7-0.5,1.5-0.8,2.4-0.9c1.4-0.3,3.9-0.5,5.3-0.7
					c0.7-0.1,1.4-0.1,2.1-0.1c0.6,0,1.2,0,1.8,0.2c0.3,0.1,0.6,0.3,0.7,0.6c0,0.2,0,0.5,0,0.7c0,0.4,0,0.8,0.1,1.2
					c0,0.2,0.2,0.4,0.4,0.3s0.2-0.2,0.3-0.4c0-0.7,0-1.3,0-2.1c0-0.4,0-0.9,0-1.3S355.1,294,355.1,293.6z"/>
				<path id="elq6tuuwa7d3n" class="st21" d="M358.9,318.2c0.1,0.9,0.6,6.6-1.2,7.7s-2.8-3.4-2.8-3.4s-4.5-1.1-11.2,1.5
					c0.3,0.9-0.9,4-2.7,3.4s-2.1-7.2-2.1-7.3c-0.6,5.8-0.6,10.3,2.5,14.4c3.9,5.1,12.6,1.4,15.2-2.3s3.1-6.4,2.5-12.4
					C359,319.3,359,318.8,358.9,318.2z"/>
				<path id="elernng0kqlrn" class="st21" d="M354.3,322.9c-0.1,2.2,2.4,1.4,2.7-1.7s-1.2-10.4-0.9-15.6c0.4-7.3,0.5-12-0.9-12.1
					c0,0.1,0,0.1,0,0.2v3c0,0.4,0,0.9,0,1.3c-0.2,4.5-1,13-0.8,17.1C354.5,317.8,354.5,320.4,354.3,322.9z"/>
				<path id="eljfldhhbqbwp" class="st21" d="M344.4,324c-0.5-2.5-0.8-5.1-0.9-7.6c-0.3-4-1.8-12.2-2.5-16.5
					c-0.2-0.8-0.4-1.6-0.4-2.5c-0.1-0.6-0.1-1.4-0.2-2c0,0,0-0.1,0-0.1c-0.9,0.4-1,3.9-0.7,5.7s0.6,3.8,0.9,6.4
					c0.9,5.2,0.3,12.7,0.9,15.7S344.8,326.1,344.4,324z"/>
				<path id="elzrs2t2f5r2k" class="st24" d="M343.5,324.2c0.1,0,0.1,0,0.2-0.1c3.5-1.5,7.3-1.9,11-1.2c0.3,0.1,0.6-0.1,0.7-0.3
					c0.1-0.2,0-0.5-0.3-0.5c0,0-0.1,0-0.1,0c-4-0.7-8-0.3-11.7,1.3c-0.2,0.1-0.4,0.4-0.3,0.6c0,0,0,0,0,0
					C343.1,324.2,343.3,324.3,343.5,324.2z"/>
				<path id="elwycbfls1r9" class="st24" d="M342.6,319.5h0.2c3.9-1.5,8.1-2,12.2-1.4c0.3,0.1,0.5-0.1,0.6-0.4
					c0.1-0.2-0.1-0.5-0.3-0.5c0,0-0.1,0-0.1,0c-4.4-0.7-8.9-0.2-13,1.4c-0.2,0.1-0.4,0.3-0.3,0.6c0,0,0,0,0,0
					C342.1,319.5,342.4,319.6,342.6,319.5z"/>
				<path id="elzepg9gpviwe" class="st24" d="M355,313.7c0.2,0,0.4-0.1,0.5-0.3c0.1-0.2,0-0.5-0.2-0.6c0,0-0.1,0-0.1,0
					c-6.3-1.8-12.7,1.2-13,1.3c-0.2,0.1-0.4,0.3-0.3,0.6c0,0,0,0,0,0c0.2,0.2,0.5,0.3,0.7,0.2c0.1,0,6.3-2.9,12.1-1.2
					C354.8,313.7,354.9,313.7,355,313.7z"/>
				<path id="elte9puqe3r4i" class="st24" d="M354.8,309.4c0.2,0,0.4-0.1,0.5-0.3c0.1-0.2,0-0.5-0.2-0.6c0,0-0.1,0-0.1,0
					c-4.4-1.2-9.1-0.7-13.2,1.3c-0.2,0.1-0.3,0.4-0.2,0.6c0,0,0,0,0,0c0.2,0.2,0.5,0.3,0.7,0.1c3.8-1.9,8.2-2.3,12.3-1.2
					C354.7,309.4,354.7,309.4,354.8,309.4z"/>
				<path id="elidky6nct1p" class="st24" d="M354.6,304.7c0.2,0,0.4-0.1,0.5-0.3c0.1-0.2,0-0.5-0.2-0.6c0,0-0.1,0-0.1,0
					c-6.4-2-13,1.3-13.3,1.4c-0.2,0.1-0.3,0.4-0.2,0.6c0,0,0,0,0,0c0.2,0.2,0.5,0.3,0.7,0.1c0.1,0,6.5-3.2,12.4-1.3
					C354.5,304.7,354.6,304.7,354.6,304.7z"/>
				<path id="elp10z8f3smlt" class="st21" d="M352.8,146.6c3.3,35,2.9,82.6,2.9,82.6c1.2,7.3,1.8,14.7,1.8,22.1
					c-0.1,13.9-1.5,33.9-1.5,33.9s-8.3,5.9-17.7,1c0,0-4.5-25.3-7.3-45.5c-2.2-16.2-6.3-40.2-6.3-40.2l-4.1,23.3c0,0,0.7,10,0.5,17
					c-0.2,8.1-4.8,39.3-4.8,39.3s-9.1,6.1-17.1,0c0,0-2.4-45.6-2.8-55.4c-0.8-19.2-0.6-56.4-0.4-81.2L352.8,146.6z"/>
				<path id="elefpochenyw" class="st24" d="M324.6,200.4l-4.3-28.3c0,0-9.3-1.2-14.1-5.5c0,0,3.2,5.7,12,7.9l4.3,26l-1.9,23.2
					L324.6,200.4z"/>
				<path id="el3p3jwx1dgd" class="st24" d="M355.9,288.3c-2.1,2.4-10.8,4.3-17.3,1.3l-0.8-5.5c5,2.1,14.1,1.3,18.6-1.7L355.9,288.3
					z"/>
				<path id="el7drmjb9i6xc" class="st24" d="M316.3,280.9c-2.3,2.3-10.9,3.5-17.3,0.1l-0.4-5.5c4.9,2.5,13.7,2.5,18.4-0.2
					L316.3,280.9z"/>
			</g>
			<g id="freepik--Top--inject-136">
				<path id="el8x3g629jbmf" class="st26" d="M280.7,123c0,0-22.3,20-26,22.6s-10.6,6.8-10.6,6.8l2.3,1.3c0,0,7.4,8.5,12.3,5.5
					c1.2-0.7,2.3-1.4,3.4-2.2c1.5-1.1,2.5-2.3,3.6-3.3c1.9-1.5,3.8-2.9,5.9-4.1c11-6.7,17.8-11.8,22-14.4s4.8-5.1,7.8-10.4
					c5.2-9,11-22.2,11-22.2l-6.1-26.9c-8.9,2.3-10.8,6.7-15.4,19.5C284,114.8,280.7,123,280.7,123z"/>
				<path id="eljno1iof4oq" class="st21" d="M306.2,75.3c-6,1.6-10,4.6-12.9,12.3s-12.9,35.2-12.9,35.2l-17.2,15.5
					c2,1.1,3.8,2.5,5.2,4.3c1.5,2.1,2.6,4.5,3.2,7c0,0,8.1-4.5,16.3-9.9s8.6-5.5,11.8-10.6s13.5-26.8,13.5-26.8L306.2,75.3z"/>
				<path id="freepik--Chest--inject-136" class="st22" d="M336.4,72.5c3.6,0.8,8,1.7,8,1.7c9.1,4.1,10.6,4.7,12.5,5.5
					c0.6,10.7,0,21.4-1.8,31.9c-0.9,7.3-1.3,14.6-1.4,22c-0.1,10.5,0,17.8,0,17.8s-8.9,9.3-34.5,7.4c-20.1-1.5-23.4-9-23.4-9
					s-0.3-26.7,0.2-41.5c0.7-19.4,5.8-29.6,10.1-33l12.9-2.6L336.4,72.5z"/>
				<g id="freepik--Head--inject-136">
					<path id="el2z6t7h6g4x6" class="st24" d="M346.2,36.5c-0.8-1.7-2.2-3-3.9-3.8c-0.7-4.3-6.2-9.4-16.6-9.9
						c-8.6-0.5-13.6,2.5-16.6,7.5s-1,11.5-1,11.5l30,10.3l-0.3,5.3l-0.2,7.6c1.2-0.4,2.2-1.2,2.8-2.3c1.9-3.3,3.3-6.9,4.2-10.6
						C347.3,42.2,347.2,38.4,346.2,36.5z"/>
					<path id="elwwngxi7lgu" class="st26" d="M344.7,59.6c-3.9,1.9-5.7-1.2-5.7-1.2l-0.6,15.7c-4.2,5.6-11.6,3.7-17.5,10.7l-1.8-0.1
						c-1.6-3.7-1.6-7.9-0.2-11.7v-3.6c-1.1,0-2.3-0.1-3.4-0.3c-3.5-0.6-5.7-3.3-6.7-7.1c-1.5-5.6-2.1-14.5,0-24.1
						c0.4-1.8,1.2-3.8,2.9-4.7c4.2-2.1,17-2.7,20.3,2.4c-0.5,3.1,0.4,6.5,3.3,7.5c0.1,4.9,0.8,7.3,2.7,8c1.6,0.7,2.3-1.8,3.4-2.9
						c1.9-1.6,4.6-1.3,6.2,0.5c0.3,0.3,0.5,0.7,0.7,1c1.8,3.5,0.4,7.8-3.2,9.6C344.9,59.5,344.8,59.6,344.7,59.6z"/>
					<path id="el177bcevqry4" class="st27" d="M318.9,69.4c4.6,0,8.6-0.6,11.4-1.7s5.1-4.8,5.9-8.4c0,2.9-1.3,8.1-5.4,10.2
						s-8.9,2.3-11.9,2.3L318.9,69.4z"/>
					<path id="elskjmaajygzj" class="st24" d="M324.5,43.2l4.2,0.5c0.1-1.2-0.7-2.2-1.9-2.4c-1.1-0.1-2.1,0.6-2.2,1.7
						C324.5,43,324.5,43.1,324.5,43.2z"/>
					<path id="el7bfqo0odqu9" class="st24" d="M311,42.1l4-1.6c-0.3-1.1-1.5-1.6-2.5-1.3c-0.1,0-0.1,0-0.2,0.1
						C311.2,39.8,310.7,41,311,42.1z"/>
					<path id="ela1pgv17zvyd" class="st24" d="M327.9,47.1c0,0.9-0.8,1.7-1.7,1.7c0,0,0,0,0,0c-0.9,0-1.7-0.8-1.6-1.8
						s0.8-1.7,1.8-1.6C327.2,45.4,327.9,46.2,327.9,47.1z"/>
					<path id="elfu5p0p80rsg" class="st24" d="M314.4,46.4c0,0.9-0.8,1.7-1.8,1.6s-1.7-0.8-1.6-1.8c0-0.9,0.8-1.7,1.8-1.6
						c0.9-0.1,1.6,0.6,1.7,1.5C314.4,46.2,314.4,46.3,314.4,46.4z"/>
					<path id="elpe1szufdna9" class="st27" d="M321,43.6l-1.4,10.9l-5.8-2.1C315.5,49,318,46,321,43.6z"/>
					<path id="el6vbppp2qb2" class="st27" d="M323.9,57l-4.5,1.5c0.4,1.2,1.6,1.9,2.9,1.5c0,0,0,0,0.1,0
						C323.6,59.6,324.3,58.2,323.9,57z"/>
					<path id="elt6rezji7fo" class="st28" d="M323.5,57.8c0.2,0,0.4,0,0.6,0c0,1-0.7,1.9-1.6,2.2c-0.2,0.1-0.5,0.1-0.8,0.1
						C321.5,59,322.3,57.9,323.5,57.8z"/>
				</g>
				<g id="freepik--Tie--inject-136">
					<path id="eltwec1an8w4c" class="st24" d="M316.9,87c0,0-2.8-5-2.9-7.1l3.2-3.5l1.1,8.3L316.9,87z"/>
					<polygon id="ela5vk9zp7zmn" class="st24" points="321.1,84.8 326.7,80.8 331.4,83.9 322.9,88.5 					"/>
					<path id="elb80vc6q4zy7" class="st21" d="M321.8,138.6c1.2-11.6-1.1-43.2-0.9-47.3l-2.9-0.2c-1.9,5-6.8,37.5-6.9,45.5
						c0,3.8,3.7,10.6,5,10.8S321.5,141.1,321.8,138.6z"/>
					<path id="elp5iuyz9siri" class="st24" d="M317.8,91.8c0.1-0.2,0.2-0.5,0.2-0.7l0,0l2.9,0.2l0,0c0,0.3,0,0.8,0,1.3
						C319.8,92.7,318.7,92.4,317.8,91.8z"/>
					<path id="elllu19eh9b47" class="st21" d="M321.1,84.8c-0.9-0.1-1.8-0.1-2.7-0.1c-0.7,0.6-1.2,1.4-1.5,2.3
						c0.1,1.4,0.4,2.8,1.1,4.1c0.9,0.5,1.9,0.6,2.9,0.2c0.9-0.7,1.6-1.7,2-2.8C322.8,87.1,322.2,85.7,321.1,84.8z"/>
					<path id="elkf5oy3ejyj" class="st21" d="M320.6,84.7l0.5,0.1c1-1.1,2.2-2,3.4-2.8c0.8-0.4,3.8,5.3,4.4,6.8s0.5,1.4,2.5,0.2
						c3.5-2.2,6.7-5,9.4-8.2c3.3-4,3.6-6.5,3.6-6.5c-1.1-1.4-2.1-2.9-3.1-4.4c-1.2-2.4-1.4-3.3-2.7-3.1l-0.1,2.2
						c-0.3,2-2.4,2.6-5.3,4.9s-7.5,4.4-8.7,5.3C323.1,80.9,321.8,82.7,320.6,84.7z"/>
					<path id="elgtdke8wz33" class="st21" d="M311.3,84.5c0.3,0.8,3.2-5.4,4.4-5.2c0.6,0.1,2.1,3.6,3.1,5.5h0.2
						c-0.5-1.9-0.7-3.9-0.7-5.9c0-1.9,0.2-3.9,0.5-5.8v-3.6c-0.4,0-0.8,0-1.2-0.1c-0.3,0.3-5.4,5.6-5.9,8
						C311.2,79.7,311.1,82.1,311.3,84.5z"/>
				</g>
				<path id="el1bbqrx94fyg" class="st26" d="M376.7,123.1c1,7.7,1.2,9,0.7,14.1c-0.4,3.8-0.8,4.5-2.2,11.4s-5.1,19.6-5,21.5
					c0.1,1.8,0.1,3.5,0,5.3c-0.2,2.1-0.7,4.2-1.5,6.1c-0.5,1.4-0.9,2.8-1.5,4.1c-0.6,0.9-1.2,1.7-1.9,2.5c-0.7,0.9-0.9,2.1-1.8,2.9
					c-1.5,1.4-3.1,1.6-4.5,2.3c-0.6,0.9-1.7,2.8-2.4,3.7c-1.8,2.2-2.2-1.4-2.1-2.6c0.1-1.3,0.3-2.6,0.7-3.8c0.9-3.1,1.6-6.3,2.2-9.5
					c0.1-0.6,0.8-2.9-0.1-2.9c-0.3,0-0.6,0.2-0.8,0.5c-0.6,0.8-1.1,1.6-1.6,2.4c-0.5,0.6-1,1.2-1.5,1.7c-0.4,0.5-0.9,0.9-1.5,1.2
					c-0.6,0.3-2.8,0.4-2.9-0.6c0-0.2,0-0.3,0.1-0.5c0.5-1.1,1-2.1,1.5-3.2c0.5-1.1,0.9-2.2,1.3-3.3c1-3.5,1.9-6.4,4-9.3
					c3.8-5.2,4.5-35.8,4.5-35.8l-5-21.1c-2.1-5.7-3.1-11.7-2.9-17.8c0.3-10,4.1-12.7,4.1-12.7c7.8,3.1,12,5.6,14,12.7
					S376,118,376.7,123.1z"/>
				<path id="elctspa6kujab" class="st21" d="M377.6,128.6c-0.2-1.8-1.4-11.3-4.2-25.2c-2.7-13.2-3.4-14.5-6.1-17.6
					c-2.1-2.4-7.5-4.9-11.1-6.4c0,0-4.7,2.8-4.9,11.5c-0.1,8.3,3.4,19.8,3.4,19.8l4.8,21.4l-0.8,21.5c3.7-1.3,12,1.4,13.9,5.1
					c0,0,2.8-9.6,4.3-16.3C378,137.9,378.2,133.2,377.6,128.6z"/>
				<path id="elcfzeu6i6nzq" class="st22" d="M359,151.5l-0.5,5.9c0,0,2.5-0.4,8,1.2c4.3,1.2,5.7,3,5.7,3l1.6-5.9
					C373.7,155.7,369.2,150.9,359,151.5z"/>
			</g>
		</g>
		<g id="freepik--Character--inject-136">
			<path id="freepik--Arm--inject-136" class="st29" d="M144.7,128.5c-6.1,1.5-12.6,4-17.2,19.6c-3.3,11.5-5.3,17-6.7,24.3
				c-0.7,3.4-1,5.6-0.4,11.6c1,9.7,2.4,23.6,2.4,28.6c-0.1,5.4,0.6,10.7,2.2,15.8c1.6,5.8,8.5,8.4,9.7,9.1c0.3,1,0.4,2.4,1,2.7
				c0.9,0.4,2.5-1.4,2.4-2.9c-0.3-4.4-4.1-12.2-3.3-14.4s1.8,3.5,3.4,5c2.1,2,3.6,1,3.3-0.1c-0.4-1.7-1.5-4.8-2.3-8.3
				c-0.9-4.3-2.6-5.5-3.3-9s0.2-30.6,0.2-30.6l8.6-26.5L144.7,128.5z"/>
			<g id="freepik--bottom--inject-136_1_">
				<g id="freepik--bottom--inject-136">
					<path id="eldebrwie9ajm" class="st29" d="M170.2,230.7c-1.8,19.5-2.7,24.8-4.9,39.6c-1,6.6-2.8,17.2-4.8,29.2
						c-1.7,10-9,43.7-9,43.7c-0.7,4.1-1.6,12.4-1,17.5s1.9,9.5,6.3,10.5c-2.6,1.1-11.6,5.9-14-0.7c-0.4-1.3-0.8-2.6-1.1-4
						c-0.4-1.4-0.7-2.9-1.1-4.3c-0.5-2.3-1.2-4.4-2.3-6.5c-0.6-1-1.3-2-2.1-2.9c-0.4-0.4-0.7-0.8-1-1.2c-0.2-0.4-0.5-0.7-0.7-1.1
						c-0.4-1-0.6-2.1-0.5-3.2c0.2-1.8,2.4-2.8,3-7.3c0.2-1.5-1-15.1-1.7-31.8c-0.3-6.4-0.2-12.8,0.4-19.2c0.9-5,2.2-10,3.8-14.8
						l-1.7-23.9l-0.3-17.6c-2.6-8.1-3.3-16.8-2-25.2c1.4-7.9,3.8-15.6,7-23h45.5L170.2,230.7z"/>
					<path id="elyloftz3h3rl" d="M149.1,380.2c0,0-1.6,2-7.9-1.8s-7.7-7.4-7.7-7.4s3.6-13.2,7.3-9.3S149.1,380.2,149.1,380.2z"/>
					<path id="elczhw583fltr" class="st22" d="M135.7,344.3c1.5-0.5,4.9,1.5,6.8,3.6c2.5,2.8,2.7,6.2,3.6,10.3c1,4.3,3,10.4,5,12
						c1.2,0.9,2.4,0.7,3.8,0.2c-0.4-0.2-0.8-0.5-1.2-0.9c1.4,0,3.4-0.3,4.6-0.3c4.7-0.1,7.5,2.3,7.4,4.8c-0.2,2-8.9,7.8-14.5,7.3
						c-4.7-0.5-6.4,0.1-8-7.1s-2.1-11.1-4.8-6.8s-5,14.6-5,14.6c-1.3,0.6-2.8,0.4-3.8-0.5c0,0,0.7-6.7,0.7-10.9s-1.3-11.2-0.3-16.2
						S134.2,344.8,135.7,344.3z"/>
					<path id="elne6tgm74p6" class="st29" d="M142.5,184.6h46.4c0,0,8.6,24.7,8.6,60.6c0,19.5-0.4,24.9-1.2,39.9
						c-0.4,6.7-1.2,17.4-2.1,29.5c-0.8,10.1-4.9,44.3-4.9,44.3c-0.3,4.2-0.4,12.4,0.6,17.5s2.7,9.3,7.2,9.9c-2.4,1.3-11,7-14,0.6
						c-0.6-1.3-1-2.5-1.5-3.9l-1.5-4.2c-0.7-2.2-1.6-4.3-2.9-6.2c-0.7-1-1.5-1.8-2.4-2.6c-0.4-0.3-0.8-0.7-1.1-1.1
						c-0.2-0.4-0.5-0.7-0.8-1c-0.5-1-0.8-2.1-0.8-3.2c0-1.8,2.2-3,2.4-7.5c0.1-1.5-2.4-14.9-4.7-31.5c-0.8-5.8-1.6-15.2-1.4-19.2
						c0.4-5.1,1.2-10.1,2.4-15.1l-3.9-23.6"/>
					<path id="eldffd61qq5rn" class="st30" d="M166.9,267.8l-4-32.9c0,0-11.9-2-13.4-13.6c-0.4,6.9,2.1,12.8,9.5,16.1l5.4,30.4
						l-1.8,19L166.9,267.8z"/>
					<path id="ellomt5gmf43d" d="M190.1,396c0,0-1.4,2.1-8-1s-8.4-6.6-8.4-6.6s2.4-13.5,6.4-9.9S190.1,396,190.1,396z"/>
					<path id="elo9mwwgz8ql" class="st22" d="M173.4,361.6c1.4-0.7,5,1,7.1,3c2.7,2.6,3.3,5.9,4.5,9.9c1.4,4.2,3.9,10.1,6.1,11.5
						c1.3,0.8,2.4,0.5,3.9-0.2c-0.5-0.2-0.9-0.5-1.3-0.8c1.4-0.1,3.4-0.6,4.6-0.8c4.6-0.6,7.7,1.6,7.8,4.1c0,2-8.1,8.6-13.8,8.6
						c-4.7,0-6.3,0.7-8.6-6.3s-3.1-10.9-5.4-6.3s-3.6,15-3.6,15c-1.2,0.7-2.7,0.6-3.9-0.2c0,0,0.1-6.7-0.3-11s-2.3-11-1.8-16.1
						S172.1,362.2,173.4,361.6z"/>
				</g>
				<path id="elgapignvtfis" class="st21" d="M197.9,229.3c-2.2-23.4-4.4-31.3-6.1-44.3l-50.5-1.6c-1.6,6.7-5.1,15.1-6.9,24.3
					c-1.6,8.2-0.3,17.6,0.6,29c0.6,7.5-1.4,38.7-1.4,38.7s1.3,4.9,21.2,8.2s30.9-1.1,30.9-1.1l2.5-26.3l2.8,25.9c0,0,4.9-0.4,8.1-3
					C199.1,279.2,199.4,245.3,197.9,229.3z"/>
			</g>
			<g id="freepik--top--inject-136_1_">
				<path id="elvf9c6zfbli" class="st2" d="M198.5,150.2c-3.5-8.9-9-14.1-11.8-15.8c-6.1-1.9-16.5-4.8-16.5-4.8s-4.2,4.3-11.7,2.4
					c-5.4-1.4-5.9-4.2-5.9-4.2c-2.5,0-5,0.2-7.6,0.6c-1.9,0.3-6.3,1.9-8.1,9.9c-2.7,11.8,2.9,24.6,3.4,33.6
					c0.2,4.6-1.9,9.7,0.9,11.6c6.8,4.6,17.3,6.8,26,6.9c8.1,0.1,20.6-2.6,24.4-5.3c2.1-1.6,0.3-8,2-15.4
					C199.1,164.6,201.3,157.3,198.5,150.2z"/>
				<path id="els81hgd4f28" class="st24" d="M185,90.8c1.4-1.8,1.3-4.4,0.4-6.5s-2.7-4.2-7.8-6.6c-6.1-2.8-23.6-5.5-30.1,6.6
					c-0.9,1.7,16.1,31.1,15.6,37.4c4-4.5,17.1-20.4,17.1-20.4c3.2-1.5,5.1-2.8,5.7-5.9C186.1,93.8,185.8,92.2,185,90.8z"/>
				<path id="elhja3uf1j8vr" class="st30" d="M183.1,99.5c0,0,4.7,7,4.2,7.6c-1,0.8-2.1,1.6-3.2,2.3L183.1,99.5z"/>
				<path id="elsspb2m0vit" class="st29" d="M177.1,86.6c3,1.3,5.6,3.4,6.8,9.9c0.3,1.7-0.9,4-0.2,6.3c2.9,9.5-0.9,17.9-2.7,19.7
					c-1.2,1.3-7.8,2-11.3,1.2c-4.4-1-12.9-5.1-17.6-11.7c-5.6-7.8-7.3-18.5-1.5-23C158.5,82.5,173.9,85.2,177.1,86.6z"/>
				<path id="eloicfz1fvox" class="st29" d="M171.5,121.1l-1.3,8.4c-2.6,3-7.5,3.6-11.4,2.8c-2.8-0.6-5.6-2.4-6.1-4.5l0.8-10.4
					L171.5,121.1z"/>
				<path id="el7e1ud0vmoak" class="st30" d="M180.6,122.7c-1.5,0.9-4.9,1.8-9.6,1.3l0.4-2.5c1.4,0.5,2.9,0.9,4.4,1.1
					C177.4,122.9,179.1,122.9,180.6,122.7z"/>
				<path id="elbcfokvt25qa" class="st24" d="M179.2,87.5c0.3,4.2-2.3,5.6-4.1,6.5c0.8,1.5,1.1,3.2,1,4.9c-0.3,2.2-1.1,3.9-3.1,4.7
					c-1.3,0.5-1.7-0.1-2.2-1.1c-0.7-1.4-1.6-3.6-4.7-3c-3.5,0.6-4.2,6-2,9.4c1,1.5,2.5,2.8,4.1,2.8c1,0.1,2.1-0.3,2.8-1.1
					c0,0-0.4,6.5-5.2,10.7c0,0-7.9,1.6-13.3-1.4c-2.4-2.7-4.3-5.4-7.3-9.4c-6.9-9.2-6.4-25.9,4.6-29.4c0.5-0.2,7.1-2.4,12-1.6
					C177,82.3,179.1,86.8,179.2,87.5z"/>
				<path id="elfe4bzb1r" class="st24" d="M170.9,111.1l-0.2,42.9c0,0-20.9,4.8-30.1-3.7V96.5c0,0,5.6,12,15.3,16.1
					S170.9,111.1,170.9,111.1z"/>
				<g id="freepik--top--inject-136">
					<path id="elbpbjqr5z6dv" class="st29" d="M238.8,175.8c-6.5,3.7-15.6,9.1-20.8,11.5c-6.7,3.1-8.6,2.2-14.4-4.4
						c-4.1-4.6-9.7-10.3-14-16.4c-6.7-9.5-7.6-12.4-8-17c-1.1-12.4,3.6-15.7,3.6-15.7c10.2,3,11.9,7.7,17.5,16.8
						c7.9,12.7,12.3,19.7,12.3,19.7s18.4-7.1,20.4-8.2s4.4-4.5,5.9-7.5s2.7-4.2,3.5-6.9c0.3-1,0.6-1.6,0.8-1.7
						c0.7-0.4,1.1-0.2,1.6,0.3c0.5,0.6,0.8,1.3,0.9,2.1c0.1,1.2,0,2.4-0.3,3.6c-0.2,1-0.3,1.9-0.5,2.9c-0.1,0.4-0.1,0.8,0,1.1
						c0.3,0.5,0.9,0.9,1.5,1c4.2,1,8.6,0.8,12.7-0.4c0.5-0.1,1-0.3,1.5-0.5c0.1,0.2,0,0.5,0,0.6c-0.2,1.3-0.8,2.5-1.7,3.4
						c-1,0.9-1.9,1.8-2.8,2.9c-0.4,0.7-0.7,1.4-1.1,2.1c-0.5,0.7-1.1,1.3-1.7,1.8c-3.1,2.6-6.8,5.8-10.4,6.4
						C244.5,173.4,243.1,173.6,238.8,175.8"/>
				</g>
			</g>
		</g>
		<path id="elrx4m0o5s0y" class="st26" d="M262.9,148.5c-2.3,1.6-4.6,1.5-7.8,1.5c-1,0-2.1,0-3.1,0.2c-0.4,0.1-0.7,0.2-1.1,0.3
			c-0.4,0.2-0.8,0.5-1.2,0.8c-1.7,1.2-3.9,1.8-5,3.6c-0.7,1-0.9,2.3-1.6,3.4c-0.3,0.4-0.6,0.8-0.9,1.3c-0.3,0.5-0.2,1,0.1,1.5
			c0.2,0.2,0.4,0.3,0.6,0.4c0.8,0.3,1.7,0.4,2.6,0.1c1.7-0.6,2.7-2.3,4.2-3.4c1.1-0.8,2.4-1.3,3.7-1.6c0.6-0.2,1.2-0.3,1.8-0.4
			c0.5,0,1,0,1.5,0.1C258.9,156.4,262.9,148.5,262.9,148.5z"/>
		<path id="el9vxuuqo6syo" class="st26" d="M245.4,173.3c0.9-0.2,1.6-0.8,2.1-1.5c0.7-1.3,1.6-2,1.9-3.4c0.1-0.5,0.2-1,0.4-1.6
			c0.4-0.8,0.9-1.5,1.6-2c0.6-0.6,1.1-1.2,1.7-1.8c0.3-0.3,0.9-0.5,1.2-0.2c0.1-0.5,0.4-1,0.7-1.5c0.3-0.5,1.3-1.3,1.9-0.8
			c0.1,0.2,0.3,0.3,0.3,0.5l1.7,3.5c0.2,0.3,0.3,0.6,0.3,0.9c0,0.8-0.2,1.5-0.8,2.1c-0.3,0.4-0.6,0.7-1,0.9c-0.5,0.3-1,0.5-1.5,0.8
			c-0.9,0.6-1.5,1.8-2.5,2.3c-0.7,0.2-1.4,0.4-2.1,0.6c-0.6,0.2-1,0.6-1.6,0.9C249.1,173.6,246.2,173.4,245.4,173.3z"/>
	</g>
</g>
<g id="freepik--speech-bubble--inject-136_2_">
	<g id="freepik--speech-bubble--inject-136_1_">
		<g id="freepik--speech-bubble--inject-136">
			<path id="eliyqzssa643" class="st5" d="M267.3,71.4c0,7.1-2.7,13.9-7.5,19l-2.3,2.2c-11.6,10-29.2,8.6-39.1-3.1
				c-8.9-10.4-8.9-25.6-0.1-36l2.2-2.3c11.2-10.5,28.7-10,39.2,1.2C264.6,57.6,267.3,64.4,267.3,71.4L267.3,71.4z"/>
			<path id="elsq2lcbteaw" class="st22" d="M239.5,41.4c-16.6,0-30.1,13.5-30.1,30.2c0,14.7,10.7,27.3,25.2,29.7l3.4,8.7
				c0.4,0.9,1.4,1.3,2.3,1c0.5-0.2,0.8-0.5,1-1l3.4-8.7c16.4-2.8,27.4-18.4,24.6-34.8C266.7,51.9,254.2,41.3,239.5,41.4L239.5,41.4z
				 M267.3,71.4c0,7.1-2.7,13.9-7.5,19l-2.3,2.2c-11.6,10-29.2,8.6-39.1-3.1c-8.9-10.4-8.9-25.6-0.1-36l2.2-2.3
				c11.2-10.5,28.7-10,39.2,1.2C264.6,57.6,267.3,64.4,267.3,71.4L267.3,71.4z"/>
			<g id="eljet40oiipzk">
				<path class="st17" d="M267.3,71.4c0,7.1-2.7,13.9-7.5,19l-2.3,2.2c-11.6,10-29.2,8.6-39.1-3.1c-8.9-10.4-8.9-25.6-0.1-36
					l2.2-2.3c11.2-10.5,28.7-10,39.2,1.2C264.6,57.6,267.3,64.4,267.3,71.4L267.3,71.4z"/>
			</g>
		</g>
		<g id="freepik--Check--inject-136">
			<path id="ely20sg9ugp9r" class="st6" d="M235.8,86.5c-1.1,0-2.2-0.5-2.9-1.3l-9.1-9.7c-1.5-1.6-1.4-4.1,0.2-5.7s4.1-1.4,5.7,0.2
				l5.9,6.3l13.9-17.7c1.4-1.7,3.9-2,5.6-0.6s2,3.9,0.6,5.6l0,0L238.9,85c-0.7,0.9-1.8,1.5-3,1.5L235.8,86.5z"/>
		</g>
	</g>
</g>
</svg>
