<?xml version="1.0" encoding="utf-8"?>
<!-- Generator: Adobe Illustrator 24.2.1, SVG Export Plug-In . SVG Version: 6.00 Build 0)  -->
<svg version="1.1" id="freepik_stories-online-groceries" xmlns:svgjs="http://svgjs.com/svgjs"
	 xmlns="http://www.w3.org/2000/svg" xmlns:xlink="http://www.w3.org/1999/xlink" x="0px" y="0px" viewBox="0 0 500 500"
	 style="enable-background:new 0 0 500 500;" xml:space="preserve">
<style type="text/css">
	.st0{fill:#F5F5F5;}
	.st1{fill:#E0E0E0;}
	.st2{fill:#0E9AFF;}
	.st3{opacity:0.15;enable-background:new    ;}
	.st4{fill:#FFFFFF;}
	.st5{fill:#37474F;}
	.st6{fill:#263238;}
	.st7{fill:#455A64;}
	.st8{opacity:0.6;fill:#FFFFFF;enable-background:new    ;}
	.st9{opacity:0.1;enable-background:new    ;}
	.st10{fill:#FAFAFA;}
	.st11{fill:#F0F0F0;}
	.st12{opacity:0.3;enable-background:new    ;}
	.st13{opacity:0.15;}
	.st14{opacity:0.2;enable-background:new    ;}
	.st15{opacity:0.5;enable-background:new    ;}
	.st16{opacity:0.4;enable-background:new    ;}
	.st17{opacity:0.25;enable-background:new    ;}
	.st18{opacity:5.000000e-02;enable-background:new    ;}
	.st19{fill:#EBEBEB;}
	.st20{opacity:0.5;fill:#FFFFFF;enable-background:new    ;}
	.st21{fill:#F0997A;}
	.st22{opacity:0.8;}
	.st23{fill:#FFBDA7;}
	.st24{fill:#F28F8F;}
	.st25{opacity:0.2;}
	.st26{fill:#B16668;}
	.st27{opacity:0.6;enable-background:new    ;}
	.st28{opacity:0.45;fill:#FFFFFF;enable-background:new    ;}
	.st29{opacity:0.4;fill:#FFFFFF;enable-background:new    ;}
	.st30{fill:#FFA8A7;}
	.st31{opacity:0.4;}
	.st32{clip-path:url(#SVGID_2_);}
</style>
<g id="freepik--Floor--inject-138">
	<ellipse id="freepik--floor--inject-138" class="st0" cx="250" cy="338.2" rx="243.7" ry="136"/>
</g>
<g id="freepik--Shadows--inject-138">
	<path id="freepik--Shadow--inject-138" class="st1" d="M70.1,402.7L44,388c-2.3-1.3-2.3-3.5,0-4.8l131-75.9c2.6-1.3,5.7-1.3,8.3,0
		l26.1,14.6c2.3,1.3,2.3,3.5,0,4.8l-131,75.9C75.8,404,72.7,404,70.1,402.7z"/>
	<ellipse id="freepik--shadow--inject-138" class="st1" cx="233.7" cy="404" rx="63.7" ry="39.4"/>
	<path id="freepik--shadow--inject-138_1_" class="st1" d="M479.6,316.8l-106.7-61.6c-2.3-1.2-5.1-1.2-7.4,0l-72.1,41.6
		c-1.2,0.4-1.8,1.7-1.4,2.9c0.2,0.7,0.7,1.2,1.4,1.4l106.7,61.6c2.3,1.2,5.1,1.2,7.4,0l72.1-41.6c0.9-0.4,1.4-1.2,1.5-2.1
		C481.1,317.9,480,317,479.6,316.8z"/>
	<path id="freepik--shadow--inject-138_2_" class="st1" d="M376.9,402.5c-5.6-1.3-13.4-0.4-21-0.2c11.5-9.5,9.9-22.7-4.9-31.2
		c-16.5-9.5-43.4-9.5-59.9,0s-16.5,25,0,34.6c16,9.3,41.8,9.5,58.4,0.9l1,0.1c9.4,1,18.6-3,26.7,0s4.8,9.2,5.6,10.8s3.2,0.5,3.2-4.4
		S382.8,403.9,376.9,402.5z"/>
</g>
<g id="freepik--Plant--inject-138">
	<g id="freepik--Plants--inject-138">
		<path id="elr3gw45yobap" class="st2" d="M63.7,324.6c-6.2-25.9-25.5-54.7-44.7-44.6s13.9,32.9,23.5,54.2
			c8.4,18.7,17.8,44.1,20,50.1l7.2-3.4C69.6,374.6,69,346.9,63.7,324.6z"/>
		<g id="eloii9eyxufxq">
			<path class="st3" d="M63.7,324.6c-6.2-25.9-25.5-54.7-44.7-44.6s13.9,32.9,23.5,54.2c8.4,18.7,17.8,44.1,20,50.1l7.2-3.4
				C69.6,374.6,69,346.9,63.7,324.6z"/>
		</g>
		<path id="elari5nicv3cw" class="st4" d="M64,378L64,378c0.4,0,0.7-0.3,0.7-0.7l0,0c-0.2-50.3-21.4-81.5-39.5-93
			c-0.3-0.2-0.7-0.1-0.9,0.2c-0.2,0.3-0.1,0.7,0.2,0.9c17.8,11.3,38.7,42.1,38.9,91.9C63.3,377.7,63.6,378,64,378
			C64,378,64,378,64,378z"/>
		<path id="elsh18jxgjoig" class="st2" d="M59.7,355.5c-14.8-30-35.5-33.2-43.2-26.4c-6.1,5.4-1.5,13.7,4.2,17.2
			c7.4,4.6,32.6,16.6,41.1,38.2l5.6-2.6C67.2,378.1,66,368.4,59.7,355.5z"/>
		<path id="eliijmwuqj2md" class="st4" d="M64.3,380.9h0.2c0.4-0.1,0.6-0.5,0.6-0.8c-4.9-24.3-28.1-41.2-39.7-43.8
			c-0.4-0.1-0.7,0.2-0.8,0.6c0,0.3,0.2,0.7,0.5,0.8c11.3,2.5,33.8,19,38.6,42.7C63.6,380.7,63.9,380.9,64.3,380.9z"/>
	</g>
</g>
<g id="freepik--Device--inject-138">
	<g id="freepik--device--inject-138">
		<g id="freepik--Mobile--inject-138">
			<path id="elq437qqz2hg" class="st5" d="M181.4,35L64.5,102.5c-3.8,2.2-6.2,6.2-6.4,10.6v267.1c0,4.3,2.7,9.4,6,11.3
				s9,1.7,12.8-0.5l116.5-67.2c4-2.6,6.5-7,6.8-11.8V45.8c0-4.3-2.7-9.4-6-11.3S185.2,32.8,181.4,35z"/>
			<path id="el198c5mc8bar" class="st6" d="M75.3,391.8c-3.6,1.4-8.3,1.4-11.1-0.3c-3.3-1.9-6-7-6-11.3V113.1
				c0.1-2.1,0.7-4.1,1.7-5.8l11,6.2c-1.9,2.2-3,5-3.2,7.9v264.3C67.7,390.9,71,393.4,75.3,391.8z"/>
			<path id="elq6xbb5456v9" class="st7" d="M73.7,111c-3.5,2.3-5.8,6.2-6,10.4v264.3c0,5.9,4.2,8.3,9.2,5.3l116.5-67.3
				c4-2.6,6.5-7,6.8-11.8V45.8c0-4.3-3.1-6.1-6.8-3.9L73.7,111z"/>
			<path id="ells916yixk5" class="st5" d="M79.8,127.8l-6.5,3.7v241.2l6.5-3.7l109.5-63.2l6.5-3.7V60.8l-6.4,3.7L79.8,127.8z"/>
			<path id="elb6g4r9cguar" class="st2" d="M187.6,296.6V65.5L79.8,127.8l-6.5,3.7v231.1l107.8-62.2
				C184.7,298.4,187.6,296.6,187.6,296.6z"/>
			<g id="elijvaplpk57">
				<path class="st8" d="M187.6,296.6V65.5L79.8,127.8l-6.5,3.7v231.1l107.8-62.2C184.7,298.4,187.6,296.6,187.6,296.6z"/>
			</g>
			<path id="elkj8x1x1yt5" d="M126,88.2l19.7-11.3c1.2-0.7,2.1-0.2,2.1,1.1c-0.1,1.4-0.9,2.8-2.1,3.5L126,92.8
				c-1.2,0.7-2.1,0.2-2.1-1.1C124,90.3,124.8,89,126,88.2z"/>
			<path id="el29tt0f1aeg7" d="M159.7,68.7c1.1-0.6,2-0.1,2,1.2c-0.1,1.4-0.8,2.7-2,3.4c-1.1,0.6-2,0.1-2-1.2
				C157.8,70.8,158.6,69.5,159.7,68.7z"/>
			<path id="el5p7vwokwzhj" d="M167.7,64.1c1.1-0.6,2-0.1,2,1.2c-0.1,1.4-0.8,2.7-2,3.4c-1.1,0.6-2,0.1-2-1.2
				C165.8,66.2,166.5,64.9,167.7,64.1z"/>
			<path id="elr2m30i50jnd" d="M104,100.9c1.1-0.6,2-0.1,2,1.2c-0.1,1.4-0.8,2.7-2,3.4c-1.1,0.6-2,0.1-2-1.2
				C102.1,103,102.8,101.7,104,100.9z"/>
			<path id="elo0mo3tc8o3g" d="M111.9,96.3c1.1-0.6,2-0.1,2,1.2c-0.1,1.4-0.8,2.7-2,3.4c-1.1,0.6-2,0.1-2-1.2
				C110,98.4,110.8,97.1,111.9,96.3z"/>
		</g>
		<g id="freepik--Milk--inject-138">
			<g id="freepik--shadow--inject-138_3_">
				<path class="st9" d="M80.2,235.5c-2.1,0-3.8-1.8-3.8-3.9c0-0.1,0-0.1,0-0.2v-53.7c0-1.1,0.3-2.3,0.9-3.3c0.6-1,1.4-1.8,2.3-2.4
					l38.9-22.4c0.7-0.4,1.4-0.6,2.2-0.6c1.5,0,2.9,0.9,3.5,2.4l0,0c0.2,0.6,0.3,1.2,0.3,1.8v53.8c-0.1,2.3-1.3,4.4-3.2,5.6
					l-38.9,22.4c-0.2,0.1-0.5,0.2-0.7,0.3C81.2,235.4,80.7,235.5,80.2,235.5z"/>
			</g>
			<g id="freepik--Box--inject-138">
				<path id="el1tnhuh7fqsc" class="st10" d="M126.9,156c-0.1-1.3-0.8-2.5-1.9-3.3l-1.6-0.9c-1.2-0.6-2.6-0.6-3.8,0l-38.9,22.5
					c-1.1,0.7-1.8,1.9-1.9,3.3v53.7c0.1,1.3,0.8,2.6,1.9,3.3l1.5,0.9c1.2,0.6,2.6,0.6,3.8,0L125,213c1.1-0.7,1.8-1.9,1.9-3.3
					L126.9,156z"/>
				<path id="elcoxv4c2tamv" class="st1" d="M78.9,231.3c0.1,1.3,0.8,2.6,1.9,3.3l1.5,0.9c1.1,0.5,2.3,0.6,3.5,0.1
					c-0.9,0.3-1.6-0.2-1.6-1.3v-53.7c0-0.7,0.2-1.3,0.6-1.9l-5.3-3.1c-0.3,0.6-0.5,1.2-0.6,1.9L78.9,231.3z"/>
				<path id="el6ihqnqclu8c" class="st11" d="M126.8,155.5c-0.2-0.8-1-1.1-1.8-0.6l-38.9,22.4c-0.6,0.3-1,0.8-1.3,1.4l-5.3-3.1
					c0.3-0.6,0.8-1.1,1.3-1.4l38.9-22.4c1.2-0.6,2.6-0.6,3.8,0l1.6,0.9C126,153.4,126.6,154.4,126.8,155.5z"/>
			</g>
			<g id="freepik--milk--inject-138">
				<path id="elfmh50avaa3" class="st2" d="M94.6,223c-0.1,0-0.2,0-0.2-0.1c-0.1-0.1-0.2-0.2-0.2-0.4v-28.1c0-0.2,0.1-0.3,0.2-0.4
					l22.2-12.8c0.1-0.1,0.3-0.1,0.5,0c0.1,0.1,0.2,0.2,0.2,0.4v28.1c0,0.2-0.1,0.3-0.2,0.4l-22.2,12.8C94.7,223,94.6,223,94.6,223z
					 M95,194.7v27l21.3-12.3v-27L95,194.7z"/>
				<path id="elaj2zbphw8gu" class="st2" d="M103.7,217.7c-0.3,0-0.5-0.2-0.5-0.4v-28l-4-5.8L95,194.6c-0.1,0.2-0.4,0.3-0.6,0.3
					c-0.2-0.1-0.4-0.3-0.3-0.6c0,0,0,0,0,0l4.6-11.9c0.1-0.2,0.2-0.3,0.4-0.3c0.2,0,0.3,0.1,0.4,0.2l4.6,6.6
					c0.1,0.1,0.1,0.2,0.1,0.3v28.1C104.2,217.5,104,217.7,103.7,217.7C103.7,217.7,103.7,217.7,103.7,217.7z"/>
				<path id="elxziltch21bd" class="st2" d="M103.7,189.6c-0.1,0-0.3-0.1-0.4-0.2l-4.6-6.6c-0.1-0.1-0.1-0.2-0.1-0.4
					c0-0.1,0.1-0.2,0.2-0.3l13.1-7.6c0.2-0.1,0.5-0.1,0.6,0.1l4.6,6.6c0.1,0.1,0.1,0.2,0.1,0.4c0,0.1-0.1,0.2-0.2,0.3l-13,7.6
					C103.9,189.6,103.8,189.6,103.7,189.6z M99.8,182.7l4,5.8l12.3-7.1l-4-5.8L99.8,182.7z"/>
				<path id="elhixhlrwfgsr" class="st2" d="M99.2,183c-0.2,0-0.5-0.2-0.5-0.4c0,0,0,0,0,0v-3.1c0-0.2,0.1-0.3,0.2-0.4l13.1-7.5
					c0.1-0.1,0.3-0.1,0.5,0c0.1,0.1,0.2,0.2,0.2,0.4v3.1c0,0.3-0.2,0.5-0.5,0.5s-0.5-0.2-0.5-0.5c0,0,0,0,0,0v-2.3l-12.2,7v2.8
					C99.6,182.8,99.4,183,99.2,183C99.2,183,99.2,183,99.2,183z"/>
				<path id="el9oyqne3ynmh" class="st2" d="M106.7,210.7l0.9-2.6l0.1-0.1c0-0.1,0.1-0.1,0.1-0.1l0.3-0.2c0,0,0.1,0,0.1,0
					c0,0,0,0.1,0,0.1v4c0,0,0,0.1,0,0.1c0,0,0,0.1-0.1,0.1l-0.4,0.2c0,0-0.1,0-0.1,0c0,0,0-0.1,0-0.1v-2.4l-0.6,1.7
					c0,0,0,0.1-0.1,0.1c0,0-0.1,0.1-0.1,0.1l-0.2,0.1c0,0-0.1,0-0.1,0c0,0,0,0-0.1-0.1l-0.6-1.1v2.4c0,0,0,0.1,0,0.1
					c0,0-0.1,0.1-0.1,0.1l-0.4,0.2c0,0-0.1,0-0.1,0c0,0,0-0.1,0-0.1v-4c0,0,0-0.1,0-0.1c0,0,0.1-0.1,0.1-0.1l0.3-0.2
					c0.1,0,0.1,0,0.1,0l0.1,0.1L106.7,210.7z"/>
				<path id="elz311yfw5gx" class="st2" d="M109.1,211.5C109.1,211.5,109,211.5,109.1,211.5c-0.1,0-0.1-0.1-0.1-0.1v-4
					c0,0,0-0.1,0-0.1c0,0,0.1-0.1,0.1-0.1l0.4-0.2c0,0,0.1,0,0.1,0c0,0,0,0.1,0,0.1v4c0,0.1,0,0.2-0.1,0.2L109.1,211.5z"/>
				<path id="eligc5qahgbwj" class="st2" d="M112.5,208.8C112.5,208.8,112.6,208.8,112.5,208.8c0.1,0,0.1,0.1,0.1,0.1v0.4
					c0,0,0,0.1,0,0.1c0,0-0.1,0.1-0.1,0.1l-2,1.2c0,0-0.1,0-0.1,0c0,0,0-0.1,0-0.1v-4c0,0,0-0.1,0-0.1c0,0,0-0.1,0.1-0.1l0.4-0.2
					c0,0,0.1,0,0.1,0c0,0,0,0.1,0,0.1v3.4L112.5,208.8z"/>
				<path id="eloqkgc32fm4" class="st2" d="M115.5,207.5L115.5,207.5L115.5,207.5c0,0,0,0.1,0,0.1c0,0,0,0.1-0.1,0.1L115,208
					c0,0-0.1,0-0.2,0h-0.1l-1.1-1v1.6c0,0,0,0.1,0,0.1c0,0-0.1,0.1-0.1,0.1l-0.4,0.2c0,0-0.1,0-0.1,0c0,0,0-0.1,0-0.1v-4
					c0,0,0-0.1,0-0.1c0,0,0.1-0.1,0.1-0.1l0.4-0.2c0,0,0.1,0,0.1,0c0,0,0,0.1,0,0.1v1.5l1-2.1c0-0.1,0-0.1,0.1-0.1
					c0,0,0.1-0.1,0.1-0.1l0.4-0.2c0,0,0.1,0,0.1,0c0,0,0,0.1,0,0.1c0,0,0,0.1,0,0.1l-1.3,2.5L115.5,207.5z"/>
			</g>
		</g>
		<g id="freepik--Apple--inject-138">
			<g id="freepik--shadow--inject-138_4_">
				<path class="st9" d="M134.1,204.4c-2.1,0-3.8-1.8-3.8-3.9c0-0.1,0-0.1,0-0.2v-53.7c0-1.1,0.3-2.3,0.9-3.3c0.6-1,1.4-1.8,2.3-2.4
					l38.9-22.4c0.7-0.4,1.4-0.6,2.2-0.6c1.5,0,2.9,0.9,3.5,2.3l0,0c0.2,0.6,0.3,1.2,0.3,1.8v53.7c-0.1,2.3-1.3,4.4-3.2,5.6l-39,22.4
					c-0.2,0.1-0.5,0.2-0.7,0.3C135.1,204.3,134.6,204.4,134.1,204.4z"/>
			</g>
			<g id="freepik--box--inject-138">
				<path id="el5a9jx8wqgt" class="st10" d="M181,124.8c-0.1-1.3-0.8-2.6-1.9-3.3l-1.5-0.9c-1.2-0.6-2.6-0.6-3.8,0l-38.9,22.4
					c-1.1,0.7-1.8,1.9-1.9,3.3v53.7c0.1,1.3,0.8,2.6,1.9,3.3l1.5,0.9c1.2,0.6,2.6,0.6,3.8,0l38.9-22.4c1.1-0.7,1.8-1.9,1.9-3.3
					V124.8z"/>
				<path id="eldqlgy6zr6y5" class="st1" d="M132.9,200.1c0.1,1.3,0.8,2.6,1.9,3.3l1.5,0.9c1.1,0.5,2.3,0.6,3.5,0.1
					c-0.9,0.3-1.6-0.2-1.6-1.3v-53.7c0-0.7,0.2-1.3,0.6-1.9l-5.3-3.1c-0.3,0.6-0.5,1.2-0.6,1.9L132.9,200.1z"/>
				<path id="el4u9bzzile69" class="st11" d="M180.9,124.3c-0.2-0.8-0.9-1.1-1.8-0.6l-38.9,22.4c-0.6,0.3-1,0.8-1.3,1.4l-5.3-3.1
					c0.3-0.6,0.8-1.1,1.3-1.4l38.9-22.4c1.2-0.6,2.6-0.6,3.8,0l1.6,0.9C180,122.2,180.7,123.2,180.9,124.3z"/>
			</g>
			<g id="freepik--apple--inject-138">
				<path id="el80kowwg5blm" class="st2" d="M153.3,188.5c-2.2,0-4.2-1.2-6.1-3.6c-5.3-6.8-2.4-21.5,3.5-26.4c4-3.3,6.1-2.8,7.5-1.9
					c1.3-0.7,2.4-1.7,3.2-2.9c1.8-2.5,4.3-4.4,7.1-5.6c1.5-0.6,3.2-0.2,4.3,1c2.9,3.1,3.6,11.9-0.3,21.4
					c-5.5,13.5-11.2,14.1-12.5,14.1C159.4,185.5,156.8,188.5,153.3,188.5L153.3,188.5z M156,156.9c-1.1,0-2.6,0.6-4.7,2.3
					c-5.5,4.6-8.3,18.8-3.4,25.1c1.7,2.1,3.5,3.2,5.4,3.2c3.4-0.1,6.1-3.6,6.2-3.7c0.1-0.1,0.3-0.2,0.5-0.2c0.1,0,5.9,0.9,11.8-13.5
					c3.8-9.2,3.2-17.6,0.5-20.4c-0.8-0.9-2.2-1.3-3.3-0.8c-2.7,1.1-5.1,2.9-6.8,5.3c-0.8,1.2-1.9,2.2-3.1,3l0.2,0.1
					c0.7,0.6,1.2,1,1.8,0.9c0.8-0.1,2.2-1.1,3.2-3.1c0.1-0.2,0.4-0.3,0.6-0.2c0.2,0.1,0.3,0.4,0.2,0.6c-1,2-2.5,3.4-3.9,3.6
					c-1,0-1.9-0.4-2.5-1.1C158,157.4,157,157,156,156.9z"/>
				<path id="elx4svxw3718" class="st2" d="M161.3,159.1c-0.2,0-0.4-0.2-0.5-0.4c-0.3-6.1,3.5-15.5,7.1-17.9
					c0.2-0.1,0.5-0.1,0.6,0.1c0.1,0.2,0.1,0.5-0.1,0.6l0,0c-3.4,2.3-6.9,11.4-6.7,17.1C161.7,158.9,161.5,159.1,161.3,159.1
					C161.3,159.1,161.3,159.1,161.3,159.1L161.3,159.1z"/>
				<path id="elwnmratrpeoe" class="st2" d="M159.9,153.1L159.9,153.1c-0.8,0-1.5-0.5-1.9-1.2c-1.1-2.1-0.6-5.6-0.5-5.8
					c0-0.2,0.1-0.3,0.3-0.4c0.1-0.1,2.7-1.5,4.6-0.2c1.7,1.2,1.3,4.1,0.3,5.7C162,152.3,161,153,159.9,153.1z M158.5,146.6
					c-0.1,0.8-0.3,3.3,0.5,4.8c0.2,0.4,0.5,0.6,0.9,0.6c0.8-0.1,1.5-0.6,1.8-1.3l0,0c0.8-1.4,1-3.6,0-4.3S159.1,146.3,158.5,146.6z"
					/>
			</g>
		</g>
		<g id="freepik--Fish--inject-138">
			<g id="freepik--shadow--inject-138_5_">
				<path class="st9" d="M80.2,309c-2.1,0-3.8-1.8-3.8-3.9c0-0.1,0-0.1,0-0.2v-53.8c0-1.1,0.3-2.3,0.9-3.3c0.6-1,1.4-1.8,2.3-2.4
					l38.9-22.4c0.7-0.4,1.4-0.6,2.2-0.6c1.5,0,2.9,0.9,3.5,2.4l0,0c0.2,0.6,0.3,1.2,0.3,1.8v53.8c-0.1,2.3-1.3,4.4-3.2,5.6
					l-38.9,22.4c-0.2,0.1-0.5,0.2-0.7,0.3C81.2,308.9,80.7,309,80.2,309z"/>
			</g>
			<g id="freepik--box--inject-138_1_">
				<path id="ellibirlyke3" class="st10" d="M126.9,229.4c-0.1-1.3-0.8-2.5-1.9-3.3l-1.6-0.9c-1.2-0.6-2.6-0.6-3.8,0l-38.9,22.4
					c-1.1,0.7-1.8,1.9-1.9,3.3v53.7c0.1,1.3,0.8,2.5,1.9,3.3l1.5,0.9c1.2,0.6,2.6,0.6,3.8,0l38.9-22.4c1.1-0.7,1.8-1.9,1.9-3.3
					L126.9,229.4z"/>
				<path id="ellv00yraudmh" class="st1" d="M78.9,304.8c0.1,1.3,0.8,2.5,1.9,3.3l1.5,0.9c1.1,0.5,2.3,0.6,3.5,0.1
					c-0.9,0.3-1.6-0.2-1.6-1.3v-53.7c0-0.7,0.2-1.3,0.6-1.9l-5.3-3.1c-0.3,0.6-0.5,1.2-0.6,1.9L78.9,304.8z"/>
				<path id="ela3klwb8smxp" class="st11" d="M126.8,228.9c-0.2-0.8-1-1.1-1.8-0.6l-38.9,22.4c-0.6,0.3-1,0.8-1.3,1.4l-5.3-3.1
					c0.3-0.6,0.8-1.1,1.3-1.4l38.9-22.4c1.2-0.6,2.6-0.6,3.8,0l1.6,0.9C126,226.8,126.6,227.8,126.8,228.9z"/>
			</g>
			<g id="freepik--fish--inject-138">
				<path id="elx62416i4hsg" class="st2" d="M98.2,281.9c-0.1,0-0.2,0-0.2-0.1c-0.1-0.1-0.2-0.2-0.2-0.4
					c0.3-19.9,14.2-38.4,25.4-40.3c0.1,0,0.3,0,0.4,0.1c0.1,0.1,0.2,0.2,0.2,0.3c0,0.4,0.7,10.9-10.3,25.8
					c-7.9,10.7-14.7,14.3-15,14.5C98.3,281.9,98.2,281.9,98.2,281.9z M122.8,242.1c-10.7,2.3-23.4,19.6-24.1,38.5
					c1.9-1.2,7.7-5.2,14-13.8C122.1,254.1,122.7,244.4,122.8,242.1z"/>
				<path id="eladau1l3oiij" class="st2" d="M117.9,259.9L117.9,259.9c-4.7-0.3-7.2-4.3-6.8-11.1c0-0.2,0.2-0.4,0.5-0.4c0,0,0,0,0,0
					c0.3,0,0.4,0.2,0.4,0.5c-0.3,6.2,1.8,9.9,5.9,10.2c0.3,0,0.4,0.2,0.4,0.5C118.4,259.7,118.2,259.9,117.9,259.9
					C117.9,259.9,117.9,259.9,117.9,259.9z"/>
				<path id="ell50b10yz6zm" class="st2" d="M89.6,287.9c-1,0-1.9-0.3-2.6-1c-0.2-0.1-0.2-0.4-0.1-0.5c3.4-6.4,8.4-8.9,11.4-8.1
					c0.2,0.1,0.4,0.3,0.3,0.6c-0.1,0.2-0.3,0.4-0.5,0.3c0,0,0,0,0,0c-2.7-0.7-7.2,1.8-10.2,7.3c0.7,0.4,1.5,0.6,2.3,0.5
					c2.5-0.4,5.8-2.8,7.5-5.7c0.2-0.2,0.4-0.2,0.6-0.1c0.2,0.1,0.2,0.4,0.1,0.6c-1.9,3.1-5.4,5.8-8.2,6.1
					C90.1,287.9,89.9,287.9,89.6,287.9z"/>
				<path id="elkq3rv1pjsjt" class="st2" d="M99.9,295.4c-0.1,0-0.2,0-0.3-0.1c-3.6-2.3-3.7-8.9-1.9-14c0.1-0.2,0.3-0.4,0.6-0.3
					c0,0,0,0,0,0c0.2,0.1,0.4,0.3,0.3,0.6c-1.6,4.6-1.5,10.4,1.1,12.6c2.6-5.3,2-12,0.1-13.7c-0.2-0.2-0.2-0.4,0-0.6c0,0,0,0,0,0
					c0.2-0.2,0.5-0.2,0.6,0c0,0,0,0,0,0c2.4,2.2,2.8,9.7-0.2,15.3c-0.1,0.1-0.2,0.2-0.3,0.2L99.9,295.4z"/>
				<path id="elzeei89vkvul" class="st2" d="M112.9,263.8L112.9,263.8c-2.8-0.1-4.9-3.9-5-7.4c0-0.3,0.2-0.5,0.4-0.5
					c0.2,0,0.5,0.2,0.5,0.4c0,0,0,0,0,0c0.1,3,1.9,6.4,4.1,6.5c0.3,0,0.4,0.3,0.4,0.5C113.3,263.6,113.1,263.7,112.9,263.8
					L112.9,263.8z"/>
				<path id="elzdzan2oy7q" class="st2" d="M109.4,267.8L109.4,267.8c-1.9-0.3-3.9-3.6-4.2-6c-0.1-0.2,0.1-0.5,0.4-0.5
					c0.2-0.1,0.5,0.1,0.5,0.4c0,0,0,0,0,0.1c0.3,2.2,2.1,5,3.4,5.2c0.2,0.1,0.4,0.3,0.4,0.5C109.8,267.7,109.6,267.8,109.4,267.8
					L109.4,267.8z"/>
				<path id="el2jtseqmn634" class="st2" d="M106.2,271.8L106.2,271.8c-1.6-0.3-3.4-3.2-3.6-4.9c0-0.2,0.1-0.5,0.4-0.5c0,0,0,0,0,0
					c0.2,0,0.5,0.1,0.5,0.3c0,0,0,0,0,0c0.3,1.6,1.9,4,2.8,4.1c0.2,0.1,0.4,0.3,0.4,0.5C106.6,271.7,106.4,271.8,106.2,271.8
					L106.2,271.8z"/>
				<path id="el56acgmovd2p" class="st2" d="M102.7,275.5L102.7,275.5c-1.3-0.4-2.2-1.3-2.4-2.5c-0.1-0.2,0.1-0.5,0.3-0.5
					c0.2-0.1,0.5,0.1,0.6,0.3c0.2,0.9,0.8,1.5,1.7,1.9c0.2,0.1,0.4,0.3,0.3,0.5C103.1,275.4,102.9,275.5,102.7,275.5z"/>
				<path id="elom83qnuk52" class="st2" d="M116.1,251.6c-0.2,0-0.4-0.1-0.6-0.1c-0.5-0.3-0.7-0.9-0.7-1.5c0-1.2,0.6-2.3,1.5-2.9
					c0.4-0.3,0.9-0.3,1.3-0.1c0.5,0.3,0.7,0.9,0.7,1.5c0,1.2-0.6,2.2-1.6,2.9C116.6,251.6,116.3,251.6,116.1,251.6z M117.1,247.8
					c-0.1,0-0.2,0-0.3,0.1c-0.7,0.5-1.1,1.3-1.1,2.1c0,0.4,0.1,0.6,0.2,0.7s0.3,0,0.4-0.1c0.7-0.5,1.1-1.3,1.1-2.1
					c0-0.4-0.1-0.6-0.2-0.7C117.2,247.8,117.1,247.8,117.1,247.8L117.1,247.8z"/>
				<path id="elks628k5f07j" class="st2" d="M102.2,263.6c-0.2,0-0.3-0.1-0.4-0.3c-0.6-1.4-3.4-0.6-3.5-0.6c-0.2,0-0.3,0-0.4-0.1
					c-0.1-0.1-0.2-0.3-0.1-0.5c0.8-2.4,5.6-7.8,9.4-8.5c0.2,0,0.5,0.1,0.5,0.4c0,0,0,0,0,0c0.1,0.2-0.1,0.5-0.3,0.5c0,0,0,0,0,0
					c-3.1,0.6-7,4.7-8.3,7.2c1.1-0.1,3-0.1,3.7,1.3c0.1,0.2,0,0.5-0.2,0.6c0,0,0,0,0,0C102.3,263.6,102.2,263.6,102.2,263.6z"/>
			</g>
		</g>
		<g id="freepik--Watermelon--inject-138">
			<g id="freepik--shadow--inject-138_6_">
				<path class="st9" d="M134.1,277.7c-2.1,0-3.8-1.8-3.8-3.9c0-0.1,0-0.1,0-0.2v-53.7c0-1.1,0.3-2.3,0.9-3.3c0.6-1,1.4-1.8,2.3-2.4
					l38.9-22.4c0.7-0.4,1.4-0.6,2.2-0.6c1.5,0,2.9,0.9,3.5,2.3l0,0c0.2,0.6,0.3,1.2,0.3,1.8V249c-0.1,2.3-1.3,4.4-3.2,5.6l-39,22.4
					c-0.2,0.1-0.5,0.2-0.7,0.3C135.1,277.6,134.6,277.7,134.1,277.7z"/>
			</g>
			<g id="freepik--box--inject-138_2_">
				<path id="elb5wdrapmfz" class="st10" d="M181,198.3c-0.1-1.3-0.8-2.5-1.9-3.3l-1.5-0.9c-1.2-0.6-2.6-0.6-3.8,0l-38.9,22.4
					c-1.1,0.7-1.8,1.9-1.9,3.3v53.7c0.1,1.3,0.8,2.6,1.9,3.3l1.5,0.9c1.2,0.6,2.6,0.6,3.8,0l38.9-22.4c1.1-0.7,1.8-2,1.9-3.3V198.3z
					"/>
				<path id="elp8slap3suhi" class="st1" d="M132.9,273.6c0.1,1.3,0.8,2.6,1.9,3.3l1.5,0.9c1.1,0.5,2.3,0.6,3.5,0.1
					c-0.9,0.3-1.6-0.2-1.6-1.3v-53.7c0-0.7,0.2-1.3,0.6-1.9l-5.3-3c-0.3,0.6-0.5,1.2-0.6,1.9V273.6z"/>
				<path id="elifv031khwb" class="st11" d="M180.9,197.7c-0.2-0.8-0.9-1.1-1.8-0.6l-38.9,22.4c-0.6,0.3-1,0.8-1.3,1.4l-5.3-3
					c0.3-0.6,0.8-1.1,1.3-1.4l38.9-22.4c1.2-0.6,2.6-0.6,3.8,0l1.6,0.9C180,195.6,180.7,196.6,180.9,197.7z"/>
			</g>
			<g id="freepik--watermelon--inject-138">
				<path id="el9fi55i9u0ue" class="st2" d="M149.8,254.5c-2.1,0-4.1-0.5-5.9-1.4c-0.2-0.1-0.3-0.4-0.2-0.6c0,0,0,0,0,0l15.1-33
					c0.1-0.1,0.2-0.2,0.3-0.3c0.1,0,0.3,0,0.4,0.1l15.1,15.5c0.1,0.1,0.2,0.4,0.1,0.6c-4.3,7.2-9.7,13-15.3,16.2
					C156.5,253.4,153.2,254.4,149.8,254.5z M144.7,252.4c4,2,9.1,1.4,14.3-1.6c5.4-3.1,10.6-8.6,14.8-15.6l-14.4-14.8L144.7,252.4z"
					/>
				<path id="elya8skjdy5co" class="st2" d="M148.6,258.9c-2.3,0-4.6-0.5-6.7-1.6c-0.2-0.1-0.3-0.4-0.2-0.6c0,0,0,0,0,0l17.1-37.3
					c0.1-0.1,0.2-0.2,0.3-0.3c0.1,0,0.3,0,0.4,0.1l17.1,17.5c0.1,0.2,0.2,0.4,0.1,0.6c-4.8,8.1-10.9,14.6-17.2,18.3
					C156.2,257.6,152.4,258.8,148.6,258.9z M142.7,256.7c4.6,2.2,10.3,1.6,16.3-1.8c6.1-3.5,12-9.8,16.7-17.6l-16.4-16.8
					L142.7,256.7z"/>
				<path id="elnc7cytjesol" class="st2" d="M142.1,257.3c-0.1,0-0.1,0-0.2,0c-0.2-0.1-0.3-0.4-0.2-0.6c0,0,0,0,0,0l17.1-37.3
					c0.1-0.1,0.2-0.2,0.3-0.3c0.1,0,0.3,0,0.4,0.1l17.1,17.5c0.2,0.2,0.2,0.5,0,0.6c-0.2,0.2-0.5,0.2-0.6,0c0,0,0,0,0,0l-16.6-17.1
					l-16.8,36.7C142.5,257.3,142.3,257.3,142.1,257.3z"/>
				<path id="elkphm99gp1ps" class="st2" d="M158.9,229.9c-0.2,0-0.3-0.1-0.4-0.2c-0.5-0.4-0.4-1.6,0.3-3.6c0.1-0.2,0.2-0.3,0.4-0.3
					c0.2,0,0.3,0.1,0.4,0.2c0.5,0.8,0.7,1.7,0.6,2.6c-0.1,0.4-0.4,0.8-0.8,1C159.3,229.8,159.1,229.9,158.9,229.9z M159.1,229.1
					L159.1,229.1z M159.3,227.6c-0.1,0.4-0.2,0.9-0.2,1.3c0.1-0.1,0.2-0.2,0.3-0.4C159.4,228.2,159.4,227.9,159.3,227.6z"/>
				<path id="elvlyxkk7adhm" class="st2" d="M158.9,246.5c-0.2,0-0.3-0.1-0.4-0.2c-0.5-0.4-0.4-1.6,0.3-3.6c0.1-0.2,0.2-0.3,0.4-0.3
					c0.2,0,0.3,0.1,0.4,0.2c0.5,0.8,0.7,1.7,0.6,2.7c-0.1,0.4-0.4,0.8-0.8,1C159.3,246.5,159.1,246.5,158.9,246.5z M159.1,245.7
					L159.1,245.7z M159.3,244.2c-0.1,0.4-0.2,0.9-0.2,1.3c0.1-0.1,0.2-0.2,0.3-0.4C159.4,244.8,159.4,244.5,159.3,244.2z"/>
				<path id="elbic32mpdp0a" class="st2" d="M167.6,239.3c-0.1,0-0.2,0-0.3-0.1c-0.7-0.3-0.8-1.7-0.7-2.9c0-0.1,0.1-0.3,0.2-0.3
					c0.1-0.1,0.2-0.1,0.4-0.1c0.1,0,1.4,0.4,1.7,1.3c0.2,0.6,0,1.2-0.4,1.6C168.3,239.1,168,239.3,167.6,239.3z M167.8,238.5
					L167.8,238.5z M167.6,237.1c0,0.4,0,0.9,0.1,1.3l0.1-0.1c0.2-0.3,0.3-0.5,0.2-0.7C167.9,237.3,167.8,237.1,167.6,237.1
					L167.6,237.1z"/>
				<path id="elktzcar11zhi" class="st2" d="M150.3,249.3h-0.1c-0.3,0-0.6-0.2-0.7-0.5c-0.4-0.9,0.9-2.8,1.4-3.6
					c0.2-0.2,0.4-0.2,0.6-0.1c0.1,0.1,0.2,0.2,0.2,0.3c0,0.4,0.1,2.7-0.7,3.5C150.9,249.2,150.6,249.3,150.3,249.3z M150.8,247.2
					c-0.2,0.4-0.4,0.8-0.4,1.2c0-0.1,0-0.1,0.1-0.1C150.6,248,150.8,247.6,150.8,247.2L150.8,247.2z"/>
				<path id="elbwm312vjbvu" class="st2" d="M154.9,240.2c-0.2,0-0.5-0.1-0.6-0.3c-0.5-0.7,0.3-2.4,1-3.7c0.1-0.2,0.3-0.3,0.5-0.2
					c0.2,0,0.3,0.2,0.4,0.4c0.1,0.2,0.5,2.3-0.2,3.3c-0.2,0.3-0.5,0.5-0.8,0.6C155,240.2,155,240.2,154.9,240.2z M155,239.4
					L155,239.4z M155.4,238.1c-0.2,0.4-0.3,0.8-0.4,1.2c0.1,0,0.1-0.1,0.1-0.1C155.3,238.8,155.4,238.4,155.4,238.1z"/>
				<path id="el4rhf1eajlnr" class="st2" d="M162.9,235.6c-0.1,0-0.2,0-0.3-0.1c-0.6-0.3-0.7-1.4-0.3-3.3c0-0.2,0.1-0.3,0.3-0.3
					c0.1-0.1,0.3-0.1,0.4,0c0.7,0.4,1.1,1.1,1.3,1.8c0,0.5-0.2,1.1-0.6,1.4C163.5,235.5,163.2,235.6,162.9,235.6z M163.1,234.8
					L163.1,234.8z M163.1,233.3c0,0.4,0,0.9,0,1.3l0,0c0.2-0.2,0.3-0.4,0.3-0.7C163.4,233.7,163.3,233.4,163.1,233.3L163.1,233.3z"
					/>
			</g>
		</g>
		<g id="freepik--Button--inject-138">
			<g id="freepik--shadow--inject-138_7_">
				<path class="st9" d="M101.7,337.1c-2.1,0-3.8-1.8-3.8-3.9c0-0.1,0-0.1,0-0.2v-20.8c0.1-2.3,1.3-4.4,3.3-5.6l60.5-34.8
					c0.7-0.4,1.4-0.6,2.2-0.6c1.5,0,2.9,0.9,3.4,2.4h0.1c0.2,0.6,0.3,1.2,0.3,1.8V296c-0.1,2.3-1.3,4.4-3.2,5.6l-60.5,34.8
					c-0.2,0.1-0.5,0.2-0.7,0.3C102.7,337,102.2,337.1,101.7,337.1z"/>
			</g>
			<g id="freepik--button--inject-138">
				<path id="elp7jry1ca8l" class="st2" d="M170,278.1c-0.1-1.3-0.8-2.6-1.9-3.3l-1.5-0.9c-1.2-0.6-2.6-0.6-3.8,0l-60.5,34.8
					c-1.1,0.7-1.8,1.9-1.9,3.3v20.8c0.1,1.3,0.8,2.6,1.9,3.3l1.5,0.9c1.2,0.6,2.6,0.6,3.8,0l60.5-34.8c1.1-0.7,1.8-1.9,1.9-3.3
					V278.1z"/>
				<g id="elqje1cu7hhsj">
					<path class="st3" d="M170,278.1c-0.1-1.3-0.8-2.6-1.9-3.3l-1.5-0.9c-1.2-0.6-2.6-0.6-3.8,0l-60.5,34.8
						c-1.1,0.7-1.8,1.9-1.9,3.3v20.8c0.1,1.3,0.8,2.6,1.9,3.3l1.5,0.9c1.2,0.6,2.6,0.6,3.8,0l60.5-34.8c1.1-0.7,1.8-1.9,1.9-3.3
						V278.1z"/>
				</g>
				<g id="elg11gz48necf">
					<path class="st12" d="M100.3,332.8c0.1,1.3,0.8,2.6,1.9,3.3l1.5,0.9c1.1,0.5,2.3,0.6,3.5,0.1c-0.9,0.3-1.6-0.2-1.6-1.3v-20.8
						c0-0.7,0.2-1.3,0.6-1.9l-5.3-3.1c-0.3,0.6-0.5,1.2-0.6,1.9L100.3,332.8z"/>
				</g>
				<g id="elbgdz4dlb7od">
					<path class="st3" d="M169.9,277.6c-0.2-0.8-1-1.1-1.8-0.5l-60.5,34.8c-0.6,0.3-1,0.8-1.3,1.4l-5.3-3.1c0.3-0.6,0.8-1.1,1.3-1.4
						l60.5-34.8c1.2-0.6,2.6-0.6,3.8,0l1.6,0.9C169,275.5,169.7,276.5,169.9,277.6z"/>
				</g>
			</g>
			<path id="elbagc7oeblo" class="st10" d="M111.6,328.4c-0.1,0.1-0.2,0.1-0.2,0c-0.1-0.1-0.1-0.2-0.1-0.3v-11.9
				c0-0.1,0-0.3,0.1-0.4c0-0.1,0.1-0.2,0.2-0.3l3.8-2.2c0.4-0.3,0.9-0.4,1.3-0.4c0.3,0,0.6,0.1,0.9,0.4c0.2,0.3,0.4,0.6,0.5,1
				c0.1,0.4,0.2,0.8,0.2,1.3c0,0.3,0,0.7-0.1,1c0,0.3-0.1,0.5-0.2,0.8c-0.1,0.2-0.1,0.4-0.2,0.6c-0.1,0.1-0.1,0.3-0.2,0.4
				c0.3,0.2,0.6,0.4,0.7,0.8c0.1,0.5,0.2,1,0.2,1.5c0,0.5,0,1-0.1,1.5c-0.1,0.5-0.3,1.1-0.5,1.5c-0.2,0.5-0.5,1-0.8,1.4
				c-0.4,0.4-0.8,0.8-1.3,1.1L111.6,328.4z M116.1,316.8c0-0.2,0-0.5-0.2-0.6c-0.1-0.1-0.3-0.1-0.5,0l-1.8,1.1v2.1l1.8-1.1
				c0.2-0.1,0.4-0.3,0.5-0.6C116,317.4,116.1,317.1,116.1,316.8z M113.5,324.4l2-1.1c0.3-0.2,0.4-0.4,0.6-0.6
				c0.1-0.3,0.2-0.6,0.2-0.9c0-0.2-0.1-0.5-0.2-0.7c-0.1-0.1-0.3-0.1-0.6,0l-2,1.1V324.4z"/>
			<path id="eloturierw1ba" class="st10" d="M126.6,306.9c0.1-0.1,0.2-0.1,0.2,0c0.1,0.1,0.1,0.2,0.1,0.3v7.3c0,0.8-0.1,1.6-0.3,2.4
				c-0.2,0.7-0.4,1.4-0.8,2.1c-0.3,0.6-0.7,1.2-1.2,1.7c-0.4,0.5-0.9,0.9-1.5,1.2c-0.4,0.3-1,0.5-1.5,0.5c-0.4,0-0.8-0.1-1.1-0.3
				c-0.4-0.3-0.6-0.7-0.7-1.2c-0.2-0.7-0.3-1.4-0.3-2.1v-7.3c0-0.1,0-0.3,0.1-0.4c0-0.1,0.1-0.2,0.2-0.3l1.6-0.9
				c0.1-0.1,0.2-0.1,0.2,0c0.1,0.1,0.1,0.2,0.1,0.3v7.3c-0.1,0.5,0.1,1.1,0.3,1.5c0.2,0.3,0.6,0.3,1.1,0c0.5-0.3,0.9-0.7,1.1-1.2
				c0.2-0.6,0.4-1.3,0.3-1.9v-7.3c0-0.1,0-0.3,0.1-0.4c0-0.1,0.1-0.2,0.2-0.3L126.6,306.9z"/>
			<path id="elfst8d0kx5bf" class="st10" d="M132.9,315.6c0,0.1,0,0.3-0.1,0.4c0,0.1-0.1,0.2-0.2,0.3l-1.6,0.9
				c-0.1,0.1-0.2,0.1-0.2,0c-0.1-0.1-0.1-0.2-0.1-0.3V313l-2.8-6.2c0-0.1,0-0.1,0-0.2c0-0.1,0-0.2,0.1-0.3c0-0.1,0.1-0.2,0.2-0.2
				l1.6-1c0.2-0.1,0.3-0.1,0.4,0c0.1,0.1,0.1,0.1,0.1,0.2l1.5,3.6l1.5-5.4c0-0.1,0.1-0.2,0.1-0.4c0.1-0.2,0.2-0.3,0.4-0.4l1.6-0.9
				c0.1,0,0.1,0,0.2,0c0.1,0.1,0.1,0.2,0.1,0.2c0,0.1,0,0.2-0.1,0.3l-2.8,9.4L132.9,315.6z"/>
			<path id="elu3tzhjgqml" class="st10" d="M144.3,309.5c-0.1,0.1-0.3,0.1-0.3,0c-0.1,0-0.1-0.1-0.2-0.2l-2.7-4.7v6.2
				c0,0.1,0,0.3-0.1,0.4c0,0.1-0.1,0.2-0.2,0.3l-1.6,0.9c-0.1,0-0.2,0-0.2,0c-0.1-0.1-0.1-0.2-0.1-0.3v-11.9c0-0.1,0-0.3,0.1-0.4
				c0-0.1,0.1-0.2,0.2-0.3l1.2-0.7c0.1-0.1,0.3-0.1,0.3,0c0.1,0,0.1,0.1,0.2,0.2l2.7,4.7v-6.2c0-0.1,0-0.3,0.1-0.4
				c0-0.1,0.1-0.2,0.2-0.3l1.6-0.9c0.1-0.1,0.2-0.1,0.2,0c0.1,0.1,0.1,0.2,0.1,0.3v11.9c0,0.1,0,0.3-0.1,0.4c0,0.1-0.1,0.2-0.2,0.3
				L144.3,309.5z"/>
			<path id="elqasbkfzhua" class="st10" d="M147.3,299.7c0-0.7,0.1-1.4,0.3-2.1c0.2-0.7,0.4-1.4,0.7-2c0.3-0.6,0.7-1.2,1.1-1.7
				c0.4-0.5,1-1,1.6-1.3c0.5-0.3,1-0.5,1.6-0.5c0.4,0,0.8,0.1,1.1,0.4c0.3,0.3,0.6,0.7,0.7,1.2c0.2,0.6,0.3,1.2,0.3,1.8
				c0,0.5,0,1.1,0,1.6s0,1.1,0,1.6c0,0.7-0.1,1.4-0.3,2.1c-0.2,0.7-0.4,1.4-0.7,2c-0.3,0.6-0.7,1.2-1.1,1.7c-0.5,0.5-1,0.9-1.6,1.3
				c-0.5,0.3-1,0.5-1.6,0.5c-0.4,0-0.8-0.1-1.1-0.4c-0.3-0.3-0.6-0.7-0.7-1.2c-0.2-0.6-0.3-1.2-0.3-1.8c0-0.5,0-1,0-1.6
				S147.3,300.2,147.3,299.7z M152.5,299.9c0-0.2,0-0.5,0-0.8s0-0.5,0-0.8s0-0.5,0-0.8s0-0.5,0-0.7c0-0.3-0.1-0.5-0.1-0.8
				c-0.1-0.2-0.1-0.4-0.3-0.5c-0.1-0.1-0.3-0.2-0.5-0.2c-0.2,0-0.5,0.1-0.6,0.2c-0.2,0.1-0.5,0.3-0.6,0.5c-0.2,0.2-0.3,0.5-0.5,0.7
				c-0.1,0.3-0.2,0.5-0.3,0.8c-0.1,0.3-0.1,0.6-0.1,0.9c0,0.2,0,0.5,0,0.7s0,0.5,0,0.8s0,0.6,0,0.8s0,0.5,0,0.7
				c0,0.5,0.1,0.9,0.4,1.3c0.2,0.3,0.6,0.3,1.1,0c0.5-0.3,0.9-0.7,1.1-1.2C152.4,301.1,152.5,300.5,152.5,299.9L152.5,299.9z"/>
			<path id="elgav3gjq6b9" class="st10" d="M161.8,293.2l0.8-6.6c0-0.2,0.1-0.3,0.1-0.5c0.1-0.1,0.1-0.2,0.2-0.2l1.6-0.9
				c0.1,0,0.1,0,0.2,0c0.1,0.1,0.1,0.2,0.1,0.2c0,0.1,0,0.1,0,0.2l-1.5,12.5c0,0.2-0.1,0.4-0.2,0.6c-0.1,0.2-0.2,0.4-0.4,0.5l-1,0.6
				c-0.2,0.1-0.3,0.1-0.4,0c-0.1-0.1-0.2-0.2-0.2-0.4l-0.9-3.6l-0.9,4.7c0,0.2-0.1,0.4-0.2,0.6c-0.1,0.2-0.2,0.3-0.4,0.4l-1,0.6
				c-0.1,0.1-0.3,0.1-0.4,0c-0.1-0.1-0.2-0.2-0.2-0.4l-1.5-10.7c0,0,0-0.1,0-0.1c0-0.1,0-0.2,0.1-0.3c0-0.1,0.1-0.2,0.2-0.2l1.6-0.9
				c0.1,0,0.2,0,0.2,0c0.1,0,0.1,0.1,0.1,0.3l0.8,5.8l0.7-3.7c0-0.1,0.1-0.2,0.1-0.4c0.1-0.2,0.2-0.3,0.3-0.4l1.1-0.6
				c0.1-0.1,0.2-0.1,0.3,0c0,0.1,0.1,0.2,0.1,0.3L161.8,293.2z"/>
		</g>
		<g id="freepik--Awning--inject-138">
			<polygon id="elso3gna9avl" class="st2" points="73.3,131.5 99.3,167.9 221.7,97.2 195.8,60.8 			"/>
			<polygon id="elrip4mlrz7ud" class="st10" points="84.4,125.1 95.6,118.6 121.6,155.1 110.4,161.5 			"/>
			<polygon id="elqinnzomm89" class="st10" points="106.7,112.2 117.8,105.8 143.8,142.2 132.7,148.6 			"/>
			<polygon id="elkz5h0cxnmxp" class="st10" points="129,99.4 140.1,92.9 166.1,129.4 155,135.8 			"/>
			<polygon id="eli529j60exxd" class="st10" points="151.3,86.5 162.4,80.1 188.4,116.5 177.3,122.9 			"/>
			<polygon id="eleyovpvj7ocs" class="st10" points="173.5,73.7 184.7,67.2 210.6,103.7 199.5,110.1 			"/>
			<path id="eliofo7dueex" class="st1" d="M110.4,161.5c0,3.6,2.5,5,5.6,3.2c3.3-2.1,5.3-5.7,5.6-9.6L110.4,161.5z"/>
			<path id="elngw39ar3jp" class="st1" d="M132.7,148.6c0,3.6,2.5,5,5.6,3.2c3.3-2.1,5.4-5.7,5.6-9.6L132.7,148.6z"/>
			<path id="elk5y3o8evpl" class="st1" d="M154.9,135.8c0,3.6,2.5,5,5.6,3.2c3.3-2.1,5.3-5.7,5.6-9.6L154.9,135.8z"/>
			<path id="elh4hmei7ft1n" class="st1" d="M177.2,122.9c0,3.6,2.5,5,5.6,3.2c3.3-2.1,5.3-5.7,5.6-9.6L177.2,122.9z"/>
			<path id="elk1mtq603msg" class="st1" d="M199.4,110.1c0,3.5,2.5,5,5.6,3.2c3.3-2.1,5.4-5.7,5.6-9.6L199.4,110.1z"/>
			<path id="el1x6kbl2ry9f" class="st2" d="M99.3,167.9c0,3.6,2.5,5,5.6,3.2c3.3-2.1,5.3-5.7,5.6-9.6L99.3,167.9z"/>
			<path id="el961663qbwlc" class="st2" d="M121.6,155.1c0,3.5,2.5,5,5.6,3.2c3.3-2.1,5.4-5.7,5.6-9.6L121.6,155.1z"/>
			<path id="ellv271dbgwx" class="st2" d="M143.8,142.2c0,3.6,2.5,5,5.6,3.2c3.3-2.1,5.3-5.7,5.6-9.6L143.8,142.2z"/>
			<path id="elfgqd4uyu9ms" class="st2" d="M166.1,129.4c0,3.6,2.5,5,5.6,3.2c3.3-2.1,5.4-5.7,5.6-9.6L166.1,129.4z"/>
			<path id="el8vor1xufg8v" class="st2" d="M188.3,116.5c0,3.6,2.5,5,5.6,3.2c3.3-2.1,5.3-5.7,5.6-9.6L188.3,116.5z"/>
			<path id="elt1f91poh70h" class="st2" d="M210.6,103.7c0,3.6,2.5,5,5.6,3.2c3.3-2.1,5.3-5.7,5.6-9.6L210.6,103.7z"/>
			<g id="elssityo2img">
				<g class="st13">
					<path id="elflcwu7agt9e" d="M99.3,167.9c0,3.6,2.5,5,5.6,3.2c3.3-2.1,5.3-5.7,5.6-9.6L99.3,167.9z"/>
					<path id="el9i8ju1rlpy4" d="M121.6,155.1c0,3.5,2.5,5,5.6,3.2c3.3-2.1,5.4-5.7,5.6-9.6L121.6,155.1z"/>
					<path id="elwo7wv8ufqbj" d="M143.8,142.2c0,3.6,2.5,5,5.6,3.2c3.3-2.1,5.3-5.7,5.6-9.6L143.8,142.2z"/>
					<path id="ellylc9x7h12l" d="M166.1,129.4c0,3.6,2.5,5,5.6,3.2c3.3-2.1,5.4-5.7,5.6-9.6L166.1,129.4z"/>
					<path id="el3n7ma4ooroa" d="M188.3,116.5c0,3.6,2.5,5,5.6,3.2c3.3-2.1,5.3-5.7,5.6-9.6L188.3,116.5z"/>
					<path id="el04ojjpjrapke" d="M210.6,103.7c0,3.6,2.5,5,5.6,3.2c3.3-2.1,5.3-5.7,5.6-9.6L210.6,103.7z"/>
				</g>
			</g>
			<polygon id="el68wuehmxal" class="st2" points="99.3,167.9 73.3,148.6 73.3,131.5 			"/>
			<g id="eldt7wglwhv">
				<polygon class="st14" points="99.3,167.9 73.3,148.6 73.3,131.5 				"/>
			</g>
		</g>
	</g>
</g>
<g id="freepik--Groceries--inject-138">
	<g id="freepik--groceries--inject-138">
		<polygon id="el59dr3x1v93m" class="st2" points="310.4,297.7 403.8,351.6 462.5,317.7 369.2,263.8 		"/>
		<g id="el87cieykyupt">
			<polygon class="st15" points="310.4,297.7 403.8,351.6 462.5,317.7 369.2,263.8 			"/>
		</g>
		<g id="els92m1w0typr">
			<path class="st3" d="M453.5,311.5l-78.9-45.6c-2.3-1.2-4.9-1.2-7.2,0l-27.7,16c-7.2-0.7-14.4,0.6-20.8,3.8
				c-9.7,5.2-11.1,13.5-3,18.5c7.7,4.8,21.3,4.9,31,0.3l59.4,34.3c2.3,1.2,4.9,1.2,7.2,0l40-23.1
				C455.5,314.5,455.5,312.7,453.5,311.5z"/>
		</g>
		<polygon id="el0hxclb6jnx8" class="st2" points="369.2,180 369.2,263.8 310.4,297.7 296.6,221.9 		"/>
		<g id="elcncpbeizanu">
			<polyline class="st16" points="296.6,221.9 369.2,180 369.2,263.8 310.4,297.7 296.6,221.9 			"/>
		</g>
		<polygon id="elddv55rfpcpq" class="st2" points="476.4,241.8 462.5,317.7 369.2,263.8 369.2,180 		"/>
		<g id="elyt5nri744kr">
			<polygon class="st12" points="476.4,241.8 462.5,317.7 369.2,263.8 369.2,180 			"/>
		</g>
		<path id="ely71cppi6k6i" class="st7" d="M481.1,241.8h-4.8L369.2,180l-72.6,41.9l1.1,0.6l-5.8-0.6c0.1-0.9,0.7-1.7,1.5-2.1
			l72.1-41.7c2.3-1.2,5.1-1.2,7.4,0l106.7,61.6C480,239.9,481.1,240.8,481.1,241.8z"/>
		<path id="el1d048mm7wk8" class="st2" d="M422.5,148.8l-2.5-4.6c1.8-0.9,3.9-0.9,5.7,0.1h0c1.6,1.1,2.4,3,2,4.9
			c-2.8,11.6-12.5,52.8-12.8,53.2l-4.3-2.5L422.5,148.8z"/>
		<g id="elhu1cdybd8kr">
			<path class="st17" d="M422.5,148.8l-2.5-4.6c1.8-0.9,3.9-0.9,5.7,0.1h0c1.6,1.1,2.4,3,2,4.9c-2.8,11.6-12.5,52.8-12.8,53.2
				l-4.3-2.5L422.5,148.8z"/>
		</g>
		<path id="el5e051lkfhsx" class="st2" d="M429.3,146.4c1.7,1.1,2.8,2.9,3.2,4.8l9.4,66.7l-4.7-2.7l-9.9-65.6l-3.5-3.1
			C425.5,145.6,427.5,145.6,429.3,146.4z"/>
		<polygon id="el0kiz0gl2g7k" class="st2" points="345.4,187.3 346.9,192.6 422.5,148.8 419.9,144.2 		"/>
		<g id="el67x8ovehf4">
			<polygon class="st17" points="345.4,187.3 346.9,192.6 422.5,148.8 419.9,144.2 			"/>
		</g>
		<polygon id="elh8o2pp0ac3m" class="st2" points="423.7,146.5 427.2,149.6 349.7,194.8 346.9,190.5 		"/>
		<g id="eles3u8tso4m">
			<path class="st18" d="M348.6,259.5c10.4,6,27.1,6,37.5,0s10.4-15.7,0-21.7s-27.1-6-37.5,0S338.3,253.6,348.6,259.5z"/>
		</g>
		<path id="elea99zwksixb" class="st19" d="M392.4,248.6L392.4,248.6v-44.7h-44.8v44.7l0,0c-0.2,3.4,2,6.9,6.5,9.5
			c8.7,5,22.9,5,31.7,0C390.4,255.5,392.6,252,392.4,248.6z"/>
		<path id="elwuw3ufy76rk" class="st10" d="M354.2,213c8.7,5.1,22.9,5.1,31.7,0s8.7-13.2,0-18.3s-22.9-5-31.7,0
			S345.5,207.9,354.2,213z"/>
		<path id="eljj5wfu9j0cp" class="st19" d="M355.2,212.2c8.2,4.6,21.5,4.6,29.7,0s8.2-12.2,0-16.8s-21.5-4.6-29.7,0
			S347,207.6,355.2,212.2z"/>
		<path id="elba3jugliu6e" class="st0" d="M384.9,197.6c-8.2-4.6-21.5-4.6-29.7,0c-3.6,2-5.6,4.6-6.1,7.3c0.4,2.7,2.5,5.3,6.1,7.3
			c8.2,4.6,21.5,4.6,29.7,0c3.6-2.1,5.6-4.6,6.1-7.3C390.5,202.3,388.5,199.7,384.9,197.6z"/>
		<path id="elxgh3npfvji" class="st2" d="M347.6,241c0,3.3,2.1,6.7,6.6,9.2c8.7,5,22.9,5,31.7,0c4.4-2.5,6.6-5.8,6.6-9.1v-29.9
			c0,3.3-2.2,6.6-6.6,9.1c-8.8,5-22.9,5-31.7,0c-4.4-2.5-6.6-5.9-6.6-9.2V241z"/>
		<g id="elnaks6w14o7h">
			<path class="st20" d="M347.6,241c0,3.3,2.1,6.7,6.6,9.2c8.7,5,22.9,5,31.7,0c4.4-2.5,6.6-5.8,6.6-9.1v-29.9
				c0,3.3-2.2,6.6-6.6,9.1c-8.8,5-22.9,5-31.7,0c-4.4-2.5-6.6-5.9-6.6-9.2V241z"/>
		</g>
		<g id="el8bj9xgrpyix">
			<path class="st18" d="M379.2,260.8c-8.2,2.1-18.2,1.3-25-2.7c-4.5-2.6-6.7-6.1-6.5-9.6l0,0v-44.7c0,3.3,2.2,6.6,6.6,9.1
				c0.7,0.4,1.4,0.8,2.2,1.1V254C356.4,257.7,368.8,262.2,379.2,260.8z"/>
		</g>
		<path id="ellbycy4n3ddo" class="st1" d="M375.1,211.8l-2.4-1.4c-1.9-1.1-2.5-2.6-1.1-3.4s3.9-0.4,5.8,0.7l2.4,1.4
			c1.9,1.1,2.5,2.6,1.1,3.4S377.1,212.9,375.1,211.8z"/>
		<ellipse id="ele0r3dfi5vv" class="st0" cx="373.9" cy="208.4" rx="1.8" ry="1"/>
		<path id="elrxolviz7nd8" class="st0" d="M377.4,211.7c0.8,0.4,1.7,0.4,2.5,0c0.4-0.1,0.6-0.6,0.5-1c-0.1-0.2-0.3-0.4-0.5-0.5
			c-0.8-0.4-1.7-0.4-2.5,0c-0.4,0.1-0.6,0.6-0.5,1C377,211.4,377.1,211.6,377.4,211.7z"/>
		<g id="freepik--Bread--inject-138">
			<path id="elz4et3jmivy7" class="st21" d="M423.7,275.4c4-24.6,11.5-55.9,26.7-79.2s29.4-26.2,33.2-8.4s-10,68-19.5,88.8
				C439.3,331.4,419.2,302.8,423.7,275.4z"/>
			<g id="ell3cpatzkh1">
				<g class="st22">
					<path id="ell9t77cshijh" class="st23" d="M478.7,190.1c0,0-0.5,0.2-1.3,0.6s-2,0.8-3.4,1.3c-0.7,0.3-1.4,0.5-2.2,0.8
						s-1.6,0.6-2.4,0.9l-5.2,1.9l-2.6,1c-0.9,0.4-1.7,0.7-2.6,1l-2.4,1c-0.8,0.3-1.5,0.6-2.2,0.9c-1.3,0.6-2.5,1-3.3,1.3
						s-1.3,0.5-1.3,0.5s0.3-0.4,0.9-1.1c0.8-0.9,1.7-1.8,2.6-2.6c0.6-0.5,1.2-1,1.9-1.5c0.7-0.6,1.5-1.1,2.3-1.5
						c0.8-0.5,1.7-1,2.6-1.4c0.9-0.5,1.8-0.8,2.8-1.2s1.9-0.7,2.9-0.9s1.9-0.5,2.9-0.7c1.7-0.3,3.4-0.5,5.2-0.5
						C475.3,189.6,477,189.7,478.7,190.1z"/>
				</g>
			</g>
			<g id="elune819pjlr7">
				<g class="st22">
					<path id="elu59uw7vxafo" class="st23" d="M456.9,279.7c0,0-0.5,0.2-1.3,0.6s-2,0.8-3.4,1.3c-0.7,0.3-1.4,0.5-2.2,0.8
						s-1.6,0.6-2.5,0.9l-5.2,2l-2.6,1c-0.9,0.4-1.7,0.6-2.6,1l-2.4,1c-0.8,0.3-1.5,0.6-2.2,0.9c-1.3,0.6-2.5,1-3.3,1.3
						s-1.3,0.5-1.3,0.5s0.3-0.4,0.9-1.1c0.8-0.9,1.7-1.8,2.6-2.6c0.6-0.5,1.2-1,1.9-1.5c0.7-0.6,1.5-1.1,2.3-1.6
						c0.8-0.5,1.7-1,2.6-1.4s1.8-0.8,2.8-1.2s1.9-0.7,2.9-1s1.9-0.5,2.9-0.7c1.7-0.3,3.4-0.5,5.2-0.5
						C453.6,279.1,455.3,279.3,456.9,279.7z"/>
				</g>
			</g>
			<g id="els7hbpoeat8">
				<g class="st22">
					<path id="elbzze3myxyz7" class="st23" d="M477.9,205.3c0,0-0.6,0.3-1.6,0.7s-2.4,1.1-4.1,1.8c-3.4,1.4-7.9,3.1-12.4,4.8
						l-12.5,4.5l-4.2,1.5c-1,0.4-1.7,0.6-1.7,0.6s0.4-0.5,1.1-1.4c0.4-0.5,0.9-1,1.4-1.5c0.6-0.6,1.3-1.2,2-1.7
						c3.6-2.9,7.7-5.1,12.1-6.6c4.3-1.7,8.9-2.7,13.5-3c1.5-0.1,3.1-0.1,4.6,0C477.3,205.2,477.9,205.3,477.9,205.3z"/>
				</g>
			</g>
			<g id="eln466gcbsu1q">
				<g class="st22">
					<path id="elkrrei0xm1mh" class="st23" d="M472.4,223.5c0,0-0.6,0.3-1.6,0.8s-2.4,1.2-4.1,2c-3.4,1.5-7.8,3.3-12.3,5l-3.4,1.2
						c-1.1,0.4-2.2,0.8-3.3,1.1l-5.9,1.9l-4.3,1.4c-1.1,0.3-1.7,0.5-1.7,0.5c0.3-0.5,0.7-1,1-1.5c0.4-0.5,0.9-1.1,1.3-1.5
						c0.6-0.6,1.2-1.3,1.9-1.8c3.6-3,7.7-5.3,12.1-6.9c4.4-1.6,8.9-2.6,13.6-2.8c1.6,0,3.1,0,4.7,0.2
						C471.8,223.4,472.4,223.5,472.4,223.5z"/>
				</g>
			</g>
			<g id="elfajpmeapl64">
				<g class="st22">
					<path id="elhhfskjv7c2" class="st23" d="M461.4,261.4c0,0-0.5,0.3-1.4,0.7s-2.1,1.1-3.7,1.8c-3,1.4-7,3-11,4.5l-3,1.1
						c-1,0.4-2,0.7-2.9,1l-5.3,1.8l-3.9,1.2c-1,0.3-1.5,0.4-1.5,0.4s0.3-0.5,0.9-1.3c0.4-0.5,0.8-1,1.2-1.4c0.5-0.6,1.1-1.1,1.7-1.6
						c3.2-2.7,6.9-4.8,10.9-6.2c3.9-1.5,8-2.3,12.2-2.5c1.4,0,2.8,0,4.2,0.2C460.8,261.2,461.4,261.4,461.4,261.4z"/>
				</g>
			</g>
			<g id="eliykonm7uat">
				<g class="st22">
					<path id="elz4it6vlg07" class="st23" d="M467.6,242.1c0,0-0.6,0.3-1.6,0.8s-2.4,1.2-4.1,2c-3.4,1.5-7.8,3.3-12.3,5l-3.4,1.2
						c-1.1,0.4-2.2,0.8-3.3,1.1l-5.9,1.9l-4.3,1.3c-1.1,0.3-1.7,0.5-1.7,0.5s0.4-0.6,1-1.5c0.4-0.6,0.9-1.1,1.4-1.6
						c0.6-0.6,1.2-1.3,1.9-1.8c3.6-3,7.7-5.3,12.1-6.9c4.4-1.6,8.9-2.6,13.6-2.8c1.6,0,3.1,0,4.7,0.2
						C466.5,241.8,467.1,242,467.6,242.1z"/>
				</g>
			</g>
		</g>
		<g id="freepik--wine-bottle--inject-138_1_">
			<g id="freepik--shadow--inject-138_8_">
				<ellipse class="st9" cx="411.3" cy="290.1" rx="24.7" ry="14.3"/>
			</g>
			<g id="freepik--wine-bottle--inject-138">
				<path id="elqqrhulp41op" class="st2" d="M419.3,174.3v-20.5l-6.6,0.3l-6.6-0.3v20.5c0,8.2-2.9,16.1-8.4,22.2
					c-3.3,3.7-6.5,9.7-6.6,19.3v69l0,0c0,4.6,4.6,9.4,13.6,11.6c5.3,1.3,10.8,1.3,16.1,0c9-2.2,13.5-6.9,13.5-11.6l0,0v-69
					c-0.1-9.5-3.3-15.5-6.6-19.3C422.2,190.3,419.3,182.4,419.3,174.3z"/>
				<g id="elhyv9znj0bx5">
					<path class="st15" d="M419.3,174.3v-20.5l-6.6,0.3l-6.6-0.3v20.5c0,8.2-2.9,16.1-8.4,22.2c-3.3,3.7-6.5,9.7-6.6,19.3v69l0,0
						c0,4.6,4.6,9.4,13.6,11.6c5.3,1.3,10.8,1.3,16.1,0c9-2.2,13.5-6.9,13.5-11.6l0,0v-69c-0.1-9.5-3.3-15.5-6.6-19.3
						C422.2,190.3,419.3,182.4,419.3,174.3z"/>
				</g>
				<path id="el1vsnuxt5x3c" class="st5" d="M419.3,151.5c0-0.1,0-0.1,0-0.2c0-1.2-0.8-2.4-1.9-2.9c-2.9-1.5-6.4-1.5-9.4,0
					c-0.7,0.4-1.3,1-1.7,1.8c0,0.1-0.1,0.1-0.1,0.2c0,0,0,0.1,0,0.1c-0.1,0.1-0.1,0.3-0.1,0.4v10c0.1,1.2,0.8,2.2,1.9,2.7
					c2.9,1.5,6.4,1.5,9.4,0c0.9-0.5,1.6-1.3,1.9-2.3c0-0.1,0.1-0.1,0.1-0.2L419.3,151.5z"/>
				<path id="elwt406omuqr" class="st7" d="M417.4,153.9c-2.9,1.5-6.4,1.5-9.4,0c-2.6-1.5-2.6-3.9,0-5.4c2.9-1.5,6.4-1.5,9.4,0
					C420,150,420,152.4,417.4,153.9z"/>
				<path id="el0qbdn53i0dh" class="st4" d="M434.3,217.8v37.6c0,3.2-2.1,6.4-6.3,8.8c-6.6,3.8-16.5,4.6-24.5,2.4V229
					c8,2.2,17.9,1.4,24.5-2.4C432.2,224.2,434.3,221,434.3,217.8z"/>
			</g>
		</g>
		<g id="freepik--apple--inject-138_1_">
			<path id="elb7jv7lokbvd" class="st24" d="M320.6,254.3c-4.2,0.7-11.5,2-15.1,11.9c-4.1,11.3,2.4,24.1,11,28.9
				c10.8,6.1,26.6,4.9,35-4.5c9.3-10.4,8.3-28.2,0.5-35.3s-18.4-3.8-21.1-2.3C326.9,255.2,323.9,253.7,320.6,254.3z"/>
			<g id="el4ej878bb4mt">
				<path class="st9" d="M345.5,289c-10.4,7.1-25.5,6.7-35.3,0.7c1.7,2.2,3.9,4,6.3,5.4c10.8,6.1,26.6,4.9,35-4.5
					c7.1-7.9,8.2-20,4.9-28.5C357.1,264.4,356.8,281.2,345.5,289z"/>
			</g>
			<g id="el7s5ezgegn2u">
				<g class="st25">
					<path id="eln7w4k31lis8" class="st4" d="M316.6,258.5c-2.8,0-6.5,2.9-8.2,6.8c-2.1,4.9-1.8,11.4-0.5,16.1
						c2.6,9.4,12.3,13.5,13.1,12.6s-6.5-6.5-3.8-16.4C320,267.5,321.1,258.4,316.6,258.5z"/>
				</g>
			</g>
			<g id="elwezsipql6t">
				<g class="st25">
					<path id="el4fethlv9e9x" class="st4" d="M314.6,260.2c-2.7,1.2-5.5,6-6,9.2s0.1,5.3,0.6,5.6c0.8,0.6,5.9-5.5,7.5-8.2
						C319,263.1,318.9,258.3,314.6,260.2z"/>
				</g>
			</g>
			<path id="el91t3l6fzv1j" class="st26" d="M325.8,262c-1.6-1-3.1-1.5-3.6,0.4s3.7,4.3,7.9,2.5s5.5-4.7,5.2-6.2c0,0-1.7,3.3-4.6,4
				C329.1,263.1,327.3,262.8,325.8,262z"/>
			<path id="elwneknyngkkb" class="st5" d="M330,263.8c-0.5-4.1-1.6-8-3.2-11.8c-2.5-5.4-6.4-9-7.4-9.3c-1.6-0.4-3.2-0.5-4.9-0.2
				c-2.2,0.3-4.8,2-3.9,2.8s4.1,1.1,8.4,4.4s8.8,10,9.2,14.3C328.8,264.2,329.5,264.2,330,263.8z"/>
			<path id="elafaijvb6nh" class="st7" d="M319.2,242.6l-0.2-0.1l0,0c-1.5-0.3-3-0.3-4.4-0.1c-1.5,0.1-3,0.8-4,2
				c-0.1,0.3,0.4,0.7,2.5,0.8c2,0.1,4-0.3,5.9-1.1C319.7,243.8,319.9,243,319.2,242.6z"/>
			<g id="elh6xfvhy1qb8">
				<path class="st9" d="M326.4,257c-2.3-4.9-8.1-8.6-11.9-10l0,0c1.6,0.7,3.2,1.6,4.6,2.7c4.3,3.3,8.8,10,9.2,14.3
					c0.6,0.3,1.3,0.2,1.8-0.2c0,0-0.1-1.5-0.6-3.7C329.5,262.1,328.5,261.5,326.4,257z"/>
			</g>
			<path id="eld4l4vnl9cug" class="st2" d="M328,255.1c3.8,0.2,7.3-1.7,9.4-4.8c2.7-4.4,0.1-9.5,0.1-9.5c-3.2-0.2-6.3,1.1-8.4,3.6
				C326.7,247.4,326.9,252.8,328,255.1z"/>
			<g id="elwfdvy9wxp7h">
				<path class="st12" d="M328,255.1c3.8,0.2,7.3-1.7,9.4-4.8c2.7-4.4,0.1-9.5,0.1-9.5c-3.2-0.2-6.3,1.1-8.4,3.6
					C326.7,247.4,326.9,252.8,328,255.1z"/>
			</g>
			<path id="elznp5vgxmi7j" class="st2" d="M337.6,240.8c-3.2-0.2-6.3,1.1-8.4,3.6c-2.5,3.1-2.3,8.4-1.2,10.7
				C329.8,247,337.6,240.8,337.6,240.8z"/>
		</g>
		<g id="freepik--apple--inject-138_2_">
			<g id="el2j7645naakb">
				<path class="st3" d="M311.4,265.5c8,5,22.4,4.9,32.2-0.3s11.1-13.4,3-18.5s-22.5-4.9-32.2,0.3S303.4,260.5,311.4,265.5z"/>
			</g>
			<path id="elfvowkz90cpk" class="st24" d="M316.7,217.6c-4.2,0.7-11.5,2-15.1,11.9c-4.1,11.3,2.4,24.1,11,28.9
				c10.8,6.1,26.6,4.9,35-4.5c9.3-10.4,8.3-28.2,0.5-35.3s-18.4-3.8-21.1-2.3C323,218.6,319.9,217.1,316.7,217.6z"/>
			<g id="elruicbpsamd">
				<path class="st9" d="M341.5,252.3c-10.4,7.1-25.5,6.7-35.3,0.7c1.7,2.2,3.9,4,6.3,5.4c10.8,6.1,26.6,4.9,35-4.5
					c7.1-7.9,8.2-20,4.9-28.5C353.1,227.8,352.9,244.5,341.5,252.3z"/>
			</g>
			<g id="el4v4cp0zlkad">
				<g class="st25">
					<path id="elmrb9v87mu58" class="st4" d="M312.6,221.8c-2.8,0-6.5,2.9-8.2,6.8c-2.1,4.9-1.8,11.4-0.5,16.1
						c2.6,9.4,12.3,13.5,13.1,12.6s-6.5-6.5-3.8-16.4C316.1,230.9,317.2,221.7,312.6,221.8z"/>
				</g>
			</g>
			<g id="elq6e9rt44x3j">
				<g class="st25">
					<path id="el2wveb19oeuj" class="st4" d="M310.7,223.6c-2.7,1.2-5.5,6-6,9.2s0.1,5.3,0.6,5.6c0.8,0.6,5.9-5.5,7.5-8.2
						C315,226.5,315,221.6,310.7,223.6z"/>
				</g>
			</g>
			<path id="el099ka3wl6fi5" class="st26" d="M321.9,225.3c-1.6-1-3-1.5-3.6,0.4s3.7,4.3,7.9,2.5s5.5-4.7,5.2-6.2c0,0-1.7,3.3-4.6,4
				C325.2,226.4,323.4,226.2,321.9,225.3z"/>
			<path id="elsm4ry47leyg" class="st5" d="M326.1,227.1c-0.5-4.1-1.5-8-3.2-11.8c-2.5-5.4-6.4-9-7.4-9.3c-1.6-0.4-3.2-0.5-4.9-0.2
				c-2.2,0.3-4.8,2-4,2.8s4.1,1.1,8.4,4.4s8.8,10,9.2,14.3C324.9,227.6,325.5,227.5,326.1,227.1z"/>
			<path id="elpaylo7px6w" class="st7" d="M315.3,206l-0.2-0.1l0,0c-1.5-0.3-3-0.3-4.4-0.1c-1.5,0.1-3,0.9-4,2
				c-0.1,0.3,0.4,0.7,2.5,0.8c2,0.1,4-0.3,5.9-1.1C315.8,207.1,316,206.3,315.3,206z"/>
			<g id="elul54wawyx9b">
				<path class="st9" d="M322.4,220.3c-2.3-4.9-8.1-8.6-11.9-10l0,0c1.6,0.7,3.2,1.6,4.6,2.7c4.3,3.3,8.8,10,9.2,14.3
					c0.6,0.3,1.3,0.2,1.8-0.2c0,0-0.1-1.5-0.6-3.7C325.6,225.5,324.5,224.8,322.4,220.3z"/>
			</g>
			<path id="elrf4cu1im9t" class="st2" d="M324.1,218.4c3.8,0.2,7.3-1.7,9.4-4.8c2.7-4.4,0.1-9.5,0.1-9.5c-3.2-0.2-6.3,1.1-8.4,3.6
				C322.8,210.8,323,216.1,324.1,218.4z"/>
			<g id="elqunq4eiux89">
				<path class="st12" d="M324.1,218.4c3.8,0.2,7.3-1.7,9.4-4.8c2.7-4.4,0.1-9.5,0.1-9.5c-3.2-0.2-6.3,1.1-8.4,3.6
					C322.8,210.8,323,216.1,324.1,218.4z"/>
			</g>
			<path id="el6d28hn2de8w" class="st2" d="M333.6,204.1c-3.2-0.2-6.3,1.1-8.4,3.6c-2.5,3.1-2.3,8.4-1.2,10.7
				C325.8,210.3,333.6,204.1,333.6,204.1z"/>
		</g>
		<g id="freepik--Eggs--inject-138">
			<path id="el3b0p2s7gm6y" class="st2" d="M356.1,282.5c0,6.4-5.2,13.6-11.6,13.6s-11.5-7.2-11.5-13.6c0.2-6.4,5.5-11.4,11.9-11.2
				C351,271.4,355.9,276.4,356.1,282.5L356.1,282.5z"/>
			<g id="el9qi78rotsyk">
				<path class="st27" d="M356.1,282.5c0,6.4-5.2,13.6-11.6,13.6s-11.5-7.2-11.5-13.6c0.2-6.4,5.5-11.4,11.9-11.2
					C351,271.4,355.9,276.4,356.1,282.5L356.1,282.5z"/>
			</g>
			<path id="elyk31fzgs6c" class="st2" d="M376.8,294.5c0,6.4-5.2,13.6-11.5,13.6s-11.5-7.2-11.5-13.6c0-6.4,5.2-11.5,11.6-11.5
				C371.6,282.9,376.8,288.1,376.8,294.5L376.8,294.5z"/>
			<g id="eluhks1hfp7pb">
				<path class="st27" d="M376.8,294.5c0,6.4-5.2,13.6-11.5,13.6s-11.5-7.2-11.5-13.6c0-6.4,5.2-11.5,11.6-11.5
					C371.6,282.9,376.8,288.1,376.8,294.5L376.8,294.5z"/>
			</g>
			<path id="el014mvve7b5y6q" class="st2" d="M397.5,306.4c0,6.4-5.2,13.6-11.5,13.6s-11.5-7.2-11.5-13.6c0-6.4,5.2-11.5,11.6-11.5
				C392.3,294.9,397.5,300,397.5,306.4L397.5,306.4z"/>
			<g id="el1jsncw8u1e8">
				<path class="st27" d="M397.5,306.4c0,6.4-5.2,13.6-11.5,13.6s-11.5-7.2-11.5-13.6c0-6.4,5.2-11.5,11.6-11.5
					C392.3,294.9,397.5,300,397.5,306.4L397.5,306.4z"/>
			</g>
			<path id="el9g9mi05i58v" class="st2" d="M418.2,318.4c0,6.4-5.2,13.6-11.5,13.6s-11.6-7.2-11.6-13.6c0.2-6.4,5.5-11.4,11.9-11.2
				C413.1,307.4,418,312.3,418.2,318.4z"/>
			<g id="elgsf75f4aup">
				<path class="st27" d="M418.2,318.4c0,6.4-5.2,13.6-11.5,13.6s-11.6-7.2-11.6-13.6c0.2-6.4,5.5-11.4,11.9-11.2
					C413.1,307.4,418,312.3,418.2,318.4z"/>
			</g>
			<path id="el8fggzg7v3lh" class="st2" d="M441.1,305c0,6.4-5.2,13.6-11.5,13.6S418,311.4,418,305c0.2-6.4,5.5-11.4,11.9-11.2
				C436,294,440.9,298.9,441.1,305L441.1,305z"/>
			<g id="elejcuu91tvm">
				<path class="st27" d="M441.1,305c0,6.4-5.2,13.6-11.5,13.6S418,311.4,418,305c0.2-6.4,5.5-11.4,11.9-11.2
					C436,294,440.9,298.9,441.1,305L441.1,305z"/>
			</g>
			<path id="eltoyeu2r1yrc" class="st2" d="M454,298c-0.1-0.9-0.7-1.8-1.5-2.1l-80.9-46.8c-2.3-1.2-5.1-1.2-7.4,0l-41.1,23.7
				c-0.9,0.4-1.4,1.2-1.5,2.1c0,0.7,0,3.3,0,4c0.1,0.9,0.7,1.7,1.5,2.1l80.9,46.8c2.3,1.2,5.1,1.2,7.4,0l41.1-23.7
				c0.9-0.4,1.4-1.2,1.5-2.1V298z"/>
			<g id="elvms5gf62dp">
				<path class="st14" d="M454,298c-0.1-0.9-0.7-1.8-1.5-2.1l-80.9-46.8c-2.3-1.2-5.1-1.2-7.4,0l-41.1,23.7
					c-0.9,0.4-1.4,1.2-1.5,2.1c0,0.7,0,3.3,0,4c0.1,0.9,0.7,1.7,1.5,2.1l80.9,46.8c2.3,1.2,5.1,1.2,7.4,0l41.1-23.7
					c0.9-0.4,1.4-1.2,1.5-2.1V298z"/>
			</g>
			<g id="elrrglbzr7zhq">
				<path class="st9" d="M407.9,324.7v4c-1.3,0-2.6-0.3-3.8-0.9l-80.9-46.8c-0.9-0.4-1.4-1.2-1.5-2.1c0-0.7,0-3.3,0-4
					c0.1,0.9,0.7,1.7,1.5,2.1l80.9,46.8C405.3,324.5,406.5,324.8,407.9,324.7z"/>
			</g>
			<path id="elj2pib3d3duk" class="st2" d="M323.1,272.8l41.1-23.7c2.3-1.2,5.1-1.2,7.4,0l80.9,46.8c2,1.2,2,3.1,0,4.3l-41.1,23.7
				c-2.3,1.2-5.1,1.2-7.4,0l-80.9-46.8C321.1,275.9,321.1,274,323.1,272.8z"/>
			<g id="el3f9jun442ri">
				<path class="st9" d="M414.6,315.2c4.4-2.5,4.4-6.7,0-9.2s-11.5-2.5-16,0s-4.5,6.7,0,9.2C403.7,317.7,409.6,317.7,414.6,315.2z"
					/>
			</g>
			<g id="el6ekikion6xm">
				<path class="st9" d="M437.5,302c4.4-2.5,4.4-6.7,0-9.2s-11.5-2.5-16,0s-4.5,6.7,0,9.2S433.1,304.5,437.5,302z"/>
			</g>
			<g id="el7p0gbihtow">
				<path class="st9" d="M393.9,303.2c4.4-2.5,4.4-6.7,0-9.2s-11.5-2.5-16,0s-4.5,6.7,0,9.2S389.5,305.7,393.9,303.2z"/>
			</g>
			<g id="elcc8p0qp8f34">
				<path class="st9" d="M416.8,290c4.4-2.5,4.4-6.7,0-9.2s-11.5-2.5-16,0s-4.5,6.7,0,9.2C405.8,292.6,411.8,292.6,416.8,290z"/>
			</g>
			<g id="el8x4u31qik2e">
				<path class="st9" d="M373.2,291.2c4.4-2.5,4.4-6.7,0-9.2s-11.5-2.5-16,0s-4.5,6.7,0,9.2S368.8,293.8,373.2,291.2z"/>
			</g>
			<g id="elz98meb8rsv">
				<path class="st9" d="M396.1,278c4.4-2.5,4.4-6.7,0-9.2s-11.6-2.5-16,0s-4.5,6.7,0,9.2S391.7,280.6,396.1,278z"/>
			</g>
			<g id="elpmm73smm1lp">
				<path class="st9" d="M352.5,279.3c4.4-2.5,4.4-6.7,0-9.2s-11.5-2.5-16,0s-4.5,6.7,0,9.2C341.5,281.8,347.5,281.8,352.5,279.3z"
					/>
			</g>
			<g id="el4n80ipen875">
				<path class="st9" d="M375.4,266c4.4-2.5,4.4-6.7,0-9.2s-11.5-2.5-16,0s-4.5,6.7,0,9.2S370.9,268.6,375.4,266z"/>
			</g>
			<path id="elctcrc19hhoe" class="st10" d="M440.2,297.2c0,0.2,0,0.4,0,0.5c0,0.8-0.2,1.5-0.4,2.2c-0.6,0.8-1.5,1.5-2.4,2
				c-4.4,2.6-11.6,2.6-16,0c-0.9-0.5-1.7-1.2-2.4-2c-0.2-0.7-0.3-1.5-0.4-2.3c0-0.2,0-0.4,0-0.5s0-0.4,0-0.5c0-0.5,0-1,0.1-1.4
				c0.5-5,2.7-9.6,6.2-13.1c2.5-2.5,6.4-2.5,8.9,0c3.5,3.5,5.7,8.1,6.2,13.1c0,0.5,0.1,1,0.1,1.5C440.2,296.8,440.2,297,440.2,297.2
				z"/>
			<path id="el9rnq2uzv5b" class="st10" d="M419.5,285.2c0,0.2,0,0.4,0,0.5c0,0.8-0.1,1.5-0.4,2.2c-0.6,0.8-1.4,1.5-2.4,2
				c-5,2.6-11,2.6-16,0c-0.9-0.5-1.7-1.2-2.4-2c-0.2-0.7-0.3-1.5-0.4-2.3c0-0.2,0-0.4,0-0.5s0-0.4,0-0.5c0-0.5,0-1,0.1-1.4
				c0.5-5,2.7-9.6,6.2-13.2c2.5-2.5,6.4-2.5,8.9,0c3.5,3.5,5.7,8.1,6.2,13.1c0,0.5,0.1,1,0.1,1.5C419.5,284.8,419.5,285,419.5,285.2
				z"/>
			<path id="elhfo9ro5h1ys" class="st10" d="M417.4,310.4c0,0.2,0,0.4,0,0.5c0,0.8-0.2,1.5-0.4,2.2c-0.6,0.8-1.4,1.5-2.4,2
				c-4.4,2.6-11.6,2.6-16,0c-0.9-0.5-1.7-1.2-2.4-2c-0.2-0.7-0.3-1.5-0.4-2.3c0-0.2,0-0.4,0-0.5s0-0.4,0-0.5c0-0.5,0-1,0.1-1.4
				c0.5-5,2.6-9.7,6.2-13.2c2.5-2.5,6.4-2.5,8.9,0c3.5,3.5,5.7,8.1,6.2,13.1c0,0.5,0.1,1,0.1,1.5C417.4,310,417.4,310.2,417.4,310.4
				z"/>
			<path id="elq7sqa37aarm" class="st10" d="M396.7,298.4c0,0.2,0,0.4,0,0.5c0,0.8-0.1,1.5-0.4,2.2c-0.6,0.8-1.4,1.5-2.4,2
				c-5,2.6-11,2.6-16,0c-0.9-0.5-1.7-1.2-2.4-2c-0.2-0.7-0.3-1.5-0.4-2.3c0-0.2,0-0.4,0-0.5s0-0.4,0-0.5c0-0.5,0-1,0.1-1.4
				c0.5-5,2.6-9.7,6.2-13.2c2.5-2.5,6.4-2.5,8.9,0c3.5,3.5,5.7,8.1,6.2,13.1c0,0.5,0.1,1,0.1,1.5C396.7,298,396.7,298.2,396.7,298.4
				z"/>
			<path id="eli91897fz8b" class="st10" d="M398.8,273.2c0,0.2,0,0.4,0,0.5c0,0.8-0.2,1.5-0.4,2.2c-0.6,0.8-1.5,1.5-2.4,2
				c-4.4,2.6-11.6,2.6-16,0c-0.9-0.5-1.7-1.2-2.4-2c-0.2-0.7-0.3-1.5-0.4-2.3c0-0.2,0-0.4,0-0.5s0-0.4,0-0.5c0-0.5,0-1,0.1-1.4
				c0.5-5,2.7-9.6,6.2-13.2c2.5-2.5,6.4-2.5,8.9,0c3.5,3.5,5.7,8.1,6.2,13.1c0,0.5,0.1,1,0.1,1.5C398.8,272.8,398.8,273,398.8,273.2
				z"/>
			<path id="elqk318ov7vu" class="st10" d="M378.1,261.2c0,0.2,0,0.4,0,0.5c0,0.8-0.1,1.5-0.4,2.2c-0.6,0.8-1.5,1.5-2.4,2
				c-4.4,2.5-11.6,2.5-16,0c-0.9-0.5-1.7-1.2-2.4-2c-0.2-0.7-0.3-1.5-0.4-2.3c0-0.2,0-0.4,0-0.5s0-0.4,0-0.5c0-0.5,0-1,0.1-1.4
				c0.5-5,2.6-9.7,6.2-13.2c2.5-2.5,6.4-2.5,8.9,0c3.5,3.5,5.7,8.1,6.2,13.1c0,0.5,0.1,1,0.1,1.5C378.1,260.8,378.1,261,378.1,261.2
				z"/>
			<path id="el0269mj9jivk3" class="st10" d="M376,286.4c0,0.2,0,0.4,0,0.5c0,0.8-0.1,1.5-0.4,2.2c-0.6,0.8-1.4,1.5-2.4,2
				c-4.4,2.6-11.6,2.6-16,0c-0.9-0.5-1.7-1.2-2.4-2c-0.2-0.7-0.3-1.5-0.4-2.3c0-0.2,0-0.4,0-0.5s0-0.4,0-0.5c0-0.5,0-1,0.1-1.4
				c0.5-5,2.6-9.7,6.2-13.2c2.5-2.5,6.4-2.5,8.9,0c3.5,3.5,5.7,8.1,6.2,13.1c0,0.5,0.1,1,0.1,1.5C376,286,376,286.2,376,286.4z"/>
			<path id="eltv90elxhmp" class="st10" d="M355.2,274.5c0,0.2,0,0.4,0,0.5c0,0.8-0.1,1.5-0.4,2.2c-0.6,0.8-1.5,1.5-2.4,2
				c-4.4,2.6-11.6,2.6-16,0c-0.9-0.5-1.7-1.2-2.4-2c-0.2-0.7-0.3-1.5-0.4-2.3c0-0.2,0-0.4,0-0.5s0-0.4,0-0.5c0-0.5,0-1,0.1-1.4
				c0.5-5,2.7-9.7,6.2-13.2c2.5-2.5,6.4-2.5,8.9,0c3.5,3.5,5.7,8.2,6.2,13.1c0,0.5,0.1,1,0.1,1.5
				C355.2,274.1,355.2,274.3,355.2,274.5z"/>
		</g>
		<path id="elvragmenotb" class="st2" d="M403.8,283.8l-107.2-61.9l6.2,67.4c0.7,5.2,3.7,9.9,8.1,12.8l85.5,49.4
			c3.7,2.1,9.4,2.3,13.5,0.6l0.3-0.1l0.2-0.1c0.3-0.1,0.5-0.2,0.8-0.4l50.9-29.4c4.4-2.9,7.3-7.5,8.1-12.7l6.2-67.4L403.8,283.8z
			 M329.8,295.7c0,0.8-0.1,1.6-0.5,2.4c-0.8-0.1-1.6-0.3-2.3-0.7l-2.8-1.6c-3.3-2.1-5.3-5.7-5.5-9.6v-24.3c0-0.8,0.1-1.6,0.5-2.4
			c0.8,0.1,1.6,0.3,2.3,0.8l2.8,1.6c3.3,2.1,5.3,5.7,5.5,9.6L329.8,295.7z M357.4,311.7c0,0.8-0.1,1.6-0.5,2.4
			c-0.8-0.1-1.6-0.3-2.3-0.8l-2.8-1.6c-3.3-2.1-5.3-5.7-5.5-9.6v-24.4c0-0.8,0.1-1.6,0.5-2.4c0.8,0.1,1.6,0.3,2.3,0.8l2.8,1.6
			c3.3,2.1,5.3,5.7,5.5,9.6L357.4,311.7z M385.1,327.7c0,0.8-0.2,1.6-0.5,2.4c-0.8-0.1-1.6-0.3-2.3-0.7l-2.8-1.6
			c-3.3-2.1-5.3-5.7-5.5-9.6v-24.4c0-0.8,0.1-1.6,0.5-2.4c0.8,0.1,1.6,0.3,2.3,0.8l2.8,1.6c3.3,2.1,5.3,5.7,5.5,9.6L385.1,327.7z
			 M432.1,319c-0.2,3.9-2.3,7.4-5.5,9.6l-2.8,1.6c-0.7,0.4-1.5,0.7-2.3,0.7c-0.4-0.7-0.5-1.5-0.5-2.4v-24.4c0.2-3.9,2.3-7.5,5.5-9.6
			l2.8-1.6c0.7-0.4,1.5-0.7,2.3-0.7c0.3,0.7,0.5,1.5,0.5,2.4L432.1,319z M456.3,305c-0.2,3.9-2.3,7.4-5.5,9.6l-2.8,1.6
			c-0.7,0.4-1.5,0.7-2.3,0.8c-0.3-0.7-0.5-1.6-0.5-2.4v-24.4c0.2-3.9,2.3-7.4,5.5-9.6l2.8-1.6c0.7-0.4,1.5-0.7,2.3-0.8
			c0.4,0.7,0.5,1.5,0.5,2.4L456.3,305z"/>
		<g id="el8djakos99oh">
			<path class="st28" d="M403.8,283.8l-107.2-61.9l6.2,67.4c0.7,5.2,3.7,9.9,8.1,12.8l85.5,49.4c3.7,2.1,9.4,2.3,13.5,0.6l0.3-0.1
				l0.2-0.1c0.3-0.1,0.5-0.2,0.8-0.4l50.9-29.4c4.4-2.9,7.3-7.5,8.1-12.7l6.2-67.4L403.8,283.8z M329.8,295.7c0,0.8-0.1,1.6-0.5,2.4
				c-0.8-0.1-1.6-0.3-2.3-0.7l-2.8-1.6c-3.3-2.1-5.3-5.7-5.5-9.6v-24.3c0-0.8,0.1-1.6,0.5-2.4c0.8,0.1,1.6,0.3,2.3,0.8l2.8,1.6
				c3.3,2.1,5.3,5.7,5.5,9.6L329.8,295.7z M357.4,311.7c0,0.8-0.1,1.6-0.5,2.4c-0.8-0.1-1.6-0.3-2.3-0.8l-2.8-1.6
				c-3.3-2.1-5.3-5.7-5.5-9.6v-24.4c0-0.8,0.1-1.6,0.5-2.4c0.8,0.1,1.6,0.3,2.3,0.8l2.8,1.6c3.3,2.1,5.3,5.7,5.5,9.6L357.4,311.7z
				 M385.1,327.7c0,0.8-0.2,1.6-0.5,2.4c-0.8-0.1-1.6-0.3-2.3-0.7l-2.8-1.6c-3.3-2.1-5.3-5.7-5.5-9.6v-24.4c0-0.8,0.1-1.6,0.5-2.4
				c0.8,0.1,1.6,0.3,2.3,0.8l2.8,1.6c3.3,2.1,5.3,5.7,5.5,9.6L385.1,327.7z M432.1,319c-0.2,3.9-2.3,7.4-5.5,9.6l-2.8,1.6
				c-0.7,0.4-1.5,0.7-2.3,0.7c-0.4-0.7-0.5-1.5-0.5-2.4v-24.4c0.2-3.9,2.3-7.5,5.5-9.6l2.8-1.6c0.7-0.4,1.5-0.7,2.3-0.7
				c0.3,0.7,0.5,1.5,0.5,2.4L432.1,319z M456.3,305c-0.2,3.9-2.3,7.4-5.5,9.6l-2.8,1.6c-0.7,0.4-1.5,0.7-2.3,0.8
				c-0.3-0.7-0.5-1.6-0.5-2.4v-24.4c0.2-3.9,2.3-7.4,5.5-9.6l2.8-1.6c0.7-0.4,1.5-0.7,2.3-0.8c0.4,0.7,0.5,1.5,0.5,2.4L456.3,305z"
				/>
		</g>
		<g id="elyfuhk0e302">
			<path class="st29" d="M403.8,283.8v63.3c0,4.2,2.6,6.2,6.1,4.9l0.3-0.1l0.2-0.1c0.3-0.1,0.5-0.2,0.8-0.4l50.9-29.4
				c4.4-2.9,7.3-7.5,8.1-12.7l6.2-67.4L403.8,283.8z M432.1,318.9c-0.2,3.9-2.3,7.4-5.5,9.6l-2.8,1.6c-0.7,0.4-1.5,0.7-2.3,0.7
				c-0.4-0.7-0.5-1.5-0.5-2.4v-24.3c0.2-3.9,2.3-7.5,5.5-9.6l2.8-1.6c0.7-0.4,1.5-0.7,2.3-0.7c0.3,0.7,0.5,1.5,0.5,2.4L432.1,318.9z
				 M456.4,304.9c-0.2,3.9-2.3,7.4-5.5,9.6l-2.8,1.6c-0.7,0.4-1.5,0.7-2.3,0.8c-0.3-0.7-0.5-1.6-0.5-2.4v-24.3
				c0.2-3.9,2.3-7.4,5.5-9.6l2.8-1.6c0.7-0.4,1.5-0.7,2.3-0.8c0.4,0.7,0.5,1.5,0.5,2.4L456.4,304.9z"/>
		</g>
		<path id="elt5gkmjik1c9" class="st7" d="M434.9,296.1v24.3c-0.2,3.9-2.3,7.4-5.5,9.6l-2.8,1.6c-2.2,1.3-4.2,0.9-5-0.8
			c0.8-0.1,1.6-0.3,2.3-0.7l2.8-1.6c3.3-2.1,5.3-5.7,5.5-9.6v-24.3c0-0.8-0.1-1.6-0.5-2.4C433.6,292.1,434.9,293.5,434.9,296.1z"/>
		<path id="el66rzgi60bw" class="st7" d="M459.1,282.1v24.3c-0.2,3.9-2.3,7.4-5.5,9.6l-2.8,1.6c-2.2,1.3-4.2,0.9-5-0.8
			c0.8-0.1,1.6-0.3,2.3-0.8l2.8-1.6c3.3-2.1,5.3-5.7,5.5-9.6v-24.3c0-0.8-0.1-1.6-0.5-2.4C457.8,278.1,459.1,279.6,459.1,282.1z"/>
		<path id="elf8gmewet4t4" class="st5" d="M481.1,241.8v8c-0.1,0.9-0.7,1.7-1.5,2.1l-72.1,41.6c-1.1,0.6-2.4,0.9-3.7,0.9v-8
			c1.3,0,2.5-0.3,3.7-0.9l72.1-41.6c0.9-0.4,1.5-1.3,1.5-2.3C481.1,241.8,481.1,241.8,481.1,241.8z"/>
		<path id="elj0fk0cgyfd" class="st6" d="M403.8,286.5v8c-1.3,0-2.6-0.3-3.7-0.9L293.4,232c-0.9-0.4-1.4-1.2-1.5-2.1
			c0-0.8,0-7.2,0-8c0,0,0-0.1,0-0.2c0,1,0.6,1.9,1.5,2.3l106.7,61.6C401.2,286.2,402.5,286.5,403.8,286.5z"/>
		<path id="elppkils3mlih" class="st7" d="M481.1,241.8c-0.1,0.9-0.7,1.7-1.5,2.1l-72.1,41.6c-2.3,1.2-5.1,1.2-7.4,0L293.4,224
			c-0.9-0.4-1.4-1.2-1.5-2.1h4.8l72.6,41.9l34.6,20l72.6-41.9L481.1,241.8z"/>
		<path id="el6urii4eoy8x" class="st5" d="M371.3,295.3v24.3c0.2,3.9,2.3,7.4,5.5,9.6l2.8,1.6c2.2,1.3,4.1,0.9,5-0.8
			c-0.8-0.1-1.6-0.3-2.3-0.8l-2.8-1.6c-3.3-2.1-5.3-5.7-5.5-9.6v-24.3c0-0.8,0.1-1.6,0.5-2.4C372.6,291.3,371.3,292.7,371.3,295.3z"
			/>
		<path id="eltmt18wxvoag" class="st5" d="M343.6,279.3v24.3c0.2,3.9,2.3,7.4,5.5,9.6l2.8,1.6c2.2,1.3,4.1,0.9,5-0.8
			c-0.8-0.1-1.6-0.3-2.3-0.8l-2.8-1.6c-3.3-2.1-5.3-5.7-5.5-9.6v-24.3c0-0.8,0.1-1.6,0.5-2.4C344.9,275.3,343.6,276.8,343.6,279.3z"
			/>
		<path id="elbir801utsvb" class="st5" d="M316,263.4v24.3c0.2,3.9,2.3,7.4,5.5,9.6l2.8,1.6c2.2,1.3,4.2,0.9,5-0.8
			c-0.8-0.1-1.6-0.3-2.3-0.8l-2.8-1.6c-3.3-2.1-5.3-5.7-5.5-9.6v-24.3c0-0.8,0.1-1.6,0.5-2.4C317.3,259.3,316,260.8,316,263.4z"/>
		<path id="elynh05nwujt8" class="st2" d="M327.4,243.6v0.7c0,2.7,0.5,4,2.9,5.3l0,0c1.2,0.7,1.9-0.2,1.9-1.6v-1.7L327.4,243.6z"/>
		<g id="el7mfxoa2r8rk">
			<path class="st17" d="M327.4,243.6v0.7c0,2.7,0.5,4,2.9,5.3l0,0c1.2,0.7,1.9-0.2,1.9-1.6v-1.7L327.4,243.6z"/>
		</g>
		<path id="elesqu9f4cz67" class="st2" d="M341.8,192.1c0.6-2,1.9-3.7,3.6-4.9l1.5,5.4l-14.8,53.7l-4.8-2.8L341.8,192.1z"/>
		<g id="elyedn3vknv88">
			<path class="st17" d="M341.8,192.1c0.6-2,1.9-3.7,3.6-4.9l1.5,5.4l-14.8,53.7l-4.8-2.8L341.8,192.1z"/>
		</g>
		<path id="el8wisn62cgw5" class="st2" d="M347,190.4l2.7,4.4l10,67.5l-5.5-3.2l-9.7-63.8C344.3,193.4,345.3,191.4,347,190.4z"/>
		<path id="elxa52sco805r" class="st2" d="M354.2,259.1v0.7c0,2.7,0.4,4.6,2.7,5.9l0,0c0.9,0.5,2,0.2,2.5-0.7
			c0.2-0.3,0.2-0.6,0.2-0.9v-1.8L354.2,259.1z"/>
	</g>
</g>
<g id="freepik--Dog--inject-138">
	<g id="freepik--dog--inject-138">
		<path id="eloh0ypxih7gj" class="st6" d="M286.4,317.4c0,0-3.9-1.4-4.9-1.4s-2.6,0.6-2.9,2c0,0,2.5,2.4,5.4,2.1
			S286.4,317.4,286.4,317.4z"/>
		<path id="elowdxnxoiyh" class="st6" d="M315.2,312.4c2.3-7.3,2.2-12.2,0.6-15c-1.1-1.9-4.4-2.6-5.8-2.8s-1.9,1-0.6,2.2
			s0.8,2.5,0.1,4c-0.9,1.8-1.9,3.4-3,5L315.2,312.4z"/>
		<path id="elpcbdowxiny" class="st7" d="M285.7,317.3c-0.7,0.1-1.5,0.2-2.2,0.2c-1.3-0.1-2.5-0.5-3.6-1.1c-0.8-0.5-1.4-1.2-1.7-2.1
			c-0.2-0.7-0.2-1.4-0.2-2.1c0-0.6,0.1-1.1,0.2-1.7c0.6-1.4,1.7-2.6,3.1-3.3c2.9-1.8,6-0.2,10.3,0.5c3.3,0.6,9.5-4.6,17.2-1.8
			c7.5,2.7,7.5,10.7,9,17.1c2.5,10.5,4.3,7.9,10.5,18.4c5,8.5,6.7,7,12.3,15.3c2.8,4.1,8.2,11.4,11,20.4c3.5,11.1-0.7,19.3-7.9,23.5
			c-6.4,3.7-9.8,5-18.6,4.3c-4.9-0.4-7.9-2.5-9.8-3.6c-4,2.3-12.5-3.9-15.5-6.2c-5.6-4.3-2.5-8.1,2.5-7c2,0.4,3.9,1.1,5.8,2
			c-1.8-3.6-3.2-7.3-4.2-11.1c-1.1-4.6-0.5-8.6,1.3-9.6c-0.8-0.8-1.6-1.7-2.3-2.6c-0.4,4.2-1.8,16.5-2.1,17.4
			c-0.4,1.3-3,3.8-5.4,3.1s-7.4-2.9-8.1-5c-1-2.9,1.9-3.3,6.8-2v-0.1c-0.1-5.2-0.7-12.8-0.7-18c0-3.1-0.1-6.9-0.3-9.4l0,0l0,0
			c-0.1-1.7-0.2-3.3-0.2-5c0.1-4.2,0.6-8.8,0.6-10.8c-0.1-3.1-0.5-6.3-2.7-8.5s-5.2-3.3-7.8-4.9c-1-0.6-1.9-1.2-2.7-1.9
			c-0.8-0.7-2.3-2.5-1.8-3.7c1.4,0.9,3,1.2,4.6,1c1-0.1,1.9-0.6,2.7-1.3c0.1-0.1,0.1-0.1,0.1-0.3C286,317.4,285.9,317.3,285.7,317.3
			C285.7,317.3,285.7,317.3,285.7,317.3z"/>
		<path id="elnorvgjw1vjf" class="st5" d="M343.6,394.7c-1.1,0.9-1.6,2.4-1.1,3.8c0,0,2.1,3.4,12,4.5c9.4,1,18.6-3,26.7,0
			s4.8,9.2,5.6,10.8s3.2,0.5,3.2-4.4s-3.3-9.3-9.1-10.6s-14.2-0.3-22-0.1c-8,0.1-9.9-3.1-11.2-4.4
			C346.1,392.8,344.6,393.7,343.6,394.7z"/>
		<path id="elwjep2rngfrf" class="st6" d="M281.9,308.6l0.1-0.1c0.1-0.2,0.2-0.4,0.3-0.5c0.2-0.2,0.5-0.3,0.8-0.4
			c0.5-0.1,0.9-0.4,0.7-0.9c-0.1-0.1-0.2-0.2-0.3-0.3c-0.5-0.3-1-0.4-1.5-0.5c-0.6,0-1.3,0.2-1.8,0.6c-1.1,0.6-2,1.4-2.6,2.5
			c-0.3,0.6,0.4,2.4,0.4,2.4c0-0.3,0-0.6,0.1-0.8c0.4-1,2-1.2,2.9-1.5C281.4,308.9,281.7,308.8,281.9,308.6z"/>
		<path id="el9f6j02f0z5h" class="st5" d="M319.6,328.7l-2.1,1.4c0,0-4.2,4.9-13.6,5.3c-3.4,0.2-6.7,0.2-10.1-0.1
			c0.1-0.3,0.2-0.5,0.4-0.7c1.9-2.1,2.5-7.6,0-9.3s-7.7,0.3-12.1-2.3l1,0.6c2.6,1.6,5.5,2.7,7.8,4.9c1.9,1.8,2.5,4.3,2.6,6.8h-0.2
			c0,0.3,0.1,0.5,0.3,0.8c0,0.3,0,0.6,0,0.9c0,0.5,0,1.2-0.1,2l2.1,0.3c9.3,1.4,18.8-1.1,26.1-7.1
			C320.8,331.1,320.1,330,319.6,328.7z"/>
		<path id="el5d119b1q7gm" class="st6" d="M303.5,312.9c-1.5,1.5-3.6,3.4-5.2,5.2c-1.3,1.5-2.4,0.4-3.5-6.7c-1-6-1.5-7-2.6-7.4
			c-0.8-0.3-2.2-0.1-2.4-0.7c-0.5-1.1,1.2-3.1,5.1-3.8C300.9,298.7,305.9,310.6,303.5,312.9z"/>
		<path id="elzodlj4hvgh" class="st2" d="M318.5,325.7c0.2,0.6,0.3,1,0.3,1s-2.9,4.1-12.5,6s-13.2,0.5-13.2,0.5
			c-0.1-0.5-0.2-0.9-0.4-1.4c0,0-0.5,0.4-0.3,2.6c0.1,1.6,0.4,2.3,1.2,2.5c2.7,0.6,8.2,0.6,13.5-0.6c8.2-1.8,12.3-5,13-5.8
			s0.5-1.4-0.2-3S318.9,325.6,318.5,325.7z"/>
		<path id="ellxwrw1zl9t" class="st5" d="M305.2,369.5c2.8-1.6,9.4-0.3,15.4,7.1c0,0-0.3-4.6-5.9-7.9s-9.7-2.2-11.2-1.1L305.2,369.5
			z"/>
		<path id="el2ou98s85c7u" class="st5" d="M306.2,389.3c1.2,0.5,1.9,0.8,1.9,0.8c1.5,3,3.5,6.4,3.5,6.4S307.6,392.8,306.2,389.3z"/>
		<path id="el14650wrfrt1h" class="st5" d="M298.5,388.3c0.4-0.2,0.8-0.3,1.1-0.4c0.3,0.1,0.7,0.2,1,0.4c0.3,0.2,0.6,0.4,0.9,0.6
			c0.1,0.1,0.7,0.6,0.5,0.8s-0.1,0-0.2,0c-0.7-0.5-1.6-0.9-2.4-1.2C299.1,388.5,298.8,388.4,298.5,388.3z"/>
		<path id="el9tlqc39iybl" class="st5" d="M297.1,389.8c0.1-0.2,0.2-0.4,0.3-0.6c1.4,0.3,3,0.7,3.3,2c0,0,0,0.2-0.1,0.2
			c-0.6-0.4-1.2-0.8-1.8-1.1C298.3,390,297.7,389.9,297.1,389.8z"/>
		<path id="el8bhn9n8394t" class="st5" d="M287.7,380.2c0.3-0.2,0.7-0.4,1.1-0.5h0.2c0.6,0.1,1.1,0.4,1.6,0.8c0,0,0,0.1,0,0.1
			c-0.7-0.3-1.5-0.5-2.3-0.5C288.1,380.2,287.9,380.2,287.7,380.2z"/>
		<path id="elvodqnicd1g8" class="st5" d="M287.2,381.1c0-0.2,0.1-0.4,0.2-0.6c0.2,0,0.3,0,0.5,0.1c0.5,0.1,1.2,0.4,1.3,1
			c0,0,0,0.1,0,0.1c-0.5-0.2-1-0.4-1.5-0.5C287.5,381.1,287.3,381.1,287.2,381.1z"/>
	</g>
</g>
<g id="freepik--Character--inject-138">
	<g id="freepik--character--inject-138">
		<path id="elrqxbs66hv1" class="st30" d="M256.4,190c7.4-0.5,12.1,0.5,15.8,9c4.6,10.8,10.6,31,12.2,37.7c0.7,3.1,0.7,5.8-2.4,9.3
			c-6.6,7.6-15.3,16.4-15.3,16.4l-4.7-16.5l5.8-8.5l-6.9-18.8L256.4,190z"/>
		<path id="elp6fzajj9eh" class="st24" d="M267.8,237.3c1.1,2,2.5,3.9,4,5.6c-2.1-0.8-3.8-2.3-4.9-4.2L267.8,237.3z"/>
		<path id="el8np39x38hb3" class="st5" d="M191.3,416.6c-0.4,1.3-0.4,2.6-0.1,3.9c0.4,0.8,2.7,3.3,7.4,4.3s11.2,0,14-0.2
			s11.6,0.9,14.4,1.3c4.4,0.6,7.8-0.4,9.4-2c0.5-0.6,0.8-1.5,0.7-2.3c0-1.1-0.2-2.1-0.5-3.1L191.3,416.6z"/>
		<path id="elhhnzshgetq" class="st2" d="M235.9,413.9c0.1,0.4,0.2,0.7,0.2,1.1c0.4,1.9,0.6,3.8,0.4,5.7c-0.7,1.3-1.9,2.2-3.4,2.5
			c-3.3,1-5.8,0.9-9.5,0.2c-3.7-0.5-7.4-0.8-11.1-0.7c-2.9,0.2-6.9,0.8-9.8,0.5c-2.5-0.1-4.9-0.6-7.2-1.5c-1.9-0.8-3.9-1.9-4.4-3.9
			c-0.6-4.2,1.2-6,3.2-7.2s4.8-1.1,7.8-1.3c2.7-0.2,4.7-0.2,7.1-0.4c2.1-0.2,4.1-0.6,6.1-1.2c1.8-0.6,3.8-2.6,4.6-2.7
			c0,0,12.1-0.1,13.3,0c1.3,0.1,1.7,4.3,1.9,5.2c0.1,0.7,0.1,1.5,0.3,2.1C235.7,413,235.8,413.4,235.9,413.9z"/>
		<g id="elej105krfy7s">
			<g class="st31">
				<path id="eljsvece17dp" d="M235.9,413.9c0.1,0.4,0.2,0.7,0.2,1.1c0.4,1.9,0.6,3.8,0.4,5.7c-0.7,1.3-1.9,2.2-3.4,2.5
					c-3.3,1-5.8,0.9-9.5,0.2c-3.7-0.5-7.4-0.8-11.1-0.7c-2.9,0.2-6.9,0.8-9.8,0.5c-2.5-0.1-4.9-0.6-7.2-1.5
					c-1.9-0.8-3.9-1.9-4.4-3.9c-0.6-4.2,1.2-6,3.2-7.2s4.8-1.1,7.8-1.3c2.7-0.2,4.7-0.2,7.1-0.4c2.1-0.2,4.1-0.6,6.1-1.2
					c1.8-0.6,3.8-2.6,4.6-2.7c0,0,12.1-0.1,13.3,0c1.3,0.1,1.7,4.3,1.9,5.2c0.1,0.7,0.1,1.5,0.3,2.1
					C235.7,413,235.8,413.4,235.9,413.9z"/>
			</g>
		</g>
		<path id="elryplruwmbj8" class="st10" d="M198.6,422.7c-0.4-3-0.9-9.5,4.6-13.3h0.7c-2.5-0.7-5.2-0.7-7.7,0
			c-4.4,1.2-6.4,4.8-5.3,8.5C191,417.9,192,421.5,198.6,422.7z"/>
		<path id="els8bkorwqvt" class="st30" d="M240.3,350.1c-0.4,6.9-6.8,54.1-7.4,56.7c-0.3,1.5-2.3,3.1-7.2,3
			c-3.5-0.1-6.2,0.2-6.1-2.6l-3.5-60L240.3,350.1z"/>
		<path id="el8wshfgs1mdg" class="st5" d="M241.5,378c-0.2,2.1-0.5,4,0.4,6.4c1.2,3.4,3.9,4.9,5.4,6.2c1.6,1.6,3.1,3.4,4.5,5.2
			c1.5,1.8,1.8,3,4.2,5c1.5,1.2,5.6,2.2,8.1,1.1c2-0.8,2.7-1.5,2.5-4.5s-9.8-4.1-9.8-4.1L241.5,378z"/>
		<path id="eljnxw6vnhm2r" class="st2" d="M265.4,388.4c0.8,0.3,1,1.8,1.1,4.8c0.1,2.2,1.1,5.5-2.2,7c-2.6,1.1-6.8,0.4-8.6-1.7
			c-2.1-2.8-4.4-5.6-6.9-8.2c-2.7-2.8-5.6-3.7-6.8-9.3c-0.8-3.6-0.2-5.1,2.4-6.1c3.5-1.4,9,3.2,11.7,3.9
			C258.6,379.3,264.6,388.1,265.4,388.4z"/>
		<g id="elrkxb9wokicl">
			<path class="st16" d="M265.4,388.4c0.8,0.3,1,1.8,1.1,4.8c0.1,2.2,1.1,5.5-2.2,7c-2.6,1.1-6.8,0.4-8.6-1.7
				c-2.1-2.8-4.4-5.6-6.9-8.2c-2.7-2.8-5.6-3.7-6.8-9.3c-0.8-3.6-0.2-5.1,2.4-6.1c3.5-1.4,9,3.2,11.7,3.9
				C258.6,379.3,264.6,388.1,265.4,388.4z"/>
		</g>
		<path id="el6ebtydlnubq" class="st30" d="M269.7,335.2c0.5,18.9-2.5,38-3.9,54.3c-0.2,1.6-8.3,4.9-11,0.2
			c-0.2-0.4-7.5-53.7-7.5-53.7L269.7,335.2z"/>
		<path id="elhn5bbuhr3nn" class="st10" d="M243.8,384.9c0,0,0.3-6.5,9.3-7.5l-0.2-1.1c-1-1-2.2-1.7-3.5-2c-3.1-0.8-5.6,0-7.3,2
			S242.1,383.6,243.8,384.9z"/>
		<path id="eltvcx6p7wybo" class="st5" d="M269.3,323c0,0-0.5-13.3-0.2-27.5c0.2-9,0.4-14.1,0-20.3c-0.3-7-1.2-14-2.5-20.8
			c0,0-49.6-9.5-50.2,8.3c-0.7,21.3-1.4,63.7-1.5,69.2s0.3,9.3,0.9,21.2c7.9,1.9,19.1,0.7,25.3-1.6c0.2-6,0.4-9.4,0.4-9.4l2.4-38.2
			c0,0,0.6,7.5,1.1,15.3s0.3,9.7,1.5,24.2c5,2.3,19.7,2.2,23.7-2.2C270.2,335.1,269.9,329,269.3,323z"/>
		<path id="eldkzcikxjutq" class="st6" d="M215.1,302.4c7,1.7,18.6,1.2,18.6,1.2s-0.2,25.1-1.4,28.4s-16.2,2.8-18,0
			C214.3,318.6,215.1,302.4,215.1,302.4z"/>
		<path id="el32mvg0f1v4p" class="st6" d="M262,279c0,0-6.5,8.9-14.3,12.2l-2.9,26l-0.9-13l1.8-15.7
			C245.7,288.5,255.5,284.2,262,279z"/>
		<polygon id="elr2uswzgthla" class="st30" points="236.3,182.8 236.4,199.1 252.8,198.9 253.1,180 		"/>
		<path id="el8p76e6st5ja" class="st2" d="M269.6,198.2c-1.4-4.4-6-8.1-11.9-8.3c-1.3,0-4.8,0-4.8,0c-0.7,2.7-9.5,4-16.6,2.3
			c-2.2,0.6-10.6,2.1-12.4,2.7c-5.1,1.7-6.2,6.9-7,23.7c0,0-1.4,27.9-0.8,48.8c9,4.8,23.8,4.7,33.8,3.7c15.6-1.6,18.7-7.3,18.7-7.3
			c-0.7-7.2-0.9-14.5-0.7-21.8c0.2-6.8,2.2-14.1,2.8-21.8C271.6,208.9,270.6,201.3,269.6,198.2z"/>
		<g id="ely722hdupgi">
			<path class="st12" d="M269.6,198.2c-1.4-4.4-6-8.1-11.9-8.3c-1.3,0-4.8,0-4.8,0c-0.7,2.7-9.5,4-16.6,2.3
				c-2.2,0.6-10.6,2.1-12.4,2.7c-5.1,1.7-6.2,6.9-7,23.7c0,0-1.4,27.9-0.8,48.8c9,4.8,23.8,4.7,33.8,3.7c15.6-1.6,18.7-7.3,18.7-7.3
				c-0.7-7.2-0.9-14.5-0.7-21.8c0.2-6.8,2.2-14.1,2.8-21.8C271.6,208.9,270.6,201.3,269.6,198.2z"/>
		</g>
		<path id="ellrlovoc2e1" class="st24" d="M224,162c0,0-4.4,6.6-3.9,7.2s3.8,1,3.8,1L224,162z"/>
		<path id="el1hooy9pvpit" class="st30" d="M235.8,141c-7.8,1.3-10.7,6-11.9,19.6c-0.3,4.4-0.3,8.8-0.1,13.1
			c0.5,5.9,1.6,7.4,2.8,8.8s8.4,1.7,11.6,1c4.1-0.9,13.2-3.8,17.8-10.1c5.3-7.4,6-16.7,1.9-22.1C248.4,138.4,239,140.4,235.8,141z"
			/>
		<path id="elrao6goho5ce" class="st24" d="M226.7,182.5c0.9,1,6.3,1.5,9.6,1.3v-1.9C233.2,182.7,229.9,182.9,226.7,182.5z"/>
		<path id="elwbmj51zmpmf" class="st6" d="M230.3,153c-0.4,3.2,1.4,6.4,4.4,7.5c-0.4,1.1-0.7,2.3-0.7,3.5c-0.1,0.6,0,1.2,0.3,1.7
			c0.2,0.6,0.9,0.8,1.4,0.6c0.3-0.1,0.5-0.3,0.6-0.6c0.5-1,1.1-1.9,1.8-2.8c0.9-1,2.1-1.6,3.4-1.7c4.9-0.3,5.2,6.1,3.2,8.6
			c-3.4,4.2-6,1.1-6,1.1s-0.8,5.3,4.7,10.5c1.3,0.9,2.8,1.5,4.4,1.6c1.4,0.2,3.9,0.4,5.3-0.4c2.7-4.4,8.5-11.8,10.6-15.8
			c2-3.8,4.3-8.1,3.3-12.5c-0.4-1.9-1.6-3.6-3.3-4.6c0.6-1.2,1-2.6,1-3.9c-0.1-2.4-2.5-4.5-4.9-3.4c0.7-2.3-0.6-4.7-2.8-5.4
			c-1.4-0.4-2.9-0.1-4,0.8c0.3-2.3-1.2-4.4-3.5-4.7c-2-0.3-4,0.9-4.6,2.8c-1.7-2.6-5.2-3.4-7.9-1.7c-0.9,0.6-1.7,1.5-2.1,2.5
			c-1.7-1.1-3.6-1.5-5.6-1.2c-2,0.3-3.6,1.6-4.4,3.4c-0.7,1.9-0.2,4,1.4,5.2c-1.8,0.1-3.2,2.5-3.2,4.3
			C223.1,150.1,224,154.7,230.3,153z"/>
		<path id="elyl2lx6woboc" class="st30" d="M167.9,208.4c1.3,2.4,15.2,27.9,19.3,31.7c2.9,2.8,7.4,4.6,12,0.6
			c8.6-7.4,22-19.1,22-19.1c10.3-8.1,11.7-22.9,7-27.7c-2.4,0.1-9.8,0.7-14.6,6.3c-9.8,11.5-20.3,23.2-20.3,23.2
			c-2.6-3.4-4.9-6.1-7.6-9.9c-2.2-3.1-5.7-6.3-5.8-10.3c-0.1-2.1,0.7-4.2,1-6.3c0.4-2.7,0.8-5.3,1.2-8c0.2-0.5,0.1-1.1-0.1-1.6
			c-0.6-0.6-1.5-0.6-2.2-0.1c-0.7,0.6-1.2,1.4-1.5,2.3c-0.4,0.9-0.8,1.8-1.3,2.7c-0.2,0.4-0.5,0.9-0.9,0.9c-1.5,0-1.7-3.1-2.1-4.1
			c-0.4-1.3-0.7-2.6-0.7-3.9c-0.2-1.6-0.4-3.2-0.6-4.8c-0.1-0.5-0.2-1-0.6-1.2s-1.1,0.2-1.5,0.6c-0.6,0.7-1,1.6-1.2,2.5
			c-0.5,2.1,0.1,4.5-1,6.4c-0.5,0.7-1,1.4-1.6,1.9c-0.7,0.8-1.3,1.7-1.9,2.6c-1,1.5-1.6,2.8-1.2,4.6
			C164.6,201.6,166,205.1,167.9,208.4z"/>
		<path id="elhev66wv6a2" class="st24" d="M193.1,223.6c-2.6,2.9-4.2,8.6-4.2,8.6s-0.3-6.1,2.8-10.4L193.1,223.6z"/>
	</g>
</g>
<g id="freepik--credit-card--inject-138">
	<g id="freepik--card-bubble--inject-138">
		<g id="freepik--Card--inject-138">
			<path id="elakrwcd82eca" class="st2" d="M300.6,170.2l-1.9-1.1c-0.7-0.4-1.1-1.1-1.1-1.9V88.8c0-0.8,0.4-1.5,1.1-1.9l101.7-58.7
				c0.7-0.3,1.5-0.3,2.2,0l1.9,1.1c0.7,0.4,1.1,1.1,1.1,1.9v78.5c0,0.8-0.5,1.5-1.1,1.9l-101.7,58.8
				C302.1,170.6,301.3,170.6,300.6,170.2z"/>
			<g id="elpgf1gi7u0c">
				<path class="st20" d="M300.6,170.2l-1.9-1.1c-0.7-0.4-1.1-1.1-1.1-1.9V88.8c0-0.8,0.4-1.5,1.1-1.9l101.7-58.7
					c0.7-0.3,1.5-0.3,2.2,0l1.9,1.1c0.7,0.4,1.1,1.1,1.1,1.9v78.5c0,0.8-0.5,1.5-1.1,1.9l-101.7,58.8
					C302.1,170.6,301.3,170.6,300.6,170.2z"/>
			</g>
			<path id="elcyw1sk75trn" class="st2" d="M302.8,89.2l101.7-58.8c0.6-0.3,1.1-0.1,1.1,0.6v78.5c0,0.8-0.5,1.5-1.1,1.9l-101.7,58.8
				c-0.6,0.4-1.1,0.1-1.1-0.6V91.1C301.8,90.4,302.2,89.6,302.8,89.2z"/>
			<path id="elohdozsnobrr" class="st10" d="M404.6,30.5c-8.4,5.1-16.8,10.1-25.2,15.1L354,60.4L328.5,75l-12.8,7.2l-12.9,7.1
				l12.6-7.6l12.6-7.5l25.4-14.8l25.5-14.6C387.4,39.9,396,35.1,404.6,30.5z"/>
			<path id="el001q24o9eygco" class="st2" d="M302,90l-4.1-2.4c-0.2,0.3-0.3,0.7-0.3,1.1v78.5c0,0.8,0.4,1.5,1.1,1.9l1.9,1.1
				c0.6,0.3,1.3,0.4,2,0.1c-0.5,0.2-0.9-0.1-0.9-0.7V91.1C301.7,90.7,301.8,90.3,302,90z"/>
			<g id="elgvgzj1phsso">
				<path class="st12" d="M302,90l-4.1-2.4c-0.2,0.3-0.3,0.7-0.3,1.1v78.5c0,0.8,0.4,1.5,1.1,1.9l1.9,1.1c0.6,0.3,1.3,0.4,2,0.1
					c-0.5,0.2-0.9-0.1-0.9-0.7V91.1C301.7,90.7,301.8,90.3,302,90z"/>
			</g>
			<polygon id="elgbof11nuik8" class="st7" points="301.7,100.1 405.7,40.1 405.7,60.6 301.7,120.6 			"/>
			<g id="freepik--Cards--inject-138">
				<path id="el1zl01nw35g5" class="st2" d="M399.3,92.3v13.4c-0.1,1.1-0.6,2.1-1.6,2.7l-14.1,8.2c-0.9,0.5-1.6,0.1-1.6-0.9v-13.4
					c0.1-1.1,0.6-2.1,1.6-2.7c3.8-2.2,10.2-6,14.1-8.2C398.5,90.9,399.3,91.3,399.3,92.3z"/>
				<g>
					<defs>
						<path id="SVGID_1_" d="M399.3,92.3v13.4c-0.1,1.1-0.6,2.1-1.6,2.7l-14.1,8.2c-0.9,0.5-1.6,0.1-1.6-0.9v-13.4
							c0.1-1.1,0.6-2.1,1.6-2.7c3.8-2.2,10.2-6,14.1-8.2C398.5,90.9,399.3,91.3,399.3,92.3z"/>
					</defs>
					<clipPath id="SVGID_2_">
						<use xlink:href="#SVGID_1_"  style="overflow:visible;"/>
					</clipPath>
					<g id="elqsz3a8wl75" class="st32">
						<g id="eligfmnulrf1q">
							<path class="st14" d="M399.3,92.3v13.4c-0.1,1.1-0.6,2.1-1.6,2.7l-14.1,8.2c-0.9,0.5-1.6,0.1-1.6-0.9v-13.4
								c0.1-1.1,0.6-2.1,1.6-2.7c3.8-2.2,10.2-6,14.1-8.2C398.5,90.9,399.3,91.3,399.3,92.3z"/>
						</g>
						<polygon id="elh405hfbiual" class="st4" points="402,94.4 402.4,93.4 379.2,106.9 378.9,107.9 						"/>
						<polygon id="elqs14t0p1tp" class="st4" points="393,106.3 393.7,105.5 393.7,98.6 393,99.5 						"/>
						<polygon id="el9bk1lhzowjh" class="st4" points="387.6,109.6 388.3,108.7 388.3,101.9 387.6,102.7 						"/>
						<polygon id="elnocrrz73t7" class="st4" points="402,101.3 402.4,100.3 379.2,113.7 378.9,114.8 						"/>
					</g>
				</g>
				<path id="elkxuf7rvw6xa" class="st2" d="M308.3,108.7c-0.6-0.4-0.9-1.3-0.9-2.7c0-1.3,0.3-2.5,0.9-3.7c0.6-1,1.4-1.9,2.4-2.5
					c0.4-0.2,0.8-0.4,1.2-0.5c0.3-0.1,0.6-0.1,0.9,0c0.1,0,0.1,0.1,0.1,0.1c0,0.1,0,0.2-0.1,0.2l-0.3,0.9c0,0.1-0.1,0.2-0.1,0.2
					c0,0-0.1,0-0.1,0c-0.5,0-1,0.1-1.4,0.3c-0.6,0.4-1.1,0.9-1.4,1.6c-0.4,0.8-0.5,1.6-0.5,2.4c0,1,0.2,1.6,0.5,1.8s0.9,0.2,1.5-0.1
					c0.6-0.3,1-0.8,1.4-1.3c0-0.1,0.1-0.1,0.1-0.2c0,0,0.1,0,0.1,0.1l0.4,0.6c0,0,0,0.1,0,0.1c0,0.1-0.1,0.2-0.1,0.2
					c-0.6,0.8-1.3,1.5-2.2,1.9C309.7,109,308.9,109.1,308.3,108.7z"/>
				<path id="el2t2grs0hzix" class="st2" d="M313.8,106.3c-0.1,0-0.1-0.2-0.1-0.3v-7.1c0-0.2,0-0.3,0.1-0.4c0.1-0.1,0.2-0.2,0.3-0.3
					l2.3-1.3c1.5-0.9,2.3-0.4,2.3,1.3c0,0.5-0.1,1.1-0.3,1.6c-0.2,0.5-0.5,1-0.8,1.4l1,2.2c0,0,0,0.1,0,0.2c0,0.1-0.1,0.3-0.2,0.3
					l-1,0.6c-0.1,0-0.1,0.1-0.2,0.1c0,0-0.1,0-0.1-0.1l-0.8-2.2l-1.1,0.6v2.4c0,0.2,0,0.3-0.1,0.4c-0.1,0.1-0.2,0.2-0.3,0.3
					l-0.7,0.4C314,106.3,313.9,106.3,313.8,106.3z M316.2,100.7c0.7-0.4,1-1.1,1-1.8c0-0.4-0.1-0.7-0.2-0.8s-0.4-0.1-0.7,0.1
					l-1.1,0.6v2.4L316.2,100.7z"/>
				<path id="el6mi1r72pd4k" class="st2" d="M319.6,103c-0.1,0-0.1-0.2-0.1-0.3v-7.2c0-0.2,0-0.3,0.1-0.4c0.1-0.1,0.2-0.2,0.3-0.3
					l3.8-2.2c0.1-0.1,0.2-0.1,0.3-0.1c0.1,0.1,0.1,0.2,0.1,0.3v0.4c0,0.2,0,0.3-0.1,0.4c-0.1,0.1-0.2,0.2-0.3,0.3l-2.6,1.5v1.9
					l1.9-1.1c0.1-0.1,0.3-0.1,0.3,0s0.1,0.2,0.1,0.3v0.4c0,0.2,0,0.3-0.1,0.4c-0.1,0.1-0.2,0.2-0.3,0.3l-1.9,1v1.9l2.7-1.5
					c0.1-0.1,0.2-0.1,0.3-0.1c0.1,0.1,0.1,0.2,0.1,0.3v0.4c0,0.2,0,0.3-0.1,0.4c-0.1,0.1-0.2,0.2-0.3,0.3l-3.7,2.2
					C319.7,103,319.6,103,319.6,103z"/>
				<path id="elqel8lyixjag" class="st2" d="M324.8,100c-0.1-0.1-0.1-0.2-0.1-0.3v-7.2c0-0.2,0-0.3,0.1-0.4c0.1-0.1,0.2-0.2,0.3-0.3
					l1.9-1.1c1-0.6,1.8-0.7,2.4-0.4s0.8,1.2,0.8,2.6c0,1.2-0.2,2.5-0.8,3.6c-0.5,1-1.4,1.8-2.3,2.3l-1.9,1.1
					C324.9,100,324.8,100,324.8,100z M327,97.4c0.5-0.3,0.9-0.7,1.2-1.3c0.3-0.7,0.4-1.5,0.4-2.3c0-1-0.1-1.6-0.4-1.8
					s-0.7-0.2-1.2,0.1l-0.9,0.5v5.3L327,97.4z"/>
				<path id="elecd8z7ry4i7" class="st2" d="M331,96.4c-0.1-0.1-0.1-0.2-0.1-0.3v-7.1c0-0.2,0-0.3,0.1-0.4c0.1-0.1,0.2-0.2,0.3-0.3
					l0.7-0.4c0.1-0.1,0.3-0.1,0.3-0.1s0.1,0.2,0.1,0.3v7.1c0,0.2,0,0.3-0.1,0.4c-0.1,0.1-0.2,0.2-0.3,0.3l-0.7,0.4
					C331.1,96.4,331,96.4,331,96.4z"/>
				<path id="elot6svw2bmn9" class="st2" d="M334.9,94.1c-0.1,0-0.1-0.2-0.1-0.3v-6.2l-1.5,0.8c-0.1,0.1-0.2,0.1-0.3,0.1
					c0,0-0.1-0.2-0.1-0.3v-0.4c0-0.2,0-0.3,0.1-0.4c0.1-0.1,0.2-0.2,0.3-0.3l4.5-2.6c0.1-0.1,0.3-0.1,0.3,0s0.1,0.2,0.1,0.3v0.4
					c0,0.1,0,0.3-0.1,0.4c-0.1,0.1-0.2,0.2-0.3,0.3l-1.5,0.8V93c0,0.2,0,0.3-0.1,0.4c-0.1,0.1-0.2,0.2-0.3,0.3l-0.7,0.4
					C335,94.2,334.9,94.2,334.9,94.1z"/>
				<path id="el3ea5axgl5lk" class="st2" d="M342.6,88.9c-0.6-0.4-0.9-1.3-0.9-2.7c0-1.3,0.3-2.5,0.9-3.7c0.5-1.1,1.4-1.9,2.4-2.5
					c0.4-0.2,0.8-0.4,1.2-0.5c0.3-0.1,0.6-0.1,0.9,0c0.1,0,0.1,0.1,0.1,0.1c0,0.1,0,0.2-0.1,0.2l-0.3,0.9c0,0.1-0.1,0.2-0.1,0.2
					c0,0-0.1,0-0.1,0c-0.5,0-1,0.1-1.4,0.4c-0.6,0.4-1.1,0.9-1.4,1.6c-0.4,0.8-0.5,1.6-0.5,2.4c0,1,0.2,1.6,0.5,1.8s0.9,0.2,1.5-0.1
					c0.6-0.3,1-0.7,1.4-1.3c0-0.1,0.1-0.1,0.2-0.2c0,0,0.1,0,0.1,0.1l0.4,0.6c0,0,0,0.1,0,0.1c0,0.1-0.1,0.2-0.1,0.2
					c-0.6,0.8-1.3,1.5-2.2,1.9C344,89.2,343.2,89.3,342.6,88.9z"/>
				<path id="ell7fpdvc5isq" class="st2" d="M347.7,86.7c0-0.1,0-0.1,0-0.2l2.3-8.8c0-0.1,0.1-0.2,0.1-0.4c0.1-0.1,0.1-0.2,0.2-0.2
					l0.7-0.4c0.1,0,0.2-0.1,0.2,0s0.1,0.1,0.1,0.2l2.4,6.1c0,0.1,0,0.1,0,0.2c0,0.1-0.1,0.2-0.2,0.3l-1.1,0.6
					c-0.1,0-0.1,0.1-0.2,0.1c0,0-0.1-0.1-0.1-0.1l-0.4-1.2l-2.2,1.3l-0.4,1.7c0,0.1-0.1,0.2-0.1,0.3c0,0.1-0.1,0.1-0.2,0.2l-1.1,0.6
					C347.7,86.8,347.7,86.8,347.7,86.7z M351.5,81.7l-0.8-2.2l-0.8,3L351.5,81.7z"/>
				<path id="elau0f8slwli5" class="st2" d="M354.6,82.7c-0.1,0-0.1-0.2-0.1-0.3v-7.1c0-0.2,0-0.3,0.1-0.4c0.1-0.1,0.2-0.2,0.3-0.3
					l2.3-1.3c1.5-0.9,2.3-0.4,2.3,1.3c0,0.5-0.1,1.1-0.3,1.6c-0.2,0.5-0.5,1-0.8,1.4l1,2.2c0,0,0,0.1,0,0.2c0,0.1-0.1,0.3-0.2,0.3
					l-1,0.6c-0.1,0-0.1,0.1-0.2,0.1c0,0-0.1,0-0.1-0.1l-0.8-2.2l-1.1,0.6v2.4c0,0.2,0,0.3-0.1,0.4c-0.1,0.1-0.2,0.2-0.3,0.3
					l-0.7,0.4C354.8,82.8,354.7,82.8,354.6,82.7z M357,77.2c0.3-0.2,0.6-0.4,0.8-0.7c0.2-0.3,0.3-0.7,0.3-1.1c0-0.4-0.1-0.7-0.2-0.8
					c-0.1-0.1-0.4-0.1-0.7,0.1l-1.1,0.6v2.4L357,77.2z"/>
				<path id="eloxvyy9io83g" class="st2" d="M360.3,79.4c-0.1,0-0.1-0.2-0.1-0.3v-7.1c0-0.2,0-0.3,0.1-0.4c0.1-0.1,0.2-0.2,0.3-0.3
					l1.9-1.1c1-0.6,1.8-0.7,2.4-0.4s0.8,1.2,0.8,2.6c0,1.2-0.2,2.5-0.8,3.6c-0.5,1-1.4,1.8-2.3,2.3l-1.9,1.1
					C360.5,79.4,360.4,79.5,360.3,79.4z M362.6,76.8c0.5-0.3,0.9-0.7,1.2-1.3c0.3-0.7,0.4-1.5,0.4-2.3c0-1-0.1-1.6-0.4-1.8
					s-0.7-0.2-1.2,0.1l-0.9,0.5v5.3L362.6,76.8z"/>
				<g id="el3th9xt3c006">
					<g class="st13">
						<path id="eleeubkdcvp1c" class="st2" d="M308.3,108.7c-0.6-0.4-0.9-1.3-0.9-2.7c0-1.3,0.3-2.5,0.9-3.7c0.6-1,1.4-1.9,2.4-2.5
							c0.4-0.2,0.8-0.4,1.2-0.5c0.3-0.1,0.6-0.1,0.9,0c0.1,0,0.1,0.1,0.1,0.1c0,0.1,0,0.2-0.1,0.2l-0.3,0.9c0,0.1-0.1,0.2-0.1,0.2
							c0,0-0.1,0-0.1,0c-0.5,0-1,0.1-1.4,0.3c-0.6,0.4-1.1,0.9-1.4,1.6c-0.4,0.8-0.5,1.6-0.5,2.4c0,1,0.2,1.6,0.5,1.8
							s0.9,0.2,1.5-0.1c0.6-0.3,1-0.8,1.4-1.3c0-0.1,0.1-0.1,0.1-0.2c0,0,0.1,0,0.1,0.1l0.4,0.6c0,0,0,0.1,0,0.1
							c0,0.1-0.1,0.2-0.1,0.2c-0.6,0.8-1.3,1.5-2.2,1.9C309.7,109,308.9,109.1,308.3,108.7z"/>
						<path id="el0oy8d713u7" class="st2" d="M313.8,106.3c-0.1,0-0.1-0.2-0.1-0.3v-7.1c0-0.2,0-0.3,0.1-0.4
							c0.1-0.1,0.2-0.2,0.3-0.3l2.3-1.3c1.5-0.9,2.3-0.4,2.3,1.3c0,0.5-0.1,1.1-0.3,1.6c-0.2,0.5-0.5,1-0.8,1.4l1,2.2
							c0,0,0,0.1,0,0.2c0,0.1-0.1,0.3-0.2,0.3l-1,0.6c-0.1,0-0.1,0.1-0.2,0.1c0,0-0.1,0-0.1-0.1l-0.8-2.2l-1.1,0.6v2.4
							c0,0.2,0,0.3-0.1,0.4c-0.1,0.1-0.2,0.2-0.3,0.3l-0.7,0.4C314,106.3,313.9,106.3,313.8,106.3z M316.2,100.7
							c0.7-0.4,1-1.1,1-1.8c0-0.4-0.1-0.7-0.2-0.8s-0.4-0.1-0.7,0.1l-1.1,0.6v2.4L316.2,100.7z"/>
						<path id="ell93ecoem73p" class="st2" d="M319.6,103c-0.1,0-0.1-0.2-0.1-0.3v-7.2c0-0.2,0-0.3,0.1-0.4c0.1-0.1,0.2-0.2,0.3-0.3
							l3.8-2.2c0.1-0.1,0.2-0.1,0.3-0.1c0.1,0.1,0.1,0.2,0.1,0.3v0.4c0,0.2,0,0.3-0.1,0.4c-0.1,0.1-0.2,0.2-0.3,0.3l-2.6,1.5v1.9
							l1.9-1.1c0.1-0.1,0.3-0.1,0.3,0s0.1,0.2,0.1,0.3v0.4c0,0.2,0,0.3-0.1,0.4c-0.1,0.1-0.2,0.2-0.3,0.3l-1.9,1v1.9l2.7-1.5
							c0.1-0.1,0.2-0.1,0.3-0.1c0.1,0.1,0.1,0.2,0.1,0.3v0.4c0,0.2,0,0.3-0.1,0.4c-0.1,0.1-0.2,0.2-0.3,0.3l-3.7,2.2
							C319.7,103,319.6,103,319.6,103z"/>
						<path id="el3gmfvh5gi6n" class="st2" d="M324.8,100c-0.1-0.1-0.1-0.2-0.1-0.3v-7.2c0-0.2,0-0.3,0.1-0.4
							c0.1-0.1,0.2-0.2,0.3-0.3l1.9-1.1c1-0.6,1.8-0.7,2.4-0.4s0.8,1.2,0.8,2.6c0,1.2-0.2,2.5-0.8,3.6c-0.5,1-1.4,1.8-2.3,2.3
							l-1.9,1.1C324.9,100,324.8,100,324.8,100z M327,97.4c0.5-0.3,0.9-0.7,1.2-1.3c0.3-0.7,0.4-1.5,0.4-2.3c0-1-0.1-1.6-0.4-1.8
							s-0.7-0.2-1.2,0.1l-0.9,0.5v5.3L327,97.4z"/>
						<path id="elqa7tydc77io" class="st2" d="M331,96.4c-0.1-0.1-0.1-0.2-0.1-0.3v-7.1c0-0.2,0-0.3,0.1-0.4
							c0.1-0.1,0.2-0.2,0.3-0.3l0.7-0.4c0.1-0.1,0.3-0.1,0.3-0.1s0.1,0.2,0.1,0.3v7.1c0,0.2,0,0.3-0.1,0.4c-0.1,0.1-0.2,0.2-0.3,0.3
							l-0.7,0.4C331.1,96.4,331,96.4,331,96.4z"/>
						<path id="el4860ko7kvyy" class="st2" d="M334.9,94.1c-0.1,0-0.1-0.2-0.1-0.3v-6.2l-1.5,0.8c-0.1,0.1-0.2,0.1-0.3,0.1
							c0,0-0.1-0.2-0.1-0.3v-0.4c0-0.2,0-0.3,0.1-0.4c0.1-0.1,0.2-0.2,0.3-0.3l4.5-2.6c0.1-0.1,0.3-0.1,0.3,0s0.1,0.2,0.1,0.3v0.4
							c0,0.1,0,0.3-0.1,0.4c-0.1,0.1-0.2,0.2-0.3,0.3l-1.5,0.8V93c0,0.2,0,0.3-0.1,0.4c-0.1,0.1-0.2,0.2-0.3,0.3l-0.7,0.4
							C335,94.2,334.9,94.2,334.9,94.1z"/>
						<path id="elqu48tlweua9" class="st2" d="M342.6,88.9c-0.6-0.4-0.9-1.3-0.9-2.7c0-1.3,0.3-2.5,0.9-3.7c0.5-1.1,1.4-1.9,2.4-2.5
							c0.4-0.2,0.8-0.4,1.2-0.5c0.3-0.1,0.6-0.1,0.9,0c0.1,0,0.1,0.1,0.1,0.1c0,0.1,0,0.2-0.1,0.2l-0.3,0.9c0,0.1-0.1,0.2-0.1,0.2
							c0,0-0.1,0-0.1,0c-0.5,0-1,0.1-1.4,0.4c-0.6,0.4-1.1,0.9-1.4,1.6c-0.4,0.8-0.5,1.6-0.5,2.4c0,1,0.2,1.6,0.5,1.8
							s0.9,0.2,1.5-0.1c0.6-0.3,1-0.7,1.4-1.3c0-0.1,0.1-0.1,0.2-0.2c0,0,0.1,0,0.1,0.1l0.4,0.6c0,0,0,0.1,0,0.1
							c0,0.1-0.1,0.2-0.1,0.2c-0.6,0.8-1.3,1.5-2.2,1.9C344,89.2,343.2,89.3,342.6,88.9z"/>
						<path id="el04hkoonbfekc" class="st2" d="M347.7,86.7c0-0.1,0-0.1,0-0.2l2.3-8.8c0-0.1,0.1-0.2,0.1-0.4
							c0.1-0.1,0.1-0.2,0.2-0.2l0.7-0.4c0.1,0,0.2-0.1,0.2,0s0.1,0.1,0.1,0.2l2.4,6.1c0,0.1,0,0.1,0,0.2c0,0.1-0.1,0.2-0.2,0.3
							l-1.1,0.6c-0.1,0-0.1,0.1-0.2,0.1c0,0-0.1-0.1-0.1-0.1l-0.4-1.2l-2.2,1.3l-0.4,1.7c0,0.1-0.1,0.2-0.1,0.3
							c0,0.1-0.1,0.1-0.2,0.2l-1.1,0.6C347.7,86.8,347.7,86.8,347.7,86.7z M351.5,81.7l-0.8-2.2l-0.8,3L351.5,81.7z"/>
						<path id="elktos2nfg1wa" class="st2" d="M354.6,82.7c-0.1,0-0.1-0.2-0.1-0.3v-7.1c0-0.2,0-0.3,0.1-0.4
							c0.1-0.1,0.2-0.2,0.3-0.3l2.3-1.3c1.5-0.9,2.3-0.4,2.3,1.3c0,0.5-0.1,1.1-0.3,1.6c-0.2,0.5-0.5,1-0.8,1.4l1,2.2
							c0,0,0,0.1,0,0.2c0,0.1-0.1,0.3-0.2,0.3l-1,0.6c-0.1,0-0.1,0.1-0.2,0.1c0,0-0.1,0-0.1-0.1l-0.8-2.2l-1.1,0.6v2.4
							c0,0.2,0,0.3-0.1,0.4c-0.1,0.1-0.2,0.2-0.3,0.3l-0.7,0.4C354.8,82.8,354.7,82.8,354.6,82.7z M357,77.2
							c0.3-0.2,0.6-0.4,0.8-0.7c0.2-0.3,0.3-0.7,0.3-1.1c0-0.4-0.1-0.7-0.2-0.8c-0.1-0.1-0.4-0.1-0.7,0.1l-1.1,0.6v2.4L357,77.2z"/>
						<path id="elr6didw5eqm" class="st2" d="M360.3,79.4c-0.1,0-0.1-0.2-0.1-0.3v-7.1c0-0.2,0-0.3,0.1-0.4c0.1-0.1,0.2-0.2,0.3-0.3
							l1.9-1.1c1-0.6,1.8-0.7,2.4-0.4s0.8,1.2,0.8,2.6c0,1.2-0.2,2.5-0.8,3.6c-0.5,1-1.4,1.8-2.3,2.3l-1.9,1.1
							C360.5,79.4,360.4,79.5,360.3,79.4z M362.6,76.8c0.5-0.3,0.9-0.7,1.2-1.3c0.3-0.7,0.4-1.5,0.4-2.3c0-1-0.1-1.6-0.4-1.8
							s-0.7-0.2-1.2,0.1l-0.9,0.5v5.3L362.6,76.8z"/>
					</g>
				</g>
				<path id="el1bysdvz9fpv" class="st2" d="M316.9,136.3l4-2.3c0.5-0.3,0.9-0.1,0.9,0.5v1.2c0,0.7-0.4,1.3-0.9,1.6l-4,2.3
					c-0.5,0.3-1,0.1-1-0.6v-1.2C315.9,137.2,316.3,136.6,316.9,136.3z"/>
				<path id="el6lchim09v1t" class="st2" d="M308,141.4l4-2.3c0.5-0.3,0.9-0.1,0.9,0.6v1.2c0,0.7-0.4,1.3-0.9,1.6l-4,2.3
					c-0.5,0.3-0.9,0.1-0.9-0.5V143C307.1,142.3,307.4,141.7,308,141.4z"/>
				<path id="elm4ac3ngornr" class="st2" d="M358.7,120.6l-50,28.9c-0.9,0.6-1.5,1.6-1.6,2.7v1.5c0,1,0.7,1.4,1.6,0.9l50-28.9
					c0.9-0.6,1.5-1.6,1.6-2.7v-1.5C360.3,120.5,359.6,120.1,358.7,120.6z"/>
				<path id="ele2lrhiv3x38" class="st7" d="M316.9,136.3l4-2.3c0.5-0.3,0.9-0.1,0.9,0.5v1.2c0,0.7-0.4,1.3-0.9,1.6l-4,2.3
					c-0.5,0.3-1,0.1-1-0.6v-1.2C315.9,137.2,316.3,136.6,316.9,136.3z"/>
				<path id="elb4wurn6iecr" class="st7" d="M308,141.4l4-2.3c0.5-0.3,0.9-0.1,0.9,0.6v1.2c0,0.7-0.4,1.3-0.9,1.6l-4,2.3
					c-0.5,0.3-0.9,0.1-0.9-0.5V143C307.1,142.3,307.4,141.7,308,141.4z"/>
				<path id="elj8754tih37p" class="st7" d="M358.7,120.6l-50,28.9c-0.9,0.6-1.5,1.6-1.6,2.7v1.5c0,1,0.7,1.4,1.6,0.9l50-28.9
					c0.9-0.6,1.5-1.6,1.6-2.7v-1.5C360.3,120.5,359.6,120.1,358.7,120.6z"/>
				<path id="elf8wsoyazy5d" class="st10" d="M308.1,127.4l0.2-0.1c0.6-0.3,1,0,1,0.8v4c0,0.8-0.4,1.5-1,2l-0.2,0.1
					c-0.6,0.4-1,0-1-0.7v-4C307.1,128.6,307.4,127.8,308.1,127.4z"/>
				<path id="elxtm1u1quf3" class="st10" d="M313.4,124.3l0.2-0.1c0.6-0.3,1,0,1,0.8v3.9c0,0.8-0.4,1.5-1,2l-0.2,0.1
					c-0.6,0.4-1,0-1-0.7v-4C312.4,125.5,312.7,124.8,313.4,124.3z"/>
				<path id="elbtbx2ptuv2c" class="st10" d="M318.6,121.3l0.2-0.1c0.6-0.3,1,0,1,0.8v3.9c0,0.8-0.4,1.5-1,2l-0.1,0.1
					c-0.6,0.4-1,0-1-0.7v-4C317.7,122.5,318,121.8,318.6,121.3z"/>
				<path id="el7lfut5wv27" class="st10" d="M323.9,118.3l0.2-0.1c0.6-0.3,1,0,1,0.8v3.9c0,0.8-0.4,1.5-1,2L324,125
					c-0.6,0.4-1,0-1-0.7v-4C322.9,119.5,323.3,118.7,323.9,118.3z"/>
				<path id="el5jclg6oyiu9" class="st10" d="M332.8,113.1l0.2-0.1c0.6-0.3,1,0,1,0.8v3.9c0,0.8-0.4,1.5-1,2l-0.2,0.1
					c-0.6,0.4-1,0-1-0.7v-4C331.8,114.3,332.2,113.6,332.8,113.1z"/>
				<path id="eltqsudf5sn3j" class="st10" d="M338.1,110.1l0.2-0.1c0.6-0.3,1,0,1,0.8v3.9c0,0.8-0.4,1.5-1,2l-0.2,0.1
					c-0.6,0.4-1,0-1-0.7v-4C337.1,111.2,337.4,110.5,338.1,110.1z"/>
				<path id="elo19d8gl6deq" class="st10" d="M343.4,107l0.2-0.1c0.6-0.3,1,0,1,0.8v3.9c0,0.8-0.4,1.5-1,2l-0.2,0.1
					c-0.6,0.4-1,0-1-0.7v-4C342.4,108.2,342.7,107.5,343.4,107z"/>
				<path id="el81yhe5a8yr6" class="st10" d="M348.6,104l0.2-0.1c0.6-0.3,1,0,1,0.8v3.9c0,0.8-0.4,1.5-1,2l-0.2,0.1
					c-0.6,0.4-1,0-1-0.7v-4C347.6,105.2,348,104.5,348.6,104z"/>
				<path id="elwc4d4disbu" class="st10" d="M357.5,98.8l0.2-0.1c0.6-0.3,1,0,1,0.8v3.9c0,0.8-0.4,1.5-1,2l-0.2,0.1
					c-0.6,0.3-1,0-1-0.7v-4C356.5,100,356.9,99.3,357.5,98.8z"/>
				<path id="elzl8b8k949a" class="st10" d="M362.8,95.8l0.2-0.1c0.6-0.3,1,0,1,0.8v3.9c0,0.8-0.4,1.5-1,2l-0.2,0.1
					c-0.6,0.3-1,0-1-0.7v-4C361.8,97,362.1,96.2,362.8,95.8z"/>
				<path id="el606suk1w6lq" class="st10" d="M368,92.8l0.2-0.1c0.6-0.3,1,0,1,0.8v3.9c0,0.8-0.4,1.5-1,2l-0.2,0.1
					c-0.6,0.3-1,0-1-0.7v-4C367.1,94,367.4,93.2,368,92.8z"/>
				<path id="elxsdpulgsef" class="st10" d="M373.3,89.7l0.2-0.1c0.6-0.3,1,0,1,0.8v3.9c0,0.8-0.4,1.5-1,2l-0.1,0.1
					c-0.6,0.3-1,0-1-0.7v-4C372.4,90.9,372.7,90.2,373.3,89.7z"/>
				<path id="ele7ap4jdsb3" class="st10" d="M382.2,84.6l0.2-0.1c0.6-0.3,1,0,1,0.8v3.9c0,0.8-0.4,1.5-1,2l-0.1,0.1
					c-0.6,0.3-1,0-1-0.7v-4C381.2,85.7,381.6,85,382.2,84.6z"/>
				<path id="elme9ajfiy3n" class="st10" d="M387.5,81.5l0.2-0.1c0.6-0.3,1,0,1,0.8v3.9c0,0.8-0.4,1.5-1,2l-0.2,0.1
					c-0.6,0.3-1,0-1-0.7v-4C386.5,82.7,386.9,82,387.5,81.5z"/>
				<path id="eltyyuleo5ybk" class="st10" d="M392.8,78.5l0.2-0.1c0.6-0.3,1,0,1,0.8v3.9c0,0.8-0.4,1.5-1,2l-0.2,0.1
					c-0.6,0.3-1,0-1-0.7v-4C391.8,79.7,392.1,79,392.8,78.5z"/>
				<path id="elks7sgj4timh" class="st10" d="M398,75.5l0.2-0.1c0.6-0.3,1,0,1,0.8v3.9c0,0.8-0.4,1.5-1,2l-0.2,0.1
					c-0.6,0.3-1,0-1-0.7v-4C397,76.7,397.4,75.9,398,75.5z"/>
			</g>
			<polygon id="el9j41xw5zl1a" class="st6" points="301.7,100.1 297.6,97.7 297.6,118.2 301.7,120.6 			"/>
		</g>
		<path id="el0x73w5n19tp" class="st2" d="M301.7,128.9L301.7,128.9l-4.1-2.4l-12,11.6c-0.7,0.6-0.7,1.7-0.1,2.4
			c0.1,0.1,0.3,0.2,0.4,0.3c0,0,3.3,1.9,4,2.3c0.4,0.2,0.9,0.3,1.3,0.3l10.5-2C302.1,137.2,302.1,133.1,301.7,128.9L301.7,128.9z"/>
		<g id="elby41x6ghep">
			<path class="st20" d="M289.9,143.1c-0.6-0.4-3.9-2.3-4-2.3c-0.8-0.5-1.1-1.5-0.7-2.3c0.1-0.1,0.2-0.3,0.3-0.4l12-11.6l4.1,2.4
				l-12,11.6c-0.7,0.7-0.7,1.7,0,2.4C289.7,142.9,289.8,143,289.9,143.1z"/>
		</g>
	</g>
</g>
</svg>
