<svg width="471" height="359" viewBox="0 0 471 359" fill="none" xmlns="http://www.w3.org/2000/svg">
<path opacity="0.1" d="M25.2726 131.833C-12.6696 202.639 -18.3483 354.766 82.8001 341.101C142.303 333.062 331.445 357.734 407.013 341.101C497.699 312.866 467.947 183.942 453.875 149.191C439.803 114.44 422.873 125.551 404.629 50.0758C386.389 -25.3995 204.866 -5.54545 177.765 43.8665C153.665 78.5332 126.846 81.0895 117.639 84.5286C91.7542 67.2665 50.6214 84.5286 25.2726 131.833Z" fill="#00BCFF"/>
<path d="M41.4155 148.798C20.0946 154.49 7.55283 176.997 13.0712 198.728C18.5896 220.459 40.1614 233.395 61.4823 227.703C82.5525 222.012 95.0942 199.763 89.5758 177.773C84.0575 156.042 62.4857 143.107 41.4155 148.798ZM56.7165 209.076C45.6797 212.181 34.1413 205.196 31.3821 193.813C28.3721 182.43 35.1447 170.53 46.1814 167.684C57.2181 164.579 68.7565 171.564 71.5157 182.947C74.5257 194.33 67.7532 205.972 56.7165 209.076Z" fill="#B2CAE3"/>
<path d="M52.4515 155.525L35.1439 160.182C35.1439 160.182 28.6222 146.729 30.6289 143.107C32.8864 139.227 44.1739 135.605 47.9365 138.45C51.699 141.038 52.4515 155.525 52.4515 155.525Z" fill="#B2CAE3"/>
<path d="M66.4997 216.838L49.1921 221.495C49.1921 221.495 49.9446 236.499 53.7072 238.828C57.4697 241.156 69.0081 238.31 71.0148 234.171C72.7706 230.032 66.4997 216.838 66.4997 216.838Z" fill="#B2CAE3"/>
<path d="M28.3707 164.579L21.5982 181.395C21.5982 181.395 7.30061 178.549 5.7956 174.41C4.03975 170.271 8.55478 158.888 12.819 157.594C16.8323 156.301 28.3707 164.579 28.3707 164.579Z" fill="#B2CAE3"/>
<path d="M21.0981 189.415L22.8539 207.783C22.8539 207.783 9.05797 212.181 5.79712 209.335C2.0346 206.489 0.529585 194.33 3.79044 191.226C6.80046 188.121 21.0981 189.415 21.0981 189.415Z" fill="#B2CAE3"/>
<path d="M83.3038 190.191L79.5413 172.341C79.5413 172.341 92.8355 166.132 96.3472 168.46C100.11 171.047 102.869 182.689 100.11 186.311C97.3505 189.932 83.3038 190.191 83.3038 190.191Z" fill="#B2CAE3"/>
<path d="M59.4755 155.525L73.5222 166.649C73.5222 166.649 84.5589 156.818 84.0573 152.42C83.5556 147.764 74.2747 140.261 70.0105 141.296C65.7463 142.331 59.4755 155.525 59.4755 155.525Z" fill="#B2CAE3"/>
<path d="M40.6635 222.788L26.6167 211.663C26.6167 211.663 15.58 221.494 16.0817 225.892C16.5833 230.549 25.8642 238.051 30.1284 237.016C34.3926 235.723 40.6635 222.788 40.6635 222.788Z" fill="#B2CAE3"/>
<path d="M75.0266 213.733L82.0499 196.917C82.0499 196.917 96.3475 199.763 97.8525 203.902C99.6084 208.042 95.0934 219.683 90.8292 220.718C86.8158 222.012 75.0266 213.733 75.0266 213.733Z" fill="#B2CAE3"/>
<g opacity="0.61">
<path opacity="0.74" d="M228.16 81.1919L230.572 285.272C230.572 287.818 228.562 289.962 226.016 289.962L103.407 291.436C100.861 291.436 98.7169 289.426 98.7169 286.88L96.4389 82.7999C96.4389 80.2539 98.4489 78.1099 100.995 78.1099L223.604 76.6359C226.15 76.6359 228.16 78.6459 228.16 81.1919Z" fill="#5FE8C5"/>
<g opacity="0.61">
<path d="M228.696 81.0579L228.83 93.1177L96.975 94.8597L96.841 82.3978C96.841 79.9859 98.717 77.9759 101.129 77.9759L224.006 76.5019C226.552 76.5019 228.696 78.5119 228.696 81.0579Z" fill="#36E4B8"/>
</g>
</g>
<path opacity="0.61" d="M105.953 88.8299C104.479 88.8299 103.273 87.6239 103.273 86.1499C103.273 84.6759 104.479 83.4699 105.953 83.4699C107.427 83.4699 108.633 84.6759 108.633 86.1499C108.633 87.4899 107.427 88.6959 105.953 88.8299ZM105.953 84.4079C105.015 84.4079 104.345 85.2119 104.345 86.0159C104.345 86.9539 105.149 87.6239 105.953 87.6239C106.891 87.6239 107.561 86.8199 107.561 86.0159C107.561 85.0779 106.757 84.4079 105.953 84.4079Z" fill="white"/>
<path opacity="0.61" d="M115.065 88.6958C113.591 88.6958 112.385 87.4898 112.385 86.0158C112.385 84.5419 113.591 83.3359 115.065 83.3359C116.539 83.3359 117.745 84.5419 117.745 86.0158C117.745 87.4898 116.539 88.6958 115.065 88.6958ZM114.931 84.4079C113.993 84.4079 113.323 85.2119 113.323 86.0158C113.323 86.9538 114.127 87.6238 114.931 87.6238C115.869 87.6238 116.539 86.8198 116.539 86.0158C116.673 85.0779 115.869 84.4079 114.931 84.4079Z" fill="white"/>
<path opacity="0.61" d="M123.775 88.6958C122.301 88.6958 121.095 87.4898 121.095 86.0158C121.095 84.5419 122.301 83.3359 123.775 83.3359C125.249 83.3359 126.455 84.5419 126.455 86.0158C126.589 87.3558 125.383 88.5618 123.775 88.6958ZM123.775 84.2739C122.837 84.2739 122.167 85.0779 122.167 85.8818C122.167 86.8198 122.971 87.4898 123.775 87.4898C124.713 87.4898 125.383 86.6858 125.383 85.8818C125.383 84.9439 124.713 84.2739 123.775 84.2739Z" fill="white"/>
<path opacity="0.61" d="M169.2 113.62L108.365 114.156C107.829 114.156 107.293 113.62 107.293 113.084C107.293 112.548 107.829 112.012 108.365 112.012L169.2 111.61C169.736 111.61 170.272 112.146 170.272 112.682C170.272 113.084 169.87 113.62 169.2 113.62Z" fill="white"/>
<path opacity="0.61" d="M189.568 113.486L176.838 113.62C176.302 113.62 175.766 113.084 175.766 112.548C175.766 112.012 176.302 111.476 176.838 111.476L189.434 111.342C189.97 111.342 190.506 111.878 190.506 112.414C190.64 112.95 190.104 113.486 189.568 113.486Z" fill="#107B73"/>
<path opacity="0.61" d="M169.602 164.137L108.767 164.673C108.231 164.673 107.695 164.137 107.695 163.601C107.695 163.065 108.231 162.529 108.767 162.529L169.602 162.127C170.138 162.127 170.674 162.663 170.674 163.199C170.674 163.735 170.138 164.137 169.602 164.137Z" fill="white"/>
<path opacity="0.61" d="M189.97 164.003L177.374 164.137C176.838 164.137 176.302 163.601 176.302 163.065C176.302 162.529 176.838 161.993 177.374 161.993L189.97 161.859C190.506 161.859 191.042 162.395 191.042 162.931C191.042 163.601 190.506 164.003 189.97 164.003Z" fill="#083C53"/>
<path opacity="0.61" d="M169.469 137.739L108.499 138.275C107.963 138.275 107.427 137.739 107.427 137.203C107.427 136.667 107.963 136.131 108.499 136.131L169.335 135.729C169.871 135.729 170.407 136.265 170.407 136.801C170.541 137.203 170.005 137.739 169.469 137.739Z" fill="#083C53"/>
<path opacity="0.61" d="M189.702 137.605L177.106 137.739C176.57 137.739 176.034 137.203 176.034 136.667C176.034 136.131 176.57 135.595 177.106 135.595L189.702 135.461C190.238 135.461 190.774 135.997 190.774 136.533C190.774 137.069 190.238 137.605 189.702 137.605Z" fill="white"/>
<path opacity="0.61" d="M210.472 137.472L197.876 137.606C197.34 137.606 196.804 137.07 196.804 136.534C196.804 135.998 197.34 135.462 197.876 135.462L210.472 135.328C211.008 135.328 211.544 135.864 211.544 136.4C211.544 136.936 211.142 137.472 210.472 137.472Z" fill="#107B73"/>
<path opacity="0.61" d="M148.967 125.679L108.365 125.947C107.829 125.947 107.293 125.411 107.293 124.875C107.293 124.339 107.829 123.803 108.365 123.803L148.967 123.535C149.503 123.535 150.039 124.071 150.039 124.607C150.039 125.143 149.637 125.679 148.967 125.679Z" fill="#107B73"/>
<path opacity="0.61" d="M174.292 125.412L156.47 125.546C155.934 125.546 155.398 125.01 155.398 124.474C155.398 123.938 155.934 123.402 156.47 123.402L174.292 123.268C174.828 123.268 175.364 123.804 175.364 124.34C175.364 125.01 174.828 125.412 174.292 125.412Z" fill="#F7A9B4"/>
<path opacity="0.61" d="M174.426 150.871L133.825 151.139C133.289 151.139 132.753 150.603 132.753 150.067C132.753 149.531 133.289 148.995 133.825 148.995L174.426 148.727C174.962 148.727 175.498 149.263 175.498 149.799C175.498 150.335 175.096 150.871 174.426 150.871Z" fill="#107B73"/>
<path opacity="0.61" d="M126.455 151.273L108.633 151.407C108.097 151.407 107.561 150.871 107.561 150.335C107.561 149.799 108.097 149.263 108.633 149.263L126.455 149.129C126.991 149.129 127.527 149.665 127.527 150.201C127.527 150.737 126.991 151.273 126.455 151.273Z" fill="#F7A9B4"/>
<path opacity="0.61" d="M169.736 181.289L108.767 181.691C108.231 181.691 107.695 181.155 107.695 180.619C107.695 180.083 108.231 179.547 108.767 179.547L169.602 179.145C170.138 179.145 170.674 179.681 170.674 180.217C170.808 180.753 170.272 181.289 169.736 181.289Z" fill="#F7A9B4"/>
<path opacity="0.61" d="M189.97 181.021L177.374 181.155C176.838 181.155 176.302 180.619 176.302 180.083C176.302 179.547 176.838 179.011 177.374 179.011L189.97 178.877C190.506 178.877 191.042 179.413 191.042 179.949C191.176 180.619 190.64 181.021 189.97 181.021Z" fill="#107B73"/>
<path opacity="0.61" d="M170.138 231.807L109.303 232.209C108.767 232.209 108.231 231.673 108.231 231.137C108.231 230.601 108.767 230.065 109.303 230.065L170.138 229.663C170.674 229.663 171.21 230.199 171.21 230.735C171.21 231.271 170.674 231.807 170.138 231.807Z" fill="white"/>
<path opacity="0.61" d="M190.372 231.673L177.776 231.807C177.24 231.807 176.704 231.271 176.704 230.735C176.704 230.199 177.24 229.663 177.776 229.663L190.372 229.529C190.908 229.529 191.444 230.065 191.444 230.601C191.444 231.137 191.042 231.673 190.372 231.673Z" fill="#083C53"/>
<path opacity="0.61" d="M169.87 205.409L109.035 205.811C108.499 205.811 107.963 205.275 107.963 204.739C107.963 204.203 108.499 203.667 109.035 203.667L169.87 203.265C170.406 203.265 170.942 203.801 170.942 204.337C170.942 204.873 170.54 205.409 169.87 205.409Z" fill="#083C53"/>
<path opacity="0.61" d="M190.238 205.275L177.642 205.409C177.106 205.409 176.57 204.873 176.57 204.337C176.57 203.801 177.106 203.265 177.642 203.265L190.238 203.131C190.774 203.131 191.31 203.667 191.31 204.203C191.31 204.739 190.774 205.141 190.238 205.275Z" fill="white"/>
<path opacity="0.61" d="M211.008 205.007L198.412 205.141C197.876 205.141 197.34 204.605 197.34 204.069C197.34 203.533 197.876 202.997 198.412 202.997L211.008 202.863C211.544 202.863 212.08 203.399 212.08 203.935C212.08 204.605 211.678 205.007 211.008 205.007Z" fill="#107B73"/>
<path opacity="0.61" d="M149.502 193.215L108.901 193.617C108.365 193.617 107.829 193.081 107.829 192.545C107.829 192.009 108.365 191.473 108.901 191.473L149.502 191.205C150.038 191.205 150.574 191.741 150.574 192.277C150.574 192.813 150.172 193.215 149.502 193.215Z" fill="#107B73"/>
<path opacity="0.61" d="M174.828 193.081L157.006 193.215C156.471 193.215 155.935 192.679 155.935 192.143C155.935 191.607 156.471 191.071 157.006 191.071L174.828 190.937C175.364 190.937 175.9 191.473 175.9 192.009C175.9 192.545 175.364 193.081 174.828 193.081Z" fill="#F7A9B4"/>
<path opacity="0.61" d="M174.962 218.541L134.361 218.809C133.825 218.809 133.289 218.273 133.289 217.737C133.289 217.201 133.825 216.665 134.361 216.665L174.962 216.397C175.498 216.397 176.034 216.933 176.034 217.469C176.034 218.005 175.632 218.541 174.962 218.541Z" fill="#107B73"/>
<path opacity="0.61" d="M126.991 218.809L109.169 218.943C108.633 218.943 108.097 218.407 108.097 217.871C108.097 217.335 108.633 216.799 109.169 216.799L126.991 216.665C127.527 216.665 128.063 217.201 128.063 217.737C128.063 218.407 127.527 218.809 126.991 218.809Z" fill="#F7A9B4"/>
<path opacity="0.61" d="M170.272 247.485L109.437 247.887C108.901 247.887 108.365 247.351 108.365 246.815C108.365 246.279 108.901 245.743 109.437 245.743L170.272 245.341C170.808 245.341 171.344 245.877 171.344 246.413C171.344 246.949 170.808 247.485 170.272 247.485Z" fill="#F7A9B4"/>
<path opacity="0.61" d="M190.506 247.216L177.91 247.35C177.374 247.35 176.838 246.814 176.838 246.278C176.838 245.742 177.374 245.207 177.91 245.207L190.506 245.073C191.042 245.073 191.578 245.608 191.578 246.144C191.578 246.814 191.176 247.216 190.506 247.216Z" fill="#107B73"/>
<path opacity="0.61" d="M190.774 279.242L178.178 279.376C177.642 279.376 177.106 278.84 177.106 278.304C177.106 277.768 177.642 277.232 178.178 277.232L190.774 277.098C191.31 277.098 191.846 277.634 191.846 278.17C191.846 278.706 191.31 279.242 190.774 279.242Z" fill="white"/>
<path opacity="0.61" d="M211.544 278.974L198.948 279.108C198.412 279.108 197.876 278.572 197.876 278.036C197.876 277.5 198.412 276.964 198.948 276.964L211.544 276.83C212.08 276.83 212.616 277.366 212.616 277.902C212.616 278.572 212.214 278.974 211.544 278.974Z" fill="#107B73"/>
<path opacity="0.61" d="M150.039 259.411L109.437 259.679C108.901 259.679 108.365 259.143 108.365 258.607C108.365 258.071 108.901 257.535 109.437 257.535L150.039 257.267C150.575 257.267 151.111 257.803 151.111 258.339C151.111 259.009 150.575 259.411 150.039 259.411Z" fill="#107B73"/>
<path opacity="0.61" d="M175.364 259.277L157.543 259.411C157.007 259.411 156.471 258.875 156.471 258.339C156.471 257.803 157.007 257.267 157.543 257.267L175.364 257.133C175.9 257.133 176.436 257.669 176.436 258.205C176.436 258.741 175.9 259.277 175.364 259.277Z" fill="#F7A9B4"/>
<path d="M54.7156 349.455C47.1096 347.543 9.95314 336.794 2 336L444.395 340.888C447.301 343.93 445.607 348.494 444.395 350.396C437.654 357.914 399.232 354.76 381.56 353.309L381.008 353.263C354.699 348.315 333.507 351.2 326.197 353.263C300.919 360.498 288.581 357.865 285.572 355.644C273.191 349.931 262.787 350.725 259.133 351.836C241.077 358.309 225.816 356.12 220.442 354.218C200.839 347.361 179.601 351.043 171.433 353.739C152.901 359.861 141.985 353.263 133.387 351.361C103.725 342.721 86.5279 350.092 70.8369 351.361C61.0351 351.742 59.1651 350.574 54.7156 349.455Z" fill="#142D48"/>
<g clip-path="url(#clip0)">
<path d="M296.891 340H173.138C160.963 340 151 330.014 151 317.811V45.1886C151 32.9863 160.963 23 173.138 23H296.891C309.065 23 319.029 32.9863 319.029 45.1886V317.811C319 330.014 309.037 340 296.891 340Z" fill="#7020F1"/>
<path d="M310.673 47.2895V313.61C310.673 322.646 303.351 330.043 294.393 330.043H175.607C166.649 330.043 159.355 322.646 159.355 313.61V47.2895C159.327 38.2529 166.649 30.8567 175.607 30.8567H294.422C303.351 30.8567 310.673 38.2529 310.673 47.2895Z" fill="#D4E5FC"/>
<path d="M259.822 40.7566H210.149C206.1 40.7566 202.798 37.447 202.798 33.3892V32.238C202.798 28.1802 206.1 24.8706 210.149 24.8706H259.822C263.871 24.8706 267.173 28.1802 267.173 32.238V33.3892C267.202 37.447 263.871 40.7566 259.822 40.7566Z" fill="#7020F1"/>
<path opacity="0.7" d="M290.813 167H180.187C178.366 167 177 166.618 177 166.109V160.891C177 160.382 178.366 160 180.187 160H290.813C292.634 160 294 160.382 294 160.891V166.109C294 166.618 292.634 167 290.813 167Z" fill="white"/>
<path opacity="0.7" d="M281.297 179H189.703C188.73 179 188 178.236 188 177.218V173.782C188 172.764 188.73 172 189.703 172H281.297C282.27 172 283 172.764 283 173.782V177.218C283 178.236 282.27 179 281.297 179Z" fill="white"/>
<path opacity="0.7" d="M291.903 191H179.097C177.899 191 177 190.236 177 189.218V185.782C177 184.764 177.899 184 179.097 184H291.903C293.101 184 294 184.764 294 185.782V189.218C294 190.236 293.101 191 291.903 191Z" fill="white"/>
<path d="M251.128 60C241.494 63.2545 233.987 66.5089 235.057 80.6116C244.69 78.4419 253.268 73.0178 251.128 60ZM220.532 79.581C211.257 79.581 197.859 87.8256 197.859 103.284C197.859 124.927 212.288 146.569 220.532 146.569C226.716 146.569 231.869 142.446 235.991 142.446C240.113 142.446 244.236 146.569 250.419 146.569C258.664 146.569 267.939 134.202 270 122.865C262.786 117.712 257.633 114.621 257.633 105.345C257.633 99.162 262.786 92.9785 268.969 87.8256C265.878 83.7034 259.694 79.581 253.511 79.581C247.327 79.581 240.678 84.4733 235.991 84.7339C231.869 84.7339 226.716 79.581 220.532 79.581Z" fill="#F2F7FE"/>
<path d="M159 212H311V314C311 322.837 303.837 330 295 330H175C166.163 330 159 322.837 159 314V212Z" fill="white"/>
<path d="M202.3 261.276H177.992C175.279 261.276 173 259.107 173 256.287V231.99C173 229.278 175.171 227 177.992 227H202.3C205.013 227 207.292 229.169 207.292 231.99V256.287C207.183 259.107 205.013 261.276 202.3 261.276Z" fill="#36E4B8"/>
<g opacity="0.8">
<path opacity="0.36" d="M197.525 244.464C197.525 248.585 194.269 251.839 190.146 251.839C186.022 251.839 182.766 248.585 182.766 244.464C182.766 240.342 186.022 237.088 190.146 237.088C194.161 237.088 197.525 240.342 197.525 244.464Z" fill="white"/>
</g>
<path opacity="0.26" d="M233.553 238.606H214.346C213.694 238.606 213.152 238.064 213.152 237.413V233.725C213.152 233.074 213.694 232.532 214.346 232.532H233.553C234.204 232.532 234.747 233.074 234.747 233.725V237.413C234.855 238.064 234.313 238.606 233.553 238.606Z" fill="#B8CDE2"/>
<path opacity="0.26" d="M213.152 248.043C212.501 248.043 212.067 247.609 212.067 246.958C212.067 246.308 212.501 245.874 213.152 245.874H250.156C250.808 245.874 251.242 246.308 251.242 246.958C251.242 247.609 250.808 248.043 250.156 248.043H213.152Z" fill="#B8CDE2"/>
<path opacity="0.26" d="M213.152 255.744C212.501 255.744 212.067 255.31 212.067 254.66C212.067 254.009 212.501 253.575 213.152 253.575H273.488C274.139 253.575 274.573 254.009 274.573 254.66C274.573 255.31 274.139 255.744 273.488 255.744H213.152Z" fill="#B8CDE2"/>
<path opacity="0.26" d="M258.404 248.043C257.753 248.043 257.319 247.609 257.319 246.958C257.319 246.308 257.753 245.874 258.404 245.874H295.408C296.059 245.874 296.493 246.308 296.493 246.958C296.493 247.609 296.059 248.043 295.408 248.043H258.404Z" fill="#B8CDE2"/>
<path d="M202.3 307.739H177.992C175.279 307.739 173 305.569 173 302.749V278.452C173 275.74 175.17 273.462 177.992 273.462H202.3C205.013 273.462 207.292 275.632 207.292 278.452V302.749C207.292 305.569 205.013 307.739 202.3 307.739Z" fill="#599AF2"/>
<g opacity="0.57">
<path opacity="0.57" d="M197.525 290.926C197.525 295.048 194.269 298.302 190.146 298.302C186.022 298.302 182.766 295.048 182.766 290.926C182.766 286.804 186.022 283.55 190.146 283.55C194.269 283.55 197.525 286.804 197.525 290.926Z" fill="#3E479B"/>
</g>
<path opacity="0.26" d="M233.662 285.069H214.454C213.803 285.069 213.26 284.526 213.26 283.875V280.188C213.26 279.537 213.803 278.994 214.454 278.994H233.662C234.313 278.994 234.856 279.537 234.856 280.188V283.875C234.856 284.526 234.313 285.069 233.662 285.069Z" fill="#B8CDE2"/>
<path opacity="0.26" d="M213.152 294.506C212.501 294.506 212.067 294.072 212.067 293.421C212.067 292.77 212.501 292.336 213.152 292.336H250.156C250.808 292.336 251.242 292.77 251.242 293.421C251.242 294.072 250.808 294.506 250.156 294.506H213.152Z" fill="#B8CDE2"/>
<path opacity="0.26" d="M213.152 302.207C212.501 302.207 212.067 301.773 212.067 301.122C212.067 300.471 212.501 300.037 213.152 300.037H273.488C274.139 300.037 274.573 300.471 274.573 301.122C274.573 301.773 274.139 302.207 273.488 302.207H213.152Z" fill="#B8CDE2"/>
<path opacity="0.26" d="M258.512 294.506C257.861 294.506 257.427 294.072 257.427 293.421C257.427 292.77 257.861 292.336 258.512 292.336H295.517C296.168 292.336 296.602 292.77 296.602 293.421C296.602 294.072 296.168 294.506 295.517 294.506H258.512Z" fill="#B8CDE2"/>
</g>
<g clip-path="url(#clip1)">
<path d="M72.0498 91.164C73.4183 95.6729 71.6537 100.218 68.1246 101.3C64.5955 102.382 60.5983 99.6048 59.2299 95.0958C57.8615 90.5869 59.626 86.0418 63.1551 84.9597C66.6842 83.8775 70.6814 86.655 72.0498 91.164Z" fill="black"/>
<path d="M89.4072 115.404C89.4072 115.404 94.4128 116.991 97.2937 120.923C100.139 124.855 100.607 130.374 100.715 133.187C100.859 136.001 101.615 146.895 101.615 146.895L93.1164 149.275L89.4072 115.404Z" fill="#FF6B3D"/>
<path d="M125.418 333.962C125.418 333.962 131.792 342.547 130.928 343.918C130.064 345.289 123.366 345.469 119.26 343.918C115.191 342.367 115.083 332.303 113.247 327.974C112.49 326.171 114.111 320.832 116.452 320.435C118.792 320.038 121.313 321.193 121.313 321.193C121.313 321.193 118.864 327.253 125.418 333.962Z" fill="#14172B"/>
<path d="M121.313 321.085C121.313 321.085 122.645 324.728 123.15 328.227C123.546 331.112 127.687 337.281 127.507 338.038C127.327 338.832 122.069 339.517 119.945 337.497C117.82 335.477 116.452 329.67 115.947 326.171C115.515 322.924 114.939 321.301 114.939 321.301C114.939 321.301 119.296 318.956 121.313 321.085Z" fill="#FFC6BC"/>
<path d="M69.9613 334.106C69.9613 334.106 76.1192 342.547 75.2189 343.918C74.3546 345.289 67.6565 345.469 63.5513 343.918C59.482 342.367 59.374 332.303 57.5374 327.974C56.7812 326.171 58.4017 320.832 60.7424 320.435C63.0831 320.038 65.784 321.265 65.784 321.265C65.784 321.265 63.4072 327.397 69.9613 334.106Z" fill="#14172B"/>
<path d="M65.82 321.229C65.82 321.229 66.2881 325.233 67.0804 328.046C67.8726 330.86 72.0499 337.281 71.8338 338.074C71.6538 338.868 66.3962 339.553 64.2715 337.533C62.1469 335.513 60.4903 329.706 60.2743 326.207C60.0942 322.708 60.7424 320.399 60.7424 320.399C60.7424 320.399 63.7673 319.101 65.82 321.229Z" fill="#FFC6BC"/>
<path d="M96.5014 181.379C96.5014 181.379 101.975 206.846 103.235 213.266C104.496 219.687 107.989 250.745 108.385 256.011C108.745 261.278 114.075 281.189 113.823 283.065C113.571 284.941 121.709 322.852 121.709 322.852C121.709 322.852 118.936 325.088 115.983 323.068C114.471 322.022 98.0859 287.574 98.0859 278.159C98.0859 265.137 88.4709 248.112 87.2105 245.19C75.687 218.1 77.9557 209.804 76.4432 208.036C74.9307 206.269 74.8227 209.118 73.9224 213.014C73.0582 216.91 71.1496 250.601 70.0332 254.893C68.9169 259.186 69.7812 273.65 69.169 280.937C68.5568 288.223 65.7839 321.229 65.7839 321.229C65.7839 321.229 63.6593 324.583 60.6704 321.301C60.0222 320.616 55.4848 284.58 55.3767 275.887C55.2687 267.193 55.1246 255.254 54.8726 251.502C52.5318 215.539 46.8421 210.417 55.8449 184.95C72.698 137.3 96.5014 181.379 96.5014 181.379Z" fill="#FFC6BC"/>
<path d="M59.7701 174.273C59.7701 174.273 44.1773 196.096 50.9113 242.557C50.9113 242.557 87.8587 247.607 107.629 236.749C107.629 236.749 99.4543 188.846 96.4654 181.415C93.5125 173.912 59.7701 174.273 59.7701 174.273Z" fill="#083C53"/>
<path d="M113.066 327.181V336.199H114.219V329.237L113.066 327.181Z" fill="#14172B"/>
<path d="M57.3934 327.181V336.199H58.5457V329.237L57.3934 327.181Z" fill="#14172B"/>
<path d="M80.6925 112.23C80.6925 112.23 87.4266 115.043 89.4072 115.44C91.3878 115.837 98.1219 125.793 99.4903 129.472C100.859 133.151 99.4903 138.634 96.7175 145.127C93.9446 151.584 96.5734 153.748 95.277 160.205C94.0167 166.662 98.1219 180.441 98.374 184.048C98.6261 187.656 60.9225 188.233 53.5042 181.668C53.5042 181.668 60.9585 170.485 61.8948 168.898C62.8671 167.311 62.0388 158.618 61.1745 156.381C60.3103 154.145 54.4765 135.135 54.4765 135.135C54.4765 135.135 49.687 120.526 54.0083 117.172C57.7535 114.25 67.9446 113.204 69.7812 112.591C71.6178 111.941 76.9474 111.653 80.6925 112.23Z" fill="#FF6B3D"/>
<path d="M83.4294 105.593C83.4294 105.593 83.2853 107.036 83.0693 109.019C82.9973 109.885 82.8892 110.895 82.8172 111.905C82.6011 114.791 82.3851 117.965 82.4931 119.552C82.4931 119.552 76.5153 125.54 69.7452 112.554C69.7452 112.554 72.5901 107.216 70.4654 99.9294C68.3407 92.6429 83.4294 105.593 83.4294 105.593Z" fill="#FFC6BC"/>
<path d="M98.41 153.748L99.4183 156.165L97.2576 154.65L98.41 153.748Z" fill="#EEA886"/>
<path d="M85.446 72.4429C85.446 72.4429 98.8061 76.6632 91.5678 99.7491C84.3296 122.835 66.036 97.0798 67.9446 82.9758C69.8532 68.9439 85.446 72.4429 85.446 72.4429Z" fill="#FFC6BC"/>
<path d="M92.9363 85.9336C92.9363 85.9336 86.3103 92.4626 75.1829 93.2923C75.1829 93.2923 70.8975 98.3062 70.5734 100.29C70.5734 100.29 58.9418 80.8475 72.8421 73.2004C87.5707 65.0843 97.4017 81.7493 92.9363 85.9336Z" fill="black"/>
<path d="M75.0748 93.148C75.0028 91.4526 73.9584 87.629 71.4737 88.7112C68.9889 89.7933 71.6177 97.5848 73.2742 97.1159C73.2742 97.1159 75.2909 97.1159 75.0748 93.148Z" fill="#FFC6BC"/>
<path d="M83.0692 109.019C82.9972 109.885 82.8892 110.895 82.8172 111.905C75.0748 108.082 73.8864 102.563 73.8864 102.382C79.7922 109.019 83.0692 109.019 83.0692 109.019Z" fill="#F6B5AA"/>
<path d="M100.175 133.043C100.175 133.043 100.535 141.195 98.7341 145.849L97.0776 144.983C97.0416 144.947 100.139 136.831 100.175 133.043Z" fill="#1D3B54"/>
<path d="M71.1856 159.484C71.1856 159.484 74.2826 157.428 74.7507 157.139C75.2188 156.85 76.9114 156.923 78.6399 157.5C80.3324 158.041 82.241 158.762 82.7452 159.051C83.0332 159.195 83.2853 159.267 83.1773 160.061C83.0693 160.854 82.5291 161.468 82.5291 161.468C82.5291 161.468 82.8532 162.514 82.133 163.235C82.133 163.235 82.385 164.245 81.4488 164.894C81.4488 164.894 81.6648 165.868 80.9446 166.301C80.9446 166.301 79.3601 166.518 78.7839 166.409C77.9557 166.229 73.5263 165.219 70.4294 164.389C70.3934 164.353 69.133 163.596 71.1856 159.484Z" fill="#FFC6BC"/>
<path d="M81.8449 158.798C81.8449 158.798 89.8394 160.566 89.7313 161.179C89.5873 162.081 87.6067 162.405 81.5208 160.746C75.615 159.123 81.8449 158.798 81.8449 158.798Z" fill="#FFC6BC"/>
<path d="M62.1108 115.801C60.3103 114.719 54.2244 114.827 51.8837 120.526C49.5069 126.226 47.5983 132.682 45.9418 135.676C44.2853 138.634 38.6316 152.233 40.3241 153.856C41.9806 155.48 45.4377 157.428 50.6233 158.654C55.9529 159.917 71.4737 165.688 71.4737 165.688L73.4543 157.283C73.4543 157.283 66.6482 154.037 62.687 152.45C59.1939 151.043 59.6261 150.682 53.8643 148.626C53.8643 148.626 57.1773 140.185 58.6538 137.913C60.1302 135.676 70.2853 120.779 62.1108 115.801Z" fill="#FF6B3D"/>
<path d="M83.2133 173.804L103.956 172.109C104.892 172.037 105.72 171.532 106.224 170.702L127.723 135.785C128.911 133.837 127.543 131.312 125.238 131.312L103.019 131.059C101.939 131.059 100.931 131.636 100.391 132.61L80.4044 169.476C79.2881 171.532 80.9086 174.021 83.2133 173.804Z" fill="#F4F9FB"/>
<path d="M112.274 160.963C112.274 160.963 113.571 159.736 114.759 158.041C115.911 156.345 119.729 149.853 119.368 149.456C119.008 149.059 113.391 148.915 112.346 149.817C111.338 150.754 113.355 151.115 113.355 151.115C113.355 151.115 110.258 151.44 110.474 152.305C110.69 153.171 112.562 152.955 112.562 152.955C112.562 152.955 110.078 153.424 110.438 154.181C110.798 154.939 112.022 154.939 112.022 154.939C112.022 154.939 109.826 155.227 110.078 156.057C110.366 156.887 113.823 157.68 113.355 158.365C112.923 159.087 112.274 160.963 112.274 160.963Z" fill="#FFC6BC"/>
<path d="M68.7728 112.807C68.7728 112.807 76.2631 125.035 82.205 124.891C88.1468 124.747 84.0775 113.601 84.0775 113.601C84.0775 113.601 79.5401 109.921 68.7728 112.807Z" fill="#FFC6BC"/>
<path d="M107.809 153.82C105.792 155.84 103.091 156.382 101.759 155.047C100.427 153.712 100.967 151.007 102.983 148.987C105 146.967 107.701 146.426 109.033 147.76C110.33 149.095 109.789 151.8 107.809 153.82Z" fill="#CFE2E8"/>
<path d="M94.0166 82.7233C94.0166 82.7233 94.8449 85.9336 93.4404 91.5247C93.4404 91.5247 93.6565 86.2583 92.5401 84.8154C91.4598 83.3726 94.0166 82.7233 94.0166 82.7233Z" fill="black"/>
</g>
<path opacity="0.39" d="M395.17 218.992L396.301 312.737C396.301 314.391 394.996 315.783 393.342 315.783L337.635 316.48C335.981 316.48 334.588 315.174 334.588 313.52L333.456 219.775C333.456 218.121 334.762 216.729 336.416 216.729L392.123 216.032C393.777 216.032 395.17 217.338 395.17 218.992Z" fill="white"/>
<path opacity="0.39" d="M395.17 218.992L396.301 312.737C396.301 314.391 394.996 315.783 393.342 315.783L337.635 316.48C335.981 316.48 334.588 315.174 334.588 313.52L333.456 219.775C333.456 218.121 334.762 216.729 336.416 216.729L392.123 216.032C393.777 216.032 395.17 217.338 395.17 218.992Z" fill="#36E4B8"/>
<path d="M395.344 218.991L395.431 223.778L333.805 224.562L333.718 219.6C333.718 218.034 334.936 216.728 336.503 216.728L392.297 216.032C393.951 215.945 395.344 217.337 395.344 218.991Z" fill="#36E4B8"/>
<path d="M337.982 221.777C337.286 221.777 336.677 221.254 336.677 220.558C336.677 219.862 337.199 219.252 337.895 219.252C338.592 219.252 339.201 219.775 339.201 220.471C339.201 221.167 338.679 221.689 337.982 221.777ZM337.895 219.688C337.46 219.688 337.112 220.036 337.112 220.471C337.112 220.906 337.46 221.254 337.895 221.254C338.331 221.254 338.679 220.906 338.679 220.471C338.679 220.036 338.331 219.688 337.895 219.688Z" fill="white"/>
<path d="M342.161 221.689C341.464 221.689 340.855 221.167 340.855 220.471C340.855 219.774 341.377 219.165 342.073 219.165C342.77 219.165 343.379 219.687 343.379 220.384C343.466 221.08 342.857 221.689 342.161 221.689ZM342.161 219.687C341.725 219.687 341.377 220.035 341.377 220.471C341.377 220.906 341.725 221.254 342.161 221.254C342.596 221.254 342.944 220.906 342.944 220.471C342.944 220.035 342.596 219.687 342.161 219.687Z" fill="white"/>
<path d="M346.339 221.689C345.642 221.689 345.033 221.167 345.033 220.471C345.033 219.774 345.555 219.165 346.252 219.165C346.948 219.165 347.557 219.687 347.557 220.384C347.557 221.08 347.035 221.689 346.339 221.689ZM346.252 219.6C345.817 219.6 345.468 219.948 345.468 220.384C345.468 220.819 345.817 221.167 346.252 221.167C346.687 221.167 347.035 220.819 347.035 220.384C347.035 219.948 346.687 219.6 346.252 219.6Z" fill="white"/>
<path d="M367.577 233.353L339.114 233.527C338.853 233.527 338.592 233.266 338.592 233.005C338.592 232.744 338.853 232.483 339.114 232.483L367.577 232.309C367.838 232.309 368.099 232.57 368.099 232.831C368.012 233.092 367.838 233.353 367.577 233.353Z" fill="white"/>
<path d="M377.065 233.266L371.146 233.353C370.885 233.353 370.624 233.092 370.624 232.831C370.624 232.57 370.885 232.309 371.146 232.309L377.065 232.221C377.326 232.221 377.587 232.483 377.587 232.744C377.5 233.092 377.326 233.266 377.065 233.266Z" fill="white"/>
<path d="M367.751 257.029L339.288 257.203C339.027 257.203 338.766 256.942 338.766 256.681C338.766 256.419 339.027 256.158 339.288 256.158L367.751 255.984C368.012 255.984 368.273 256.245 368.273 256.506C368.186 256.768 368.012 257.029 367.751 257.029Z" fill="white"/>
<path d="M377.239 256.942L371.32 257.029C371.059 257.029 370.798 256.768 370.798 256.506C370.798 256.245 371.059 255.984 371.32 255.984L377.239 255.897C377.5 255.897 377.761 256.158 377.761 256.419C377.674 256.681 377.5 256.942 377.239 256.942Z" fill="white"/>
<path d="M367.664 244.669L339.201 244.843C338.94 244.843 338.679 244.582 338.679 244.32C338.679 244.059 338.94 243.798 339.201 243.798L367.664 243.624C367.925 243.624 368.186 243.885 368.186 244.146C368.099 244.408 367.925 244.669 367.664 244.669Z" fill="white"/>
<path d="M377.152 244.582L371.233 244.669C370.972 244.669 370.711 244.408 370.711 244.146C370.711 243.885 370.972 243.624 371.233 243.624L377.152 243.537C377.413 243.537 377.674 243.798 377.674 244.059C377.587 244.321 377.413 244.582 377.152 244.582Z" fill="white"/>
<path d="M386.814 244.495L380.895 244.582C380.633 244.582 380.372 244.321 380.372 244.059C380.372 243.798 380.633 243.537 380.895 243.537L386.814 243.45C387.075 243.45 387.336 243.711 387.336 243.972C387.336 244.234 387.162 244.495 386.814 244.495Z" fill="white"/>
<path d="M358.089 239.011L339.114 239.185C338.853 239.185 338.592 238.924 338.592 238.663C338.592 238.402 338.853 238.14 339.114 238.14L358.089 237.966C358.351 237.966 358.612 238.228 358.612 238.489C358.612 238.75 358.351 239.011 358.089 239.011Z" fill="white"/>
<path d="M369.927 238.924L361.571 239.011C361.31 239.011 361.049 238.75 361.049 238.489C361.049 238.228 361.31 237.966 361.571 237.966L369.927 237.879C370.188 237.879 370.449 238.141 370.449 238.402C370.449 238.663 370.188 238.924 369.927 238.924Z" fill="white"/>
<path d="M370.014 250.762L351.039 250.936C350.778 250.936 350.517 250.675 350.517 250.414C350.517 250.152 350.778 249.891 351.039 249.891L370.014 249.717C370.276 249.717 370.537 249.978 370.537 250.239C370.537 250.588 370.276 250.762 370.014 250.762Z" fill="white"/>
<path d="M347.47 250.936L339.114 251.023C338.853 251.023 338.592 250.762 338.592 250.501C338.592 250.24 338.853 249.978 339.114 249.978L347.47 249.891C347.731 249.891 347.992 250.152 347.992 250.414C347.992 250.762 347.818 250.936 347.47 250.936Z" fill="white"/>
<path d="M367.751 264.95L339.288 265.211C339.027 265.211 338.766 264.95 338.766 264.689C338.766 264.428 339.027 264.166 339.288 264.166L367.751 263.992C368.012 263.992 368.273 264.253 368.273 264.515C368.273 264.776 368.099 264.95 367.751 264.95Z" fill="white"/>
<path d="M377.239 264.95L371.32 265.037C371.059 265.037 370.798 264.776 370.798 264.515C370.798 264.253 371.059 263.992 371.32 263.992L377.239 263.905C377.5 263.905 377.761 264.166 377.761 264.428C377.761 264.689 377.587 264.95 377.239 264.95Z" fill="white"/>
<path d="M367.925 288.625L339.462 288.886C339.201 288.886 338.94 288.625 338.94 288.364C338.94 288.103 339.201 287.842 339.462 287.842L367.925 287.668C368.186 287.668 368.448 287.929 368.448 288.19C368.448 288.451 368.274 288.625 367.925 288.625Z" fill="white"/>
<path d="M377.413 288.538L371.494 288.625C371.233 288.625 370.972 288.364 370.972 288.103C370.972 287.842 371.233 287.581 371.494 287.581L377.413 287.494C377.674 287.494 377.935 287.755 377.935 288.016C377.935 288.364 377.761 288.538 377.413 288.538Z" fill="white"/>
<path d="M367.838 276.265L339.375 276.439C339.114 276.439 338.853 276.178 338.853 275.917C338.853 275.656 339.114 275.395 339.375 275.395L367.838 275.221C368.099 275.221 368.361 275.482 368.361 275.743C368.361 276.004 368.099 276.265 367.838 276.265Z" fill="white"/>
<path d="M377.326 276.178L371.407 276.265C371.146 276.265 370.885 276.004 370.885 275.743C370.885 275.482 371.146 275.221 371.407 275.221L377.326 275.134C377.587 275.134 377.848 275.395 377.848 275.656C377.848 276.004 377.674 276.178 377.326 276.178Z" fill="white"/>
<path d="M387.075 276.091L381.156 276.178C380.895 276.178 380.634 275.917 380.634 275.656C380.634 275.395 380.895 275.134 381.156 275.134L387.075 275.047C387.336 275.047 387.597 275.308 387.597 275.569C387.597 275.917 387.336 276.091 387.075 276.091Z" fill="white"/>
<path d="M358.351 270.608L339.288 270.782C339.027 270.782 338.766 270.521 338.766 270.259C338.766 269.998 339.027 269.737 339.288 269.737L358.263 269.563C358.525 269.563 358.786 269.824 358.786 270.085C358.786 270.346 358.612 270.608 358.351 270.608Z" fill="white"/>
<path d="M370.188 270.521L361.832 270.608C361.571 270.608 361.31 270.346 361.31 270.085C361.31 269.824 361.571 269.563 361.832 269.563L370.188 269.476C370.45 269.476 370.711 269.737 370.711 269.998C370.624 270.259 370.45 270.521 370.188 270.521Z" fill="white"/>
<path d="M370.275 282.445L351.3 282.619C351.039 282.619 350.778 282.358 350.778 282.097C350.778 281.836 351.039 281.575 351.3 281.575L370.275 281.401C370.537 281.401 370.798 281.662 370.798 281.923C370.711 282.184 370.537 282.445 370.275 282.445Z" fill="white"/>
<path d="M347.731 282.619L339.375 282.706C339.114 282.706 338.853 282.445 338.853 282.184C338.853 281.923 339.114 281.662 339.375 281.662L347.731 281.575C347.993 281.575 348.254 281.836 348.254 282.097C348.254 282.358 347.993 282.619 347.731 282.619Z" fill="white"/>
<path d="M368.012 295.937L339.549 296.111C339.288 296.111 339.027 295.85 339.027 295.589C339.027 295.328 339.288 295.067 339.549 295.067L368.012 294.979C368.273 294.979 368.535 295.241 368.535 295.502C368.535 295.763 368.273 295.937 368.012 295.937Z" fill="white"/>
<path d="M377.5 295.85L371.581 295.937C371.32 295.937 371.059 295.676 371.059 295.415C371.059 295.153 371.32 294.892 371.581 294.892L377.5 294.805C377.761 294.805 378.022 295.066 378.022 295.328C378.022 295.676 377.761 295.85 377.5 295.85Z" fill="white"/>
<path d="M377.587 310.821L371.668 310.908C371.407 310.908 371.146 310.647 371.146 310.386C371.146 310.125 371.407 309.864 371.668 309.864L377.587 309.777C377.848 309.777 378.109 310.038 378.109 310.299C378.109 310.56 377.935 310.821 377.587 310.821Z" fill="white"/>
<path d="M387.336 310.734L381.417 310.821C381.156 310.821 380.895 310.56 380.895 310.299C380.895 310.038 381.156 309.777 381.417 309.777L387.336 309.69C387.597 309.69 387.858 309.951 387.858 310.212C387.858 310.473 387.597 310.734 387.336 310.734Z" fill="white"/>
<path d="M358.525 301.595L339.549 301.769C339.288 301.769 339.027 301.508 339.027 301.247C339.027 300.985 339.288 300.724 339.549 300.724L358.525 300.55C358.786 300.55 359.047 300.811 359.047 301.072C359.047 301.334 358.873 301.595 358.525 301.595Z" fill="white"/>
<path d="M370.363 301.508L362.007 301.595C361.745 301.595 361.484 301.334 361.484 301.073C361.484 300.811 361.745 300.55 362.007 300.55L370.363 300.463C370.624 300.463 370.885 300.724 370.885 300.985C370.885 301.247 370.624 301.508 370.363 301.508Z" fill="white"/>
<path opacity="0.22" d="M412.491 75.9797L413.623 188.091C413.623 189.745 412.317 191.05 410.663 191.137L343.64 191.834C341.986 191.834 340.681 190.528 340.594 188.874L339.462 76.7631C339.462 75.1093 340.768 73.8036 342.422 73.7166L409.445 73.0203C411.098 73.0203 412.491 74.3259 412.491 75.9797Z" fill="#7020F1"/>
<path d="M408.487 70.8442L409.619 182.955C409.619 184.609 408.313 185.915 406.659 186.002L339.636 186.698C337.982 186.698 336.677 185.392 336.59 183.739L335.458 71.5405C335.458 69.8867 336.764 68.5811 338.418 68.494L405.441 67.7977C407.181 67.8847 408.487 69.1904 408.487 70.8442Z" fill="white"/>
<path d="M408.748 70.7572L408.835 77.0243L335.806 77.8077L335.719 71.3665C335.719 69.7998 336.938 68.4941 338.592 68.4941L405.702 67.7978C407.356 67.7978 408.748 69.1034 408.748 70.7572Z" fill="#36E4B8"/>
<path d="M399.783 71.6276C399.522 71.6276 399.348 71.4535 399.348 71.1924C399.348 70.9312 399.522 70.7571 399.783 70.7571L405.267 70.6701C405.441 70.6701 405.702 70.8442 405.702 71.1053C405.702 71.3664 405.528 71.5405 405.267 71.5405L399.783 71.6276Z" fill="white"/>
<path d="M399.783 73.0203C399.522 73.0203 399.348 72.8463 399.348 72.5851C399.348 72.324 399.522 72.1499 399.783 72.1499L405.267 72.0629C405.441 72.0629 405.702 72.237 405.702 72.4981C405.702 72.7592 405.528 72.9333 405.267 72.9333L399.783 73.0203Z" fill="white"/>
<path d="M399.783 74.413C399.522 74.413 399.348 74.239 399.348 73.9778C399.348 73.7167 399.522 73.5426 399.783 73.5426L405.267 73.4556C405.528 73.4556 405.702 73.6297 405.702 73.8908C405.702 74.1519 405.528 74.326 405.267 74.326L399.783 74.413Z" fill="white"/>
<path d="M342.334 75.8928C342.247 75.8928 342.073 75.8928 342.073 75.8057L340.071 73.8037C339.81 73.5426 339.81 73.1944 340.071 72.9333L341.899 71.0184C342.073 70.8443 342.334 70.8443 342.509 71.0184C342.683 71.1925 342.683 71.4536 342.509 71.6277L340.768 73.3685L342.596 75.1094C342.77 75.2835 342.77 75.5446 342.596 75.7187C342.509 75.8057 342.422 75.8928 342.334 75.8928Z" fill="white"/>
<path opacity="0.36" d="M406.572 186.176L339.288 186.524C337.634 186.524 336.329 185.218 336.329 183.565L336.155 160.237L409.27 159.802L409.445 183.129C409.445 184.87 408.139 186.176 406.572 186.176Z" fill="#599AF2"/>
<path d="M387.075 93.7367L357.741 93.9107C357.219 93.9107 356.784 93.4755 356.784 92.9533V89.7327C356.784 89.2104 357.219 88.7752 357.741 88.7752L387.162 88.6011C387.684 88.6011 388.119 89.0363 388.119 89.5586V92.7792C388.032 93.3014 387.597 93.7367 387.075 93.7367Z" fill="#36E4B8"/>
<path opacity="0.32" d="M396.475 114.714L348.602 114.975C346.339 114.975 344.511 113.147 344.424 110.884V109.839C344.424 107.576 346.251 105.748 348.515 105.661L396.388 105.4C398.651 105.4 400.479 107.228 400.566 109.491V110.536C400.566 112.886 398.738 114.714 396.475 114.714Z" fill="#599AF2"/>
<path opacity="0.43" d="M352.083 110.362C352.083 111.928 350.865 113.234 349.211 113.234C347.644 113.234 346.339 112.015 346.339 110.362C346.339 108.708 347.557 107.489 349.211 107.489C350.778 107.576 352.083 108.795 352.083 110.362Z" fill="white"/>
<path d="M350.255 109.578C350.255 110.187 349.82 110.623 349.211 110.623C348.602 110.623 348.166 110.187 348.166 109.578C348.166 108.969 348.602 108.534 349.211 108.534C349.82 108.534 350.255 109.056 350.255 109.578Z" fill="white"/>
<path d="M350.778 112.276H347.731V111.928C347.731 111.058 348.428 110.362 349.298 110.362C350.081 110.362 350.778 110.971 350.778 111.754V112.276Z" fill="white"/>
<path opacity="0.32" d="M396.562 129.772L348.689 130.033C346.426 130.033 344.598 128.205 344.511 125.942V124.898C344.511 122.635 346.338 120.807 348.602 120.72L396.475 120.459C398.738 120.459 400.566 122.287 400.653 124.55V125.594C400.653 127.944 398.825 129.772 396.562 129.772Z" fill="#599AF2"/>
<path opacity="0.43" d="M352.171 125.42C352.171 126.987 350.952 128.293 349.298 128.293C347.731 128.293 346.426 127.074 346.426 125.42C346.426 123.853 347.644 122.548 349.298 122.548C350.865 122.635 352.171 123.853 352.171 125.42Z" fill="white"/>
<path d="M350.343 127.248H348.428C348.254 127.248 348.167 127.161 348.167 126.987V125.246C348.167 125.072 348.254 124.985 348.428 124.985H350.343C350.517 124.985 350.604 125.072 350.604 125.246V126.987C350.604 127.161 350.43 127.248 350.343 127.248Z" fill="white"/>
<path d="M348.342 125.246V124.55C348.342 124.376 348.429 124.201 348.516 124.027C348.691 123.853 348.865 123.853 349.039 123.853H349.648C349.822 123.853 349.996 123.94 350.083 124.027C350.17 124.114 350.257 124.288 350.257 124.463V125.246H349.996V124.463C349.996 124.376 349.996 124.288 349.909 124.201C349.822 124.114 349.735 124.114 349.648 124.114H349.039C348.952 124.114 348.778 124.201 348.691 124.288C348.604 124.376 348.516 124.463 348.516 124.637V125.333L348.342 125.246Z" fill="white"/>
<path d="M383.941 146.659L363.312 146.746C360.788 146.746 358.786 144.744 358.786 142.219C358.786 139.695 360.788 137.693 363.312 137.693L383.941 137.606C386.465 137.606 388.467 139.608 388.467 142.132C388.467 144.57 386.465 146.659 383.941 146.659Z" fill="#FF6B3D"/>
<path d="M352.867 169.986C352.432 169.986 351.996 169.638 351.996 169.116C351.996 168.593 352.344 168.245 352.867 168.245L392.819 167.984C393.255 167.984 393.69 168.332 393.69 168.854C393.69 169.377 393.342 169.725 392.819 169.725L352.867 169.986Z" fill="white"/>
<path d="M360.962 175.992C360.526 175.992 360.091 175.644 360.091 175.122C360.091 174.599 360.439 174.251 360.962 174.251L384.724 174.077C385.159 174.077 385.595 174.425 385.595 174.947C385.595 175.47 385.247 175.818 384.724 175.818L360.962 175.992Z" fill="white"/>
<path opacity="0.22" d="M361.484 152.142L362.616 264.253C362.616 265.907 361.31 267.213 359.656 267.3L292.633 267.996C290.98 267.996 289.674 266.69 289.587 265.037L288.455 152.925C288.455 151.272 289.761 149.966 291.415 149.879L358.438 149.183C360.092 149.183 361.397 150.488 361.484 152.142Z" fill="#7020F1"/>
<path d="M357.48 146.92L358.612 259.031C358.612 260.685 357.306 261.99 355.652 262.077L288.629 262.774C286.975 262.774 285.67 261.468 285.583 259.814L284.451 147.703C284.451 146.049 285.757 144.744 287.411 144.657L354.434 143.96C356.087 143.96 357.48 145.266 357.48 146.92Z" fill="white"/>
<path opacity="0.42" d="M357.48 146.92L358.612 259.031C358.612 260.685 357.306 261.99 355.652 262.077L288.629 262.774C286.975 262.774 285.67 261.468 285.583 259.814L284.451 147.703C284.451 146.049 285.757 144.744 287.411 144.657L354.434 143.96C356.087 143.96 357.48 145.266 357.48 146.92Z" fill="#D0DDEF"/>
<path d="M357.741 146.92L357.828 153.187L284.799 153.97L284.712 147.529C284.712 145.962 285.931 144.656 287.585 144.656L354.695 143.96C356.349 143.96 357.654 145.266 357.741 146.92Z" fill="#FBD15B"/>
<path d="M348.689 147.79C348.428 147.79 348.254 147.616 348.254 147.355C348.254 147.094 348.428 146.92 348.689 146.92L354.173 146.833C354.347 146.833 354.608 147.007 354.608 147.268C354.608 147.529 354.434 147.703 354.173 147.703L348.689 147.79Z" fill="white"/>
<path d="M348.689 149.183C348.428 149.183 348.254 149.009 348.254 148.748C348.254 148.486 348.428 148.312 348.689 148.312L354.173 148.225C354.434 148.225 354.608 148.399 354.608 148.66C354.608 148.922 354.434 149.096 354.173 149.096L348.689 149.183Z" fill="white"/>
<path d="M348.689 150.575C348.428 150.575 348.254 150.401 348.254 150.14C348.254 149.879 348.428 149.705 348.689 149.705L354.173 149.618C354.434 149.618 354.608 149.792 354.608 150.053C354.608 150.314 354.434 150.488 354.173 150.488L348.689 150.575Z" fill="white"/>
<path d="M291.241 152.055C291.153 152.055 290.979 152.055 290.979 151.968L288.977 149.966C288.716 149.705 288.716 149.357 288.977 149.096L290.892 147.181C291.066 147.007 291.328 147.007 291.502 147.181C291.676 147.355 291.676 147.616 291.502 147.79L289.761 149.531L291.589 151.272C291.763 151.446 291.763 151.707 291.589 151.881C291.502 151.968 291.415 152.055 291.241 152.055Z" fill="white"/>
<g opacity="0.36">
<path opacity="0.36" d="M355.478 262.338L288.194 262.686C286.54 262.686 285.235 261.381 285.235 259.727L285.061 236.4L358.177 235.964L358.351 259.292C358.438 260.946 357.132 262.338 355.478 262.338Z" fill="white"/>
<path opacity="0.36" d="M288.194 263.122C287.324 263.122 286.453 262.773 285.844 262.164C285.235 261.555 284.887 260.684 284.8 259.814L284.625 236.051L358.612 235.616L358.786 259.379C358.786 261.207 357.306 262.773 355.391 262.773L288.194 263.122ZM285.583 236.922L285.67 259.814C285.67 260.51 285.931 261.12 286.453 261.555C286.889 261.99 287.585 262.251 288.194 262.251L355.478 261.903C356.871 261.903 358.002 260.771 358.002 259.379L357.915 236.487L285.583 236.922Z" fill="white"/>
</g>
<path d="M349.995 171.205L297.247 171.118C296.289 171.118 295.506 170.334 295.593 169.377V164.154C295.593 163.197 296.376 162.413 297.334 162.5L350.082 162.587C351.039 162.587 351.823 163.371 351.736 164.328V169.551C351.648 170.508 350.865 171.205 349.995 171.205Z" fill="white"/>
<path d="M350.168 177.907L296.898 177.82C296.115 177.82 295.506 177.21 295.506 176.427C295.506 175.644 296.115 175.034 296.898 175.034L350.168 175.121C350.952 175.121 351.561 175.731 351.561 176.514C351.648 177.297 351.039 177.907 350.168 177.907Z" fill="white"/>
<path d="M350.169 184.522L296.898 184.435C296.115 184.435 295.506 183.826 295.506 183.042C295.506 182.259 296.115 181.65 296.898 181.65L350.169 181.737C350.952 181.737 351.561 182.346 351.561 183.129C351.648 183.913 350.952 184.522 350.169 184.522Z" fill="white"/>
<path d="M302.73 194.271C302.73 196.273 301.076 197.84 299.074 197.84C297.072 197.84 295.506 196.186 295.506 194.184C295.506 192.182 297.159 190.615 299.161 190.615C301.076 190.615 302.73 192.269 302.73 194.271Z" fill="#F7A9B4"/>
<path d="M302.73 210.635C302.73 212.637 301.076 214.204 299.074 214.204C297.072 214.204 295.506 212.55 295.506 210.548C295.506 208.546 297.159 206.979 299.161 206.979C301.076 206.979 302.73 208.633 302.73 210.635Z" fill="#F7A9B4"/>
<path d="M302.73 226.477C302.73 228.479 301.076 230.045 299.074 230.045C297.072 230.045 295.506 228.391 295.506 226.389C295.506 224.388 297.159 222.821 299.161 222.821C301.076 222.908 302.73 224.475 302.73 226.477Z" fill="#F7A9B4"/>
<path d="M339.288 192.965H304.732C304.471 192.965 304.297 192.791 304.297 192.53C304.297 192.269 304.471 192.095 304.732 192.095H339.288C339.549 192.095 339.723 192.269 339.723 192.53C339.723 192.791 339.549 192.965 339.288 192.965Z" fill="white"/>
<path d="M322.054 196.621H304.819C304.558 196.621 304.384 196.447 304.384 196.186C304.384 195.925 304.558 195.751 304.819 195.751H322.054C322.315 195.751 322.489 195.925 322.489 196.186C322.489 196.447 322.315 196.621 322.054 196.621Z" fill="white"/>
<path d="M339.288 209.851H304.732C304.471 209.851 304.297 209.677 304.297 209.416C304.297 209.155 304.471 208.981 304.732 208.981H339.288C339.549 208.981 339.723 209.155 339.723 209.416C339.723 209.677 339.549 209.851 339.288 209.851Z" fill="white"/>
<path d="M322.054 213.507H304.819C304.558 213.507 304.384 213.333 304.384 213.072C304.384 212.811 304.558 212.637 304.819 212.637H322.054C322.315 212.637 322.489 212.811 322.489 213.072C322.489 213.333 322.228 213.507 322.054 213.507Z" fill="white"/>
<path d="M339.288 225.345H304.732C304.471 225.345 304.297 225.171 304.297 224.91C304.297 224.649 304.471 224.475 304.732 224.475H339.288C339.549 224.475 339.723 224.649 339.723 224.91C339.723 225.084 339.549 225.345 339.288 225.345Z" fill="white"/>
<path d="M321.966 228.914H304.732C304.471 228.914 304.297 228.74 304.297 228.478C304.297 228.217 304.471 228.043 304.732 228.043H321.966C322.228 228.043 322.402 228.217 322.402 228.478C322.402 228.74 322.228 228.914 321.966 228.914Z" fill="white"/>
<path d="M301.773 246.061C301.338 246.061 300.902 245.713 300.902 245.191C300.902 244.669 301.251 244.32 301.773 244.32L341.725 244.059C342.161 244.059 342.596 244.407 342.596 244.93C342.596 245.452 342.248 245.8 341.725 245.8L301.773 246.061Z" fill="white"/>
<path d="M309.955 252.067C309.519 252.067 309.084 251.719 309.084 251.197C309.084 250.675 309.432 250.326 309.955 250.326L333.717 250.152C334.153 250.152 334.588 250.501 334.588 251.023C334.588 251.545 334.24 251.893 333.717 251.893L309.955 252.067Z" fill="white"/>
<path d="M425.637 201.089C412.358 204.634 404.547 218.651 407.984 232.186C411.421 245.72 424.856 253.776 438.135 250.231C451.257 246.687 459.068 232.83 455.631 219.135C452.195 205.6 438.759 197.544 425.637 201.089ZM435.166 238.631C428.293 240.564 421.106 236.214 419.388 229.124C417.513 222.035 421.731 214.623 428.605 212.851C435.479 210.918 442.665 215.268 444.383 222.357C446.258 229.447 442.04 236.697 435.166 238.631Z" fill="#B2CAE3"/>
<path d="M432.51 205.278L421.731 208.179C421.731 208.179 417.669 199.8 418.919 197.544C420.325 195.128 427.355 192.872 429.698 194.644C432.042 196.255 432.51 205.278 432.51 205.278Z" fill="#B2CAE3"/>
<path d="M441.259 243.464L430.48 246.365C430.48 246.365 430.949 255.71 433.292 257.16C435.635 258.61 442.822 256.838 444.071 254.26C445.165 251.682 441.259 243.464 441.259 243.464Z" fill="#B2CAE3"/>
<path d="M417.512 210.918L413.294 221.391C413.294 221.391 404.39 219.618 403.452 217.04C402.359 214.462 405.171 207.373 407.827 206.567C410.326 205.762 417.512 210.918 417.512 210.918Z" fill="#B2CAE3"/>
<path d="M412.983 226.385L414.077 237.825C414.077 237.825 405.484 240.564 403.453 238.792C401.11 237.019 400.173 229.447 402.204 227.513C404.078 225.58 412.983 226.385 412.983 226.385Z" fill="#B2CAE3"/>
<path d="M451.725 226.869L449.382 215.751C449.382 215.751 457.662 211.884 459.849 213.334C462.192 214.946 463.911 222.196 462.192 224.452C460.474 226.708 451.725 226.869 451.725 226.869Z" fill="#B2CAE3"/>
<path d="M436.885 205.278L445.633 212.206C445.633 212.206 452.507 206.084 452.194 203.345C451.882 200.444 446.102 195.772 443.446 196.416C440.79 197.061 436.885 205.278 436.885 205.278Z" fill="#B2CAE3"/>
<path d="M425.169 247.17L416.42 240.242C416.42 240.242 409.546 246.364 409.859 249.103C410.171 252.004 415.951 256.676 418.607 256.032C421.263 255.226 425.169 247.17 425.169 247.17Z" fill="#B2CAE3"/>
<path d="M446.57 241.531L450.944 231.058C450.944 231.058 459.849 232.83 460.786 235.408C461.88 237.986 459.068 245.237 456.412 245.881C453.912 246.687 446.57 241.531 446.57 241.531Z" fill="#B2CAE3"/>
<defs>
<clipPath id="clip0">
<rect width="168" height="317" fill="white" transform="translate(151 23)"/>
</clipPath>
<clipPath id="clip1">
<rect width="91" height="274" fill="white" transform="translate(40 71)"/>
</clipPath>
</defs>
</svg>
