<?xml version="1.0" encoding="utf-8"?>
<!-- Generator: Adobe Illustrator 24.2.1, SVG Export Plug-In . SVG Version: 6.00 Build 0)  -->
<svg version="1.1" id="freepik_stories-chatting" xmlns:svgjs="http://svgjs.com/svgjs"
	 xmlns="http://www.w3.org/2000/svg" xmlns:xlink="http://www.w3.org/1999/xlink" x="0px" y="0px" viewBox="0 0 500 500"
	 style="enable-background:new 0 0 500 500;" xml:space="preserve">
<style type="text/css">
	.st0{fill:#22C37D;}
	.st1{opacity:0.7;fill:#FFFFFF;enable-background:new    ;}
	.st2{opacity:0.5;fill:#FFFFFF;enable-background:new    ;}
	.st3{fill:#FFFFFF;stroke:#263238;stroke-linecap:round;stroke-linejoin:round;}
	.st4{fill:#263238;stroke:#263238;stroke-linecap:round;stroke-linejoin:round;}
	.st5{fill:none;stroke:#FFFFFF;stroke-linecap:round;stroke-linejoin:round;}
	.st6{fill:#FFFFFF;}
	.st7{clip-path:url(#SVGID_2_);}
	.st8{fill:#263238;}
	.st9{fill:none;stroke:#263238;stroke-linecap:round;stroke-linejoin:round;}
	.st10{fill:none;stroke:#263238;stroke-miterlimit:10;}
	.st11{fill:#22C37D;stroke:#263238;stroke-miterlimit:10;}
	.st12{fill:#263238;stroke:#263238;stroke-miterlimit:10;}
	.st13{fill:#22C37D;stroke:#263238;stroke-linecap:round;stroke-linejoin:round;}
	.st14{clip-path:url(#SVGID_4_);}
	.st15{clip-path:url(#SVGID_6_);}
	.st16{fill:none;}
	.st17{clip-path:url(#SVGID_8_);}
	.st18{clip-path:url(#SVGID_10_);}
	.st19{clip-path:url(#SVGID_12_);}
	.st20{clip-path:url(#SVGID_14_);}
	.st21{clip-path:url(#SVGID_16_);}
	.st22{clip-path:url(#SVGID_18_);}
</style>
<g id="freepik--background-simple--inject-6">
	<path id="ellj82v1ge3ar" class="st0" d="M421.9,312.5c22.5-39.5,24.1-92.2,8.5-134.4c-13.4-36.4-43.2-64.1-77.7-80.6
		c-40-19.2-87.6-24.9-130.5-12.8c-11.3,3.2-22.3,6.1-32.9,11.3c-43.6,21.4-35.2,74.2-50.5,92.6c-12.9,15.4-37.5,10.9-53,22.7
		C44,243.3,43.9,324,92.2,349.3C143.5,376,366.1,410.5,421.9,312.5z"/>
	<g id="elqrbbqh8oj0j">
		<path class="st1" d="M421.9,312.5c22.5-39.5,24.1-92.2,8.5-134.4c-13.4-36.4-43.2-64.1-77.7-80.6c-40-19.2-87.6-24.9-130.5-12.8
			c-11.3,3.2-22.3,6.1-32.9,11.3c-43.6,21.4-35.2,74.2-50.5,92.6c-12.9,15.4-37.5,10.9-53,22.7C44,243.3,43.9,324,92.2,349.3
			C143.5,376,366.1,410.5,421.9,312.5z"/>
	</g>
</g>
<g id="freepik--Floor--inject-6">
	<ellipse id="el8b9ngybjqoy" class="st0" cx="246.2" cy="387.7" rx="175" ry="24.7"/>
	<g id="el34dhryipp0o">
		<ellipse class="st2" cx="246.2" cy="387.7" rx="175" ry="24.7"/>
	</g>
</g>
<g id="freepik--Couch--inject-6">
	<path id="elwb3t3nh3hu" class="st3" d="M368.6,280.1c0,0-1.9-72.5-27.5-80.6c-26.1-8.3-54.1-7.6-81.2-6.4
		c-25.5,1.2-51.3,0.4-76.8,2.1c-28.1,1.9-38.4,14.7-44.6,40.7c-3.4,14.5-5.3,29.3-5.6,44.2l-6.3,18.8h248.2L368.6,280.1z"/>
	<path id="elpyc0007p4fs" class="st3" d="M154.2,288.8v-16.3c0,0-0.6-11.9-14.4-13.1s-51.3,28.1-50.6,34.4s7.5,50.6,11.9,52.5
		s15.6,10.7,25.6,5.7S154.2,288.8,154.2,288.8z"/>
	<path id="el5dm73zvlqll" class="st3" d="M342.4,288.8v-16.3c0,0,0.6-11.9,14.4-13.1s51.2,28.1,50.6,34.4s-7.5,50.6-11.9,52.5
		s-15.6,10.6-25.6,5.6S342.4,288.8,342.4,288.8z"/>
	<path id="elx2d5a6211lp" class="st3" d="M154.2,288.8c-1,1.1-2.1,2-3.3,2.9c-8.4,6.9-29.8,23.3-29.8,23.3h255.7L342.4,287
		L154.2,288.8z"/>
	<polygon id="elns9owt43x6l" class="st4" points="121.1,315.1 121.1,340.9 376.6,340.9 376.8,315.1 	"/>
	<path id="elwmx4jozjvho" class="st4" d="M113,366.4l-8,25.1c-0.6,1.7,0.4,3.6,2.2,4.2c0.3,0.1,0.7,0.2,1,0.2l0,0
		c1.1,0,2.1-0.5,2.7-1.4l19-27.3L113,366.4z"/>
	<path id="elkw7lhtolcz" class="st4" d="M384.9,366.4l8,25.1c0.6,1.7-0.4,3.6-2.2,4.2c-0.3,0.1-0.7,0.2-1,0.2l0,0
		c-1.1,0-2.1-0.5-2.7-1.4L368,367L384.9,366.4z"/>
	<path id="elo6zlpn2ksq" class="st4" d="M401,286.5c-4.1-2-8.8-2.3-14.5,0.5c-11.3,5.6-10,28.1-10,28.1v25H121.1v-25
		c0,0,1.3-22.5-10-28.1c-5.6-2.8-10.3-2.5-14.5-0.5c-7.2,3.5-11,11.6-9.9,19.5c1.8,13,5.1,35.6,8.1,44.7
		c4.4,13.1,4.4,15.6,13.8,18.8c8.1,2.7,112.7,0.7,140.3,0.1c27.6,0.6,132.1,2.6,140.3-0.1c9.4-3.1,9.4-5.6,13.8-18.8
		c3-9.1,6.4-31.7,8.1-44.7C412,298.1,408.2,290,401,286.5z"/>
	<line id="el72hce3ovfmv" class="st5" x1="365.8" y1="340.1" x2="373.2" y2="340.1"/>
	<line id="el88fwugzcfn5" class="st5" x1="121.1" y1="340.1" x2="359.2" y2="340.1"/>
</g>
<g id="freepik--Chat--inject-6">
	<g id="eljw4oox7btkn">
		<circle class="st6" cx="290.6" cy="157.9" r="23.6"/>
	</g>
	<g>
		<defs>
			<circle id="SVGID_1_" cx="290.6" cy="157.9" r="23.6"/>
		</defs>
		<clipPath id="SVGID_2_">
			<use xlink:href="#SVGID_1_"  style="overflow:visible;"/>
		</clipPath>
		<g id="el8471f6ifgr" class="st7">
			<path id="elqfd4g55u4x" class="st3" d="M266.6,178.6c0,0,7.7-7.4,11.9-9.6s9.6,0.2,12.3,2.8s9.8,11.5,9.8,11.5h-36L266.6,178.6z"
				/>
			<path id="elvmj33kbvti" class="st3" d="M283.2,164.6c0,0-5.5,1.1-5.8,2.3s3.8,14.7,3.8,14.7l4.9-5.1l5.3,3.4c0,0,1.1-8.9-1.5-13
				C288.6,164.6,285.8,163.6,283.2,164.6z"/>
			<path id="el1u312bba1ga" class="st3" d="M283,159c0,0-1.1,8.3,0,10.4s3.2,10.6,3.6,8.3s2.1-12.4,2.1-12.4S287.5,158.4,283,159z"
				/>
			<path id="el54uqd2qn4wb" class="st3" d="M302.6,150.5c0,0-2.1,10-4.3,14.3s-4.5,6.8-7.7,5.8s-6-8.5-6-8.5s-2.8-1.3-3.6-3.2
				s0.2-3.2,2.6-4.1s0-4.7,1.1-7.7s8.3-0.6,10.4-0.2S302.6,150.5,302.6,150.5z"/>
			<path id="el7eh752k22dm" class="st8" d="M294,157.7c-0.1,0.8-0.4,1.3-0.8,1.3s-0.6-0.7-0.5-1.4s0.4-1.3,0.8-1.3
				S294.1,157,294,157.7z"/>
			<path id="ellar4hoe1z8i" class="st8" d="M298.6,158.2c-0.1,0.8-0.4,1.3-0.8,1.3s-0.6-0.7-0.5-1.4s0.4-1.3,0.8-1.3
				S298.6,157.4,298.6,158.2z"/>
			<path id="elybhs0whqyo8" class="st9" d="M296.8,156.3c0,0-0.5,2.4,0,3.4s1.3,2.4,0,2.4c-0.8,0-1.5-0.3-2.1-0.8"/>
			<path id="elcr0hzygb4bf" class="st9" d="M295.5,164.4c0,0-2.6,1-3.9-1"/>
			<path id="eln66jyem3pmd" class="st9" d="M291.8,154.6c0.5-0.8,1.6-1,2.4-0.6"/>
			<path id="elum4u1vkbd0h" class="st9" d="M297.3,154.9c0.6-0.5,1.5-0.4,2,0.2c0.1,0.1,0.2,0.3,0.3,0.5"/>
			<path id="el5wxuq98guog" class="st4" d="M287.1,148.4l0.4,5.7l-3.6,3.6c-0.9,0.9-2.3-3.2-2.3-3.2s-1.9-8.1-1.9-11.5s5.5-3,5.5-3
				c2.5-1.8,5.6-2.8,8.7-2.8c4.9,0.2,14,6.4,14.7,10.2s-4.7,4.7-9.8,3.8C294.8,150.6,290.9,149.6,287.1,148.4z"/>
		</g>
	</g>
	<g id="el69c45l5n9fd">
		<circle class="st10" cx="290.6" cy="157.9" r="23.6"/>
	</g>
	<path id="elapfigbxc3i5" class="st11" d="M326.3,93.1h-9.5l9.5,5.1v25.9c0,2.8,2.2,5,5,5h79c2.8,0,5-2.2,5-5v-26c0-2.8-2.2-5-5-5
		L326.3,93.1z"/>
	<path id="el296yrr118l" class="st8" d="M354.5,109.4c0-2-1.6-3.7-3.7-3.7s-3.7,1.6-3.7,3.7s1.6,3.7,3.7,3.7c0,0,0,0,0,0
		C352.9,113.1,354.5,111.4,354.5,109.4C354.5,109.4,354.5,109.4,354.5,109.4z"/>
	<path id="elz1q6144hp1d" class="st8" d="M374.2,109.4c0-2-1.6-3.7-3.7-3.7c-2,0-3.7,1.6-3.7,3.7c0,2,1.6,3.7,3.7,3.7
		C372.5,113.1,374.2,111.4,374.2,109.4C374.2,109.4,374.2,109.4,374.2,109.4z"/>
	<circle id="elq9acthjmlr" class="st8" cx="390.2" cy="109.4" r="3.7"/>
	<path id="el5fglznos30h" class="st11" d="M326.3,187.7h-9.5l9.5,5.1v25.9c0,2.8,2.2,5,5,5h79c2.8,0,5-2.2,5-5v-26c0-2.8-2.2-5-5-5
		H326.3z"/>
	<path id="elzmfsgb7i4fb" class="st8" d="M354.5,204.1c0-2-1.6-3.7-3.7-3.7c-2,0-3.7,1.6-3.7,3.7c0,2,1.6,3.7,3.7,3.7c0,0,0,0,0,0
		C352.9,207.7,354.5,206.1,354.5,204.1z"/>
	<path id="elpgrt5q20fl" class="st8" d="M374.2,204.1c0-2-1.6-3.7-3.7-3.7c-2,0-3.7,1.6-3.7,3.7c0,2,1.6,3.7,3.7,3.7
		S374.2,206.1,374.2,204.1C374.2,204.1,374.2,204.1,374.2,204.1z"/>
	<path id="elnlfufrkutwa" class="st8" d="M393.8,204.1c0-2-1.6-3.7-3.7-3.7c-2,0-3.7,1.6-3.7,3.7c0,2,1.6,3.7,3.7,3.7
		C392.2,207.7,393.8,206.1,393.8,204.1z"/>
	<path id="ell14wu0av9b" class="st12" d="M326.3,141.7h-9.5l9.5,5.1v25.9c0,2.8,2.2,5,5,5h79c2.8,0,5-2.2,5-5v-26c0-2.8-2.2-5-5-5
		H326.3z"/>
	<path id="ellxgowwlomhd" class="st0" d="M354.5,158.1c0-2-1.6-3.7-3.7-3.7c-2,0-3.7,1.6-3.7,3.7c0,2,1.6,3.7,3.7,3.7c0,0,0,0,0,0
		C352.9,161.7,354.5,160.1,354.5,158.1z"/>
	<path id="eljritr7a66e" class="st0" d="M374.2,158.1c0-2-1.6-3.7-3.7-3.7c-2,0-3.7,1.6-3.7,3.7c0,2,1.6,3.7,3.7,3.7
		S374.2,160.1,374.2,158.1C374.2,158.1,374.2,158.1,374.2,158.1z"/>
	<path id="elfim5mzsjho" class="st0" d="M393.8,158.1c0-2-1.6-3.7-3.7-3.7c-2,0-3.7,1.6-3.7,3.7c0,2,1.6,3.7,3.7,3.7
		C392.2,161.7,393.8,160.1,393.8,158.1z"/>
</g>
<g id="freepik--Character--inject-6">
	<path id="elxw2w8p920d8" class="st13" d="M204.8,276.7c0,0,13-1.7,21.7,1.3s9.3,16.3,9,27.7s-4.7,58.3-4.7,65s0,13.3-2.7,18.7
		s-10.3,7.7-13.7,8.3s-4.3-0.7-4.3-0.7s-4,0.3-4-1.7s3.7-2,5.7-4s6.7-10.7,7.7-15.7c0.9-5.1,1.4-10.2,1.7-15.3c0.3-5-3-26.7-5.3-38
		s-2.3-13-4.3-21S204.5,283.1,204.8,276.7z"/>
	<path id="elswis0w0hli" class="st3" d="M230.8,371.3c-3.6,0.6-7.2,0-10.4-1.8c-0.2,2.1-0.5,4.2-0.9,6.2c-1,5-5.7,13.7-7.7,15.7
		s-5.7,2-5.7,4s4,1.7,4,1.7s1,1.3,4.3,0.7s11-3,13.7-8.3C230.8,384.2,230.8,377.8,230.8,371.3z"/>
	<path id="elmoz6issm9sr" class="st9" d="M210.2,397.1c0-1,0.5-1.9,1.3-2.4c0.7-0.3,1.3-0.8,1.7-1.5"/>
	<path id="elxf6y1irr9g" class="st9" d="M212.8,397.7c0.3-0.7,0.7-1.3,1.1-1.9c0.7-0.8,2-2.1,2-2.1"/>
	<path id="el28nbqk8z7c2" class="st9" d="M216.9,397.1c0,0-0.8-1.6,0.1-2.1c0.7-0.5,1.5-1,2.1-1.6"/>
	<path id="el5a6u5u5i7a" class="st9" d="M220,396.1c0.2-0.9,0.6-1.8,1.2-2.5c0.5-0.5,0.9-1,1.3-1.5"/>
	<path id="el4twh050nrea" class="st13" d="M169.8,311.7c0,0,15.7-1.7,27-5.7s17.3-6,19.3-14s-2-14.7-14.3-15.3s-30,0.7-35.3,12.3
		S162.2,307.7,169.8,311.7z"/>
	<path id="el35pzuepv1u6" class="st6" d="M202.9,208.8c0,0-14.9,5.6-19,6.7s-9.3,6-10.8,12.7s-2.2,35.4-2.2,35.4s-13.8,4.1-16.8,4.9
		s-3.4,7.5-3.4,7.5c-0.2,1.2-0.6,2.3-1.1,3.4l-0.8,1.1c0,0-2.6-1.1,14.9,2.6s45.8,1.5,45.8,1.5s4.1,0.4,5.2-4.8s2.2-12.7,3.7-14.9
		s3-4.5,3-11.2s4.1-25.7,3.7-32.4s-6.3-11.2-13-12.3S202.9,208.8,202.9,208.8z"/>
	<g>
		<defs>
			<path id="SVGID_3_" d="M202.9,208.8c0,0-14.9,5.6-19,6.7s-9.3,6-10.8,12.7s-2.2,35.4-2.2,35.4s-13.8,4.1-16.8,4.9
				s-3.4,7.5-3.4,7.5c-0.2,1.2-0.6,2.3-1.1,3.4l-0.8,1.1c0,0-2.6-1.1,14.9,2.6s45.8,1.5,45.8,1.5s4.1,0.4,5.2-4.8s2.2-12.7,3.7-14.9
				s3-4.5,3-11.2s4.1-25.7,3.7-32.4s-6.3-11.2-13-12.3S202.9,208.8,202.9,208.8z"/>
		</defs>
		<clipPath id="SVGID_4_">
			<use xlink:href="#SVGID_3_"  style="overflow:visible;"/>
		</clipPath>
		<g id="el8fobi4kkpi" class="st14">
			<g>
				<defs>
					<path id="SVGID_5_" d="M202.9,208.8c0,0-14.9,5.6-19,6.7s-9.3,6-10.8,12.7s-2.2,35.4-2.2,35.4s-13.8,4.1-16.8,4.9
						s-3.4,7.5-3.4,7.5c-0.2,1.2-0.6,2.3-1.1,3.4l-0.8,1.1c0,0-2.6-1.1,14.9,2.6s45.8,1.5,45.8,1.5s4.1,0.4,5.2-4.8
						s2.2-12.7,3.7-14.9s3-4.5,3-11.2s4.1-25.7,3.7-32.4s-6.3-11.2-13-12.3S202.9,208.8,202.9,208.8z"/>
				</defs>
				<clipPath id="SVGID_6_">
					<use xlink:href="#SVGID_5_"  style="overflow:visible;"/>
				</clipPath>
				<g id="elax6gsotddbl" class="st15">
					<rect id="el7zc1gsdur3c" x="216.3" y="200.7" class="st16" width="29.3" height="23.8"/>
					<rect id="el3v3w0vbn7qe" x="216.3" y="200.7" class="st6" width="29.3" height="23.8"/>
					<path id="eldizbvxxrfr7" class="st0" d="M223.5,216c0,0-1.3-3-3.5-3s-3.5,3-2.5,4.5s5,0.5,5,0.5s-2.3,2.5-1.5,4
						c0.8,1.7,2.9,2.5,4.6,1.6c0.3-0.2,0.6-0.4,0.9-0.6c2.5-2-0.8-4.3-0.8-4.3s3.3,0.3,4.3-1.5s-1-5-3-4.5S223.5,216,223.5,216z"/>
					<path id="elsl39zlx3pbl" class="st0" d="M237.8,205.2c0,0-1.3-3-3.5-3s-3.5,3-2.5,4.5s5,0.5,5,0.5s-2.3,2.5-1.5,4
						c0.8,1.7,2.9,2.5,4.6,1.6c0.3-0.2,0.6-0.4,0.9-0.6c2.5-2-0.8-4.3-0.8-4.3s3.3,0.3,4.3-1.5s-1-5-3-4.5S237.8,205.2,237.8,205.2z
						"/>
					<rect id="el1rksgpq712w" x="216.3" y="224.5" class="st16" width="29.3" height="23.8"/>
					<rect id="elcvzsr7suy2i" x="216.3" y="224.5" class="st6" width="29.3" height="23.8"/>
					<path id="elfvvdyagexdj" class="st0" d="M223.5,239.8c0,0-1.3-3-3.5-3s-3.5,3-2.5,4.5s5,0.5,5,0.5s-2.3,2.5-1.5,4
						c0.8,1.7,2.9,2.5,4.6,1.6c0.3-0.2,0.6-0.4,0.9-0.6c2.5-2-0.8-4.3-0.8-4.3s3.3,0.3,4.3-1.5s-1-5-3-4.5S223.5,239.8,223.5,239.8z
						"/>
					<path id="elcb518wy2iq9" class="st0" d="M237.8,229c0,0-1.3-3-3.5-3s-3.5,3-2.5,4.5s5,0.5,5,0.5s-2.3,2.5-1.5,4
						c0.8,1.7,2.9,2.5,4.6,1.6c0.3-0.2,0.6-0.4,0.9-0.6c2.5-2-0.8-4.3-0.8-4.3s3.3,0.3,4.3-1.5s-1-5-3-4.5S237.8,229,237.8,229z"/>
					<rect id="ell10hvzcijv" x="216.3" y="248.2" class="st16" width="29.3" height="23.7"/>
					<rect id="eldrdskuend27" x="216.3" y="248.2" class="st6" width="29.3" height="23.7"/>
					<path id="elqc2xuv0313e" class="st0" d="M223.5,263.5c0,0-1.3-3-3.5-3s-3.5,3-2.5,4.5s5,0.5,5,0.5s-2.3,2.5-1.5,4
						c0.8,1.7,2.9,2.5,4.6,1.6c0.3-0.2,0.6-0.4,0.9-0.6c2.5-2-0.8-4.3-0.8-4.3s3.3,0.3,4.3-1.5s-1-5-3-4.5S223.5,263.5,223.5,263.5z
						"/>
					<path id="elbhhminmlx8w" class="st0" d="M237.8,252.7c0,0-1.3-3-3.5-3s-3.5,3-2.5,4.5s5,0.5,5,0.5s-2.3,2.5-1.5,4
						c0.8,1.7,2.9,2.5,4.6,1.6c0.3-0.2,0.6-0.4,0.9-0.6c2.5-2-0.8-4.3-0.8-4.3s3.3,0.3,4.3-1.5s-1-5-3-4.5S237.8,252.7,237.8,252.7z
						"/>
					<rect id="elqqhqkhty9f" x="216.3" y="272" class="st16" width="29.3" height="23.8"/>
					<rect id="el57zr5ikbrc7" x="216.3" y="272" class="st6" width="29.3" height="23.8"/>
					<path id="elk74f9svoiz" class="st0" d="M223.5,287.3c0,0-1.3-3-3.5-3s-3.5,3-2.5,4.5s5,0.5,5,0.5s-2.3,2.5-1.5,4
						c0.8,1.7,2.9,2.5,4.6,1.6c0.3-0.2,0.6-0.4,0.9-0.6c2.5-2-0.8-4.3-0.8-4.3s3.3,0.3,4.3-1.5s-1-5-3-4.5S223.5,287.3,223.5,287.3z
						"/>
					<path id="elw55dhyoro4" class="st0" d="M237.8,276.5c0,0-1.3-3-3.5-3s-3.5,3-2.5,4.5s5,0.5,5,0.5s-2.3,2.5-1.5,4
						c0.8,1.7,2.9,2.5,4.6,1.6c0.3-0.2,0.6-0.4,0.9-0.6c2.5-2-0.8-4.3-0.8-4.3s3.3,0.3,4.3-1.5s-1-5-3-4.5S237.8,276.5,237.8,276.5z
						"/>
					<rect id="elybn43i7s4hf" x="187" y="200.7" class="st16" width="29.3" height="23.8"/>
					<rect id="el04grjge6v3iu" x="187" y="200.7" class="st6" width="29.3" height="23.8"/>
					<path id="elhzj6tqn2jnh" class="st0" d="M194.3,216c0,0-1.3-3-3.5-3s-3.5,3-2.5,4.5s5,0.5,5,0.5s-2.3,2.5-1.5,4
						c0.8,1.7,2.9,2.5,4.6,1.6c0.3-0.2,0.6-0.4,0.9-0.6c2.5-2-0.8-4.3-0.8-4.3s3.3,0.3,4.3-1.5s-1-5-3-4.5S194.3,216,194.3,216z"/>
					<path id="elegs020gttnf" class="st0" d="M208.5,205.2c0,0-1.3-3-3.5-3s-3.5,3-2.5,4.5s5,0.5,5,0.5s-2.3,2.5-1.5,4
						c0.8,1.7,2.9,2.5,4.6,1.6c0.3-0.2,0.6-0.4,0.9-0.6c2.5-2-0.8-4.3-0.8-4.3s3.3,0.3,4.3-1.5s-1-5-3-4.5S208.5,205.2,208.5,205.2z
						"/>
					<rect id="el39puvsxv5df" x="187" y="224.5" class="st16" width="29.3" height="23.8"/>
					<rect id="elekwroyv2zwq" x="187" y="224.5" class="st6" width="29.3" height="23.8"/>
					<path id="elzupfdfic3nj" class="st0" d="M194.3,239.8c0,0-1.3-3-3.5-3s-3.5,3-2.5,4.5s5,0.5,5,0.5s-2.3,2.5-1.5,4
						c0.8,1.7,2.9,2.5,4.6,1.6c0.3-0.2,0.6-0.4,0.9-0.6c2.5-2-0.8-4.3-0.8-4.3s3.3,0.3,4.3-1.5s-1-5-3-4.5S194.3,239.8,194.3,239.8z
						"/>
					<path id="el80d6u86oden" class="st0" d="M208.5,229c0,0-1.3-3-3.5-3s-3.5,3-2.5,4.5s5,0.5,5,0.5s-2.3,2.5-1.5,4
						c0.8,1.7,2.9,2.5,4.6,1.6c0.3-0.2,0.6-0.4,0.9-0.6c2.5-2-0.8-4.3-0.8-4.3s3.3,0.3,4.3-1.5s-1-5-3-4.5S208.5,229,208.5,229z"/>
					<rect id="elvtr3095w5u" x="187" y="248.2" class="st16" width="29.3" height="23.7"/>
					<rect id="elm0qr12rldq9" x="187" y="248.2" class="st6" width="29.3" height="23.7"/>
					<path id="elrdzoebtdk4b" class="st0" d="M194.3,263.5c0,0-1.3-3-3.5-3s-3.5,3-2.5,4.5s5,0.5,5,0.5s-2.3,2.5-1.5,4
						c0.8,1.7,2.9,2.5,4.6,1.6c0.3-0.2,0.6-0.4,0.9-0.6c2.5-2-0.8-4.3-0.8-4.3s3.3,0.3,4.3-1.5s-1-5-3-4.5S194.3,263.5,194.3,263.5z
						"/>
					<path id="el268ftjucyma" class="st0" d="M208.5,252.7c0,0-1.3-3-3.5-3s-3.5,3-2.5,4.5s5,0.5,5,0.5s-2.3,2.5-1.5,4
						c0.8,1.7,2.9,2.5,4.6,1.6c0.3-0.2,0.6-0.4,0.9-0.6c2.5-2-0.8-4.3-0.8-4.3s3.3,0.3,4.3-1.5s-1-5-3-4.5S208.5,252.7,208.5,252.7z
						"/>
					<rect id="el8o5xvyyu9zk" x="187" y="272" class="st16" width="29.3" height="23.8"/>
					<rect id="elg6bfn3l5lf" x="187" y="272" class="st6" width="29.3" height="23.8"/>
					<path id="el5visgv3w8ns" class="st0" d="M194.3,287.3c0,0-1.3-3-3.5-3s-3.5,3-2.5,4.5s5,0.5,5,0.5s-2.3,2.5-1.5,4
						c0.8,1.7,2.9,2.5,4.6,1.6c0.3-0.2,0.6-0.4,0.9-0.6c2.5-2-0.8-4.3-0.8-4.3s3.3,0.3,4.3-1.5s-1-5-3-4.5S194.3,287.3,194.3,287.3z
						"/>
					<path id="elf8wq75j1g64" class="st0" d="M208.5,276.5c0,0-1.3-3-3.5-3s-3.5,3-2.5,4.5s5,0.5,5,0.5s-2.3,2.5-1.5,4
						c0.8,1.7,2.9,2.5,4.6,1.6c0.3-0.2,0.6-0.4,0.9-0.6c2.5-2-0.8-4.3-0.8-4.3s3.3,0.3,4.3-1.5s-1-5-3-4.5S208.5,276.5,208.5,276.5z
						"/>
					<rect id="el0f3u4y6k3lfm" x="157.8" y="200.7" class="st16" width="29.3" height="23.8"/>
					<rect id="elvntjf4pu9j" x="157.8" y="200.7" class="st6" width="29.3" height="23.8"/>
					<path id="elc3nyd71lb6r" class="st0" d="M165,216c0,0-1.3-3-3.5-3s-3.5,3-2.5,4.5s5,0.5,5,0.5s-2.3,2.5-1.5,4
						c0.8,1.7,2.9,2.5,4.6,1.6c0.3-0.2,0.6-0.4,0.9-0.6c2.5-2-0.8-4.3-0.8-4.3s3.3,0.3,4.3-1.5s-1-5-3-4.5S165,216,165,216z"/>
					<path id="eltunrjeg1ot" class="st0" d="M179.3,205.2c0,0-1.3-3-3.5-3s-3.5,3-2.5,4.5s5,0.5,5,0.5s-2.3,2.5-1.5,4
						c0.8,1.7,2.9,2.5,4.6,1.6c0.3-0.2,0.6-0.4,0.9-0.6c2.5-2-0.8-4.3-0.8-4.3s3.3,0.3,4.3-1.5s-1-5-3-4.5S179.3,205.2,179.3,205.2z
						"/>
					<rect id="elnr1oh97l6bj" x="157.8" y="224.5" class="st16" width="29.3" height="23.8"/>
					<rect id="eldcp09sar8wh" x="157.8" y="224.5" class="st6" width="29.3" height="23.8"/>
					<path id="elhi6j9g1mn8" class="st0" d="M165,239.8c0,0-1.3-3-3.5-3s-3.5,3-2.5,4.5s5,0.5,5,0.5s-2.3,2.5-1.5,4
						c0.8,1.7,2.9,2.5,4.6,1.6c0.3-0.2,0.6-0.4,0.9-0.6c2.5-2-0.8-4.3-0.8-4.3s3.3,0.3,4.3-1.5s-1-5-3-4.5S165,239.8,165,239.8z"/>
					<path id="elc1kpnumgsoa" class="st0" d="M179.3,229c0,0-1.3-3-3.5-3s-3.5,3-2.5,4.5s5,0.5,5,0.5s-2.3,2.5-1.5,4
						c0.8,1.7,2.9,2.5,4.6,1.6c0.3-0.2,0.6-0.4,0.9-0.6c2.5-2-0.8-4.3-0.8-4.3s3.3,0.3,4.3-1.5s-1-5-3-4.5S179.3,229,179.3,229z"/>
					<rect id="el5bctx50whiu" x="157.8" y="248.2" class="st16" width="29.3" height="23.7"/>
					<rect id="eldmum3peeg25" x="157.8" y="248.2" class="st6" width="29.3" height="23.7"/>
					<path id="el7hvbkbo0ljg" class="st0" d="M165,263.5c0,0-1.3-3-3.5-3s-3.5,3-2.5,4.5s5,0.5,5,0.5s-2.3,2.5-1.5,4
						c0.8,1.7,2.9,2.5,4.6,1.6c0.3-0.2,0.6-0.4,0.9-0.6c2.5-2-0.8-4.3-0.8-4.3s3.3,0.3,4.3-1.5s-1-5-3-4.5S165,263.5,165,263.5z"/>
					<path id="el0d3itafpkvgd" class="st0" d="M179.3,252.7c0,0-1.3-3-3.5-3s-3.5,3-2.5,4.5s5,0.5,5,0.5s-2.3,2.5-1.5,4
						c0.8,1.7,2.9,2.5,4.6,1.6c0.3-0.2,0.6-0.4,0.9-0.6c2.5-2-0.8-4.3-0.8-4.3s3.3,0.3,4.3-1.5s-1-5-3-4.5S179.3,252.7,179.3,252.7z
						"/>
					<rect id="ellcm6fl4zoec" x="157.8" y="272" class="st16" width="29.3" height="23.8"/>
					<rect id="elz21pusmejhg" x="157.8" y="272" class="st6" width="29.3" height="23.8"/>
					<path id="elbmx57117v7b" class="st0" d="M165,287.3c0,0-1.3-3-3.5-3s-3.5,3-2.5,4.5s5,0.5,5,0.5s-2.3,2.5-1.5,4
						c0.8,1.7,2.9,2.5,4.6,1.6c0.3-0.2,0.6-0.4,0.9-0.6c2.5-2-0.8-4.3-0.8-4.3s3.3,0.3,4.3-1.5s-1-5-3-4.5S165,287.3,165,287.3z"/>
					<path id="elb2uml9e7aa6" class="st0" d="M179.3,276.5c0,0-1.3-3-3.5-3s-3.5,3-2.5,4.5s5,0.5,5,0.5s-2.3,2.5-1.5,4
						c0.8,1.7,2.9,2.5,4.6,1.6c0.3-0.2,0.6-0.4,0.9-0.6c2.5-2-0.8-4.3-0.8-4.3s3.3,0.3,4.3-1.5s-1-5-3-4.5S179.3,276.5,179.3,276.5z
						"/>
					<rect id="el8203qfytfl2" x="128.5" y="200.7" class="st16" width="29.3" height="23.8"/>
					<rect id="elahrhu35o9mh" x="128.5" y="200.7" class="st6" width="29.3" height="23.8"/>
					<path id="eluu4l1b5yo7" class="st0" d="M135.8,216c0,0-1.3-3-3.5-3s-3.5,3-2.5,4.5s5,0.5,5,0.5s-2.3,2.5-1.5,4
						c0.8,1.7,2.9,2.5,4.6,1.6c0.3-0.2,0.6-0.4,0.9-0.6c2.5-2-0.8-4.3-0.8-4.3s3.3,0.3,4.3-1.5s-1-5-3-4.5S135.8,216,135.8,216z"/>
					<path id="el2aw8vefrda4" class="st0" d="M150,205.2c0,0-1.3-3-3.5-3s-3.5,3-2.5,4.5s5,0.5,5,0.5s-2.3,2.5-1.5,4
						c0.8,1.7,2.9,2.5,4.6,1.6c0.3-0.2,0.6-0.4,0.9-0.6c2.5-2-0.8-4.3-0.8-4.3s3.3,0.3,4.3-1.5s-1-5-3-4.5S150,205.2,150,205.2z"/>
					<rect id="elg7359c35i3i" x="128.5" y="224.5" class="st16" width="29.3" height="23.8"/>
					<rect id="eldjs27buply6" x="128.5" y="224.5" class="st6" width="29.3" height="23.8"/>
					<path id="elivz21xdxmx" class="st0" d="M135.8,239.8c0,0-1.3-3-3.5-3s-3.5,3-2.5,4.5s5,0.5,5,0.5s-2.3,2.5-1.5,4
						c0.8,1.7,2.9,2.5,4.6,1.6c0.3-0.2,0.6-0.4,0.9-0.6c2.5-2-0.8-4.3-0.8-4.3s3.3,0.3,4.3-1.5s-1-5-3-4.5S135.8,239.8,135.8,239.8z
						"/>
					<path id="el9gsww2ihueg" class="st0" d="M150,229c0,0-1.3-3-3.5-3s-3.5,3-2.5,4.5s5,0.5,5,0.5s-2.3,2.5-1.5,4
						c0.8,1.7,2.9,2.5,4.6,1.6c0.3-0.2,0.6-0.4,0.9-0.6c2.5-2-0.8-4.3-0.8-4.3s3.3,0.3,4.3-1.5s-1-5-3-4.5S150,229,150,229z"/>
					<rect id="elra89k3njfgn" x="128.5" y="248.2" class="st16" width="29.3" height="23.7"/>
					<rect id="elv0aazavljbq" x="128.5" y="248.2" class="st6" width="29.3" height="23.7"/>
					<path id="el80eklkzoxz5" class="st0" d="M135.8,263.5c0,0-1.3-3-3.5-3s-3.5,3-2.5,4.5s5,0.5,5,0.5s-2.3,2.5-1.5,4
						c0.8,1.7,2.9,2.5,4.6,1.6c0.3-0.2,0.6-0.4,0.9-0.6c2.5-2-0.8-4.3-0.8-4.3s3.3,0.3,4.3-1.5s-1-5-3-4.5S135.8,263.5,135.8,263.5z
						"/>
					<path id="el7xhwhoxo806" class="st0" d="M150,252.7c0,0-1.3-3-3.5-3s-3.5,3-2.5,4.5s5,0.5,5,0.5s-2.3,2.5-1.5,4
						c0.8,1.7,2.9,2.5,4.6,1.6c0.3-0.2,0.6-0.4,0.9-0.6c2.5-2-0.8-4.3-0.8-4.3s3.3,0.3,4.3-1.5s-1-5-3-4.5S150,252.7,150,252.7z"/>
					<rect id="elsvkmc0mw6ma" x="128.5" y="272" class="st16" width="29.3" height="23.8"/>
					<rect id="elwdvklzisq8" x="128.5" y="272" class="st6" width="29.3" height="23.8"/>
					<path id="elm1v55porrw" class="st0" d="M135.8,287.3c0,0-1.3-3-3.5-3s-3.5,3-2.5,4.5s5,0.5,5,0.5s-2.3,2.5-1.5,4
						c0.8,1.7,2.9,2.5,4.6,1.6c0.3-0.2,0.6-0.4,0.9-0.6c2.5-2-0.8-4.3-0.8-4.3s3.3,0.3,4.3-1.5s-1-5-3-4.5S135.8,287.3,135.8,287.3z
						"/>
					<path id="elk1yyx02mvm" class="st0" d="M150,276.5c0,0-1.3-3-3.5-3s-3.5,3-2.5,4.5s5,0.5,5,0.5s-2.3,2.5-1.5,4
						c0.8,1.7,2.9,2.5,4.6,1.6c0.3-0.2,0.6-0.4,0.9-0.6c2.5-2-0.8-4.3-0.8-4.3s3.3,0.3,4.3-1.5s-1-5-3-4.5S150,276.5,150,276.5z"/>
				</g>
			</g>
		</g>
	</g>
	<path id="elydkhrpx841" class="st9" d="M202.9,208.8c0,0-14.9,5.6-19,6.7s-9.3,6-10.8,12.7s-2.2,35.4-2.2,35.4s-13.8,4.1-16.8,4.9
		s-3.4,7.5-3.4,7.5c-0.2,1.2-0.6,2.3-1.1,3.4l-0.8,1.1c0,0-2.6-1.1,14.9,2.6s45.8,1.5,45.8,1.5s4.1,0.4,5.2-4.8s2.2-12.7,3.7-14.9
		s3-4.5,3-11.2s4.1-25.7,3.7-32.4s-6.3-11.2-13-12.3S202.9,208.8,202.9,208.8z"/>
	<path id="elr3dzwd5hfz8" class="st9" d="M174.2,274.1c0,0-11.1-0.9-16-4.4"/>
	<path id="el92cuc3j1d3" class="st3" d="M209.6,204c0,0-6.3-0.7-8.2,2.6c-2.2,3.6-3.5,7.7-3.7,11.9c-0.4,5.6-0.8,14.9-0.8,14.9
		l11.6-5.6l12.7,6c0,0-3.4-13-4.1-19.8S213.7,203.2,209.6,204z"/>
	<path id="elszsr0f8ndzp" class="st4" d="M212.6,205.1c-3.8-4.9-6.2-10.7-7.1-16.8c-1.1-9.7,2.6-16.8,9.3-20.5s22.4-7.5,28.3-5.6
		s14.2,16.8,16.4,24.6s-0.7,23.9-1.5,28.7s0.8,25,2.6,36.1s-4.1,25.3-15.6,28.7s-23.5,0-26.5-8.2c-2.2-6-1.5-20.5,1.1-30.6
		s2.6-25.3,2.6-29.8S212.6,205.1,212.6,205.1z"/>
	<path id="elosthb24jqv" class="st5" d="M233.5,181.3c0,0,3,4-8,2.7s-15.9-4-17.3,0.3"/>
	<path id="elzv4x6xbn75a" class="st5" d="M208,181c0,0,0-8,7.6-8s14.1,3.2,16.9,2"/>
	<path id="elr6l7cbossrr" class="st5" d="M240.5,181c1.7,3.8,4.5,7,8,9.3c6,4,10.3,13.9,10,19.6"/>
	<path id="elj6srwiorgar" class="st5" d="M248.4,197.9c0.5,7.7,1.5,15.3,3,22.9c2.6,14.9,5,38.8-1.7,49.1s-13.3,11.3-19.2,7.6"/>
	<path id="elfoh6cbutvme" class="st5" d="M247.8,204.5c0,0,0.3,49.1-7.3,56.4s-20.6,3.6-18.9-18.6"/>
	<path id="ellwvj57dz46" class="st6" d="M213.3,194.3c0,0-1.9,4.5-3.7,9.7s-4.5,8.9-4.5,14.2s0,15.6,2.6,15.3s11.6-18.3,12.7-19
		s-3.7-9.7-3.7-14.2C216.8,197.8,215.5,195.4,213.3,194.3z"/>
	<g>
		<defs>
			<path id="SVGID_7_" d="M213.3,194.3c0,0-1.9,4.5-3.7,9.7s-4.5,8.9-4.5,14.2s0,15.6,2.6,15.3s11.6-18.3,12.7-19s-3.7-9.7-3.7-14.2
				C216.8,197.8,215.5,195.4,213.3,194.3z"/>
		</defs>
		<clipPath id="SVGID_8_">
			<use xlink:href="#SVGID_7_"  style="overflow:visible;"/>
		</clipPath>
		<g id="eld6q10fiwvil" class="st17">
			<path id="elunpj57ynw7j" class="st0" d="M216.6,200.2c0.1-2.5-1.2-4.8-3.4-6c0,0-1.9,4.5-3.7,9.7c-0.3,0.7-0.5,1.4-0.8,2.1
				c0.7,1.5,1.6,3,2.6,4.3l4.3,5.9c0,0-4.4,9.3-7.1,12.7c-0.7,0.9-1.6,1.6-2.6,2.1c0.4,1.5,0.9,2.4,1.8,2.3
				c2.6-0.4,11.6-18.3,12.7-19S216.6,204.7,216.6,200.2z"/>
			<g id="elv6zos173u2">
				<path class="st2" d="M216.6,200.2c0.1-2.5-1.2-4.8-3.4-6c0,0-1.9,4.5-3.7,9.7c-0.3,0.7-0.5,1.4-0.8,2.1c0.7,1.5,1.6,3,2.6,4.3
					l4.3,5.9c0,0-4.4,9.3-7.1,12.7c-0.7,0.9-1.6,1.6-2.6,2.1c0.4,1.5,0.9,2.4,1.8,2.3c2.6-0.4,11.6-18.3,12.7-19
					S216.6,204.7,216.6,200.2z"/>
			</g>
		</g>
	</g>
	<path id="ellhe4ew883p" class="st9" d="M213.3,194.3c0,0-1.9,4.5-3.7,9.7s-4.5,8.9-4.5,14.2s0,15.6,2.6,15.3s11.6-18.3,12.7-19
		s-3.7-9.7-3.7-14.2C216.8,197.8,215.5,195.4,213.3,194.3z"/>
	<path id="elz35f4oyvno" class="st13" d="M176.5,273.7c0,0-22.3,0.9-27.7,6.6s-9.3,20-1.3,28.4s20,6,28.7,2.3s17.7-13,17.7-13
		s-7.7,19.3-9,29.7s-4.3,62.3-4.3,65.3s5,4.3,8.3,3.3s13.3-6.3,15-6.3s7-3.3,7.7-4.3s-0.7-2.3-0.7-2.3s2.3-0.7,2.3-2.7s-3-1-4.7-0.7
		s-11.7,0.3-14,0.3s-4.7-1.3-4.7-2.7s-0.3-9,5.7-22s21.7-51.7,22.3-65s-8.7-14.7-19-15.7S184.8,273.7,176.5,273.7z"/>
	<path id="eloeofckrpbzl" class="st9" d="M184.9,364.5l-0.5,5.5"/>
	<path id="el8xvd67etqtc" class="st9" d="M151.9,298.8c2.1-0.4,4.2-1.1,6.2-2.1c8.4-4,41.3-13,44.4-12.1s-3.5,5.8-3.5,5.8
		s4.9-3.2,4-0.6c-0.5,1.5-1.1,2.9-1.7,4.3c0,0-12.4,32.6-13.6,42.1c-0.6,5.1-1.6,14.6-2.3,22.2"/>
	<path id="eltm2wkjtven" class="st9" d="M144.5,298.4c0.9,0.3,1.9,0.6,2.9,0.6"/>
	<path id="elusw2c7ndlp7" class="st3" d="M211.5,385.7c0.7-1-0.7-2.3-0.7-2.3s2.3-0.7,2.3-2.7s-3-1-4.7-0.7s-11.7,0.3-14,0.3
		s-4.7-1.3-4.7-2.7c0-1.9,0.1-3.8,0.4-5.7c-2.8,0.8-5.8,0.8-8.6-0.1c-0.6,11-1.1,20-1.1,21.1c0,3,5,4.3,8.3,3.3s13.3-6.3,15-6.3
		S210.8,386.7,211.5,385.7z"/>
	<path id="elt2vfllikir" class="st9" d="M210.8,383.4c-1.7-0.8-3.7-0.9-5.5-0.3"/>
	<path id="elyvrwzkzu9vh" class="st9" d="M204.5,384.7c0,0,4.8-1.6,6.5,1.3"/>
	<path id="elst2iicqr3j" class="st9" d="M203.5,386.7c0,0,3.6-1.4,5,0.7"/>
	<path id="elxzam2uf5fdj" class="st9" d="M201.2,388.7c0,0,2.7-0.3,2.7,1.3"/>
	<path id="el8k84ccybh7r" class="st6" d="M218.1,191.3c0,0,0-7.4-3.7-6s-2.6,11.2-1.9,12.7c0.4,0.8,1,1.5,1.9,1.9
		c0,0,1.9,12.3,6.3,17.1s10.8,2.2,15.6-1.1s10.8-20.8,10.8-20.8l-8.6-10l-3.4-11.2c0,0-2.6-0.4-1.5,1.5s2.2,9.7,2.2,9.7
		S230.4,192.8,218.1,191.3z"/>
	<g>
		<defs>
			<path id="SVGID_9_" d="M218.1,191.3c0,0,0-7.4-3.7-6s-2.6,11.2-1.9,12.7c0.4,0.8,1,1.5,1.9,1.9c0,0,1.9,12.3,6.3,17.1
				s10.8,2.2,15.6-1.1s10.8-20.8,10.8-20.8l-8.6-10l-3.4-11.2c0,0-2.6-0.4-1.5,1.5s2.2,9.7,2.2,9.7S230.4,192.8,218.1,191.3z"/>
		</defs>
		<clipPath id="SVGID_10_">
			<use xlink:href="#SVGID_9_"  style="overflow:visible;"/>
		</clipPath>
		<g id="el7nxoxuabhp9" class="st18">
			<path id="ellaert14f0cm" class="st0" d="M238.6,185l-1.3-4.4l-0.1,1c0,0,1.6,10.2,3.6,12.5s3,4.6,2,7.2s-4.3,10.5-9.5,13.4
				s-7.9,3.9-11.1,0.6c-2-2.1-3.9-4.4-5.7-6.8c1,3.2,2.4,6.5,4.3,8.5c4.5,4.9,10.8,2.2,15.6-1.1s10.8-21,10.8-21L238.6,185z"/>
			<g id="el5zqmntqt5an">
				<path class="st2" d="M238.6,185l-1.3-4.4l-0.1,1c0,0,1.6,10.2,3.6,12.5s3,4.6,2,7.2s-4.3,10.5-9.5,13.4s-7.9,3.9-11.1,0.6
					c-2-2.1-3.9-4.4-5.7-6.8c1,3.2,2.4,6.5,4.3,8.5c4.5,4.9,10.8,2.2,15.6-1.1s10.8-21,10.8-21L238.6,185z"/>
			</g>
		</g>
	</g>
	<path id="elkuwiukv1w9" class="st9" d="M218.1,191.3c0,0,0-7.4-3.7-6s-2.6,11.2-1.9,12.7c0.4,0.8,1,1.5,1.9,1.9
		c0,0,1.9,12.3,6.3,17.1s10.8,2.2,15.6-1.1s10.8-20.8,10.8-20.8l-8.6-10l-3.4-11.2c0,0-2.6-0.4-1.5,1.5s2.2,9.7,2.2,9.7
		S230.4,192.8,218.1,191.3z"/>
	<path id="ela8tgi5q2bkh" class="st8" d="M231.6,201.4c-0.3,1.1-0.9,1.8-1.4,1.7s-0.6-1.1-0.4-2.1s0.9-1.8,1.4-1.7
		S231.9,200.4,231.6,201.4z"/>
	<path id="elgbmj2x3ba9" class="st8" d="M240.1,203c-0.3,1-0.9,1.8-1.4,1.7s-0.6-1.1-0.4-2.1s0.9-1.8,1.4-1.7S240.3,202,240.1,203z"
		/>
	<path id="elggnzdhl6rz" class="st9" d="M228.6,196.5c0,0,2.7-2.1,4.7-0.2"/>
	<path id="el5f7bkcic91v" class="st9" d="M239.2,198c0,0,2.7-1.8,3.2,1.6"/>
	<path id="elby11zpgmjhi" class="st9" d="M237.6,202.4c-0.8,0.7-1.3,1.8-1.4,2.9c0,1,0.4,2.1,1.1,2.9c0,0-2.5,2-4.6,0.7"/>
	<path id="elbt6hiva1qp" class="st9" d="M225.9,209.4c0.2,1.3,1.2,2.5,2.5,2.9"/>
	<path id="eljjs8nfur18" class="st9" d="M213.2,190.4c0,0,0.4-2.7,1.6-2.5s1.1,2.9,1.1,2.9s-2.5-0.4-1.6,1.1s2,0.9,2,0.9"/>
	<path id="elewjg0igf5x" class="st6" d="M183.9,217c0,0-7.8,1.9-10.8,5.6s-2.2,16-0.4,21.2s10.1,28.3,10.1,28.3l11.6-8.9l-5.2-29.1"
		/>
	<g>
		<defs>
			<path id="SVGID_11_" d="M183.9,217c0,0-7.8,1.9-10.8,5.6s-2.2,16-0.4,21.2s10.1,28.3,10.1,28.3l11.6-8.9l-5.2-29.1"/>
		</defs>
		<clipPath id="SVGID_12_">
			<use xlink:href="#SVGID_11_"  style="overflow:visible;"/>
		</clipPath>
		<g id="elkvc1c7w6h1" class="st19">
			<g>
				<defs>
					<path id="SVGID_13_" d="M183.9,217c0,0-7.8,1.9-10.8,5.6s-2.2,16-0.4,21.2s10.1,28.3,10.1,28.3l11.6-8.9l-5.2-29.1"/>
				</defs>
				<clipPath id="SVGID_14_">
					<use xlink:href="#SVGID_13_"  style="overflow:visible;"/>
				</clipPath>
				<g id="elin4npbnu3bd" class="st20">
					<rect id="elvqhp012mrxh" x="187" y="200.7" class="st16" width="29.3" height="23.8"/>
					<rect id="el69af63urred" x="187" y="200.7" class="st6" width="29.3" height="23.8"/>
					<path id="elcflxllbrfhr" class="st0" d="M194.3,216c0,0-1.3-3-3.5-3s-3.5,3-2.5,4.5s5,0.5,5,0.5s-2.3,2.5-1.5,4
						c0.8,1.7,2.9,2.5,4.6,1.6c0.3-0.2,0.6-0.4,0.9-0.6c2.5-2-0.8-4.3-0.8-4.3s3.3,0.3,4.3-1.5s-1-5-3-4.5S194.3,216,194.3,216z"/>
					<path id="elnpetmmg923i" class="st0" d="M208.5,205.2c0,0-1.3-3-3.5-3s-3.5,3-2.5,4.5s5,0.5,5,0.5s-2.3,2.5-1.5,4
						c0.8,1.7,2.9,2.5,4.6,1.6c0.3-0.2,0.6-0.4,0.9-0.6c2.5-2-0.8-4.3-0.8-4.3s3.3,0.3,4.3-1.5s-1-5-3-4.5S208.5,205.2,208.5,205.2z
						"/>
					<rect id="elk21kxicik1" x="187" y="224.5" class="st16" width="29.3" height="23.8"/>
					<rect id="el3d9wb5mojsa" x="187" y="224.5" class="st6" width="29.3" height="23.8"/>
					<path id="eldyf0sk1fyu" class="st0" d="M194.3,239.8c0,0-1.3-3-3.5-3s-3.5,3-2.5,4.5s5,0.5,5,0.5s-2.3,2.5-1.5,4
						c0.8,1.7,2.9,2.5,4.6,1.6c0.3-0.2,0.6-0.4,0.9-0.6c2.5-2-0.8-4.3-0.8-4.3s3.3,0.3,4.3-1.5s-1-5-3-4.5S194.3,239.8,194.3,239.8z
						"/>
					<path id="els5k8wf7pfpm" class="st0" d="M208.5,229c0,0-1.3-3-3.5-3s-3.5,3-2.5,4.5s5,0.5,5,0.5s-2.3,2.5-1.5,4
						c0.8,1.7,2.9,2.5,4.6,1.6c0.3-0.2,0.6-0.4,0.9-0.6c2.5-2-0.8-4.3-0.8-4.3s3.3,0.3,4.3-1.5s-1-5-3-4.5S208.5,229,208.5,229z"/>
					<rect id="elbmohzq2ner5" x="187" y="248.2" class="st16" width="29.3" height="23.7"/>
					<rect id="el99544udmvq7" x="187" y="248.2" class="st6" width="29.3" height="23.7"/>
					<path id="eledobsjo7i8n" class="st0" d="M194.3,263.5c0,0-1.3-3-3.5-3s-3.5,3-2.5,4.5s5,0.5,5,0.5s-2.3,2.5-1.5,4
						c0.8,1.7,2.9,2.5,4.6,1.6c0.3-0.2,0.6-0.4,0.9-0.6c2.5-2-0.8-4.3-0.8-4.3s3.3,0.3,4.3-1.5s-1-5-3-4.5S194.3,263.5,194.3,263.5z
						"/>
					<path id="elx6049nizqx" class="st0" d="M208.5,252.7c0,0-1.3-3-3.5-3s-3.5,3-2.5,4.5s5,0.5,5,0.5s-2.3,2.5-1.5,4
						c0.8,1.7,2.9,2.5,4.6,1.6c0.3-0.2,0.6-0.4,0.9-0.6c2.5-2-0.8-4.3-0.8-4.3s3.3,0.3,4.3-1.5s-1-5-3-4.5S208.5,252.7,208.5,252.7z
						"/>
					<rect id="el52eo5uylorc" x="187" y="272" class="st16" width="29.3" height="23.8"/>
					<rect id="el9b66ua7vk1e" x="187" y="272" class="st6" width="29.3" height="23.8"/>
					<path id="ellfn6xl73udn" class="st0" d="M194.3,287.3c0,0-1.3-3-3.5-3s-3.5,3-2.5,4.5s5,0.5,5,0.5s-2.3,2.5-1.5,4
						c0.8,1.7,2.9,2.5,4.6,1.6c0.3-0.2,0.6-0.4,0.9-0.6c2.5-2-0.8-4.3-0.8-4.3s3.3,0.3,4.3-1.5s-1-5-3-4.5S194.3,287.3,194.3,287.3z
						"/>
					<path id="el3b0uc9kpoyr" class="st0" d="M208.5,276.5c0,0-1.3-3-3.5-3s-3.5,3-2.5,4.5s5,0.5,5,0.5s-2.3,2.5-1.5,4
						c0.8,1.7,2.9,2.5,4.6,1.6c0.3-0.2,0.6-0.4,0.9-0.6c2.5-2-0.8-4.3-0.8-4.3s3.3,0.3,4.3-1.5s-1-5-3-4.5S208.5,276.5,208.5,276.5z
						"/>
					<rect id="elo06a7u3nhs" x="157.8" y="200.7" class="st16" width="29.3" height="23.8"/>
					<rect id="elc715xhdbj2l" x="157.8" y="200.7" class="st6" width="29.3" height="23.8"/>
					<path id="el6fswlhg7wf5" class="st0" d="M165,216c0,0-1.3-3-3.5-3s-3.5,3-2.5,4.5s5,0.5,5,0.5s-2.3,2.5-1.5,4
						c0.8,1.7,2.9,2.5,4.6,1.6c0.3-0.2,0.6-0.4,0.9-0.6c2.5-2-0.8-4.3-0.8-4.3s3.3,0.3,4.3-1.5s-1-5-3-4.5S165,216,165,216z"/>
					<path id="elmyfw02bkdi" class="st0" d="M179.3,205.2c0,0-1.3-3-3.5-3s-3.5,3-2.5,4.5s5,0.5,5,0.5s-2.3,2.5-1.5,4
						c0.8,1.7,2.9,2.5,4.6,1.6c0.3-0.2,0.6-0.4,0.9-0.6c2.5-2-0.8-4.3-0.8-4.3s3.3,0.3,4.3-1.5s-1-5-3-4.5S179.3,205.2,179.3,205.2z
						"/>
					<rect id="elfca0uxeng9f" x="157.8" y="224.5" class="st16" width="29.3" height="23.8"/>
					<rect id="elzokfq99jemd" x="157.8" y="224.5" class="st6" width="29.3" height="23.8"/>
					<path id="elod94r6er44" class="st0" d="M165,239.8c0,0-1.3-3-3.5-3s-3.5,3-2.5,4.5s5,0.5,5,0.5s-2.3,2.5-1.5,4
						c0.8,1.7,2.9,2.5,4.6,1.6c0.3-0.2,0.6-0.4,0.9-0.6c2.5-2-0.8-4.3-0.8-4.3s3.3,0.3,4.3-1.5s-1-5-3-4.5S165,239.8,165,239.8z"/>
					<path id="eliii7eyekk4b" class="st0" d="M179.3,229c0,0-1.3-3-3.5-3s-3.5,3-2.5,4.5s5,0.5,5,0.5s-2.3,2.5-1.5,4
						c0.8,1.7,2.9,2.5,4.6,1.6c0.3-0.2,0.6-0.4,0.9-0.6c2.5-2-0.8-4.3-0.8-4.3s3.3,0.3,4.3-1.5s-1-5-3-4.5S179.3,229,179.3,229z"/>
					<rect id="elqqhxmgvnl4f" x="157.8" y="248.2" class="st16" width="29.3" height="23.7"/>
					<rect id="elj8zpb2e7c2k" x="157.8" y="248.2" class="st6" width="29.3" height="23.7"/>
					<path id="el7rpj9dgvfvk" class="st0" d="M165,263.5c0,0-1.3-3-3.5-3s-3.5,3-2.5,4.5s5,0.5,5,0.5s-2.3,2.5-1.5,4
						c0.8,1.7,2.9,2.5,4.6,1.6c0.3-0.2,0.6-0.4,0.9-0.6c2.5-2-0.8-4.3-0.8-4.3s3.3,0.3,4.3-1.5s-1-5-3-4.5S165,263.5,165,263.5z"/>
					<path id="elbgd8yft4ti9" class="st0" d="M179.3,252.7c0,0-1.3-3-3.5-3s-3.5,3-2.5,4.5s5,0.5,5,0.5s-2.3,2.5-1.5,4
						c0.8,1.7,2.9,2.5,4.6,1.6c0.3-0.2,0.6-0.4,0.9-0.6c2.5-2-0.8-4.3-0.8-4.3s3.3,0.3,4.3-1.5s-1-5-3-4.5S179.3,252.7,179.3,252.7z
						"/>
					<rect id="elg9xuavfjnr" x="157.8" y="272" class="st16" width="29.3" height="23.8"/>
					<rect id="elbcxpuczochn" x="157.8" y="272" class="st6" width="29.3" height="23.8"/>
					<path id="el446suzcffu5" class="st0" d="M165,287.3c0,0-1.3-3-3.5-3s-3.5,3-2.5,4.5s5,0.5,5,0.5s-2.3,2.5-1.5,4
						c0.8,1.7,2.9,2.5,4.6,1.6c0.3-0.2,0.6-0.4,0.9-0.6c2.5-2-0.8-4.3-0.8-4.3s3.3,0.3,4.3-1.5s-1-5-3-4.5S165,287.3,165,287.3z"/>
					<path id="elozrxmi4lpm" class="st0" d="M179.3,276.5c0,0-1.3-3-3.5-3s-3.5,3-2.5,4.5s5,0.5,5,0.5s-2.3,2.5-1.5,4
						c0.8,1.7,2.9,2.5,4.6,1.6c0.3-0.2,0.6-0.4,0.9-0.6c2.5-2-0.8-4.3-0.8-4.3s3.3,0.3,4.3-1.5s-1-5-3-4.5S179.3,276.5,179.3,276.5z
						"/>
				</g>
			</g>
		</g>
	</g>
	<path id="eljfv51jhwpi" class="st9" d="M183.9,217c0,0-7.8,1.9-10.8,5.6s-2.2,16-0.4,21.2s10.1,28.3,10.1,28.3l11.6-8.9l-5.2-29.1"
		/>
	<path id="ely4enr69x8is" class="st3" d="M199.1,263.2c-1.7-2-4.1-3.2-6.7-3.4c-4.1,0-9.3,4.8-10.4,8.9s2.2,9.7,5.6,11.9
		s11.9-2.2,13.8-7.1S199.1,263.2,199.1,263.2z"/>
	<path id="elrbzta1ombpf" class="st0" d="M254.3,246.1c-1.1,2.1-2.6,3.9-4.5,5.2c-3.4,2.6-7.3,2.8-10.3,6.1
		c-3,3.4-10.2,16.2-16.9,19.2s-12.7,0.4-11.2-6s20.5-16.4,25.3-19.8s11.9-7.8,14.5-7.4C252.8,243.6,254,244.6,254.3,246.1z"/>
	<g>
		<defs>
			<path id="SVGID_15_" d="M254.3,246.1c-1.1,2.1-2.6,3.9-4.5,5.2c-3.4,2.6-7.3,2.8-10.3,6.1c-3,3.4-10.2,16.2-16.9,19.2
				s-12.7,0.4-11.2-6s20.5-16.4,25.3-19.8s11.9-7.8,14.5-7.4C252.8,243.6,254,244.6,254.3,246.1z"/>
		</defs>
		<clipPath id="SVGID_16_">
			<use xlink:href="#SVGID_15_"  style="overflow:visible;"/>
		</clipPath>
		<g id="ele5udtdic21" class="st21">
			<g id="elmsaxkjb5yrm">
				<path class="st2" d="M254.3,246.1c-1.1,2.1-2.6,3.9-4.5,5.2c-3.4,2.6-7.3,2.8-10.3,6.1c-3,3.4-10.2,16.2-16.9,19.2
					s-12.7,0.4-11.2-6s20.5-16.4,25.3-19.8s11.9-7.8,14.5-7.4C252.8,243.6,254,244.6,254.3,246.1z"/>
			</g>
		</g>
	</g>
	<path id="el9z8it1k1zx8" class="st9" d="M254.3,246.1c-1.1,2.1-2.6,3.9-4.5,5.2c-3.4,2.6-7.3,2.8-10.3,6.1
		c-3,3.4-10.2,16.2-16.9,19.2s-12.7,0.4-11.2-6s20.5-16.4,25.3-19.8s11.9-7.8,14.5-7.4C252.8,243.6,254,244.6,254.3,246.1z"/>
	<path id="el1qdbjsk1ssd" class="st3" d="M255,239.4c0,0-0.6-2.6-2.7-3.4s-4.2,0.4-3.8,1.7s3.2,1,3.8,2.3c0.3,0.7,0.5,1.4,0.6,2.1
		c1,0.2,2-0.4,2.3-1.4C255.2,240.2,255.2,239.8,255,239.4z"/>
	<polygon id="ellj1wokdnqj" class="st13" points="234.5,249.1 246.1,226.3 257.6,226.3 247.9,246.8 	"/>
	<path id="elen63rymp5zm" class="st3" d="M255,239.4c0,0-6-1-7.8,1.1c-0.9,1.3-1.5,2.7-1.8,4.2c0,0,8.1,5.9,9.6,2.9
		C256.5,244.6,256.5,241.6,255,239.4z"/>
	<path id="eltzapguc046" class="st6" d="M249.1,240.1c-2.4,1.2-7.4,0.1-7.4,0.1s-2.3,0.1-4.6,0.4c0.4-0.4,0.9-0.7,1.4-0.9
		c0,0,2.4-0.9,3.4-1.4s0.9-1.6,0.9-2.4s-2.9,0.5-4,0.5s-4.8,1-5.9,3.3c-0.4,0.9-0.8,1.8-1,2.7c-0.4,0.5-0.7,1-0.9,1.6
		c-0.3,2.7-1,6.9-1,6.9s-18.3,8.2-26.8,10.8c0,0-11.9,1.1-14.2,4.5s-3,8.9,0.4,11.9s6.3,1.1,9.7,0.4s37.3-23.9,37.3-23.9s6,0,8.6-3
		s5.2-8.2,5.6-10.4C250.8,239.9,250,239.9,249.1,240.1z"/>
	<g>
		<defs>
			<path id="SVGID_17_" d="M249.1,240.1c-2.4,1.2-7.4,0.1-7.4,0.1s-2.3,0.1-4.6,0.4c0.4-0.4,0.9-0.7,1.4-0.9c0,0,2.4-0.9,3.4-1.4
				s0.9-1.6,0.9-2.4s-2.9,0.5-4,0.5s-4.8,1-5.9,3.3c-0.4,0.9-0.8,1.8-1,2.7c-0.4,0.5-0.7,1-0.9,1.6c-0.3,2.7-1,6.9-1,6.9
				s-18.3,8.2-26.8,10.8c0,0-11.9,1.1-14.2,4.5s-3,8.9,0.4,11.9s6.3,1.1,9.7,0.4s37.3-23.9,37.3-23.9s6,0,8.6-3s5.2-8.2,5.6-10.4
				C250.8,239.9,250,239.9,249.1,240.1z"/>
		</defs>
		<clipPath id="SVGID_18_">
			<use xlink:href="#SVGID_17_"  style="overflow:visible;"/>
		</clipPath>
		<g id="elwcb467s3y8h" class="st22">
			<path id="eldfsg21nd4fh" class="st0" d="M240.2,247.4c-2,1.3-3.9,2.9-5.6,4.6c0,0-31.1,18.7-38.7,20.3c-2.9,0.7-5.9,0.7-8.8,0
				c-0.2,2.2,0.7,4.3,2.3,5.9c3.4,3,6.3,1.1,9.7,0.4s37.3-23.9,37.3-23.9s6,0,8.6-3c1.4-1.6,2.6-3.4,3.5-5.3
				C245.7,247.5,241.8,246.5,240.2,247.4z"/>
			<g id="el5qhfxsr8ozv">
				<path class="st2" d="M240.2,247.4c-2,1.3-3.9,2.9-5.6,4.6c0,0-31.1,18.7-38.7,20.3c-2.9,0.7-5.9,0.7-8.8,0
					c-0.2,2.2,0.7,4.3,2.3,5.9c3.4,3,6.3,1.1,9.7,0.4s37.3-23.9,37.3-23.9s6,0,8.6-3c1.4-1.6,2.6-3.4,3.5-5.3
					C245.7,247.5,241.8,246.5,240.2,247.4z"/>
			</g>
		</g>
	</g>
	<path id="el5xi0yb7wng3" class="st9" d="M249.1,240.1c-2.4,1.2-7.4,0.1-7.4,0.1s-2.3,0.1-4.6,0.4c0.4-0.4,0.9-0.7,1.4-0.9
		c0,0,2.4-0.9,3.4-1.4s0.9-1.6,0.9-2.4s-2.9,0.5-4,0.5s-4.8,1-5.9,3.3c-0.4,0.9-0.8,1.8-1,2.7c-0.4,0.5-0.7,1-0.9,1.6
		c-0.3,2.7-1,6.9-1,6.9s-18.3,8.2-26.8,10.8c0,0-11.9,1.1-14.2,4.5s-3,8.9,0.4,11.9s6.3,1.1,9.7,0.4s37.3-23.9,37.3-23.9s6,0,8.6-3
		s5.2-8.2,5.6-10.4C250.8,239.9,250,239.9,249.1,240.1z"/>
</g>
</svg>
