<?xml version="1.0" encoding="utf-8"?>
<!-- Generator: Adobe Illustrator 24.2.1, SVG Export Plug-In . SVG Version: 6.00 Build 0)  -->
<svg version="1.1" id="freepik_stories-chatting" xmlns:svgjs="http://svgjs.com/svgjs"
	 xmlns="http://www.w3.org/2000/svg" xmlns:xlink="http://www.w3.org/1999/xlink" x="0px" y="0px" viewBox="0 0 500 500"
	 style="enable-background:new 0 0 500 500;" xml:space="preserve">
<style type="text/css">
	.st0{fill:#F5F5F5;}
	.st1{fill:#E0E0E0;}
	.st2{fill:#22C37D;}
	.st3{opacity:0.1;}
	.st4{fill:#FFFFFF;}
	.st5{fill:#37474F;}
	.st6{fill:#455A64;}
	.st7{fill:#263238;}
	.st8{fill:#FAFAFA;}
	.st9{fill:#E6E6E6;}
	.st10{opacity:0.2;enable-background:new    ;}
	.st11{opacity:0.4;fill:#FFFFFF;enable-background:new    ;}
	.st12{fill:#F0F0F0;}
	.st13{fill:#FFA8A7;}
	.st14{fill:#F28F8F;}
	.st15{fill:#EBEBEB;}
</style>
<g id="freepik--Floor--inject-7">
	<path id="freepik--floor--inject-7" class="st0" d="M99.2,428.2c85.9,50.9,225.1,50.9,311,0s85.9-133.3,0-184.1s-225.1-50.9-311,0
		S13.3,377.3,99.2,428.2z"/>
</g>
<g id="freepik--Shadows--inject-7">
	<path id="freepik--Shadow--inject-7" class="st1" d="M400.5,273.6c-13.3,6.4-35,6.4-48.3,0s-13.4-16.7,0-23s35-6.4,48.3,0
		C413.8,256.9,413.8,267.2,400.5,273.6z"/>
</g>
<g id="freepik--Plants--inject-7">
	<g id="freepik--plants--inject-7">
		<path id="el7q0glq2vijo" class="st2" d="M438.2,329.4l-6.7-3.9c0,0-3.2-17.8-0.8-33.1c3.4-21.5,18-28.9,23.4-26.8s6.6,8.5-3,20.9
			C445.3,293.9,438,309.4,438.2,329.4z"/>
		<g id="elb4ao91ye3ch">
			<g class="st3">
				<path id="elcbrpb1hifut" d="M438.2,329.4l-6.7-3.9c0,0-3.2-17.8-0.8-33.1c3.4-21.5,18-28.9,23.4-26.8s6.6,8.5-3,20.9
					C445.3,293.9,438,309.4,438.2,329.4z"/>
			</g>
		</g>
		<path id="elrkjx7ru9oc" class="st4" d="M435.8,320.8L435.8,320.8c0.3,0,0.5-0.3,0.5-0.5c-2.8-20.1,5.3-42.2,14.4-51.1
			c0.2-0.2,0.2-0.5,0.1-0.7s-0.5-0.2-0.7-0.1c0,0-0.1,0-0.1,0.1c-9.3,9-17.5,31.5-14.7,51.9C435.3,320.7,435.5,320.8,435.8,320.8z"
			/>
		<path id="elkwb3vjuc0eh" class="st2" d="M456.9,340.2c1.1,0.6,3.3-0.7,4.1-1.3c1.4-1,2.6-2.3,3.4-3.9c0.9-1.8,1.2-3.8,0.9-5.7
			c-0.2-1-0.4-2-0.7-3l-0.8-3c-0.3-1-0.5-2-0.4-3c0.3-2,2-3.4,3.7-4.7c1.8-1.3,3.7-3.1,3.7-5.5c-0.1-1.9-0.9-3.7-2.1-5.1
			c-1.2-1.5-2.5-2.8-3.6-4.3c-0.8-1.1-1.3-2.4-1.2-3.8c0.1-0.8,0.4-1.6,0.8-2.4c1-1.5,1.8-3.1,2.6-4.7c0.6-1.7,0.5-3.8-0.8-5
			c-1.2-0.9-2.7-1.2-4.2-1c-1.4,0.2-2.7,0.6-3.9,1.4c-3.9,2.1-6.1,6.7-10.1,8.4c-1.6,0.5-3.3,0.9-5,1.2c-1.7,0.3-3.2,1.3-4.1,2.8
			c-1.5,3,1.3,6.7,0.2,9.9c-0.9,2.8-3.7,3.9-5.2,6.4c-0.6,1.1-0.9,2.4-0.7,3.7c0.1,2.2,0.7,4.3,1.5,6.2c1,2,2.1,3.8,3.4,5.6
			C438.3,329.4,456.7,340.1,456.9,340.2z"/>
		<path id="elguxpen87jhm" class="st4" d="M446,334.4L446,334.4c0.3,0,0.5-0.2,0.5-0.5l0,0c-0.8-19.1,8.2-40.1,14.7-46.2
			c0.2-0.2,0.2-0.5,0-0.7l0,0c-0.2-0.2-0.5-0.2-0.7,0l0,0c-6.7,6.2-15.8,27.6-15,47C445.5,334.2,445.8,334.4,446,334.4z"/>
		<path id="el25gmeuoaxst" class="st4" d="M448.8,311.8h0.1c4.5-1.2,9.2-2,13.8-2.2c0.3,0,0.5-0.2,0.5-0.5s-0.2-0.5-0.5-0.5l0,0
			c-4.8,0.2-9.5,1-14.1,2.3c-0.3,0.1-0.4,0.3-0.3,0.6l0,0C448.4,311.7,448.6,311.8,448.8,311.8z"/>
	</g>
	<g id="freepik--plants--inject-7_1_">
		<path id="el8g6xat6qqhk" class="st5" d="M77.6,329.6l6.7-3.9c0,0,3.2-17.8,0.8-33.1c-3.4-21.5-18-29-23.4-26.8s-6.6,8.5,3,21
			C70.5,294.1,77.8,309.6,77.6,329.6z"/>
		<path id="elff5zryqq5il" class="st4" d="M80,321L80,321c-0.3,0-0.4-0.3-0.4-0.5c2.8-20.1-5.3-42.2-14.4-51.1
			c-0.2-0.2-0.2-0.5,0-0.7s0.5-0.2,0.7,0l0,0c9.3,9.1,17.5,31.5,14.7,51.9C80.5,320.8,80.3,321,80,321L80,321z"/>
		<path id="el09z98zs3ksow" class="st6" d="M58.9,340.4c-1.1,0.6-3.3-0.7-4.1-1.3c-1.4-1-2.6-2.3-3.4-3.9c-0.9-1.8-1.2-3.8-0.8-5.7
			c0.2-1,0.4-2,0.7-3l0.8-3c0.4-1,0.5-2,0.4-3c-0.3-2-2-3.4-3.7-4.6c-1.8-1.4-3.7-3.1-3.7-5.6c0.1-1.9,0.9-3.7,2.1-5.1
			c1.2-1.5,2.5-2.8,3.6-4.3c0.8-1.1,1.3-2.4,1.2-3.8c-0.1-0.8-0.4-1.6-0.8-2.4c-1-1.5-1.8-3.1-2.6-4.8c-0.6-1.7-0.5-3.8,0.8-5
			c1.2-0.9,2.7-1.2,4.2-1c1.4,0.2,2.7,0.6,3.9,1.4c3.9,2.1,6.1,6.7,10.2,8.4c1.6,0.5,3.3,0.9,5,1.2c1.7,0.3,3.2,1.3,4.1,2.8
			c1.5,3-1.3,6.7-0.2,9.9c0.9,2.8,3.7,3.9,5.2,6.4c0.6,1.1,0.9,2.4,0.7,3.7c-0.2,2.2-0.7,4.3-1.6,6.3c-1,2-2.1,3.8-3.4,5.6
			C77.5,329.6,59.1,340.3,58.9,340.4z"/>
		<path id="elvqsid1kcgbm" class="st4" d="M69.8,334.5L69.8,334.5c-0.3,0-0.5-0.2-0.5-0.5c0.8-19.1-8.2-40.1-14.7-46.2
			c-0.2-0.2-0.2-0.5,0-0.7l0,0c0.2-0.2,0.5-0.2,0.7,0c6.7,6.2,15.8,27.6,15,47C70.3,334.4,70.1,334.6,69.8,334.5z"/>
		<path id="elv3bil85g8pe" class="st4" d="M67,312L67,312c-4.6-1.3-9.3-2-14-2.2c-0.3,0-0.5-0.2-0.5-0.5s0.2-0.5,0.5-0.5l0,0
			c4.8,0.2,9.5,1,14.1,2.3c0.3,0.1,0.4,0.3,0.3,0.6C67.4,311.9,67.2,312,67,312z"/>
	</g>
	<path id="elu087ze53hl" class="st5" d="M390.4,245.2c0.5-5.1,5.3-15.1,11.2-21.1s14.7-9.9,20.3-7.3c5.3,2.4,3.9,9.5-3.2,13.6
		s-17.7,9-21.4,16.9l-7.1,9.4L390.4,245.2z"/>
	<path id="elcrf2er2duc7" class="st4" d="M389.3,252.1c0.2,0,0.3-0.1,0.4-0.3c5.2-16.9,20.6-29.5,29.3-31.7c0.2,0,0.3-0.2,0.3-0.4
		l0,0c0-0.2-0.2-0.3-0.4-0.3l0,0c-8.8,2.3-24.5,15-29.8,32.2C389,251.8,389.2,252,389.3,252.1L389.3,252.1L389.3,252.1z"/>
	<path id="eljaix0gvnl7e" class="st6" d="M390.7,263.4c1.1-2.8,5.1-7.1,11.1-10.4c6.6-3.6,14.7-4.8,16.9-7.9
		c2.6-3.8-0.4-7.9-6.9-7.8s-18.6,7.7-21.7,20.6L390.7,263.4z"/>
	<path id="el59tw9ug0y0a" class="st4" d="M389.8,260.3c0.1,0,0.3-0.1,0.3-0.2c6.8-14.2,18.6-18.2,23.9-18.4c0.2,0,0.4-0.2,0.4-0.4
		s-0.2-0.3-0.4-0.3l0,0c-5.9,0.1-17.6,4.3-24.6,18.8c-0.1,0.2,0,0.4,0.2,0.5l0,0H389.8z"/>
</g>
<g id="freepik--Device--inject-7">
	<path id="elpb275cm6dv9" class="st5" d="M80.8,363.9l109.1,63c2.7,1.4,5.9,1.4,8.7,0l206.6-119.3c2.4-1.4,2.4-3.6,0-5l-109.1-63
		c-2.7-1.4-5.9-1.4-8.7,0L80.8,358.9C78.4,360.2,78.4,362.5,80.8,363.9z"/>
	<path id="el3w9u5go9zgt" class="st7" d="M141.5,391.8c3.8,1.9,8.2,1.9,12,0c3.3-1.9,3.3-5,0-7c-3.8-1.9-8.2-1.9-12,0
		C138.2,386.8,138.2,389.9,141.5,391.8z"/>
	<path id="elhfnd0mwskp7" class="st6" d="M189.9,426.9l-109.1-63c-2.1-1.2-2.4-3.2-0.7-4.5c-2.2,1.7-3.5,4.3-3.7,7v4.1
		c0.2,3,1.8,5.8,4.3,7.5l109.1,63c1.3,0.7,2.8,1,4.3,1v-14C192.7,427.9,191.3,427.6,189.9,426.9z"/>
	<path id="el3zcd0xs31o4" class="st7" d="M405.2,321.6c2.6-1.7,4.2-4.5,4.3-7.5V310c-0.2-2.7-1.5-5.3-3.7-7c1.7,1.4,1.5,3.3-0.7,4.5
		L198.6,426.9c-1.3,0.7-2.8,1-4.3,1V442c1.5,0,3-0.3,4.3-1L405.2,321.6z"/>
	<path id="elsu0vn5ey2o" class="st8" d="M212,411.5l-100.4-58c-1.4-0.8-1.4-2.2,0-3L276.9,255c1.6-0.8,3.6-0.8,5.2,0l100.5,58
		c1.4,0.8,1.4,2.2,0,3l-165.4,95.5C215.5,412.3,213.6,412.3,212,411.5z"/>
	<path id="eljtap4bgm9f" class="st9" d="M203.8,397.4l-76-43.9c-1.4-0.8-1.4-2.2,0-3l2.9-1.7c1.6-0.8,3.6-0.8,5.2,0l76,43.9
		c1.4,0.8,1.4,2.2,0,3l-2.9,1.7C207.4,398.2,205.4,398.2,203.8,397.4z"/>
	<path id="elnuro2fzjbhq" class="st2" d="M211.8,400.4l5.5-3.2c0.7-0.4,1.6-0.1,2,0.5l2.6,4.4c0.4,0.7,0.1,1.2-0.7,1l-9.1-1.8
		C211.1,401.3,211.1,400.9,211.8,400.4z"/>
	<path id="elu49jow1l6wg" class="st9" d="M273.4,266.3c3.8-1.9,8.4-1.9,12.2,0c3.4,1.9,3.4,5.1,0,7c-3.8,1.9-8.4,1.9-12.2,0
		C270.1,271.4,270.1,268.3,273.4,266.3z"/>
	<path id="eld9082vjk45" class="st9" d="M350,308.2c1.4,0.8,1.4,2.2,0,3l-15.1,8.8c-1.6,0.8-3.6,0.8-5.2,0l-47.6-27.5
		c-1.4-0.8-1.4-2.2,0-3l13.6-7.9l-4.1-7L350,308.2z"/>
	<path id="elt9o994z3luq" class="st8" d="M300.3,285.3l42.1,24.3c0.7,0.4,0.8,1,0.3,1.3c-0.8,0.3-1.6,0.2-2.3-0.2l-42.1-24.3
		c-0.7-0.4-0.8-1-0.3-1.3C298.8,284.8,299.6,284.9,300.3,285.3z"/>
	<path id="elbe0rbaetoo" class="st8" d="M296.3,287.6l42.1,24.3c0.7,0.4,0.9,1,0.3,1.3c-0.8,0.3-1.6,0.2-2.3-0.2l-42.1-24.3
		c-0.7-0.4-0.9-1-0.3-1.3C294.7,287.2,295.6,287.2,296.3,287.6z"/>
	<path id="el7raoll8hrj7" class="st8" d="M292.2,290l42.1,24.3c0.7,0.4,0.9,1,0.3,1.3c-0.8,0.3-1.6,0.2-2.3-0.2l-42.1-24.3
		c-0.7-0.4-0.9-1-0.3-1.3C290.6,289.5,291.5,289.6,292.2,290z"/>
	<path id="elf4w3ajqhq7n" class="st9" d="M265.3,360.2c3.8-1.9,8.4-1.9,12.2,0c3.4,1.9,3.4,5.1,0,7c-3.8,2-8.4,2-12.2,0
		C262,365.3,262,362.1,265.3,360.2z"/>
	<path id="el8ejjpsfg2ds" class="st9" d="M251.1,354.3l-13.7,7.9c-1.6,0.8-3.6,0.8-5.2,0l-47.6-27.5c-1.4-0.8-1.4-2.2,0-3l15.1-8.7
		c1.6-0.8,3.6-0.8,5.2,0l58.4,33.7L251.1,354.3z"/>
	<path id="el6xd76k4pppi" class="st8" d="M202.7,327.5l42.1,24.3c0.7,0.4,0.9,1,0.3,1.3c-0.8,0.3-1.6,0.3-2.3-0.2l-42.1-24.3
		c-0.7-0.4-0.9-1-0.3-1.3C201.1,327,202,327.1,202.7,327.5z"/>
	<path id="el90rirxfb7np" class="st8" d="M198.6,329.9l42.1,24.3c0.7,0.4,0.8,1,0.3,1.3c-0.8,0.3-1.6,0.3-2.3-0.2L196.6,331
		c-0.7-0.4-0.8-1-0.3-1.3C197,329.4,197.9,329.4,198.6,329.9z"/>
	<path id="elx2gd8phv7yj" class="st8" d="M194.5,332.2l42.1,24.3c0.7,0.4,0.8,1,0.3,1.3c-0.8,0.3-1.6,0.3-2.3-0.2l-42.1-24.3
		c-0.7-0.4-0.8-1-0.3-1.3C193,331.7,193.8,331.8,194.5,332.2z"/>
	<path id="elhj5x5qr21ob" class="st9" d="M216.6,299.2c3.8-2,8.4-2,12.2,0c3.4,1.9,3.4,5.1,0,7c-3.8,1.9-8.4,1.9-12.2,0
		C213.2,304.3,213.2,301.1,216.6,299.2z"/>
	<path id="elo1v8b6azrib" class="st9" d="M281,334c1.4,0.8,1.4,2.2,0,3l-11.1,6.4c-1.6,0.8-3.6,0.8-5.2,0L229.2,323
		c-1.4-0.8-1.4-2.2,0-3l9.7-5.5l-4.1-7L281,334z"/>
	<path id="elxoe3ty9urol" class="st8" d="M245,316.7l30.5,17.6c0.7,0.4,0.9,1,0.3,1.3c-0.8,0.3-1.6,0.2-2.3-0.2l-30.6-17.6
		c-0.7-0.4-0.9-1-0.3-1.3C243.4,316.2,244.3,316.3,245,316.7z"/>
	<path id="el1kb1rmmwztv" class="st8" d="M240.9,319.1l30.5,17.6c0.7,0.4,0.9,1,0.3,1.3c-0.8,0.3-1.6,0.2-2.3-0.2l-30.5-17.6
		c-0.7-0.4-0.8-1-0.3-1.3C239.3,318.6,240.2,318.7,240.9,319.1z"/>
	<path id="el917u3we1r1d" class="st8" d="M236.8,321.5l30.5,17.6c0.7,0.4,0.8,1,0.3,1.3c-0.8,0.3-1.6,0.2-2.3-0.2l-30.5-17.6
		c-0.7-0.4-0.8-1-0.3-1.3C235.3,321,236.1,321,236.8,321.5z"/>
	<path id="el7sjzzr2ru6" class="st9" d="M318.1,329.7c3.8-1.9,8.4-1.9,12.2,0c3.4,2,3.4,5.1,0,7c-3.8,1.9-8.4,1.9-12.2,0
		C314.8,334.8,314.8,331.6,318.1,329.7z"/>
	<path id="ellvzasr2931q" class="st9" d="M303.9,323.8l-5.5,3.2c-1.6,0.8-3.6,0.8-5.2,0L270,313.6c-1.4-0.8-1.4-2.2,0-3l7-4
		c1.6-0.8,3.6-0.8,5.2,0l34,19.6L303.9,323.8z"/>
	<path id="elv9nf31yyzsa" class="st8" d="M280.5,309l20.4,11.8c0.7,0.4,0.9,1,0.3,1.3c-0.8,0.3-1.6,0.3-2.3-0.2l-20.4-11.8
		c-0.7-0.4-0.8-1-0.3-1.3C278.9,308.5,279.8,308.6,280.5,309z"/>
	<path id="eljbmjryjmapm" class="st8" d="M276.4,311.4l20.4,11.8c0.7,0.4,0.8,1,0.3,1.3c-0.8,0.3-1.6,0.3-2.3-0.2l-20.4-11.8
		c-0.7-0.4-0.9-1-0.3-1.3C274.9,310.9,275.7,311,276.4,311.4z"/>
	<path id="elsaznt7ft3m9" class="st9" d="M155.6,334.4c3.8-1.9,8.4-1.9,12.2,0c3.4,2,3.4,5.1,0,7c-3.8,1.9-8.4,1.9-12.2,0
		C152.3,339.5,152.3,336.3,155.6,334.4z"/>
	<path id="elb263fd1toj8" class="st9" d="M203.7,359.8c1.4,0.8,1.4,2.2,0,3l-7,4c-1.6,0.8-3.6,0.8-5.2,0l-19.1-11.1
		c-1.4-0.8-1.4-2.2,0-3l5.5-3.2l-4.1-7L203.7,359.8z"/>
	<path id="elk982cglpsvn" class="st8" d="M183.8,351.7l15.6,9c0.7,0.4,0.9,1,0.3,1.3c-0.8,0.3-1.6,0.3-2.3-0.2l-15.6-9
		c-0.7-0.4-0.9-1-0.3-1.3C182.3,351.2,183.1,351.3,183.8,351.7z"/>
	<path id="el0v6uyltbqx3" class="st8" d="M179.8,354l15.6,9c0.7,0.4,0.9,1,0.3,1.3c-0.8,0.3-1.6,0.3-2.3-0.2l-15.6-9
		c-0.7-0.4-0.8-1-0.3-1.3C178.2,353.5,179,353.6,179.8,354z"/>
	<path id="elssth7vac2vs" class="st7" d="M342.3,276.1c0.8,0.4,1.8,0.4,2.6,0c0.4-0.1,0.7-0.6,0.5-1c-0.1-0.3-0.3-0.5-0.5-0.5
		c-0.8-0.4-1.8-0.4-2.6,0c-0.4,0.1-0.7,0.6-0.5,1C341.8,275.9,342,276.1,342.3,276.1z"/>
	<path id="el76m8togdjfs" class="st7" d="M346.5,288.2c1.7,0.8,3.6,0.8,5.3,0c1.5-0.9,1.5-2.2,0-3.1c-1.7-0.8-3.6-0.8-5.3,0
		C345,286,345,287.3,346.5,288.2z"/>
	<path id="eljx5z6w0yt7m" class="st7" d="M342.8,282.8c1-0.6,0.9-1.5-0.1-2.1l-17.5-10.1c-1.1-0.6-2.5-0.6-3.7-0.1
		c-1,0.6-0.9,1.5,0.1,2.1l17.5,10.1C340.2,283.4,341.6,283.4,342.8,282.8z"/>
</g>
<g id="freepik--speech-bubbles--inject-7">
	<path id="elg1isjg4sama" class="st2" d="M138.1,288.7l-5.5-3.2c-0.1,0-0.2-0.1-0.3-0.2l-1-1.8l3.3-1.9l-0.1,0.3L138.1,288.7z"/>
	<g id="elpvynqd7hu2">
		<path class="st10" d="M138.1,288.7l-5.5-3.2c-0.1,0-0.2-0.1-0.3-0.2l-1-1.8l3.3-1.9l-0.1,0.3L138.1,288.7z"/>
	</g>
	<path id="elflup7dqqznm" class="st2" d="M134,281.9l3.8,6.6c0.2,0.3,0.5,0.3,0.8,0.2c0.1-0.1,0.2-0.2,0.2-0.3l4.1-11.7L134,281.9z"
		/>
	<path id="el8wpwscx0pix" class="st2" d="M215.2,198.1c-0.1-1.9-1.1-3.6-2.6-4.7l-2.2-1.3c-1.7-0.9-3.7-0.9-5.4,0l-87.2,50.3
		c-1.6,1-2.6,2.8-2.7,4.6v33.9c0.1,1.9,1.1,3.6,2.7,4.6l2.2,1.3c1.7,0.9,3.7,0.9,5.3,0l87.4-50.5c2.4-1.4,2.4-2.8,2.4-4.5
		L215.2,198.1z"/>
	<g id="el8bmm23f2u1g">
		<path class="st10" d="M115.1,281c0.1,1.9,1.1,3.6,2.7,4.6l2.2,1.3c1.5,0.8,3.3,0.8,4.9,0.2c-1.3,0.5-2.2-0.2-2.2-1.8v-33.9
			c0-0.9,0.3-1.8,0.8-2.6l-7.5-4.4c-0.5,0.8-0.8,1.7-0.8,2.6L115.1,281L115.1,281z"/>
	</g>
	<g id="el65m2z4qfuak">
		<path class="st11" d="M215.1,197.3c-0.3-1.1-1.4-1.5-2.6-0.8l-87.2,50.3c-0.8,0.5-1.4,1.2-1.9,2l-7.5-4.4c0.4-0.8,1.1-1.5,1.9-2
			l87.2-50.3c1.7-0.8,3.7-0.8,5.4,0l2.2,1.2C213.9,194.3,214.9,195.7,215.1,197.3z"/>
	</g>
	<path id="elfxgqbqjmzk7" class="st4" d="M129.9,252.1l76.8-44.4c0.9-0.5,1.6-0.3,1.6,0.5c-0.1,1-0.7,1.9-1.6,2.4L130,255
		c-0.9,0.5-1.6,0.3-1.6-0.5C128.4,253.5,129,252.6,129.9,252.1z"/>
	<path id="elklrrtosl7dp" class="st4" d="M129.9,267.2l63.6-36.7c0.9-0.5,1.6-0.3,1.6,0.5c-0.1,1-0.7,1.9-1.6,2.4l-63.6,36.7
		c-0.9,0.5-1.6,0.3-1.6-0.5C128.4,268.6,129,267.7,129.9,267.2z"/>
	<path id="eleowa7niics" class="st4" d="M129.9,274.5l74.8-43.3c0.9-0.5,1.6-0.3,1.6,0.5c-0.1,1-0.7,1.9-1.6,2.4l-74.8,43.3
		c-0.9,0.5-1.6,0.3-1.6-0.5C128.4,275.9,129,275,129.9,274.5z"/>
	<path id="elprrdztkman8" class="st4" d="M129.9,259.5l74.8-43.3c0.9-0.5,1.6-0.3,1.6,0.5c-0.1,1-0.7,1.9-1.6,2.4l-74.8,43.3
		c-0.9,0.5-1.6,0.3-1.6-0.5C128.4,260.9,129,260,129.9,259.5z"/>
	<path id="elkujkjsomii" class="st2" d="M138.1,121.8l-5.5-3.2c-0.1,0-0.2-0.1-0.3-0.2l-1-1.8l3.3-1.9l-0.1,0.3L138.1,121.8z"/>
	<g id="el1jq0ep3d0u4">
		<path class="st10" d="M138.1,121.8l-5.5-3.2c-0.1,0-0.2-0.1-0.3-0.2l-1-1.8l3.3-1.9l-0.1,0.3L138.1,121.8z"/>
	</g>
	<path id="elics0p7nmi7b" class="st2" d="M134,115l3.8,6.6c0.2,0.3,0.5,0.3,0.8,0.2c0.1-0.1,0.2-0.2,0.2-0.3l4.1-11.7L134,115z"/>
	<path id="elkmibkfmfeq" class="st2" d="M206.2,44.9c-0.1-1.9-1.1-3.6-2.7-4.6l-2.2-1.3c-1.7-0.9-3.7-0.9-5.4,0l-78.2,45.1
		c-1.6,1-2.6,2.8-2.7,4.6V114c0.1,1.9,1.1,3.6,2.7,4.6l2.2,1.3c1.7,0.9,3.7,0.9,5.3,0l78.4-45.3c2.4-1.4,2.4-2.8,2.4-4.5V44.9H206.2
		z"/>
	<g id="el3eeabf3d8d7">
		<path class="st10" d="M115.1,114.1c0.1,1.9,1.1,3.6,2.7,4.6l2.2,1.3c1.5,0.8,3.3,0.9,4.9,0.2c-1.3,0.5-2.2-0.3-2.2-1.8V93.2
			c0-0.9,0.3-1.8,0.8-2.6l-7.5-4.3c-0.5,0.8-0.8,1.7-0.8,2.6L115.1,114.1L115.1,114.1z"/>
	</g>
	<g id="elcmhnpfx93m">
		<path class="st11" d="M206.1,44.2c-0.3-1.1-1.4-1.5-2.6-0.8l-78.2,45.1c-0.8,0.5-1.4,1.2-1.9,2l-7.5-4.3c0.4-0.8,1.1-1.5,1.9-2
			L196,39.1c1.7-0.8,3.7-0.8,5.4,0l2.2,1.3C204.9,41.2,205.8,42.6,206.1,44.2z"/>
	</g>
	<path id="el5eiztse3cv9" class="st4" d="M129.9,100.3l54.5-31.5c0.9-0.5,1.6-0.3,1.6,0.5c-0.1,1-0.7,1.9-1.6,2.4l-54.5,31.5
		c-0.9,0.5-1.6,0.3-1.6-0.5C128.4,101.7,129,100.8,129.9,100.3z"/>
	<path id="eli4ide4h1ep7" class="st4" d="M129.9,107.6l65.7-38c0.9-0.5,1.6-0.3,1.6,0.5c-0.1,1-0.7,1.9-1.6,2.4l-65.8,38.1
		c-0.9,0.5-1.6,0.3-1.6-0.5C128.3,109,128.9,108.1,129.9,107.6z"/>
	<path id="elekkuccaq4lo" class="st4" d="M129.9,92.6l65.7-38.1c0.9-0.5,1.6-0.3,1.6,0.5c-0.1,1-0.7,1.9-1.6,2.4l-65.8,38.1
		c-0.9,0.5-1.6,0.3-1.6-0.5C128.4,93.9,129,93,129.9,92.6z"/>
	<path id="elzggg967gck" class="st7" d="M269.2,87.3l-5.5-3.2c-0.1,0-0.2-0.1-0.3-0.2l-1-1.8l3.3-1.9l-0.1,0.2L269.2,87.3z"/>
	<path id="el1awnvp891cg" class="st5" d="M265.2,80.4L269,87c0.2,0.3,0.5,0.3,0.8,0.2c0.1-0.1,0.2-0.2,0.2-0.3l4.1-11.7L265.2,80.4z
		"/>
	<path id="el4mtvts0gxbb" class="st5" d="M283.3,45c-0.1-1.9-1.1-3.6-2.7-4.6l-2.2-1.3c-1.7-0.8-3.7-0.8-5.4,0l-74.3,42.8
		c-1.6,1-2.6,2.8-2.7,4.6v22c0.1,1.9,1.1,3.6,2.7,4.6l2.2,1.3c1.7,0.9,3.7,0.9,5.4,0l74.6-43c2.4-1.4,2.4-2.8,2.4-4.5L283.3,45
		L283.3,45z"/>
	<path id="elmess9j5jlj" class="st7" d="M196.1,108.5c0.1,1.9,1.1,3.6,2.7,4.6l2.2,1.3c1.5,0.8,3.3,0.9,4.9,0.2
		c-1.3,0.5-2.2-0.3-2.2-1.8v-22c0-0.9,0.3-1.8,0.8-2.6l-7.5-4.3c-0.5,0.8-0.8,1.7-0.8,2.6L196.1,108.5z"/>
	<path id="elomcw87j440p" class="st6" d="M283.2,44.2c-0.3-1.1-1.4-1.5-2.6-0.8l-74.3,42.8c-0.8,0.5-1.4,1.2-1.9,2l-7.5-4.3
		c0.4-0.8,1.1-1.5,1.9-2l74.3-42.8c1.7-0.8,3.7-0.8,5.4,0l2.1,1.3C282,41.3,282.9,42.7,283.2,44.2z"/>
	<path id="elqdaqbpgktr" class="st2" d="M210.8,92.5l50.6-29.2c0.9-0.5,1.6-0.3,1.6,0.5c-0.1,1-0.7,1.9-1.6,2.4l-50.6,29.2
		c-0.9,0.5-1.6,0.3-1.6-0.5C209.3,93.9,209.9,93,210.8,92.5z"/>
	<path id="el82nzb6vr0lo" class="st2" d="M210.8,99.8L272.7,64c0.9-0.5,1.6-0.3,1.6,0.5c-0.1,1-0.7,1.9-1.6,2.4l-61.9,35.8
		c-0.9,0.5-1.6,0.3-1.6-0.5C209.3,101.2,209.9,100.3,210.8,99.8z"/>
	<path id="ell6uf3612gke" class="st2" d="M138.1,201.9l-5.5-3.2c-0.1,0-0.2-0.1-0.3-0.2l-1-1.8l3.3-1.9l-0.1,0.3L138.1,201.9z"/>
	<g id="ely6l5994nte">
		<path class="st10" d="M138.1,201.9l-5.5-3.2c-0.1,0-0.2-0.1-0.3-0.2l-1-1.8l3.3-1.9l-0.1,0.3L138.1,201.9z"/>
	</g>
	<path id="elc238k4lfmmt" class="st2" d="M134,195.1l3.8,6.6c0.2,0.3,0.5,0.3,0.8,0.2c0.1-0.1,0.2-0.1,0.2-0.3l4.1-11.7L134,195.1z"
		/>
	<path id="eljronitowhbn" class="st2" d="M175.5,141.5c-0.1-1.9-1.1-3.6-2.7-4.6l-2.2-1.3c-1.7-0.8-3.7-0.8-5.4,0L117.8,163
		c-1.6,1-2.6,2.8-2.7,4.6v26.7c0.1,1.9,1.1,3.6,2.7,4.6l2.2,1.3c1.7,0.9,3.7,0.9,5.3,0l47.7-27.6c2.4-1.4,2.4-2.8,2.4-4.4
		L175.5,141.5z"/>
	<g id="elnvyjwz1csj9">
		<path class="st10" d="M115.1,194.2c0.1,1.9,1.1,3.6,2.7,4.6l2.2,1.3c1.5,0.8,3.3,0.8,4.9,0.2c-1.3,0.5-2.2-0.2-2.2-1.8v-26.6
			c0-0.9,0.3-1.8,0.8-2.6l-7.5-4.4c-0.5,0.8-0.8,1.7-0.8,2.6L115.1,194.2L115.1,194.2z"/>
	</g>
	<g id="elhvx5b33tfh4">
		<path class="st11" d="M175.4,140.7c-0.3-1.1-1.4-1.5-2.6-0.8l-47.5,27.4c-0.8,0.5-1.4,1.2-1.9,2l-7.5-4.4c0.4-0.8,1.1-1.5,1.9-2
			l47.4-27.4c1.7-0.8,3.7-0.8,5.4,0l2.2,1.3C174.1,137.7,175.1,139.1,175.4,140.7z"/>
	</g>
	<path id="el3auxhofdn84" class="st4" d="M129.9,180.4l23.8-13.8c0.9-0.5,1.6-0.3,1.6,0.5c-0.1,1-0.7,1.9-1.6,2.4l-23.8,13.8
		c-0.9,0.5-1.6,0.3-1.6-0.5C128.3,181.8,128.9,180.9,129.9,180.4z"/>
	<path id="elcz0zb2pe7q" class="st4" d="M129.9,187.8l35.1-20.4c0.9-0.5,1.6-0.3,1.6,0.5c-0.1,1-0.7,1.9-1.6,2.4l-35.1,20.3
		c-0.9,0.5-1.6,0.3-1.6-0.5C128.4,189.1,129,188.2,129.9,187.8z"/>
	<path id="eltu8b5opxc6" class="st4" d="M129.9,172.7l35.1-20.3c0.9-0.5,1.6-0.3,1.6,0.5c-0.1,1-0.7,1.9-1.6,2.4l-35.1,20.3
		c-0.9,0.5-1.6,0.3-1.6-0.5C128.4,174.1,129,173.2,129.9,172.7z"/>
	<path id="eltp0k2xuazd" class="st2" d="M274.6,230.6l-2.4-4.5l1.9-5.5v-3.4l-5.9,3.4v3.4l2.5,4.4c0,0.1,0.1,0.1,0.2,0.2l0,0
		L274.6,230.6z"/>
	<path id="eln50ndgl67w" class="st1" d="M274.6,230.6l-3.6-2.1c-0.1,0-0.1-0.1-0.2-0.1l-0.7-1.2l1.8-1.1l2.5,4.4
		C274.5,230.5,274.6,230.5,274.6,230.6z"/>
	<path id="elm4psrlp51cm" class="st9" d="M283.9,200.1c-0.1-1.2-0.7-2.3-1.8-3l-1.4-0.8c-1.1-0.6-2.4-0.6-3.5,0L244,215.4
		c-1,0.7-1.7,1.8-1.8,3v17.2c0.1,1.2,0.7,2.3,1.8,3l1.4,0.8c1.1,0.6,2.4,0.6,3.5,0l23.1-13.3l2.5,4.4c0.1,0.2,0.3,0.2,0.5,0.1
		c0.1,0,0.2-0.1,0.2-0.2l2.7-7.7l4.3-2.5c1-0.7,1.7-1.8,1.8-3.1v-17H283.9z"/>
	<path id="eltwrsxmlzxo" class="st1" d="M242.2,235.5c0.1,1.2,0.7,2.3,1.8,3l1.4,0.8c1,0.5,2.2,0.6,3.2,0.1
		c-0.8,0.3-1.5-0.1-1.5-1.1v-17.1c0-0.6,0.2-1.2,0.5-1.7l-4.9-2.9c-0.3,0.5-0.5,1.1-0.5,1.7V235.5z"/>
	<path id="elq9zecz9fr7a" class="st12" d="M283.8,199.6c-0.2-0.8-0.9-1-1.7-0.5l-33.2,19.2c-0.5,0.3-1,0.8-1.2,1.3l-5-2.9
		c0.3-0.5,0.7-1,1.2-1.3l33.2-19.2c1.1-0.5,2.4-0.5,3.5,0l1.4,0.8C283,197.6,283.6,198.5,283.8,199.6z"/>
	<path id="el75exqr3ug57" class="st4" d="M256.9,221.5c-1.4,0.9-2.3,2.4-2.4,4.1c0,1.5,1,2.1,2.4,1.4c1.4-0.9,2.3-2.4,2.4-4.1
		C259.2,221.4,258.1,220.8,256.9,221.5"/>
	<path id="elo4gdvfu6ulf" class="st4" d="M265.5,216.5c-1.4,0.9-2.3,2.4-2.4,4.1c0,1.5,1.1,2.1,2.4,1.4c1.4-0.9,2.3-2.4,2.4-4.1
		C267.9,216.4,266.8,215.8,265.5,216.5z"/>
	<path id="el081vhm4m1ltj" class="st4" d="M274.2,211.5c-1.4,0.9-2.3,2.4-2.4,4.1c0,1.5,1,2.1,2.4,1.4c1.4-0.9,2.3-2.4,2.3-4.1
		C276.5,211.4,275.5,210.8,274.2,211.5z"/>
	<path id="elhuqrol0rakj" class="st2" d="M269.3,161.9l-3.6-6.8l2.9-8.4v-5.2l-8.9,5.2v5.2l3.9,6.7c0.1,0.1,0.1,0.2,0.3,0.2l0,0
		L269.3,161.9z"/>
	<path id="eldb0n7xyslci" class="st7" d="M263.8,158.7L263.8,158.7c-0.1,0-0.2-0.1-0.3-0.2l-1-1.8l2.8-1.6l3.8,6.6
		c0,0.1,0.1,0.2,0.2,0.2L263.8,158.7z"/>
	<path id="elb3zkrej72vi" class="st5" d="M283.4,115.3c-0.1-1.9-1.1-3.6-2.7-4.6l-2.2-1.3c-1.7-0.8-3.7-0.8-5.4,0l-67,38.7
		c-1.6,1-2.6,2.8-2.7,4.6v26.1c0.1,1.9,1.1,3.6,2.7,4.6l2.2,1.3c1.7,0.8,3.7,0.8,5.4,0l51.6-29.8l3.8,6.6c0.2,0.3,0.5,0.3,0.8,0.2
		c0.1-0.1,0.2-0.2,0.2-0.3l4-11.7l6.5-3.8c1.6-1,2.6-2.8,2.7-4.6L283.4,115.3z"/>
	<path id="el3cno68t5x3i" class="st2" d="M219.8,156.1l55.6-32.2c0.9-0.5,1.6-0.3,1.6,0.5c-0.1,1-0.7,1.9-1.6,2.4L219.8,159
		c-0.9,0.5-1.6,0.3-1.6-0.5C218.3,157.5,218.9,156.6,219.8,156.1z"/>
	<path id="el91u3awce8h" class="st2" d="M219.8,163.5l42.5-24.5c0.9-0.5,1.6-0.3,1.6,0.5c-0.1,1-0.7,1.9-1.6,2.4l-42.5,24.5
		c-0.9,0.5-1.6,0.3-1.6-0.5C218.3,164.9,218.9,164,219.8,163.5z"/>
	<path id="eljlutcblybm" class="st2" d="M219.8,170.8l53.7-31.1c0.9-0.5,1.6-0.3,1.6,0.5c-0.1,1-0.7,1.9-1.6,2.4l-53.7,31.1
		c-0.9,0.5-1.6,0.3-1.6-0.5C218.3,172.2,218.9,171.3,219.8,170.8z"/>
	<path id="ell7y15jg8txn" class="st7" d="M203.5,178.9c0.1,1.9,1.1,3.6,2.7,4.6l2.2,1.3c1.5,0.8,3.3,0.8,4.9,0.2
		c-1.3,0.5-2.2-0.2-2.2-1.8v-26.1c0-0.9,0.3-1.8,0.8-2.6l-7.5-4.4c-0.5,0.8-0.8,1.7-0.8,2.6L203.5,178.9L203.5,178.9z"/>
	<path id="el3u0cc5p9zy6" class="st6" d="M283.3,114.6c-0.3-1.1-1.4-1.5-2.6-0.8l-67,38.7c-0.8,0.5-1.4,1.2-1.9,2l-7.5-4.4
		c0.4-0.8,1.1-1.5,1.9-2l67-38.7c1.7-0.8,3.7-0.8,5.4,0l2.2,1.3C282.1,111.6,283,113,283.3,114.6z"/>
</g>
<g id="freepik--Character--inject-7">
	<path id="elx1kei5hy83l" class="st13" d="M399,139.8c-0.1-0.8-1.5-9.3-2.6-14l-10,3l1.6,6.6l8.3,8C398,143.2,399.2,141.6,399,139.8
		z"/>
	<g id="elj57yqz3b4no">
		<path class="st7" d="M390.6,68L390.6,68v34.4c0,7.5-6,13.5-13.5,13.5h-4.9c-7.5,0-13.5-6-13.5-13.5V68l0,0"/>
	</g>
	<polygon id="el9inm3gh4x1" class="st14" points="350.8,121.9 346.1,130.6 353.4,136.9 360.1,126.2 	"/>
	<path id="eld8o52vgt2ik" class="st14" d="M344.4,131.9c-1,2.7-3.4,7-0.6,9.1s10.5-0.4,10.5-0.4L344.4,131.9z"/>
	<path id="elhzoxfdw347g" class="st15" d="M368.5,102.7c-4.7,0-9.8,1.8-11.6,5.4s-7.3,15.1-7.3,15.1s4.1,6,10.7,5.6L368.5,102.7z"/>
	<path id="elld8cjtd4u6e" class="st7" d="M361.8,255c-1.7,2-3.7,3.9-5.8,5.6c-0.3,0.2-0.6,0.6-0.8,0.9c-0.3,0.6-0.6,2.1,2.1,2.9
		c2.8,0.8,5.9,0.4,8.3-1.2c2.2-1.5,2.1-4.4,4.1-6.2c1.5-1.3,3.4-1.7,4.6-3.4c0.8-1.2,0.5-2.6,0-4.4c-0.6-2-0.9-3.5-1.6-3.3l0.2,0.9
		c-0.8,1.4-5,2-7,1.2C364.7,250.4,363.3,252.7,361.8,255z"/>
	<path id="el7aywk894egj" class="st13" d="M360,257L360,257c0.6-0.6,1.2-1.3,1.8-2c1.2-1.7,2.3-3.5,3.2-5.3c0.5-1.1,0.7-2.3,0.5-3.6
		l-0.6-4.9l7.3-1.1l0.7,6.6l0,0c0.2,1.5-0.9,2.9-3,4.9s-4.7,6.6-6.6,7.8s-3.4,1.3-4.3,0.7S358,259.3,360,257z"/>
	<path id="el5inuoygixrg" class="st7" d="M384.2,256.3v-1c-0.4,1.2-2.3,6.4-5.1,9c-2.3,2.1-5.3,4.4-6.1,6.7s4.3,3.2,6.4,2.8
		c2.8-0.5,5.4-1.9,7.3-4c1.2-1.5,2-3.3,2.9-4.4s2.9-2.5,3.3-3.8c0.1-1.3,0-2.5-0.4-3.8c-0.3-1.3-0.7-2.7-1.1-2.5v0.7
		c-1,0.8-2.3,1.2-3.6,1.2C386.8,257.3,384.2,257,384.2,256.3z"/>
	<path id="elgm668ozgs5b" class="st13" d="M377.1,266c0.7-0.6,1.4-1.2,2-1.8c1.9-2,3.4-4.4,4.4-7c0.5-1.2,0.8-2.5,0.8-3.8v-4.1h7.1
		v6.7l0,0v0.2l0,0c-0.4,1.5-3.6,5.4-5.5,8c-1.2,1.7-3.6,3.9-6.5,4.3C376.7,268.9,375.3,268,377.1,266z"/>
	<path id="elx9uq31i1kud" class="st2" d="M390,145.1c5.5,12.1-0.2,54.8-0.2,54.8c0.2,2,2.4,5.8,3.3,14.5c1,10.2-1.5,35.9-1.5,35.9
		c-2.2,1.3-4.9,1.4-7.2,0.3c0,0-6.8-38.7-8.1-48.8c-1.1-8.9-3-23.6-3-23.6l-2.8,23.5c0,0,1.3,5.6,1.7,9.4c0.7,7,0.7,30.9,0.7,30.9
		c-2.3,1.4-5.1,1.9-7.8,1.4c0,0-6.9-36.8-8.9-43.8c-0.9-3.1-1.3-39.2,2.2-56.2L390,145.1z"/>
	<g id="elws3cgrm4oxd">
		<path class="st10" d="M373.2,178.1l-2-15.1c-3-0.1-6-1.1-8.5-2.8c2,1.9,4.5,3.4,7.1,4.4l2,12.8l-0.6,16.4L373.2,178.1z"/>
	</g>
	<path id="el6rc9c86fcsc" class="st0" d="M380.2,103L380.2,103c4.1,1,7.6,3.8,9.4,7.7c1.3,2.9,1.4,6.2,0.3,9.2l-5,14.3
		c0,0,6.6,10.6,6.6,16.7c-11,6.1-28.7,4.1-34.4,0.1c-0.2-1.1,1.2-13.6,0.9-19.1c-0.3-5.9-1.1-12.5-0.2-16.1
		c1.7-6.7,4.9-13.1,11.3-13.1L380.2,103z"/>
	<path id="elfujnprxk1fc" class="st0" d="M382,103c4.2,0.6,10.5,1.5,12.6,11.5s2.8,13.8,2.8,13.8s-3.5,4.1-10.5,4l-2.2-7.8L382,103z
		"/>
	<path id="elev8m7fuya3p" class="st7" d="M379.6,111.5L379.6,111.5c3.1,0,5.6-2.5,5.6-5.6l0,0V89.7h-5.6V111.5z"/>
	<path id="elrtxqbyo8sz" class="st13" d="M364,74.4c-1.7,1-3.8,5.2-3.6,14.1c0.2,7.5,2.6,9.4,3.8,9.9s3.6,0.2,5.9-0.2v4.5
		c0,0-3.2,3.7-3,5.8s4.6,2.6,7.5,0.5c1.9-1.4,3.6-3.1,4.9-5.1V93c1,1.2,2.8,1.4,4.1,0.4l0,0c2.5-1.7,2.6-5.8,1.1-7.3s-4.6-1-5.2,1
		c-3-0.1-5.9-1-8.5-2.5C367.3,82.5,364.7,78.7,364,74.4z"/>
	<path id="el3lkxr6n3x64" class="st7" d="M368.9,86.6c0,0.5,0.4,0.9,0.9,1c0.5,0,1-0.4,1-0.9c0.1-0.5-0.3-1-0.8-1.1s-1,0.3-1.1,0.8
		C368.9,86.5,368.9,86.5,368.9,86.6L368.9,86.6z"/>
	<path id="eltuep3kzy99f" class="st14" d="M368.6,93l-2.2,0.7c0.2,0.6,0.8,1,1.4,0.8l0,0C368.5,94.3,368.8,93.6,368.6,93z"/>
	<path id="elyhp19kmek8h" class="st7" d="M361.1,83.7l1.9-1.3c-0.3-0.5-1-0.7-1.5-0.4l0,0C360.9,82.4,360.8,83.2,361.1,83.7z"/>
	<path id="elaakfy8kg3c6" class="st7" d="M361.6,85.9c0,0.5,0.4,0.9,0.9,0.9s0.9-0.4,0.9-0.9S363,85,362.5,85
		C362.1,85,361.6,85.4,361.6,85.9z"/>
	<polygon id="elfkdxaq68njb" class="st14" points="366,85.4 365.9,91.1 362.9,90.1 	"/>
	<path id="el9zl9p6khga" class="st14" d="M370.2,98.2c2.4-0.3,7.4-1.7,8.2-3.7c-0.3,1-0.9,1.9-1.8,2.5c-1.5,1.3-6.4,2.7-6.4,2.7
		L370.2,98.2z"/>
	<path id="elmgjzmozcjm" class="st7" d="M356,131.9c-1.4-2.6-1.7-2.7-2.5-3.2s-5.8-1.3-7.9-1.5c-2.4-0.2-3.3,0.2-2.6,2.3
		c1.5,4.5,5.2,12.9,6.2,14.2c0.6,0.9,0.3,1.7,3.5,2.4c2.5,0.5,6.4,1.1,7.4,1.1s2.3,0.3,1.4-2.5c-1.1-3.1-2.3-6.2-3.8-9.3
		C356.6,133.3,356,131.9,356,131.9z"/>
	<path id="el7vp09d2d08e" class="st13" d="M388.1,135.5c0,0-20.4,1.8-23.3,0.9s-4.1-2.5-5.9-4.1s-3.1-1.2-3.1-0.7
		c0.4,0.7,1.4,3.1,1.9,3.9c0.5,1.1-1.9,1.1-4.9,0.4s-4.3-2.5-5-1.4s1.7,6.1,6.7,8s8.8,0.6,13,0.8s23.2,2,29,0.2
		c0.3-1.9-0.5-3.8-2-4.9C392.5,137.2,390.4,136.1,388.1,135.5z"/>
	<path id="elkvk20gmp3yc" class="st1" d="M386.5,129.8c-1-2.6-1.8-5.2-2.4-7.9c0,0,0.4,5.8,2,9L386.5,129.8z"/>
</g>
</svg>
