<?xml version="1.0" encoding="utf-8"?>
<!-- Generator: Adobe Illustrator 24.2.1, SVG Export Plug-In . SVG Version: 6.00 Build 0)  -->
<svg version="1.1" id="freepik_stories-influencer" xmlns:svgjs="http://svgjs.com/svgjs"
	 xmlns="http://www.w3.org/2000/svg" xmlns:xlink="http://www.w3.org/1999/xlink" x="0px" y="0px" viewBox="0 0 500 500"
	 style="enable-background:new 0 0 500 500;" xml:space="preserve">
<style type="text/css">
	.st0{fill:#DBDBDB;}
	.st1{fill:#FFFFFF;}
	.st2{fill:#EBEBEB;}
	.st3{fill-rule:evenodd;clip-rule:evenodd;fill:#FFFFFF;}
	.st4{fill:#263238;}
	.st5{fill:#455A64;}
	.st6{fill:#37474F;}
	.st7{fill:#C7C7C7;}
	.st8{fill:#22C37D;}
	.st9{fill:#C95F50;}
	.st10{opacity:0.1;enable-background:new    ;}
	.st11{fill:#FF9ABB;}
	.st12{opacity:0.2;enable-background:new    ;}
</style>
<g id="freepik--background-complete--inject-81">
	<path id="elkqh3qc0s44n" class="st0" d="M59.8,308.8c-7.5-14.8-1.6-32.9,13.2-40.4c14.8-7.5,32.9-1.6,40.4,13.2
		c7.5,14.8,1.6,32.9-13.2,40.4C85.4,329.5,67.3,323.6,59.8,308.8z"/>
	<path id="elt4pmws79b0h" class="st1" d="M102.4,295.4c-2.3,10-11.6,17.7-11.6,17.7s-11.8-2.9-18.3-10.7c-5.4-6.6-5-15.2,0.4-18.3
		c7.8-4.5,13.3,9.6,13.3,9.6s-1.3-15,7.7-14.4C100.2,279.6,104.4,287.1,102.4,295.4z"/>
	<path id="elys2mivbw3l" class="st0" d="M424.6,394.1c-10.2,5.1-22.4,4.1-31.5-2.7c-13.3-9.9-16.1-28.7-6.2-42.1
		c9.9-13.3,28.7-16.1,42.1-6.2c13.3,9.9,16.1,28.7,6.2,42.1C432.4,389,428.8,392,424.6,394.1z"/>
	<path id="eluap8htzq4nq" class="st1" d="M420.5,364.6c-0.4,5-4.9,8.8-9.9,8.3c-5-0.4-8.8-4.9-8.3-9.9c0.4-5,4.9-8.8,9.9-8.3
		c0,0,0,0,0,0C417.1,355.2,420.9,359.6,420.5,364.6C420.5,364.6,420.5,364.6,420.5,364.6z"/>
	<path id="eljyn7ed4o1u" class="st1" d="M424.9,390.4l-0.3,3.8c-10.2,5.1-22.4,4.1-31.5-2.7l0.3-3.8c0.6-8.7,8.2-15.3,16.9-14.7
		s15.3,8.2,14.7,16.9C425,390,424.9,390.2,424.9,390.4z"/>
	<path id="elvabgh3z9n" class="st2" d="M406.9,149.7h-3.6c-2.2,0-4-1.8-4-4c0-2.2,1.8-4,4-4h5l2.3-13.5h-4.5c-2.2,0-4-1.8-4-4
		s1.8-4,4-4h5.9l1.5-9.2c0.3-1.9,2-3.4,4-3.3c2.3,0,4.1,1.9,4,4.2c0,0.2,0,0.4,0,0.5l-1.4,7.8h12.1l1.5-9.2c0.3-2,2.1-3.4,4.1-3.3
		c2.3,0,4.1,1.8,4.1,4.1c0,0.2,0,0.4,0,0.6l-1.3,7.8h3.6c2.2,0,4,1.8,4,4c0,2.2-1.8,4-4,4h-5l-2.3,13.5h4.4c2.2,0,4,1.8,4,4
		s-1.8,4-4,4h-5.8l-1.6,9.5c-0.3,1.9-2,3.4-4,3.3c-2.3,0-4.1-1.9-4-4.1c0-0.2,0-0.4,0-0.6l1.5-8.1h-12.3l-1.6,9.5
		c-0.3,2-2.1,3.4-4.1,3.3c-2.2,0-4-1.7-4.1-3.9c0-0.3,0-0.5,0.1-0.8L406.9,149.7z M428.6,141.6l2.4-13.5h-12.1l-2.3,13.5H428.6z"/>
	<g id="ellk67b7tqw8">
		<circle class="st0" cx="379.3" cy="68.6" r="33"/>
	</g>
	<g id="freepik--xsrjP0--inject-81">
		<path id="el60gevvt381p" class="st3" d="M374.8,81.7c-0.9-0.6-1.6-1.3-2.8-1.2c-0.5,0-0.4-0.3-0.4-0.6c0-4.4,0-8.8,0-13.2
			c0-0.3,0-0.6,0.4-0.8c3.4-1.7,4.8-5,6.9-7.9c2.1-2.9,3-6.5,2.4-10c-0.1-1,0.3-1.4,1.2-1.6c0.9-0.3,1.9,0,2.5,0.8
			c1,1.8,1.7,3.8,2,5.8c0.2,1.7-0.4,3.3-0.6,5c-0.1,1.2-0.4,2.4-0.7,3.6c0.3,0.2,0.6,0.1,1,0.1h11.1c1.6,0,2.3,0.5,2.5,1.5
			c0.2,1.3-0.4,2.6-1.6,3.2c-0.3,0.1-0.8,0-0.8,0.4s0.5,0.4,0.7,0.6c1.3,0.9,1.1,2.8-0.5,3.9c-0.4,0.3-1.1,0.1-1.1,0.7
			s0.7,0.4,1,0.7c1.1,1.1,0.5,3.1-1.1,3.9c-0.2,0.1-0.4,0.2-0.6,0.3c-0.2,0.1-0.4,0.3,0,0.5c1.6,1.2,1.6,2.8,0,3.9l-0.5,0.3
			c-0.6,0.4-1.3,0.5-2,0.4h-17.5C375.8,82.2,375.2,82,374.8,81.7z"/>
		<path id="el1j92ianqk9k" class="st3" d="M358.2,73.9c0-2.8,0-5.6,0-8.4c0-0.6,0.1-0.8,0.8-0.8c3.4,0,6.8,0,10.2,0
			c0.7,0,0.8,0.2,0.8,0.8c0,5.6,0,11.2,0,16.9c0,0.7-0.2,0.9-0.9,0.9c-3.3,0-6.6,0-9.9,0c-0.8,0-0.9-0.3-0.9-1
			C358.3,79.5,358.2,76.7,358.2,73.9z"/>
	</g>
</g>
<g id="freepik--Shadow--inject-81">
	<path id="elluvgjioq7an" class="st2" d="M110.5,433.1c0,3.6-14.8,6.6-33.1,6.6s-33.1-2.9-33.1-6.6s14.8-6.6,33.1-6.6
		S110.5,429.5,110.5,433.1z"/>
</g>
<g id="freepik--Floor--inject-81">
	<polygon id="elnzylx8brcmc" class="st4" points="39.5,408.5 92.1,408.3 144.7,408.2 250,408 355.3,408.2 407.9,408.3 460.5,408.5 
		407.9,408.8 355.3,408.9 250,409 144.7,408.9 92.1,408.8 	"/>
</g>
<g id="freepik--Screen--inject-81">
	<rect id="elos1ff5xpfga" x="114.2" y="94.1" class="st5" width="271.7" height="339"/>
	<rect id="elzfcyem0kkto" x="129.6" y="131.8" class="st1" width="240.8" height="240.8"/>
	<path id="eldo5bf42j7d" class="st1" d="M141.2,119.6c-3.7,2.3-8.6,1.1-10.9-2.6c-2.3-3.7-1.1-8.6,2.6-10.9s8.6-1.1,10.9,2.6
		c0.4,0.7,0.8,1.5,0.9,2.3C145.5,114.3,144.1,117.8,141.2,119.6z"/>
	<path id="elwkwnki6vmws" class="st6" d="M139.5,112c0,1.3-1.1,2.4-2.4,2.4c-1.3,0-2.4-1.1-2.4-2.4c0-1.3,1.1-2.4,2.4-2.4l0,0
		C138.4,109.6,139.5,110.7,139.5,112C139.5,112,139.5,112,139.5,112z"/>
	<path id="elogmlo7q5e4l" class="st6" d="M141.2,118.6v1c-2.5,1.6-5.8,1.6-8.3,0v-1c0-2.3,1.9-4.2,4.1-4.2
		C139.4,114.5,141.2,116.3,141.2,118.6z"/>
	<path id="elgev4byx7oiq" class="st7" d="M365.5,112c0.4,0,0.7,0.3,0.7,0.8c0,0.4-0.3,0.7-0.7,0.7c-0.4,0-0.7-0.3-0.7-0.7
		c0,0,0,0,0,0C364.8,112.3,365.1,112,365.5,112C365.5,112,365.5,112,365.5,112z"/>
	<path id="elb7u27qaawxf" class="st7" d="M367.8,112c0.4,0,0.7,0.3,0.8,0.8c0,0.4-0.3,0.7-0.7,0.7c0,0,0,0,0,0
		c-0.4,0-0.7-0.3-0.7-0.7c0,0,0,0,0,0C367.1,112.3,367.4,112,367.8,112C367.8,112,367.8,112,367.8,112z"/>
	<path id="elcnv7mocyvpu" class="st7" d="M370.1,112c0.4,0,0.7,0.3,0.7,0.8c0,0.4-0.3,0.7-0.7,0.7s-0.7-0.3-0.7-0.7
		C369.4,112.3,369.7,112,370.1,112z"/>
	<rect id="el5y8tm8nuzd8" x="154.1" y="111" class="st6" width="76" height="3.9"/>
	<polygon id="ele100dzmkot" class="st6" points="370.4,372.6 177.6,372.6 177.6,430.6 	"/>
	<path id="el23kzxrrl0iw" class="st8" d="M145.5,390.7c-1.1,1.9-2.5,3.5-4.2,4.9c-0.9,0.8-1.8,1.5-2.8,2.2h-0.7
		c-0.2-0.1-5-3.4-7-7.1c-1.4-2.6-1.6-5.6-0.5-7.5c0.7-1.2,1.9-1.9,3.3-1.9c2,0.1,3.8,1.3,4.6,3.2c0.8-1.9,2.5-3.1,4.6-3.2
		c1.4,0,2.6,0.7,3.3,1.9C147.1,385.1,146.9,388,145.5,390.7z"/>
	<path id="elwe0gwiqj2x" class="st7" d="M194.6,398.7l-1.2-0.2l-2.4-8.9l-5.5-6l0.5-1.1h19.5l0.5,1.1L194.6,398.7z M187.6,383.7
		l4.6,5l0.1,0.3l2.1,7.8l9.8-13.1L187.6,383.7z"/>
	<g id="el5v0ztdfy4xf">
		<rect x="190.4" y="385.5" class="st7" width="16.5" height="1.3"/>
	</g>
	<path id="el9e4nypaq285" class="st7" d="M165.2,397.9c-4.6,0-8.3-3.7-8.3-8.4c0-4.6,3.7-8.3,8.4-8.3s8.3,3.7,8.3,8.4
		c0,0.8-0.1,1.6-0.4,2.4l1.3,5.1l-0.8,0.8l-4.4-1C168.1,397.6,166.7,397.9,165.2,397.9z M165.2,382.6c-3.9,0-7,3.1-7,7
		c0,3.9,3.1,7,7,7c1.3,0,2.5-0.3,3.6-1l0.5-0.1l3.6,0.8l-1-4.2v-0.4c0.2-0.7,0.3-1.4,0.3-2.1C172.3,385.8,169.1,382.6,165.2,382.6
		C165.3,382.6,165.3,382.6,165.2,382.6z"/>
	<path id="elmzslyujlqxo" class="st7" d="M359.1,397.8l-1-0.5v-14.1l0.7-0.7h11.5l0.7,0.7v14.1l-1,0.5l-5.4-4.9L359.1,397.8z
		 M359.4,383.8v12.2l4.7-4.4h0.8l4.7,4.4v-12.2H359.4z"/>
</g>
<g id="freepik--Character--inject-81">
	<path id="el1bh5z9l12db" class="st4" d="M278.3,250.9c0,0.4-0.4,0.8-0.8,0.8c-1-0.1-2.2-0.1-3.6-0.2c-2.1-8.7-4.6-15.7-4.1-13
		c0.8,4.2,1,8.5,0.6,12.8l-7-0.6c-0.8-14.9-3-26.2-3.2-22.9c-0.9,13.6-2.2,17.8-3.8,22.3c-17-1.4-39.3-3.6-55.4-5.4
		c-0.8-8.3-1.3-17.2-1.6-16.7c-2.8,4.3-4.3,10.8-5,15.9c-5.1-0.6-9.2-1.2-11.7-1.7c0,0-0.3-6.9-0.2-9.2c0.3-5.8,1.6-11.5,4-16.7
		c2.4-5.4,6-10,9.5-14.8l0.1-0.1l0,0c2.3-3.1,4.2-6.4,5.7-9.9v-0.1c1-2.6,1.8-5.2,2.4-7.9c2-9.9,8.8-17.7,18.5-19.1
		c19.9-14.3,36.6-5,40.3,8.5c0.4,1.3,0.7,2.8,1,4.4v0.1c1.1,6,1.7,13.7,2.4,19.6l0,0c0,0,0,0,0,0.1l0,0c0.3,2.3,0.7,4.7,1.2,6.9
		C270.8,214.8,280.2,222,278.3,250.9z"/>
	<path id="el42mlvetlkgl" class="st4" d="M218.3,166.4c-6.6,2.4-10.9,6.6-12.8,13.7c-1.1,4.2-1.9,8.3-4.1,12s-5.3,6.9-8.5,10
		c-5,4.8-8.8,9.8-10.4,16.8s-2.4,15.7-0.9,22.8 M181.7,241.7c-1.1-7.1,0.1-16.6,2.3-23.6c2.4-7.7,7.5-12.1,12.8-17.5
		c4.3-4.2,7.3-9.4,8.8-15.2c0.9-3.5,1.4-7.3,3.3-10.5c2.3-3.8,6-5.9,9.7-7.8c0.2-0.1,0.3-0.3,0.2-0.6c-0.1-0.2-0.3-0.3-0.6-0.2
		L181.7,241.7z"/>
	<path id="elbiz3mtz3vok" class="st4" d="M276.5,216.3c-3.6-6.2-7.5-11.6-9.1-18.9c-1.5-6.7-1.9-13.6-3.4-20.3c0-0.1-0.2-0.1-0.2,0
		c2.1,11.8,1.3,23.3,7.4,33.8c3.3,5.7,6.6,11,8.4,17.5c1.8,6.8,2.3,14,1.4,21c0,0.1,0,0.2,0.1,0.2c0.1,0,0.2,0,0.2-0.1
		c0,0,0,0,0-0.1C284,238.2,282.2,226.3,276.5,216.3z"/>
	<path id="ely2enmg50aj" class="st9" d="M252.3,255.7c31.9,33.5,71.6,103.4,63.8,117.3c-8.7,15.5-54.8-32.1-53.4-34.4
		c1.2-1.9-14.7-44.1-26.3-74.9S244.4,247.4,252.3,255.7z"/>
	<path id="elbofny796ynq" class="st8" d="M291.4,295.8l-45.9,8.3c0,0-11.4-32.5-13.7-50.5c-1.3-10.1,4.7-10.5,12.1-5.1
		C270.1,267.2,291.4,295.8,291.4,295.8z"/>
	<path id="eloszwqe76j4g" class="st1" d="M242,259.3c-0.2,0.3-0.5,0.6-0.8,0.9c-0.2,0.1-0.3,0.3-0.5,0.4h-0.1
		c-0.5-0.3-0.9-0.8-1.3-1.3c-0.3-0.4-0.3-0.9-0.1-1.4c0.1-0.2,0.3-0.3,0.6-0.3c0.2,0.5,0.7,0.7,1.1,0.5c0.2-0.1,0.4-0.3,0.5-0.5
		c0.2,0,0.5,0.1,0.6,0.3C242.3,258.3,242.3,258.9,242,259.3z M256.2,258.1c-0.1,0.4,0,0.8,0.2,1.1c0.3,0.5,0.8,1,1.3,1.3h0.1
		c0.2-0.1,0.3-0.3,0.5-0.4c0,0,0.1-0.1,0.1-0.1C257.7,259.4,257,258.8,256.2,258.1L256.2,258.1z M233.6,247
		c-0.1-0.2-0.3-0.3-0.6-0.3c-0.1,0-0.3,0-0.4,0.1l0,0c-0.5,0.8-0.8,1.7-0.9,2.6c0.1,0.1,0.2,0.2,0.4,0.3h0.1c0,0,0.2-0.2,0.5-0.4
		c0.3-0.3,0.6-0.6,0.8-0.9C233.8,247.9,233.8,247.4,233.6,247z M242.1,279.8c-0.1-0.2-0.4-0.3-0.6-0.3c-0.2,0.5-0.7,0.7-1.1,0.5
		c-0.2-0.1-0.4-0.3-0.5-0.5c-0.2,0-0.5,0.1-0.6,0.3c-0.2,0.4-0.2,0.9,0.1,1.4c0.3,0.5,0.8,1,1.3,1.3h0.1c0.2-0.1,0.3-0.2,0.5-0.4
		c0.3-0.3,0.6-0.6,0.8-0.9C242.3,280.7,242.3,280.2,242.1,279.8L242.1,279.8z M259.1,279.8c-0.1-0.2-0.4-0.3-0.6-0.3
		c-0.4,0-0.7,0.2-0.8,0.6c-0.1-0.3-0.5-0.6-0.8-0.6c-0.2,0-0.5,0.1-0.6,0.3c-0.2,0.4-0.2,0.9,0.1,1.4c0.3,0.5,0.8,1,1.3,1.3h0.1
		c0.2-0.1,0.3-0.2,0.5-0.4c0.3-0.3,0.6-0.6,0.8-0.9C259.3,280.7,259.3,280.2,259.1,279.8L259.1,279.8z M276.1,279.8
		c-0.1-0.2-0.4-0.3-0.6-0.3c-0.4,0-0.7,0.2-0.8,0.6c-0.1-0.3-0.5-0.6-0.8-0.6c-0.2,0-0.5,0.1-0.6,0.3c-0.2,0.4-0.2,0.9,0.1,1.4
		c0.3,0.5,0.8,1,1.3,1.3h0.1c0.2-0.1,0.3-0.3,0.5-0.4c0.3-0.3,0.6-0.6,0.8-0.9C276.3,280.7,276.4,280.2,276.1,279.8L276.1,279.8z
		 M250.6,268.8c-0.1-0.2-0.4-0.3-0.6-0.3c-0.4,0-0.7,0.2-0.8,0.6c-0.1-0.3-0.5-0.6-0.8-0.6c-0.2,0-0.5,0.1-0.6,0.3
		c-0.2,0.4-0.2,0.9,0.1,1.4c0.3,0.5,0.8,1,1.3,1.3h0.1c0,0,0.3-0.2,0.5-0.4c0.3-0.3,0.6-0.6,0.8-0.9
		C250.8,269.7,250.8,269.2,250.6,268.8L250.6,268.8z M267.6,268.8c-0.1-0.2-0.4-0.3-0.6-0.3c-0.2,0.5-0.7,0.7-1.1,0.5
		c-0.2-0.1-0.4-0.3-0.5-0.5c-0.2,0-0.5,0.1-0.6,0.3c-0.2,0.4-0.2,0.9,0.1,1.4c0.3,0.5,0.8,1,1.3,1.3h0.1c0,0,0.2-0.2,0.5-0.4
		c0.3-0.3,0.6-0.6,0.8-0.9C267.8,269.7,267.8,269.2,267.6,268.8L267.6,268.8z M259.1,301.5c-0.1-0.2-0.4-0.3-0.6-0.3
		c-0.4,0-0.7,0.2-0.8,0.6c-0.1-0.3-0.5-0.6-0.8-0.6c-0.2,0-0.5,0.1-0.6,0.3c-0.1,0.2-0.2,0.4-0.1,0.6l3-0.5
		C259.1,301.6,259.1,301.6,259.1,301.5L259.1,301.5z M250.6,290.6c-0.1-0.2-0.4-0.4-0.6-0.4c-0.4,0-0.7,0.2-0.8,0.6
		c-0.1-0.3-0.5-0.6-0.8-0.6c-0.2,0-0.5,0.1-0.6,0.4c-0.2,0.4-0.2,0.9,0.1,1.4c0.3,0.5,0.8,1,1.3,1.3h0.1c0.2-0.1,0.4-0.3,0.5-0.4
		c0.3-0.2,0.6-0.6,0.8-0.9C250.8,291.5,250.8,291,250.6,290.6L250.6,290.6z M267.6,290.6c-0.1-0.2-0.4-0.3-0.6-0.4
		c-0.2,0.5-0.6,0.7-1.1,0.5c-0.3-0.1-0.5-0.3-0.5-0.5c-0.2,0-0.5,0.1-0.6,0.4c-0.2,0.4-0.2,0.9,0.1,1.4c0.3,0.5,0.8,0.9,1.3,1.3h0.1
		c0.2-0.1,0.3-0.3,0.5-0.4c0.3-0.3,0.6-0.6,0.8-0.9C267.8,291.5,267.8,291,267.6,290.6L267.6,290.6z M284.6,290.6
		c-0.1-0.2-0.4-0.4-0.6-0.4c-0.4,0-0.7,0.2-0.8,0.6c-0.1-0.3-0.5-0.6-0.8-0.6c-0.2,0-0.5,0.1-0.6,0.4c-0.2,0.4-0.2,0.9,0.1,1.4
		c0.3,0.5,0.8,1,1.3,1.3h0.1c0.2-0.1,0.3-0.3,0.5-0.4c0.3-0.2,0.6-0.6,0.8-0.9C284.8,291.6,284.8,291,284.6,290.6L284.6,290.6z"/>
	<path id="elf65xng5hleb" class="st4" d="M245.9,296.6c6.9-1.9,25.9-6.3,38.7-7.6c0.1,0,0.1,0.3,0.1,0.3
		c-10.4,2.7-31.6,6.5-38.6,7.8C245.8,297,245.7,296.6,245.9,296.6z"/>
	<g id="eluqadhrrjwsj">
		<path class="st10" d="M285.3,296.9l-39.7,7.1c0,0-11.4-32.5-13.7-50.5c-0.8-6.5,1.3-9,4.9-8.5L285.3,296.9z"/>
	</g>
	<path id="elkwfv3d10g8" class="st8" d="M270.9,371.7H154.7c0,0,10.6-81.1,48-123.7c10.1-11.5,28.4-8.1,37.1-0.3
		c3.1,3,5.9,6.2,8.4,9.6c7.9,10.1,20.7,34.4,21.9,41c2,10.9-7.6,22.6-7.6,22.6L270.9,371.7z"/>
	<path id="el0vjvrza84ykf" class="st1" d="M208,259.3c-0.2,0.3-0.5,0.6-0.8,0.9c-0.2,0.1-0.3,0.3-0.5,0.4h-0.1
		c-0.5-0.3-0.9-0.8-1.3-1.3c-0.3-0.4-0.3-0.9-0.1-1.4c0.1-0.2,0.4-0.3,0.6-0.3c0.4,0,0.7,0.2,0.8,0.6c0.1-0.3,0.5-0.6,0.8-0.6
		c0.2,0,0.5,0.1,0.6,0.3C208.3,258.4,208.3,258.9,208,259.3z M225.1,257.9c-0.1-0.2-0.4-0.3-0.6-0.3c-0.4,0-0.7,0.2-0.8,0.6
		c-0.1-0.3-0.5-0.6-0.8-0.6c-0.2,0-0.5,0.1-0.6,0.3c-0.2,0.4-0.2,0.9,0.1,1.4c0.3,0.5,0.8,1,1.3,1.3h0.1c0.2-0.1,0.3-0.3,0.5-0.4
		c0.3-0.3,0.6-0.6,0.8-0.9C225.3,258.9,225.3,258.4,225.1,257.9L225.1,257.9z M242.1,257.9c-0.1-0.2-0.4-0.3-0.6-0.3
		c-0.2,0.5-0.7,0.7-1.1,0.5c-0.2-0.1-0.4-0.3-0.5-0.5c-0.2,0-0.5,0.1-0.6,0.3c-0.2,0.4-0.2,0.9,0.1,1.4c0.3,0.5,0.8,1,1.3,1.3h0.1
		c0.2-0.1,0.3-0.3,0.5-0.4c0.3-0.3,0.6-0.6,0.8-0.9C242.3,258.9,242.3,258.4,242.1,257.9L242.1,257.9z M216.6,247
		c-0.1-0.2-0.4-0.3-0.6-0.3c-0.4,0-0.7,0.2-0.8,0.6c-0.2-0.3-0.5-0.6-0.8-0.6c-0.2,0-0.5,0.1-0.6,0.3c-0.2,0.4-0.2,0.9,0.1,1.4
		c0.3,0.5,0.8,0.9,1.3,1.3h0.1c0,0,0.2-0.2,0.5-0.4c0.3-0.2,0.6-0.6,0.8-0.9C216.8,248,216.8,247.4,216.6,247z M233.6,247
		c-0.1-0.2-0.4-0.3-0.6-0.3c-0.4,0-0.7,0.3-0.8,0.6c-0.1-0.3-0.5-0.6-0.8-0.6c-0.2,0-0.5,0.1-0.6,0.3c-0.2,0.4-0.2,1,0.1,1.4
		c0.3,0.5,0.8,0.9,1.3,1.3h0.1c0.2-0.1,0.3-0.3,0.5-0.4c0.3-0.3,0.6-0.6,0.8-0.9C233.8,248,233.8,247.4,233.6,247L233.6,247z
		 M191.1,279.8c-0.1-0.2-0.4-0.3-0.6-0.3c-0.4,0-0.7,0.2-0.8,0.6c-0.1-0.3-0.5-0.6-0.8-0.6c-0.2,0-0.5,0.1-0.6,0.3
		c-0.2,0.4-0.2,0.9,0.1,1.4c0.3,0.5,0.8,1,1.3,1.3h0.1c0.2-0.1,0.3-0.3,0.5-0.4c0.3-0.3,0.6-0.6,0.8-0.9
		C191.3,280.7,191.3,280.2,191.1,279.8L191.1,279.8z M208.1,279.8c-0.1-0.2-0.4-0.3-0.6-0.3c-0.4,0-0.7,0.2-0.8,0.6
		c-0.1-0.3-0.5-0.6-0.8-0.6c-0.2,0-0.5,0.1-0.6,0.3c-0.2,0.4-0.2,0.9,0.1,1.4c0.3,0.5,0.8,1,1.3,1.3h0.1c0.2-0.1,0.3-0.2,0.5-0.4
		c0.3-0.3,0.6-0.6,0.8-0.9C208.3,280.7,208.3,280.2,208.1,279.8L208.1,279.8z M225.1,279.8c-0.1-0.2-0.4-0.3-0.6-0.3
		c-0.4,0-0.7,0.2-0.8,0.6c-0.1-0.3-0.5-0.6-0.8-0.6c-0.2,0-0.5,0.1-0.6,0.3c-0.2,0.4-0.2,0.9,0.1,1.4c0.3,0.5,0.8,1,1.3,1.3h0.1
		c0.2-0.1,0.4-0.2,0.5-0.4c0.3-0.3,0.6-0.6,0.8-0.9C225.3,280.7,225.3,280.2,225.1,279.8L225.1,279.8z M242.1,279.8
		c-0.1-0.2-0.4-0.3-0.6-0.3c-0.2,0.5-0.7,0.7-1.1,0.5c-0.2-0.1-0.4-0.3-0.5-0.5c-0.2,0-0.5,0.1-0.6,0.3c-0.2,0.4-0.2,0.9,0.1,1.4
		c0.3,0.5,0.8,1,1.3,1.3h0.1c0.2-0.1,0.3-0.2,0.5-0.4c0.3-0.3,0.6-0.6,0.8-0.9C242.3,280.7,242.3,280.2,242.1,279.8L242.1,279.8z
		 M259.1,279.8c-0.1-0.2-0.4-0.3-0.6-0.3c-0.4,0-0.7,0.2-0.8,0.6c-0.1-0.3-0.5-0.6-0.8-0.6c-0.2,0-0.5,0.1-0.6,0.3
		c-0.2,0.4-0.2,0.9,0.1,1.4c0.3,0.5,0.8,1,1.3,1.3h0.1c0.2-0.1,0.3-0.2,0.5-0.4c0.3-0.3,0.6-0.6,0.8-0.9
		C259.3,280.7,259.3,280.2,259.1,279.8L259.1,279.8z M199.5,268.8c-0.1-0.2-0.4-0.3-0.6-0.3c-0.4,0-0.7,0.2-0.8,0.6
		c-0.1-0.3-0.5-0.6-0.8-0.6c-0.2,0-0.5,0.1-0.6,0.3c-0.2,0.4-0.2,0.9,0.1,1.4c0.3,0.5,0.8,1,1.3,1.3h0.1c0,0,0.2-0.2,0.5-0.4
		c0.3-0.3,0.6-0.6,0.8-0.9C199.7,269.7,199.8,269.2,199.5,268.8L199.5,268.8z M216.5,268.8c-0.1-0.2-0.4-0.3-0.6-0.3
		c-0.4,0-0.7,0.2-0.8,0.6c-0.1-0.3-0.5-0.6-0.8-0.6c-0.2,0-0.5,0.1-0.6,0.3c-0.2,0.4-0.2,0.9,0.1,1.4c0.3,0.5,0.8,1,1.3,1.3h0.1
		c0,0,0.2-0.2,0.5-0.4c0.3-0.3,0.6-0.6,0.8-0.9C216.7,269.7,216.8,269.2,216.5,268.8L216.5,268.8z M233.5,268.8
		c-0.1-0.2-0.4-0.3-0.6-0.3c-0.4,0-0.7,0.2-0.8,0.6c-0.1-0.3-0.5-0.6-0.8-0.6c-0.2,0-0.5,0.1-0.6,0.3c-0.2,0.4-0.2,0.9,0.1,1.4
		c0.3,0.5,0.8,1,1.3,1.3h0.1c0,0,0.2-0.2,0.5-0.4c0.3-0.3,0.6-0.6,0.8-0.9c0.3-0.4,0.4-0.9,0.2-1.3L233.5,268.8z M250.5,268.8
		c-0.1-0.2-0.4-0.3-0.6-0.3c-0.4,0-0.7,0.2-0.8,0.6c-0.1-0.3-0.5-0.6-0.8-0.6c-0.2,0-0.5,0.1-0.6,0.3c-0.2,0.4-0.2,0.9,0.1,1.4
		c0.3,0.5,0.8,1,1.3,1.3h0.1c0,0,0.3-0.2,0.5-0.4c0.3-0.3,0.6-0.6,0.8-0.9c0.3-0.4,0.4-0.9,0.2-1.3L250.5,268.8z M173.9,301.5
		c-0.1-0.2-0.3-0.3-0.6-0.3c-0.4,0-0.7,0.2-0.8,0.6c0,0,0-0.1,0-0.1c-0.3,0.6-0.5,1.3-0.7,1.9l0,0c0.2,0.2,0.5,0.4,0.7,0.6h0.1
		c0,0,0.2-0.2,0.5-0.4c0.3-0.3,0.6-0.6,0.8-0.9c0.3-0.4,0.3-0.9,0.2-1.3L173.9,301.5z M190.9,301.5c-0.1-0.2-0.4-0.3-0.6-0.3
		c-0.4,0-0.7,0.2-0.8,0.6c-0.2-0.3-0.5-0.6-0.8-0.6c-0.2,0-0.5,0.1-0.6,0.3c-0.2,0.4-0.2,0.9,0.1,1.4c0.3,0.5,0.8,1,1.3,1.3h0.1
		c0.2-0.1,0.3-0.3,0.5-0.4c0.3-0.2,0.6-0.6,0.8-0.9c0.3-0.4,0.4-0.9,0.2-1.3L190.9,301.5z M207.9,301.5c-0.1-0.2-0.4-0.3-0.6-0.3
		c-0.4,0-0.7,0.3-0.8,0.6c-0.1-0.3-0.5-0.6-0.8-0.6c-0.2,0-0.5,0.1-0.6,0.3c-0.2,0.4-0.2,1,0.1,1.4c0.3,0.5,0.8,1,1.3,1.3h0.1
		c0.2-0.1,0.3-0.3,0.5-0.4c0.3-0.3,0.6-0.6,0.8-0.9c0.3-0.4,0.4-0.9,0.3-1.3L207.9,301.5z M224.9,301.5c-0.1-0.2-0.4-0.3-0.6-0.3
		c-0.4,0-0.7,0.2-0.8,0.6c-0.2-0.3-0.5-0.6-0.8-0.6c-0.2,0-0.5,0.1-0.6,0.3c-0.2,0.4-0.2,0.9,0.1,1.4c0.3,0.5,0.8,1,1.3,1.3h0.1
		c0.2-0.1,0.4-0.3,0.5-0.4c0.3-0.2,0.6-0.6,0.8-0.9c0.3-0.4,0.4-0.9,0.3-1.3L224.9,301.5z M241.9,301.5c-0.1-0.2-0.4-0.3-0.6-0.3
		c-0.2,0.5-0.7,0.7-1.1,0.5c-0.2-0.1-0.4-0.3-0.5-0.5c-0.2,0-0.5,0.1-0.6,0.3c-0.2,0.4-0.2,1,0.1,1.4c0.3,0.5,0.8,1,1.3,1.3h0.1
		c0.2-0.1,0.3-0.3,0.5-0.4c0.3-0.3,0.6-0.6,0.8-0.9c0.3-0.4,0.4-0.9,0.3-1.3L241.9,301.5z M258.9,301.5c-0.1-0.2-0.4-0.3-0.6-0.3
		c-0.4,0-0.7,0.3-0.8,0.6c-0.1-0.3-0.5-0.6-0.8-0.6c-0.2,0-0.5,0.1-0.6,0.3c-0.2,0.4-0.2,1,0.1,1.4c0.3,0.5,0.8,1,1.3,1.3h0.1
		c0.2-0.1,0.3-0.3,0.5-0.4c0.3-0.3,0.6-0.6,0.8-0.9c0.3-0.4,0.4-0.9,0.3-1.3L258.9,301.5z M182.6,290.6c-0.1-0.2-0.3-0.4-0.6-0.4
		c-0.2,0.5-0.6,0.7-1.1,0.5c-0.3-0.1-0.5-0.3-0.5-0.5c-0.2,0-0.5,0.1-0.6,0.4c-0.2,0.4-0.2,0.9,0.1,1.4c0.3,0.5,0.8,0.9,1.3,1.3h0.1
		c0.2-0.1,0.3-0.3,0.5-0.4c0.3-0.3,0.6-0.6,0.8-0.9C182.7,291.5,182.8,291,182.6,290.6z M199.6,290.6c-0.1-0.2-0.4-0.3-0.6-0.4
		c-0.4,0-0.7,0.2-0.8,0.6c-0.1-0.3-0.5-0.6-0.8-0.6c-0.2,0-0.5,0.1-0.6,0.4c-0.2,0.4-0.2,0.9,0.1,1.4c0.3,0.5,0.8,1,1.3,1.3h0.1
		c0.2-0.1,0.3-0.3,0.5-0.4c0.3-0.2,0.6-0.6,0.8-0.9C199.7,291.5,199.8,291,199.6,290.6L199.6,290.6z M216.6,290.6
		c-0.1-0.2-0.4-0.4-0.6-0.4c-0.4,0-0.7,0.2-0.8,0.6c-0.1-0.3-0.5-0.6-0.8-0.6c-0.2,0-0.5,0.1-0.6,0.4c-0.2,0.4-0.2,0.9,0.1,1.4
		c0.3,0.5,0.8,0.9,1.3,1.3h0.1c0.2-0.1,0.3-0.3,0.5-0.4c0.3-0.2,0.6-0.6,0.8-0.9C216.7,291.6,216.8,291,216.6,290.6L216.6,290.6z
		 M233.6,290.6c-0.1-0.2-0.4-0.3-0.6-0.4c-0.4,0-0.7,0.3-0.8,0.6c-0.1-0.3-0.5-0.6-0.8-0.6c-0.2,0-0.5,0.1-0.6,0.4
		c-0.2,0.4-0.2,0.9,0.1,1.4c0.3,0.5,0.8,1,1.3,1.3h0.1c0.2-0.1,0.3-0.3,0.5-0.4c0.3-0.3,0.6-0.6,0.8-0.9
		C233.8,291.6,233.8,291,233.6,290.6L233.6,290.6z M250.6,290.6c-0.1-0.2-0.4-0.4-0.6-0.4c-0.4,0-0.7,0.2-0.8,0.6
		c-0.1-0.3-0.5-0.6-0.8-0.6c-0.2,0-0.5,0.1-0.6,0.4c-0.2,0.4-0.2,0.9,0.1,1.4c0.3,0.5,0.8,1,1.3,1.3h0.1c0.2-0.1,0.4-0.3,0.5-0.4
		c0.3-0.2,0.6-0.6,0.8-0.9C250.8,291.6,250.8,291,250.6,290.6L250.6,290.6z M267.2,290.3c-0.1,0-0.1,0-0.2,0c-0.4,0-0.7,0.3-0.8,0.6
		c-0.1-0.3-0.5-0.6-0.8-0.6c-0.2,0-0.5,0.1-0.6,0.3c-0.2,0.4-0.2,0.9,0.1,1.4c0.3,0.5,0.8,1,1.3,1.3h0.1c0,0,0.2-0.2,0.5-0.4
		c0.3-0.3,0.6-0.6,0.8-0.9c0.1-0.2,0.1-0.3,0.2-0.5l0,0L267.2,290.3z M174,323.4c-0.1-0.2-0.4-0.3-0.6-0.3c-0.4,0-0.7,0.2-0.8,0.6
		c-0.1-0.3-0.5-0.6-0.8-0.6c-0.2,0-0.5,0.1-0.6,0.3c-0.2,0.4-0.2,0.9,0.1,1.4c0.3,0.5,0.8,1,1.3,1.3h0.1c0.2-0.1,0.3-0.3,0.5-0.4
		c0.3-0.3,0.6-0.6,0.8-0.9C174.2,324.3,174.3,323.8,174,323.4L174,323.4z M191,323.4c-0.1-0.2-0.4-0.3-0.6-0.3
		c-0.4,0-0.7,0.2-0.8,0.6c-0.1-0.3-0.5-0.6-0.8-0.6c-0.2,0-0.5,0.1-0.6,0.3c-0.2,0.4-0.2,0.9,0.1,1.4c0.3,0.5,0.8,1,1.3,1.3h0.1
		c0,0,0.2-0.2,0.5-0.4c0.3-0.3,0.6-0.6,0.8-0.9C191.2,324.3,191.3,323.8,191,323.4L191,323.4z M208,323.4c-0.1-0.2-0.4-0.3-0.6-0.3
		c-0.4,0-0.7,0.2-0.8,0.6c-0.1-0.3-0.5-0.6-0.8-0.6c-0.2,0-0.5,0.1-0.6,0.3c-0.2,0.4-0.2,0.9,0.1,1.4c0.3,0.5,0.8,1,1.3,1.3h0.1
		c0.2-0.1,0.3-0.3,0.5-0.4c0.3-0.3,0.6-0.6,0.8-0.9C208.2,324.3,208.3,323.8,208,323.4L208,323.4z M225,323.4
		c-0.1-0.2-0.4-0.3-0.6-0.3c-0.4,0-0.7,0.2-0.8,0.6c-0.1-0.3-0.5-0.6-0.8-0.6c-0.2,0-0.5,0.1-0.6,0.3c-0.2,0.4-0.2,0.9,0.1,1.4
		c0.3,0.5,0.8,1,1.3,1.3h0.1c0.2-0.1,0.3-0.3,0.5-0.4c0.3-0.3,0.6-0.6,0.8-0.9C225.2,324.3,225.3,323.8,225,323.4L225,323.4z
		 M242,323.4c-0.1-0.2-0.4-0.3-0.6-0.3c-0.2,0.5-0.7,0.7-1.1,0.5c-0.2-0.1-0.4-0.3-0.5-0.5c-0.2,0-0.5,0.1-0.6,0.3
		c-0.2,0.4-0.2,0.9,0.1,1.4c0.3,0.5,0.8,1,1.3,1.3h0.1c0.2-0.1,0.3-0.3,0.5-0.4c0.3-0.3,0.6-0.6,0.8-0.9c0.3-0.4,0.4-0.9,0.2-1.4
		H242z M259,323.4c-0.1-0.2-0.4-0.3-0.6-0.3c-0.4,0-0.7,0.2-0.8,0.6c-0.1-0.3-0.5-0.6-0.8-0.6c-0.2,0-0.5,0.1-0.6,0.3
		c-0.2,0.4-0.2,0.9,0.1,1.4c0.3,0.5,0.8,1,1.3,1.3h0.1c0.2-0.1,0.3-0.3,0.5-0.4c0.3-0.3,0.6-0.6,0.8-0.9c0.3-0.4,0.4-0.9,0.2-1.4
		H259z M182.4,312.4c-0.1-0.2-0.3-0.3-0.6-0.3c-0.2,0.5-0.7,0.7-1.1,0.5c-0.2-0.1-0.4-0.3-0.5-0.5c-0.2,0-0.5,0.1-0.6,0.3
		c-0.2,0.4-0.2,0.9,0.1,1.4c0.3,0.5,0.8,1,1.3,1.3h0.1c0.2-0.1,0.3-0.3,0.5-0.4c0.3-0.3,0.6-0.6,0.8-0.9c0.3-0.4,0.4-0.9,0.2-1.4
		L182.4,312.4z M199.4,312.4c-0.1-0.2-0.4-0.3-0.6-0.3c-0.4,0-0.7,0.2-0.8,0.6c-0.1-0.3-0.5-0.6-0.8-0.6c-0.2,0-0.5,0.1-0.6,0.3
		c-0.2,0.4-0.2,0.9,0.1,1.4c0.3,0.5,0.8,1,1.3,1.3h0.1c0.2-0.1,0.3-0.3,0.5-0.4c0.3-0.2,0.6-0.6,0.8-0.9c0.3-0.4,0.4-0.9,0.2-1.4
		L199.4,312.4z M216.4,312.4c-0.1-0.2-0.4-0.3-0.6-0.3c-0.4,0-0.7,0.2-0.8,0.6c-0.1-0.3-0.5-0.6-0.8-0.6c-0.2,0-0.5,0.1-0.6,0.3
		c-0.2,0.4-0.2,0.9,0.1,1.4c0.3,0.5,0.8,1,1.3,1.3h0.1c0,0,0.2-0.2,0.5-0.4c0.3-0.2,0.6-0.6,0.8-0.9c0.3-0.4,0.4-0.9,0.3-1.4
		L216.4,312.4z M233.4,312.4c-0.1-0.2-0.4-0.3-0.6-0.3c-0.4,0-0.7,0.2-0.8,0.6c-0.1-0.3-0.5-0.6-0.8-0.6c-0.2,0-0.5,0.1-0.6,0.3
		c-0.2,0.4-0.2,0.9,0.1,1.4c0.3,0.5,0.8,1,1.3,1.3h0.1c0.2-0.1,0.3-0.3,0.5-0.4c0.3-0.3,0.6-0.6,0.8-0.9c0.3-0.4,0.4-0.9,0.3-1.4
		L233.4,312.4z M250.4,312.4c-0.1-0.2-0.4-0.3-0.6-0.3c-0.4,0-0.7,0.2-0.8,0.6c-0.1-0.3-0.5-0.6-0.8-0.6c-0.2,0-0.5,0.1-0.6,0.3
		c-0.2,0.4-0.2,0.9,0.1,1.4c0.3,0.5,0.8,1,1.3,1.3h0.1c0.2-0.1,0.3-0.3,0.5-0.4c0.3-0.2,0.6-0.6,0.8-0.9c0.3-0.4,0.4-0.9,0.3-1.4
		L250.4,312.4z M266.9,312.1c-0.4,0-0.7,0.2-0.8,0.6c-0.1-0.3-0.5-0.6-0.8-0.6c-0.2,0-0.5,0.1-0.6,0.3c-0.2,0.4-0.2,0.9,0.1,1.4
		c0.3,0.5,0.8,1,1.3,1.3h0.1c0.5-0.8,0.9-1.7,1.3-2.7c-0.1-0.2-0.2-0.3-0.4-0.3L266.9,312.1z M173.9,345.2c-0.1-0.2-0.4-0.3-0.6-0.4
		c-0.4,0-0.7,0.3-0.8,0.6c-0.1-0.3-0.5-0.6-0.8-0.6c-0.2,0-0.5,0.1-0.6,0.4c-0.2,0.4-0.2,0.9,0.1,1.4c0.3,0.5,0.8,1,1.3,1.3h0.1
		c0.2-0.1,0.3-0.3,0.5-0.4c0.3-0.3,0.6-0.6,0.8-0.9c0.3-0.4,0.4-0.9,0.3-1.4H173.9z M190.9,345.2c-0.1-0.2-0.4-0.4-0.6-0.4
		c-0.4,0-0.7,0.2-0.8,0.6c-0.1-0.3-0.5-0.6-0.8-0.6c-0.2,0-0.5,0.1-0.6,0.4c-0.2,0.4-0.2,0.9,0.1,1.4c0.3,0.5,0.8,1,1.3,1.3h0.1
		c0.2-0.1,0.3-0.3,0.5-0.4c0.3-0.2,0.6-0.6,0.8-0.9c0.3-0.4,0.5-0.9,0.3-1.4H190.9z M207.9,345.2c-0.1-0.2-0.4-0.3-0.6-0.4
		c-0.4,0-0.7,0.2-0.8,0.6c-0.1-0.3-0.5-0.6-0.8-0.6c-0.2,0-0.5,0.1-0.6,0.4c-0.2,0.4-0.2,0.9,0.1,1.4c0.3,0.5,0.8,1,1.3,1.3h0.1
		c0.2-0.1,0.3-0.3,0.5-0.4c0.3-0.3,0.6-0.6,0.8-0.9c0.3-0.4,0.5-0.9,0.3-1.4H207.9z M224.9,345.2c-0.1-0.2-0.4-0.4-0.6-0.4
		c-0.4,0-0.7,0.2-0.8,0.6c-0.1-0.3-0.5-0.6-0.8-0.6c-0.2,0-0.5,0.1-0.6,0.4c-0.2,0.4-0.2,0.9,0.1,1.4c0.3,0.5,0.8,1,1.3,1.3h0.1
		c0.2-0.1,0.4-0.3,0.5-0.4c0.3-0.2,0.6-0.6,0.8-0.9c0.3-0.4,0.5-0.9,0.3-1.4H224.9z M241.9,345.2c-0.1-0.2-0.4-0.4-0.6-0.4
		c-0.2,0.5-0.6,0.7-1.1,0.5c-0.3-0.1-0.5-0.3-0.5-0.5c-0.2,0-0.5,0.1-0.6,0.4c-0.2,0.4-0.2,0.9,0.1,1.4c0.3,0.5,0.8,1,1.3,1.3h0.1
		c0.2-0.1,0.3-0.3,0.5-0.4c0.3-0.3,0.6-0.6,0.8-0.9c0.3-0.4,0.5-0.9,0.3-1.4H241.9z M258.9,345.2c-0.1-0.2-0.4-0.3-0.6-0.4
		c-0.4,0-0.7,0.3-0.8,0.6c-0.1-0.3-0.5-0.6-0.8-0.6c-0.2,0-0.5,0.1-0.6,0.4c-0.2,0.4-0.2,0.9,0.1,1.4c0.3,0.5,0.8,1,1.3,1.3h0.1
		c0.2-0.1,0.3-0.3,0.5-0.4c0.3-0.3,0.6-0.6,0.8-0.9c0.4-0.4,0.5-0.9,0.4-1.4H258.9z M165.3,334.2c-0.1-0.2-0.4-0.3-0.6-0.3
		c-0.4,0-0.7,0.2-0.8,0.6c-0.1-0.3-0.5-0.6-0.8-0.6c-0.2,0-0.5,0.1-0.6,0.3c-0.2,0.4-0.2,0.9,0.1,1.4c0.3,0.5,0.8,1,1.3,1.3h0.1
		c0,0,0.3-0.2,0.5-0.4c0.3-0.3,0.6-0.6,0.8-0.9c0.4-0.4,0.5-0.9,0.4-1.3L165.3,334.2z M182.3,334.2c-0.1-0.2-0.3-0.3-0.6-0.3
		c-0.2,0.5-0.7,0.7-1.1,0.5c-0.2-0.1-0.4-0.3-0.5-0.5c-0.2,0-0.5,0.1-0.6,0.3c-0.2,0.4-0.2,0.9,0.1,1.4c0.3,0.5,0.8,1,1.3,1.3h0.1
		c0,0,0.2-0.2,0.5-0.4c0.3-0.3,0.6-0.6,0.8-0.9c0.4-0.4,0.5-0.9,0.4-1.3L182.3,334.2z M199.3,334.2c-0.1-0.2-0.4-0.3-0.6-0.3
		c-0.4,0-0.7,0.2-0.8,0.6c-0.1-0.3-0.5-0.6-0.8-0.6c-0.2,0-0.5,0.1-0.6,0.3c-0.2,0.4-0.2,0.9,0.1,1.4c0.3,0.5,0.8,1,1.3,1.3h0.1
		c0,0,0.2-0.2,0.5-0.4c0.3-0.3,0.6-0.6,0.8-0.9c0.4-0.3,0.5-0.9,0.4-1.3L199.3,334.2z M216.3,334.2c-0.1-0.2-0.4-0.3-0.6-0.3
		c-0.4,0-0.7,0.2-0.8,0.6c-0.1-0.3-0.5-0.6-0.8-0.6c-0.2,0-0.5,0.1-0.6,0.3c-0.2,0.4-0.2,0.9,0.1,1.4c0.3,0.5,0.8,1,1.3,1.3h0.1
		c0,0,0.2-0.2,0.5-0.4c0.3-0.3,0.6-0.6,0.8-0.9c0.4-0.3,0.5-0.9,0.4-1.3L216.3,334.2z M233.3,334.2c-0.1-0.2-0.4-0.3-0.6-0.3
		c-0.4,0-0.7,0.2-0.8,0.6c-0.1-0.3-0.5-0.6-0.8-0.6c-0.2,0-0.5,0.1-0.6,0.3c-0.2,0.4-0.2,0.9,0.1,1.4c0.3,0.5,0.8,1,1.3,1.3h0.1
		c0,0,0.2-0.2,0.5-0.4c0.3-0.3,0.6-0.6,0.8-0.9c0.4-0.3,0.5-0.9,0.4-1.3L233.3,334.2z M250.3,334.2c-0.1-0.2-0.4-0.3-0.6-0.3
		c-0.4,0-0.7,0.2-0.8,0.6c-0.1-0.3-0.5-0.6-0.8-0.6c-0.2,0-0.5,0.1-0.6,0.3c-0.2,0.4-0.2,0.9,0.1,1.4c0.3,0.5,0.8,1,1.3,1.3h0.1
		c0,0,0.3-0.2,0.5-0.4c0.3-0.3,0.6-0.6,0.8-0.9c0.4-0.3,0.5-0.9,0.4-1.3L250.3,334.2z M264.4,334.4c-0.1,0.4-0.1,0.9,0.1,1.2
		c0,0.1,0.1,0.1,0.1,0.2L264.4,334.4z M157.1,367c-0.1-0.2-0.4-0.4-0.6-0.4c-0.4,0-0.7,0.2-0.8,0.6c-0.1-0.1-0.1-0.2-0.2-0.3
		c-0.2,0.9-0.3,1.7-0.4,2.3c0.2,0.1,0.3,0.3,0.5,0.4h0.1l0.5-0.4c0.3-0.3,0.6-0.6,0.8-0.9C157.2,367.9,157.3,367.4,157.1,367z
		 M174.1,367c-0.1-0.2-0.4-0.3-0.6-0.3c-0.4,0-0.7,0.3-0.8,0.6c-0.1-0.3-0.5-0.6-0.8-0.6c-0.2,0-0.5,0.1-0.6,0.3
		c-0.2,0.4-0.2,1,0.1,1.4c0.3,0.5,0.8,0.9,1.3,1.3h0.1c0.2-0.1,0.3-0.3,0.5-0.4c0.3-0.3,0.6-0.6,0.8-0.9
		C174.2,368,174.3,367.4,174.1,367L174.1,367z M191.1,367c-0.1-0.2-0.4-0.3-0.6-0.3c-0.4,0-0.7,0.2-0.8,0.6
		c-0.2-0.3-0.5-0.6-0.8-0.6c-0.2,0-0.5,0.1-0.6,0.3c-0.2,0.4-0.2,0.9,0.1,1.4c0.3,0.5,0.8,0.9,1.3,1.3h0.1c0,0,0.2-0.2,0.5-0.4
		c0.3-0.2,0.6-0.6,0.8-0.9C191.2,368,191.3,367.4,191.1,367L191.1,367z M208.1,367c-0.1-0.2-0.4-0.3-0.6-0.3c-0.4,0-0.7,0.3-0.8,0.6
		c-0.1-0.3-0.5-0.6-0.8-0.6c-0.2,0-0.5,0.1-0.6,0.3c-0.2,0.4-0.2,1,0.1,1.4c0.3,0.5,0.8,0.9,1.3,1.3h0.1c0.2-0.1,0.3-0.3,0.5-0.4
		c0.3-0.3,0.6-0.6,0.8-0.9C208.2,368,208.3,367.4,208.1,367L208.1,367z M225.1,367c-0.1-0.2-0.4-0.3-0.6-0.3c-0.4,0-0.7,0.2-0.8,0.6
		c-0.2-0.3-0.5-0.6-0.8-0.6c-0.2,0-0.5,0.1-0.6,0.3c-0.2,0.4-0.2,0.9,0.1,1.4c0.3,0.5,0.8,0.9,1.3,1.3h0.1c0.2-0.1,0.3-0.3,0.5-0.4
		c0.3-0.2,0.6-0.6,0.8-0.9C225.2,368,225.3,367.4,225.1,367L225.1,367z M242.1,367c-0.1-0.2-0.4-0.3-0.6-0.3
		c-0.2,0.5-0.7,0.7-1.1,0.5c-0.2-0.1-0.4-0.3-0.5-0.5c-0.2,0-0.5,0.1-0.6,0.3c-0.2,0.4-0.2,1,0.1,1.4c0.3,0.5,0.8,0.9,1.3,1.3h0.1
		c0.2-0.1,0.3-0.3,0.5-0.4c0.3-0.3,0.6-0.6,0.8-0.9C242.2,368,242.3,367.4,242.1,367L242.1,367z M259,367c-0.1-0.2-0.4-0.3-0.6-0.3
		c-0.4,0-0.7,0.3-0.8,0.6c-0.1-0.3-0.5-0.6-0.8-0.6c-0.2,0-0.5,0.1-0.6,0.3c-0.2,0.4-0.2,1,0.1,1.4c0.3,0.5,0.8,0.9,1.3,1.3h0.1
		c0.2-0.1,0.3-0.3,0.5-0.4c0.3-0.3,0.6-0.6,0.8-0.9C259.2,368,259.3,367.5,259,367L259,367z M165.6,356c-0.1-0.2-0.4-0.3-0.6-0.3
		c-0.4,0-0.7,0.2-0.8,0.6c-0.2-0.3-0.5-0.6-0.8-0.6c-0.2,0-0.5,0.1-0.6,0.3c-0.2,0.4-0.2,0.9,0.1,1.4c0.3,0.5,0.8,1,1.3,1.3h0.1
		c0.2-0.1,0.4-0.3,0.5-0.4c0.3-0.2,0.6-0.6,0.8-0.9C165.7,357,165.8,356.4,165.6,356z M182.6,356c-0.1-0.2-0.3-0.3-0.6-0.3
		c-0.2,0.5-0.7,0.7-1.1,0.5c-0.2-0.1-0.4-0.3-0.5-0.5c-0.2,0-0.5,0.1-0.6,0.3c-0.2,0.4-0.2,1,0.1,1.4c0.3,0.5,0.8,0.9,1.3,1.3h0.1
		c0.2-0.1,0.3-0.3,0.5-0.4c0.3-0.3,0.6-0.6,0.8-0.9C182.7,357,182.8,356.4,182.6,356L182.6,356z M199.6,356
		c-0.1-0.2-0.4-0.3-0.6-0.3c-0.4,0-0.7,0.2-0.8,0.6c-0.2-0.3-0.5-0.6-0.8-0.6c-0.2,0-0.5,0.1-0.6,0.3c-0.2,0.4-0.2,0.9,0.1,1.4
		c0.3,0.5,0.8,1,1.3,1.3h0.1c0.2-0.1,0.3-0.3,0.5-0.4c0.3-0.2,0.6-0.6,0.8-0.9C199.7,357,199.8,356.4,199.6,356L199.6,356z
		 M216.6,356c-0.1-0.2-0.4-0.3-0.6-0.3c-0.4,0-0.7,0.2-0.8,0.6c-0.2-0.3-0.5-0.6-0.8-0.6c-0.2,0-0.5,0.1-0.6,0.3
		c-0.2,0.4-0.2,0.9,0.1,1.4c0.3,0.5,0.8,0.9,1.3,1.3h0.1c0.2-0.1,0.3-0.3,0.5-0.4c0.3-0.2,0.6-0.6,0.8-0.9
		C216.7,357,216.8,356.4,216.6,356L216.6,356z M233.6,356c-0.1-0.2-0.4-0.3-0.6-0.3c-0.4,0-0.7,0.3-0.8,0.6
		c-0.1-0.3-0.5-0.6-0.8-0.6c-0.2,0-0.5,0.1-0.6,0.3c-0.2,0.4-0.2,1,0.1,1.4c0.3,0.5,0.8,1,1.3,1.3h0.1c0.2-0.1,0.3-0.3,0.5-0.4
		c0.3-0.3,0.6-0.6,0.8-0.9C233.7,357,233.8,356.4,233.6,356L233.6,356z M250.6,356c-0.1-0.2-0.4-0.3-0.6-0.3c-0.4,0-0.7,0.2-0.8,0.6
		c-0.2-0.3-0.5-0.6-0.8-0.6c-0.2,0-0.5,0.1-0.6,0.3c-0.2,0.4-0.2,0.9,0.1,1.4c0.3,0.5,0.8,1,1.3,1.3h0.1c0.2-0.1,0.4-0.3,0.5-0.4
		c0.3-0.2,0.6-0.6,0.8-0.9C250.8,357,250.8,356.5,250.6,356L250.6,356z M267.6,356c-0.1-0.2-0.4-0.3-0.6-0.3
		c-0.2,0.5-0.7,0.7-1.1,0.5c-0.2-0.1-0.4-0.3-0.5-0.5c-0.2,0-0.5,0.1-0.6,0.3c-0.2,0.4-0.2,1,0.1,1.4c0.3,0.5,0.8,0.9,1.3,1.3h0.1
		c0.2-0.1,0.3-0.3,0.5-0.4c0.3-0.3,0.6-0.6,0.8-0.9C267.8,357,267.8,356.5,267.6,356L267.6,356z"/>
	<path id="el5k1f57pyymm" class="st4" d="M271.3,297.6c-1.1-4.5-3.6-8.6-5.8-12.6c-2.3-4.2-4.7-8.4-7.2-12.5l-0.3-0.4
		c-0.4-1.3-1-2.6-1.5-3.9c-0.6-1.6-1.3-3.3-2-4.9c0,0-0.1,0-0.1,0c0.5,1.7,1,3.4,1.7,5.1l0.5,1.3c-0.8-1.4-1.7-2.7-2.6-4.1
		c-1.5-2.3-3-4.6-4.5-6.9c0-0.1-0.1,0-0.1,0c2.4,4.1,4.6,8.2,7,12.2s4.7,8.1,6.9,12.3c1.1,2,2.2,4.1,3.2,6.2c1,2,1.9,4,2.7,6.1
		c1.4,4,1.4,8.4,0.1,12.4c-1.4,4.6-4,8.7-6.4,12.9c-0.1,0.2,0.1,0.4,0.3,0.2C268.3,314.4,273.4,306.4,271.3,297.6z"/>
	<path id="elybk4thh6s7g" class="st9" d="M316.1,373c-7.5,10.3-27.4,12-77.2,20.9c-6.9,1.2-28.7-45.1-21.4-46.8
		c9.2-2.1,45.3-8.4,48-8.5C288.2,337.6,321.1,366,316.1,373z"/>
	<path id="el0xmfpq2w78lc" class="st9" d="M227.4,345.1c0,0-21.1,2.8-31.7,7.7c-14.2,6.6-23.8,18.1-27.5,23.2
		c-7.8,10.6-19.2,41.6-10.8,46.4c7.6,4.4,17.6-27.9,17.6-27.9s-15.7,31.2-5.6,34.8s19.6-34.5,19.6-34.5s-15.4,32.4-4.5,34.5
		c8.3,1.6,18.9-32.5,18.9-32.5s-13.1,28-4.6,29.9c9.4,2.1,21.1-28.6,21.1-28.6c22.4,1.4,33.6-7,40.9-14
		C262.6,382.5,227.4,345.1,227.4,345.1z"/>
	<path id="elvzwlzj00s6" class="st4" d="M179.8,383.4c-2,3.6-4,7.2-5.7,11s-3.2,7.6-4.5,11.5c-3.2,9.6-3.7,16-3.6,15.6
		c1.8-9.4,7.4-23,9.1-26.7s3.1-7.6,4.8-11.4C180,383.4,179.8,383.3,179.8,383.4z"/>
	<path id="el6cb42xx1f3c" class="st4" d="M193.5,389.1c-2.3,4.7-4.8,9.3-6.9,14.1s-3.7,9.5-5.5,14.4c-0.1,0.4,0.1,0.3,0.3,0
		c2-4.9,4.2-9.2,6.2-14s3.9-9.7,6.1-14.4C193.6,389.1,193.5,389.1,193.5,389.1z"/>
	<path id="elh3se7ock5lu" class="st4" d="M206.1,391.9c-3.9,7-6.6,14.7-9,22.4c-0.1,0.4,0.2,0.3,0.3-0.1c2.8-7.5,5-13.4,8.9-22.1
		C206.4,391.9,206.2,391.8,206.1,391.9z"/>
	<path id="elrt2ts2xfamc" class="st4" d="M287.4,344.2c-3.3-2.1-12.7-7-21.9-5.7c0,0-0.1,0-0.1,0.1c0,0,0,0.1,0.1,0.1
		c7.6,0,18.5,3.9,21.8,5.6C287.5,344.4,287.5,344.3,287.4,344.2z"/>
	<path id="el370hnh04nrt" class="st9" d="M218.4,242.5c0.5,1.9,10.1,14.2,18.9,13.5c2.9-0.2,2.4-15.9,2.4-15.9l0.2-1.2l3.2-16.3
		l-19.4-11.7l-2.8-1.5c0,0-0.6,4.5-1.2,10.2c0,0.3-0.1,0.5-0.1,0.8s-0.1,0.6-0.1,0.9c-0.1,0.8-0.2,1.7-0.3,2.6
		c-0.1,0.7-0.1,1.3-0.2,2s-0.1,1.4-0.2,2.1C218.3,232.7,218.2,237.6,218.4,242.5z"/>
	<path id="el8mizajc94ak" class="st4" d="M219.6,219.5c3.6,9.1,11,16.2,20.3,19.4l3.2-16.3l-19.4-11.7l-2.8-1.5
		C220.8,209.3,220.3,213.9,219.6,219.5z"/>
	<path id="el9d7isg7wjw4" class="st9" d="M267.2,194.7c4.7,28.8-12,34.9-18.2,35.9c-5.6,0.9-25,3.3-32.7-24.9s4.3-39.5,17.1-42.3
		S262.5,165.9,267.2,194.7z"/>
	<path id="el2nrth8szcq1" class="st4" d="M260.4,188.9c-0.7,0-1.3-0.1-2-0.2c-0.7,0-1.4-0.2-2-0.6c-0.3-0.3-0.4-0.9-0.1-1.3
		c0.6-0.7,1.5-1.1,2.5-0.9c0.9,0,1.8,0.4,2.5,1.1c0.4,0.5,0.4,1.2-0.1,1.6C260.9,188.8,260.7,188.9,260.4,188.9z"/>
	<path id="elesjrhirr1d" class="st4" d="M241.7,191.1c0.7-0.2,1.3-0.4,1.9-0.6c0.7-0.1,1.3-0.5,1.8-1c0.3-0.4,0.2-0.9-0.1-1.3
		c-0.7-0.6-1.7-0.7-2.6-0.3c-0.9,0.2-1.7,0.8-2.2,1.6c-0.3,0.5-0.1,1.2,0.5,1.5C241.2,191.1,241.4,191.2,241.7,191.1z"/>
	<path id="el8jcvxgutzwo" class="st4" d="M246.4,198c0-0.1-0.1,0.1-0.1,0.2c0.3,2,0.4,4.3-1.3,5.2c-0.1,0,0,0.1,0,0.1
		C247.1,202.9,247,199.8,246.4,198z"/>
	<path id="elqdz1zmldso" class="st4" d="M244.3,196.2c-3.2,0.2-2.6,6.6,0.4,6.4S247,196,244.3,196.2z"/>
	<path id="elozmgncjqkn8" class="st4" d="M243.1,196.6c-0.5,0.4-1,1.1-1.7,1.2s-1.4-0.5-2-1.1c-0.1-0.1-0.1,0-0.1,0.1
		c0.1,1.2,0.7,2.4,2,2.5s2-1.1,2.2-2.4C243.6,196.8,243.3,196.5,243.1,196.6z"/>
	<path id="elyai53rkeo2k" class="st4" d="M257.7,196.1c0-0.1,0.2,0.1,0.2,0.2c0.1,2,0.6,4.2,2.4,4.7c0,0,0.1,0.1,0,0.1
		C258.1,201,257.5,198,257.7,196.1z"/>
	<path id="el1i7zbbcdw97" class="st4" d="M259.3,193.9c3.2-0.5,4,5.9,1,6.3S256.6,194.3,259.3,193.9z"/>
	<path id="el9xrkpfmrobt" class="st4" d="M260.7,194.1c0.5,0.3,1.1,0.8,1.7,0.8s1.1-0.8,1.5-1.5c0-0.1,0.1,0,0.1,0.1
		c0.2,1.2,0,2.5-1.2,2.9s-2-0.6-2.4-1.8C260.3,194.4,260.5,194,260.7,194.1z"/>
	<path id="elfasgbxq8k5u" class="st4" d="M247,213.7c0.5,0.4,1,1.1,1.7,1.1c0.7,0,1.5-0.2,2.1-0.6c0,0,0.1,0,0.1,0c0,0,0,0,0,0.1
		c-0.5,0.8-1.5,1.3-2.5,1.2c-0.8-0.2-1.5-0.8-1.6-1.7C246.7,213.7,246.9,213.6,247,213.7z"/>
	<path id="elh4mjel5xq5q" class="st4" d="M255.3,205.2c0,0,0.7,2.9,0.9,4.3c-2.6,0.9-5.5,0.4-7.6-1.5c-0.1-0.1,0.1-0.3,0.2-0.2
		c1.9,1,4.1,1.4,6.3,1.1c0-0.4-1.4-5-1.2-5c1.1,0,2.2,0.1,3.3,0.4c-1.4-6.1-3.7-12-4.9-18.1c0-0.1,0-0.2,0.1-0.2
		c0.1,0,0.2,0,0.2,0.1c2.9,6,4.6,13,6.1,19.3C258.9,206.1,255.9,205.4,255.3,205.2z"/>
	<path id="eldn71a9baw4" class="st4" d="M254.3,209.6c-0.7,1.1-1.6,1.9-2.7,2.5c-0.6,0.3-1.3,0.4-2,0.3c-1.5-0.3-1.6-1.6-1.4-2.7
		c0.1-0.6,0.3-1.2,0.5-1.8C250.3,209.1,252.3,209.7,254.3,209.6z"/>
	<path id="elr0bynl2eymd" class="st11" d="M251.6,212.1c-0.6,0.3-1.3,0.4-2,0.3c-1.5-0.3-1.6-1.6-1.4-2.7
		C249.7,209.7,251.3,210.6,251.6,212.1z"/>
	<path id="elc8qimns7rdv" class="st4" d="M217.2,204.3c5.5,0.5,6.4-12.1,6.4-12.1s23.3-4.9,24.5-24c0,0,4.5,12,17,17
		c0,0-1.6-20.9-18.3-24.3c0,0-20.8-6.7-31.8,10.1S213.5,204,217.2,204.3z"/>
	<path id="elqntynay60ar" class="st4" d="M248.2,166.8c0.4,2.9,0.1,5.9-0.7,8.7c-0.8,2.9-2.2,5.6-4.1,7.9c-0.5,0.6-1,1.1-1.5,1.6
		l-0.8,0.8c-0.3,0.2-0.6,0.5-0.9,0.7c-0.6,0.4-1.2,0.9-1.8,1.4s-1.3,0.8-1.9,1.1c-0.3,0.2-0.6,0.4-1,0.5l-1,0.4l-2,0.9
		c-1.4,0.4-2.8,0.8-4.2,1.2c1.3-0.6,2.7-1.1,4-1.8l1.9-1l0.9-0.5c0.3-0.2,0.6-0.4,0.9-0.6c0.6-0.4,1.2-0.8,1.8-1.2
		c0.6-0.4,1.1-0.9,1.6-1.4l0.8-0.7l0.7-0.8c0.5-0.5,1-1,1.4-1.6c1.8-2.2,3.2-4.7,4.2-7.3c0.5-1.3,0.9-2.7,1.2-4.1
		C248,169.7,248.1,168.2,248.2,166.8z"/>
	<path id="elq4adploaat" class="st9" d="M221.3,206.3c0,0-7.1-8.6-11-6s1.8,15.4,6.8,16.8c2.6,0.9,5.4-0.4,6.3-2.9
		c0-0.1,0-0.1,0.1-0.2L221.3,206.3z"/>
	<path id="elynqx22ni3to" class="st4" d="M212,203.9c-0.1,0-0.1,0.1,0,0.1c3.5,1.1,5.5,4.1,7,7.3c-1.1-1.2-2.5-1.8-4.1-0.4
		c-0.1,0.1,0,0.2,0.1,0.2c1.2-0.5,2.6-0.2,3.4,0.8c0.7,0.8,1.3,1.7,1.8,2.6c0.2,0.3,0.7,0.1,0.6-0.3v-0.1
		C220.5,209.8,216.7,204,212,203.9z"/>
	<path id="el9a9at062aap" class="st1" d="M219.8,215.6c0,0.7-0.5,1.2-1.2,1.2s-1.2-0.5-1.2-1.2s0.5-1.2,1.2-1.2c0,0,0,0,0,0
		C219.3,214.4,219.8,214.9,219.8,215.6z"/>
	<circle id="eljw8v79xt0in" class="st1" cx="216" cy="213.6" r="0.9"/>
	<g id="el0ywrdwuww09f">
		<path class="st8" d="M208.5,202.2h1.8c0.3,0,0.6,0.3,0.6,0.6v0c0,0.3-0.3,0.6-0.6,0.6h-1.8c-0.3,0-0.6-0.3-0.6-0.6v0
			C207.9,202.5,208.1,202.2,208.5,202.2z"/>
	</g>
	<g id="elpu75cen8ch">
		<path class="st8" d="M208.4,204.2h1.8c0.3,0,0.6,0.3,0.6,0.6v0c0,0.3-0.3,0.6-0.6,0.6h-1.8c-0.3,0-0.6-0.3-0.6-0.6v0
			C207.8,204.5,208.1,204.2,208.4,204.2z"/>
	</g>
	<path id="elhckrpwpft68" class="st8" d="M209.5,186.5l-1.7,2.6l8.5,7.7l3.6-6L209.5,186.5z M216,193.9l-5.9-4.8l0.4-0.6l6.9,3.3
		L216,193.9z"/>
	<path id="elolqnl6rz4w" class="st8" d="M210.4,181.6l-0.5,3.1l10.8,3.9l1.1-6.9L210.4,181.6z M219.2,186l-7.3-2.2l0.1-0.7l7.6,0.5
		L219.2,186z"/>
	<path id="elqv1y953ilg" class="st4" d="M220.9,164.4c2.2-0.8,4.4-13.3-3.8-19.2s-18.7,0.8-14.3,11
		C205.5,162.6,216.1,166.1,220.9,164.4z"/>
	<path id="elwu791ur71q" class="st4" d="M205.6,144.4c-2.4,2-4.1,4.8-4.7,7.9c-0.7,2.9,0.3,6,2.5,8c2.3,2,5.1,3.4,8.1,4
		c1.5,0.3,3.1,0.5,4.7,0.6c1.6,0.1,3.2,0,4.7-0.5c-1.4,0.8-3,1.3-4.7,1.4c-1.6,0.2-3.3,0.1-4.9-0.1c-3.4-0.4-6.6-1.8-9.1-4
		c-1.3-1.2-2.2-2.8-2.7-4.5c-0.4-1.7-0.4-3.5,0.1-5.1C200.4,148.8,202.6,146,205.6,144.4z"/>
	<polygon id="elp03x3fmqqwh" class="st8" points="294.7,278.3 308.6,276.4 303.2,236.1 285.6,238.5 	"/>
	<polygon id="el2acitr52lyj" class="st8" points="285.6,238.5 289,253.7 294.7,278.3 308.6,276.4 303.2,236.1 	"/>
	<g id="elmi32bq19cg">
		<polygon class="st10" points="285.6,238.5 289,253.7 305.3,251.5 303.2,236.1 		"/>
	</g>
	<g id="elw1qwbw4rxwg">
		<rect x="283.5" y="226.5" class="st8" width="22.1" height="16.8"/>
	</g>
	<polygon id="elpk9ydx3v0ob" class="st8" points="267,223.9 284.2,223.3 280.6,196.4 263.8,200.4 	"/>
	<polygon id="el6o2mez730c" class="st8" points="288.6,189.9 294,229.6 323,229.2 392.7,244.6 379.9,149.2 316.8,182.6 	"/>
	<g id="eljevt6vne1z">
		<ellipse class="st8" cx="387.9" cy="196.7" rx="15.6" ry="48.4"/>
	</g>
	<g id="elycgk15m0t8o">
		<ellipse class="st12" cx="388.5" cy="195.8" rx="12.7" ry="43"/>
	</g>
	<path id="eluiqbz6zw3z9" class="st8" d="M378,197.2c0.4,3.1,0.9,6.2,1.5,9.1c4.5,2.7,10.4,1.3,13.2-3.3c1.1-1.9,1.6-4.1,1.3-6.2
		l-0.6-4.5c-0.7-5.3-5.6-8.9-10.8-8.2c-2.1,0.3-4.1,1.3-5.6,2.8C377.1,190.2,377.5,193.7,378,197.2z"/>
	<polygon id="el7n92yraosa8" class="st8" points="278.9,233.9 312.3,232.7 305.2,180.6 272.8,188.4 	"/>
	<g id="elf1tupkwmgl">
		<polygon class="st12" points="278.9,233.9 312.3,232.7 305.2,180.6 272.8,188.4 		"/>
	</g>
	<g id="elg0k2069h13">
		<path class="st12" d="M376.3,156.3c-1.9,3.1-3.1,6.6-3.8,10.2c-0.7,3.6-1.1,7.2-1.3,10.8c-0.1,1.8-0.1,3.6-0.1,5.4
			s0.1,3.6,0.2,5.4s0.2,3.6,0.4,5.4s0.4,3.6,0.6,5.4c0.9,7.2,2.5,14.3,4.8,21.2c1.1,3.5,2.6,6.8,4.3,10c1.8,3.1,3.9,6.2,6.9,8.3
			c-2.7-2.4-4.9-5.3-6.4-8.6c-1.6-3.2-3-6.6-4-10c-2.1-6.9-3.6-14-4.5-21.1c-1.1-7.1-1.6-14.3-1.5-21.6c0-3.6,0.4-7.2,1-10.8
			C373.5,163,374.6,159.5,376.3,156.3z"/>
	</g>
	<path id="elftcrq3wgo6o" class="st4" d="M411.2,149.5c-2,1.5-4,3-5.9,4.6s-3.8,3.2-5.7,4.9s-3.8,3.3-5.6,5.1l-2.7,2.6
		c-0.9,0.9-1.8,1.8-2.6,2.7c1-0.7,2-1.5,3-2.3l2.9-2.4c2-1.6,3.8-3.2,5.7-4.9s3.7-3.3,5.5-5.1S409.5,151.3,411.2,149.5z"/>
	<path id="eltar54linq6" class="st4" d="M394.3,222.2c2.7,0.8,5.5,1.5,8.2,2.2s5.5,1.3,8.3,1.9s5.5,1.2,8.3,1.7l4.2,0.7
		c1.4,0.2,2.8,0.4,4.2,0.6c-1.4-0.4-2.7-0.8-4.1-1.2l-4.1-1.1c-2.7-0.7-5.5-1.3-8.3-1.9s-5.5-1.2-8.3-1.7S397.1,222.5,394.3,222.2z"
		/>
	<path id="el76dfziui2um" class="st4" d="M446.6,214.4c-4.1-0.5-8.3-0.9-12.4-1.2s-8.3-0.6-12.4-0.9s-8.3-0.5-12.4-0.6l-6.2-0.2
		c-2.1,0-4.1-0.1-6.2-0.1c2.1,0.3,4.1,0.4,6.2,0.7l6.2,0.6c4.1,0.4,8.3,0.6,12.4,0.9s8.3,0.5,12.4,0.6S442.5,214.4,446.6,214.4z"/>
	<path id="elzfsy3q6sbus" class="st4" d="M434.3,151.3c-3.6,2.1-7.2,4.4-10.8,6.6s-7.1,4.6-10.6,6.9s-7,4.7-10.5,7.1l-5.2,3.6
		c-1.7,1.3-3.4,2.5-5.1,3.7c1.8-1.1,3.6-2.2,5.4-3.3l5.4-3.4c3.6-2.3,7.1-4.6,10.6-6.9s7-4.7,10.5-7.1S430.9,153.8,434.3,151.3z"/>
	<path id="eloe6w5k0n1s" class="st4" d="M395.9,195.3c4.9-0.5,9.7-1.1,14.5-1.7s9.6-1.3,14.5-2s9.6-1.4,14.4-2.2l7.2-1.2
		c2.4-0.4,4.8-0.9,7.2-1.3c-2.4,0.2-4.8,0.5-7.3,0.8l-7.2,0.9c-4.8,0.6-9.6,1.3-14.5,2s-9.6,1.4-14.4,2.2S400.7,194.3,395.9,195.3z"
		/>
	<path id="elllyfpunqwh" class="st9" d="M191.9,262.3c-15.1,24.8-40.8,78.3-31,97.8c9.4,18.7,104.1-32.6,116.1-42
		c5.2-4.1-19.2-52.2-25.2-48.3c-8,5.1-46.7,36.6-47.5,36.8c-1.8,0.4,3.6-17.5,7.2-39.5C216.9,234.9,202.8,244.5,191.9,262.3z"/>
	<path id="el7tul6us6ro3" class="st9" d="M315.2,250.1c3.5,4.2,0.5,9,0.5,9c2.6,0.8,4.8,2.6,6.3,4.9c2.4,4.2-3.1,9.8-3.1,9.8
		c2.5,1.4,4.5,3.6,5.8,6.2c1.9,4.2-2.9,10.7-2.9,10.7c1.6,2.6,2.2,5.7,1.7,8.7c-1.6,8-13.2,12.4-20.6,15.1
		c-11,4.1-30.9,3.9-35.4,4.6l-18.5-47.1c0,0,29.4-22.1,38.6-24.1C295.3,245.9,311.2,245.4,315.2,250.1z"/>
	<path id="elg81029mue5d" class="st4" d="M315.1,258.5c-8.6-0.1-16.8,2.4-25.1,4.4c-0.1,0-0.1,0.1-0.1,0.2c0,0.1,0.1,0.1,0.2,0.1
		l0,0c8.2-2.1,16.8-2.5,25.1-4.3c0.1,0,0.2-0.2,0.1-0.3C315.3,258.5,315.2,258.5,315.1,258.5z"/>
	<path id="el9pbl0jj584" class="st4" d="M318.5,273.2c-2,0.2-3.9,0.6-5.7,1.3c-2,0.6-4,1.2-6,1.9c-4,1.3-7.9,2.7-11.8,4.2
		c-0.2,0.1-0.1,0.3,0.1,0.3c4-1.3,7.9-2.5,11.9-3.7c2-0.6,4-1.1,6-1.6c1.9-0.4,3.8-1,5.6-1.8c0.1-0.1,0.2-0.3,0.1-0.4
		C318.7,273.2,318.6,273.2,318.5,273.2z"/>
	<path id="eld3clo3r95o8" class="st4" d="M321.7,290.6c-1.7,0-3.5,0.9-5.1,1.4c-1.8,0.6-3.6,1.3-5.4,1.9c-3.6,1.2-7.2,2.5-10.9,3.6
		c-0.1,0-0.1,0.1-0.1,0.2c0,0,0.1,0.1,0.1,0.1c3.7-1.1,7.4-2.1,11.1-3.3c1.8-0.5,3.6-1.1,5.4-1.7c1.5-0.5,3.5-0.9,4.8-2
		C321.8,290.7,321.8,290.7,321.7,290.6C321.7,290.6,321.7,290.6,321.7,290.6z"/>
	<path id="elnlxlirykxsm" class="st4" d="M228.5,344.7c-6.1,3-12.3,5.9-18.6,8.4s-12.7,4.9-19.1,6.9c-3.6,1.1-7.3,2.3-11,3.2
		c-0.1,0,0,0.2,0.1,0.2c6.7-1.3,13.3-3,19.8-5.2c3.2-1.1,6.4-2.3,9.6-3.6c3.1-1.3,6.2-2.6,9.2-4.2c3.4-1.8,6.9-3.6,10.2-5.6
		C228.6,344.8,228.6,344.7,228.5,344.7C228.5,344.7,228.5,344.7,228.5,344.7z"/>
	<path id="elkrmpik1e159" class="st4" d="M296,316.1c-7.3,2-19,1.5-19.1,1.5c-2.2,2-11.3,7.9-13.6,9.2c-0.1,0,0,0.2,0.1,0.1
		c5-2.3,11.3-5.7,13.9-8.2c10.4,0.4,15.5-1.4,18.8-2.4C296.2,316.3,296.2,316,296,316.1z"/>
	<path id="el4sabgbwwsw9" class="st8" d="M160.4,302.7l46.6,1.6c0,0,6.7-33.8,6.3-52c-0.2-10.2-6.1-9.8-12.8-3.4
		C177.4,271.3,160.4,302.7,160.4,302.7z"/>
	<path id="el0qmyh81lg50a" class="st1" d="M191.2,258.8c0,0.2-0.1,0.3-0.2,0.5c-0.2,0.3-0.5,0.6-0.8,0.9c-0.2,0.1-0.3,0.3-0.5,0.4
		h-0.1L191.2,258.8z M208.1,257.9c-0.1-0.2-0.4-0.3-0.6-0.3c-0.4,0-0.7,0.2-0.8,0.6c-0.1-0.3-0.5-0.6-0.8-0.6
		c-0.2,0-0.5,0.1-0.6,0.3c-0.2,0.4-0.2,0.9,0.1,1.4c0.3,0.5,0.8,1,1.3,1.3h0.1c0.2-0.1,0.3-0.3,0.5-0.4c0.3-0.3,0.6-0.6,0.8-0.9
		C208.3,258.9,208.3,258.4,208.1,257.9z M173.5,281.7c0.2-0.2,0.4-0.4,0.5-0.6c0-0.1,0.1-0.2,0.1-0.2
		C173.9,281.1,173.7,281.4,173.5,281.7z M191.1,279.7c-0.1-0.2-0.4-0.3-0.6-0.3c-0.4,0-0.7,0.2-0.8,0.6c-0.1-0.3-0.5-0.6-0.8-0.6
		c-0.2,0-0.5,0.1-0.6,0.3c-0.2,0.4-0.2,0.9,0.1,1.4c0.3,0.5,0.8,1,1.3,1.3h0.1c0.2-0.1,0.3-0.3,0.5-0.4c0.3-0.3,0.6-0.6,0.8-0.9
		C191.2,280.7,191.3,280.2,191.1,279.7z M208.1,279.7c-0.1-0.2-0.4-0.3-0.6-0.3c-0.4,0-0.7,0.2-0.8,0.6c-0.1-0.3-0.5-0.6-0.8-0.6
		c-0.2,0-0.5,0.1-0.6,0.3c-0.2,0.4-0.2,0.9,0.1,1.4c0.3,0.5,0.8,1,1.3,1.3h0.1c0.2-0.1,0.3-0.2,0.5-0.4c0.3-0.3,0.6-0.6,0.8-0.9
		C208.3,280.7,208.3,280.2,208.1,279.7L208.1,279.7z M181,271.3l0.1,0.1h0.1c0.2-0.1,0.3-0.3,0.5-0.4c0.3-0.2,0.6-0.6,0.8-0.9
		c0.2-0.3,0.2-0.7,0.2-1C182.1,269.8,181.5,270.6,181,271.3z M199.6,268.8c-0.1-0.2-0.4-0.3-0.6-0.3c-0.4,0-0.7,0.2-0.8,0.6
		c-0.1-0.3-0.5-0.6-0.8-0.6c-0.2,0-0.5,0.1-0.6,0.3c-0.2,0.4-0.2,0.9,0.1,1.4c0.3,0.5,0.8,1,1.3,1.3h0.1c0,0,0.2-0.2,0.5-0.4
		c0.3-0.3,0.6-0.6,0.8-0.9C199.8,269.7,199.8,269.2,199.6,268.8L199.6,268.8z M174.1,301.5c-0.1-0.2-0.3-0.3-0.6-0.3
		c-0.4,0-0.7,0.2-0.8,0.6c-0.1-0.3-0.5-0.6-0.8-0.6c-0.2,0-0.5,0.1-0.6,0.3c-0.2,0.4-0.2,0.9,0.1,1.4l0.1,0.1l2.5,0.1
		c0-0.1,0.1-0.1,0.1-0.2C174.3,302.5,174.3,302,174.1,301.5L174.1,301.5z M191.1,301.5c-0.1-0.2-0.4-0.3-0.6-0.3
		c-0.2,0.5-0.7,0.7-1.1,0.5c-0.2-0.1-0.4-0.3-0.5-0.5c-0.2,0-0.5,0.1-0.6,0.3c-0.2,0.4-0.2,0.9,0.1,1.4c0.2,0.3,0.4,0.5,0.6,0.8
		l1.4,0c0.2-0.2,0.5-0.5,0.6-0.8C191.3,302.5,191.3,302,191.1,301.5L191.1,301.5z M207.5,301.2c-0.2,0.5-0.7,0.7-1.1,0.5
		c-0.2-0.1-0.4-0.3-0.5-0.5c-0.2,0-0.5,0.1-0.6,0.3c-0.2,0.4-0.2,0.9,0.1,1.4c0.3,0.5,0.8,1,1.3,1.3h0.1l0.3-0.2
		C207.2,303.5,207.4,302.6,207.5,301.2L207.5,301.2z M182.6,290.6c-0.1-0.2-0.3-0.4-0.6-0.4c-0.2,0.5-0.6,0.7-1.1,0.5
		c-0.3-0.1-0.5-0.3-0.5-0.5c-0.2,0-0.5,0.1-0.6,0.4c-0.2,0.4-0.2,0.9,0.1,1.4c0.3,0.5,0.8,0.9,1.3,1.3h0.1c0.2-0.1,0.3-0.3,0.5-0.4
		c0.3-0.3,0.6-0.6,0.8-0.9C182.8,291.5,182.8,291,182.6,290.6L182.6,290.6z M199.6,290.6c-0.1-0.2-0.4-0.3-0.6-0.4
		c-0.4,0-0.7,0.2-0.8,0.6c-0.1-0.3-0.5-0.6-0.8-0.6c-0.2,0-0.5,0.1-0.6,0.4c-0.2,0.4-0.2,0.9,0.1,1.4c0.3,0.5,0.8,1,1.3,1.3h0.1
		c0.2-0.1,0.3-0.3,0.5-0.4c0.3-0.2,0.6-0.6,0.8-0.9C199.8,291.5,199.8,291,199.6,290.6z"/>
	<path id="el7r5vh1rakfp" class="st4" d="M205.6,296.9c-7.1-0.8-26.6-2.6-39.4-2c-0.1,0-0.1,0.3,0,0.3c10.7,1.2,32.2,1.9,39.4,2.2
		C205.7,297.3,205.8,296.9,205.6,296.9z"/>
	<path id="el1qyxakowabg" class="st4" d="M213.3,269.6c-0.5,2-1,4-1.5,6.1c0-0.2,0.1-0.5,0.1-0.7c0.3-2.8,0.6-5.6,0.8-8.5
		c0-0.1-0.1-0.1-0.1,0c-1.4,9.9-5.3,34.9-5.5,37.6c-0.2,0-2.3,0.1-2.8,0c-0.1,0-0.1,0.2,0,0.2s3.4,0.4,3.5,0.3
		c1.4-4.8,3.5-23,3.9-27.1C212.3,274.9,212.9,272.3,213.3,269.6C213.4,269.6,213.3,269.6,213.3,269.6z"/>
</g>
<g id="freepik--Hearts--inject-81">
	<path id="elbackutk1l9b" class="st8" d="M299.8,154.6c-0.8,7.7-7,14.5-7,14.5s-9.1-1-14.8-6.3c-4.7-4.4-5.2-10.9-1.5-13.8
		c5.4-4.1,10.9,5.9,10.9,5.9s-2.4-11.2,4.4-11.6C296.5,142.9,300.4,148.1,299.8,154.6z"/>
	<path id="eltgq6t0smsl" class="st8" d="M283.3,104.7c-0.4,2.2-1.3,4.2-2.8,5.8c-2.2-0.3-4.2-1.1-5.9-2.5c-1.9-1.8-2.1-4.4-0.6-5.5
		c2.2-1.7,4.4,2.4,4.4,2.4s-1-4.5,1.8-4.7C282,100,283.5,102.1,283.3,104.7z"/>
	<path id="elhmwzo7vf70r" class="st8" d="M311,128.6c-3.4,4.6-9.9,6.4-9.9,6.4s-5.4-4.1-6.9-9.6c-1.3-4.6,0.9-8.9,4.3-9.3
		c5-0.6,4.6,7.9,4.6,7.9s2.7-8,7.2-5.7C313.4,120,313.9,124.8,311,128.6z"/>
</g>
<g id="freepik--speech-bubbles--inject-81">
	<rect id="el3uqhc4yiofh" x="56.3" y="131.7" class="st8" width="97.8" height="55.2"/>
	<polygon id="elyoh7ukfb20i" class="st8" points="72.8,186.9 56.3,203.9 56.3,186.9 	"/>
	<rect id="el2r1z6ugnmu6" x="70.4" y="142.8" class="st1" width="58.1" height="1.7"/>
	<rect id="el79kmil3dogs" x="70.4" y="148.1" class="st1" width="39.8" height="1.7"/>
	<rect id="ellxqnvwi0h39" x="70.4" y="153.3" class="st1" width="69.5" height="1.7"/>
	<rect id="eleb2c9qpfpro" x="70.4" y="158.5" class="st1" width="23.9" height="1.7"/>
	<rect id="elxma1wvd01f" x="70.4" y="163.7" class="st1" width="54.5" height="1.7"/>
	<rect id="el9zacxv80rg" x="70.4" y="168.9" class="st1" width="58.1" height="1.7"/>
	<rect id="elnl20i0j1b6" x="70.4" y="174.2" class="st1" width="43.5" height="1.7"/>
	<g id="elp98yqmtlpu">
		<rect x="75.6" y="204.4" class="st0" width="97.8" height="40.4"/>
	</g>
	<polygon id="elc3bak84d1j" class="st0" points="156.8,244.8 173.4,261.7 173.4,244.8 	"/>
	<rect id="eltppogzk74vc" x="90.7" y="212.9" class="st1" width="52.6" height="1.8"/>
	<rect id="elsmu1gkjqom" x="90.7" y="218.3" class="st1" width="67" height="1.8"/>
	<rect id="el50xv4rtj7uh" x="90.7" y="223.7" class="st1" width="48.7" height="1.8"/>
	<rect id="elfvg60tfep0a" x="90.7" y="229.1" class="st1" width="61.2" height="1.8"/>
	<rect id="elo4rbomk9vpo" x="90.7" y="234.4" class="st1" width="40.2" height="1.8"/>
	<rect id="elxhku2j7lf58" x="304.1" y="71" class="st8" width="76" height="32.1"/>
	<polygon id="el3k7124s4f95" class="st8" points="333.2,103.2 350.9,103.2 342.1,115.3 	"/>
	<path id="elj32m01znosm" class="st1" d="M332.9,88.2c-1.1,1.9-2.5,3.5-4.2,4.9c-0.9,0.8-1.8,1.5-2.8,2.2h-0.7c-0.2-0.1-5-3.4-7-7.1
		c-1.4-2.6-1.6-5.6-0.5-7.5c0.7-1.2,1.9-1.9,3.3-1.9c2,0.1,3.8,1.3,4.6,3.2c0.8-1.9,2.5-3.1,4.5-3.2c1.4,0,2.6,0.7,3.3,1.9
		C334.5,82.7,334.4,85.6,332.9,88.2z"/>
	<path id="elcbds292ktc8" class="st1" d="M365.3,81.4l-9.1,12.1l-1.9-7.2l-1.1,0.5l-0.5-1.2l1-0.5l-4.3-4.7h14.9l3-1.3h-19.4
		l-0.5,1.1l5.5,6l2.4,8.9l1.2,0.2l11.3-15.1L365.3,81.4z"/>
	<polygon id="elzi45aib59cb" class="st1" points="365.3,81.4 356.2,93.5 354.3,86.3 	"/>
	<polygon id="elb82w8feswtd" class="st1" points="364.2,80.4 353.7,85.1 349.4,80.4 	"/>
</g>
<g id="freepik--Plant--inject-81">
	<path id="el3prmgpjus0b" class="st8" d="M106.3,348.1c-11.6,15.7-23.7,34-26.7,53.7c0,0.3,0.4,0.4,0.5,0.1
		c1.3-5.4,3.1-10.7,5.1-15.8c7.6-2.1,15.1-3.8,19.2-11.4c4.1-7.8,3.6-18,2.8-26.5C107.1,347.8,106.5,347.8,106.3,348.1z"/>
	<path id="el8dl64j6narr" class="st4" d="M85.3,386c5.2-11.7,11.9-23.5,20.4-33.1c0.1-0.1,0.2,0,0.1,0.1
		c-5.6,6.9-9.8,14.3-13.9,21.9c3.8-3.9,8.1-7.4,11.7-11.5c0.1-0.1,0.2,0,0.1,0.1c-3.6,4.3-7.6,9.1-12.3,12.3c-1.3,2.3-2.5,4.7-3.8,7
		c0.3-0.2,0.7-0.3,1-0.5c0.1,0,0.1,0.1,0.1,0.1c-0.4,0.2-0.7,0.4-1.1,0.5c-0.6,1.1-1.2,2.2-1.8,3.3C85.6,386.4,85.2,386.2,85.3,386z
		"/>
	<path id="elc5eegbq8w6" class="st4" d="M89.2,381.9c3.1-1.7,6.1-3.7,8.9-6c0.1-0.1,0.2,0,0.1,0.1c-2.7,2.4-5.7,4.4-8.9,6.1
		c-0.1,0-0.1,0-0.2-0.1C89.2,382,89.2,381.9,89.2,381.9z"/>
	<path id="elhb7jdpi4rlj" class="st8" d="M78.2,398.9c0,0.2,0.4,0.2,0.4,0c0.1-6.5,0-13,0.1-19.6c1.7-3.4,5.2-5.2,7.7-7.9
		c1.8-2,3.3-4.1,4.6-6.4c3-5.6,4.8-11.7,5.4-18c0.7-7-2-29.9-4.9-29.1c-1.5,0.4-6.4,11.8-7.7,15.5c-2.1,6.2-3.7,12.5-4.6,19
		C76.9,367.8,77.1,383.5,78.2,398.9z"/>
	<path id="elo0ed0t7cswg" class="st4" d="M78.2,370.9L78.2,370.9c0.4-8.2,2.2-16.5,3.9-24.5c1.9-8.6,4.1-16.7,8.5-24.4
		c0.1-0.1,0.3,0,0.2,0.1c-3,6-5.2,12.2-6.8,18.7c0.3-0.5,0.7-0.9,1-1.3c0.1-0.2,0.4,0,0.3,0.2c-0.4,0.7-0.9,1.3-1.4,2h-0.1
		c-1.5,6.1-2.6,12.4-3.6,18.7l0.2-0.2c0,0,0.1,0,0.1,0c0,0,0,0,0,0.1c-0.1,0.2-0.2,0.4-0.4,0.6c-0.5,3.2-0.9,6.4-1.3,9.5
		c5.7-4.8,10.5-10.5,13.2-17.6c0,0,0.1,0,0,0c-2.7,7.3-6.9,13.8-13.4,18.2l-0.4,2.5c0,0.2-0.3,0.1-0.3,0c0-0.8,0-1.5,0.1-2.3
		C78.1,371,78.1,370.9,78.2,370.9z"/>
	<path id="eltf3xbvyfzjj" class="st4" d="M80.9,358.9c4.3-6.5,8.4-12.7,11.5-19.9c0-0.1,0.2,0,0.2,0.1c-2.7,7.1-6.4,14.3-11.5,20
		C81,359.2,80.8,359.1,80.9,358.9z"/>
	<path id="eldsl9wfvia6r" class="st4" d="M86.6,337.5c1.8-3.2,3.7-6.3,5.4-9.5c0-0.1,0.2,0,0.1,0.1c-1.4,3.4-3.1,6.6-5.2,9.6
		c0,0.1-0.1,0.1-0.2,0.1C86.6,337.6,86.6,337.5,86.6,337.5z"/>
	<path id="elj2usu58l6xm" class="st4" d="M85.9,338.9"/>
	<path id="elghcjmkx8ngu" class="st8" d="M73.8,380.1c-0.1,4.3-0.6,8.6-1.5,12.8c0.1,0.5,0.1,0.9,0.2,1.4c1.3-4.7,2.1-9.5,2.3-14.3
		c0.1-0.1,0.1-0.3,0-0.5l0,0c0.2-6.5-0.3-13-1.4-19.3c-2-11.9-6.4-23.4-14.7-32.4c-0.2-0.2-0.6-0.2-0.8,0.1c0,0-0.1,0.1-0.1,0.1
		c-3.4,8.5-2.2,18.7,0.7,27.3c1.6,4.6,3.8,9,6.6,13C67.9,372.3,71.5,375.7,73.8,380.1z"/>
	<path id="elrfqmn90eho" class="st4" d="M59.7,331.9c7.9,12.8,13.3,28,14,43.1c0,0.3-0.4,0.3-0.5,0.1c-0.2-1.4-0.4-2.7-0.6-4l0,0
		c-3.3-3.1-6.6-6.4-9-10.3c0,0,0-0.1,0.1-0.1c0,0,0,0,0.1,0c2.7,3.3,5.6,6.5,8.7,9.5c-0.6-3.4-1.2-6.6-2-9.9l-0.6-0.7
		c-0.1-0.2,0.1-0.4,0.2-0.2l0.2,0.2c-1.1-4.4-2.5-8.8-4.1-13.1c-2-2.4-4.3-4.5-5.7-7.4c0,0,0-0.1,0-0.1c0,0,0.1,0,0.1,0c0,0,0,0,0,0
		c1.2,1.6,2.3,3.3,3.7,4.8c0.5,0.6,1.1,1.2,1.7,1.8c-1.8-4.6-4-9.1-6.5-13.5c0-0.1,0-0.2,0.1-0.3S59.6,331.8,59.7,331.9z"/>
	<path id="el3r5rwhv9k8y" class="st4" d="M61.2,347.7c2.5,3.4,5.5,6.7,7.8,10.3c0.1,0.1-0.1,0.2-0.2,0.1c-3-3.1-5.7-6.5-7.8-10.3
		C61,347.7,61.2,347.6,61.2,347.7z"/>
	<path id="elzmijimsf3mc" class="st4" d="M69.4,358.7l0.1,0.1c0.1,0.1,0,0.2-0.1,0.1l-0.1-0.1c0,0,0-0.1,0-0.1
		C69.3,358.7,69.4,358.7,69.4,358.7z"/>
	<path id="elzdoazm7d02" class="st8" d="M47.3,356.5c0.9,7.2,3.8,13.9,8.3,19.5c1.9,2.2,4.2,4,6.8,5.3c2.9,1.5,6,3.1,9,4.3
		c1.4,3.7,2.5,7.5,3.2,11.4c0.1-0.3,0.2-0.7,0.3-1c-1.9-16.7-12.7-31-26.5-40.1c-0.3-0.2-0.7-0.1-0.9,0.2
		C47.3,356.2,47.3,356.3,47.3,356.5z"/>
	<path id="elmhu4oj1ea5" class="st4" d="M52,361.4c-0.1-0.1,0-0.3,0.1-0.2c7.6,5.6,13.6,13.1,17.6,21.7c0.1,0.2-0.2,0.4-0.3,0.2
		c-0.6-1.1-1.3-2.2-2-3.3l0,0c-3.2-0.6-6.1-2.8-8.5-4.9c-0.1,0,0-0.1,0.1-0.1c1.2,1.1,2.6,2,4,2.8c1.3,0.6,2.7,1.1,4,1.6
		c-1.2-1.9-2.4-3.6-3.7-5.4c-3.4-1.3-6.6-3.1-9.4-5.3c-0.1-0.1,0-0.2,0.1-0.1c2.9,1.7,5.8,3.3,8.8,4.7c-1.9-2.5-4-5-6.2-7.3
		c-1.1-0.6-2.2-1.1-3.2-1.7c-0.1,0,0-0.2,0.1-0.2c0.9,0.3,1.7,0.7,2.5,1.2C54.7,363.9,53.4,362.6,52,361.4z"/>
	<path id="el58u72y7my73" class="st4" d="M52.3,367.2c0.2,0.1,0.4,0.2,0.5,0.4c0,0,0,0.1-0.1,0.1c-0.2-0.1-0.4-0.2-0.6-0.3
		C52.2,367.3,52.3,367.1,52.3,367.2z"/>
	<polygon id="eled2plgf0wfh" class="st5" points="96.4,433.1 58.6,433.1 61.6,398.6 62.3,391 92.7,391 93.4,398.6 	"/>
	<polygon id="elab19ylg7kh4" class="st4" points="93.4,398.6 61.6,398.6 62.3,391 92.7,391 	"/>
	<rect id="elfuhoz84y6mi" x="60.5" y="385.7" class="st5" width="34" height="7.5"/>
</g>
</svg>
