<?xml version="1.0" encoding="utf-8"?>
<!-- Generator: Adobe Illustrator 24.2.1, SVG Export Plug-In . SVG Version: 6.00 Build 0)  -->
<svg version="1.1" id="freepik_stories-mobile-encryption" xmlns:svgjs="http://svgjs.com/svgjs"
	 xmlns="http://www.w3.org/2000/svg" xmlns:xlink="http://www.w3.org/1999/xlink" x="0px" y="0px" viewBox="0 0 500 500"
	 style="enable-background:new 0 0 500 500;" xml:space="preserve">
<style type="text/css">
	.st0{fill:#EBEBEB;}
	.st1{fill:#E0E0E0;}
	.st2{fill:#263238;}
	.st3{fill:#455A64;}
	.st4{fill:#FFFFFF;}
	.st5{fill:#99C33D;}
	.st6{opacity:0.4;}
	.st7{opacity:0.5;}
	.st8{fill:#FAFAFA;}
	.st9{opacity:0.6;}
	.st10{opacity:0.3;}
	.st11{fill:#FFD6BE;}
	.st12{fill:#FFB294;}
</style>
<g id="freepik--background-complete--inject-27">
	<path id="el43i2j5c6vvt" class="st0" d="M98.7,53.5L72.8,44l-25.6,9.4c-3.3,1.6-6.1,2.5-6.1,5.6v15.6c-0.1,10.9,2.9,21.6,8.4,31
		c5.5,9.4,13.7,16.8,23.6,21.4c10.5-3.5,18.3-12.8,23.1-20.8c5.6-9.4,8.5-20.1,8.4-31v-14C104.6,56.8,102.3,54.6,98.7,53.5z"/>
	<g id="eltj3ib1hgchk">
		<rect x="408.1" y="389.8" class="st1" width="11.5" height="11.5"/>
	</g>
	<g id="el5d2asgjton">
		<rect x="378.4" y="389.8" class="st1" width="11.5" height="11.5"/>
	</g>
	<g id="elybwacjvh1ji">
		<rect id="ela2ftwlave1q" x="411.6" y="314.7" class="st1" width="11.5" height="11.5"/>
	</g>
	<g id="el9fmp19x6zy">
		<rect id="el7wgluoy5nn8" x="395.5" y="314.7" class="st1" width="11.5" height="11.5"/>
	</g>
	<g id="elwat6u5eojl">
		<rect id="el7xgyv02qvvw" x="381.8" y="314.7" class="st1" width="11.5" height="11.5"/>
	</g>
	<g id="elmuq5pa7wjdf">
		<rect id="eloyhve3te6y7" x="411.6" y="300.9" class="st1" width="11.5" height="11.5"/>
	</g>
	<g id="elov6kfvmghwc">
		<rect id="el6qstjlyblu" x="381.8" y="300.9" class="st1" width="11.5" height="11.5"/>
	</g>
	<g id="elxxic78up2i">
		<rect id="el8exn6qpkh3b" x="365.8" y="300.9" class="st1" width="11.5" height="11.5"/>
	</g>
	<g id="el08kp3cfye9zi">
		<rect id="ela97bkbms77l" x="395.5" y="284.9" class="st1" width="11.5" height="11.5"/>
	</g>
	<g id="el1wh9yau98zuh">
		<rect id="el6q8vdqvrf2j" x="381.8" y="284.9" class="st1" width="11.5" height="11.5"/>
	</g>
	<g id="eldsl2x8tqrte">
		<rect id="el1xx2nh7qa8e" x="411.6" y="268.8" class="st1" width="11.5" height="11.5"/>
	</g>
	<g id="els7qv2qdtwma">
		<rect id="elgg3itp82il" x="395.5" y="268.8" class="st1" width="11.5" height="11.5"/>
	</g>
	<g id="elns3aznhqzz">
		<rect id="eluz3w6psy16" x="381.8" y="268.8" class="st1" width="11.5" height="11.5"/>
	</g>
	<g id="el4jgjst1xcje">
		<rect id="elm9uh5pt71p8" x="434.2" y="253.9" class="st1" width="11.5" height="11.5"/>
	</g>
	<g id="elk28aqqln34">
		<rect id="el9zqep8xlsq" x="434.2" y="268.2" class="st1" width="11.5" height="11.5"/>
	</g>
	<g id="elejwscnzp29v">
		<rect id="el2hdxwcx6pci" x="411.6" y="252.8" class="st1" width="11.5" height="11.5"/>
	</g>
	<g id="el7ic4t8nbqlm">
		<rect id="el1stozjvcoko" x="381.8" y="252.8" class="st1" width="11.5" height="11.5"/>
	</g>
	<g id="elu1a8btlbf">
		<rect id="eloion4yuudpa" x="365.8" y="252.8" class="st1" width="11.5" height="11.5"/>
	</g>
	<g id="elh14gtmqey2g">
		<rect id="elcfkp57rviis" x="451.4" y="261.6" class="st1" width="11.5" height="11.5"/>
	</g>
	<g id="elir9se4g0rie">
		<rect id="elyrxfeun6rsp" x="395.5" y="239.1" class="st1" width="11.5" height="11.5"/>
	</g>
	<g id="eljf3tp3rlc1a">
		<rect id="elyw76xdl6hkg" x="381.8" y="239.1" class="st1" width="11.5" height="11.5"/>
	</g>
	<g id="elhzrqh3vrnaj">
		<rect id="elvxpl1kdkk2" x="395.5" y="223" class="st1" width="11.5" height="11.5"/>
	</g>
	<g id="eltudiwhguq5n">
		<rect id="elmev9cqiz4fp" x="381.8" y="223" class="st1" width="11.5" height="11.5"/>
	</g>
	<g id="el2shlk76p2db">
		<rect id="elt6ckmdd9e2" x="365.8" y="223" class="st1" width="11.5" height="11.5"/>
	</g>
	<g id="elshdj1dk9anh">
		<rect id="elmo4t3e8toz" x="411.6" y="207" class="st1" width="11.5" height="11.5"/>
	</g>
	<g id="elh6045zzpdr5">
		<rect id="eliaxl1tgxjn" x="381.8" y="207" class="st1" width="11.5" height="11.5"/>
	</g>
	<g id="elyo6d3ul5hfr">
		<rect id="elje2gzg42he" x="365.8" y="207" class="st1" width="11.5" height="11.5"/>
	</g>
	<g id="el1muvq43t29b">
		<rect id="ela3q90zujlym" x="381.8" y="193.2" class="st1" width="11.5" height="11.5"/>
	</g>
	<g id="elvhrikjqpvyg">
		<rect id="elshcz29lrz1" x="411.6" y="177.2" class="st1" width="11.5" height="11.5"/>
	</g>
	<g id="eldvvpl0cgxw7">
		<rect id="elkuxgav3qcd9" x="395.5" y="177.2" class="st1" width="11.5" height="11.5"/>
	</g>
	<g id="elj3a6b4fddxf">
		<rect id="el5yxalunbcuf" x="381.8" y="177.2" class="st1" width="11.5" height="11.5"/>
	</g>
	<g id="eld9eetj07b6u">
		<rect id="el36o7p3n2i9" x="365.8" y="177.2" class="st1" width="11.5" height="11.5"/>
	</g>
	<g id="elrgstv85kesi">
		<rect id="elnm51k9q6th" x="395.5" y="161.1" class="st1" width="11.5" height="11.5"/>
	</g>
	<g id="el583leh6g9gk">
		<rect id="el4bdt91a6wtb" x="365.8" y="161.1" class="st1" width="11.5" height="11.5"/>
	</g>
	<g id="eloi2agcv3ajd">
		<rect id="eld7u24kl1kza" x="411.6" y="147.4" class="st1" width="11.5" height="11.5"/>
	</g>
	<g id="elbhkgnggenu8">
		<rect id="elqdz8r6e2z3" x="381.8" y="147.4" class="st1" width="11.5" height="11.5"/>
	</g>
	<g id="elgc9d77ewabc">
		<rect id="el55unnc3yzd5" x="376.1" y="121.6" class="st1" width="11.5" height="11.5"/>
	</g>
	<g id="elzbz8mdw7w6s">
		<rect id="elx1lcawrdn49" x="395.5" y="376.5" class="st1" width="11.5" height="11.5"/>
	</g>
	<g id="elpez1dd9p3bc">
		<rect id="el6syr5pz0toq" x="411.6" y="360.5" class="st1" width="11.5" height="11.5"/>
	</g>
	<g id="elvf17ja3hji">
		<rect id="el094e4c3dn2yu" x="395.5" y="360.5" class="st1" width="11.5" height="11.5"/>
	</g>
	<g id="el0fb1ci0q7vf">
		<rect id="elfhoi296rcl" x="381.8" y="360.5" class="st1" width="11.5" height="11.5"/>
	</g>
	<g id="elp3we13nfzib">
		<rect id="eldxzpix149di" x="378.4" y="413.1" class="st1" width="11.5" height="11.5"/>
	</g>
	<g id="el9bxl5pb6t78">
		<rect id="el46upycifk94" x="381.8" y="346.8" class="st1" width="11.5" height="11.5"/>
	</g>
	<g id="elxbdubbqex3g">
		<rect id="eltj66amwzeo9" x="365.8" y="346.8" class="st1" width="11.5" height="11.5"/>
	</g>
	<g id="elooz5k0czz3">
		<rect id="eldtwxfvcei34" x="395.5" y="330.7" class="st1" width="11.5" height="11.5"/>
	</g>
	<g id="elsdac1pzh6fj">
		<rect id="el71z7d7gzusa" x="381.8" y="330.7" class="st1" width="11.5" height="11.5"/>
	</g>
	<g id="elk6scuuhruc">
		<rect id="ely5ayrruii2" x="428.5" y="288.3" class="st1" width="11.5" height="11.5"/>
	</g>
	<rect id="el28dpzgjmo5g" x="87.7" y="157" class="st1" width="11.5" height="11.5"/>
	<rect id="el6edtx74nq5f" x="117.4" y="157" class="st1" width="11.5" height="11.5"/>
	<g id="elrb6nxanebhs">
		<rect id="elqy98ppsvqy" x="84.2" y="232.1" class="st1" width="11.5" height="11.5"/>
	</g>
	<g id="elpj5jb55jzps">
		<rect id="eldrwykt9lx46" x="100.3" y="232.1" class="st1" width="11.5" height="11.5"/>
	</g>
	<g id="elukxdgsmrvhk">
		<rect id="el9cyqy3ble6" x="114" y="232.1" class="st1" width="11.5" height="11.5"/>
	</g>
	<g id="el6jjrg7pp72a">
		<rect id="eldi3yrqhr7mm" x="84.2" y="245.9" class="st1" width="11.5" height="11.5"/>
	</g>
	<g id="elzurch7axzz">
		<rect id="elp46u44pqb6" x="114" y="245.9" class="st1" width="11.5" height="11.5"/>
	</g>
	<g id="elr0851g3ne9l">
		<rect id="elnmji8ckxqe" x="130.1" y="245.9" class="st1" width="11.5" height="11.5"/>
	</g>
	<g id="el927hgis6caw">
		<rect id="elmn9mk1ozmj" x="100.3" y="261.9" class="st1" width="11.5" height="11.5"/>
	</g>
	<g id="elsw1gpgb17fo">
		<rect id="elzigqhj0bb2" x="114" y="261.9" class="st1" width="11.5" height="11.5"/>
	</g>
	<g id="elfyflbd1ws8a">
		<rect id="ellr4cbswlkqd" x="84.2" y="277.9" class="st1" width="11.5" height="11.5"/>
	</g>
	<g id="el1npjurfbpw7">
		<rect id="eloxln2o7j07h" x="100.3" y="277.9" class="st1" width="11.5" height="11.5"/>
	</g>
	<g id="el4dbdvse4xh7">
		<rect id="elwy21cg5h0si" x="114" y="277.9" class="st1" width="11.5" height="11.5"/>
	</g>
	<g id="el2e9ho7ei44w">
		<rect id="elktasrcwkpzn" x="61.6" y="292.9" class="st1" width="11.5" height="11.5"/>
	</g>
	<g id="eljfnhihqdhtm">
		<rect id="el76wyp6oia1g" x="61.6" y="278.5" class="st1" width="11.5" height="11.5"/>
	</g>
	<g id="elm273qanesd">
		<rect id="el1rw6bmjrzaq" x="84.2" y="294" class="st1" width="11.5" height="11.5"/>
	</g>
	<g id="elqarljsbk2oq">
		<rect id="elanq7pbqcqx7" x="114" y="294" class="st1" width="11.5" height="11.5"/>
	</g>
	<g id="el0cr5fkgwqr3">
		<rect id="elnxalyfrr7g8" x="130.1" y="294" class="st1" width="11.5" height="11.5"/>
	</g>
	<g id="elprc7cbq7ukq">
		<rect id="el4d4r33btb5t" x="44.4" y="285.2" class="st1" width="11.5" height="11.5"/>
	</g>
	<g id="elm2oindbgxz">
		<rect id="el5uofvzik4ry" x="100.3" y="307.7" class="st1" width="11.5" height="11.5"/>
	</g>
	<g id="elze8en7t9re">
		<rect id="elaum6ar3v48n" x="114" y="307.7" class="st1" width="11.5" height="11.5"/>
	</g>
	<g id="el4f3dhg2cvop">
		<rect id="el9lzwrs2o5nj" x="100.3" y="323.8" class="st1" width="11.5" height="11.5"/>
	</g>
	<g id="el5tu2t831r8y">
		<rect id="el0va9m3tx5yqd" x="114" y="323.8" class="st1" width="11.5" height="11.5"/>
	</g>
	<g id="elf4967flhrvg">
		<rect id="elkm7yq3wleu" x="130.1" y="323.8" class="st1" width="11.5" height="11.5"/>
	</g>
	<g id="elj72g1ixdi">
		<rect id="elqr80p57a3td" x="84.2" y="339.8" class="st1" width="11.5" height="11.5"/>
	</g>
	<g id="elt804xs5xbz">
		<rect id="el69e74yyeu1a" x="114" y="339.8" class="st1" width="11.5" height="11.5"/>
	</g>
	<g id="el1h7tz0307vs">
		<rect id="eldk33i5i7yaa" x="130.1" y="339.8" class="st1" width="11.5" height="11.5"/>
	</g>
	<g id="el3zwk8pi8rz">
		<rect id="elzv3iqiqv1o" x="114" y="353.5" class="st1" width="11.5" height="11.5"/>
	</g>
	<g id="elfgmmr1pu3dc">
		<rect id="el59ulga77qp" x="84.2" y="369.6" class="st1" width="11.5" height="11.5"/>
	</g>
	<g id="el9ca9kcunex">
		<rect id="elby58718fakn" x="100.3" y="369.6" class="st1" width="11.5" height="11.5"/>
	</g>
	<g id="el8se4wu3mgvm">
		<rect id="elkst5junmvxi" x="114" y="369.6" class="st1" width="11.5" height="11.5"/>
	</g>
	<g id="elqd8oclc79g">
		<rect id="elpnyzx4ywdp" x="130.1" y="369.6" class="st1" width="11.5" height="11.5"/>
	</g>
	<g id="elvm4r0x6rqig">
		<rect id="el27bmma7bsbl" x="100.3" y="385.6" class="st1" width="11.5" height="11.5"/>
	</g>
	<g id="ely4r7bw323p">
		<rect id="elvwuzchvw0pf" x="130.1" y="385.6" class="st1" width="11.5" height="11.5"/>
	</g>
	<g id="elz4bvotzn9aa">
		<rect id="elopxqdxyxv7" x="84.2" y="399.4" class="st1" width="11.5" height="11.5"/>
	</g>
	<g id="elgitwpi50tes">
		<rect id="el1hohff72uud" x="114" y="399.4" class="st1" width="11.5" height="11.5"/>
	</g>
	<g id="elftbxtj8oxfo">
		<rect id="elwjs1cfrco58" x="119.7" y="425.2" class="st1" width="11.5" height="11.5"/>
	</g>
	<g id="elzhcjf4ipl38">
		<rect id="elzygepyx7v9m" x="100.3" y="170.2" class="st1" width="11.5" height="11.5"/>
	</g>
	<g id="el19kxfp4ximb">
		<rect id="elki5g9a2fxu" x="84.2" y="186.3" class="st1" width="11.5" height="11.5"/>
	</g>
	<g id="eltd47h2fmcnc">
		<rect id="ela8mt1shi01o" x="100.3" y="186.3" class="st1" width="11.5" height="11.5"/>
	</g>
	<g id="elwxij6u207w">
		<rect id="elnkpfdrgcvz" x="114" y="186.3" class="st1" width="11.5" height="11.5"/>
	</g>
	<g id="el1dwe69ooqou">
		<rect id="elhuwx1auy8we" x="117.4" y="133.6" class="st1" width="11.5" height="11.5"/>
	</g>
	<g id="elh92wv1e6ub9">
		<rect id="elu7qp5ax29pg" x="114" y="200" class="st1" width="11.5" height="11.5"/>
	</g>
	<g id="elz0nb6vlk86">
		<rect id="el5avi0k6e9as" x="130.1" y="200" class="st1" width="11.5" height="11.5"/>
	</g>
	<g id="elsd81d89wnhs">
		<rect id="elay3ksjbesqt" x="100.3" y="216.1" class="st1" width="11.5" height="11.5"/>
	</g>
	<g id="eltqne2f2qnb">
		<rect id="elt06rzdqx62" x="114" y="216.1" class="st1" width="11.5" height="11.5"/>
	</g>
	<g id="el9henbfvrind">
		<rect id="elwgnu5fnegx8" x="67.3" y="258.5" class="st1" width="11.5" height="11.5"/>
	</g>
	<path id="elor1bgxpzbj" class="st0" d="M430.5,51.3l-0.7-3.5c-1.4-6.3-7.7-10.3-14-8.9s-10.3,7.7-8.9,14l0,0l0.8,3.6
		c-3,1.2-4.7,4.4-4,7.6l4.6,20.6c0.8,3.5,4.3,5.8,7.8,5c0,0,0,0,0,0l21.4-4.8c3.5-0.8,5.8-4.3,5-7.8c0,0,0,0,0,0l-4.7-20.6
		C437.1,53.1,433.9,50.9,430.5,51.3z M427.1,75.1l-5.6,1.3v-4.2c-1.8-0.6-2.8-2.6-2.3-4.4c0.6-1.8,2.6-2.8,4.4-2.3
		c1.2,0.4,2.1,1.4,2.3,2.6c0.3,1.1-0.1,2.3-0.9,3.2C425.9,72.7,427.1,75.1,427.1,75.1z M428.1,51.9l-18,4.1l-0.7-3.5
		c-1.1-5,2-9.9,7-11c5-1.1,9.9,2,11,7l0,0L428.1,51.9z"/>
</g>
<g id="freepik--Floor--inject-27">
	<path id="elv9z5z8xdu5k" class="st2" d="M444.1,466.7c0,0.1-88.7,0.3-198.1,0.3s-198.2-0.1-198.2-0.3s88.7-0.3,198.2-0.3
		S444.1,466.5,444.1,466.7z"/>
</g>
<g id="freepik--Device--inject-27">
	<path id="elx9lmo3mfmm" class="st3" d="M297.3,466.7L156,466.6c-17,0-30.8-13.8-30.8-30.8l0,0l0.1-354.3c0-17,13.8-30.8,30.8-30.8
		c0,0,0,0,0,0l141.3,0.1c17,0,30.8,13.8,30.8,30.8l-0.1,354.3C328.1,452.9,314.3,466.7,297.3,466.7
		C297.3,466.7,297.3,466.7,297.3,466.7z"/>
	<path id="elkmn3v69erd" class="st4" d="M297.3,63.3h-27.4c-3.8,0.1-6.7,3.2-6.7,7c0,0,0,0,0,0v5c0.1,3.8-2.9,6.9-6.6,7c0,0,0,0,0,0
		h-53.4c-3.8-0.1-6.7-3.2-6.7-7c0,0,0,0,0,0v-5c0.1-3.8-2.9-6.9-6.6-7c0,0,0,0,0,0h-33.6c-11.9,0-21.6,9.6-21.6,21.5c0,0,0,0,0,0
		l-0.1,345.8c0,11.9,9.6,21.6,21.6,21.6l141.1,0.1c11.9,0,21.6-9.6,21.6-21.5c0,0,0,0,0,0l0.1-345.9C318.9,73,309.3,63.3,297.3,63.3
		C297.3,63.3,297.3,63.3,297.3,63.3z"/>
	<path id="el04j7xck6mc0d" class="st1" d="M299.4,345.6v91.3c-1.2,0.3-1.9,1.5-1.7,2.7c0.3,1.2,1.5,1.9,2.7,1.7
		c1.2-0.3,1.9-1.5,1.7-2.7c-0.2-0.8-0.8-1.5-1.7-1.7v-91.7l-55.8-55.8v-44.6h-1v45L299.4,345.6z"/>
	<path id="elos7leah4up" class="st1" d="M187,344.8c1.2-0.3,2-1.5,1.7-2.7s-1.5-2-2.7-1.7c-1.2,0.3-2,1.5-1.7,2.7
		c0.2,0.8,0.8,1.5,1.7,1.7v6.5l-15.9,15.9v5.7c-1.2,0.3-1.9,1.5-1.7,2.7c0.3,1.2,1.5,1.9,2.7,1.7c1.2-0.3,1.9-1.5,1.7-2.7
		c-0.2-0.8-0.8-1.5-1.7-1.7v-5.3l15.9-15.9V344.8z"/>
	<path id="elk4ediwaehjd" class="st1" d="M175,329.5c0-1.2-1-2.2-2.2-2.2c-1.2,0-2.2,1-2.2,2.2c0,0.3,0.1,0.7,0.2,1l-15.7,15.7v23.4
		l31.4,31.4v25.8c-1.2,0.3-1.9,1.5-1.7,2.7c0.3,1.2,1.5,1.9,2.7,1.7c1.2-0.3,1.9-1.5,1.7-2.7c-0.2-0.8-0.8-1.5-1.7-1.7v-26.2
		l-31.4-31.4v-22.5l15.3-15.3c1,0.7,2.4,0.5,3.1-0.4C174.8,330.4,175,330,175,329.5z"/>
	<path id="elrb174ifha4i" class="st1" d="M180.8,335.3c0-1.2-1-2.2-2.2-2.2s-2.2,1-2.2,2.2c0,1,0.7,2,1.7,2.2v5.9l-13.4,13.4
		c-1-0.8-2.4-0.6-3.1,0.4c-0.8,1-0.6,2.4,0.4,3.1c1,0.8,2.4,0.6,3.1-0.4c0.3-0.4,0.5-0.9,0.5-1.4c0-0.3-0.1-0.7-0.2-1l13.8-13.8
		v-6.3C180,337.2,180.8,336.3,180.8,335.3z"/>
	<path id="elgcm58nkdo3v" class="st1" d="M177.2,383.9c-0.1,1.2,0.8,2.3,2.1,2.4s2.3-0.8,2.4-2.1c0-0.1,0-0.2,0-0.3
		c0-0.4-0.1-0.8-0.3-1.2l6.2-6.2v-12.1c1.1-0.5,1.5-1.9,1-3c-0.5-1.1-1.9-1.5-3-1c-1.1,0.5-1.5,1.9-1,3c0.4,0.8,1.1,1.2,2,1.2v11.5
		l-5.9,5.9c-0.4-0.2-0.8-0.3-1.2-0.3C178.2,381.7,177.2,382.7,177.2,383.9z"/>
	<path id="elr45udkiztir" class="st1" d="M195,313.4v-5.6c1.2-0.3,1.9-1.5,1.7-2.7c-0.3-1.2-1.5-1.9-2.7-1.7
		c-1.2,0.3-1.9,1.5-1.7,2.7c0.2,0.8,0.8,1.5,1.7,1.7v6l15.9,15.9v11.4c-1.2,0.3-1.9,1.5-1.7,2.7s1.5,1.9,2.7,1.7
		c1.2-0.3,1.9-1.5,1.7-2.7c-0.2-0.8-0.8-1.5-1.7-1.7v-11.8L195,313.4z"/>
	<path id="eled9d9b5cq78" class="st1" d="M227.3,392.4v-31.7l-6.1-6.1c0.2-0.4,0.4-0.8,0.4-1.2c0-1.2-1-2.2-2.2-2.2s-2.2,1-2.2,2.2
		c0,1.2,1,2.2,2.2,2.2c0.4,0,0.8-0.1,1.2-0.3l5.8,5.8V392l-8.7,8.7V437c-1.2,0.3-1.9,1.5-1.7,2.7c0.3,1.2,1.5,1.9,2.7,1.7
		c1.2-0.3,1.9-1.5,1.7-2.7c-0.2-0.8-0.8-1.5-1.7-1.7v-35.8L227.3,392.4z"/>
	<path id="eltm1kk25k02" class="st1" d="M245.1,328.8l-23-23c0.2-0.4,0.3-0.8,0.3-1.2c0-1.2-1-2.2-2.2-2.2s-2.2,1-2.2,2.2
		s1,2.2,2.2,2.2c0.4,0,0.8-0.1,1.2-0.3l22.7,22.7v24.4l12.5,12.5c-0.3,0.4-0.4,0.8-0.5,1.3c0,1.2,1,2.2,2.2,2.2c1.2,0,2.2-1,2.2-2.2
		c0-1.2-1-2.2-2.2-2.2c0,0,0,0,0,0c-0.3,0-0.7,0.1-1,0.3l-12.3-12.2V328.8z"/>
	<path id="elcsqzh7kh6sj" class="st1" d="M276.4,357.4l7.1,7c-0.7,1-0.3,2.4,0.7,3.1s2.4,0.3,3.1-0.7s0.3-2.4-0.7-3.1
		c-0.7-0.5-1.6-0.5-2.4,0l-6.8-6.7v-24.9l-5.6-5.6c0.2-0.4,0.3-0.8,0.3-1.2c0-1.2-1-2.2-2.2-2.2s-2.2,1-2.2,2.2s1,2.2,2.2,2.2
		c0.4,0,0.8-0.1,1.2-0.3l5.3,5.3V357.4z"/>
	<path id="elhhddk8qm6aw" class="st1" d="M284.3,439.1c0-1-0.7-1.9-1.7-2.2V401l-15.9-15.9v-47.9L219,289.5l-0.1-40.3h-1l0.1,40.7
		l47.7,47.7v47.9l15.9,15.9v35.6c-1.2,0.3-1.9,1.5-1.7,2.7c0.3,1.2,1.5,1.9,2.7,1.7C283.6,441,284.3,440.1,284.3,439.1L284.3,439.1z
		"/>
	<path id="el7c06x3ewzr" class="st1" d="M267.7,439.1c0-1-0.7-1.9-1.7-2.2v-13.3L243.4,401v-31.7c1.2-0.3,1.9-1.5,1.7-2.7
		c-0.3-1.2-1.5-1.9-2.7-1.7c-1.2,0.3-1.9,1.5-1.7,2.7c0.2,0.8,0.8,1.5,1.7,1.7v32.1L265,424v12.9c-1.2,0.3-1.9,1.5-1.7,2.7
		c0.3,1.2,1.5,1.9,2.7,1.7C267,441,267.7,440.1,267.7,439.1L267.7,439.1z"/>
	<path id="el7nu8auf4z2c" class="st1" d="M238,439.1c0-1-0.7-1.9-1.7-2.2V336.3l-24.9-24.9V248h-1v63.9l24.8,24.9v100.2
		c-1.2,0.3-1.9,1.5-1.7,2.7c0.3,1.2,1.5,1.9,2.7,1.7C237.3,441,238,440.1,238,439.1z"/>
	<path id="elrmbfkrvxnzn" class="st1" d="M225.8,411.3v15.4c-1.2,0.3-2,1.4-1.7,2.6c0.2,1,1.1,1.8,2.2,1.8c1.2,0,2.2-1,2.3-2.2
		c0-1.1-0.7-2-1.8-2.2v-15.4c1.2-0.3,1.9-1.5,1.7-2.7c-0.3-1.2-1.5-1.9-2.7-1.7c-1.2,0.3-1.9,1.5-1.7,2.7
		C224.3,410.5,225,411.1,225.8,411.3L225.8,411.3z"/>
	<path id="elvhdkxblv1bd" class="st1" d="M198.6,439.1c0-1-0.7-1.9-1.7-2.2v-99.7l-15-15.1c0.6-1,0.3-2.4-0.7-3.1s-2.4-0.3-3.1,0.7
		c-0.6,1-0.3,2.4,0.7,3.1c0.4,0.2,0.8,0.3,1.2,0.3c0.4,0,0.8-0.1,1.2-0.3l14.8,14.8v99.3c-1.2,0.3-1.9,1.5-1.7,2.7s1.5,1.9,2.7,1.7
		C198,441,198.7,440.1,198.6,439.1L198.6,439.1z"/>
	<path id="elkiq4xap2ly" class="st1" d="M165.4,439.1c0-1.1-0.8-2-1.9-2.2v-29.4l-22.4-22.4v-39.4l55.6-55.6l0.1-0.1v-43.7h-1v43.3
		l-55.6,55.6l-0.1,0.1v40.2l22.4,22.4V437c-1.2,0.3-1.8,1.6-1.5,2.8c0.3,1.2,1.6,1.8,2.8,1.5C164.8,441,165.4,440.1,165.4,439.1
		L165.4,439.1z"/>
	<path id="el0t7q5vcnsfq" class="st1" d="M228.6,337.8c0.1-1.2-0.8-2.3-2.1-2.4s-2.3,0.8-2.4,2.1c0,0.1,0,0.2,0,0.3
		c0,0.3,0.1,0.7,0.2,1L210.1,353v73.8c-1.2,0.3-1.9,1.5-1.7,2.7c0.3,1.2,1.5,1.9,2.7,1.7c1.2-0.3,1.9-1.5,1.7-2.7
		c-0.2-0.8-0.8-1.5-1.7-1.7v-73.4l13.9-13.8c0.4,0.3,0.9,0.5,1.4,0.5C227.6,340,228.6,339,228.6,337.8z"/>
	<path id="el8ann3any5pl" class="st1" d="M256.2,281.7c0,1.2,1,2.2,2.2,2.2c0,0,0,0,0,0c0.3,0,0.7-0.1,1-0.3l30.9,30.9
		c-0.2,0.4-0.3,0.8-0.3,1.2c0,1.2,1,2.2,2.2,2.2c1.2,0,2.2-1,2.2-2.2c0-1.2-1-2.2-2.2-2.2c0,0,0,0,0,0c-0.4,0-0.8,0.1-1.2,0.3
		L260.2,283c0.7-1,0.5-2.4-0.5-3.1s-2.4-0.5-3.1,0.5C256.4,280.7,256.2,281.2,256.2,281.7L256.2,281.7z"/>
	<path id="el8lrkzucwnx2" class="st1" d="M259,385.4l-6.8-6.8c0.1-0.3,0.2-0.7,0.2-1c0-1.2-1-2.2-2.2-2.2s-2.2,1-2.2,2.2
		c0,1.2,1,2.2,2.2,2.2c0.5,0,1-0.2,1.4-0.5l6.4,6.4v15.6l13.5,13.5c-0.2,0.4-0.3,0.8-0.3,1.2c0,1.2,1,2.2,2.2,2.2s2.2-1,2.2-2.2
		s-1-2.2-2.2-2.2c-0.4,0-0.8,0.1-1.2,0.3L259,401V385.4z"/>
	<path id="elk18ay8fi3pb" class="st1" d="M151.9,213v-87.2c1.1-0.3,1.9-1.4,1.6-2.6s-1.4-1.9-2.6-1.6c-1.1,0.3-1.9,1.4-1.6,2.6
		c0.2,0.8,0.8,1.4,1.6,1.6v87.7l53.3,53.3v42.6h1v-43L151.9,213z"/>
	<path id="el4cf06a70qdm" class="st1" d="M259.3,213.8c-1.2,0.3-1.9,1.4-1.6,2.6c0.3,1.2,1.4,1.9,2.6,1.6s1.9-1.4,1.6-2.6
		c-0.2-0.8-0.8-1.4-1.6-1.6v-6.2l15.2-15.2V187c1.1-0.3,1.9-1.4,1.6-2.5c-0.3-1.1-1.4-1.9-2.5-1.6c-1.1,0.3-1.9,1.4-1.6,2.5
		c0.2,0.8,0.8,1.4,1.6,1.6v5l-15.2,15.2V213.8z"/>
	<path id="elt40me344fif" class="st1" d="M270.8,228.5c0,1.2,0.9,2.1,2.1,2.1c1.2,0,2.1-0.9,2.1-2.1c0-0.4-0.1-0.7-0.3-1l15-15
		v-22.3l-30-30v-24.7c1.1-0.3,1.9-1.4,1.6-2.6s-1.4-1.9-2.6-1.6c-1.1,0.3-1.9,1.4-1.6,2.6c0.2,0.8,0.8,1.4,1.6,1.6v25.1l30,30v21.5
		l-14.6,14.6c-0.4-0.3-0.8-0.4-1.3-0.4C271.7,226.3,270.8,227.3,270.8,228.5z"/>
	<path id="ellrfa0g1gbee" class="st1" d="M265.3,223c-0.1,1.2,0.8,2.2,2,2.3c1.2,0.1,2.2-0.8,2.3-2c0-0.1,0-0.2,0-0.3
		c0-1-0.7-1.9-1.6-2.1v-5.6l12.9-12.9c0.4,0.3,0.8,0.5,1.3,0.5c1.2,0,2.1-1,2.1-2.1s-1-2.1-2.1-2.1c-1.2,0-2.1,1-2.1,2.1
		c0,0.3,0.1,0.6,0.2,0.9L267,214.9v6C266,221.1,265.3,222,265.3,223z"/>
	<path id="el32ej8agotnk" class="st1" d="M268.7,176.4c-0.1-1.2-1.1-2.1-2.3-2c-1.1,0.1-1.9,0.9-2,2c0,0.4,0.1,0.8,0.3,1.1l-5.9,5.9
		v11.6c-1,0.6-1.4,1.9-0.9,2.9c0.4,0.7,1,1.1,1.8,1.1c1.2,0.1,2.2-0.8,2.3-2c0.1-1.2-0.8-2.2-2-2.3c-0.1,0-0.2,0-0.3,0v-11l5.6-5.6
		c0.3,0.2,0.7,0.3,1.1,0.3C267.7,178.5,268.7,177.6,268.7,176.4z"/>
	<path id="el27gmg9x5a1s" class="st1" d="M251.7,243.9v5.3c-1.1,0.3-1.8,1.4-1.6,2.6s1.4,1.8,2.6,1.6c1.1-0.3,1.8-1.4,1.6-2.6
		c-0.2-0.8-0.8-1.4-1.6-1.6v-5.7l-15.2-15.2v-10.8c1.1-0.3,1.9-1.4,1.6-2.6s-1.4-1.9-2.6-1.6s-1.9,1.4-1.6,2.6
		c0.2,0.8,0.8,1.4,1.6,1.6v11.2L251.7,243.9z"/>
	<path id="elu395dvl467o" class="st1" d="M220.8,168.3v30.3l5.8,5.8c-0.6,1-0.3,2.3,0.7,2.9s2.3,0.3,2.9-0.7c0.6-1,0.3-2.3-0.7-2.9
		c-0.3-0.2-0.7-0.3-1.1-0.3c-0.4,0-0.8,0.1-1.1,0.3l-5.5-5.5v-29.5l8.3-8.3v-34.6c1.1-0.3,1.8-1.4,1.6-2.6c-0.3-1.1-1.4-1.8-2.6-1.6
		c-1.1,0.3-1.8,1.4-1.6,2.6c0.2,0.8,0.8,1.4,1.6,1.6V160L220.8,168.3z"/>
	<path id="el5ad72b15jvn" class="st1" d="M203.8,229.1l22,22c-0.2,0.3-0.3,0.7-0.3,1.1c0,1.2,1,2.1,2.1,2.1c1.2,0,2.1-1,2.1-2.1
		c0-1.2-1-2.1-2.1-2.1c-0.4,0-0.8,0.1-1.1,0.3l-21.7-21.7v-23.3l-11.9-11.9c0.3-0.4,0.4-0.8,0.4-1.3c0-1.2-1-2.1-2.1-2.1
		c-1.2,0-2.1,1-2.1,2.1c0,1.2,1,2.1,2.1,2.1c0.3,0,0.7-0.1,0.9-0.2l11.7,11.7L203.8,229.1z"/>
	<path id="eljqqqeqrcsu" class="st1" d="M173.9,201.8l-6.7-6.7c0.2-0.3,0.3-0.7,0.3-1.1c0-1.2-1-2.1-2.1-2.1c-1.2,0-2.1,1-2.1,2.1
		c0,1.2,1,2.1,2.1,2.1c0.4,0,0.8-0.1,1.1-0.3l6.5,6.5V226l5.4,5.4c-0.2,0.3-0.3,0.7-0.3,1.1c0,1.2,1,2.1,2.1,2.1
		c1.2,0,2.1-1,2.1-2.1c0-1.2-1-2.1-2.1-2.1c0,0,0,0,0,0c-0.4,0-0.8,0.1-1.1,0.3l-5.1-5.1V201.8z"/>
	<path id="elh6u2xnroc6f" class="st1" d="M166.3,123.7c0,1,0.7,1.9,1.6,2.1v34.4l15.2,15.2v45.7l45.6,45.6l0.1,38.5h0.9l-0.1-38.9
		l-45.6-45.6V175l-15.2-15.2v-34c1.1-0.3,1.9-1.4,1.6-2.5c-0.3-1.1-1.4-1.9-2.5-1.6C167,121.9,166.3,122.8,166.3,123.7L166.3,123.7z
		"/>
	<path id="elfaqu5sruj3" class="st1" d="M182.2,123.7c0,1,0.7,1.9,1.6,2.1v12.7l21.6,21.6v30.2c-1.1,0.3-1.8,1.4-1.6,2.6
		s1.4,1.8,2.6,1.6c1.1-0.3,1.8-1.4,1.6-2.6c-0.2-0.8-0.8-1.4-1.6-1.6v-30.6l-21.6-21.6v-12.3c1.1-0.3,1.9-1.4,1.6-2.5
		c-0.3-1.1-1.4-1.9-2.5-1.6C182.9,121.9,182.2,122.7,182.2,123.7L182.2,123.7z"/>
	<path id="elk7whprdcqx" class="st1" d="M210.6,123.7c0,1,0.7,1.9,1.6,2.1V222l23.7,23.7v60.7h1v-61.1l-23.7-23.8v-95.8
		c1.1-0.3,1.9-1.4,1.6-2.5c-0.3-1.1-1.4-1.9-2.5-1.6C211.3,121.9,210.7,122.7,210.6,123.7L210.6,123.7z"/>
	<path id="elbvjwb4t0hnf" class="st1" d="M222.2,150.3v-14.8c1.1-0.3,1.9-1.4,1.6-2.5c-0.3-1.1-1.4-1.9-2.5-1.6s-1.9,1.4-1.6,2.5
		c0.2,0.8,0.8,1.4,1.6,1.6v14.8c-1.1,0.3-1.9,1.4-1.6,2.6s1.4,1.9,2.6,1.6s1.9-1.4,1.6-2.6C223.6,151.1,223,150.4,222.2,150.3z"/>
	<path id="elzbcg6rcpl2" class="st1" d="M248.2,123.7c0,1,0.7,1.9,1.7,2.1V221l14.4,14.4c-0.6,1-0.3,2.3,0.7,2.9
		c1,0.6,2.3,0.3,2.9-0.7c0.6-1,0.3-2.3-0.7-2.9c-0.3-0.2-0.7-0.3-1.1-0.3c-0.4,0-0.8,0.1-1.1,0.3l-14.1-14.1v-94.8
		c1.1-0.3,1.8-1.4,1.6-2.6c-0.3-1.1-1.4-1.8-2.6-1.6C248.9,121.9,248.2,122.7,248.2,123.7L248.2,123.7z"/>
	<path id="elodsrpejfb1n" class="st1" d="M280,123.7c0,1,0.7,1.9,1.8,2.1v28.1l21.5,21.4V213L250,266.2l-0.1,0.1v41.8h1v-41.4
		l53.1-53.1l0.1-0.1V175l-21.5-21.4v-27.8c1.1-0.3,1.8-1.5,1.4-2.6s-1.5-1.8-2.6-1.4C280.6,121.9,280,122.8,280,123.7L280,123.7z"/>
	<path id="elpk07z6icqqr" class="st1" d="M219.6,220.5c-0.1,1.2,0.8,2.2,2,2.3c1.2,0.1,2.2-0.8,2.3-2c0-0.1,0-0.2,0-0.3
		c0-0.3-0.1-0.6-0.2-0.9l13.6-13.6v-70.5c1.1-0.3,1.9-1.4,1.6-2.5c-0.3-1.1-1.4-1.9-2.5-1.6c-1.1,0.3-1.9,1.4-1.6,2.5
		c0.2,0.8,0.8,1.4,1.6,1.6v70.1l-13.2,13.2c-0.4-0.3-0.8-0.5-1.3-0.5C220.6,218.4,219.6,219.4,219.6,220.5z"/>
	<path id="eljmm5lf002s" class="st1" d="M193.2,274.1c0-1.2-0.9-2.1-2.1-2.1c-0.3,0-0.7,0.1-1,0.2l-29.6-29.6
		c0.2-0.3,0.3-0.7,0.3-1.1c0-1.2-0.9-2.1-2.1-2.1c-1.2,0-2.1,0.9-2.1,2.1c0,1.2,0.9,2.1,2.1,2.1c0,0,0,0,0,0c0.4,0,0.8-0.1,1.1-0.3
		l29.5,29.5c-0.3,0.4-0.4,0.8-0.4,1.3c-0.1,1.2,0.8,2.2,2,2.3c1.2,0.1,2.2-0.8,2.3-2C193.2,274.3,193.2,274.2,193.2,274.1
		L193.2,274.1z"/>
	<path id="elo9psg83k1hi" class="st1" d="M190.5,175.1l6.5,6.5c-0.1,0.3-0.2,0.6-0.2,0.9c0,1.2,1,2.1,2.1,2.1c1.2,0,2.1-1,2.1-2.1
		c0-1.2-1-2.1-2.1-2.1c-0.5,0-0.9,0.2-1.3,0.5l-6.1-6.1v-14.9l-12.9-12.9c0.2-0.3,0.3-0.7,0.3-1.1c0-1.2-0.9-2.1-2.1-2.1
		c-1.2,0-2.1,0.9-2.1,2.1c0,1.2,0.9,2.1,2.1,2.1c0,0,0,0,0,0c0.4,0,0.8-0.1,1.1-0.3l12.6,12.6L190.5,175.1z"/>
</g>
<g id="freepik--Padlock--inject-27">
	<path id="elazgsb4fn674" class="st5" d="M267.1,276.1H255v-65.4c0-15.4-12.5-27.9-27.9-27.9c-15.4,0-27.9,12.5-27.9,27.9v65.4h-12
		v-65.4c0-22.1,17.9-39.9,39.9-39.9s39.9,17.9,39.9,39.9L267.1,276.1z"/>
	<g id="el34lunzkvtn5">
		<g class="st6">
			<path id="el3olphbm2o18" d="M267.1,276.1H255v-65.4c0-15.4-12.5-27.9-27.9-27.9c-15.4,0-27.9,12.5-27.9,27.9v65.4h-12v-65.4
				c0-22.1,17.9-39.9,39.9-39.9s39.9,17.9,39.9,39.9L267.1,276.1z"/>
		</g>
	</g>
	<path id="eloia26gx33y" class="st5" d="M179.1,247h96c3.2,0,5.8,2.6,5.8,5.8v57.4c0,3.2-2.6,5.8-5.8,5.8h-96
		c-3.2,0-5.8-2.6-5.8-5.8v-57.4C173.3,249.6,175.9,247,179.1,247z"/>
	<g id="elmh7uovuf1g">
		<g class="st7">
			<path id="elnoy3aozqbzn" d="M236.1,272.6c0-5-4-9-9-9s-9,4-9,9c0,4,2.7,7.6,6.5,8.7v13.5h4.9v-13.5
				C233.4,280.1,236.1,276.6,236.1,272.6z"/>
		</g>
	</g>
	<path id="elvm2bwr6dwd" class="st8" d="M179,309.6c-0.2,0-0.4-11.5-0.4-25.7s0.2-25.7,0.4-25.7s0.4,11.5,0.4,25.7
		S179.3,309.6,179,309.6z"/>
	<path id="elpcu6ip21p4" class="st8" d="M220.1,284.1c0,0-0.4-0.1-1-0.6c-0.9-0.7-1.7-1.5-2.3-2.4c-4.2-5.5-3.1-13.4,2.4-17.7
		c0.6-0.5,1.3-0.9,2.1-1.3c1-0.5,2-0.9,3.1-1.1c0.4-0.1,0.8-0.1,1.2-0.1c-1.4,0.5-2.7,1-4,1.7c-6,3.3-8.2,10.9-4.9,16.9
		c0.2,0.4,0.4,0.7,0.7,1.1C218.1,282,219.1,283.1,220.1,284.1z"/>
	<path id="elu2k33uanw3" class="st5" d="M299,341.6l0.7-1l0.4-0.5c0.1-0.2,0.3-0.5,0.4-0.7c0.4-0.6,0.7-1.2,0.9-1.8
		c0.1-0.4,0.3-0.7,0.5-1.1s0.2-0.9,0.4-1.3c0.1-0.5,0.2-1,0.3-1.5c0.1-0.5,0.2-1.1,0.2-1.6c0.2-2.6,0.1-5.2-0.4-7.8
		c-0.9-5.9-3.4-12.7-7.2-20.2c-4.4-8.4-9.6-16.4-15.4-24c-7-9.1-14.7-17.8-23-25.8c-9.4-9.3-19.5-17.9-30.1-25.7
		c-5.6-4.1-11.6-8.1-17.8-11.9c-6.4-3.9-13-7.4-19.8-10.4c-7-3.2-14.4-5.5-22-6.9c-3.9-0.7-7.8-0.8-11.8-0.3c-2,0.3-3.9,0.8-5.7,1.6
		c-1.8,0.9-3.4,2-4.8,3.5c-1.3,1.5-2.3,3.2-2.9,5.1c-0.6,1.9-0.9,3.9-1,5.8c0,3.9,0.5,7.9,1.6,11.6c2.2,7.4,5.4,14.5,9.4,21.2
		c3.8,6.4,8,12.6,12.6,18.5c4.5,5.8,9.1,11.2,13.9,16.4c9,9.7,18.7,18.7,29,27c8.9,7.3,18.4,13.9,28.3,19.9
		c8.1,5,16.7,9.2,25.5,12.6c7.9,2.9,15,4.6,20.9,4.8c2.6,0.2,5.2,0,7.8-0.5c0.5-0.1,1.1-0.2,1.6-0.4c0.5-0.1,1-0.3,1.4-0.5l1.3-0.5
		c0.4-0.2,0.7-0.4,1.1-0.6c0.6-0.3,1.2-0.7,1.7-1.1c0.2-0.2,0.5-0.3,0.6-0.5l0.5-0.5L299,341.6c0,0-0.3,0.3-0.8,0.8l-0.5,0.5
		c-0.2,0.2-0.4,0.3-0.6,0.5c-0.5,0.4-1.1,0.8-1.7,1.1c-0.3,0.2-0.7,0.4-1.1,0.6l-1.3,0.5c-0.5,0.2-0.9,0.4-1.4,0.5
		c-0.5,0.2-1.1,0.3-1.6,0.4c-2.6,0.5-5.2,0.7-7.8,0.6c-5.9-0.2-13.1-1.9-21-4.8c-8.9-3.4-17.5-7.6-25.6-12.5
		c-9.9-5.9-19.4-12.6-28.3-19.9c-10.3-8.3-20-17.3-29.1-27c-4.8-5.1-9.4-10.6-13.9-16.4c-4.6-5.9-8.8-12.1-12.6-18.5
		c-4-6.6-7.2-13.8-9.4-21.2c-1.1-3.8-1.7-7.8-1.6-11.8c0.1-2,0.4-4.1,1-6c1.3-4,4.1-7.2,7.9-8.9c1.8-0.8,3.8-1.4,5.8-1.7
		c4-0.5,8-0.4,11.9,0.3c7.6,1.4,15.1,3.7,22.1,6.9c6.8,3,13.5,6.5,19.8,10.4c6.3,3.8,12.2,7.8,17.9,12c10.7,7.9,20.7,16.5,30.2,25.8
		c8.3,8.1,15.9,16.7,23,25.9c5.8,7.5,11,15.6,15.4,24c3.8,7.5,6.2,14.4,7.1,20.3c0.4,2.6,0.6,5.2,0.3,7.9c-0.1,0.5-0.1,1.1-0.2,1.6
		c-0.1,0.5-0.2,1-0.3,1.5c-0.1,0.5-0.3,0.9-0.4,1.3s-0.3,0.8-0.5,1.1c-0.3,0.6-0.6,1.2-0.9,1.8c-0.1,0.3-0.3,0.5-0.4,0.7
		s-0.3,0.4-0.4,0.5C299.2,341.3,299,341.6,299,341.6z"/>
	<path id="el5grdnzf9cie" class="st5" d="M327.5,272.9c0,0,0-0.4-0.1-1.2c0-0.2,0-0.4-0.1-0.7s-0.1-0.5-0.2-0.8
		c-0.1-0.7-0.3-1.4-0.5-2c-0.1-0.4-0.3-0.8-0.4-1.2l-0.6-1.2c-0.2-0.5-0.5-0.9-0.8-1.3c-0.3-0.4-0.5-0.9-0.9-1.4
		c-1.6-2.1-3.4-4-5.5-5.6c-4.6-3.8-11-7.3-18.8-10.3c-8.9-3.4-18.1-5.9-27.4-7.6c-11.3-2.1-22.8-3.5-34.3-4
		c-13.2-0.6-26.5-0.4-39.6,0.9c-7,0.7-14.1,1.6-21.2,3c-7.3,1.4-14.6,3.2-21.7,5.5c-7.4,2.3-14.4,5.5-21,9.5c-3.4,2.1-6.4,4.6-9,7.6
		c-1.3,1.5-2.3,3.2-3.1,5c-1.6,3.7-1.6,7.9,0,11.5c0.8,1.8,1.9,3.5,3.1,5c2.6,3,5.6,5.5,9,7.6c6.6,4,13.6,7.2,21,9.5
		c7.1,2.3,14.3,4.1,21.6,5.4c7.2,1.4,14.3,2.3,21.2,3c13.2,1.2,26.4,1.5,39.6,0.9c11.5-0.5,23-1.9,34.3-4c9.4-1.7,18.5-4.3,27.4-7.6
		c7.8-3,14.2-6.5,18.8-10.3c2.1-1.6,3.9-3.5,5.5-5.6c0.4-0.4,0.6-0.9,0.9-1.4c0.3-0.4,0.5-0.8,0.8-1.3c0.2-0.4,0.4-0.8,0.6-1.2
		s0.3-0.8,0.4-1.2c0.2-0.6,0.4-1.3,0.5-2c0.1-0.3,0.1-0.6,0.2-0.8s0-0.5,0.1-0.7C327.4,273.2,327.4,272.8,327.5,272.9
		c0,0,0,0.4-0.1,1.2c0,0.2,0,0.4,0,0.7s-0.1,0.5-0.1,0.8c-0.1,0.7-0.3,1.4-0.5,2c-0.1,0.4-0.3,0.8-0.4,1.2l-0.6,1.2
		c-0.2,0.5-0.5,0.9-0.8,1.3c-0.3,0.5-0.6,0.9-0.9,1.4c-1.6,2.1-3.4,4-5.5,5.6c-4.6,3.8-11,7.3-18.8,10.4c-8.9,3.4-18.1,6-27.5,7.7
		c-11.3,2.1-22.8,3.5-34.4,4c-13.2,0.7-26.5,0.4-39.7-0.8c-7-0.7-14.1-1.6-21.3-3c-7.4-1.3-14.6-3.2-21.8-5.4
		c-7.4-2.3-14.5-5.5-21.1-9.6c-3.4-2.1-6.4-4.7-9.1-7.7c-1.3-1.6-2.4-3.3-3.2-5.1c-1.7-3.8-1.7-8.1,0-11.9c0.8-1.8,1.9-3.6,3.2-5.1
		c2.6-3,5.7-5.6,9.1-7.7c6.6-4.1,13.7-7.3,21.1-9.6c7.1-2.3,14.4-4.1,21.8-5.4c7.2-1.4,14.3-2.3,21.3-3c13.2-1.2,26.5-1.5,39.7-0.8
		c11.5,0.5,23,1.9,34.4,4c9.4,1.7,18.6,4.3,27.5,7.7c7.8,3.1,14.3,6.6,18.8,10.4c2.1,1.6,3.9,3.5,5.5,5.6c0.3,0.4,0.6,0.9,0.9,1.4
		c0.3,0.4,0.5,0.9,0.8,1.3l0.6,1.2c0.2,0.4,0.3,0.8,0.4,1.2c0.2,0.6,0.4,1.3,0.5,2c0,0.3,0.1,0.6,0.1,0.8s0,0.5,0,0.7
		C327.5,272.4,327.5,272.9,327.5,272.9z"/>
	<path id="eldx5ogxv3988" class="st5" d="M289.7,187.2l-1-0.6l-0.6-0.4c-0.2-0.1-0.5-0.2-0.7-0.4c-0.6-0.3-1.2-0.6-1.9-0.8
		c-0.4-0.1-0.8-0.3-1.2-0.4l-1.3-0.3c-0.5-0.1-1-0.2-1.5-0.2c-0.5,0-1.1-0.1-1.6-0.1c-2.6,0-5.2,0.3-7.8,0.9
		c-5.8,1.3-12.5,4.3-19.7,8.6c-8.1,5-15.7,10.7-22.8,17c-8.6,7.6-16.7,15.9-24.1,24.7c-8.6,10-16.5,20.7-23.6,31.9
		c-3.7,5.9-7.3,12.1-10.7,18.6c-3.4,6.6-6.4,13.5-9,20.5c-2.7,7.2-4.5,14.8-5.4,22.5c-0.4,3.9-0.2,7.9,0.5,11.7
		c0.4,1.9,1.1,3.8,2,5.5c1.9,3.6,5.2,6.2,9.1,7.1c1.9,0.5,3.9,0.7,5.9,0.6c3.9-0.2,7.8-1,11.5-2.4c7.2-2.7,14.1-6.4,20.4-10.8
		c6.2-4.2,12-8.8,17.6-13.8c5.5-4.9,10.6-9.9,15.4-15c9-9.7,17.4-20,25-30.8c6.7-9.4,12.6-19.3,17.9-29.6c4.4-8.4,8-17.3,10.8-26.4
		c2.4-8,3.5-15.3,3.4-21.2c0-2.6-0.4-5.2-1.1-7.7c-0.1-0.5-0.3-1-0.5-1.6c-0.2-0.5-0.3-0.9-0.6-1.4l-0.6-1.2c-0.2-0.4-0.5-0.7-0.6-1
		c-0.4-0.6-0.8-1.1-1.2-1.6c-0.2-0.2-0.4-0.4-0.5-0.6s-0.4-0.3-0.5-0.4L289.7,187.2c0,0,0.4,0.3,1,0.8l0.5,0.4
		c0.2,0.2,0.4,0.4,0.5,0.6c0.5,0.5,0.9,1,1.3,1.6c0.2,0.3,0.5,0.7,0.7,1s0.4,0.8,0.6,1.2c0.2,0.4,0.4,0.9,0.6,1.4
		c0.2,0.5,0.4,1,0.5,1.6c0.7,2.5,1.1,5.1,1.1,7.8c0.2,5.9-1,13.2-3.3,21.2c-2.8,9.1-6.4,18-10.8,26.4c-5.3,10.3-11.2,20.2-17.9,29.6
		c-7.6,10.9-15.9,21.2-25,30.9c-4.8,5.1-9.9,10.1-15.4,15c-5.6,5-11.5,9.6-17.6,13.9c-6.4,4.5-13.3,8.1-20.5,10.9
		c-3.7,1.4-7.6,2.2-11.6,2.4c-2,0.1-4-0.1-6-0.6c-2-0.5-3.8-1.4-5.5-2.6c-1.6-1.3-2.9-2.9-3.9-4.6c-0.9-1.8-1.6-3.7-2.1-5.7
		c-0.8-3.9-1-7.9-0.5-11.9c0.8-7.7,2.7-15.3,5.4-22.5c2.5-7,5.6-13.9,9-20.5c3.4-6.5,7-12.7,10.7-18.6c7.1-11.2,15-21.8,23.7-31.9
		c7.5-8.8,15.6-17,24.2-24.7c7.1-6.3,14.8-12,22.9-17c7.2-4.3,13.9-7.2,19.8-8.5c2.6-0.6,5.2-0.9,7.8-0.9c0.5,0,1.1,0.1,1.6,0.1
		c0.5,0,1,0.1,1.5,0.2l1.3,0.3c0.4,0.1,0.8,0.3,1.2,0.4c0.7,0.2,1.3,0.5,1.9,0.8c0.3,0.1,0.5,0.2,0.7,0.4l0.5,0.4
		C289.4,187,289.7,187.2,289.7,187.2z"/>
	<path id="el714e35m4upj" class="st5" d="M336.2,196.6c0,2.1-1.7,3.8-3.8,3.8c-2.1,0-3.8-1.7-3.8-3.8s1.7-3.8,3.8-3.8l0,0
		C334.5,192.7,336.2,194.4,336.2,196.6z"/>
	<path id="elbwps9tglx5" class="st5" d="M330.5,227.4c0,0.6-0.4,1-1,1s-1-0.4-1-1s0.4-1,1-1S330.5,226.8,330.5,227.4z"/>
</g>
<g id="freepik--Plant--inject-27">
	<path id="elgy4egff6w5" class="st5" d="M110.3,442c-2.3-0.1-3-3.4-2.1-5.5s2.6-4,2.6-6.4c0-2-1.3-3.8-1.4-5.8
		c-0.2-3.6,3.3-6.5,3.4-10.1c0.1-2.8-1.8-5.5-1.4-8.3c0.5-3,3.6-4.9,4.3-7.9c0.8-3.1-1.4-6.4-0.6-9.5s4.5-5.4,4-8.5
		c-0.3-1-0.7-2-1.1-3c-0.7-2.4,0.6-4.8,2.2-6.7s3.5-3.6,4.4-5.8c1.5-3.5,0.5-7.7,2.2-11c1.5-2.8,4.7-4.6,5.1-7.8
		c1.6,2.8,0,6.4,0.4,9.6c0.3,2.1,1.3,4,2,6c1.4,4.2,0.9,8.7-1.2,12.5c-1.4,2.5-3.6,4.8-3.5,7.7c0.1,3.4,3.6,5.9,4.2,9.3
		c0.9,4.9-4.3,9.2-3.6,14.1c0.2,1.3,0.8,2.5,0.9,3.7c0.4,4.3-4.5,7.4-5.3,11.6c-0.5,3.1,1.3,6.4,0.5,9.5c-0.6,2.4-2.6,4.5-2.1,6.9
		c0.3,1,0.8,2,1.3,2.9c0.8,1.9,0.5,4.1-0.9,5.7c-1.4,1.6-3.7,2-5.6,1.1"/>
	<g id="eldshyeo2mrg">
		<g class="st7">
			<path id="ele7q8b311t9l" class="st4" d="M125.6,439.6c-0.5-0.9-1-1.9-1.3-2.9c-0.5-2.4,1.6-4.5,2.1-6.9c0.8-3.1-1.1-6.4-0.5-9.5
				c0.8-4.3,5.7-7.3,5.3-11.6c-0.1-1.3-0.7-2.5-0.9-3.7c-0.7-4.9,4.5-9.3,3.6-14.1c-0.6-3.4-4.1-5.9-4.2-9.3
				c-0.1-2.9,2.1-5.2,3.5-7.7c2.1-3.8,2.6-8.4,1.2-12.5c-0.7-2-1.8-3.9-2-6c-0.4-3.2,1.2-6.8-0.4-9.6c-0.4,3.1-3.6,5-5.1,7.8
				c-1.8,3.3-0.7,7.5-2.2,11c-1,2.3-2.9,3.9-4.4,5.8s-2.8,4.4-2.2,6.7c0.4,1,0.8,2,1.1,3c0.5,3.2-3.1,5.4-4,8.5s1.3,6.4,0.6,9.5
				c-0.7,2.9-3.8,4.9-4.3,7.9c-0.5,2.8,1.5,5.5,1.4,8.3c-0.2,3.6-3.6,6.5-3.4,10.1c0.1,2,1.4,3.8,1.4,5.8c0,2.3-1.7,4.2-2.6,6.4
				s-0.2,5.4,2.1,5.5l8.9,4.5c1.9,0.9,4.2,0.4,5.6-1.1C126.1,443.8,126.4,441.6,125.6,439.6z"/>
		</g>
	</g>
	<path id="elpzfsb1nrlg" class="st5" d="M122.6,437.5c-0.6-1-0.9-2.2-0.9-3.4c0.2-1.3,2.5-2.5,3-4.7c0.7-2.9-0.6-8,0-11
		c0.8-4,4.9-6.6,4.7-10.5c-0.1-1.2,0.1-4.3,0-5.4c-0.4-4.5,3.5-7.4,2.9-11.9c-0.4-3.1-3.6-6.7-3.6-9.9c0-2.6,1.9-4.9,3.1-7.3
		c1.9-3.6,2.4-7.7,1.4-11.6c-0.5-1.8-1.3-3.5-1.5-5.4c-0.2-2.9,1.2-6.3,0-8.8c-0.4,2.9-3.2,4.8-4.5,7.5c-1.6,3.2-0.8,7-2.2,10.3
		c-0.9,2.1-2.5,3.8-3.9,5.6s-2.5,4.2-2,6.3c0.2,0.9,0.7,1.7,0.8,2.7c0.3,2.9-2.8,5.2-3.5,8.1s0.9,5.8,0.2,8.8
		c-0.7,2.8-3.4,6.5-3.9,9.3c-0.5,2.6,1.9,4.3,1.7,6.9c-0.2,3.3-3.6,7.4-3.5,10.7c0,1.8,1.6,2.4,1.5,4.3c-0.1,2.1-1.9,6.4-2.7,8.4
		c-0.8,1.9-0.6,4,0.6,5.7l9.9,4.9C124.7,444.8,124.5,440.5,122.6,437.5z"/>
	<path id="elv53hjfceqd" class="st2" d="M129.3,362.7c0,0.1,0,0.1,0,0.2v0.6c0,0.6,0,1.4-0.1,2.5c-0.1,1.3-0.4,2.6-0.9,3.8
		c-0.8,1.5-1.8,3-3,4.3c-0.6,0.8-1.1,1.6-1.4,2.6c-0.3,1-0.4,2.1-0.4,3.2c0.1,2.2,0.8,4.6,1.1,7.1c0.2,1.3,0.2,2.6-0.1,3.9
		c-0.2,0.7-0.4,1.3-0.8,1.9c-0.4,0.6-0.7,1.1-1,1.7c-0.4,1.3-0.5,2.7-0.1,4c0.1,0.7,0.3,1.4,0.4,2.1c0.1,0.8,0.1,1.5-0.1,2.3
		c-0.3,1.4-0.7,2.8-1.4,4.2c-0.6,1.3-1.1,2.6-1.5,3.9c-0.4,1.3-0.5,2.7-0.3,4c0.2,1.3,0.2,2.6,0.1,3.9c-0.2,1.2-0.6,2.4-1.3,3.5
		c-0.5,1-1,2.1-1.2,3.2c-0.4,2.2,0.2,4.3,0.2,6.2c-0.1,1.7-0.5,3.5-1.1,5.1c-0.5,1.2-0.8,2.5-1,3.8c-0.1,0.8,0,1.6,0.3,2.4
		c0.2,0.5,0.3,0.8,0.3,0.8c-0.2-0.2-0.3-0.5-0.4-0.8c-0.3-0.8-0.4-1.6-0.3-2.5c0.2-1.3,0.5-2.6,0.9-3.8c0.6-1.6,1-3.3,1.1-5
		c0-1-0.1-2-0.2-3c-0.2-1.1-0.2-2.2,0-3.3c0.4-2.3,2.1-4.3,2.5-6.7c0.1-1.3,0-2.6-0.2-3.9c-0.2-1.4,0-2.8,0.3-4.1
		c0.8-2.7,2.4-5.1,2.9-8c0.1-0.7,0.1-1.4,0-2.1c-0.1-0.7-0.2-1.4-0.4-2.1c-0.4-1.4-0.4-2.9,0.1-4.3c0.3-0.6,0.7-1.2,1.1-1.8
		c0.3-0.6,0.6-1.2,0.7-1.8c0.3-1.2,0.3-2.5,0.1-3.8c-0.3-2.5-1-4.8-1.1-7.1c-0.1-1.1,0.1-2.2,0.4-3.3c0.3-1,0.8-1.9,1.5-2.7
		c1.2-1.3,2.2-2.7,3-4.2c0.5-1.2,0.8-2.5,0.9-3.8c0.1-1.1,0.1-1.9,0.2-2.5c0-0.3,0-0.5,0-0.6C129.1,362.9,129.2,362.8,129.3,362.7z"
		/>
	<path id="elgm3oa0d2i1r" class="st5" d="M96.2,443.2c-3.2,0.5-5.1-3.9-4.4-7s2.4-6.3,1.8-9.5c-0.5-2.8-2.8-5-3.5-7.7
		c-1.3-4.9,2.7-10,2-15c-0.6-3.9-4-7.1-4.2-11.1c-0.1-4.3,3.7-7.8,3.8-12.1c0.2-4.5-3.7-8.5-3.4-13.1s4.7-8.7,3.1-12.9
		c-0.5-1.4-1.7-2.5-2.3-3.8c-1.6-3.1-0.4-6.9,1.2-9.9s3.8-5.9,4.6-9.3c1.1-5.2-1.5-10.7,0-15.8c1.3-4.2,5.2-7.7,5-12.1
		c3,3.4,1.8,8.8,3.2,13.1c0.9,2.8,2.9,5.2,4.4,7.8c3,5.4,3.6,11.8,1.7,17.6c-1.3,3.8-3.6,7.6-2.7,11.6c1.1,4.7,6.6,7.3,8.4,11.8
		c2.5,6.5-3.4,14-1.1,20.5c0.6,1.7,1.7,3.2,2.2,4.9c1.7,5.9-4.3,11.4-4.1,17.6c0.1,4.5,3.5,8.5,3.3,13c-0.2,3.5-2.4,7-1.1,10.2
		c0.6,1.4,1.8,2.4,2.6,3.7c1.7,2.4,1.8,5.6,0.4,8.2c-1.5,2.5-4.5,3.8-7.4,3.1"/>
	<g id="elbtvrq2afjyn">
		<g class="st7">
			<path id="el8i818lfvzeg" class="st4" d="M116.7,435.6c-0.8-1.3-2-2.3-2.6-3.7c-1.4-3.2,0.9-6.7,1.1-10.2c0.2-4.5-3.2-8.5-3.3-13
				c-0.1-6.1,5.8-11.7,4.1-17.6c-0.5-1.7-1.6-3.2-2.2-4.9c-2.3-6.6,3.7-14,1.1-20.5c-1.8-4.5-7.2-7-8.4-11.8
				c-0.9-3.9,1.4-7.8,2.7-11.6c1.9-5.9,1.3-12.3-1.7-17.6c-1.5-2.6-3.5-4.9-4.4-7.8c-1.4-4.4-0.1-9.7-3.2-13.1
				c0.3,4.4-3.7,7.9-5,12.1c-1.5,5.1,1.1,10.6,0,15.8c-0.7,3.4-2.9,6.2-4.6,9.3s-2.8,6.8-1.2,9.9c0.7,1.3,1.8,2.4,2.3,3.8
				c1.6,4.2-2.8,8.4-3.1,12.9s3.6,8.5,3.4,13.1c-0.2,4.3-4,7.8-3.8,12.1c0.1,4,3.6,7.2,4.2,11.1c0.8,5-3.2,10.1-2,15
				c0.7,2.7,3,4.9,3.5,7.7c0.6,3.2-1.2,6.3-1.8,9.5s1.2,7.5,4.4,7l13.5,3.7c2.9,0.7,5.9-0.6,7.4-3.1
				C118.5,441.2,118.3,438.1,116.7,435.6z"/>
		</g>
	</g>
	<path id="elclfvuhnqzym" class="st5" d="M112,433.5c-1.1-1.3-1.9-2.8-2.2-4.5c0-1.9,2.7-4.1,2.9-7.4c0.2-4.2-3-11-3-15.2
		c0-5.7,4.9-10.5,3.6-15.9c-0.4-1.6-1-6-1.5-7.5c-1.8-6,2.8-11.3,0.8-17.2c-1.4-4.2-6.8-8.3-7.7-12.7c-0.7-3.6,1.3-7.3,2.3-10.9
		c1.6-5.4,1.2-11.3-1.3-16.4c-1.2-2.4-2.8-4.5-3.5-7.1c-1.1-4,0-9.1-2.5-12.2c0.2,4.1-3.1,7.5-4.2,11.6c-1.3,4.8,0.8,9.9-0.2,14.8
		c-0.6,3.2-2.4,6-3.8,8.9s-2.3,6.5-1.1,9.3c0.5,1.2,1.4,2.2,1.8,3.5c1.2,3.9-2.4,8-2.7,12.2s2.8,7.8,2.7,12.1
		c-0.2,4-2.9,9.9-2.8,13.9c0,3.7,3.8,5.4,4.2,9c0.6,4.7-3,11.2-2,15.8c0.6,2.5,2.8,2.9,3.2,5.5c0.5,3-0.8,9.3-1.4,12.3
		c-0.7,2.8,0.2,5.8,2.3,7.8l15.1,4.1C116.8,443.1,115.3,437.2,112,433.5z"/>
	<path id="elb7fucpe9zm" class="st2" d="M100.7,328.1c0.4,1.5,0.6,3.1,0.8,4.7c0.2,1.8,0.1,3.7-0.2,5.5c-0.3,1.1-0.6,2.2-1.2,3.3
		c-0.5,1.1-1.2,2.2-1.8,3.4c-0.7,1.2-1.1,2.6-1.3,4c-0.2,1.5,0,3,0.4,4.5c0.8,3.1,2.3,6.1,3.5,9.5c0.6,1.8,0.9,3.6,0.9,5.5
		c-0.1,1-0.2,1.9-0.6,2.8c-0.4,0.9-0.7,1.8-1,2.7c-0.5,1.9,0.3,3.8,1,5.6c0.4,0.9,0.8,1.9,1.1,2.9c0.3,1,0.5,2,0.5,3.1
		c0,2.1-0.2,4.1-0.8,6.1c-0.4,1.9-0.8,3.9-1,5.8c-0.1,1-0.1,1.9,0,2.9c0.1,0.9,0.3,1.9,0.6,2.8c0.6,1.7,1,3.6,1.3,5.4
		c0,1.8-0.2,3.5-0.8,5.2c-0.5,1.6-0.8,3.2-0.8,4.8c0.1,1.5,0.3,3,0.8,4.5c0.4,1.3,0.8,2.7,1.1,4.1c0.2,1.3,0.3,2.6,0.2,3.9
		c-0.1,1.2-0.2,2.4-0.4,3.4c-0.3,1.8-0.4,3.7-0.3,5.5c0.1,1.2,0.4,2.3,1,3.3c0.4,0.7,0.7,1,0.7,1c-0.3-0.3-0.5-0.6-0.8-1
		c-0.6-1-1-2.1-1.1-3.3c-0.1-1.8-0.1-3.7,0.2-5.5c0.1-1.1,0.3-2.2,0.3-3.4c0.1-1.3,0-2.6-0.2-3.8c-0.3-1.4-0.7-2.7-1.1-4.1
		c-0.5-1.5-0.8-3-0.8-4.6c0.1-1.7,0.3-3.3,0.8-4.9c0.5-1.7,0.8-3.4,0.7-5.1c-0.2-1.8-0.6-3.6-1.3-5.3c-0.3-0.9-0.5-1.9-0.6-2.8
		c-0.1-1-0.1-2,0-2.9c0.2-2,0.6-3.9,1.1-5.9c0.5-2,0.7-4,0.7-6c0-1-0.2-2-0.5-3c-0.3-1-0.7-1.9-1.1-2.8c-0.4-0.9-0.7-1.9-1-2.9
		c-0.2-1-0.2-2,0-3c0.3-0.9,0.6-1.9,1-2.8c0.3-0.9,0.5-1.8,0.5-2.7c0-1.8-0.3-3.6-0.9-5.3c-1.1-3.4-2.7-6.5-3.5-9.6
		c-0.4-1.5-0.5-3.1-0.3-4.6c0.2-1.4,0.6-2.8,1.3-4.1c0.6-1.2,1.3-2.3,1.8-3.4c0.5-1,0.9-2.1,1.2-3.2c0.4-1.8,0.5-3.6,0.3-5.5
		c-0.1-1.5-0.3-2.7-0.4-3.5c-0.1-0.4-0.1-0.7-0.1-0.9S100.7,328.1,100.7,328.1z"/>
	<path id="elavr841uymgo" class="st5" d="M94.2,445.3c-1.8,0.9-3.8-1.3-4-3.4s0.2-4.2-0.7-6c-0.8-1.6-2.6-2.4-3.6-3.9
		c-1.7-2.7-0.3-6.5-1.7-9.4c-1.1-2.2-3.8-3.5-4.6-5.8c-0.9-2.5,0.7-5.4,0-8c-0.8-2.8-3.9-4.4-4.6-7.1s1.2-6.1-0.6-8.3
		c-0.7-0.7-1.4-1.3-2.1-1.9c-1.5-1.5-1.6-4-1.2-6.1s1.2-4.3,0.9-6.4c-0.3-3.3-2.9-6.1-3-9.5c-0.1-2.8,1.6-5.6,0.6-8.2
		c2.5,1.5,2.8,4.9,4.4,7.3c1,1.5,2.7,2.5,4,3.8c2.8,2.6,4.5,6.3,4.4,10.2c0,2.5-0.7,5.3,0.6,7.5c1.6,2.6,5.3,3.1,7.3,5.4
		c2.8,3.4,0.6,9,3.3,12.5c0.7,0.9,1.7,1.6,2.3,2.5c2.2,3.2-0.3,7.7,0.9,11.3c0.9,2.7,3.7,4.4,4.5,7.1c0.6,2.1-0.1,4.6,1.3,6.3
		c0.7,0.6,1.5,1.2,2.3,1.7c1.5,1.1,2.2,3,1.8,4.8c-0.4,1.8-2,3.1-3.8,3.3"/>
	<g id="els73icrxrt3">
		<g class="st7">
			<path id="el8r89xdhcerc" class="st4" d="M105,436.8c-0.8-0.5-1.6-1.1-2.3-1.7c-1.4-1.6-0.8-4.2-1.3-6.3c-0.8-2.7-3.6-4.5-4.5-7.1
				c-1.3-3.6,1.2-8.1-0.9-11.3c-0.6-0.9-1.6-1.6-2.3-2.5c-2.7-3.5-0.5-9.1-3.3-12.5c-1.9-2.4-5.7-2.8-7.3-5.4
				c-1.3-2.2-0.6-4.9-0.6-7.5c0-3.9-1.6-7.6-4.5-10.2c-1.4-1.3-3-2.3-4.1-3.8c-1.7-2.3-2-5.8-4.4-7.3c1,2.6-0.7,5.4-0.6,8.2
				c0.1,3.3,2.7,6.2,3,9.5c0.2,2.2-0.5,4.3-0.9,6.4s-0.3,4.6,1.2,6.1c0.7,0.6,1.5,1.2,2.1,1.9c1.8,2.2-0.1,5.6,0.6,8.3
				s3.8,4.4,4.6,7.1c0.7,2.6-0.8,5.5,0,8c0.8,2.4,3.5,3.6,4.6,5.8c1.4,2.9,0,6.6,1.7,9.4c1,1.5,2.7,2.4,3.6,3.9c1,1.8,0.5,4,0.7,6
				s2.2,4.3,4,3.4l8.8-0.4c1.9-0.1,3.4-1.5,3.8-3.3C107,439.8,106.4,438,105,436.8z"/>
		</g>
	</g>
	<path id="elqugp5wmks4" class="st5" d="M101.8,436.5c-0.9-0.5-1.7-1.3-2.2-2.3c-0.4-1.1,0.8-3,0.3-5c-0.7-2.6-3.9-6-4.8-8.5
		c-1.1-3.4,0.9-7.2-0.9-10.2c-0.5-0.9-1.8-3.4-2.3-4.2c-2.3-3.3-0.5-7.3-2.9-10.5c-1.6-2.2-5.7-3.6-7.1-6.1c-1.1-2-0.7-4.6-0.7-7
		c-0.1-3.6-1.5-7-3.9-9.6c-1.3-1.1-2.4-2.3-3.5-3.5c-1.4-2.2-1.8-5.4-3.8-6.8c0.9,2.4-0.4,5.1-0.3,7.7c0.2,3.1,2.4,5.8,2.8,8.9
		c0.3,2-0.3,4-0.6,6s-0.1,4.3,1.2,5.8c0.6,0.6,1.2,1.2,1.8,1.8c1.5,2.1,0.1,5.2,0.8,7.8s3.2,4.1,3.9,6.7s0.2,6.5,1,8.9
		c0.8,2.2,3.3,2.5,4.3,4.6c1.3,2.7,0.4,7.3,1.9,9.8c0.8,1.4,2.3,1.2,3,2.7c0.8,1.7,1.3,5.7,1.6,7.6c0.2,1.8,1.3,3.4,2.9,4.2l9.8-0.5
		C106.5,441.3,104.5,438,101.8,436.5z"/>
	<path id="ellx5vrhzml" class="st2" d="M74.6,375.5c0,0,0,0,0.1,0.2l0.3,0.5c0.2,0.4,0.6,1.1,1,2c0.5,1.1,0.8,2.2,1,3.4
		c0,1.5-0.1,3.1-0.5,4.6c-0.2,0.9-0.2,1.7,0,2.6c0.2,0.9,0.6,1.8,1.1,2.6c1,1.7,2.6,3.2,3.9,5c0.7,0.9,1.3,2,1.6,3.1
		c0.2,0.6,0.2,1.2,0.2,1.8c-0.1,0.6-0.1,1.2-0.1,1.8c0.2,1.2,0.8,2.3,1.6,3.1c0.4,0.5,0.8,1,1.2,1.5c0.4,0.5,0.7,1.1,0.9,1.8
		c0.4,1.2,0.7,2.5,0.7,3.8c0.1,1.2,0.3,2.5,0.5,3.7c0.3,1.2,0.7,2.3,1.4,3.2c0.7,0.9,1.3,1.9,1.8,3c0.4,1.1,0.5,2.2,0.6,3.3
		c0,1,0.2,2,0.4,3c0.6,1.9,2,3.2,2.8,4.8c0.7,1.4,1.1,2.9,1.3,4.4c0.2,1.1,0.5,2.3,0.9,3.3c0.3,0.7,0.7,1.3,1.2,1.8
		c0.4,0.3,0.6,0.5,0.6,0.5c-0.2-0.1-0.4-0.3-0.7-0.4c-0.6-0.5-1-1.1-1.3-1.8c-0.4-1.1-0.8-2.2-0.9-3.4c-0.2-1.5-0.7-3-1.3-4.3
		c-0.8-1.5-2.2-2.8-2.9-4.8s-0.2-4.2-1-6.3c-0.5-1-1.1-2-1.8-2.9c-0.7-1-1.2-2.1-1.5-3.3c-0.6-2.4-0.4-5-1.2-7.5
		c-0.2-0.6-0.5-1.1-0.9-1.7c-0.4-0.5-0.8-1-1.2-1.5c-0.9-0.9-1.5-2.1-1.7-3.3c0-0.6,0-1.2,0-1.8c0-0.6-0.1-1.2-0.2-1.7
		c-0.3-1.1-0.8-2.1-1.5-3c-1.3-1.8-2.9-3.3-3.9-5.1c-0.5-0.8-0.9-1.8-1.1-2.7c-0.2-0.9-0.2-1.8,0-2.7c0.4-1.5,0.5-3,0.5-4.5
		c-0.1-1.1-0.4-2.3-0.9-3.3c-0.4-0.9-0.7-1.5-0.9-2l-0.3-0.5C74.7,375.7,74.7,375.6,74.6,375.5z"/>
	<polygon id="elqk943p19a" class="st2" points="83.2,437.5 83.9,445.3 130.4,445.3 130.9,437.5 	"/>
	<polygon id="el4h8fq3x5mab" class="st2" points="85.9,443.3 92,466.6 123.3,466.7 128,443.9 	"/>
	<path id="elngh6sujyhcj" class="st3" d="M130.2,445.2c0,0.1-10.4,0.2-23.2,0.2s-23.2-0.1-23.2-0.2S94.2,445,107,445
		S130.2,445.1,130.2,445.2z"/>
</g>
<g id="freepik--Character--inject-27">
	<path id="eljj2xcrexqrm" class="st5" d="M374.3,434.9l-0.7,33.5l44.1,1c-0.2-4-22.8-12.5-22.8-12.5l1.4-21.4L374.3,434.9z"/>
	<g id="elin9ujuoitsj">
		<g class="st9">
			<path id="elz6mb1lzetw8" class="st4" d="M381.3,454.8c-0.9,0.2-1.4,1-1.3,1.9c0.2,0.9,1.1,1.4,2,1.2c0.9-0.2,1.5-1.1,1.4-2
				c-0.4-0.9-1.3-1.3-2.2-1.1"/>
		</g>
	</g>
	<g id="el1lribsfbvby">
		<g class="st9">
			<path id="elzt9ayhr6qbl" class="st4" d="M373.5,468.4l0.2-3.4l42.2,2.3c0,0,1.9,0.9,1.7,2.2L373.5,468.4z"/>
		</g>
	</g>
	<path id="elhfif5uxnn1i" class="st2" d="M395.6,456.7c0,0.2-1.1,0.3-2.2,0.9s-1.7,1.5-1.9,1.4s0.1-1.3,1.5-2
		S395.7,456.5,395.6,456.7z"/>
	<path id="el1okruwu4qh8h" class="st2" d="M400.2,458.6c0,0.2-0.9,0.5-1.6,1.4s-1,1.8-1.2,1.7s-0.3-1.2,0.6-2.2
		S400.2,458.4,400.2,458.6z"/>
	<path id="elm28bj9p64kf" class="st2" d="M402.7,463.9c-0.2,0-0.5-1,0.1-2.1s1.6-1.5,1.7-1.4s-0.5,0.8-1,1.7
		S402.9,463.9,402.7,463.9z"/>
	<path id="el5oxhauunyqc" class="st2" d="M395.4,451.8c-0.1,0.2-1.1-0.1-2.3-0.1s-2.2,0.4-2.3,0.2s0.8-0.9,2.3-0.9
		S395.5,451.6,395.4,451.8z"/>
	<path id="el3blrk1t18ox" class="st2" d="M394.4,446.8c-0.7,0.2-1.5,0.1-2.2-0.1c-0.8-0.2-1.6-0.4-2.3-0.7c-0.4-0.2-0.8-0.4-1.3-0.7
		c-0.2-0.1-0.5-0.3-0.6-0.5c-0.3-0.3-0.3-0.8-0.1-1.1c0.2-0.3,0.6-0.5,1-0.4c0.3,0,0.6,0.1,0.8,0.1c0.5,0.1,0.9,0.3,1.4,0.5
		c0.7,0.3,1.4,0.8,2,1.3c1,0.9,1.3,1.7,1.3,1.7s-0.6-0.6-1.6-1.4c-0.6-0.4-1.3-0.8-2-1.1c-0.4-0.2-0.8-0.3-1.3-0.4
		c-0.5-0.1-0.9-0.1-1,0s0,0.1,0,0.2c0.1,0.1,0.3,0.3,0.5,0.4c0.4,0.2,0.8,0.5,1.1,0.7c0.7,0.3,1.4,0.6,2.1,0.8
		C393.1,446.4,393.8,446.6,394.4,446.8z"/>
	<path id="elhsfrzx8ctt" class="st2" d="M394.1,447.1c-0.1,0-0.5-0.7-0.5-2c0-0.8,0.1-1.5,0.4-2.3c0.2-0.4,0.4-0.9,0.6-1.3
		c0.3-0.6,0.8-0.9,1.4-1c0.4,0,0.8,0.2,0.9,0.6c0.1,0.2,0.2,0.5,0.2,0.8c0.1,0.5,0.1,0.9,0,1.4c-0.1,0.8-0.5,1.5-1,2.1
		c-0.9,1.1-1.8,1.3-1.8,1.2s0.7-0.5,1.4-1.5c0.4-0.6,0.6-1.3,0.8-2c0.1-0.4,0.1-0.8,0-1.2c-0.1-0.5-0.2-0.8-0.4-0.8
		s-0.6,0.3-0.8,0.7c-0.2,0.3-0.4,0.7-0.6,1.1c-0.3,0.7-0.4,1.4-0.5,2.1C394.1,446.3,394.3,447.1,394.1,447.1z"/>
	<path id="el5xh2ak7njrk" class="st5" d="M340.8,437.7l-4.2,33.2l-43.8-5.4c0.7-3.9,24.3-9,24.3-9L319,435L340.8,437.7z"/>
	<g id="eloiwz6ggtp6">
		<g class="st9">
			<path id="elk2ob5vjb6c" class="st4" d="M331,456.3c0.8,0.3,1.3,1.2,1,2.1c-0.4,0.8-1.3,1.2-2.1,0.9c-0.9-0.3-1.3-1.3-1-2.2
				c0.5-0.8,1.5-1.1,2.4-0.7"/>
		</g>
	</g>
	<g id="eld680okl02pc">
		<g class="st9">
			<path id="elkxu35q4htl8" class="st4" d="M336.6,470.9l0.3-3.4l-42.1-4c0,0-2,0.6-2,1.9L336.6,470.9z"/>
		</g>
	</g>
	<path id="el360m8j3wbsv" class="st2" d="M316.5,456.1c0,0.2,1,0.4,2,1.2s1.5,1.7,1.6,1.7s0-1.3-1.2-2.2S316.5,455.9,316.5,456.1z"
		/>
	<path id="elyz5i19v2svb" class="st2" d="M311.7,457.4c-0.1,0.2,0.8,0.6,1.4,1.6s0.7,1.9,0.9,1.9s0.5-1.1-0.3-2.3
		S311.7,457.2,311.7,457.4z"/>
	<path id="el8iewnptfqc5" class="st2" d="M308.5,462.2c0.2,0.1,0.6-0.9,0.2-2.1s-1.4-1.7-1.5-1.6s0.4,0.8,0.8,1.8
		S308.3,462.2,308.5,462.2z"/>
	<path id="ellv0ra9yh8hg" class="st2" d="M317.5,451.3c0.1,0.2,1.1,0,2.3,0.3s2.1,0.7,2.2,0.5s-0.7-1-2.1-1.2
		S317.4,451.1,317.5,451.3z"/>
	<path id="elhx3yjm30iqq" class="st2" d="M319.1,446.5c0.7,0.3,1.4,0.4,2.2,0.3c0.8,0,1.6-0.2,2.4-0.4c0.5-0.1,0.9-0.3,1.3-0.5
		c0.3-0.1,0.5-0.2,0.7-0.4c0.3-0.3,0.4-0.7,0.2-1.1c-0.2-0.3-0.5-0.5-0.9-0.6c-0.3,0-0.6,0-0.8,0c-0.5,0-1,0.1-1.4,0.3
		c-0.8,0.2-1.5,0.6-2.2,1c-1.1,0.8-1.6,1.5-1.5,1.5s0.7-0.5,1.8-1.1c0.7-0.4,1.4-0.6,2.1-0.8c0.4-0.1,0.9-0.2,1.3-0.2
		c0.5-0.1,0.9,0,1,0.2s0,0.1-0.1,0.2c-0.2,0.1-0.3,0.2-0.5,0.3c-0.4,0.2-0.8,0.3-1.2,0.5c-0.7,0.2-1.5,0.4-2.2,0.5
		C320.6,446.3,319.8,446.4,319.1,446.5z"/>
	<path id="el4k40u90k6wg" class="st2" d="M319.4,446.8c0.1,0,0.6-0.6,0.8-1.9c0.1-0.8,0.1-1.5,0-2.3c-0.1-0.5-0.2-0.9-0.4-1.3
		c-0.2-0.6-0.7-1.1-1.3-1.2c-0.4-0.1-0.8,0.1-1,0.5c-0.1,0.2-0.3,0.5-0.3,0.7c-0.1,0.5-0.2,0.9-0.2,1.4c0,0.8,0.3,1.6,0.7,2.3
		c0.7,1.2,1.6,1.5,1.6,1.5c-0.4-0.5-0.8-1.1-1.1-1.7c-0.3-0.6-0.5-1.3-0.5-2c0-0.4,0.1-0.8,0.2-1.2c0.1-0.4,0.3-0.8,0.5-0.7
		s0.5,0.4,0.7,0.8c0.2,0.4,0.3,0.8,0.4,1.2c0.2,0.7,0.2,1.4,0.2,2.1C319.6,446.1,319.3,446.8,319.4,446.8z"/>
	<path id="elnamdtzo2fn" class="st2" d="M412.5,257l-72.7,2.3c0,0-16.2,108.1-15.7,115.6l-10,78.4l29,1c0,0,4.6-25.4,7.8-42.8
		c2.1-11.6,6-28.5,7-38.2s15.6-76.2,15.6-76.2s1.3,77.4,1.3,80.6s-3.4,76.6-3.4,76.6h28.8c1.5-13.2,5-66.2,5.8-76.9
		c1.4-19.3,8.1-74.9,8.8-88.9S412.5,257,412.5,257z"/>
	<path id="eljzb11fk0zds" class="st3" d="M350.8,268.6c-0.3-1.1-0.4-2.2-0.4-3.4c-0.1-1.1-0.1-2.3,0.1-3.4c0.3,1.1,0.4,2.2,0.4,3.4
		C351.1,266.3,351.1,267.5,350.8,268.6z"/>
	<path id="elb93xuu7tzr7" class="st3" d="M353.5,267.8c-0.2-1.9,0-3.8,0.5-5.7C354.2,264,354,265.9,353.5,267.8z"/>
	<path id="el2nw7by2gtyl" class="st3" d="M397.9,267.8c-0.3-1.6-0.3-3.3,0-4.9C398.2,264.5,398.2,266.2,397.9,267.8z"/>
	<path id="elzftrv0x9wch" class="st3" d="M400.7,269.1c-0.4-1-0.5-2.1-0.3-3.2c0-1.1,0.3-2.1,0.8-3.1c0,1-0.1,2.1-0.3,3.1
		C400.9,267,400.8,268.1,400.7,269.1z"/>
	<path id="elmsi97vbh0x" class="st3" d="M377.5,295.3c0-0.4,0.1-0.8,0.2-1.3c0.1-0.9,0.4-2,0.6-3.4c0.5-2.9,1-6.9,1.4-11.3
		s0.5-8.5,0.4-11.4c0-1.4,0-2.5,0-3.5c0-0.4,0-0.8,0-1.3c0.1,0.4,0.2,0.8,0.2,1.3c0.1,0.8,0.1,2,0.2,3.5c0.1,3.8,0,7.7-0.3,11.5
		c-0.3,3.8-0.8,7.6-1.5,11.4c-0.3,1.4-0.5,2.6-0.7,3.4C377.8,294.5,377.7,294.9,377.5,295.3z"/>
	<path id="elmtnw8vd62j" class="st3" d="M375.1,263.9c-0.6,0.1-1.1,0.4-1.5,0.8c-0.4,0.4-0.6,1-0.5,1.6c0.2,0.7,0.8,1.2,1.5,1.3
		c0.7,0.2,1.4-0.1,1.8-0.7c0.3-0.5,0.4-1.1,0.2-1.7c-0.3-1-1.1-1.2-1-1.3s0.2,0,0.5,0.1c0.4,0.2,0.7,0.6,0.9,1
		c0.3,0.7,0.3,1.4-0.1,2.1c-0.7,1-2.2,1.3-3.2,0.5c-0.5-0.3-0.8-0.8-0.9-1.3c-0.1-0.7,0.2-1.4,0.7-2c0.3-0.3,0.8-0.6,1.2-0.6
		C374.9,263.9,375.1,263.9,375.1,263.9z"/>
	<path id="ellx8oksz0gw" class="st3" d="M343.4,383.2c-2.5-0.8-5-1.7-7.4-2.8c-2.5-0.9-4.8-2-7.2-3.2c2.5,0.8,5,1.7,7.4,2.8
		C338.7,380.9,341.1,381.9,343.4,383.2z"/>
	<path id="eld4jg7cyi7u" class="st5" d="M416.3,261.8c-0.3-0.9-6-48.9-6-48.9l3-62.3l-25.9-9.1l-4.1-3.1l-26,0.3l-3,4.4l-24.6,11.2
		l6.9,51l1.9,42.7l1.8,15.8l73.1,4.4L416.3,261.8z"/>
	<g id="el1skpjscxtr7">
		<g class="st10">
			<path id="el6kchdgvm5t3" d="M412.4,229.8l-27.4,3.3c-0.3,2,1.3,3.9,3.2,4.7c1.9,0.7,4,0.8,6,0.4c2-0.4,4-0.6,6.1-0.6
				c2,0.2,4,1,6.1,0.9c3.7-0.2,6.5-3.4,6.3-7.1C412.6,230.9,412.5,230.4,412.4,229.8L412.4,229.8z"/>
		</g>
	</g>
	<path id="elkjvw3582769" class="st5" d="M413.3,150.7c0,0,6.1,0.8,9.6,11.5s11.9,49.2,12.4,51.8s-1.8,11.1-11,14.9
		c-8.9,3.6-15.9,2.5-15.9,2.5v-19.5l3.9-4.3l-1.5-6.9L413.3,150.7z"/>
	<path id="elfcwhl7k2q2" class="st2" d="M429.8,208.7c-0.3-0.1-0.6-0.2-0.9-0.4c-0.6-0.3-1.5-0.6-2.5-1c-1.3-0.5-2.6-0.8-3.9-1.1
		c-0.8-0.2-1.6-0.3-2.4-0.3c-0.8-0.1-1.7,0-2.5,0.1c-2.9,0.6-5.6,2.1-7.6,4.4c-0.6,0.7-1,1.5-1.3,2.4c-0.1,0.3-0.2,0.6-0.3,0.9
		c0-0.1,0-0.2,0-0.3c0-0.2,0.1-0.4,0.2-0.7c0.3-0.9,0.7-1.7,1.3-2.4c1.9-2.4,4.7-4,7.7-4.6c0.9-0.2,1.7-0.2,2.6-0.1
		c0.8,0,1.6,0.2,2.4,0.3c1.3,0.3,2.6,0.7,3.9,1.2c1.1,0.4,1.9,0.8,2.5,1.1l0.7,0.3L429.8,208.7z"/>
	<path id="elcj2d9jxy9ah" class="st2" d="M424.3,205.1c0,0.1-0.7-0.3-2-0.5c-3.2-0.7-6.6,0.2-9.1,2.3c-1,0.8-1.4,1.4-1.5,1.4
		s0.1-0.2,0.3-0.4c0.3-0.4,0.6-0.8,1-1.1c2.5-2.3,6-3.1,9.3-2.3c0.5,0.1,1,0.3,1.4,0.5C424,204.9,424.1,205,424.3,205.1z"/>
	<path id="elnomf0w9vysl" class="st2" d="M411.3,166.6c0.1,0,0,9.5-0.1,21.2s-0.3,21.2-0.4,21.2s0-9.5,0.1-21.2
		S411.2,166.6,411.3,166.6z"/>
	<path id="elp028waz7l8h" class="st2" d="M344.9,86.2c-2.6-0.6-5.4,0.3-7,2.4c-1.6,2.2-1.6,5.1-0.1,7.3c1.4,1.7,3.4,2.8,5.7,2.8
		c2.2,0,4.4-0.5,6.3-1.6l0.3-5.6C349.5,89,347.5,86.9,344.9,86.2z"/>
	<path id="elmks0lszzhda" class="st2" d="M360.1,107.3c2.8,4.5,4.4,9.6,4.6,14.9c0.1,5.3-1.8,10.7-5.7,14.2
		c-0.7,0.7-1.7,1.2-2.7,1.2c-1,0-2-1.1-1.6-2c-0.8,1.6-1.8,3-3.2,4.2c-0.4,0.4-1,0.7-1.5,0.7c-0.9-0.1-1.5-0.9-1.5-1.7
		c0-0.8,0.2-1.7,0.6-2.4c-1,0-1.9,0.8-2.7,1.3s-2.2,0.8-2.8-0.1s-0.1-1.8,0.3-2.6c2-3.7,4-7.6,4.1-11.8c0.1-3-0.9-6-0.5-8.9
		c0.6-3.7,3.1-6.7,6.6-8C356.2,105.8,358.6,105.8,360.1,107.3"/>
	<path id="elbbj75k2qubm" class="st2" d="M383.9,129c1.8-2.9,5.6-4.1,7-7.2c2.5-5.5,1.7-10.3,1.1-16.3c-0.4-4.1-0.4-9.9-3.2-13
		c-1.9-2.2-3.3-3.5-5-5.8c-1.9-2.5-4-5.6-2.5-8.3"/>
	<path id="el6tmgdvs40s4" class="st2" d="M383.1,129.1c1.1-1.3,2.7-2.1,4.4-2.1c0.9,0,1.7,0.2,2.5,0.5l-8.7-49.7
		c2.2-0.5,7.8,2.2,9.4,3.8c1.5,1.7,2.8,3.7,3.7,5.8c4.2,8.4,2.4,19.1-1,27.3l0,0c3.1,6.5,3.6,12.7-0.1,17l-0.1,0.1l-0.5,0.6
		c-1.2,1.4-1.7,3.2-1.3,5v0.1c0.2,0.5,0.2,1,0.2,1.6c0,0.5-0.3,1-0.8,1.3c-0.8,0.4-1.7-0.3-2.1-1.1c-0.3-0.8-0.7-1.6-1.2-2.3
		c-0.4,1-0.8,1.9-1.1,2.9c-0.5,0.9-1.6,1.7-2.5,1.2c-0.4-0.3-0.6-0.6-0.8-1c-0.9-1.7-1.5-3.6-1.8-5.5
		C381.3,132.7,381.9,130.7,383.1,129.1z"/>
	<path id="elfci6tmhpw3w" class="st11" d="M353.9,101.4l3.4,37.3c0.8,7.4,17.1,11.9,17.1,11.9l4.5,5.4l1.9-6c1.2-1.9,3.6-4.1,3.2-8
		c-0.4-3.3-0.6-7.1-0.6-7.5c0,0,10.7-3.2,10.3-14.2c-0.2-5.3-0.9-14.2-2.2-24.1c-1.4-10.6-10.7-18.4-21.3-17.9h-1.1
		C357.7,79.7,352.4,90.1,353.9,101.4z"/>
	<path id="elpjkdc4g8py" class="st12" d="M383.5,134.7c-5.1,0.3-10.1-0.8-14.5-3.4c0,0,3.8,7.8,14.7,6.3L383.5,134.7z"/>
	<path id="elei4qkbcwz8f" class="st2" d="M386.8,107c0.1,0.9-0.6,1.6-1.4,1.7c-0.8,0.1-1.6-0.5-1.7-1.3c0,0,0,0,0-0.1
		c-0.1-0.9,0.6-1.6,1.4-1.7C385.9,105.6,386.7,106.1,386.8,107C386.8,107,386.8,107,386.8,107z"/>
	<path id="el8gqbf4yudex" class="st2" d="M389,101.5c-0.2,0.2-1.4,0-3,0.5s-2.7,1.3-2.9,1.2s0-0.3,0.5-0.6c0.7-0.5,1.5-0.9,2.3-1.1
		c0.8-0.2,1.6-0.3,2.5-0.2C388.9,101.2,389.1,101.4,389,101.5z"/>
	<path id="eliemtreoh97" class="st2" d="M370.8,107.6c0.1,0.9-0.6,1.6-1.4,1.7c-0.8,0.1-1.6-0.5-1.7-1.3c0,0,0,0,0,0
		c0-0.8,0.6-1.6,1.4-1.7C370,106.2,370.7,106.7,370.8,107.6C370.8,107.6,370.8,107.6,370.8,107.6z"/>
	<path id="eltox4cu7sjob" class="st2" d="M372.7,104.2c-0.2,0.1-1.2-0.7-2.9-1.1s-3-0.3-3.1-0.4s0.2-0.2,0.8-0.3
		c0.9-0.1,1.7,0,2.5,0.2c0.8,0.2,1.6,0.5,2.2,1C372.7,103.9,372.8,104.2,372.7,104.2z"/>
	<path id="el414lliujnxa" class="st2" d="M379.6,115.2c0.9-0.3,1.8-0.5,2.7-0.6c0.4-0.1,0.8-0.2,0.9-0.5c0-0.4-0.1-0.9-0.4-1.3
		c-0.5-1-0.9-2.1-1.4-3.2c-2-4.6-3.5-8.4-3.3-8.5s2,3.6,4,8.2l1.4,3.3c0.3,0.5,0.4,1.1,0.3,1.7c-0.1,0.3-0.4,0.6-0.7,0.7
		c-0.2,0.1-0.5,0.1-0.7,0.1C381.4,115.2,380.5,115.3,379.6,115.2z"/>
	<path id="elp9yj0d358rn" class="st2" d="M374.6,116.6c0.3,0,0.4,1.8,2,3s3.6,0.9,3.6,1.2s-0.4,0.4-1.2,0.4c-1.1,0.1-2.1-0.3-3-0.9
		c-0.8-0.6-1.4-1.5-1.5-2.6C374.3,117.1,374.5,116.6,374.6,116.6z"/>
	<path id="ele4kfqvs77c6" class="st2" d="M372.3,95.2c-0.1,0.5-1.8,0.3-3.8,0.7s-3.5,0.9-3.8,0.6c-0.1-0.2,0.1-0.6,0.8-1.1
		c0.8-0.6,1.8-1,2.8-1.1c1-0.2,2-0.1,3,0.2C371.9,94.7,372.3,95,372.3,95.2z"/>
	<path id="elhe6cfmy459p" class="st2" d="M389,96.8c-0.3,0.4-1.6,0.1-3,0.3s-2.7,0.5-3.1,0.2c-0.1-0.2,0-0.6,0.5-1
		c0.7-0.5,1.5-0.8,2.4-0.9c0.9-0.1,1.7,0.1,2.5,0.5C388.9,96.2,389.1,96.6,389,96.8z"/>
	<path id="elox909tk5p5" class="st2" d="M339.1,118c-1.4-0.5-1.1-4.8,0.3-6.4c3.7-4.1,9-17,9-17c2.1-5.4,1.1-9.9,6.6-15.5
		c4-4.1,9.3-7.3,15-7.2s11.5,3.7,13.2,9.3l-1-1.4c0.4,2-1.7,3.7-3.6,4s-4-0.3-5.9-0.2c-3.9,0.2-7.3,2.8-9.3,6.2
		c-1.8,3.5-2.8,7.4-2.9,11.3c-0.2,3.9,0,7.9-0.3,11.8c-0.3,4.2-2.6,5.8-5.5,8.8c-2.8,2.9-5.3,6-7.5,9.3c-1,1.3-2.5,2.1-4.2,2.1
		c-1.3-0.2-1.7-2-2-3.3s0.5-2.9,0.5-4.8c-1.2-0.5-2.1-1.7-2.3-3C338.9,120.7,340.4,118.4,339.1,118z"/>
	<path id="elp70536lqy4" class="st11" d="M356.3,111.9c-0.2-0.1-7.7-1.9-7.1,5.6s8,5.4,8,5.2S356.3,111.9,356.3,111.9z"/>
	<path id="el603iphngqgc" class="st12" d="M354.7,120.1c0,0-0.1,0.1-0.3,0.2c-0.3,0.2-0.7,0.2-1,0.1c-0.8-0.2-1.6-1.4-1.7-2.8
		c-0.1-0.6,0-1.3,0.2-1.9c0.1-0.5,0.4-0.9,0.9-1.1c0.3-0.1,0.6,0,0.8,0.3c0.1,0.2,0.1,0.3,0.1,0.4s0.1-0.1,0.1-0.4
		c-0.1-0.2-0.2-0.3-0.3-0.4c-0.2-0.1-0.5-0.2-0.7-0.1c-0.6,0.2-1.1,0.7-1.3,1.3c-0.3,0.7-0.4,1.4-0.3,2.1c0.2,1.5,1,2.9,2.2,3.1
		c0.4,0.1,0.9,0,1.2-0.3C354.7,120.2,354.8,120.1,354.7,120.1z"/>
	<path id="eloui3r37ujtf" class="st2" d="M411.8,209.9l-14.5-0.2c-1,0-1.9,0.5-2.4,1.4l-10,21.6l0.4,1.5h16.9l9.9-22.2L411.8,209.9z
		"/>
	<path id="elc883g6avtpv" class="st11" d="M411.6,212.7l-0.5,1.2l-3,6c0,0-7.6-0.7-8.8-0.9s-1.9,1.1-1.9,1.9c0,0.6,0.3,1.2,0.6,1.6
		c0,0-4.7-1.5-6.3-2.6s-2.4-0.4-2.4-0.4c-0.9-0.8-2.3-0.8-3.1,0.1c-0.1,0.1-0.2,0.2-0.3,0.3c0.6,2,1.3,3.8,2.3,5.6
		c0.6,1,4.2,4.4,4.4,4.8s3,1.1,6.1,2.8c1.7,1,3.9,0.8,5.4-0.6h0.4c0.7-0.1,2.6-1.9,3.1-1.9s0.9-0.1,1.8-1.1c1.8-2.5,3.2-5.1,4.2-8
		c0.6-1.9,0.2-2.4,0.1-2.5c0.9,0.4,1.8,0.7,2.8,0.8c2,0.3,3-1.1,3.2-3.8S413.9,213.4,411.6,212.7z"/>
	<path id="elnk7li770sy" class="st12" d="M410.6,225.1c-0.2,0.1-0.3,0.1-0.5,0.1c-0.3,0.1-0.8,0.1-1.4,0.2c-3.1,0.2-6.2-0.5-9-2
		c-0.4-0.2-0.8-0.5-1.2-0.7c-0.1-0.1-0.3-0.2-0.4-0.3c0,0,0.6,0.4,1.7,0.9c1.4,0.7,2.8,1.2,4.4,1.5c1.5,0.3,3.1,0.5,4.6,0.4
		C409.9,225.2,410.6,225.1,410.6,225.1z"/>
	<path id="elq1g5cntfll" class="st12" d="M410.8,219.7c-1.1,0.5-2.4,0.5-3.6,0.2c0-0.1,0.8,0,1.8,0S410.7,219.6,410.8,219.7z"/>
	<path id="elc9bcqnxr6k" class="st12" d="M414.4,219.4c0,0.1-1.1-0.4-2.5-0.8s-2.5-0.6-2.5-0.6c0.9,0,1.8,0.1,2.6,0.4
		C412.8,218.6,413.6,219,414.4,219.4z"/>
	<path id="elm87xsj7ydn" class="st12" d="M413.7,214.3c0.1,0-0.2,0.9-0.2,1.9c0,0.4,0,0.9,0.1,1.3c0.1,0.2,0.2,0.3,0.3,0.4
		c0,0-0.1,0-0.2,0c-0.1-0.1-0.2-0.2-0.3-0.3c-0.2-0.4-0.3-0.9-0.2-1.4C413.2,215.6,413.3,214.9,413.7,214.3z"/>
	<path id="eleefgqnck6kq" class="st12" d="M406.3,229.8c-0.1,0-0.2,0-0.2,0h-0.7c-0.6,0-1.4-0.1-2.5-0.2c-1.2-0.1-2.4-0.4-3.6-0.8
		c-0.7-0.2-1.4-0.5-2-0.9c-0.7-0.4-1.3-0.8-2-1.2c-3-1.9-5.8-3.7-7.5-4.8l0,0v-0.1c0.1-0.9,0.6-1.6,1.4-2c0.1,0,0.2-0.1,0.2-0.1
		c-0.2,0.1-0.4,0.3-0.6,0.4c-0.5,0.4-0.8,1-0.9,1.7v-0.1c1.8,1.1,4.5,2.8,7.5,4.8c0.7,0.4,1.3,0.9,2,1.2c0.6,0.4,1.3,0.6,2,0.9
		c1.2,0.4,2.4,0.7,3.6,0.8c1,0.1,1.9,0.2,2.5,0.3l0.7,0.1L406.3,229.8z"/>
	<path id="elv319jyy4pj8" class="st12" d="M403.8,232.4c-0.2,0-0.5,0-0.7-0.1c-0.5-0.1-1.1-0.2-1.9-0.4c-2.1-0.5-4.2-1.1-6.2-1.9
		c-1.1-0.5-2.1-1.1-3.1-1.8c-0.8-0.6-1.5-1.3-2.1-2c-0.5-0.6-1-1.1-1.3-1.5c-0.2-0.2-0.3-0.4-0.4-0.6c0.2,0.2,0.3,0.3,0.5,0.5
		c0.3,0.3,0.8,0.9,1.3,1.4c0.6,0.7,1.4,1.4,2.1,2c0.9,0.7,1.9,1.3,3,1.8c2,0.8,4,1.5,6.1,2c0.8,0.2,1.5,0.3,1.9,0.4
		C403.3,232.3,403.5,232.3,403.8,232.4z"/>
	<path id="elcphswpn9sp5" class="st2" d="M332.5,166.9c-0.6-1.4-1.1-2.9-1.5-4.4c-0.5-1.5-0.9-3-1.3-4.5c0.6,1.4,1.1,2.9,1.5,4.4
		C331.8,163.8,332.2,165.3,332.5,166.9z"/>
	<path id="elufd3zyyvkkl" class="st2" d="M413.1,153.7c0,0.4-0.1,0.9-0.1,1.3c-0.1,0.9-0.3,2-0.4,3.1s-0.3,2.2-0.4,3.1
		c0,0.4-0.1,0.9-0.2,1.3c0-0.4,0-0.9,0-1.3c0-0.8,0.1-1.9,0.3-3.2s0.4-2.3,0.5-3.1C412.8,154.5,412.9,154.1,413.1,153.7z"/>
	<path id="el9vxi0z8ra6m" class="st2" d="M387.7,226.8c-0.3,0.3-0.7,0.6-1.1,0.9c-0.7,0.5-1.8,1.3-3.1,2.1
		c-3.5,2.3-7.1,4.3-10.9,6.2c-3.7,1.9-7.6,3.5-11.5,4.9c-1.5,0.5-2.7,0.9-3.6,1.2c-0.4,0.2-0.9,0.3-1.4,0.3c0.4-0.2,0.8-0.4,1.3-0.5
		l3.5-1.3c3-1.1,7-2.9,11.4-5s8.2-4.4,10.9-6l3.2-2C386.8,227.2,387.2,227,387.7,226.8z"/>
	<g id="elcyfmcnffil7">
		<g class="st10">
			<path id="eld38jh5tbt7" d="M332.4,231.6c-2.6-1.5-5.4-2.7-8.3-3.6c-2.9-0.9-6-0.8-8.9,0.2c-0.3,0.1-0.7,0.3-0.7,0.7
				s0.6,0.7,1,0.8c5.6,0.9,11.4,1.3,17,2.1"/>
		</g>
	</g>
	<g id="elnyh58mzuf8">
		<g class="st10">
			<path id="elfnddexlj91" d="M334.6,177.7c-1.9,9.8-1.3,19.9,1.8,29.4L334.6,177.7z"/>
		</g>
	</g>
	<path id="elmrgzxa4efhl" class="st11" d="M363.1,279.6c0,0-5.7-4.6-7.4-6.7s-2.7-3.3-2.7-3.3s-6.8-2-9.3-4.9s-6.6-7-6.6-7l-8,8.5
		c0,0,4.7,7.6,5,10s3.2,9.4,3.2,9.4l15.5-9.3c0,0,3.3,4.6,5.4,5.1C359.9,281.7,363,283,363.1,279.6z"/>
	<path id="elqsl11ppxemk" class="st5" d="M329.7,154.4c0,0-5.6,1.4-11.1,22.3c-5,18.8-11.8,55.2-11.6,58.8s21.9,36.5,21.9,36.5
		l4.7,1.7l10-8.4c0,0,3.3-5.4,2.3-6.8s-5.1-4.1-5.1-4.1l-8.2-22.7l4.6-30.1L329.7,154.4z"/>
	<path id="eln4bu6nr4r88" class="st2" d="M324.1,230.3c0.2,0,0.4,0,0.6,0l1.7,0.2l6.2,0.9h0.1l0,0.1l4.7,12.8l3.5,9.9l-0.1-0.1
		c0.7,0.6,1.3,1.1,1.9,1.6c0.6,0.6,1,1.2,1.3,1.9c0.5,1.2,0.7,2.5,0.6,3.7c-0.1,0.8-0.4,1.6-0.7,2.3c-0.1,0.3-0.2,0.5-0.4,0.8
		c0-0.3,0.1-0.6,0.2-0.8c0.3-0.7,0.5-1.5,0.6-2.3c0.1-1.2-0.1-2.4-0.6-3.5c-0.3-0.7-0.8-1.3-1.3-1.8c-0.5-0.5-1.3-1-1.9-1.6h0v-0.1
		l-3.6-9.8c-1.7-4.9-3.3-9.3-4.6-12.9l0.2,0.1l-6.2-1.1l-1.7-0.3C324.5,230.4,324.3,230.4,324.1,230.3z"/>
	<path id="el6obdpvkfu8f" class="st2" d="M334.7,177c0.1,0,1.1,15.3,2.1,34.3s1.7,34.3,1.6,34.3s-1.1-15.3-2.1-34.3
		S334.6,177,334.7,177z"/>
	<path id="elqqhry1y2jj" class="st3" d="M351.2,90c0.1-0.1,0.2-0.2,0.3-0.3l0.9-0.8c1.1-1,2.1-2,3-3.1c1.2-1.4,2.4-3.3,3.9-5.2
		c1.7-2.1,3.9-3.7,6.4-4.7c4.7-1.8,9.9-1,13.9,2c0.7,0.5,1.2,1.2,1.6,2c0.3,0.6,0.3,1.3,0.2,1.9c-0.1,0.4-0.2,0.8-0.5,1.1
		c-0.1,0.1-0.2,0.2-0.3,0.3c0.4-0.4,0.6-0.9,0.7-1.4c0.1-0.6,0-1.2-0.3-1.8c-0.4-0.7-0.9-1.4-1.6-1.9c-3.9-2.9-9-3.6-13.6-1.9
		c-2.5,0.9-4.6,2.5-6.3,4.6c-1.5,1.9-2.7,3.7-4,5.1c-0.9,1.1-2,2.1-3.1,3c-0.4,0.3-0.7,0.6-1,0.7C351.4,89.8,351.3,89.9,351.2,90z"
		/>
	<path id="elxu74r1hzqz" class="st3" d="M348.6,95.9c0.9,0.3,1.8,0.5,2.6,0.7c4.5,0.7,8.9-1.4,11.3-5.2c0.4-0.8,0.9-1.6,1.2-2.5
		c0,0.2-0.1,0.5-0.2,0.7c-0.2,0.6-0.5,1.3-0.8,1.8c-1.1,2-2.8,3.5-4.9,4.5c-2.1,0.9-4.4,1.2-6.6,0.8c-0.7-0.1-1.3-0.3-2-0.6
		C349,96.2,348.8,96.1,348.6,95.9z"/>
	<path id="el5qr83njav1w" class="st3" d="M336.7,93.5c0.1-0.2,0.2-0.4,0.3-0.5c0.2-0.5,0.6-0.9,1-1.3c2.4-2.6,6.4-2.8,9-0.4
		c0.2,0.2,0.4,0.4,0.6,0.6c0.4,0.4,0.7,0.9,0.9,1.4c0.1,0.2,0.2,0.4,0.2,0.6c-0.4-0.7-0.8-1.3-1.3-1.8c-2.3-2.6-6.3-2.9-8.9-0.5
		c-0.1,0.1-0.2,0.2-0.3,0.3C337.6,92.3,337.1,92.9,336.7,93.5z"/>
	<path id="el0mbgzuk3ddl" class="st3" d="M351.3,135.7c-0.1-0.1-0.3-0.2-0.4-0.3c-0.4-0.3-0.7-0.6-1-1c-1.1-1.3-2.1-2.7-2.8-4.3
		c-1-2.3-1.6-4.9-1.5-7.4c0.1-3.1,1-6.2,2.6-8.9c1.6-2.7,3.4-5.2,5.4-7.5c1.8-2.2,3.4-4.2,4.6-6c1-1.4,1.8-2.9,2.6-4.4
		c0.2-0.5,0.4-0.9,0.5-1.3c0.1-0.2,0.1-0.3,0.2-0.4c0,0.2-0.1,0.3-0.1,0.5c-0.1,0.4-0.3,0.8-0.5,1.3c-0.7,1.6-1.5,3-2.5,4.5
		c-1.2,1.8-2.8,3.8-4.6,6c-2,2.4-3.8,4.9-5.4,7.5c-1.6,2.6-2.5,5.6-2.6,8.7c-0.1,2.5,0.4,5,1.4,7.3c0.7,1.6,1.6,3,2.7,4.3
		C350.8,135.3,351.3,135.7,351.3,135.7z"/>
	<path id="el143q95ppo3ai" class="st2" d="M375.7,156c-0.3,0.1-0.6,0.2-0.9,0.2c-0.8,0.1-1.6,0.1-2.5,0c-5.5-0.3-10.6-3-14.1-7.2
		c-0.5-0.6-1-1.3-1.4-2c-0.2-0.2-0.3-0.5-0.4-0.8c0.1-0.1,0.7,1.1,2.1,2.6c3.6,4,8.5,6.6,13.9,7.1C374.4,156,375.7,155.9,375.7,156z
		"/>
	<path id="elyv05gs8p6g" class="st2" d="M387.2,142.7c0.3,0.7,0.5,1.4,0.5,2.1c0.4,3.6-1.1,7.1-4,9.3c-0.6,0.5-1.2,0.8-1.9,1
		c0-0.1,0.7-0.5,1.7-1.3c1.3-1.1,2.3-2.5,3-4c0.7-1.6,1-3.2,0.9-4.9C387.4,143.5,387.1,142.7,387.2,142.7z"/>
</g>
</svg>
